<?xml version="1.0" standalone="no"?>
<!DOCTYPE svg PUBLIC "-//W3C//DTD SVG 1.1//EN" "http://www.w3.org/Graphics/SVG/1.1/DTD/svg11.dtd" >
<svg xmlns="http://www.w3.org/2000/svg" xmlns:xlink="http://www.w3.org/1999/xlink" version="1.1">
<metadata></metadata>
<defs>
<font id="thaisans_neuesemi_bold_italic" horiz-adv-x="0" >
<font-face units-per-em="2048" ascent="1548" descent="-500" />
<missing-glyph horiz-adv-x="823" />
<glyph unicode="&#x3b;&#x3b;arm&#x3b;&#x3b;" horiz-adv-x="2672" d="M95 1588v102h409v205q-29 0 -56.5 16.5t-49.5 44.5t-34.5 65.5t-12.5 77.5q0 46 17.5 83.5t45.5 64.5t66 42t75 15q97 0 151 -54t54 -151q0 -34 -10 -69.5t-29.5 -65t-47.5 -48t-67 -21.5v-205h410v-102h-410v-308l275 -615h-102l-224 513l-223 -513h-102l274 615v308 h-409zM198 0q0 29 10 60.5t31.5 58.5t55 43.5t81.5 16.5q76 0 127.5 -51.5t51.5 -127.5q0 -18 -8.5 -64t-60.5 -82l56 -262l142 283h51l140 -283l90 536h127l-40 -216l28 52l166 38q0 133 16 226.5t46.5 150t79 82t114.5 25.5q77 0 115.5 -51t38.5 -127h-51q0 38 -19.5 70 t-56.5 32q-98 0 -139 -95t-41 -286l187 45l23 -94l-210 -54v-102q0 -154 -7.5 -281t-37 -219t-86 -142t-150.5 -50q-77 0 -128 38.5t-51 115.5h51q0 -38 32 -57.5t70 -19.5q77 0 118 46t60 126.5t22.5 193.5t3.5 249v76l-204 -51l-87 -460h-66l-180 383l-179 -383h-66 l-83 409l47 31q-6 -3 -16 -3q-10 -2 -36 -2q-22 0 -54.5 8.5t-59.5 29t-45.5 54t-18.5 84.5zM300 0q0 -29 19 -51.5t57 -22.5q76 0 76 74q0 76 -76 76q-38 0 -57 -22.5t-19 -53.5zM452 2099q0 -39 22 -71t81 -32t81 32.5t22 70.5q0 59 -32 80.5t-71 21.5t-71 -21.5 t-32 -80.5zM1042 665l583 1587h441l512 -1587h-409l-157 487h-688l-180 -487h-102zM1375 1280h594l-279 870zM1705 51l51 257h76l-76 -257h-51zM1776 2176l34 -100l59 100h-93zM1828 2030l21 -71l132 217h-63zM1832 51l52 257h77l-77 -257h-52zM1866 1910l29 -92l143 241 l-28 86zM1920 1741l15 -51l144 238l-15 51zM1956 1629l15 -51l144 237l-16 51zM1989 -254q0 95 23 183.5t64.5 155t97.5 107t122 40.5q136 0 209 -93t73 -264q0 -251 -89.5 -368.5t-243.5 -117.5q-49 0 -95 20t-82 62.5t-57.5 110t-21.5 164.5zM1994 1510l16 -51l142 236 l-17 54zM2028 1408l17 -62l144 239l-18 61zM2064 1290l17 -51l141 239l-13 51zM2091 -202l359 153q-5 49 -20 88q-15 33 -45 61t-89 28q-66 0 -107 -53t-61 -114q-26 -71 -37 -163zM2091 -330q0 -29 9.5 -60.5t28.5 -58.5t48 -44t68 -17q76 0 117.5 51t61.5 117 q22 71 26 166zM2099 1175l16 -41l143 234l-13 48zM2132 1075l16 -41l143 236l-15 44zM2166 972l15 -48l147 234l-17 53zM2199 870l19 -59l142 241l-18 57zM2232 768l8 -26h34l120 203l-18 61zM2314 742h51l63 106l-19 51zM2406 742h52l-18 57z" />
<glyph unicode="&#xd;" horiz-adv-x="823" />
<glyph unicode=" "  horiz-adv-x="823" />
<glyph unicode="&#x09;" horiz-adv-x="823" />
<glyph unicode="&#xa0;" horiz-adv-x="823" />
<glyph unicode="!" horiz-adv-x="378" d="M95 0l37 188h190l-38 -188h-189zM164 330l217 1029h190l-217 -1029h-190z" />
<glyph unicode="&#x22;" horiz-adv-x="685" d="M289 921l92 438h188l-95 -438h-185zM599 921l92 438h187l-92 -438h-187z" />
<glyph unicode="#" horiz-adv-x="1443" d="M174 374l75 158h193l113 233h-194l74 161h197l174 356h185l-172 -356h320l175 356h184l-174 -356h220l-76 -161h-222l-110 -233h220l-78 -158h-218l-179 -374h-185l179 374h-323l-178 -374h-184l179 374h-195zM630 532h320l112 233h-322z" />
<glyph unicode="$" horiz-adv-x="1043" d="M110 85l36 156q49 -31 108 -53q51 -20 116 -36t140 -16q141 0 223.5 65t104.5 170q17 83 -22.5 130t-107.5 77.5t-148.5 57t-145.5 66.5t-100 106.5t-12 176.5q16 66 55 121.5t96 95t124.5 65t138.5 35.5l44 196h182l-43 -196q66 -4 114.5 -18t78.5 -26q37 -16 63 -34 l-31 -156q-42 20 -93 38q-46 15 -111 28.5t-155 13.5q-39 0 -83 -12t-84 -34t-69.5 -51.5t-37.5 -61.5q-12 -67 29 -107t108.5 -69t147 -57t143 -74.5t98.5 -119.5t9 -191q-12 -66 -41.5 -129t-77 -115.5t-119.5 -88.5t-168 -50l-41 -200h-183l39 190q-83 2 -143 18t-100 38 q-46 22 -82 51z" />
<glyph unicode="%" horiz-adv-x="1502" d="M256 0l1212 1569h201l-1210 -1569h-203zM322 1080q39 181 134.5 284.5t217.5 103.5q115 0 163.5 -96.5t12.5 -272.5q-39 -177 -136.5 -278.5t-214.5 -101.5q-115 0 -164 96t-13 265zM494.5 978.5q-3.5 -40.5 1.5 -62.5t18.5 -30t27.5 -8q16 0 32.5 8t33.5 31t32.5 63.5 t30.5 107.5q15 66 16.5 109.5t-3.5 68t-19.5 34t-29.5 9.5q-36 0 -66.5 -44t-58.5 -180q-12 -66 -15.5 -106.5zM950 322q39 182 134.5 285.5t217.5 103.5q116 0 164.5 -96.5t11.5 -274.5q-18 -88 -54 -156.5t-82.5 -117t-100 -74.5t-110.5 -26q-115 0 -166 94t-15 262z M1121 165q13 -43 49 -43t67.5 43t60.5 167q28 126 14 173t-50 47t-68 -46.5t-58 -175.5q-28 -122 -15 -165z" />
<glyph unicode="&#x26;" horiz-adv-x="1453" d="M164 338q28 141 120 236t254 161q-52 39 -87.5 106.5t-15.5 164.5q15 69 54 125.5t96 95t129 60.5t148 22q69 0 126 -20.5t95 -58.5t55 -89t3 -110q-25 -117 -103 -183.5t-208 -122.5q56 -39 95.5 -76.5t67.5 -75.5t48.5 -76t40.5 -79q100 120 161.5 236t82.5 214l13 58 h190q-41 -151 -139 -327.5t-230 -319.5q34 -54 83 -86t147 -32l-31 -161q-130 0 -213.5 39.5t-129.5 106.5q-220 -168 -494 -168q-200 0 -300 85.5t-58 274.5zM352.5 239.5q11.5 -39.5 39.5 -62.5t71 -32t95 -9q112 0 202 34.5t178 100.5q-29 54 -53.5 106.5t-56.5 98.5 t-77 85.5t-111 68.5q-56 -22 -102.5 -45.5t-82 -56t-61 -78t-40.5 -112.5q-13 -59 -1.5 -98.5zM625 1006q-25 -130 79 -200q115 42 174.5 98t73.5 122q6 29 -4 51t-29.5 35.5t-44 21t-46.5 7.5q-88 0 -140.5 -41.5t-62.5 -93.5z" />
<glyph unicode="'" horiz-adv-x="378" d="M289 921l92 438h190l-92 -438h-190z" />
<glyph unicode="(" horiz-adv-x="575" d="M141.5 29q-36.5 209 17.5 462q53 259 184 479t319 400h186q-190 -184 -324.5 -408t-185.5 -468q-54 -252 -13 -462.5t156 -390.5h-183q-120 179 -156.5 388z" />
<glyph unicode=")" horiz-adv-x="575" d="M-54 -359q184 179 314.5 391t184.5 459q54 254 14.5 474t-151.5 405h186q112 -179 148.5 -399.5t-17.5 -479.5q-54 -256 -184.5 -468.5t-315.5 -381.5h-179z" />
<glyph unicode="*" horiz-adv-x="738" d="M305 999l230 107l-184 108l110 115l115 -139l15 202h144l-75 -204l182 141l59 -115l-232 -108l186 -107l-107 -115l-123 140l-14 -205h-142l71 202l-174 -137z" />
<glyph unicode="+" horiz-adv-x="992" d="M192 459l33 161h320l70 335h164l-73 -335h320l-32 -161h-320l-65 -305h-164l67 305h-320z" />
<glyph unicode="," horiz-adv-x="378" d="M-141 -279q59 41 107 87q44 41 81.5 93.5t50.5 110.5l32 169h190l-34 -169q-12 -66 -54 -119.5t-86 -92.5q-51 -46 -115 -79h-172z" />
<glyph unicode="-" horiz-adv-x="723" d="M198 486l32 156h535l-33 -156h-534z" />
<glyph unicode="." horiz-adv-x="378" d="M95 0l35 181h190l-36 -181h-189z" />
<glyph unicode="/" horiz-adv-x="636" d="M18 0l752 1569h180l-752 -1569h-180z" />
<glyph unicode="0" horiz-adv-x="1095" d="M160 339.5q-9 119.5 24 275.5q36 166 100.5 295t147.5 217.5t183.5 135t208.5 46.5q102 0 184 -42.5t129.5 -125.5t59.5 -209t-22 -290q-36 -161 -103.5 -285.5t-155.5 -208.5t-191 -127t-207 -43q-106 0 -182.5 40.5t-121.5 121t-54 200zM352 398.5q4 -93.5 31 -151 t74 -84.5t107 -27q61 0 123.5 28t118.5 87t102 154t74 225q29 136 24 233t-34.5 161t-80.5 94t-112 30q-59 0 -118.5 -31.5t-113 -94t-96.5 -162.5t-75 -238q-28 -130 -24 -223.5z" />
<glyph unicode="1" horiz-adv-x="621" d="M249 911l35 161q64 23 124.5 58t109.5 71q56 39 104 81h177l-271 -1282h-190l217 1031q-49 -29 -136 -65.5t-170 -54.5z" />
<glyph unicode="2" horiz-adv-x="902" d="M56 0l29 139q15 76 72.5 145.5t137 134.5t170 127.5t170 127t137.5 131t73 140.5q23 113 -28.5 158t-132.5 45q-83 0 -182.5 -30t-176.5 -89l34 159q66 56 159 88.5t201 32.5q173 0 262 -94t55 -255q-20 -95 -76 -174.5t-129 -147t-157.5 -127t-160 -116.5t-137 -115 t-90.5 -119h630l-30 -161h-830z" />
<glyph unicode="3" horiz-adv-x="928" d="M105 56l36 169q51 -51 126 -70t161 -19q51 0 103.5 11.5t98.5 37t79 65t46 92.5q13 62 -2 107t-63 74t-132 43.5t-213 14.5l34 157q115 0 210 22q82 20 153.5 64t92.5 128q10 57 2.5 93.5t-29.5 60t-54 33t-70 9.5q-76 0 -161 -19.5t-152 -63.5l34 159q69 38 147 61.5 t167 23.5q71 0 135.5 -23.5t108 -64.5t64.5 -100t4 -127q-29 -139 -122 -216t-225 -109q58 -8 112 -33t92 -64.5t56 -93t4 -122.5q-18 -87 -68 -157.5t-123 -119t-165.5 -75t-200.5 -26.5q-90 0 -165 23.5t-121 54.5z" />
<glyph unicode="4" horiz-adv-x="956" d="M82 302l30 154l760 826h183l-174 -813h155l-35 -167h-156l-64 -302h-187l64 302h-576zM332 469h359l110 513z" />
<glyph unicode="5" horiz-adv-x="877" d="M100 31l39 174q31 -20 66 -36q31 -13 74 -23t95 -10q130 0 220 56.5t117 183.5q23 113 -31.5 187.5t-188.5 74.5q-59 0 -109 -6.5t-84 -11.5q-44 -8 -76 -16l144 678h640l-36 -161h-450l-72 -335h84q100 0 178.5 -27t128.5 -78t67.5 -125.5t-2.5 -169.5 q-42 -192 -190 -300t-376 -108q-90 0 -146 16t-92 37z" />
<glyph unicode="6" horiz-adv-x="965" d="M174 564q78 371 267 558t429 187q59 0 125.5 -5.5t110.5 -25.5l-36 -164q-34 7 -69 15q-33 5 -74 12t-92 7q-161 -3 -274 -118.5t-162 -315.5q59 64 140 84.5t142 20.5q79 0 146 -30.5t110 -85.5t58.5 -131t-1.5 -167q-20 -93 -69.5 -172t-118 -135.5t-153 -88 t-177.5 -31.5q-187 0 -274 153.5t-28 432.5zM345 422q-31 -146 19.5 -216t147.5 -70q44 0 91 19t88 55t72 85.5t43 109.5q29 136 -24.5 195.5t-159.5 59.5q-61 0 -108.5 -25.5t-83.5 -61t-57 -76.5t-28 -75z" />
<glyph unicode="7" horiz-adv-x="890" d="M228 0l658 1121h-632l35 161h855l-18 -76l-708 -1206h-190z" />
<glyph unicode="8" horiz-adv-x="941" d="M128 345q22 113 92.5 200t189.5 146q-66 51 -90.5 124t-7.5 155q16 69 54.5 130.5t96 108t130 73.5t155.5 27q76 0 136.5 -29t98.5 -75.5t53.5 -108.5t2.5 -126q-20 -90 -75 -159t-136 -120q90 -51 121 -146t9 -200q-18 -87 -63 -155t-109 -114.5t-146 -72t-174 -25.5 q-200 0 -287 96.5t-51 270.5zM322 374q-24 -115 25 -176.5t149 -61.5q98 0 175 60t101 175q10 49 4 93t-27 77t-59 51.5t-91 18.5q-47 0 -90 -15t-81.5 -45.5t-67 -75.5t-38.5 -101zM499 955q-18 -83 16.5 -133t116.5 -50q34 0 68.5 13.5t65 38t53.5 57.5t31 74 q15 74 -20.5 133.5t-118.5 59.5q-49 0 -84.5 -17t-61 -44t-42.5 -61.5t-24 -70.5z" />
<glyph unicode="9" horiz-adv-x="965" d="M130 5l34 161q25 -7 61 -15q29 -5 71 -10t93 -5q141 0 261 103t185 330q-31 -31 -67 -52t-74.5 -32t-75.5 -16t-68 -5q-82 0 -147 32t-107 87t-58 130.5t3 164.5q20 94 70 173.5t119 136t154 89t174 32.5q97 0 167.5 -42.5t110 -119.5t46.5 -187t-22 -246 q-79 -366 -265 -551t-441 -185q-59 0 -121 5t-103 22zM428 878q-26 -118 18.5 -187t164.5 -69q64 0 112.5 27t83.5 63t56 75t26 68q12 61 9.5 113.5t-21.5 92.5t-57.5 63.5t-97.5 23.5q-51 0 -98.5 -23.5t-87.5 -61t-69 -86t-39 -99.5z" />
<glyph unicode=":" horiz-adv-x="378" d="M95 0l37 188h188l-36 -188h-189zM249 738l40 186h190l-41 -186h-189z" />
<glyph unicode=";" horiz-adv-x="378" d="M-141 -279q59 44 107 91q44 42 81.5 94.5t50.5 105.5l34 172h190l-36 -172q-12 -61 -54 -113.5t-86 -93.5q-51 -46 -115 -84h-172zM251 738l38 186h190l-41 -186h-187z" />
<glyph unicode="&#x3c;" horiz-adv-x="960" d="M139 391l17 88l992 493l-39 -181l-699 -353l558 -306l-37 -176z" />
<glyph unicode="=" horiz-adv-x="992" d="M156 295l34 157h804l-34 -157h-804zM220 596l34 162h804l-37 -162h-801z" />
<glyph unicode="&#x3e;" horiz-adv-x="960" d="M8 -44l36 176l691 306l-551 353l38 181l782 -493l-19 -88z" />
<glyph unicode="?" horiz-adv-x="838" d="M249 0l37 188h190l-38 -188h-189zM315 1036l30 156q36 32 83 57q41 20 102 40t144 20q66 0 125 -20.5t99 -59.5t57 -94t3 -124q-16 -66 -49.5 -116t-75.5 -87.5t-88 -67t-85.5 -57.5t-69 -57.5t-38.5 -64.5l-44 -231h-190l48 236q15 74 74 125t127 96t125.5 92t72.5 117 q17 79 -23.5 113.5t-111.5 34.5q-69 0 -125.5 -16.5t-99.5 -37.5q-49 -25 -90 -54z" />
<glyph unicode="@" horiz-adv-x="1673" d="M197 218.5q-31 123.5 1 272.5q31 151 121.5 283t216.5 231t277.5 155t305.5 56q149 0 269 -47.5t199 -132t112 -198t6 -247.5q-23 -102 -74 -187.5t-118 -147t-142.5 -96.5t-144.5 -35q-105 0 -140.5 43.5t-30.5 131.5q-59 -82 -126 -128.5t-167 -46.5q-61 0 -114.5 22 t-89.5 67t-50 112.5t7 157.5q17 90 68.5 164t120 128t148 84.5t157.5 30.5q71 0 118.5 -33.5t57.5 -76.5l44 103h163l-163 -420q-13 -54 -15 -98q-3 -36 6 -65.5t42 -29.5q54 0 102 33.5t87 80.5t64.5 103.5t35.5 102.5q15 74 -2.5 161.5t-72.5 162t-150 124t-234 49.5 q-138 0 -263 -58t-225 -144.5t-166.5 -193t-86.5 -201.5q-22 -102 -4.5 -200.5t75 -176.5t157.5 -126.5t240 -48.5q100 0 201 23t186 50l-31 -132q-93 -29 -189.5 -49.5t-194.5 -20.5q-153 0 -276.5 51t-205 142.5t-112.5 215zM697.5 391q6.5 -37 23.5 -60t38.5 -32.5 t44.5 -9.5q105 0 171.5 81.5t96.5 233.5q29 134 -83 134q-103 0 -181 -69.5t-104 -184.5q-13 -56 -6.5 -93z" />
<glyph unicode="A" horiz-adv-x="1158" d="M18 0l744 1282h178l201 -1282h-189l-56 330h-502l-194 -330h-182zM486 491h389l-74 557z" />
<glyph unicode="B" horiz-adv-x="1018" d="M95 0l271 1282h376q178 0 258 -88q60 -65 59 -156q0 -32 -7 -66q-22 -114 -108 -191t-194 -97q59 -8 111.5 -31t88.5 -62q34 -39 50 -94q8 -28 8 -60q0 -31 -7 -66q-17 -85 -67 -153.5t-122 -117.5t-160 -74.5t-181 -25.5h-376zM315 161h174q61 0 116 17t97.5 45 t70.5 66.5t38 81.5q6 27 6 51q1 66 -45 113q-62 64 -217 64h-147zM442 760h132q112 0 188 47.5t96 140.5q5 24 5 45q0 57 -40 87q-55 42 -154 41h-149z" />
<glyph unicode="C" horiz-adv-x="1087" d="M178 361q-8 46 -7 97q0 80 19 170q34 156 107.5 282t177.5 215t232 136.5t268 47.5q113 0 208 -15.5t151 -44.5l-98 -159q-66 36 -140.5 47t-155.5 11q-112 0 -206 -44t-166 -117t-120.5 -166t-68.5 -193q-15 -73 -15 -137q0 -35 4 -67q12 -92 57.5 -155.5t122.5 -98 t180 -34.5q97 0 168.5 22.5t153.5 61.5l30 -159q-82 -43 -188 -63t-218 -20q-139 0 -244 46.5t-168.5 131.5t-83.5 205z" />
<glyph unicode="D" horiz-adv-x="1210" d="M95 0l271 1282h364q328 0 480 -152q104 -104 104 -290q0 -85 -22 -188q-31 -151 -109.5 -271t-191.5 -204.5t-254 -130.5t-295 -46h-347zM315 161h161q123 0 226.5 35.5t185.5 101.5t137 155t79 199q17 76 17 140q1 130 -69 210q-104 120 -361 119h-171z" />
<glyph unicode="E" horiz-adv-x="890" d="M95 0l271 1282h702l-37 -161h-511l-85 -399h461l-36 -161h-461l-84 -400h513l-32 -161h-701z" />
<glyph unicode="F" horiz-adv-x="813" d="M95 0l271 1282h702l-37 -161h-511l-85 -399h461l-36 -161h-461l-115 -561h-189z" />
<glyph unicode="G" horiz-adv-x="1236" d="M176 350q-9 50 -9 105q0 76 17 160q31 149 110.5 276.5t190.5 220t249 145t287 52.5q98 0 164 -14.5t110 -29.5q46 -17 77 -41l-33 -172q-8 8 -32.5 23t-69.5 30.5t-112 29t-160 13.5q-113 0 -210 -44t-175.5 -118.5t-131 -170.5t-74.5 -200q-15 -68 -15 -129 q0 -34 5 -65q12 -89 57 -152.5t122 -98t187 -34.5q82 0 138 10t123 42l69 322h-281l32 161h471l-127 -600q-107 -53 -229 -73t-245 -20q-136 0 -242.5 44t-173.5 126t-89 202z" />
<glyph unicode="H" horiz-adv-x="1171" d="M95 0l271 1282h189l-115 -534h605l115 534h189l-271 -1282h-189l122 586h-606l-124 -586h-186z" />
<glyph unicode="I" horiz-adv-x="378" d="M95 0l271 1282h189l-271 -1282h-189z" />
<glyph unicode="J" horiz-adv-x="687" d="M20 18l95 143q17 -7 39 -12q38 -13 92 -13q95 0 157.5 76.5t97.5 239.5l178 830h189l-177 -830q-25 -122 -73.5 -211.5t-113 -148t-141.5 -86.5t-158 -28q-49 0 -83 6t-58 14q-29 10 -44 20z" />
<glyph unicode="K" horiz-adv-x="1038" d="M95 0l271 1282h189l-127 -598l611 598h223l-453 -447l212 -835h-197l-172 681l-286 -279l-82 -402h-189z" />
<glyph unicode="L" horiz-adv-x="813" d="M95 0l271 1282h189l-240 -1121h513l-32 -161h-701z" />
<glyph unicode="M" horiz-adv-x="1530" d="M95 0l271 1282h233l215 -993l658 993h236l-272 -1282h-190l205 970l-650 -970h-100l-215 960l-205 -960h-186z" />
<glyph unicode="N" horiz-adv-x="1248" d="M95 0l271 1282h220l435 -1008l215 1008h190l-271 -1282h-220l-441 996l-210 -996h-189z" />
<glyph unicode="O" horiz-adv-x="1351" d="M173 357q-6 41 -6 86q0 84 21 179q33 157 103 283t170 216t226.5 139t272.5 49q139 0 240.5 -49t163.5 -136.5t80 -207.5q6 -44 6 -92q0 -82 -19 -174q-33 -156 -103 -281t-171.5 -212.5t-229.5 -133t-277 -45.5q-139 0 -239.5 45.5t-160.5 130t-77 203.5zM362 416 q12 -92 54.5 -154t111 -94t158.5 -32q100 0 188 33t161.5 97t126 160t79.5 224q17 77 17 143q0 33 -4 65q-12 92 -55.5 156t-113 99t-159.5 35q-200 0 -348 -136.5t-202 -389.5q-17 -78 -17 -146q-1 -31 3 -60z" />
<glyph unicode="P" horiz-adv-x="953" d="M95 0l271 1282h362q200 0 299 -100q70 -71 70 -190q0 -50 -12 -108q-44 -205 -198.5 -315t-368.5 -110h-139l-98 -459h-186zM412 620h138q151 0 235.5 72.5t110.5 188.5q9 52 9 93v8q-1 44 -23 75t-67 47.5t-121 16.5h-174z" />
<glyph unicode="Q" horiz-adv-x="1351" d="M174 357q-6 43 -6 89q0 83 20 176q33 157 103 283t170 216t225 139t269 49q141 0 244 -49t165 -136.5t80 -207.5q6 -44 6 -92q0 -82 -19 -174q-46 -215 -159.5 -367.5t-267.5 -228.5q28 -13 57 -32.5t51 -47.5t32 -65q6 -18 6 -39t-6 -46h-176q3 13 3 25q0 21 -9 39 q-12 27 -35 47.5t-50 36.5t-49 23q-44 -10 -91.5 -13.5t-94.5 -3.5q-132 0 -232 45.5t-159 130t-77 203.5zM362 416q12 -91 53 -153.5t110 -94.5t161 -32q98 0 187 33t162.5 97t126 160t79.5 224q17 77 17 143q0 34 -4 65q-13 92 -56 156t-115 99t-164 35q-95 0 -182 -35 t-157 -103t-124 -165t-80 -223q-17 -78 -17 -146q0 -31 3 -60z" />
<glyph unicode="R" horiz-adv-x="1070" d="M95 0l271 1282h396q79 0 148.5 -23t115.5 -67t66 -111q10 -34 10 -74q0 -39 -10 -83q-28 -133 -131 -207.5t-223 -96.5q53 -20 88.5 -95t72.5 -156l153 -369h-214l-139 335q-44 103 -88.5 151.5t-114.5 48.5h-102l-113 -535h-186zM430 696h179q112 0 192 57.5t103 170.5 q6 24 6 46q0 56 -38 94q-52 52 -173 55l-179 2z" />
<glyph unicode="S" horiz-adv-x="1043" d="M112 85l34 159q46 -32 103 -54q49 -20 111 -37t136 -17q136 0 225.5 57.5t116.5 177.5q5 25 5 47q1 50 -27 83q-40 47 -107 77.5t-147.5 56t-146.5 66.5t-101 106q-21 39 -21 96q0 37 9 82q16 74 66 134.5t117 103t149 64.5t165 22q97 0 164.5 -14.5t111.5 -29.5 q49 -17 80 -41l-31 -162q-39 23 -93 42q-46 15 -112.5 29.5t-156.5 14.5q-43 0 -87.5 -12t-83.5 -34t-65.5 -51.5t-34.5 -65.5q-3 -15 -3 -29q0 -46 32 -76q41 -40 108.5 -68t148.5 -56t145 -74q62 -47 96 -120q19 -41 19 -96q0 -43 -11 -95q-15 -79 -51.5 -150.5 t-102.5 -125.5t-163.5 -85.5t-229.5 -31.5q-98 0 -166.5 16t-112.5 37q-51 23 -88 54z" />
<glyph unicode="T" horiz-adv-x="928" d="M254 1121l35 161h893l-34 -161h-347l-235 -1121h-190l235 1121h-357z" />
<glyph unicode="U" horiz-adv-x="1171" d="M198 489l168 793h189l-166 -783q-18 -86 -18 -151q0 -80 28 -127q51 -85 200 -85q143 0 247 79.5t145 268.5l169 798h189l-164 -774q-59 -277 -220 -403.5t-401 -126.5q-230 0 -326 124q-61 78 -61 210q0 79 21 177z" />
<glyph unicode="V" horiz-adv-x="1158" d="M289 1282h190l151 -1036l594 1036h188l-743 -1282h-178z" />
<glyph unicode="W" horiz-adv-x="1693" d="M289 1282h190l63 -1023l526 1023h127l39 -1021l525 1021h190l-667 -1282h-207l-20 942l-464 -942h-205z" />
<glyph unicode="X" horiz-adv-x="1097" d="M18 0l556 640l-256 642h220l181 -481l412 481h220l-555 -642l284 -640h-220l-210 481l-412 -481h-220z" />
<glyph unicode="Y" horiz-adv-x="1038" d="M289 1282h192l164 -617l456 617h191l-593 -813l-98 -469h-189l98 464z" />
<glyph unicode="Z" horiz-adv-x="1018" d="M18 0l13 61l924 1060h-650l35 161h932l-14 -61l-928 -1060h676l-31 -161h-957z" />
<glyph unicode="[" horiz-adv-x="537" d="M18 -359l366 1731h425l-33 -158h-251l-303 -1414h252l-32 -159h-424z" />
<glyph unicode="\" horiz-adv-x="636" d="M349 1569h179l92 -1569h-182z" />
<glyph unicode="]" horiz-adv-x="537" d="M-54 -359l34 159h245l300 1414h-251l34 158h424l-366 -1731h-420z" />
<glyph unicode="^" horiz-adv-x="1215" d="M200 494l628 878h86l312 -878h-184l-226 620l-435 -620h-181z" />
<glyph unicode="_" horiz-adv-x="992" d="M66 -125l34 154h804l-34 -154h-804z" />
<glyph unicode="`" horiz-adv-x="613" d="M399 1439h200l159 -313h-172z" />
<glyph unicode="a" horiz-adv-x="941" d="M144 141q-5 20 -5 42q0 35 12 76q20 85 65 137t101.5 80t114 38.5t106.5 10.5q66 0 113.5 5t78.5 12q36 10 59 22q12 54 12 95q1 67 -31 101q-50 54 -145 54q-79 0 -141 -26t-105 -56q-51 -36 -90 -80l-30 129q39 49 95 89q48 36 122 64t182 28q71 0 137.5 -20.5 t112.5 -63.5q48 -42 68 -112q10 -34 10 -75q0 -42 -11 -90l-127 -601h-174l22 115q-20 -20 -52.5 -43t-70.5 -43.5t-81.5 -34.5t-92.5 -14q-67 0 -120.5 19t-88 55t-46.5 87zM328 192q8 -26 28 -41t49.5 -22t63.5 -7q69 0 140.5 36.5t112.5 79.5l40 190q-36 -10 -71 -18 q-33 -5 -71.5 -10.5t-77.5 -5.5q-33 0 -67.5 -9t-65 -26t-52.5 -42.5t-29 -57.5q-4 -21 -4 -38q0 -16 4 -29z" />
<glyph unicode="b" horiz-adv-x="1070" d="M95 0l286 1359h177l-118 -553q39 44 88 80q43 29 103 54t137 25q66 0 139 -28t128 -85.5t81 -147.5q13 -45 12 -99q0 -53 -12 -114q-28 -136 -91 -230.5t-142 -154.5t-165 -88t-163 -28q-76 0 -126 23t-78 51q-33 34 -51 77l-29 -141h-176zM325 266q29 -38 66 -66 q34 -25 82.5 -44.5t110.5 -19.5q48 0 102 19t104 61.5t89.5 108.5t60.5 164q8 41 8 77q0 32 -6 60q-13 60 -45 102t-76.5 64t-92.5 22q-62 0 -119 -21t-99 -43q-51 -29 -95 -64z" />
<glyph unicode="c" horiz-adv-x="816" d="M146 250q-8 37 -8 80q0 54 13 118q25 114 82.5 210.5t136 163.5t174.5 103.5t198 36.5q54 0 99 -12t78 -26q39 -15 70 -35l-100 -149q-20 20 -49 36q-22 13 -55 25.5t-74 12.5q-66 0 -127.5 -28t-112.5 -77t-90 -115t-53 -146q-10 -48 -10 -88q0 -90 49 -145 q71 -79 202 -79q41 0 78 11.5t64 23.5q34 15 65 39l35 -149q-43 -20 -89 -36q-41 -13 -92 -24t-105 -11q-100 0 -179.5 29.5t-130.5 88t-69 142.5z" />
<glyph unicode="d" horiz-adv-x="1070" d="M150 266q-8 39 -8 85q0 64 17 140q25 118 87 208t141 147.5t162 86.5t150 29q76 0 127.5 -25.5t82.5 -52.5q36 -34 59 -78l117 553h177l-287 -1359h-176l29 141q-42 -43 -93 -77q-44 -29 -105 -51.5t-139 -22.5q-76 0 -148 29.5t-122.5 90.5t-70.5 156zM326 332 q12 -66 41 -109.5t73 -65t92 -21.5q67 0 125.5 19t102.5 45q51 29 95 66l87 420q-24 36 -64 64q-34 22 -83.5 43t-115.5 21q-49 0 -103 -23t-102.5 -66.5t-85.5 -103.5t-53 -132q-13 -57 -13 -105q0 -28 4 -52z" />
<glyph unicode="e" horiz-adv-x="936" d="M140 247q-5 32 -6 68q0 65 17 144q23 105 74 197t122 160t157.5 107t181.5 39q190 0 265 -122q48 -79 49 -197q0 -65 -15 -142l-15 -81h-648q-9 -43 -9 -79q0 -83 44 -133q63 -72 188 -72q69 0 117.5 14t82.5 31q39 20 64 47l33 -140q-43 -29 -94 -49 q-44 -20 -106.5 -34.5t-137.5 -14.5q-100 0 -176.5 27t-125 84.5t-62.5 145.5zM356 569h460q7 35 7 66q1 63 -27 109q-40 70 -141 70q-49 0 -94.5 -21t-85.5 -54t-70.5 -77t-48.5 -93z" />
<glyph unicode="f" horiz-adv-x="633" d="M181 776l31 150h167l26 122q34 151 115 244t230 93q44 0 74.5 -2.5t47.5 -7.5q20 -5 32 -10l-32 -154q-12 5 -27 13q-13 5 -32 8.5t-43 3.5q-66 0 -116 -39t-73 -149l-26 -122h256l-32 -150h-257l-163 -776h-175l165 776h-168z" />
<glyph unicode="g" horiz-adv-x="1070" d="M66 -342l95 142q20 -29 54 -49q29 -20 73 -34.5t111 -14.5q153 0 259.5 68.5t142.5 244.5l27 126q-39 -43 -88 -77q-44 -29 -104 -52.5t-137 -23.5q-71 0 -144.5 29t-127 86.5t-77.5 146.5q-12 42 -12 93q0 54 13 116q29 130 90 225t139.5 157.5t164 91.5t161.5 29 t127 -25.5t81 -52.5q34 -34 54 -78l31 144h176l-193 -909q-53 -256 -203.5 -371t-412.5 -115q-76 0 -133 15t-92 36q-43 23 -75 52zM325 330q13 -59 42 -102.5t71.5 -67.5t91.5 -24q66 0 126 19t104 45q51 29 95 64l87 420q-28 36 -67 64q-34 22 -83.5 42.5t-115.5 20.5 q-48 0 -101 -21.5t-101.5 -65t-88.5 -110t-57 -155.5q-9 -38 -9 -73q0 -29 6 -56z" />
<glyph unicode="h" horiz-adv-x="992" d="M95 0l286 1359h177l-123 -578q39 49 85 89q41 36 97.5 64t130.5 28q92 0 153 -28t95 -76q34 -47 40 -112q2 -19 2 -38q0 -48 -12 -99l-127 -609h-177l130 618q5 22 5 41q0 53 -37 91q-50 50 -146 51q-59 0 -106.5 -21.5t-83.5 -47.5q-42 -28 -72 -67l-141 -665h-176z" />
<glyph unicode="i" horiz-adv-x="365" d="M95 0l200 950h176l-200 -950h-176zM325 1090l36 175h177l-37 -175h-176z" />
<glyph unicode="j" horiz-adv-x="365" d="M-349 -394l95 143q15 -13 32 -23q12 -7 29 -14t34 -7q90 0 154 68t97 227l203 950h176l-195 -921q-46 -220 -168.5 -347t-302.5 -127q-44 0 -70 7.5t-47 17.5q-23 10 -37 26zM325 1090l36 175h177l-37 -175h-176z" />
<glyph unicode="k" horiz-adv-x="890" d="M95 0l286 1359h177l-189 -888l469 460h201l-328 -320l157 -611h-172l-120 479l-258 -259l-47 -220h-176z" />
<glyph unicode="l" horiz-adv-x="365" d="M95 0l286 1359h177l-287 -1359h-176z" />
<glyph unicode="m" horiz-adv-x="1620" d="M95 0l200 950h176l-36 -169q3 3 24.5 32t63 62.5t99 60t130.5 26.5q130 0 194.5 -56t82.5 -136q12 15 43.5 46.5t75.5 64.5t102.5 57t124.5 24q93 0 154 -28t94 -76.5t39 -112.5q2 -19 3 -39q0 -46 -11 -97l-128 -609h-177l131 618q4 18 4 35q0 55 -36 95q-48 54 -146 53 q-58 0 -105 -21.5t-83 -47.5q-42 -28 -75 -67l-140 -665h-177l130 618q5 22 5 41q0 53 -37 91q-50 50 -146 51q-59 0 -105.5 -21.5t-82.5 -47.5q-41 -28 -74 -67l-141 -665h-176z" />
<glyph unicode="n" horiz-adv-x="992" d="M95 0l200 950h176l-36 -169q39 49 85 89q41 36 100 64t135 28q90 0 150 -28t92 -76q33 -49 39 -113q2 -18 1 -38q0 -47 -11 -98l-127 -609h-177l130 618q4 19 4 37q0 53 -36 93q-48 54 -141 53q-59 0 -108 -21.5t-85 -47.5q-41 -28 -74 -67l-141 -665h-176z" />
<glyph unicode="o" horiz-adv-x="1041" d="M154 461q48 233 202 367t376 134q106 0 182.5 -34t122 -98.5t59.5 -152.5q5 -32 5 -66q0 -61 -16 -130q-49 -232 -204 -362.5t-377 -130.5q-208 0 -302 128q-63 86 -63 212q0 62 15 133zM330 461q-11 -52 -11 -98q0 -78 32 -136q50 -91 187 -91q146 0 241.5 93t129.5 252 q12 56 12 103q0 79 -32 137q-51 93 -188 93q-146 0 -241.5 -98t-129.5 -255z" />
<glyph unicode="p" horiz-adv-x="1070" d="M5 -408l290 1358h176l-31 -144q41 44 90 78q44 28 101.5 53t128.5 25q85 0 159.5 -29t127 -91.5t71.5 -157.5q7 -39 7 -83q0 -65 -16 -142q-25 -120 -88 -209t-141.5 -146.5t-163 -86.5t-150.5 -29q-76 0 -128 24t-82 52q-36 34 -56 77l-119 -549h-176zM325 264 q25 -39 66 -66q34 -26 84 -46t116 -20q39 0 91.5 21t102.5 62t89.5 101t56.5 143q12 63 12 112q0 32 -5 57q-12 68 -45 109.5t-78 59t-87 17.5q-62 0 -119 -21t-99 -45q-51 -29 -95 -64z" />
<glyph unicode="q" horiz-adv-x="1070" d="M150 250q-12 42 -12 93q0 54 13 116q29 130 88 225t134 157.5t160 91.5t161 29t127 -25.5t85 -52.5q39 -34 62 -78l31 144h176l-289 -1358h-177l119 549q-42 -43 -90 -77q-44 -29 -104 -52.5t-138 -23.5q-68 0 -141.5 29t-127 86.5t-77.5 146.5zM325 316 q15 -60 47.5 -101t75.5 -62t84 -21q64 0 123 19.5t103 46.5q51 28 97 66l87 420q-31 36 -70 64q-33 24 -80 45t-108 21q-42 0 -94 -17.5t-103.5 -59t-94.5 -109t-64 -169.5q-10 -45 -10 -84q0 -32 7 -59z" />
<glyph unicode="r" horiz-adv-x="613" d="M95 0l200 950h176l-53 -254q38 74 83 134q39 51 91.5 91.5t111.5 40.5q17 0 34 -2t30 -8q14 -4 28 -7l-38 -175q-16 2 -30 9q-13 5 -30 7.5t-38 2.5q-39 0 -85.5 -37.5t-88.5 -80.5q-48 -51 -97 -116l-118 -555h-176z" />
<glyph unicode="s" horiz-adv-x="838" d="M102 46l30 149q32 -20 70 -36q34 -13 80 -25t104 -12q208 0 239 147q4 18 4 34q1 35 -19 57q-28 32 -77 53.5t-106.5 38.5t-104 46.5t-72.5 76.5q-15 27 -14 65q0 29 8 64q12 61 53 111t96 86.5t116.5 55t115.5 18.5q71 0 121 -11.5t82 -23.5q36 -15 56 -36l-32 -149 q-24 20 -63 36q-34 13 -82.5 25t-112.5 12q-59 0 -111.5 -38t-62.5 -86q-3 -12 -2 -22q0 -30 22 -48q30 -24 79.5 -39.5t107 -34t101.5 -51.5t68 -89q13 -31 14 -73q0 -35 -9 -78q-12 -59 -45.5 -111.5t-89 -94t-131.5 -63.5t-174 -22q-59 0 -105 10t-82 22q-42 15 -72 36z " />
<glyph unicode="t" horiz-adv-x="633" d="M181 776l31 150h167l92 433h177l-93 -433h256l-32 -150h-257l-94 -454q-10 -48 -10 -83q0 -44 16 -65q30 -38 96 -38q29 0 49 2.5t36 7.5q17 5 33 13l-30 -154q-13 -5 -37 -7q-39 -8 -125 -8q-144 0 -190 90q-27 54 -27 130q0 51 12 112l94 454h-164z" />
<glyph unicode="u" horiz-adv-x="992" d="M156 204q-2 21 -2 42q0 44 10 92l131 612h176l-129 -610q-5 -25 -5 -47q0 -57 38 -93q53 -48 137 -49q59 0 108 20.5t84 46.5q44 28 77 68l140 664h178l-200 -948h-177l33 164q-31 -48 -76 -87q-39 -34 -98 -60.5t-133 -26.5q-93 0 -155.5 27t-95.5 75t-41 110z" />
<glyph unicode="v" horiz-adv-x="928" d="M218 950h204l103 -718l410 718h179l-533 -950h-205z" />
<glyph unicode="w" horiz-adv-x="1373" d="M218 950h202l30 -706l380 706h128l53 -706l357 706h188l-491 -950h-181l-49 681l-359 -681h-195z" />
<glyph unicode="x" horiz-adv-x="870" d="M18 0l417 474l-217 476h197l149 -330l291 330h197l-422 -489l222 -461h-197l-156 318l-287 -318h-194z" />
<glyph unicode="y" horiz-adv-x="990" d="M-61 -394l90 140q15 -12 30 -22q12 -8 31.5 -15t39.5 -7q56 0 100 30t88 102l114 181l-207 935h193l158 -696l406 696h193l-679 -1119q-44 -69 -83 -121t-85.5 -87t-100 -51.5t-125.5 -16.5q-43 0 -73.5 7.5t-50.5 17.5q-23 10 -39 26z" />
<glyph unicode="z" horiz-adv-x="885" d="M95 0l13 64l662 737h-458l30 149h726l-16 -72l-661 -729h498l-29 -149h-765z" />
<glyph unicode="{" horiz-adv-x="570" d="M139 391l30 144q76 7 126 50t74 147l63 299q37 161 131.5 247.5t278.5 93.5l-33 -158q-64 -5 -120.5 -47.5t-77.5 -140.5l-66 -307q-20 -103 -81.5 -170.5t-155.5 -92.5q82 -20 113 -88t11 -176l-61 -294q-22 -110 14.5 -146t103.5 -36l-33 -161q-174 0 -239.5 83 t-28.5 242l66 304q22 105 -10 151t-105 56z" />
<glyph unicode="|" horiz-adv-x="367" d="M25 -320l387 1818h179l-386 -1818h-180z" />
<glyph unicode="}" horiz-adv-x="570" d="M-74 -445l35 161q64 0 116.5 36t76.5 146l61 294q20 108 84.5 175.5t152.5 88.5q-82 25 -113 93.5t-11 169.5l66 307q20 98 -19.5 140.5t-100.5 47.5l34 158q178 -7 239.5 -93.5t26.5 -247.5l-64 -299q-22 -104 9 -147t106 -50l-29 -144q-78 -10 -131 -56t-74 -151 l-63 -304q-34 -159 -133.5 -242t-268.5 -83z" />
<glyph unicode="~" horiz-adv-x="990" d="M184 422q10 52 35 100.5t60.5 85.5t84 60t107.5 23q54 0 91 -20.5t72 -46t68 -46t79 -20.5q83 0 118 133h143q-31 -122 -101.5 -195.5t-185.5 -73.5q-56 0 -98 21t-77 45t-65.5 44t-69.5 20q-49 0 -78 -30.5t-42 -99.5h-141z" />
<glyph unicode="&#xa9;" horiz-adv-x="1681" d="M95 620q0 156 58.5 292t160 236.5t237 158.5t291.5 58q157 0 292.5 -58t236.5 -158.5t159 -236.5t58 -292t-58 -292t-159 -236t-236.5 -157t-292.5 -57q-156 0 -291.5 57t-237 157t-160 236t-58.5 292zM184 620q0 -136 51 -255t141 -207.5t210 -140t256 -51.5 q137 0 257 51.5t208 140t139.5 207.5t51.5 255t-51.5 255t-139.5 207t-208.5 139t-256.5 51t-256 -51t-210 -139t-141 -207t-51 -255zM418 606q0 110 33 199t93 150t144 94t187 33q59 0 127 -7t114 -25l-34 -75q-46 20 -101 28t-106 8q-85 0 -152.5 -30.5t-114.5 -85.5 t-72.5 -129.5t-25.5 -159.5q0 -178 98 -286t267 -108q66 0 111 13t96 41l34 -78q-51 -29 -118 -39t-136 -10q-202 0 -323 125t-121 342z" />
<glyph unicode="&#xad;" horiz-adv-x="723" d="M198 486l32 156h535l-33 -156h-534z" />
<glyph unicode="&#xae;" horiz-adv-x="1681" d="M95 620q0 156 58.5 292t160 236.5t237 158.5t291.5 58q157 0 292.5 -58t236.5 -158.5t159 -236.5t58 -292t-58 -292t-159 -236t-236.5 -157t-292.5 -57q-156 0 -291.5 57t-237 157t-160 236t-58.5 292zM184 618q0 -137 51 -255.5t141 -207.5t210 -139t256 -50 q139 0 258 50t207 139t139.5 207.5t51.5 255.5q0 138 -51.5 257t-139.5 207t-207.5 139t-257.5 51q-136 0 -256 -51t-210 -139t-141 -207t-51 -257zM574 176v920h274q56 0 106 -15.5t88 -46t61 -77t23 -107.5t-18 -105t-48.5 -73.5t-71 -46t-84.5 -24.5q46 -25 86.5 -66 t61.5 -76l177 -283h-113l-156 256q-41 67 -100 107t-95 40h-96v-403h-95zM669 652h127q46 0 88 12t74.5 38t52.5 61.5t20 86.5q0 76 -55 122.5t-152 46.5h-155v-367z" />
<glyph unicode="&#xbc;" horiz-adv-x="1832" d="M396 1341l19 90q36 13 69.5 31t57.5 38q29 22 57 46h97l-148 -704h-103l119 566q-25 -16 -73.5 -36.5t-94.5 -30.5zM399 0l1265 1569h180l-1265 -1569h-180zM1321 241l15 84l418 454h97l-95 -449h88l-22 -89h-83l-37 -167h-102l36 167h-315zM1456 330h198l58 285z" />
<glyph unicode="&#xbd;" horiz-adv-x="1862" d="M396 1341l19 90q36 13 69.5 31t57.5 38q29 22 57 46h97l-148 -704h-103l119 566q-25 -16 -73.5 -36.5t-94.5 -30.5zM399 0l1265 1569h180l-1265 -1569h-180zM1339 74l15 77q12 64 75 119t137.5 108.5t137 107.5t75.5 115q12 64 -17.5 88.5t-71.5 24.5q-46 0 -101 -15 t-99 -51l18 90q36 31 88.5 48.5t111.5 17.5q97 0 147 -52.5t29 -142.5q-18 -79 -75.5 -139t-125.5 -110t-130.5 -96t-84.5 -100h350l-18 -90h-461z" />
<glyph unicode="&#xbe;" horiz-adv-x="1845" d="M281 886l21 92q29 -29 69.5 -39t87.5 -10q56 0 111 26.5t68 86.5q12 67 -35.5 98.5t-187.5 31.5l17 88q64 2 116 12q43 10 83 33.5t50 72.5q13 61 -14 82.5t-68 21.5q-44 0 -89.5 -10.5t-81.5 -32.5l17 87q39 20 81.5 32.5t93.5 12.5q39 0 73.5 -12.5t58.5 -35.5t34 -55 t3 -70q-15 -74 -65 -116.5t-125 -60.5q66 -10 112.5 -53.5t30.5 -117.5q-20 -98 -103.5 -153t-198.5 -55q-51 0 -90.5 13t-68.5 31zM410 0l1264 1569h180l-1265 -1569h-179zM1334 241l15 84l417 454h98l-95 -449h87l-21 -89h-84l-36 -167h-103l37 167h-315zM1470 330h196 l59 285z" />
<glyph unicode="&#xe01;" horiz-adv-x="1133" d="M161 0l110 525q10 49 25.5 86t31.5 65q17 32 36 54l-64 64q-22 22 -43.5 41.5t-18.5 22.5q58 82 141 148q69 56 166 102.5t223 46.5q94 0 181 -23t151.5 -69.5t95 -117t10.5 -164.5l-131 -615q-7 -36 -30.5 -65.5t-50.5 -51.5q-32 -29 -70 -49h-72l154 730 q18 79 -3 131.5t-61.5 80.5t-96.5 40t-110 12q-66 0 -123 -22t-94 -48q-47 -29 -83 -66l129 -128q-20 -20 -42 -49q-17 -25 -35 -63.5t-31 -97.5l-111 -520h-184z" />
<glyph unicode="&#xe02;" horiz-adv-x="953" d="M196.5 223q-1.5 72 15.5 148l23 103q29 122 84 190t103 117q20 20 46 50.5t31 52.5q5 34 -11.5 59t-69.5 25h-157l34 161h157q139 0 200.5 -65t36.5 -180q-13 -64 -55.5 -117t-88.5 -91q-23 -20 -66.5 -74t-58.5 -128l-21 -103q-10 -49 -11.5 -91t11.5 -74t42.5 -51 t80.5 -19q52 0 90 20t65 55t45 76t26 84l161 758h190l-161 -758q-16 -76 -49.5 -148t-87 -125.5t-134.5 -86.5t-191 -33q-100 0 -160 33t-89 86.5t-30.5 125.5z" />
<glyph unicode="&#xe03;" horiz-adv-x="953" d="M196.5 223q-1.5 72 13.5 148l25 120q17 85 69 156.5t118 133.5q20 18 59 48.5t49 79.5q5 33 -14.5 49.5t-46.5 9.5q-15 -6 -34.5 -18t-38.5 -26q-20 -15 -40 -35q-12 22 -26 40q-12 15 -30.5 28t-38.5 13l34 159q20 0 40.5 -14t33.5 -33q15 -20 27 -43q25 22 54 43 q25 18 56.5 32.5t67.5 14.5q71 0 117.5 -55t22.5 -163q-18 -76 -58.5 -126t-86.5 -89q-13 -10 -33.5 -29t-42.5 -46t-41.5 -60t-26.5 -72l-26 -118q-10 -49 -12.5 -91t10.5 -74t42.5 -51t82.5 -19q52 0 90 21.5t66 57.5t46 78t26 86l159 750h190l-157 -740 q-17 -85 -50.5 -159t-88.5 -130t-132 -89t-182 -33q-108 0 -170.5 33t-91.5 86.5t-30.5 125.5z" />
<glyph unicode="&#xe04;" horiz-adv-x="1146" d="M95 0l164 781q17 88 72 156.5t133 117.5t169.5 74.5t182.5 25.5q90 0 171 -25.5t138 -73t83 -118t8 -157.5l-164 -781h-190l164 781q10 49 -5 88.5t-49 67.5t-84 42.5t-107 14.5q-59 0 -114.5 -14.5t-100 -41.5t-76 -66.5t-42.5 -90.5l-59 -282q46 41 97 72 q44 29 100 51.5t115 22.5l-41 -186q-66 0 -120 -19.5t-98 -40.5q-48 -29 -88 -59l-73 -340h-186z" />
<glyph unicode="&#xe05;" horiz-adv-x="1146" d="M95 0l164 781q15 67 53.5 133t91 120t116.5 87.5t128 33.5q31 0 55.5 -22t44.5 -51q20 -31 38 -71q34 41 66 71q29 29 64.5 51t68.5 22q66 0 116.5 -33.5t80 -87.5t39.5 -120t-5 -133l-164 -781h-190l164 781q8 39 6.5 77t-11.5 67.5t-31.5 49t-51.5 19.5 q-20 0 -51.5 -26t-62.5 -57q-36 -36 -74 -79q-22 44 -44 79q-20 31 -39 57t-39 26q-32 0 -61 -19.5t-53.5 -49t-41 -68t-24.5 -76.5l-59 -282q43 41 95 72q44 29 100 51.5t117 22.5l-41 -186q-66 0 -120 -19.5t-98 -40.5q-48 -29 -88 -59l-73 -340h-186z" />
<glyph unicode="&#xe06;" horiz-adv-x="1158" d="M132 0l109 515q18 90 59.5 139.5t88 85.5t88 72t53.5 94q5 32 -10.5 49t-43.5 17q-12 0 -33 -13.5t-41 -29.5q-22 -18 -46 -40q-12 22 -28 40q-13 15 -30 28t-37 13l34 159q20 0 39.5 -14t31.5 -33q15 -20 30 -43q25 22 54 43q25 18 56.5 32.5t67.5 14.5q82 -3 124 -63 t21 -157q-18 -88 -61 -137.5t-89.5 -88t-87.5 -79t-56 -108.5l-41 -194q28 -41 66 -72q34 -29 82.5 -49t115.5 -20q130 0 210 67t112 220l144 681h188l-161 -750q-15 -77 -55.5 -150t-100 -128t-134.5 -89t-162 -34q-98 0 -160.5 29t-100.5 64q-47 41 -72 95l-36 -166h-188z " />
<glyph unicode="&#xe07;" horiz-adv-x="972" d="M220 768h190l22 -604q57 0 121.5 27t121.5 77t103 124t67 172q20 95 5 170t-57.5 127.5t-106.5 79.5t-141 27l36 161q115 0 211.5 -37t159 -110t86.5 -178t-4 -240q-25 -125 -93.5 -229.5t-157.5 -178.5t-190.5 -115t-196.5 -41h-152z" />
<glyph unicode="&#xe08;" horiz-adv-x="1095" d="M246 921q46 64 115 115q59 44 151 81.5t223 37.5q125 0 216 -47.5t146 -125.5t73 -180.5t-5 -212.5q-25 -120 -82 -226.5t-139 -187t-188 -128t-234 -47.5h-128l-15 408q-5 20 -15 22t-32 2h-51l34 162h103q58 0 95 -19.5t51 -85.5l20 -325q71 0 134 35.5t115.5 95 t88.5 136.5t53 158q23 110 4 186.5t-63 125.5t-102.5 71t-114.5 22q-103 0 -181 -36.5t-132 -79.5q-64 -52 -110 -116z" />
<glyph unicode="&#xe09;" horiz-adv-x="1133" d="M159 484l33 161h126q84 0 112.5 -55t7.5 -148l-16 -71q-24 -115 3 -162.5t136 -47.5q67 0 129 22t114 49q58 32 110 73l80 374q15 66 10 123.5t-30.5 100t-77 67t-128.5 24.5t-150 -24.5t-129 -53.5q-67 -34 -123 -74l-31 157q59 43 134 76q63 29 147.5 54.5t187.5 25.5 q235 0 330 -124.5t54 -326.5l-149 -704h-189l34 166q-56 -54 -124 -95q-59 -36 -133.5 -64.5t-160.5 -28.5q-154 0 -210 103t-21 273l14 64q5 20 5 43t-24 23h-71z" />
<glyph unicode="&#xe0a;" horiz-adv-x="1010" d="M197.5 211.5q-2.5 67.5 12.5 142.5l25 120q25 120 82 189t105 118q20 20 46 50.5t31 52.5q7 36 -15.5 60t-75.5 24h-147l34 161h147q149 0 210.5 -65t36.5 -180q-13 -64 -54 -116t-87 -89q-23 -20 -68 -72t-60 -133l-26 -132q-8 -43 -9 -80t14.5 -65t50 -44.5t95.5 -16.5 t108.5 28t83 69t59 88.5t32.5 88.5q28 136 -3 225.5t-124 89.5l37 164q48 0 97 36.5t91 101.5t75 150t54 182h186q-36 -164 -92.5 -270.5t-111.5 -167.5t-98 -86.5t-53 -28.5q5 -2 34.5 -20t57.5 -62.5t43 -121.5t-7 -194q-18 -83 -56.5 -160t-100 -137t-147 -96.5 t-200.5 -36.5t-182 30.5t-97.5 83t-33 120z" />
<glyph unicode="&#xe0b;" horiz-adv-x="1010" d="M196.5 211.5q-1.5 67.5 13.5 142.5l28 132q17 83 66.5 156.5t115.5 136.5q10 10 27 22.5t33 28t30.5 36t19.5 43.5q5 33 -13 49.5t-46 11.5q-15 -5 -34 -17.5t-38 -26.5q-20 -15 -43 -35q-15 20 -31 38q-13 15 -29.5 28t-34.5 13l34 159q20 0 40.5 -14t33.5 -33 q15 -20 27 -43q25 22 54 43q25 18 56.5 32.5t67.5 14.5q82 0 121.5 -61.5t18.5 -158.5q-20 -83 -64 -130t-89 -88q-12 -10 -31.5 -28t-40 -43.5t-39 -57.5t-25.5 -71l-31 -149q-8 -43 -8 -80t16 -65t51.5 -44.5t98.5 -16.5q57 0 104.5 28t81.5 69t57.5 88.5t32.5 86.5 q28 136 -3 226.5t-124 90.5l37 164q48 0 97 36.5t91 101.5t75 150t54 182h186q-36 -164 -92.5 -270.5t-111.5 -167.5t-98 -86.5t-53 -28.5q5 -2 34.5 -20t57.5 -62.5t43 -121.5t-7 -194q-15 -77 -52.5 -154.5t-99 -138.5t-147 -99t-197.5 -38q-120 0 -188.5 30.5t-100 83 t-33 120z" />
<glyph unicode="&#xe0c;" horiz-adv-x="1798" d="M194 95.5q-6 36.5 6 96.5l71 333q10 49 25.5 86t31.5 65q17 32 36 54l-64 64q-22 22 -43.5 41.5t-18.5 22.5q58 82 141 148q69 56 167.5 102.5t225.5 46.5q93 0 178.5 -23t150 -69.5t95 -117t10.5 -164.5l-102 -479q17 -41 51 -72q29 -29 74.5 -49t111.5 -20 q64 0 109 15.5t75.5 50t51.5 89.5t35 132l144 681h189l-161 -758q-15 -66 -47 -136.5t-82 -128t-117.5 -93t-155.5 -35.5q-97 0 -157 29t-94 64q-41 41 -56 95l-36 -166h-187l154 730q15 76 -3 127.5t-57.5 81t-95.5 42.5t-112 13q-74 0 -130 -22t-93 -48q-46 -29 -80 -66 l129 -128q-20 -18 -42 -46q-17 -25 -34 -64t-29 -95l-70 -310q-5 -20 -4 -34.5t23 -16.5h76l-34 -164h-105q-39 0 -70 9t-53 29.5t-28 57z" />
<glyph unicode="&#xe0d;" horiz-adv-x="1801" d="M198 192l71 333q10 49 25.5 86t30.5 65q17 32 36 54q-33 36 -61 64q-22 22 -43.5 41.5t-18.5 22.5q58 82 141 148q69 56 167.5 102.5t225.5 46.5q90 0 176 -23t150 -69.5t95 -117t11 -164.5l-85 -402q-23 -115 19 -166.5t150 -51.5q63 0 117 20.5t93 48.5q46 31 82 72 l176 827h186l-203 -983q-23 -110 -85 -198.5t-141 -150t-168.5 -94.5t-166.5 -33q-83 0 -143 20.5t-100 48.5q-46 31 -80 71l83 129q20 -37 56 -64q28 -25 75 -45t113 -20q62 0 121 23t108.5 67t86 106.5t48.5 144.5l3 15q-44 -54 -100 -95q-49 -36 -115 -64.5t-149 -28.5 q-97 0 -155 31.5t-86 86.5t-29 130.5t16 162.5l73 341q17 82 -3.5 133t-62.5 80t-95.5 40t-104.5 11q-74 0 -130 -22t-93 -48q-46 -29 -80 -66l129 -128q-20 -18 -42 -46q-17 -25 -35 -64t-31 -95l-67 -310q-5 -20 -5 -34.5t21 -16.5h79l-34 -164h-115q-181 0 -137 192z" />
<glyph unicode="&#xe0e;" horiz-adv-x="1133" d="M-10 -456l28 161q87 0 162.5 20.5t131.5 46.5q67 29 120 67q29 -37 64 -64q32 -25 71 -44.5t88 -19.5q83 0 116 37t50 116l185 866q15 76 -3 127.5t-57.5 81t-95.5 42.5t-112 13q-72 0 -129 -22t-94 -48q-46 -29 -80 -66l129 -128q-20 -18 -39 -46q-15 -25 -33 -62.5 t-31 -96.5l-72 -333q-23 -107 -76.5 -149.5t-143.5 -42.5h-110l31 161h76q20 3 26 17t10 34l69 313q10 49 25.5 86t31.5 65q17 32 36 54l-64 64q-22 22 -43.5 41.5t-18.5 22.5q58 82 141 148q69 56 166 102.5t225 46.5q88 0 173.5 -23t151 -69.5t98.5 -117t13 -164.5 l-205 -960q-7 -31 -24 -77t-55 -90.5t-102.5 -77t-164.5 -32.5q-59 0 -107.5 19t-81.5 46q-41 29 -70 66q-51 -39 -117 -66q-57 -25 -131 -45t-158 -20z" />
<glyph unicode="&#xe0f;" horiz-adv-x="1133" d="M-10 -456l28 161q53 0 111.5 20.5t102.5 46.5q54 29 108 69l68 -122l120 130q0 -5 10 -28t28 -49t46 -46.5t64 -20.5q64 0 96 35t39 76l195 914q15 76 -3 126t-57.5 81t-94.5 44t-111 13q-74 0 -131 -22t-94 -48q-46 -29 -80 -66l131 -128q-20 -18 -41 -46 q-17 -25 -34 -62.5t-30 -96.5l-72 -333q-20 -97 -71.5 -144.5t-141.5 -47.5h-117l31 161h76q20 3 26 17t10 32l69 318q10 48 25.5 84t31.5 64q17 29 36 54l-64 64q-22 22 -43.5 41.5t-18.5 22.5q58 82 141 148q69 56 167.5 102.5t229.5 46.5q90 0 175 -23t148 -69.5t95 -117 t12 -164.5l-202 -942q-5 -29 -22 -78.5t-52.5 -97t-98.5 -83.5t-162 -36q-41 0 -73 19t-56 46q-29 29 -51 66l-115 -120l-69 120q-56 -39 -113 -66q-48 -25 -103 -45t-99 -20z" />
<glyph unicode="&#xe10;" horiz-adv-x="1095" d="M-29 -535l31 161q72 0 129 22t94 50q46 31 80 72l61 -131l120 131q0 -2 9 -25.5t28 -49t46 -47.5t63 -22q59 0 79.5 33t26.5 55l30 142h190l-34 -147q-5 -18 -19 -58t-47.5 -81t-90 -73t-142.5 -32q-59 0 -92.5 20.5t-53.5 45.5q-23 29 -31 67l-116 -123l-66 120 q-36 -39 -82 -66q-39 -25 -92 -44.5t-121 -19.5zM244 919q46 66 112 117q59 44 149.5 81.5t224.5 37.5q56 0 107.5 -10.5t93.5 -28.5q57 18 117.5 56.5t75.5 107.5h187q-12 -51 -39.5 -93.5t-63.5 -73.5t-76 -51t-77 -31q83 -79 109 -197t-2 -245q-28 -133 -88 -242 t-144.5 -185.5t-189.5 -119t-220 -42.5h-126l-18 402q-5 20 -12.5 25t-28.5 5h-56l33 162h110q59 0 96 -22t43 -88l20 -320q71 0 135.5 35.5t116 95t88.5 136.5t54 158q23 110 4 186.5t-63 124.5t-104 69.5t-118 21.5q-100 0 -177 -37.5t-131 -81.5q-64 -51 -110 -114z" />
<glyph unicode="&#xe11;" horiz-adv-x="1151" d="M125 0l63 284q31 138 84 242t109.5 181t100 129.5t50.5 89.5q8 32 -7 50t-44 18q-15 0 -34 -14.5t-39 -29.5q-23 -18 -47 -41q-12 20 -26 39q-13 14 -31 27.5t-38 13.5l34 161q20 0 39.5 -14.5t31.5 -31.5q15 -20 31 -46q29 24 57 46q25 17 54 31.5t63 14.5 q56 0 99.5 -39t25.5 -126q41 46 88 85q41 31 95 58t112 27q69 0 117.5 -37.5t77 -95t34.5 -129.5t-9 -138l-158 -755h-190l143 679q34 153 0.5 221t-100.5 68q-66 0 -127.5 -36t-118 -92t-103.5 -127t-84.5 -140t-60.5 -130.5t-31 -97.5q0 -10 -2 -17q-5 -20 -5 -23 l-64 -305h-190z" />
<glyph unicode="&#xe12;" horiz-adv-x="1798" d="M156.5 332q-7.5 110 19.5 244q34 152 84 262t111 180t130.5 103.5t136.5 33.5q20 0 44 -22t46 -51q22 -31 44 -71q39 41 76 71q31 29 64 51t56 22q66 0 117 -29.5t83.5 -79.5t44 -114t-3.5 -131l-108 -499q20 -41 54 -72q29 -29 73 -49t111 -20q66 0 111 15.5t74.5 50 t50 89.5t35.5 132l144 681h188l-161 -758q-15 -66 -45.5 -136.5t-79 -128t-115 -93t-153.5 -35.5q-98 0 -158 29t-96 64q-42 44 -62 98l-33 -169h-189l169 801q15 77 -12 135t-83 58q-20 0 -51 -26t-62 -57q-36 -36 -73 -79q-23 44 -44 79q-20 31 -39.5 57t-39.5 26 q-25 0 -57.5 -18t-65.5 -66t-67 -128.5t-59 -205.5q-17 -82 -21.5 -161.5t12.5 -141t59.5 -99.5t118.5 -38q49 0 90 18q20 7 37 17l-32 -163q-15 -8 -36 -16q-18 -4 -41 -9t-52 -5q-105 0 -178.5 43t-116 122t-50 189z" />
<glyph unicode="&#xe13;" horiz-adv-x="1798" d="M192 95.5q-8 36.5 6 96.5l71 333q10 49 25.5 86t30.5 65q17 32 36 54q-33 36 -61 64q-22 22 -43.5 41.5t-18.5 22.5q58 82 141 148q69 56 166 102.5t223 46.5q87 0 172.5 -20.5t151.5 -65.5t99 -116.5t13 -171.5l-70 -333q-15 -77 -19 -132t11 -89.5t54 -50t108 -15.5 q61 0 114.5 20.5t92.5 48.5q46 31 85 72l176 827h186l-237 -1129h-190l36 166q-41 -54 -100 -95q-51 -36 -122 -64.5t-169 -28.5q-90 0 -142.5 35.5t-77 93t-25.5 128t14 136.5l77 359q18 79 -3 131.5t-62.5 80.5t-98 40t-110.5 12q-71 0 -125.5 -22t-91.5 -48 q-46 -29 -80 -66l129 -128q-23 -18 -44 -46q-18 -25 -34.5 -64t-29.5 -95l-67 -310q-5 -20 -4 -34.5t23 -16.5h76l-34 -164h-101q-39 0 -72 9t-55 29.5t-30 57z" />
<glyph unicode="&#xe14;" horiz-adv-x="1133" d="M157.5 330q-8.5 110 18.5 246q34 154 101.5 264t154 179t183 102.5t189.5 33.5q92 0 174 -23t138 -69.5t82 -117t6 -164.5l-165 -781h-189l161 770q13 59 -3.5 101.5t-51.5 69.5t-85 40t-103 13q-52 0 -110.5 -23t-116 -73t-105 -129.5t-70.5 -192.5 q-17 -85 -22.5 -164.5t12.5 -140.5t60.5 -98t118.5 -37q61 0 97 18q18 7 30 17l-32 -161q-15 -10 -34 -18q-17 -4 -40.5 -9t-56.5 -5q-103 0 -175.5 43t-115 121t-51 188z" />
<glyph unicode="&#xe15;" horiz-adv-x="1133" d="M156.5 338q-7.5 110 19.5 238q34 152 84 262t111 180t130.5 103.5t136.5 33.5q28 0 52 -22t45 -51q20 -31 37 -71q34 41 68 71q29 29 63.5 51t64.5 22q61 0 111 -29.5t83 -79.5t47.5 -114t-0.5 -131l-170 -801h-189l169 801q17 79 -16 136t-82 57q-20 0 -49.5 -26 t-60.5 -57q-36 -36 -73 -79q-23 44 -44 79q-20 31 -39.5 57t-39.5 26q-23 0 -55 -18t-66.5 -66t-68.5 -128.5t-59 -205.5q-20 -97 -23 -177.5t16.5 -138.5t63 -91t112.5 -33q49 0 90 18q20 7 37 17l-32 -163q-15 -8 -36 -16q-18 -4 -43.5 -9t-56.5 -5q-105 0 -177.5 44 t-112.5 125t-47.5 191z" />
<glyph unicode="&#xe16;" horiz-adv-x="1133" d="M200 192l71 333q10 49 25.5 86t31.5 65q17 32 36 54l-64 64q-22 22 -43.5 41.5t-18.5 22.5q58 82 141 148q69 56 167.5 102.5t225.5 46.5q93 0 178.5 -23t150 -69.5t95 -117t10.5 -164.5l-131 -615q-7 -36 -30.5 -65.5t-50.5 -51.5q-32 -29 -70 -49h-72l154 730 q15 76 -3 127.5t-57.5 82t-95.5 42.5t-112 12q-74 0 -130 -22t-93 -48q-46 -29 -80 -66l129 -128q-20 -18 -42 -46q-17 -25 -34 -64t-29 -95l-70 -310q-5 -20 -5 -34.5t21 -16.5h79l-34 -164h-125q-76 0 -111 45t-14 147z" />
<glyph unicode="&#xe17;" horiz-adv-x="1121" d="M95 0l237 1129h190l-36 -169q46 54 110 98q54 36 129.5 66.5t173.5 30.5q87 0 148.5 -36.5t97 -93.5t46 -127t-5.5 -143l-159 -755h-188l142 679q29 136 -11 212.5t-193 76.5q-64 0 -122 -22t-102 -50q-51 -31 -93 -72l-178 -824h-186z" />
<glyph unicode="&#xe18;" horiz-adv-x="1043" d="M154 345q10 44 15 73.5t10 50.5q5 22 9 35h188l-7 -38q-5 -20 -11.5 -50t-15.5 -71q-17 -76 2.5 -120t55 -62.5t80.5 -22.5t81 -4q115 0 201 56.5t106 142.5q20 105 -23.5 152.5t-121.5 68t-172.5 29.5t-171.5 32t-120.5 75.5t-20.5 165.5q17 87 75 144.5t135 92t165 49 t166 14.5q85 0 157.5 -17t128.5 -37q64 -25 117 -54l-34 -166q-49 31 -114 56q-54 20 -128 38t-161 18q-39 0 -89 -2.5t-97 -15.5t-84 -41t-47 -79q-13 -62 37 -85t130.5 -33t175 -20.5t169 -49t111.5 -116.5t7 -222q-13 -63 -51.5 -127t-103.5 -114t-158 -81.5t-213 -31.5 q-53 0 -130 7t-142 44t-100 111.5t-6 204.5z" />
<glyph unicode="&#xe19;" horiz-adv-x="1121" d="M166 233q-10 72 5 141l161 750h188l-144 -682q-34 -153 23 -217t177 -64q66 0 125 22t103 49q51 32 97 73l174 819h187l-236 -1124h-188l32 169q-49 -54 -112 -98q-54 -36 -131 -64.5t-175 -28.5q-87 0 -146.5 35.5t-94.5 91.5t-45 128z" />
<glyph unicode="&#xe1a;" horiz-adv-x="1095" d="M166 242q-5 73 10 147l156 740h190l-158 -750q-10 -44 -6.5 -87t20 -78t50 -56.5t84.5 -21.5h108q54 0 99.5 21.5t80.5 56.5t58 78t33 87l159 750h189l-157 -740q-14 -74 -52.5 -147t-99 -132t-137.5 -95.5t-168 -36.5h-180q-93 0 -153 36.5t-90.5 95.5t-35.5 132z" />
<glyph unicode="&#xe1b;" horiz-adv-x="1095" d="M166 242q-5 73 10 147l156 740h190l-158 -750q-10 -44 -6.5 -87t20 -78t51.5 -56.5t86 -21.5h107q54 0 98.5 21.5t79.5 56.5t58 78t33 87l230 1082h190l-229 -1072q-14 -74 -52.5 -147t-99 -132t-138.5 -95.5t-172 -36.5h-180q-90 0 -149 36.5t-89.5 95.5t-35.5 132z" />
<glyph unicode="&#xe1c;" horiz-adv-x="1315" d="M237 536.5q1 152.5 37 318.5q10 51 30.5 100t51 87t72 62.5t94.5 24.5h120l-36 -164l-76 3q-18 0 -31 -11.5t-21.5 -31t-13.5 -38.5t-8 -35q-22 -114 -26.5 -213t0.5 -173q5 -87 20 -161l310 501h92l98 -501q49 61 100 174q44 95 101.5 252.5t120.5 397.5h187 q-71 -271 -154.5 -480t-154.5 -354q-85 -169 -168 -295h-124l-110 520l-328 -520h-125q-34 122 -46 264q-13 120 -12 272.5z" />
<glyph unicode="&#xe1d;" horiz-adv-x="1312" d="M237 536.5q1 152.5 37 318.5q10 51 29 100t48.5 87t71 62.5t95.5 24.5h124l-36 -164l-76 3q-18 0 -31 -11.5t-21.5 -29.5t-13.5 -37.5t-8 -34.5q-25 -115 -28 -215t2 -174q8 -87 20 -161l310 501h92l98 -501q61 103 128 266q56 141 126.5 362.5t139.5 548.5h190 q-79 -373 -175.5 -648.5t-178.5 -462.5q-100 -217 -198 -371h-124l-110 520l-328 -520h-125q-34 122 -46 264q-13 120 -12 272.5z" />
<glyph unicode="&#xe1e;" horiz-adv-x="1381" d="M256 1129h182l56 -768l376 768h119l47 -768l385 768h181l-560 -1129h-133l-54 786l-381 -786h-132z" />
<glyph unicode="&#xe1f;" horiz-adv-x="1481" d="M256 1129h182l56 -768l376 768h119l47 -768l562 1121h181l-737 -1482h-133l-54 781l-379 -781h-134z" />
<glyph unicode="&#xe20;" horiz-adv-x="1133" d="M56 0l36 161h77q20 3 25.5 17t10.5 34l64 313q10 49 25.5 86t30.5 65q17 32 39 54l-64 64q-22 22 -43.5 41.5t-18.5 22.5q58 82 141 148q66 56 164.5 102.5t224.5 46.5q94 0 181 -23t151.5 -69.5t95 -117t10.5 -164.5l-131 -615q-7 -36 -30.5 -65.5t-50.5 -51.5 q-32 -29 -70 -49h-72l154 730q15 79 -4.5 130t-60 80.5t-96.5 41.5t-113 12q-66 0 -121.5 -22t-92.5 -48q-47 -29 -83 -66l129 -128q-20 -18 -39 -46q-15 -25 -33 -62.5t-31 -96.5l-72 -333q-20 -97 -74 -144.5t-131 -47.5h-128z" />
<glyph unicode="&#xe21;" horiz-adv-x="1121" d="M95 0l237 1129h190l-171 -811q29 -42 67 -72q33 -28 78.5 -50t107.5 -22q151 0 226.5 72t104.5 210l140 673h190l-161 -758q-13 -66 -53 -135.5t-98.5 -127t-135.5 -94t-167 -36.5q-98 0 -161.5 29t-102.5 64q-46 41 -68 95l-34 -166h-189z" />
<glyph unicode="&#xe22;" horiz-adv-x="1056" d="M119 193.5q-9 65.5 6 138.5q20 90 74.5 150t112.5 97q67 41 149 61q-66 12 -112 44q-41 28 -69.5 75t-10.5 125q15 71 51 122.5t83 84.5t97 48.5t94 15.5q51 0 85.5 -5.5t60.5 -10.5q29 -8 49 -15l-37 -166q-17 7 -43 17q-20 5 -48.5 12t-64.5 7q-48 0 -87.5 -31.5 t-49.5 -78.5q-18 -83 52 -122.5t193 -39.5l-35 -161q-83 0 -145.5 -23t-106 -58t-69.5 -74.5t-33 -73.5q-20 -94 27 -145t186 -51q71 0 127 21.5t97.5 56.5t65.5 78t34 87l159 750h190l-156 -740q-15 -74 -55 -147t-108 -132t-165 -95.5t-226 -36.5q-125 0 -203 28t-119 75 t-50 112.5z" />
<glyph unicode="&#xe23;" horiz-adv-x="941" d="M110 76l34 156q44 -28 91 -48q44 -20 101.5 -34t124.5 -14q120 0 182.5 55t84.5 141q14 69 -20 103t-93.5 55.5t-128 39.5t-122.5 54t-82 98.5t-6 175.5q15 66 57.5 121t102.5 93.5t133 60.5t147 22q79 0 137 -15.5t95 -35.5q43 -23 71 -52l-37 -166q-24 29 -68 54 q-36 20 -92.5 37t-137.5 17q-76 0 -140.5 -35t-79.5 -104q-13 -61 21.5 -94t92 -56.5t126 -44t123 -57.5t84 -100t5.5 -171q-12 -61 -41.5 -124.5t-84.5 -115t-140.5 -83t-211.5 -31.5q-83 0 -144.5 13.5t-101.5 33.5q-48 23 -82 51z" />
<glyph unicode="&#xe24;" horiz-adv-x="1133" d="M200 192l71 333q10 49 25.5 86t31.5 65q17 32 36 54l-64 64q-22 22 -43.5 41.5t-18.5 22.5q61 82 143 148q69 56 166.5 102.5t222.5 46.5q92 0 179 -23t151.5 -69.5t95 -117t10.5 -164.5l-246 -1150q-8 -36 -31 -65.5t-51 -51.5q-32 -29 -69 -49h-71l268 1265 q18 79 -1.5 130t-60 80.5t-98 41.5t-114.5 12q-68 0 -124 -22t-93 -48q-46 -29 -80 -66l129 -128q-20 -18 -42 -46q-17 -25 -34 -64t-29 -95l-70 -310q-5 -20 -5 -34.5t21 -16.5h79l-34 -164h-120q-82 0 -116.5 46t-13.5 146z" />
<glyph unicode="&#xe25;" horiz-adv-x="1031" d="M118 295q20 95 75.5 161t128 108t156 60t160.5 18q87 0 136.5 6.5t77.5 13.5q32 10 42 24l10 59q22 103 -22 174.5t-173 71.5q-88 0 -160.5 -35t-126.5 -75q-63 -49 -114 -111l-32 159q49 63 118 113q58 44 147 78.5t204 34.5t190.5 -31.5t116 -88.5t49 -141.5 t-15.5 -189.5l-147 -704h-190l110 525q-18 -10 -52 -21q-28 -8 -77.5 -14t-127.5 -6q-36 0 -83 -10t-90.5 -33t-76.5 -59.5t-43 -86.5q-20 -83 28 -121t125 -38q29 0 54 5t46 10q23 8 43 15l-35 -164q-18 -7 -41 -14q-44 -13 -108 -13q-174 0 -256 80.5t-46 239.5z" />
<glyph unicode="&#xe26;" horiz-adv-x="1133" d="M59 0l33 161h77q20 3 25.5 17t10.5 34l64 313q10 49 25.5 86t30.5 65q17 32 39 54l-64 64q-22 22 -43.5 41.5t-18.5 22.5q58 82 141 148q69 56 166 102.5t227 46.5q88 0 173.5 -23t150 -69.5t97.5 -117t13 -164.5l-246 -1150q-8 -36 -31 -65.5t-51 -51.5q-32 -29 -69 -49 h-71l268 1265q15 74 -3 125t-57.5 82t-94.5 44t-111 13q-74 0 -131 -22t-94 -48q-46 -29 -80 -66l129 -128q-20 -18 -39 -46q-15 -25 -33 -62.5t-31 -96.5l-72 -333q-44 -192 -208 -192h-122z" />
<glyph unicode="&#xe27;" horiz-adv-x="1018" d="M79 118l100 161q22 -41 65 -71q36 -29 89 -50.5t131 -21.5q66 0 133.5 29.5t127 84.5t103.5 134.5t66 179.5t11 176t-48.5 126t-94 76t-122.5 26q-76 0 -140.5 -19.5t-108.5 -39.5q-51 -25 -91 -57l-31 159q41 41 100 71q51 29 126.5 51t183.5 22q110 0 198 -40t143 -117 t74.5 -187t-12.5 -247q-31 -139 -94.5 -249t-150.5 -184.5t-192 -113.5t-215 -39q-108 0 -175 20t-106 48q-47 32 -70 72z" />
<glyph unicode="&#xe28;" horiz-adv-x="1146" d="M95 0l164 781q17 90 74.5 159t134.5 117.5t167 73t176 24.5q44 0 87.5 -5.5t79.5 -18.5q53 20 98 55t58 94h190q-20 -85 -76 -142.5t-122 -85.5q59 -43 83.5 -116.5t6.5 -154.5l-164 -781h-190l164 781q10 51 -6 90.5t-50.5 66.5t-86 41.5t-107.5 14.5q-58 0 -112.5 -16 t-99 -42.5t-75 -66t-41.5 -88.5l-59 -277q43 38 95 70q44 28 100 49.5t117 21.5l-41 -186q-66 0 -122.5 -19.5t-97.5 -40.5q-49 -29 -86 -59l-73 -340h-186z" />
<glyph unicode="&#xe29;" horiz-adv-x="1095" d="M166.5 233.5q-7.5 74.5 9.5 155.5l156 740h190l-158 -745q-10 -46 -7.5 -89.5t20 -79.5t52.5 -57.5t89 -21.5h107q54 0 98.5 21.5t78 56.5t55 78t32.5 87l35 156h-230l31 144h230l95 450h189l-95 -450h77l-33 -144h-77l-31 -146q-18 -83 -58 -158t-98.5 -131t-134 -89 t-161.5 -33h-180q-88 0 -147.5 34t-93 90.5t-41 131z" />
<glyph unicode="&#xe2a;" horiz-adv-x="1036" d="M118 295q20 95 74 161t124 108t152 60t160 18q87 0 139 6.5t81 13.5q33 10 46 24l12 59q23 105 -22.5 175.5t-172.5 70.5q-87 0 -159.5 -35t-126.5 -75q-64 -49 -115 -111l-31 161q49 61 117 111q59 44 147.5 78.5t204.5 34.5q73 0 133 -16q57 22 95 56t50 85h188 q-18 -76 -72 -127.5t-121 -82.5q123 -110 67 -366l-150 -704h-188l110 525q-20 -13 -56 -24q-32 -7 -82.5 -13.5t-127.5 -6.5q-36 0 -82 -11t-87 -34.5t-73 -58.5t-42 -82q-20 -83 28 -121t126 -38q28 0 53 5t47 10q22 8 42 18l-35 -167q-20 -7 -43 -14q-44 -13 -100 -13 q-174 0 -260 78.5t-50 241.5z" />
<glyph unicode="&#xe2b;" horiz-adv-x="1016" d="M95 0l237 1129h190l-97 -458l557 458h254l-468 -384q48 -10 105.5 -34.5t104 -72t67 -125.5t-2.5 -193l-67 -320h-189l59 284q20 102 2.5 170t-53.5 109t-79.5 60t-69.5 25l-274 -230l-90 -418h-186z" />
<glyph unicode="&#xe2c;" horiz-adv-x="1481" d="M259 1129h181l56 -768l376 768h119l48 -768l292 579q8 15 13 32t10 29q10 49 -6.5 84.5t-42.5 58.5q-29 28 -69 46q90 25 164 70q64 36 121 90.5t74 131.5h186q-20 -97 -78.5 -153.5t-120.5 -87.5q-71 -36 -158 -51q36 -15 64 -42q22 -23 39 -58t7 -84q-3 -25 -16 -51 t-18 -39l-455 -916h-136l-51 781l-379 -781h-137z" />
<glyph unicode="&#xe2d;" horiz-adv-x="1121" d="M141.5 229.5q-19.5 80.5 2.5 180.5q20 98 62.5 141t118.5 43h251l-34 -162h-163q-44 6 -49 -38q-8 -52 1 -98.5t38.5 -83t79.5 -56.5t125 -20q174 0 276 112.5t146 315.5q44 197 -23 313.5t-218 116.5q-97 0 -162 -35t-109 -78q-49 -49 -82 -111h-184q43 108 120 192 q63 72 175 132.5t278 60.5q147 0 235 -56.5t130 -142.5t46 -191t-17 -201q-31 -149 -96 -259t-152 -183t-189.5 -108.5t-209.5 -35.5q-106 0 -189 29t-135.5 85.5t-72 137z" />
<glyph unicode="&#xe2e;" horiz-adv-x="1121" d="M139.5 229.5q-19.5 80.5 4.5 180.5q17 85 55.5 134.5t125.5 49.5h251l-34 -162h-163q-39 0 -49 -38q-8 -52 1 -97.5t38.5 -81.5t79.5 -57.5t125 -21.5q171 0 274.5 112.5t147.5 315.5q44 197 -23 313.5t-218 116.5q-95 0 -161 -35t-110 -78q-49 -49 -82 -111h-184 q43 108 120 192q63 72 173.5 132.5t277.5 60.5q41 0 81.5 -5.5t77.5 -18.5q53 15 103 51.5t63 97.5h178q-20 -90 -84 -146t-130 -79q48 -44 76 -100t40 -121.5t9.5 -134.5t-18.5 -135q-31 -149 -96 -259t-152 -183t-189.5 -108.5t-209.5 -35.5q-106 0 -189 29t-136.5 85.5 t-73 137z" />
<glyph unicode="&#xe2f;" horiz-adv-x="1033" d="M295 1129h186q5 -108 36 -169t138 -61q100 0 193.5 58.5t145.5 171.5h184l-157 -740q-43 -208 -126.5 -298.5t-244.5 -90.5l34 161q25 0 45.5 4t37.5 27t32 70.5t33 133.5l106 495q-39 -43 -88 -77q-44 -29 -104 -52.5t-135 -23.5q-90 0 -151 29t-99.5 81.5t-55 124.5 t-10.5 156z" />
<glyph unicode="&#xe30;" horiz-adv-x="693" d="M171 371l21 95h179l-20 -92q-7 -34 10.5 -48t83.5 -14h220l-101 -158h-203q-122 0 -168.5 50t-21.5 167zM291 935l19 91h179l-18 -95q-5 -33 10 -47t83 -14h217l-97 -159h-208q-122 0 -164.5 52.5t-20.5 171.5z" />
<glyph unicode="&#xe31;" d="M-312 1541l17 90h180l-21 -92q-8 -34 10 -47.5t85 -13.5h456l-97 -157h-446q-107 0 -158.5 45.5t-25.5 174.5z" />
<glyph unicode="&#xe32;" horiz-adv-x="902" d="M244 881l32 161q42 32 90 57q44 20 103 38t127 18q83 0 158.5 -25.5t129.5 -79.5t77.5 -133t0.5 -187l-153 -730h-189l148 704q14 76 2 131.5t-45.5 90t-82 51.5t-102.5 17q-59 0 -112.5 -18t-95.5 -38q-48 -26 -88 -57z" />
<glyph unicode="&#xe33;" horiz-adv-x="902" d="M-206.5 1455.5q-8.5 39.5 1.5 85.5q10 47 35.5 86t62 70t78 47.5t85.5 16.5q93 0 144 -63.5t30 -156.5q-10 -46 -35.5 -85.5t-61 -69.5t-78.5 -47.5t-86 -17.5q-47 0 -82.5 17.5t-60 47.5t-33 69.5zM-64 1541q-7 -33 10.5 -55t48.5 -22q29 0 55 22t35 55q5 31 -12 54 t-48 23q-29 0 -56.5 -23t-32.5 -54zM244 881l32 161q42 32 90 57q44 20 103 38t127 18q83 0 158.5 -25.5t129.5 -79.5t77.5 -133t0.5 -187l-153 -730h-189l148 704q14 76 2 131.5t-45.5 90t-82 51.5t-102.5 17q-59 0 -112.5 -18t-95.5 -38q-48 -26 -88 -57z" />
<glyph unicode="&#xe34;" d="M-628 1321l98 157h691l-33 -157h-756z" />
<glyph unicode="&#xe35;" d="M-628 1321l100 159h506l27 151h190l-67 -310h-756z" />
<glyph unicode="&#xe36;" d="M-628 1321l98 159h332l8 38q20 71 82 117.5t128 46.5q85 0 123 -55.5t23 -126.5q-17 -79 -84 -129t-133 -50h-577zM-51 1502q-5 -14 5 -26t26 -12q12 0 25 12t17 26q3 16 -5.5 27.5t-21.5 11.5q-15 0 -28 -11.5t-18 -27.5z" />
<glyph unicode="&#xe37;" d="M-628 1321l100 159h300l33 151h146l-33 -151h77l27 151h173l-67 -310h-756z" />
<glyph unicode="&#xe38;" d="M-484 -351l36 161h118q90 0 134.5 -50.5t24.5 -143.5l-44 -192h-187l33 164q5 22 -6 41.5t-37 19.5h-72z" />
<glyph unicode="&#xe39;" d="M-804 -351l36 161h126q82 0 126.5 -48t26.5 -131q-17 -73 47 -73q66 0 83 73l39 179h190l-44 -204q-7 -36 -24 -73t-51.5 -68t-89.5 -50t-140 -19q-73 0 -118 16.5t-67 43t-26 61t4 71.5q5 22 -6.5 41.5t-37.5 19.5h-74z" />
<glyph unicode="&#xe3a;" d="M-359 -371l39 181h190l-41 -181h-188z" />
<glyph unicode="&#xe3f;" horiz-adv-x="1018" d="M95 0l271 1282h245l47 216h182l-49 -218q154 -12 220.5 -100t40.5 -208q-20 -100 -95.5 -183t-184.5 -110q59 -10 108 -35.5t80 -64.5t42.5 -91.5t-1.5 -116.5q-15 -76 -60 -141.5t-109 -114.5t-143.5 -79.5t-166.5 -35.5l-46 -212h-181l45 212h-245zM315 161h176 q128 0 215.5 64t104.5 146q23 100 -39.5 164t-216.5 64h-147zM442 760h134q46 0 92 10.5t84.5 32t67 57.5t38.5 88q20 90 -35 131.5t-154 41.5h-149z" />
<glyph unicode="&#xe40;" horiz-adv-x="442" d="M132 192l200 937h190l-194 -917q-6 -20 -6 -34t20 -17h78l-34 -161h-120q-76 0 -116 42.5t-18 149.5z" />
<glyph unicode="&#xe41;" horiz-adv-x="895" d="M132 192l200 937h190l-194 -917q-6 -20 -6 -34t20 -17h78l-34 -161h-127q-77 0 -112 46t-15 146zM589 192l200 937h186l-194 -917q-5 -20 -5 -34t20 -17h76l-32 -161h-126q-76 0 -110.5 46t-14.5 146z" />
<glyph unicode="&#xe42;" horiz-adv-x="577" d="M269 192l183 860q18 79 22.5 139t4.5 106.5v84t7 72.5q25 115 126.5 176.5t291.5 61.5h271l-36 -161h-197q-136 0 -197 -19.5t-71 -70.5q-8 -33 -6.5 -67.5t1.5 -79.5t-4.5 -104t-22.5 -138l-178 -840q-5 -20 -5 -34t17 -17h76l-30 -161h-128q-76 0 -110.5 47.5 t-14.5 144.5z" />
<glyph unicode="&#xe43;" horiz-adv-x="736" d="M330 1566q34 42 80 75q39 29 96.5 53t131.5 24q156 0 238 -82t43 -264q-13 -58 -28.5 -93t-32 -72t-34.5 -86t-35 -132l-164 -774q-5 -20 -5 -34.5t18 -16.5h76l-33 -164h-123q-83 0 -115.5 47.5t-12.5 144.5l169 797q15 76 35.5 129.5t38.5 97.5t35 81t24 75 q39 184 -136 184q-51 0 -94 -23t-74 -51q-37 -33 -67 -74z" />
<glyph unicode="&#xe44;" horiz-adv-x="757" d="M322 1531l37 161q43 0 76.5 -15.5t58 -36t38 -39.5t16.5 -23q24 31 58 56q29 20 69.5 39t92.5 19q63 0 94.5 -31.5t40 -83t0 -119.5t-24.5 -139l-236 -1104q-4 -20 -4 -34.5t20 -16.5h77l-34 -164h-122q-83 0 -117 47.5t-14 144.5l241 1127q5 25 15 63.5t12.5 74t-7.5 59 t-44 15.5q-23 -5 -47 -29t-44 -51q-25 -31 -49 -66q-17 41 -46 71q-25 29 -62.5 52t-94.5 23z" />
<glyph unicode="&#xe45;" horiz-adv-x="902" d="M244 881l32 161q42 32 90 57q44 20 103 38t132 18q79 0 155 -25.5t130 -79.5t76.5 -133t-0.5 -187l-232 -1099q-8 -36 -31 -65.5t-51 -51.5q-32 -29 -69 -49h-75l264 1239q14 78 0.5 134t-46.5 90t-82 50t-100 16q-59 0 -112.5 -18t-95.5 -38q-48 -26 -88 -57z" />
<glyph unicode="&#xe46;" horiz-adv-x="1056" d="M230 665q-18 63 2 167q16 67 48 125.5t77 102.5t100 69.5t117 25.5q28 0 54.5 -22t47.5 -51q25 -31 46 -71q39 41 77 71q33 29 70 51t66 22q69 0 115 -29.5t70 -75.5t28 -103.5t-9 -114.5l-255 -1201q-8 -36 -31 -65.5t-52 -51.5q-31 -29 -69 -49h-74l280 1316 q20 98 8.5 155.5t-74.5 57.5q-20 0 -50.5 -27t-61.5 -58q-36 -39 -76 -85q-20 46 -44 85q-20 31 -40.5 58t-35.5 27q-44 0 -84 -42.5t-58 -119.5q-10 -46 -5 -79.5t18 -53.5q10 -25 31 -41l-97 -154q-54 17 -90 62q-31 36 -49 99z" />
<glyph unicode="&#xe47;" d="M-557 1424.5q-12 36.5 2 90.5q15 66 48 110t75.5 68.5t87 33.5t83.5 9h205q56 0 100 14t74 34q36 22 63 51l-35 -166q-25 -15 -58 -25q-29 -10 -71 -18t-99 -8h-179q-77 0 -109 -33.5t-40 -69.5q-5 -23 8 -49.5t51 -26.5q33 0 56.5 12.5t38.5 28.5q17 18 28 44h54 q-2 -25 5 -44q5 -15 16.5 -28t32.5 -13q39 0 64 28t34 57h140q-20 -83 -84.5 -143t-151.5 -60q-28 0 -51 10t-36 23q-17 12 -27 34q-20 -20 -47 -34q-20 -13 -51 -23t-69 -10q-33 0 -66.5 10t-56.5 33.5t-35 60z" />
<glyph unicode="&#xe48;" d="M0 1321l61 310h190l-67 -310h-184z" />
<glyph unicode="&#xe49;" d="M-391 1472l32 159h208q39 0 64.5 -31t17.5 -69q-5 -20 6.5 -35.5t31.5 -15.5h369l-97 -159h-407q-54 0 -83.5 28.5t-21.5 71.5q7 34 -5.5 42.5t-28.5 8.5h-86z" />
<glyph unicode="&#xe4a;" d="M-484 1388q-5 22 0 51q20 87 91 141t147 54q28 0 47.5 -11t32.5 -23q12 -16 22 -34q15 18 36 32q18 12 40 22.5t50 10.5q72 0 110 -38.5t28 -87.5q-5 -20 1.5 -22.5t19.5 -2.5h197l-97 -159h-180q-66 0 -84 39.5t-8 78.5q5 29 -1.5 52.5t-31.5 23.5q-34 0 -53 -23.5 t-24 -52.5h-61q4 25 0.5 50.5t-42.5 25.5q-20 0 -42 -23.5t-26 -52.5q-8 -29 -2 -50t16 -38t29 -30h-179q-12 13 -23 30q-8 15 -13 37z" />
<glyph unicode="&#xe4b;" d="M-112 1395l36 161h122l15 75h190l-16 -75h129l-36 -161h-128l-16 -74h-184l12 74h-124z" />
<glyph unicode="&#xe4c;" d="M-259 1321l15 69q10 46 37.5 90t66 77t87 53.5t99.5 20.5h159l-100 -159h-44q-51 0 -79 -30t-41 -77l-10 -44h-190z" />
<glyph unicode="&#xe4d;" d="M-206.5 1455.5q-8.5 39.5 1.5 85.5q10 47 35.5 86t62 68.5t78 47.5t85.5 18q93 0 143 -65t31 -155q-10 -46 -35.5 -85.5t-61 -69.5t-78.5 -47.5t-86 -17.5q-47 0 -82.5 17.5t-60 47.5t-33 69.5zM-64 1541q-7 -33 10.5 -55t48.5 -22q29 0 55 22t35 55q5 31 -13 54t-47 23 q-31 0 -57.5 -23t-31.5 -54z" />
<glyph unicode="&#xe4e;" d="M-321.5 1369.5q-3.5 28.5 3.5 64.5q10 48 37 86.5t64.5 64t82 38.5t90.5 13q34 162 298 162l-24 -103q-39 0 -70.5 -5t-60 -25.5t-48.5 -60.5t-36 -106q-51 0 -99 -19.5t-62 -78.5q-5 -20 -1.5 -35.5t8.5 -25.5q8 -10 17 -18h-186q-10 20 -13.5 48.5z" />
<glyph unicode="&#xe4f;" horiz-adv-x="1190" d="M191.5 279.5q-20.5 89.5 3.5 194.5q23 105 80 195.5t140.5 158.5t182 107.5t201.5 39.5q105 0 188 -39.5t137 -107.5t74.5 -158.5t-3.5 -195.5q-23 -105 -81.5 -194.5t-140.5 -157.5t-182 -106t-205 -38t-186.5 38t-134.5 106t-73.5 157.5zM350 342q14 -63 51 -110.5 t93 -74.5t126 -27q71 0 139.5 27t125.5 74.5t96.5 110.5t54.5 132q15 71 1.5 134t-50.5 108.5t-94 72.5t-128 27q-69 0 -136.5 -27t-124 -72.5t-97.5 -108.5t-56 -134q-15 -69 -1 -132zM461 474q10 48 37 90t65 74.5t84.5 50t94.5 17.5q98 0 152 -67.5t32 -164.5 q-10 -49 -38 -91.5t-66 -74.5t-84.5 -49.5t-95.5 -17.5q-97 0 -149.5 67.5t-31.5 165.5z" />
<glyph unicode="&#xe50;" horiz-adv-x="1121" d="M152.5 279.5q-18.5 89.5 3.5 194.5q23 102 82.5 194t141 160t181 107.5t204.5 39.5q103 0 187 -39.5t138 -107.5t76 -160t-1 -194q-23 -105 -83.5 -194.5t-145 -157.5t-185.5 -106t-203 -38q-106 0 -187.5 38t-135.5 106t-72.5 157.5zM339.5 342q11.5 -63 45 -108.5 t85.5 -73.5t119 -28q63 0 127.5 28t117 73.5t90.5 108.5t54 132q14 68 2 131.5t-44 109t-84.5 72.5t-119.5 27q-66 0 -129 -27t-115.5 -72.5t-91 -109t-54.5 -131.5q-14 -69 -2.5 -132z" />
<glyph unicode="&#xe51;" horiz-adv-x="1121" d="M171 408q-17 68 3 158q15 79 68 152t129.5 130.5t173.5 92t205 34.5t194.5 -35.5t143 -105t77 -169t-6.5 -230.5q-29 -127 -104.5 -227t-176.5 -168.5t-214 -104t-215 -35.5h-34.5t-37.5 2l80 157h10q69 0 148.5 25.5t151.5 74.5t127 119.5t75 156.5q20 95 8.5 167 t-47 119t-90.5 70t-123 23q-85 0 -146.5 -27t-105.5 -66.5t-68.5 -82t-31.5 -72.5q-18 -90 14 -146t74 -56q52 0 76 28t36 72l10 48h186l-12 -67q-8 -34 -27.5 -75.5t-57.5 -78.5t-98.5 -63t-144.5 -26q-54 0 -106.5 23.5t-89 69t-53.5 113.5z" />
<glyph unicode="&#xe52;" horiz-adv-x="1390" d="M292 173q-18 68 3 162l164 771q7 42 8.5 81t-14 70t-52.5 50t-103 19l32 159h39q95 0 153.5 -40t89 -97.5t35.5 -125t-7 -123.5l-159 -748q-12 -63 -1 -106t38 -67t60 -33t62 -9h335q34 0 70.5 9t71.5 32t61 61t38 97l56 276q8 34 10.5 72.5t-5 72t-27 55t-55.5 21.5 q-25 0 -48 -15.5t-43 -35.5q-23 -22 -46 -51q-10 29 -24 51q-13 20 -29 35.5t-40 15.5q-49 0 -83 -35t-44 -78q-13 -54 3.5 -83.5t45.5 -43t65.5 -17.5t63.5 -4l-34 -163q-61 0 -124.5 8.5t-113.5 41.5t-74.5 95t-0.5 166q7 33 28.5 78t59 84.5t87.5 68t114 28.5 q38 0 64 -14t40 -33q18 -20 30 -42q20 22 49 42q23 18 56.5 32.5t72.5 14.5q71 0 116 -34.5t65.5 -87t22 -117.5t-12.5 -128l-59 -276q-20 -95 -65 -162.5t-103.5 -111t-129 -63.5t-139.5 -20h-407q-57 0 -112 20t-95.5 63.5t-58.5 111.5z" />
<glyph unicode="&#xe53;" horiz-adv-x="1376" d="M148 267.5q-18 93.5 8 211.5q52 237 170.5 366.5t288.5 129.5q76 0 122.5 -38t71.5 -85q29 -53 39 -122q38 69 90 122q43 47 104.5 85t137.5 38q149 0 220.5 -126.5t20.5 -369.5q-25 -113 -65 -201t-78 -150q-47 -72 -96 -128h-183q46 56 91 130q39 64 79 152.5t62 196.5 q31 146 3 240.5t-118 94.5q-74 0 -143 -94.5t-111 -287.5h-163q36 177 8 279.5t-103 102.5q-66 0 -142 -76t-117 -259q-15 -71 -12.5 -134.5t24.5 -109t62 -72.5t99 -27q43 0 81 13q20 5 39 12l-34 -153q-15 -8 -35 -16q-18 -4 -39.5 -9t-50.5 -5q-79 0 -149.5 34t-117 98 t-64.5 157.5z" />
<glyph unicode="&#xe54;" horiz-adv-x="1338" d="M140.5 286.5q-8.5 84.5 13.5 177.5q17 87 58.5 174t101.5 155.5t138 112.5t176 44h420q41 0 79 7.5t72.5 28t60 60t38.5 104.5l72 338h189l-79 -362q-20 -92 -61 -156t-97.5 -103t-121 -57.5t-130.5 -18.5h-450q-54 0 -99 -29.5t-80.5 -75.5t-60 -105t-38.5 -120 q-12 -61 -13 -116.5t14.5 -95t50 -64t87.5 -24.5h423q-64 39 -110 93q-39 46 -64.5 116t-4.5 165h194q-18 -83 -4 -150t47.5 -117t81.5 -78.5t104 -28.5h127l-31 -161h-814q-88 0 -149 38t-96.5 101t-44 147.5z" />
<glyph unicode="&#xe55;" horiz-adv-x="1338" d="M141.5 291q-9.5 83 12.5 170q17 88 58.5 174.5t101.5 156.5t138 114t173 44h94q-8 30 0 66q20 90 96 154t165 64q90 0 140 -64t32 -154q-7 -34 -23 -58q69 20 111 65t62 147l68 318h189l-74 -354q-20 -95 -60 -160t-93.5 -105.5t-118.5 -59t-135 -18.5h-456 q-53 0 -99.5 -29.5t-82 -75.5t-60 -105t-38.5 -120q-12 -61 -12 -115.5t15.5 -95t49 -65t86.5 -24.5h425q-64 39 -110 93q-38 46 -64 116t-4 165h193q-17 -83 -1.5 -150t48.5 -117t80.5 -78.5t92.5 -28.5h137l-34 -161h-814q-88 0 -149 39.5t-95.5 104t-44 147.5zM858 1011 q-8 -33 10 -54.5t51 -21.5h7q29 5 54.5 25t30.5 51q8 31 -10.5 54t-48.5 23q-33 0 -61.5 -23t-32.5 -54z" />
<glyph unicode="&#xe56;" horiz-adv-x="1517" d="M298 1326l34 162h54q133 0 206 -60t110.5 -158t50 -222t19.5 -252q39 49 96 90q48 36 122.5 64t174.5 28q120 0 205.5 -38.5t135.5 -105t66 -153.5t-6 -182q-22 -105 -76 -199.5t-134.5 -166.5t-183 -113.5t-222.5 -41.5q-88 0 -154 26.5t-115 72t-78 107.5t-39 131h188 q18 -87 87.5 -133t145.5 -46q56 0 119.5 24t117 70t95.5 114t61 155q28 136 -40 225.5t-207 89.5q-66 0 -119.5 -23t-98.5 -61.5t-79.5 -88.5t-57.5 -106h-182q-8 207 -18 355.5t-39 246t-85 143.5t-154 46z" />
<glyph unicode="&#xe57;" horiz-adv-x="1791" d="M146.5 276.5q-14.5 92.5 9.5 202.5q25 117 70 205t102.5 149t122 90t128.5 29q73 0 118 -35.5t71 -80.5t34.5 -85t8.5 -47l27 45t67 84.5t104 81.5t135 37q64 0 117 -28t86 -86.5t40.5 -148.5t-17.5 -210q-22 -108 -53.5 -179.5t-70.5 -133.5q62 8 126 56.5t89 163.5 l159 748q15 68 48.5 132.5t87.5 113.5t128.5 78.5t167.5 29.5h37l-33 -162q-66 0 -110 -14t-70.5 -40t-42 -60t-23.5 -76l-164 -770q-20 -95 -67.5 -164.5t-108 -113.5t-125.5 -66t-121 -22h-279q49 56 94 130q39 64 79 152.5t62 196.5q31 146 11.5 228t-109.5 82 q-73 0 -145 -75.5t-105 -229.5h-136q15 66 10 122t-23 96t-47.5 63.5t-61.5 23.5q-34 0 -66 -14.5t-61 -49t-55 -94.5t-47 -152q-15 -71 -11 -134.5t24.5 -109t60.5 -72.5t96 -27q46 0 84 13q20 7 39 15l-34 -156q-18 -8 -40 -16q-20 -4 -44 -9t-44 -5q-87 0 -156 36.5 t-114 103t-59.5 159z" />
<glyph unicode="&#xe58;" horiz-adv-x="1338" d="M142 265q-12 94 14 214q18 87 64 173t115.5 151t160 106t198.5 41h356q41 0 79.5 7.5t72.5 29.5t60 61.5t38 103.5l72 336h189l-73 -347q-23 -102 -66.5 -169.5t-100 -107.5t-123.5 -56.5t-133 -16.5h-376q-69 0 -127 -28t-101 -73t-72.5 -102.5t-43.5 -116.5 q-15 -71 -15 -133t14.5 -106t44 -70t72.5 -26q44 0 84.5 32t72.5 73q36 47 63 104q18 -59 47 -104q24 -41 68 -73t110 -32q32 0 66 9t65 31t54 57.5t33 91.5l12 66h190l-12 -66q-34 -166 -149 -256.5t-295 -90.5q-71 0 -116 20t-73 48q-31 29 -49 69q-28 -41 -61 -69 q-31 -28 -73 -48t-102 -20q-61 0 -116 33t-90.5 96.5t-47.5 157.5z" />
<glyph unicode="&#xe59;" horiz-adv-x="1620" d="M146.5 276.5q-14.5 92.5 9.5 202.5q25 117 79 209.5t120.5 156.5t137.5 97t129 33q93 0 141 -40.5t85 -89.5q43 97 112 153.5t151 56.5q61 0 104 -28t76 -63t63.5 -63.5t66.5 -28.5q54 0 94.5 85t69.5 218l66 313h190l-67 -313q-18 -79 -46 -161.5t-73 -148.5 t-107.5 -108.5t-147.5 -42.5q-74 0 -120 28t-80.5 62t-61.5 60.5t-63 26.5q-51 0 -90.5 -37.5t-49.5 -83.5q-5 -18 -4 -25l11 -141q6 -66 16 -207t27 -397h-181l-44 652q-2 26 -11 56t-28.5 55.5t-47.5 40.5t-67 15q-28 0 -65 -19t-74 -59t-70 -105t-52 -157 q-15 -69 -14 -132t19.5 -110t54 -74t91.5 -27q20 0 42.5 5t37.5 10q18 8 35 15l-32 -158q-8 -6 -38.5 -18t-84.5 -12q-78 0 -144 36.5t-108.5 103t-57 159z" />
<glyph unicode="&#xe5a;" horiz-adv-x="1366" d="M295 1129h186q5 -108 37 -169t137 -61q100 0 193.5 58.5t145.5 171.5h184l-157 -740q-20 -93 -45.5 -164t-68 -121t-104 -77t-153.5 -27l34 161q28 0 47 4t36 27t32 73t36 145l103 481q-39 -43 -88 -77q-44 -29 -104 -52.5t-137 -23.5q-88 0 -150.5 29t-100.5 81.5 t-53.5 124.5t-9.5 156zM1082 0l239 1129h189l-238 -1129h-190z" />
<glyph unicode="&#xe5b;" horiz-adv-x="1862" d="M187 277q-18 87 3 182q22 102 73.5 195.5t128.5 164t175 112t214 41.5q74 0 129 -16t93.5 -41.5t63.5 -60.5t42 -68q33 -85 30 -187h-181q-3 61 -27 107q-20 42 -60.5 75t-122.5 33q-62 0 -120.5 -27t-108.5 -76t-87.5 -112.5t-52.5 -139.5q-31 -147 38 -233.5t194 -89.5 q59 0 113.5 20t94.5 46q46 29 85 69l107 -127l128 127l90 -127l136 130q17 -42 40 -69q20 -29 46.5 -49t60.5 -20q59 0 86 29.5t33 52.5q5 31 1.5 56.5t-14.5 43.5q-10 20 -26 36h187q12 -13 23 -34q8 -18 13 -44.5t-3 -65.5q-4 -25 -23.5 -65t-55 -77t-89.5 -63.5 t-132 -26.5q-48 0 -82.5 20t-54.5 48q-25 29 -41 69l-133 -125l-90 125l-129 -125l-104 125q-42 -41 -87 -69q-41 -28 -96 -48t-119 -20q-107 0 -187.5 39t-132 106t-69.5 154z" />
<glyph unicode="&#x2000;" horiz-adv-x="1152" />
<glyph unicode="&#x2001;" horiz-adv-x="2304" />
<glyph unicode="&#x2002;" horiz-adv-x="1152" />
<glyph unicode="&#x2003;" horiz-adv-x="2304" />
<glyph unicode="&#x2004;" horiz-adv-x="768" />
<glyph unicode="&#x2005;" horiz-adv-x="576" />
<glyph unicode="&#x2006;" horiz-adv-x="384" />
<glyph unicode="&#x2007;" horiz-adv-x="384" />
<glyph unicode="&#x2008;" horiz-adv-x="288" />
<glyph unicode="&#x2009;" horiz-adv-x="460" />
<glyph unicode="&#x200a;" horiz-adv-x="128" />
<glyph unicode="&#x2010;" horiz-adv-x="723" d="M198 486l32 156h535l-33 -156h-534z" />
<glyph unicode="&#x2011;" horiz-adv-x="723" d="M198 486l32 156h535l-33 -156h-534z" />
<glyph unicode="&#x2012;" horiz-adv-x="723" d="M198 486l32 156h535l-33 -156h-534z" />
<glyph unicode="&#x2013;" horiz-adv-x="992" d="M198 486l32 156h804l-33 -156h-803z" />
<glyph unicode="&#x2014;" horiz-adv-x="1478" d="M198 486l32 156h1291l-33 -156h-1290z" />
<glyph unicode="&#x2018;" horiz-adv-x="378" d="M289 921l36 167q13 61 55 115.5t86 94.5q52 46 113 87h176q-61 -44 -110 -93q-44 -43 -80.5 -95.5t-49.5 -108.5l-36 -167h-190z" />
<glyph unicode="&#x2019;" horiz-adv-x="378" d="M110 921q59 44 108 93q43 44 81.5 95t51.5 107l35 169h190l-36 -169q-12 -61 -55 -114.5t-86 -95.5q-51 -46 -113 -85h-176z" />
<glyph unicode="&#x201c;" horiz-adv-x="685" d="M289 921l36 167q13 61 55 115.5t86 94.5q52 46 113 87h166q-61 -44 -107 -93q-44 -43 -80 -95.5t-48 -108.5l-36 -167h-185zM599 921l36 167q13 61 55 115.5t89 94.5q53 46 117 87h166q-61 -44 -110 -93q-43 -43 -80 -95.5t-51 -108.5l-35 -167h-187z" />
<glyph unicode="&#x201d;" horiz-adv-x="685" d="M110 921q59 44 108 93q43 44 81.5 95t51.5 107l35 169h188l-36 -169q-13 -61 -55.5 -114.5t-88.5 -95.5q-54 -46 -118 -85h-166zM428 921q56 44 104 93q42 44 80 95t50 107l37 169h185l-36 -169q-13 -61 -55.5 -114.5t-86.5 -95.5q-51 -46 -112 -85h-166z" />
<glyph unicode="&#x2022;" horiz-adv-x="682" d="M215 569q10 53 39.5 97.5t70.5 78.5t90 52.5t100 18.5q105 0 160 -70t34 -177q-10 -51 -39.5 -96t-69 -78.5t-89.5 -53t-101 -19.5q-105 0 -160 72t-35 175z" />
<glyph unicode="&#x2026;" horiz-adv-x="1453" d="M95 0l35 181h190l-36 -181h-189zM632 0l37 181h189l-37 -181h-189zM1170 0l36 181h189l-36 -181h-189z" />
<glyph unicode="&#x202f;" horiz-adv-x="460" />
<glyph unicode="&#x205f;" horiz-adv-x="576" />
<glyph unicode="&#x20ac;" horiz-adv-x="1327" d="M184 420l28 144h128l16 64q5 20 9 38t9 38h-130l30 146h156q115 225 302 340t418 115q112 0 203 -13.5t147 -42.5l-100 -161q-66 36 -137 48t-152 12q-153 0 -279 -79.5t-202 -218.5h499l-30 -146h-535l-9.5 -38l-9.5 -38q-5 -18 -7.5 -33.5t-5.5 -30.5h484l-31 -144 h-450q23 -144 123 -214t238 -70q98 0 168 22.5t152 61.5l30 -159q-82 -43 -184 -63t-220 -20q-222 0 -361 116t-143 326h-154z" />
<glyph unicode="&#x2122;" horiz-adv-x="995" d="M354 1221l10 51h307l-13 -51h-120l-82 -391h-60l83 391h-125zM630 830l92 442h74l74 -351l236 351h66l-94 -442h-49l72 352l-236 -352h-25l-80 352l-74 -352h-56z" />
<glyph unicode="&#x25fc;" horiz-adv-x="946" d="M0 0v948h948v-948h-948z" />
<glyph horiz-adv-x="1095" d="M249 916q43 66 110 118q59 44 148 82.5t223 38.5q56 0 107.5 -10.5t93.5 -28.5q57 18 117.5 56.5t75.5 107.5h187q-12 -51 -39.5 -93.5t-63.5 -73.5t-76 -51t-77 -31q83 -79 109 -197t-2 -245q-28 -133 -88 -242t-144.5 -185.5t-189.5 -119t-220 -42.5h-126l-18 402 q-5 20 -12.5 25t-28.5 5h-56l33 162h110q59 0 96 -22t43 -88l20 -320q71 0 135.5 35.5t116 95t88.5 136.5t54 158q23 110 4 186.5t-63 124.5t-104 69.5t-118 21.5q-100 0 -177 -37.5t-131 -81.5q-64 -51 -110 -114z" />
<glyph horiz-adv-x="1798" d="M198 192l71 333q10 49 25.5 86t30.5 65q17 32 36 54q-33 36 -61 64q-22 22 -43.5 41.5t-18.5 22.5q58 82 141 148q66 56 164.5 102.5t221.5 46.5q93 0 181 -23t152 -69.5t95 -117t11 -164.5l-85 -402q-8 -44 -10.5 -87t10 -78t42 -56.5t83.5 -21.5h107q54 0 95.5 21.5 t70.5 56.5t48.5 78t29.5 87l159 750h188l-154 -740q-16 -74 -51 -147t-90 -132t-129 -95.5t-169 -36.5h-205q-88 0 -137 34t-72.5 91.5t-21 132t17.5 153.5l73 341q15 76 -3.5 127.5t-57.5 81t-95.5 42.5t-112.5 13q-74 0 -129.5 -22t-93.5 -48q-46 -29 -77 -66l129 -128 q-20 -18 -42 -46q-17 -25 -35 -62.5t-31 -96.5l-67 -310q-5 -20 -5 -34.5t21 -16.5h79l-34 -164h-115q-181 0 -137 192z" />
<glyph d="M-651 1424.5q-9 36.5 3 90.5q16 66 47.5 110t74 68.5t87.5 33.5t85 9h154q59 0 101.5 14t73.5 31q34 20 61 49l-34 -161q-22 -15 -56 -25q-28 -10 -70 -18t-101 -8h-129q-76 0 -109 -33.5t-41 -69.5q-5 -23 1.5 -49.5t33.5 -26.5q29 0 46.5 12.5t31.5 28.5q12 18 20 44 h49q-3 -25 4 -44q6 -15 17.5 -28t36.5 -13q39 0 64.5 31.5t30.5 53.5h147q-20 -88 -87 -145.5t-155 -57.5q-28 0 -49.5 10t-35.5 23q-15 12 -27 34q-13 -20 -34 -34q-18 -13 -44.5 -23t-65.5 -10q-29 0 -55 10t-46.5 33.5t-29.5 60z" />
<glyph d="M-122 1898l32 161h200q39 0 64.5 -31.5t17.5 -68.5q-4 -20 7 -35.5t31 -15.5h251l-100 -162h-279q-58 0 -84 31t-18 69q5 34 -6.5 43t-27.5 9h-88z" />
<glyph d="M-238 1792q-6 23 3 52q20 90 90.5 142t142.5 52q24 0 40 -10t23 -23q10 -16 10 -34q10 18 27 34q12 13 34 23t49 10q71 0 105 -37t32 -89q-3 -20 3.5 -23t18.5 -3h136l-97 -158h-120q-71 0 -89.5 32t-10.5 70q5 29 0 59.5t-34 30.5q-20 0 -35.5 -24.5t-20.5 -51.5h-51 q4 25 2 50.5t-20 25.5t-39.5 -24.5t-26.5 -51.5q-5 -29 -1.5 -52t13.5 -36q10 -17 25 -28h-171q-15 10 -25 28q-7 13 -13 36z" />
<glyph horiz-adv-x="1886" d="M200 192l71 333q10 49 25.5 86t31.5 65q17 32 36 54l-64 64q-22 22 -43.5 41.5t-18.5 22.5q61 82 143 148q69 56 166.5 102.5t222.5 46.5q64 0 128 -12t120.5 -35t100 -57.5t66.5 -82.5q20 22 53.5 56t83.5 62t115 48.5t151 20.5q78 0 152.5 -25.5t128 -79.5t77 -133 t-0.5 -187l-233 -1099q-7 -36 -30 -65.5t-51 -51.5q-31 -29 -70 -49h-73l266 1239q17 78 3.5 134t-48.5 90t-83 50t-100 16q-100 0 -163 -34t-98.5 -76t-49.5 -78t-14 -38l-241 -1137q-8 -36 -31 -65.5t-51 -51.5q-32 -29 -69 -49h-71l268 1265q18 79 -1.5 130t-60 80.5 t-98 41.5t-114.5 12q-68 0 -124 -22t-93 -48q-46 -29 -80 -66l126 -128q-20 -20 -39 -49q-14 -25 -32.5 -63.5t-30.5 -92.5l-70 -310q-5 -25 2.5 -37t22 -14.5t33.5 -1t37 1.5l-34 -164h-120q-82 0 -116.5 46t-13.5 146z" />
<glyph horiz-adv-x="1886" d="M59 0l33 161h77q12 3 21.5 17t14.5 34t9 43.5t8 42.5l47 227q10 49 25.5 86t30.5 65q17 32 39 54l-64 64q-22 22 -43.5 41.5t-18.5 22.5q58 82 141 148q69 56 166 102.5t227 46.5q62 0 125 -12t119 -35t100 -58.5t69 -84.5q17 23 52 56.5t85 63t115 50t151 20.5 q78 0 152.5 -25.5t128 -79.5t77 -133t-0.5 -187l-233 -1099q-7 -36 -30 -65.5t-51 -51.5q-31 -29 -70 -49h-73l266 1239q17 78 3.5 134t-48.5 90t-83 50t-100 16q-127 0 -196.5 -51.5t-103.5 -110.5q-38 -68 -44 -158l-222 -1043q-8 -36 -31 -65.5t-51 -51.5 q-32 -29 -69 -49h-71l268 1265q15 74 -3 125t-57.5 82t-94.5 44t-111 13q-74 0 -131 -22t-94 -48q-46 -29 -80 -66l129 -128q-20 -18 -39 -46q-15 -25 -33 -62.5t-31 -96.5l-72 -333q-44 -192 -208 -192h-122z" />
</font>
</defs>
</svg>
