<?xml version="1.0" standalone="no"?>
<!DOCTYPE svg PUBLIC "-//W3C//DTD SVG 1.1//EN" "http://www.w3.org/Graphics/SVG/1.1/DTD/svg11.dtd" >
<svg xmlns="http://www.w3.org/2000/svg" xmlns:xlink="http://www.w3.org/1999/xlink" version="1.1">
<metadata></metadata>
<defs>
<font id="thaisans_neuebold_italic" horiz-adv-x="0" >
<font-face units-per-em="2048" ascent="1552" descent="-496" />
<missing-glyph horiz-adv-x="823" />
<glyph unicode="&#x3b;&#x3b;arm&#x3b;&#x3b;" horiz-adv-x="2672" d="M95 1588v102h409v205q-29 0 -56.5 16.5t-49.5 44.5t-34.5 65.5t-12.5 77.5q0 46 17.5 83.5t45.5 64.5t66 42t75 15q97 0 151 -54t54 -151q0 -34 -10 -69.5t-29.5 -65t-47.5 -48t-67 -21.5v-205h410v-102h-410v-308l275 -615h-102l-224 513l-223 -513h-102l274 615v308 h-409zM198 0q0 29 10 60.5t31.5 58.5t55 43.5t81.5 16.5q76 0 127.5 -51.5t51.5 -127.5q0 -18 -8.5 -64t-60.5 -82l56 -262l142 283h51l140 -283l90 536h127l-40 -216l28 52l166 38q0 133 16 226.5t46.5 150t79 82t114.5 25.5q77 0 115.5 -51t38.5 -127h-51q0 38 -19.5 70 t-56.5 32q-98 0 -139 -95t-41 -286l187 45l23 -94l-210 -54v-102q0 -154 -7.5 -281t-37 -219t-86 -142t-150.5 -50q-77 0 -128 38.5t-51 115.5h51q0 -38 32 -57.5t70 -19.5q77 0 118 46t60 126.5t22.5 193.5t3.5 249v76l-204 -51l-87 -460h-66l-180 383l-179 -383h-66 l-83 409l47 31q-6 -3 -16 -3q-10 -2 -36 -2q-22 0 -54.5 8.5t-59.5 29t-45.5 54t-18.5 84.5zM300 0q0 -29 19 -51.5t57 -22.5q76 0 76 74q0 76 -76 76q-38 0 -57 -22.5t-19 -53.5zM452 2099q0 -39 22 -71t81 -32t81 32.5t22 70.5q0 59 -32 80.5t-71 21.5t-71 -21.5 t-32 -80.5zM1042 665l583 1587h441l512 -1587h-409l-157 487h-688l-180 -487h-102zM1375 1280h594l-279 870zM1705 51l51 257h76l-76 -257h-51zM1776 2176l34 -100l59 100h-93zM1828 2030l21 -71l132 217h-63zM1832 51l52 257h77l-77 -257h-52zM1866 1910l29 -92l143 241 l-28 86zM1920 1741l15 -51l144 238l-15 51zM1956 1629l15 -51l144 237l-16 51zM1989 -254q0 95 23 183.5t64.5 155t97.5 107t122 40.5q136 0 209 -93t73 -264q0 -251 -89.5 -368.5t-243.5 -117.5q-49 0 -95 20t-82 62.5t-57.5 110t-21.5 164.5zM1994 1510l16 -51l142 236 l-17 54zM2028 1408l17 -62l144 239l-18 61zM2064 1290l17 -51l141 239l-13 51zM2091 -202l359 153q-5 49 -20 88q-15 33 -45 61t-89 28q-66 0 -107 -53t-61 -114q-26 -71 -37 -163zM2091 -330q0 -29 9.5 -60.5t28.5 -58.5t48 -44t68 -17q76 0 117.5 51t61.5 117 q22 71 26 166zM2099 1175l16 -41l143 234l-13 48zM2132 1075l16 -41l143 236l-15 44zM2166 972l15 -48l147 234l-17 53zM2199 870l19 -59l142 241l-18 57zM2232 768l8 -26h34l120 203l-18 61zM2314 742h51l63 106l-19 51zM2406 742h52l-18 57z" />
<glyph unicode="&#xd;" horiz-adv-x="823" />
<glyph unicode=" "  horiz-adv-x="823" />
<glyph unicode="&#x09;" horiz-adv-x="823" />
<glyph unicode="&#xa0;" horiz-adv-x="823" />
<glyph unicode="!" horiz-adv-x="411" d="M95 0l46 220h223l-46 -220h-223zM169 354l220 1034h222l-220 -1034h-222z" />
<glyph unicode="&#x22;" horiz-adv-x="743" d="M289 921l97 467h218l-96 -467h-219zM628 921l100 467h217l-100 -467h-217z" />
<glyph unicode="#" horiz-adv-x="1488" d="M171 371l95 195h195l94 196h-194l89 193h200l171 356h221l-172 -356h285l174 356h220l-171 -356h220l-96 -193h-220l-94 -196h222l-96 -195h-218l-180 -371h-220l176 371h-283l-179 -371h-220l176 371h-195zM681 566h287l94 196h-286z" />
<glyph unicode="$" horiz-adv-x="1077" d="M112 92l42 184q54 -31 115 -54q51 -20 119 -36.5t142 -16.5q141 0 215 64.5t95 152.5q18 76 -23 120t-108 74.5t-148.5 56t-145.5 69.5t-100 112t-10 183q15 67 54.5 122t96 97t125.5 69t144 40l43 197h214l-40 -195q64 -7 113 -21.5t79 -29.5q36 -18 61 -36l-37 -184 q-44 22 -100 41q-49 15 -117.5 27.5t-156.5 12.5q-36 0 -77.5 -10t-78.5 -29.5t-63.5 -45t-34.5 -55.5q-12 -61 28.5 -97t108.5 -64.5t148.5 -58t144.5 -78t97 -122t8 -195.5q-15 -66 -44.5 -130t-78 -117.5t-119.5 -93.5t-168 -55l-44 -202h-215l39 190q-79 2 -139.5 19.5 t-100.5 38.5q-46 25 -83 56z" />
<glyph unicode="%" horiz-adv-x="1535" d="M244 0l1236 1598h242l-1238 -1598h-240zM325 1096q39 182 140 290.5t231 108.5q125 0 176.5 -102.5t16.5 -278.5q-20 -90 -56.5 -163t-85 -126t-107.5 -82t-122 -29q-130 0 -179.5 106t-13.5 276zM528.5 999q-3.5 -39 1.5 -58.5t15 -25.5t24 -6q12 0 24.5 6t25.5 26.5 t27.5 59.5t27.5 103q25 120 15 158t-37 38q-31 0 -54.5 -38t-52.5 -161q-13 -63 -16.5 -102zM952 338q39 181 138.5 294t238.5 113q122 0 173.5 -106.5t12.5 -282.5q-17 -87 -54 -159t-86 -123.5t-106.5 -79.5t-118.5 -28q-125 0 -179.5 101.5t-18.5 270.5zM1158.5 199 q6.5 -43 36.5 -43q29 0 56 42t49 147q44 205 -20 205q-31 0 -58 -45.5t-50 -159.5q-20 -103 -13.5 -146z" />
<glyph unicode="&#x26;" horiz-adv-x="1486" d="M163.5 183q-17.5 71 2.5 171q29 141 123.5 234t250.5 157q-51 39 -86.5 109t-15.5 167q14 69 54 127t100 100t134.5 65t157.5 23q74 0 134 -23t101 -62.5t57 -92t4 -110.5q-25 -118 -102 -185t-200 -128q53 -41 88 -73t59.5 -62.5t43.5 -63t40 -72.5q95 122 143 223.5 t74 198.5l18 69h227q-20 -74 -54.5 -160t-83 -174.5t-106 -171.5t-123.5 -154q28 -49 80 -74.5t150 -25.5l-42 -195q-130 0 -223.5 35.5t-137.5 103.5q-115 -83 -232.5 -122t-258.5 -39q-100 0 -179.5 21t-129.5 67t-67.5 117zM391 354q-12 -59 1 -95.5t41 -55.5t67.5 -26.5 t83.5 -7.5q56 0 101 7.5t85.5 23t80.5 38.5t84 51q-25 53 -49 101t-53 90t-71.5 78t-103.5 67q-47 -20 -88.5 -40.5t-76 -52t-61.5 -73t-41 -105.5zM662 1021q-14 -66 7.5 -111t60.5 -72q108 41 159 91.5t63 104.5q10 48 -26.5 74t-83.5 26q-82 0 -126.5 -37t-53.5 -76z" />
<glyph unicode="'" horiz-adv-x="411" d="M289 921l97 467h225l-99 -467h-223z" />
<glyph unicode="(" horiz-adv-x="631" d="M145 41.5q-37 207.5 16 466.5q57 263 191 487t324 403h233q-95 -93 -181 -197.5t-155 -218.5t-120 -233t-77 -241q-56 -259 -3.5 -473t165.5 -394h-233q-123 193 -160 400.5z" />
<glyph unicode=")" horiz-adv-x="631" d="M-54 -359q182 179 325.5 396t197.5 467q53 258 4.5 484t-158.5 410h230q113 -179 153 -403.5t-17 -486.5q-56 -267 -190.5 -482.5t-319.5 -384.5h-225z" />
<glyph unicode="*" horiz-adv-x="738" d="M308 1014l230 107l-184 108l110 115l115 -138l15 202h144l-76 -204l183 140l59 -115l-233 -108l187 -107l-108 -115l-122 140l-13 -204h-144l71 201l-173 -137z" />
<glyph unicode="+" horiz-adv-x="1026" d="M190 456l40 194h320l72 332h197l-69 -332h320l-41 -194h-320l-67 -302h-197l65 302h-320z" />
<glyph unicode="," horiz-adv-x="413" d="M-164 -279q62 37 115 81q47 42 90.5 98t58.5 129l39 181h225l-39 -181q-17 -77 -61 -135t-90 -96q-54 -47 -120 -77h-218z" />
<glyph unicode="-" horiz-adv-x="757" d="M198 486l37 185h571l-41 -185h-567z" />
<glyph unicode="." horiz-adv-x="411" d="M95 0l44 210h222l-43 -210h-223z" />
<glyph unicode="/" horiz-adv-x="680" d="M18 0l768 1598h215l-769 -1598h-214z" />
<glyph unicode="0" horiz-adv-x="1128" d="M162.5 352q-8.5 122 25.5 278q36 166 101 298t150.5 222.5t190.5 139.5t218 49q107 0 190 -45t133 -130.5t62 -214t-22 -291.5q-36 -162 -104 -288t-157.5 -213.5t-197 -133t-220.5 -45.5q-107 0 -187.5 43t-127 126t-55 205zM390 418q4 -90 31 -145t70.5 -79.5 t97.5 -24.5q53 0 111 25.5t111.5 81.5t98 147.5t72.5 221.5q29 136 24 229.5t-33 152t-75.5 85.5t-103.5 27q-52 0 -107 -27t-106 -85.5t-95 -154.5t-71 -234q-29 -130 -25 -220z" />
<glyph unicode="1" horiz-adv-x="655" d="M246 904l43 192q66 23 129 58.5t112 71.5q56 42 108 85h202l-279 -1311h-223l214 1014q-48 -29 -135 -61t-171 -49z" />
<glyph unicode="2" horiz-adv-x="936" d="M56 0l32 159q14 76 72 146.5t137 136.5t170 128t170 125t137 128.5t74 136.5q22 102 -28 140.5t-121 38.5q-83 0 -188.5 -30.5t-188.5 -89.5l42 187q66 56 165 94.5t213 38.5q184 0 275.5 -101.5t57.5 -262.5q-20 -97 -73.5 -175t-124.5 -144.5t-150 -123t-153.5 -110 t-137 -108.5t-98.5 -119h622l-41 -195h-863z" />
<glyph unicode="3" horiz-adv-x="962" d="M108 64l41 202q51 -51 131.5 -74t164.5 -23q41 0 91 10.5t96.5 31.5t79.5 57.5t46 90.5q12 59 -3 99.5t-64 67t-134.5 38.5t-214.5 12l42 192q115 -3 210 18q82 18 153.5 59t90.5 123q10 53 1 86.5t-29.5 52.5t-51 25.5t-62.5 6.5q-90 0 -175.5 -20t-151.5 -64l39 189 q68 38 155 66.5t177 28.5q71 0 138 -23.5t114 -66.5t70 -105t8 -135q-31 -147 -135.5 -223.5t-235.5 -99.5q61 -7 118.5 -30.5t100 -62t62.5 -95t5 -127.5q-20 -87 -68.5 -159.5t-124.5 -124t-174 -80.5t-213 -29q-90 0 -170.5 28t-126.5 58z" />
<glyph unicode="4" horiz-adv-x="990" d="M79 300l39 176l771 835h207l-175 -812h157l-42 -199h-155l-65 -300h-222l61 300h-576zM391 499h308l92 441z" />
<glyph unicode="5" horiz-adv-x="911" d="M102 39l44 212q34 -22 72 -41q33 -15 76.5 -27t94.5 -12q117 0 207 46.5t118 173.5q10 49 5 93t-31 77t-69 52t-109 19q-59 0 -113.5 -6t-91.5 -11q-46 -10 -85 -19l151 715h677l-44 -197h-452l-63 -298h77q95 0 172.5 -25.5t130 -78t73 -130t-1.5 -180.5 q-41 -192 -193.5 -308t-397.5 -116q-90 0 -150 20t-97 41z" />
<glyph unicode="6" horiz-adv-x="1000" d="M155.5 318q-10.5 110 20.5 253q42 195 113.5 338t165 239t204.5 143.5t232 47.5q31 0 65.5 -2.5t69 -7.5t66.5 -11.5t52 -17.5l-40 -196q-36 7 -78 17q-36 8 -81.5 13t-96.5 5q-147 -3 -249.5 -103.5t-148.5 -267.5q59 48 130.5 65t133.5 17q78 0 146.5 -32t112 -89.5 t61.5 -137t-3 -171.5q-20 -98 -71 -178.5t-124.5 -139t-161.5 -91.5t-180 -33q-95 0 -167.5 39t-116.5 115t-54.5 186zM373.5 311q7.5 -50 31 -81.5t57.5 -46t73 -14.5t81 16.5t82 48.5t70.5 79.5t42.5 106.5q15 66 5 112.5t-34 73t-62.5 38t-79.5 11.5q-56 0 -101 -23 t-78 -56.5t-52.5 -71.5t-27.5 -72q-15 -71 -7.5 -121z" />
<glyph unicode="7" horiz-adv-x="926" d="M218 0l657 1114h-621l41 197l890 -2l-17 -78l-720 -1231h-230z" />
<glyph unicode="8" horiz-adv-x="975" d="M130 361q44 218 269 345q-64 54 -82.5 127t-1.5 152q15 69 56 132t101 113t137 79.5t161 29.5q79 0 143.5 -30.5t105.5 -80.5t56 -114t3 -129q-20 -90 -71.5 -156.5t-128.5 -122.5q78 -56 108 -148t10 -197q-17 -87 -62 -158t-113.5 -120t-152.5 -77t-184 -28 q-213 0 -301 105t-53 278zM361 389q-25 -115 27 -167.5t134 -52.5q83 0 155.5 51t98.5 166q20 98 -24 159t-137 61q-39 0 -79 -12.5t-74 -39t-62.5 -68t-38.5 -97.5zM535 970q-17 -82 18.5 -124t101.5 -42q54 0 117 42.5t80 123.5q6 25 2 56.5t-18.5 55.5t-41 40.5 t-66.5 16.5q-47 0 -80 -16.5t-56 -42t-37.5 -55.5t-19.5 -55z" />
<glyph unicode="9" horiz-adv-x="997" d="M130 10l41 198q29 -10 64 -20q31 -8 73.5 -13.5t93.5 -5.5q57 0 114.5 18t113.5 60t106 115t88 180q-56 -48 -130 -64.5t-136 -16.5q-83 0 -149.5 34.5t-109.5 93.5t-58.5 137t3.5 168q20 100 73.5 182t127 140.5t160 90.5t176.5 32q103 0 175.5 -45t112.5 -125.5 t48 -191.5t-21 -247q-78 -371 -269.5 -561.5t-462.5 -190.5q-59 0 -124.5 7t-109.5 25zM466 894q-22 -103 13.5 -172.5t155.5 -69.5q61 0 107.5 26t77 62t48.5 73t23 57q10 49 10 97.5t-18 86.5t-52.5 61.5t-92.5 23.5q-52 0 -97 -23.5t-80.5 -57.5t-60 -78.5t-34.5 -85.5z " />
<glyph unicode=":" horiz-adv-x="411" d="M95 0l44 220h225l-46 -220h-223zM249 732l46 220h225l-49 -220h-222z" />
<glyph unicode=";" horiz-adv-x="413" d="M-164 -279q66 44 120 91q46 44 89 99t55 118l39 189h225l-39 -189q-13 -67 -56.5 -123.5t-92.5 -97.5q-56 -47 -122 -87h-218zM249 730l49 222h222l-46 -222h-225z" />
<glyph unicode="&#x3c;" horiz-adv-x="992" d="M139 396l22 108l1029 510l-46 -223l-678 -339l543 -291l-47 -215z" />
<glyph unicode="=" horiz-adv-x="1026" d="M154 281l41 193h836l-40 -193h-837zM220 606l44 193h837l-41 -193h-840z" />
<glyph unicode="&#x3e;" horiz-adv-x="992" d="M5 -54l44 215l667 291l-532 339l46 223l812 -510l-21 -108z" />
<glyph unicode="?" horiz-adv-x="872" d="M249 0l46 220h223l-47 -220h-222zM310 1024l41 185q37 36 87 63q43 26 107 46.5t151 20.5q72 0 133.5 -23.5t103.5 -64t60 -98t3 -127.5q-20 -100 -82 -163.5t-130 -110t-125.5 -87t-67.5 -96.5l-46 -215h-223l47 227q15 74 73.5 126.5t127 98.5t127 94t71.5 111 q14 67 -24 97.5t-109 30.5q-69 0 -128 -19t-102 -40q-51 -25 -95 -56z" />
<glyph unicode="@" horiz-adv-x="1673" d="M199.5 234.5q-30.5 124.5 0.5 273.5q31 151 121.5 282t217 230t278 155t304.5 56q149 0 269 -47.5t199.5 -131.5t113 -198t5.5 -248q-23 -102 -74.5 -190t-119.5 -153t-143.5 -103t-144.5 -38q-105 0 -140.5 41.5t-40.5 107.5q-46 -61 -111.5 -105t-173.5 -44 q-66 0 -122.5 24.5t-92 73.5t-50 119.5t5.5 159.5q20 92 73.5 169t123.5 130.5t148 83t153 29.5q71 0 125 -35.5t64 -79.5l43 103h185l-167 -420q-13 -54 -18 -98q-5 -36 2.5 -65.5t41.5 -29.5q51 0 97.5 34t83 81t62.5 103.5t36 101.5q15 74 -2.5 161.5t-72.5 162 t-150 124.5t-233 50t-264 -57.5t-225 -145t-166 -194t-87 -199.5q-23 -103 -5.5 -201.5t75 -177t157.5 -127t240 -48.5q100 0 201.5 23t186.5 52l-31 -134q-93 -29 -190 -49t-194 -20q-154 0 -277 51.5t-205 142t-112.5 215zM722.5 409.5q7.5 -35.5 22.5 -55t35.5 -27 t35.5 -7.5q52 0 92 23t69 61t48.5 88t32.5 104q27 136 -73 136q-51 0 -94 -19t-76.5 -51t-55 -74.5t-31.5 -88.5q-13 -54 -5.5 -89.5z" />
<glyph unicode="A" horiz-adv-x="1207" d="M18 0l763 1311h201l208 -1311h-228l-53 328h-479l-195 -328h-217zM540 525h341l-65 481z" />
<glyph unicode="B" horiz-adv-x="1051" d="M95 0l276 1311h391q93 0 161 -24.5t110 -68.5q41 -44 57 -102q8 -29 8 -60q0 -32 -8 -67q-29 -130 -123.5 -202.5t-201.5 -85.5q59 -5 116 -25.5t97 -57.5q41 -36 59 -94q10 -30 9 -68q0 -33 -7 -70q-20 -92 -74 -163.5t-129.5 -121.5t-167.5 -75.5t-184 -25.5h-389z M359 195h151q118 0 202 55t102 136q5 24 5 46q0 58 -38 102q-53 60 -207 60h-132zM484 791h107q108 0 179.5 42t89.5 129q4 21 4 38q0 21 -6 37q-12 28 -38 46t-62 24.5t-74 6.5h-132z" />
<glyph unicode="C" horiz-adv-x="1126" d="M180 374q-8 47 -7 98q0 81 19 170q34 157 110.5 286.5t184 220t238 140.5t271.5 50q128 0 228 -20.5t154 -48.5l-118 -192q-66 36 -146 48.5t-162 12.5q-114 0 -207 -48.5t-160 -121.5t-110 -161.5t-57 -165.5q-16 -74 -16 -137q0 -121 58 -207q90 -130 285 -129 q97 0 178 25.5t162 64.5l36 -190q-82 -44 -197 -67.5t-238 -23.5q-144 0 -250 48t-171 137t-85 211z" />
<glyph unicode="D" horiz-adv-x="1243" d="M95 0l276 1311h379q164 0 288 -37.5t201 -115.5t101 -199q10 -49 10 -106q0 -84 -21 -184q-34 -157 -117 -281t-199.5 -211t-260 -132t-296.5 -45h-361zM359 195h137q123 0 224 35.5t180.5 98t130.5 150t75 190.5q15 70 15 130q0 123 -64 200q-95 115 -351 115h-154z" />
<glyph unicode="E" horiz-adv-x="923" d="M95 0l276 1311h738l-44 -197h-513l-76 -362h462l-42 -197h-461l-76 -360h511l-40 -195h-735z" />
<glyph unicode="F" horiz-adv-x="846" d="M95 0l276 1311h738l-44 -197h-513l-76 -362h462l-42 -197h-461l-117 -555h-223z" />
<glyph unicode="G" horiz-adv-x="1268" d="M178 358q-10 50 -10 105q0 78 20 167q31 149 111 279t195 225t256 150t295 55q103 0 173 -15t113 -34q51 -20 81 -46l-44 -215q-13 12 -44.5 31.5t-78.5 36.5t-115 29.5t-152 12.5q-116 0 -211.5 -45.5t-168.5 -119t-120.5 -164.5t-65.5 -180q-11 -60 -11 -117 q0 -28 3 -56q8 -83 47.5 -147t111.5 -102.5t182 -38.5q41 0 72 1t59 6t56 14.5t64 21.5l62 296h-282l43 193h505l-134 -622q-108 -57 -241 -79t-255 -22q-136 0 -245 45.5t-178 130t-93 204.5z" />
<glyph unicode="H" horiz-adv-x="1205" d="M95 0l276 1311h225l-115 -532h571l113 532h225l-279 -1311h-222l120 581h-569l-122 -581h-223z" />
<glyph unicode="I" horiz-adv-x="411" d="M95 0l276 1311h225l-278 -1311h-223z" />
<glyph unicode="J" horiz-adv-x="728" d="M22 29l114 171q18 -8 40 -16q20 -5 45 -10t53 -5q85 0 143.5 70.5t92.5 229.5l179 842h222l-179 -842q-28 -130 -80.5 -225t-121.5 -154t-148.5 -87t-161.5 -28q-49 0 -84.5 7.5t-61.5 17.5q-29 10 -52 29z" />
<glyph unicode="K" horiz-adv-x="1085" d="M95 0l276 1311h225l-120 -566l576 566h269l-473 -469l220 -842h-238l-170 662l-255 -250l-87 -412h-223z" />
<glyph unicode="L" horiz-adv-x="846" d="M95 0l276 1311h225l-237 -1116h511l-40 -195h-735z" />
<glyph unicode="M" horiz-adv-x="1563" d="M95 0l276 1311h264l207 -962l643 962h264l-279 -1311h-224l190 901l-606 -901h-124l-198 889l-190 -889h-223z" />
<glyph unicode="N" horiz-adv-x="1282" d="M95 0l276 1311h247l418 -962l205 962h227l-280 -1311h-246l-422 950l-202 -950h-223z" />
<glyph unicode="O" horiz-adv-x="1383" d="M177 370q-7 44 -7 92q0 83 20 176q34 156 105 285t173.5 221t232 143.5t279.5 51.5q146 0 251 -51.5t169 -140.5t82 -213q7 -46 7 -95q0 -82 -19 -174q-34 -156 -106 -282.5t-175.5 -217.5t-235 -139t-284.5 -48q-144 0 -247.5 48t-165 135.5t-79.5 208.5zM402 434 q12 -88 53 -147t106 -88.5t148 -29.5q90 0 174.5 29.5t156 91t124 155t80.5 220.5q16 74 16 137q0 36 -5 68q-14 90 -55.5 149t-108.5 89.5t-149 30.5q-90 0 -174 -30.5t-153.5 -93.5t-122 -158t-77.5 -219q-17 -77 -17 -142q0 -32 4 -62z" />
<glyph unicode="P" horiz-adv-x="987" d="M95 0l276 1311h377q100 0 179 -24.5t131 -75.5q50 -51 68 -129q8 -34 8 -72q0 -51 -13 -111q-22 -113 -79 -196t-134.5 -138t-173.5 -82t-204 -27h-115l-97 -456h-223zM456 650h115q151 0 227.5 69.5t100.5 176.5q9 43 9 78v10q-2 40 -21 68t-62.5 45t-120.5 17h-152z " />
<glyph unicode="Q" horiz-adv-x="1383" d="M177 370q-7 44 -7 92q0 83 20 176q34 156 106.5 285t175 221t229.5 143.5t267 51.5q148 0 257 -51.5t174 -140.5t83 -213q7 -46 7 -95q0 -83 -19 -174q-46 -220 -165.5 -376.5t-273.5 -232.5q29 -12 59.5 -31.5t54 -47.5t34.5 -67q6 -20 6 -42q0 -21 -5 -44h-212 q7 36 -4.5 62t-32 48t-45 36.5t-46.5 21.5q-44 -10 -94 -12t-96 -2q-132 0 -232 48t-161.5 135.5t-79.5 208.5zM401 434q11 -89 52 -147.5t107 -88t151 -29.5q90 0 174.5 29.5t155 91t123 155t80.5 220.5q16 74 16 137q0 36 -5 68q-14 90 -57 149t-113.5 89.5t-160.5 30.5 q-83 0 -161.5 -30.5t-148 -93.5t-122 -158t-77.5 -219q-17 -81 -17 -148q0 -29 3 -56z" />
<glyph unicode="R" horiz-adv-x="1117" d="M95 0l276 1311h413q82 0 153.5 -23t121.5 -70q51 -46 71 -116q11 -37 10 -79q0 -39 -9 -83q-15 -66 -52 -119t-87 -91.5t-106 -60t-107 -29.5q53 -20 94 -102t79 -177l149 -361h-256l-129 322q-46 118 -98 163t-106 45h-82l-112 -530h-223zM471 728l157 2q112 2 184 53.5 t94 156.5q4 19 4 36q0 51 -34 88q-44 50 -167 50h-157z" />
<glyph unicode="S" horiz-adv-x="1077" d="M112 92l42 189q44 -31 100 -56q46 -20 110 -37t137 -17q130 0 221.5 47.5t117.5 167.5q5 23 5 43q0 46 -28 78q-41 45 -108 74.5t-148.5 55t-145.5 68.5t-100 112q-21 40 -21 96q0 40 11 88q15 74 65 135.5t122 106.5t156 69t173 24q105 0 177 -13.5t116 -32.5 q51 -20 81 -46l-40 -192q-44 23 -100 44q-49 15 -118 29t-158 14q-44 0 -86.5 -10t-75.5 -29.5t-56 -45t-31 -53.5q-3 -14 -3 -27q-1 -44 31 -72q40 -36 108.5 -64.5t149 -57t144.5 -75.5t97 -122q19 -43 18 -101q0 -44 -10 -96q-17 -85 -58.5 -158.5t-110 -130t-168.5 -88 t-234 -31.5q-100 0 -171.5 17t-117.5 39q-54 25 -93 58z" />
<glyph unicode="T" horiz-adv-x="962" d="M254 1114l41 197h929l-44 -197h-345l-236 -1114h-223l235 1114h-357z" />
<glyph unicode="U" horiz-adv-x="1205" d="M184 269q-4 32 -4 67q0 76 20 168l171 807h225l-168 -796q-18 -84 -19 -147q0 -80 31 -122q54 -76 185 -77q59 0 116.5 16.5t107.5 55t86.5 101.5t58.5 157l171 812h225l-169 -789q-61 -286 -230.5 -415t-409.5 -129q-115 0 -199 30.5t-134 95.5t-64 165z" />
<glyph unicode="V" horiz-adv-x="1207" d="M295 1311h227l147 -996l572 996h229l-766 -1311h-203z" />
<glyph unicode="W" horiz-adv-x="1740" d="M295 1311h227l62 -973l498 973h157l39 -969l496 969h228l-683 -1311h-234l-20 884l-437 -884h-234z" />
<glyph unicode="X" horiz-adv-x="1161" d="M18 0l568 655l-264 656h262l176 -463l400 463h264l-574 -656l294 -655h-263l-202 464l-400 -464h-261z" />
<glyph unicode="Y" horiz-adv-x="1095" d="M295 1311h230l161 -595l435 595h233l-606 -830l-103 -481h-225l100 476z" />
<glyph unicode="Z" horiz-adv-x="1051" d="M18 0l16 82l906 1032h-635l40 197h969l-22 -85l-906 -1031h662l-39 -195h-991z" />
<glyph unicode="[" horiz-adv-x="570" d="M18 -359l373 1759h459l-41 -194h-251l-292 -1370h252l-42 -195h-458z" />
<glyph unicode="\" horiz-adv-x="680" d="M356 1598h215l91 -1598h-214z" />
<glyph unicode="]" horiz-adv-x="570" d="M-54 -359l39 195h245l295 1370h-251l41 194h457l-373 -1759h-453z" />
<glyph unicode="^" horiz-adv-x="1271" d="M200 494l650 906h108l324 -906h-222l-218 596l-422 -596h-220z" />
<glyph unicode="_" horiz-adv-x="1026" d="M66 -125l39 181h840l-41 -181h-838z" />
<glyph unicode="`" horiz-adv-x="682" d="M405 1468h245l178 -342h-213z" />
<glyph unicode="a" horiz-adv-x="980" d="M150 154q-4 21 -4 44q0 36 10 76q20 85 65 137.5t101.5 80.5t114 38t105.5 10q67 0 114.5 5t78.5 13q36 10 59 21q10 46 10 81q0 18 -2 33q-8 45 -30 70.5t-56.5 35.5t-73.5 10q-78 0 -142.5 -25.5t-110.5 -53.5q-54 -34 -94 -78l-34 139q39 54 100 100q51 37 132 68.5 t193 31.5q79 0 148.5 -23t115.5 -69.5t65 -118.5q9 -35 9 -75q0 -42 -10 -90l-128 -615h-212l27 130q-22 -20 -52.5 -45.5t-69.5 -49t-83 -38.5t-91 -15q-66 0 -120.5 20t-89 59t-45.5 93zM366 274q-7 -36 0.5 -59t26.5 -36t45.5 -18t55.5 -5q58 0 126.5 31t109.5 74l32 157 q-33 -8 -68 -16q-32 -4 -70 -8.5t-76 -4.5q-52 0 -110.5 -28.5t-71.5 -86.5z" />
<glyph unicode="b" horiz-adv-x="1102" d="M95 0l294 1388h210l-120 -567q33 49 79 88q41 33 99.5 60t136.5 27q66 0 141.5 -29t133 -90t84.5 -153q14 -48 14 -105q0 -53 -12 -115q-31 -142 -96 -240t-148 -159t-173 -89t-167 -28q-76 0 -122.5 25.5t-72.5 57.5q-28 37 -38 85l-33 -156h-210zM366 289 q25 -34 62 -59q31 -22 74 -40.5t99 -18.5q49 0 101.5 18.5t99 57.5t83 103.5t57.5 153.5q9 41 9 78q-1 26 -5 50q-12 57 -41.5 96.5t-72.5 61t-92 21.5q-56 0 -107.5 -19.5t-92.5 -41.5q-46 -29 -90 -59z" />
<glyph unicode="c" horiz-adv-x="857" d="M148 257q-9 39 -9 84q0 57 15 123q25 117 84.5 214.5t142.5 166.5t180 107.5t199 38.5q59 0 109 -14.5t86 -28.5q44 -18 76 -42l-122 -181q-23 23 -51 40q-26 15 -59.5 29.5t-73.5 14.5q-66 0 -125.5 -29.5t-107 -77t-80.5 -110t-48 -128.5q-9 -44 -10 -82q0 -81 43 -135 q62 -78 192 -78q41 0 80.5 13t70.5 28q36 18 69 44l43 -185q-51 -23 -102 -40q-44 -15 -100 -28t-110 -13q-100 0 -182 30.5t-136 90.5t-74 148z" />
<glyph unicode="d" horiz-adv-x="1102" d="M153 276q-9 41 -9 88q0 64 17 140q25 117 88 208.5t142.5 152.5t164 93.5t150.5 32.5q76 0 127 -26.5t81 -58.5q36 -38 56 -85l122 567h210l-293 -1388h-210l31 156q-41 -48 -90 -85q-44 -31 -104 -56t-137 -25t-150 32t-124 94t-72 160zM364 362q8 -62 34.5 -104.5 t66 -65.5t87.5 -23q67 0 123.5 18t96.5 41q47 28 86 61l87 402q-23 31 -59 59q-31 20 -79.5 39.5t-115.5 19.5q-49 0 -99 -24.5t-95 -65t-78 -95.5t-45 -120q-13 -56 -13 -103q1 -21 3 -39z" />
<glyph unicode="e" horiz-adv-x="972" d="M140 258q-5 32 -5 67q0 67 19 149q22 105 74.5 198t126 165t164 113t190.5 41q203 0 277 -128q49 -84 48 -206q0 -64 -13 -139l-17 -103h-645q-8 -33 -8 -62q0 -68 41 -116q58 -68 182 -68q68 0 118 14.5t84 31.5q39 20 66 46l42 -161q-46 -31 -103 -56 q-49 -20 -115.5 -37t-145.5 -17q-102 0 -183 28t-131 88t-66 152zM402 599h419q5 24 5 47q0 14 -2 28q-5 36 -24 67t-51.5 49.5t-77.5 18.5q-43 0 -87 -19.5t-79.5 -49t-62.5 -66t-40 -75.5z" />
<glyph unicode="f" horiz-adv-x="667" d="M179 772l41 186h164l24 104q14 74 43.5 138.5t74.5 111.5t107.5 73.5t147.5 26.5q44 0 76 -3.5t52 -8.5q22 -8 36 -12l-41 -193q-15 7 -34 19q-15 5 -35.5 11t-43.5 6q-22 0 -49.5 -6t-52 -24.5t-43 -51.5t-28.5 -87l-22 -104h256l-38 -186h-256l-164 -772h-210l161 772 h-166z" />
<glyph unicode="g" horiz-adv-x="1102" d="M64 -332l112 171q20 -29 54 -51q29 -20 75 -34.5t113 -14.5q66 0 127 13t112.5 45t90 88t56.5 146l26 125q-36 -48 -82 -85q-42 -33 -99.5 -58t-133.5 -25t-152.5 30.5t-131.5 91.5t-79 152q-12 44 -12 95q0 55 14 117q28 130 92 227.5t144.5 161t169 96t165.5 32.5 q76 0 123.5 -26.5t75.5 -58.5q31 -38 46 -85l34 157h212l-195 -922q-56 -264 -216 -384t-426 -120q-77 0 -134 18t-99 39q-46 25 -82 59zM362 360q9 -55 34.5 -98.5t64 -69.5t87.5 -26q66 0 123 18t99 41q46 25 88 59l87 405q-25 31 -64 59q-33 20 -82 39t-115 19 q-49 0 -97.5 -23t-92.5 -66t-78.5 -105t-49.5 -138q-7 -35 -7 -68q0 -23 3 -46z" />
<glyph unicode="h" horiz-adv-x="1026" d="M95 0l294 1388h210l-125 -592q38 54 84 98q41 36 97 66.5t126 30.5q93 0 155.5 -30t95.5 -79q32 -50 40 -116q2 -22 3 -46q0 -46 -10 -95l-134 -625h-209l133 632q4 17 4 33q1 47 -33 83q-44 48 -142 48q-52 0 -95.5 -19t-73.5 -39q-36 -26 -67 -57l-143 -681h-210z" />
<glyph unicode="i" horiz-adv-x="398" d="M95 0l207 978h210l-207 -978h-210zM330 1116l44 208h212l-44 -208h-212z" />
<glyph unicode="j" horiz-adv-x="398" d="M-349 -379l114 169q15 -15 30 -25q13 -10 31 -18t35 -8q79 0 138.5 58.5t95.5 214.5l207 966h210l-200 -934q-22 -110 -67 -200t-108 -154t-144 -99.5t-174 -35.5q-44 0 -74.5 10t-52.5 23q-24 12 -41 33zM330 1116l44 208h212l-46 -208h-210z" />
<glyph unicode="k" horiz-adv-x="936" d="M95 0l294 1388h210l-181 -853l440 430h246l-354 -343l164 -622h-213l-115 461l-232 -231l-49 -230h-210z" />
<glyph unicode="l" horiz-adv-x="398" d="M95 0l294 1388h210l-294 -1388h-210z" />
<glyph unicode="m" horiz-adv-x="1653" d="M95 0l207 978h210l-38 -182q2 3 24 33.5t62.5 66t98 65.5t132.5 30q128 0 192.5 -63t81.5 -142q13 15 43.5 48.5t75.5 68.5t101 61.5t123 26.5q92 0 154.5 -31t96 -81.5t41.5 -116.5q3 -22 2 -45q0 -45 -10 -92l-133 -625h-210l133 632q3 15 3 30q0 44 -28 82 q-38 52 -136 52q-49 0 -91 -19t-78 -39q-41 -26 -77 -57l-144 -681h-209l133 632q4 18 4 35q1 49 -33 82q-44 45 -142 45q-46 0 -89 -18t-75 -38q-39 -26 -72 -57l-143 -681h-210z" />
<glyph unicode="n" horiz-adv-x="1026" d="M95 0l207 978h210l-38 -182q38 54 87 98q44 36 102.5 66.5t132.5 30.5q88 0 146.5 -31t90.5 -82q31 -50 39 -116q2 -22 3 -45q0 -45 -10 -92l-134 -625h-209l130 632q3 16 3 31q0 44 -28 82q-38 51 -128 51q-51 0 -96 -19t-81 -39q-41 -26 -74 -57l-143 -681h-210z" />
<glyph unicode="o" horiz-adv-x="1075" d="M146 278q-5 34 -5 71q0 60 15 127q23 115 76.5 210t131.5 162.5t177 105t214 37.5q110 0 190.5 -37.5t128.5 -102.5q46 -65 60 -156q5 -33 5 -68q0 -62 -15 -131q-52 -232 -212 -370t-390 -138q-107 0 -186.5 35.5t-127.5 100t-62 154.5zM358 358q4 -56 27 -98 t66.5 -66.5t109.5 -24.5q147 0 235 92.5t115 234.5q10 49 10 94q0 14 -1 27q-4 57 -27 99t-66 67.5t-111 25.5q-74 0 -131 -27t-102 -73.5t-73.5 -106.5t-43.5 -126q-9 -47 -9 -92q0 -13 1 -26z" />
<glyph unicode="p" horiz-adv-x="1102" d="M5 -408l297 1386h210l-33 -157q43 47 90 85q41 32 94 58.5t118 26.5q93 0 170.5 -32.5t131 -96t73.5 -160.5q8 -41 8 -88q0 -65 -16 -140q-26 -120 -90 -211.5t-145 -152.5t-167 -91.5t-152 -30.5q-76 0 -126 25.5t-79 57.5q-34 37 -51 85l-123 -564h-210zM366 284 q29 -34 64 -59q31 -23 76.5 -41t111.5 -18q31 0 77.5 18t94.5 55t87 94.5t58 140.5q14 63 14 111q0 30 -5 55q-15 64 -48.5 101.5t-75 51t-80.5 13.5q-56 0 -107.5 -19t-92.5 -39q-46 -29 -90 -59z" />
<glyph unicode="q" horiz-adv-x="1102" d="M152 262q-12 44 -12 95q0 55 14 117q28 130 88 227.5t137 161t161.5 96t160.5 32.5q77 0 128.5 -26.5t81.5 -58.5q37 -38 59 -85l36 157h210l-297 -1386h-210l121 564q-39 -48 -85 -85q-41 -33 -100 -58t-135 -25q-74 0 -149 30.5t-130 91.5t-79 152zM364 334 q15 -58 46.5 -95t71.5 -55t73 -18q59 0 114.5 18t98.5 41q48 25 90 59l87 405q-31 31 -67 59q-34 20 -77 39t-100 19q-33 0 -80 -13.5t-97 -51t-92.5 -101.5t-65.5 -166q-9 -44 -9 -81q0 -33 7 -59z" />
<glyph unicode="r" horiz-adv-x="647" d="M95 0l207 978h210l-56 -267q39 77 84 141q41 52 93.5 97t114.5 45q14 0 30 -4.5t28 -9.5q13 -5 29 -10l-44 -212q-17 4 -33 12q-16 5 -32.5 9.5t-36.5 4.5q-39 0 -85 -34t-86 -74q-47 -46 -93 -105l-120 -571h-210z" />
<glyph unicode="s" horiz-adv-x="872" d="M105 51l39 181q31 -22 71 -37q36 -15 83 -27t107 -12q105 0 157.5 34.5t65.5 93.5q3 13 3 25q1 33 -21 55q-28 30 -77 50.5t-106.5 38.5t-104 50t-70.5 82q-14 29 -14 68q0 30 8 66q15 66 59 119t102.5 90t122.5 56.5t118 19.5q76 0 128 -13t84 -29q39 -17 61 -41 l-37 -176q-32 20 -73 39q-36 12 -86.5 24.5t-115.5 12.5q-54 0 -98.5 -33t-51.5 -69q-2 -9 -2 -16q1 -29 25 -45q30 -20 78.5 -37t105 -34.5t100.5 -54.5q44 -36 68 -94q13 -32 14 -74q0 -36 -10 -80q-29 -130 -146.5 -218t-315.5 -88q-58 0 -108 11t-87 23q-43 16 -76 39z " />
<glyph unicode="t" horiz-adv-x="667" d="M179 772l41 186h166l90 430h213l-93 -430h256l-38 -186h-256l-92 -434q-8 -38 -8 -66q0 -12 1 -21q5 -33 17.5 -51.5t34 -24.5t44.5 -6q29 0 52 5t43 10q22 7 44 18l-42 -190q-14 -7 -41 -12q-20 -5 -53 -7.5t-77 -2.5q-79 0 -130 25.5t-79 71t-32 109.5q-1 14 -1 29 q0 52 12 110l94 437h-166z" />
<glyph unicode="u" horiz-adv-x="1026" d="M160 218q-3 24 -3 48q0 42 9 88l136 624h210l-131 -614q-5 -23 -5 -43q0 -21 5 -37q10 -34 32 -55t52.5 -31t66.5 -10q52 0 97 17t80 41q41 25 77 59l143 673h210l-204 -973h-213l36 176q-32 -53 -74 -93q-36 -37 -94 -65t-131 -28q-93 0 -157 29.5t-98.5 79.5t-43.5 114 z" />
<glyph unicode="v" horiz-adv-x="980" d="M225 978h241l100 -678l389 678h215l-552 -978h-229z" />
<glyph unicode="w" horiz-adv-x="1420" d="M225 978h239l27 -656l354 656h156l49 -656l332 656h228l-511 -978h-205l-49 632l-335 -632h-219z" />
<glyph unicode="x" horiz-adv-x="933" d="M18 0l432 489l-225 489h239l142 -316l280 316h238l-438 -502l230 -476h-237l-149 302l-276 -302h-236z" />
<glyph unicode="y" horiz-adv-x="1038" d="M-56 -384l105 169q17 -13 36 -23q36 -22 76 -23q57 0 99 31.5t85 104.5l93 154l-208 949h229l152 -666l390 666h228l-691 -1137q-86 -141 -176.5 -213.5t-231.5 -72.5q-51 0 -85.5 8.5t-56.5 21.5q-29 13 -44 31z" />
<glyph unicode="z" horiz-adv-x="918" d="M95 0l15 85l645 711h-445l41 182h758l-21 -92l-638 -705h481l-37 -181h-799z" />
<glyph unicode="{" horiz-adv-x="603" d="M139 391l35 175q78 8 127.5 42t72.5 140l64 300q14 78 47 140.5t85 109t129 73.5t185 31l-42 -193q-24 0 -54 -9.5t-57 -28.5t-49 -50t-32 -79l-66 -307q-20 -103 -89.5 -171t-164.5 -93q82 -20 121.5 -88t19.5 -175l-61 -296q-12 -53 -3.5 -86.5t29 -50t47.5 -21.5 t49 -5l-41 -194q-192 0 -262 90.5t-37 249.5l64 305q20 105 -12 143t-105 48z" />
<glyph unicode="|" horiz-adv-x="401" d="M25 -320l393 1846h214l-394 -1846h-213z" />
<glyph unicode="}" horiz-adv-x="603" d="M-74 -445l40 194q23 0 51.5 5t54.5 21.5t47.5 50t34.5 86.5l64 296q22 107 92.5 174.5t160.5 88.5q-82 25 -121.5 93t-19.5 171l64 307q10 49 1 79.5t-26.5 49.5t-43 28.5t-51.5 9.5l41 193q207 -12 268.5 -104t25.5 -250l-64 -300q-13 -52 -9 -85t21 -53.5t45 -30.5 t67 -13l-39 -175q-79 -10 -128.5 -48t-71.5 -143l-66 -305q-36 -159 -142.5 -249.5t-295.5 -90.5z" />
<glyph unicode="~" horiz-adv-x="1023" d="M184 422q10 52 35 105.5t63 95.5t90.5 69t116.5 27q56 0 97.5 -20t74.5 -44.5t65 -45t73 -20.5t64 31.5t43 98.5h176q-31 -123 -104.5 -210t-198.5 -87q-61 0 -106 21t-80 44t-66 43t-63 20q-44 0 -68.5 -29.5t-36.5 -98.5h-175z" />
<glyph unicode="&#xa9;" horiz-adv-x="1681" d="M95 620q0 156 58.5 292t160 236.5t237 158.5t291.5 58q157 0 292.5 -58t236.5 -158.5t159 -236.5t58 -292t-58 -292t-159 -236t-236.5 -157t-292.5 -57q-156 0 -291.5 57t-237 157t-160 236t-58.5 292zM200 618q0 -133 50 -250t137 -203t204.5 -135.5t250.5 -49.5 t251 49.5t205 135.5t137 202.5t50 250.5q0 132 -50 249.5t-137 205t-205 137.5t-251 50q-132 0 -250 -50t-205 -137.5t-137 -205t-50 -249.5zM405 606q0 110 33 199t93 151.5t143.5 95.5t185.5 33q59 0 132 -8.5t119 -26.5l-39 -80q-46 20 -102 28t-108 8q-84 0 -150.5 -32 t-113 -87t-70.5 -128t-24 -153q0 -168 95 -279.5t263 -111.5q67 0 113 13t97 41l37 -81q-51 -29 -120.5 -42.5t-138.5 -13.5q-202 0 -323.5 128.5t-121.5 345.5z" />
<glyph unicode="&#xad;" horiz-adv-x="757" d="M198 486l37 185h571l-41 -185h-567z" />
<glyph unicode="&#xae;" horiz-adv-x="1681" d="M95 620q0 156 58.5 292t160 236.5t237 158.5t291.5 58q157 0 292.5 -58t236.5 -158.5t159 -236.5t58 -292t-58 -292t-159 -236t-236.5 -157t-292.5 -57q-156 0 -291.5 57t-237 157t-160 236t-58.5 292zM200 618q0 -137 50 -253t137 -202.5t204.5 -135.5t250.5 -49t251 49 t205 135.5t137 202.5t50 253q0 132 -50 249.5t-137 205t-205 137.5t-251 50q-132 0 -250 -50t-205 -137.5t-137 -205t-50 -249.5zM569 171v928h273q57 0 108 -15.5t89.5 -46.5t61.5 -77t23 -110q0 -61 -18 -105t-49 -73.5t-70 -46t-83 -24.5q46 -25 88 -66t63 -76l176 -288 h-120l-156 261q-41 67 -100 104.5t-95 37.5h-91v-403h-100zM669 655h122q47 0 88.5 12t73.5 36.5t52.5 60t20.5 86.5q0 76 -55 120t-152 44h-150v-359z" />
<glyph unicode="&#xbc;" horiz-adv-x="1896" d="M394 0l1280 1598h217l-1282 -1598h-215zM396 1359l24 105q36 12 69 31.5t61 40.5q31 23 59 46h110l-150 -717h-121l116 554q-25 -13 -73.5 -31t-94.5 -29zM1372 261l20 98l420 455h113l-95 -445h88l-23 -108h-85l-36 -163h-123l37 163h-316zM1541 369h169l49 240z" />
<glyph unicode="&#xbd;" horiz-adv-x="1925" d="M394 0l1280 1598h217l-1282 -1598h-215zM396 1359l24 105q36 12 69 31.5t61 40.5q31 23 59 46h110l-150 -717h-121l116 554q-25 -13 -73.5 -31t-94.5 -29zM1388 98l17 86q13 64 76 120.5t136 109t134 105t74 111.5t-14 79.5t-67 20.5q-44 0 -104 -17t-104 -51l23 106 q36 31 91 52.5t119 21.5q102 0 153.5 -56t31.5 -146q-18 -82 -73.5 -141t-120.5 -106.5t-125 -90.5t-91 -97h345l-23 -107h-478z" />
<glyph unicode="&#xbe;" horiz-adv-x="1922" d="M286 914l24 110q29 -29 72 -41.5t89 -12.5q23 0 50 5t51 17t43.5 32.5t24.5 47.5q12 67 -36.5 93.5t-188.5 26.5l23 106q61 0 112 11q44 10 84 31.5t50 64.5q10 56 -17 75.5t-61 19.5q-48 0 -94 -11t-82 -35l20 102q36 20 83.5 36t98.5 16q39 0 74.5 -13t62.5 -36 t38.5 -56t3.5 -74q-17 -83 -73.5 -123.5t-128.5 -54.5q33 -5 65 -16t55 -33t33 -52.5t3 -69.5q-20 -98 -104.5 -156.5t-212.5 -58.5q-49 0 -92.5 15.5t-69.5 33.5zM420 0l1280 1598h218l-1283 -1598h-215zM1398 261l21 98l419 455h113l-95 -445h86l-22 -108h-85l-35 -163 h-124l36 163h-314zM1566 369h170l48 240z" />
<glyph unicode="&#xe01;" horiz-adv-x="1171" d="M161 0l115 540q10 49 26 85.5t28 65.5q15 31 34 54q-34 36 -62 64q-22 22 -43 41.5t-18 21.5q64 88 148 154q71 59 172 107.5t233 48.5q100 0 190.5 -24t155 -73t95 -121.5t9.5 -167.5l-130 -615q-8 -36 -36 -67.5t-57 -57.5q-33 -28 -73 -56h-96l159 745 q15 71 -3.5 118.5t-57.5 74.5t-91.5 37t-100.5 10q-67 0 -117 -17.5t-86 -38.5q-44 -25 -74 -57l130 -127q-25 -20 -47 -51q-20 -29 -40 -68.5t-33 -97.5l-110 -528h-220z" />
<glyph unicode="&#xe02;" horiz-adv-x="987" d="M203.5 235.5q-1.5 74.5 14.5 150.5l20 103q20 107 78 181.5t106 125.5q20 20 47 51t32 52q5 29 -13.5 47.5t-65.5 18.5h-163l41 193h164q161 0 223.5 -72t37.5 -187q-13 -64 -53 -117.5t-86 -92.5q-12 -10 -31.5 -30.5t-39 -47.5t-34.5 -59t-22 -63l-24 -103 q-20 -97 0.5 -157t106.5 -60q90 0 140 66.5t68 150.5l164 772h225l-164 -772q-15 -76 -49.5 -150.5t-92 -132t-143.5 -91.5t-209 -34q-100 0 -160 34t-88 91.5t-29.5 132z" />
<glyph unicode="&#xe03;" horiz-adv-x="987" d="M196.5 235.5q-1.5 74.5 15.5 150.5l26 110q20 93 69 163.5t113 134.5q10 10 28 25.5t34.5 30.5t31 33t18.5 38q6 29 -12.5 43t-50.5 -2q-15 -4 -33 -18.5t-34 -27.5q-17 -15 -38 -35q-10 23 -26 40q-13 15 -33.5 29.5t-45.5 14.5l41 193q22 0 43 -17t33 -37 q15 -23 32 -52q28 29 58 52q29 20 63.5 37t74.5 17q31 0 63 -14.5t53.5 -43t30.5 -72t-3 -102.5q-18 -76 -58 -131t-86 -94q-13 -10 -33.5 -29.5t-41.5 -46t-42 -61t-28 -73.5l-24 -105q-20 -97 0.5 -157t112.5 -60q87 0 137 70.5t67 154.5l162 764h225l-161 -753 q-18 -85 -53.5 -162t-92 -135.5t-137 -94t-191.5 -35.5q-113 0 -178 34t-96.5 91.5t-33 132z" />
<glyph unicode="&#xe04;" horiz-adv-x="1180" d="M95 0l166 796q18 88 74 159t136.5 121t175.5 78t193 28q95 0 179.5 -26.5t143 -76.5t84 -121.5t8.5 -161.5l-170 -796h-223l167 796q17 83 -50.5 136t-182.5 53t-203.5 -52t-106.5 -137l-54 -258q47 38 98 68q44 25 99 47.5t113 22.5l-46 -220q-68 0 -124.5 -18 t-97.5 -39q-46 -25 -85 -54l-71 -345h-223z" />
<glyph unicode="&#xe05;" horiz-adv-x="1180" d="M95 0l166 796q15 66 55 135.5t95 124.5t119 89.5t125 34.5q34 0 60.5 -24.5t46.5 -51.5q23 -34 44 -78q34 44 72 78q31 28 71 53t75 25q64 0 114 -35.5t80.5 -90.5t41 -124.5t-4.5 -135.5l-170 -796h-223l167 796q15 76 -5 132.5t-72 56.5q-20 0 -51 -25t-61 -56 q-36 -36 -75 -83q-20 47 -43 83q-20 31 -41 56t-41 25q-49 0 -95 -56.5t-61 -132.5l-54 -258q44 38 95 68q44 25 100 47.5t117 22.5l-46 -220q-68 0 -124.5 -17t-97.5 -37q-46 -24 -85 -53l-71 -349h-223z" />
<glyph unicode="&#xe06;" horiz-adv-x="1192" d="M132 0l112 530q17 88 61 138.5t89.5 88t85.5 71.5t50 86q5 25 -3.5 41.5t-37.5 16.5q-15 0 -36 -13.5t-41 -32.5q-22 -20 -48 -45q-15 23 -34 40q-15 15 -33 29.5t-38 14.5l41 193q22 0 43 -17t33 -37q15 -23 32 -52q28 32 58 54q29 20 64.5 36t73.5 16q87 -3 131 -70 t23 -164q-18 -88 -62 -137t-89.5 -89t-86.5 -81t-56 -107l-39 -185q25 -39 61 -66q32 -25 78.5 -44.5t114.5 -19.5q107 0 184 57.5t109 211.5l147 694h225l-162 -756q-17 -87 -60.5 -165t-105 -135.5t-139.5 -90.5t-166 -33q-95 0 -156 31.5t-96 69.5q-44 46 -68 102 l-35 -181h-224z" />
<glyph unicode="&#xe07;" horiz-adv-x="1010" d="M225 791h225l26 -593q46 0 102.5 23t110 71t98.5 118.5t65 168.5q20 95 4 166t-58.5 120t-106 72t-141.5 23l41 198q115 0 217.5 -36.5t172 -109t99 -180t-1.5 -253.5q-29 -125 -98 -231.5t-160.5 -183t-194.5 -120.5t-197 -44h-177z" />
<glyph unicode="&#xe08;" horiz-adv-x="1133" d="M246 945q52 66 128 117q66 44 162 82t229 38q125 0 217.5 -48.5t149 -129t75.5 -185.5t-3 -215q-25 -120 -82 -229t-142.5 -192t-198 -133t-253.5 -50h-129l-18 405q-5 20 -15 21.5t-31 1.5h-51l41 197h103q28 0 56 -2.5t52.5 -15.5t42 -41t27.5 -77l16 -291q57 0 113 33 t105 88t85.5 129t54.5 156q22 110 2 183t-63.5 118t-98.5 62.5t-98 17.5q-107 0 -188.5 -35.5t-137.5 -79.5q-66 -49 -115 -112z" />
<glyph unicode="&#xe09;" horiz-adv-x="1166" d="M156 479l44 197h145q90 0 119.5 -57.5t9.5 -159.5l-15 -73q-25 -115 7.5 -153t109.5 -38q66 0 127.5 20t110.5 46q56 29 105 67l77 366q10 56 7.5 108.5t-25.5 94t-70.5 65t-123.5 23.5t-151 -22.5t-134 -51.5q-67 -31 -128 -71l-41 184q64 44 144 80q66 28 155.5 53 t198.5 25q237 0 339.5 -125.5t58.5 -337.5l-154 -719h-222l36 181q-51 -56 -118 -102q-57 -39 -130.5 -70t-161.5 -31q-154 0 -216 101.5t-25 269.5l19 76q5 20 2.5 37t-26.5 17h-74z" />
<glyph unicode="&#xe0a;" horiz-adv-x="1038" d="M200 224.5q-2 70.5 12 144.5l26 120q20 102 78 180.5t106 126.5q20 20 47 51t32 52q5 29 -23 46t-79 17h-140l43 198h140q179 0 243.5 -73t39.5 -188q-13 -64 -50 -115.5t-84 -89.5q-22 -20 -68.5 -71.5t-63.5 -133.5l-29 -130q-20 -88 8 -139t126 -51q61 0 105.5 24.5 t75.5 63t50 83t26 85.5q29 136 4.5 216.5t-90.5 80.5l41 197q42 0 82.5 37.5t77 101t66 148t50.5 182.5h223q-36 -164 -90 -271.5t-107.5 -173t-94.5 -92.5t-52 -30q5 -2 34 -19.5t56 -64t39 -123t-12 -194.5q-20 -90 -63 -170.5t-108.5 -140.5t-155 -95.5t-203.5 -35.5 q-116 0 -182.5 33t-100 88t-35.5 125.5z" />
<glyph unicode="&#xe0b;" horiz-adv-x="1038" d="M199 224.5q-1 70.5 13 144.5l26 120q20 87 68 163t109 137q10 10 28 25.5t37 31.5t33.5 35.5t18.5 39.5q6 25 -11 41t-45 6q-15 -6 -34.5 -21.5t-36.5 -27.5q-20 -18 -41 -35q-18 22 -36 40q-16 15 -34 28t-35 13l41 193q22 0 43 -17t33 -37q15 -23 32 -52q28 29 58 52 q29 20 63.5 37t74.5 17q90 0 127 -68.5t17 -165.5q-18 -88 -67 -138.5t-97 -96.5l-27 -27t-36.5 -42.5t-35.5 -56.5t-24 -67l-31 -137q-20 -90 9.5 -139t136.5 -49q54 0 96 24.5t73 63.5t50 82t26 81q29 137 4.5 218.5t-90.5 81.5l41 197q44 0 84.5 37.5t76 101t65 148 t50.5 182.5h223q-36 -164 -90 -271.5t-106.5 -173t-93 -92.5t-50.5 -30q5 -2 32 -19.5t54 -62.5t39 -122t-12 -195q-18 -82 -58 -161.5t-104.5 -142t-152.5 -101.5t-198 -39q-125 0 -197 33t-105 88t-34 125.5z" />
<glyph unicode="&#xe0c;" horiz-adv-x="1837" d="M199 97.5q-11 41.5 3 110.5l72 332q10 49 27 85.5t29 65.5q15 31 34 54q-34 36 -62 64q-22 22 -43 41.5t-18 21.5q64 88 148 154q73 59 176.5 107.5t238.5 48.5q95 0 183 -24t152.5 -73t95 -121.5t9.5 -167.5l-100 -474q17 -36 46 -63q25 -25 68.5 -44.5t111.5 -19.5 q54 0 93 12.5t67.5 44.5t49 83t35.5 129l149 694h222l-164 -772q-14 -66 -47.5 -139t-86 -132t-121.5 -97t-157 -38q-98 0 -156.5 30.5t-88.5 68.5q-39 46 -51 102l-36 -181h-226l159 745q15 66 -1 112.5t-52.5 74.5t-89 40.5t-108.5 12.5q-74 0 -125 -17.5t-87 -38.5 q-42 -25 -67 -57l130 -127q-25 -20 -47 -49q-20 -25 -38 -65t-32 -91l-62 -291q-4 -20 -2 -34.5t22 -16.5h78l-41 -198h-110q-39 0 -77 6t-65 28t-38 63.5z" />
<glyph unicode="&#xe0d;" horiz-adv-x="1842" d="M200 208l71 332q10 49 25.5 85.5t31.5 65.5q17 31 36 54q-34 36 -62 64q-22 22 -43 41.5t-18 21.5q64 88 148 154q73 59 177.5 107.5t237.5 48.5q95 0 183 -24t152.5 -73t95 -121.5t9.5 -167.5l-84 -402q-22 -115 24.5 -157t136.5 -42q59 0 106.5 18.5t82.5 45.5 q41 29 75 63l176 836h225l-202 -970q-25 -126 -89 -222t-147.5 -161.5t-175.5 -100t-171 -34.5q-90 0 -154.5 24.5t-106.5 51.5q-49 34 -82 78l82 130q20 -36 56 -64q29 -25 76 -44.5t113 -19.5q61 0 122 23t111 65t84 105t47 145l2 17q-43 -59 -97 -105q-46 -38 -111 -69.5 t-148 -31.5q-97 0 -156 34.5t-88.5 93t-32 137t16.5 165.5l71 340q15 74 -5.5 121.5t-58.5 74.5t-88 35.5t-94 8.5q-74 0 -125 -17.5t-87 -38.5q-42 -25 -67 -57l128 -127q-23 -20 -45 -49q-20 -25 -38 -63.5t-32 -92.5l-64 -291q-5 -20 -5 -34.5t20 -16.5h83l-42 -198h-127 q-110 0 -145 55t-14 153z" />
<glyph unicode="&#xe0e;" horiz-adv-x="1171" d="M-12 -484l34 198q88 0 166 20t137 48q69 32 127 72q26 -36 60 -64q29 -25 66.5 -44.5t86.5 -19.5q83 0 113.5 37t49.5 117l183 865q15 66 -1 112.5t-53.5 74.5t-90 40.5t-108.5 12.5q-69 0 -120.5 -17.5t-87.5 -38.5q-41 -25 -69 -57l130 -127q-22 -17 -42 -46 q-18 -25 -36 -62.5t-32 -96.5l-71 -332q-25 -120 -87 -164t-164 -44h-120l41 195h76q20 3 24.5 16.5t9.5 34.5l64 294q10 49 27 85.5t29 65.5q15 31 34 54q-34 36 -62 64q-22 22 -43 41.5t-18 21.5q64 88 148 154q71 59 173.5 107.5t236.5 48.5q87 0 174 -24t154.5 -73 t102.5 -121.5t14 -167.5l-208 -984q-7 -31 -24.5 -80.5t-59 -96.5t-109 -83t-172.5 -36q-59 0 -107.5 21t-82.5 45q-41 29 -69 69q-61 -41 -128 -69q-59 -24 -136 -45t-160 -21z" />
<glyph unicode="&#xe0f;" horiz-adv-x="1171" d="M-12 -481l34 195q59 0 121 21t111 50q56 31 110 71l66 -117l120 133q0 -4 10.5 -30t29.5 -54.5t44.5 -51t61.5 -22.5q46 0 75.5 24t37.5 64l202 943q13 64 -2 110t-50 74.5t-86.5 42t-107.5 13.5q-74 0 -126.5 -17.5t-88.5 -38.5q-41 -25 -69 -57l137 -127 q-23 -17 -47 -46q-20 -25 -38 -62.5t-32 -96.5l-71 -332q-20 -98 -75 -153t-157 -55h-139l41 195h76q20 3 24.5 15t9.5 31l64 301q10 49 27 84.5t29 64.5q15 29 34 54q-34 36 -62 64q-22 22 -43 41.5t-18 21.5q64 88 148 154q73 59 177.5 107.5t242.5 48.5q92 0 179 -24 t151.5 -73t95 -121.5t9.5 -167.5l-205 -970q-5 -28 -22.5 -79.5t-57.5 -103t-106.5 -89.5t-171.5 -38q-41 0 -71.5 21t-54.5 48q-29 29 -47 70l-119 -119l-69 115q-59 -39 -120 -66q-51 -25 -110 -45.5t-102 -20.5z" />
<glyph unicode="&#xe10;" horiz-adv-x="1131" d="M-25 -535l35 197q79 0 138.5 24.5t100.5 52.5q46 33 81 80l64 -131l121 131q0 -3 10 -27t29.5 -53.5t45 -53t58.5 -23.5q43 0 61.5 24.5t22.5 44.5l37 159h222l-36 -166q-5 -25 -24.5 -69t-56 -86.5t-95.5 -73t-147 -30.5q-58 0 -90 20.5t-53 45.5q-23 29 -30 70 l-115 -113l-70 107q-42 -39 -89 -66q-44 -25 -99 -44.5t-121 -19.5zM244 942q46 67 117 120q61 44 159 82t238 38q56 0 109.5 -11t97.5 -30q56 18 102.5 58t61.5 110h222q-12 -51 -37.5 -96t-60 -79.5t-74.5 -59t-78 -35.5q79 -83 103.5 -201.5t-0.5 -233.5 q-32 -149 -100 -261.5t-160 -189.5t-200.5 -115t-223.5 -38h-124l-15 394q-5 20 -10 27t-26 7h-61l41 197h115q29 0 58.5 -5t52.5 -20.5t38 -43.5t17 -77l16 -281q57 0 113 33t105 88t85.5 129t54.5 156q22 110 2 183t-63.5 118t-100 62.5t-104.5 17.5q-105 0 -184.5 -37 t-135.5 -80q-66 -52 -113 -118z" />
<glyph unicode="&#xe11;" horiz-adv-x="1180" d="M120 0l61 300q29 139 85 240.5t114 177.5t103 127t52 90q5 20 -7.5 35t-36.5 15q-15 0 -35.5 -13.5t-40.5 -31.5q-23 -20 -49 -44q-10 23 -26 42q-12 14 -31.5 27t-44.5 13l38 192q23 0 43.5 -17t33.5 -37q15 -22 31 -51q31 29 61 51q29 20 62 37t68 17q57 0 98 -39 t23 -130q47 49 94 89q44 36 99 64t119 28q71 0 120.5 -39t75 -100t30.5 -133t-11 -140l-164 -770h-223l147 694q15 76 15 127t-14 84t-37 45t-52 12q-63 0 -123 -34t-113 -89t-98 -123t-79 -134.5t-57 -126t-31 -94.5q-2 -7 -5 -19q-5 -20 -5 -22l-68 -320h-222z" />
<glyph unicode="&#xe12;" horiz-adv-x="1832" d="M159 336q-10 114 20 255q33 151 84.5 262.5t115 184.5t133 107.5t136.5 34.5q24 0 50.5 -24.5t46.5 -51.5q25 -34 49 -78q38 44 76 78q34 28 68 53t63 25q67 0 119 -31.5t85.5 -84t45 -117.5t-4.5 -133l-105 -494q20 -38 51 -66q29 -25 69.5 -44.5t106.5 -19.5 q56 0 94 14t66 44.5t49 83t35 130.5l147 694h225l-164 -772q-15 -66 -45.5 -139t-80.5 -133t-118 -98t-155 -38q-97 0 -156 31.5t-95 72.5q-41 47 -59 106l-39 -188h-222l171 816q15 74 -12 121.5t-69 47.5q-20 0 -51 -25t-61 -56q-37 -36 -76 -83q-20 47 -43 83 q-20 31 -40.5 56t-40.5 25t-48 -15t-58.5 -57.5t-61 -119.5t-55.5 -202q-15 -69 -20.5 -143t7.5 -136.5t52.5 -102.5t116.5 -40q29 0 54 6t45 15q25 10 46 22l-41 -194q-17 -10 -40 -20q-20 -8 -47.5 -14t-59.5 -6q-106 0 -184 43t-121.5 122t-53.5 193z" />
<glyph unicode="&#xe13;" horiz-adv-x="1835" d="M200 97.5q-12 41.5 2 110.5l72 332q10 49 27 85.5t29 65.5q15 31 34 54q-34 36 -62 64q-22 22 -43 41.5t-18 21.5q64 88 148 154q71 59 171 106.5t231 49.5q88 0 177.5 -21.5t158 -67t105 -119t12.5 -178.5l-72 -332q-14 -76 -17 -128t12 -84t53 -44.5t99 -12.5 q56 0 104.5 18.5t84.5 45.5q43 29 77 63l176 836h225l-245 -1158h-223l36 181q-42 -56 -98 -102q-48 -39 -118 -70t-168 -31q-92 0 -147 38t-79.5 98t-26 133t13.5 139l78 359q15 71 -4.5 118.5t-59 74.5t-92 37t-101.5 10q-68 0 -119.5 -17.5t-84.5 -38.5q-42 -25 -67 -57 l128 -127q-23 -20 -45 -49q-20 -25 -38 -65t-32 -91l-64 -291q-5 -20 -2.5 -34.5t22.5 -16.5h78l-42 -198h-102q-39 0 -77 6t-66.5 28t-40.5 63.5z" />
<glyph unicode="&#xe14;" horiz-adv-x="1166" d="M160 343q-9 113 19 248q33 154 102.5 265.5t159 184.5t189.5 107t198 34q100 0 184 -24t141.5 -73t83 -121.5t4.5 -167.5l-169 -796h-222l161 772q13 62 -2 102t-50 65.5t-81 35.5t-94 10q-44 0 -99 -18.5t-109 -65t-101 -122t-70 -188.5q-15 -73 -22 -149t9 -136 t55 -98.5t114 -38.5q37 0 62 6t46 15q22 10 37 22l-37 -194q-18 -10 -41 -20q-20 -8 -50 -14t-66 -6q-107 0 -182.5 45.5t-118 126t-51.5 193.5z" />
<glyph unicode="&#xe15;" horiz-adv-x="1166" d="M158.5 345.5q-7.5 113.5 20.5 245.5q33 151 84.5 262.5t115 184.5t133 107.5t136.5 34.5q28 0 55 -24.5t47 -51.5q22 -34 44 -78q36 44 71 78q31 28 67 53t69 25q61 0 114 -31.5t86 -84t47 -117.5t-2 -133l-174 -816h-222l171 816q15 76 -17 122.5t-66 46.5 q-18 0 -49 -25t-61 -56q-37 -36 -76 -83q-20 47 -43 83q-20 31 -40.5 56t-40.5 25t-48 -15t-58.5 -58.5t-62 -120.5t-57.5 -202q-41 -193 -5.5 -306.5t164.5 -113.5q29 0 54 6t45 15q25 10 46 22l-41 -194q-17 -10 -43 -20q-20 -8 -51 -14t-67 -6q-105 0 -179 45.5 t-116.5 127t-50 195z" />
<glyph unicode="&#xe16;" horiz-adv-x="1171" d="M202 208l72 332q10 49 27 85.5t29 65.5q15 31 34 54q-34 36 -62 64q-22 22 -43 41.5t-18 21.5q67 88 150 154q74 59 177 107.5t236 48.5q95 0 183 -24t152.5 -73t95 -121.5t9.5 -167.5l-130 -615q-8 -36 -35 -67.5t-55 -57.5q-34 -28 -76 -56h-96l159 745q15 69 -1 115 t-52.5 74t-89 39.5t-108.5 11.5q-74 0 -125 -17.5t-87 -38.5q-42 -25 -67 -57l130 -127q-25 -20 -47 -49q-20 -25 -38 -65t-32 -91l-62 -289q-4 -20 -4 -35.5t20 -15.5l82 -2l-41 -198h-154q-76 0 -116 50t-17 158z" />
<glyph unicode="&#xe17;" horiz-adv-x="1153" d="M95 0l243 1158h226l-39 -183q44 56 105 103q51 38 126.5 71t172.5 33q87 0 149.5 -36.5t100 -95.5t49 -132t-3.5 -148l-164 -770h-222l144 694q13 56 13.5 106t-18.5 85.5t-64 56t-122 20.5q-59 0 -112.5 -20.5t-94.5 -45.5q-46 -28 -90 -66l-176 -830h-223z" />
<glyph unicode="&#xe18;" horiz-adv-x="1077" d="M154 361q10 44 13.5 71t8.5 39q3 15 5 23h229q0 -8 -5 -25q-5 -15 -10.5 -41t-13.5 -67q-15 -71 1.5 -111t51.5 -58t75.5 -20.5t76.5 -2.5q49 0 96.5 13t85.5 36t66 56.5t36 76.5q15 71 -7.5 114t-70 65t-111 33t-132 19.5t-131 23t-108.5 45t-67 82t-2 137.5 q18 88 74 148t134.5 97t170 53.5t181.5 16.5q93 0 170 -18.5t133 -40.5q66 -25 120 -56l-44 -205q-46 34 -110 61q-54 23 -133 43t-177 20q-39 0 -85.5 -2t-90.5 -13.5t-77 -35.5t-43 -68q-10 -54 39 -72.5t130 -29t174.5 -23.5t168 -53t112.5 -120.5t8 -222.5 q-15 -67 -55 -133.5t-108 -119t-161 -85.5t-214 -33q-67 0 -148.5 10t-148 48t-101.5 115t-6 210z" />
<glyph unicode="&#xe19;" horiz-adv-x="1153" d="M169 239q-10 73 5 147l161 758h226l-149 -694q-14 -76 -4 -126t36.5 -78t66 -39.5t83.5 -11.5q64 0 120 20t100 46q48 29 92 67l174 816h222l-242 -1144h-222l34 181q-48 -56 -110 -102q-53 -39 -127 -70t-171 -31q-88 0 -149 36.5t-98.5 94t-47.5 130.5z" />
<glyph unicode="&#xe1a;" horiz-adv-x="1128" d="M170 254.5q-6 75.5 9 150.5l159 753h226l-162 -764q-20 -88 13 -156.5t117 -68.5h108q98 0 165 69.5t89 155.5l164 766h222l-161 -755q-15 -74 -55 -150t-101.5 -137.5t-142 -100.5t-175.5 -39h-179q-100 0 -162.5 39t-95 100.5t-38.5 137z" />
<glyph unicode="&#xe1b;" horiz-adv-x="1128" d="M170 254.5q-6 75.5 9 150.5l159 753h226l-162 -764q-10 -44 -6.5 -84.5t21.5 -71t48.5 -50t74.5 -19.5h108q46 0 87 19.5t73 50t54 71.5t32 84l232 1096h225l-232 -1085q-15 -74 -56.5 -150t-102.5 -137.5t-143 -100.5t-185 -39h-180q-92 0 -151.5 39t-92 100.5 t-38.5 137z" />
<glyph unicode="&#xe1c;" horiz-adv-x="1351" d="M241 538.5q0 157.5 35 331.5q25 122 94.5 205t177.5 83h136l-44 -198h-82q-34 0 -46.5 -32t-17.5 -60q-20 -116 -26.5 -207.5t-1.5 -161.5q3 -83 15 -145l289 467h108l92 -467q44 56 92 164q44 90 99 244t117 396l224 2q-71 -279 -155.5 -494.5t-158.5 -363.5 q-88 -173 -177 -302h-149l-104 489l-310 -489h-146q-33 120 -48 261q-13 120 -13 277.5z" />
<glyph unicode="&#xe1d;" horiz-adv-x="1348" d="M240 541q1 155 36 329q25 120 92 204t174 84h139l-41 -198h-85q-31 0 -45 -30.5t-19 -61.5q-25 -116 -30 -210t0 -162q5 -82 20 -142l289 467h108l90 -467q56 87 120 245q53 132 120 352.5t138 550.5h225q-82 -386 -179 -666.5t-181 -466.5q-100 -218 -200 -369h-149 l-104 489l-310 -489h-148q-34 122 -49 264q-12 122 -11 277z" />
<glyph unicode="&#xe1e;" horiz-adv-x="1427" d="M261 1158h220l57 -748l348 748h143l31 -748l376 748h218l-576 -1158h-174l-34 745l-348 -745h-171z" />
<glyph unicode="&#xe1f;" horiz-adv-x="1525" d="M261 1158h220l57 -748l348 748h145l29 -748l548 1092h220l-750 -1502h-174l-36 732l-343 -732h-174z" />
<glyph unicode="&#xe20;" horiz-adv-x="1171" d="M59 -2l41 200h76q20 2 26 16t10 35l62 291q10 49 27 85.5t29 65.5q15 31 34 54q-34 36 -62 64q-22 22 -43 41.5t-18 21.5q64 88 148 154q71 59 172 107.5t233 48.5q102 0 193 -24t155 -73t93.5 -121.5t8.5 -167.5l-130 -615q-8 -36 -35 -67.5t-55 -57.5q-34 -28 -74 -56 h-98l159 745q15 69 -2.5 116.5t-56 74t-92.5 38t-110 11.5q-61 0 -111 -17.5t-87 -38.5q-41 -25 -71 -57l130 -127q-22 -17 -42 -46q-18 -25 -36 -62.5t-32 -96.5l-71 -332q-20 -98 -83 -153t-139 -55z" />
<glyph unicode="&#xe21;" horiz-adv-x="1153" d="M95 0l243 1158h226l-173 -804q29 -39 65 -68q32 -25 73.5 -44.5t95.5 -19.5q149 0 217.5 67t95.5 190l142 679h225l-164 -772q-12 -64 -51.5 -135.5t-101.5 -133t-141 -100.5t-171 -39q-97 0 -158.5 31.5t-97.5 69.5q-44 46 -64 102l-38 -181h-223z" />
<glyph unicode="&#xe22;" horiz-adv-x="1090" d="M121 208q-9 67 7 141q20 90 75.5 149.5t116.5 95.5q69 41 156 61q-68 13 -117 44q-44 29 -74.5 75.5t-13.5 124.5q15 71 52.5 125t86.5 90t102.5 53.5t102.5 17.5q51 0 90.5 -6.5t66.5 -13.5q32 -10 58 -21l-44 -204q-25 12 -54 22q-22 8 -53 15.5t-61 7.5 q-37 0 -75.5 -21.5t-48.5 -64.5q-15 -83 56.5 -115t194.5 -32l-41 -197q-83 0 -145.5 -18.5t-105.5 -49.5t-67.5 -68.5t-31.5 -69.5q-20 -95 30.5 -136.5t160.5 -41.5q130 0 211.5 68.5t98.5 154.5l161 764h225l-161 -753q-15 -74 -57.5 -151.5t-111.5 -138.5t-170 -99 t-237 -38q-128 0 -208.5 30.5t-123 81.5t-51.5 118z" />
<glyph unicode="&#xe23;" horiz-adv-x="975" d="M110 74l39 187q43 -25 95 -46q44 -17 104 -31.5t126 -14.5q220 0 256 180q12 61 -22 93t-92 52.5t-127 39t-124 56.5t-83 103t-3 179q15 67 57.5 125t107 98.5t140.5 63.5t161 23q83 0 141.5 -15t95.5 -36q47 -22 78 -51l-46 -205q-29 29 -72 54q-36 20 -96 38t-145 18 q-76 0 -131 -30.5t-69 -89.5q-12 -54 24 -83.5t95 -51t126.5 -43.5t121 -61.5t82 -104.5t5.5 -172q-13 -61 -43.5 -128t-88.5 -121t-148.5 -88t-222.5 -34q-84 0 -147.5 13.5t-106.5 33.5q-52 20 -88 49z" />
<glyph unicode="&#xe24;" horiz-adv-x="1171" d="M202 208l72 332q10 49 27 85.5t29 65.5q15 31 34 54q-34 36 -62 64q-22 22 -43 41.5t-18 21.5q67 88 150 154q74 59 176 107.5t232 48.5q97 0 186.5 -24t154 -73t95 -121.5t9.5 -167.5l-243 -1150q-7 -36 -34 -67t-56 -58q-33 -29 -76 -56h-97l273 1280q15 71 -2.5 118.5 t-56 74.5t-92.5 37t-110 10q-66 0 -115 -17.5t-85 -38.5q-41 -25 -69 -57l128 -127q-23 -20 -45 -49q-20 -25 -38 -65t-32 -91l-62 -289q-4 -20 -4 -35.5t20 -15.5l82 -2l-41 -198h-138q-90 0 -131 50t-18 158z" />
<glyph unicode="&#xe25;" horiz-adv-x="1063" d="M120 310q20 95 78 163.5t134 113.5t161.5 66t161.5 21q87 0 136 5t71 10q29 7 34 17l10 54q23 105 -22.5 165t-167.5 60q-87 0 -159.5 -33t-124.5 -74q-63 -47 -112 -108l-39 195q51 61 124 107q61 42 150.5 76t204.5 34q122 0 202 -33t123.5 -93t53 -146t-14.5 -191 l-154 -719h-222l107 515q-15 -10 -46 -19q-29 -7 -74.5 -12t-123.5 -5q-36 0 -79 -9t-81.5 -29.5t-66.5 -52.5t-39 -78q-15 -66 25 -103.5t116 -37.5q56 0 105 19q25 10 47 20l-42 -203q-17 -7 -44 -15q-20 -5 -50.5 -10t-71.5 -5q-174 0 -259.5 85.5t-50.5 249.5z" />
<glyph unicode="&#xe26;" horiz-adv-x="1171" d="M59 0l41 198h76q20 2 26 16t10 35l62 291q10 49 27 85.5t29 65.5q15 31 34 54q-34 36 -62 64q-22 22 -43 41.5t-18 21.5q61 88 145 154q72 59 177.5 107.5t242.5 48.5q88 0 175 -24t152 -73t98.5 -121.5t12.5 -167.5l-243 -1150q-7 -36 -34 -67t-56 -58q-33 -29 -76 -56 h-97l273 1280q13 61 -1 107.5t-49 76t-86 43t-107 13.5q-74 0 -126.5 -17.5t-89.5 -38.5q-43 -25 -71 -57l130 -127q-22 -17 -42 -46q-18 -25 -36 -62.5t-32 -96.5l-71 -332q-20 -98 -80.5 -153t-147.5 -55h-143z" />
<glyph unicode="&#xe27;" horiz-adv-x="1056" d="M82 130l123 200q25 -46 66 -81q37 -31 92 -55.5t131 -24.5q56 0 118 25.5t119.5 78t102 129.5t65.5 177q20 100 7.5 172.5t-47.5 120t-87.5 69t-109.5 21.5q-76 0 -141 -20.5t-111 -42.5q-56 -29 -100 -64l-39 191q44 44 110 78q54 28 134.5 53t188.5 25q115 0 206 -41.5 t148.5 -120t75.5 -191.5t-13 -250q-31 -139 -96 -250t-153 -189.5t-195.5 -120t-224.5 -41.5q-107 0 -177 23.5t-114 52.5q-51 34 -79 76z" />
<glyph unicode="&#xe28;" horiz-adv-x="1180" d="M95 0l166 796q18 93 76.5 164t139.5 121t173 75.5t180 25.5q44 0 89.5 -5t81.5 -17q57 20 92.5 54.5t47.5 94.5h224q-20 -85 -72 -151t-118 -93q59 -49 77 -124.5t3 -144.5l-170 -796h-223l167 796q17 90 -55.5 141.5t-187.5 51.5t-200 -57t-102 -136l-52 -246 q47 34 96 61q43 23 98 44t116 21l-46 -220q-71 0 -126 -17t-96 -37q-46 -24 -85 -53l-71 -349h-223z" />
<glyph unicode="&#xe29;" horiz-adv-x="1128" d="M170 238q-9 77 9 167l159 753h226l-162 -756q-20 -92 14 -162.5t126 -70.5h108q98 0 159 68t82 154l30 139h-230l37 164h230l97 464h225l-100 -464h78l-34 -164h-80l-28 -125q-20 -93 -63.5 -171t-105 -135.5t-138.5 -89t-164 -31.5h-179q-87 0 -149.5 33t-100 91.5 t-46.5 135.5z" />
<glyph unicode="&#xe2a;" horiz-adv-x="1077" d="M120 310q20 95 74.5 163.5t125.5 112.5t153 64.5t159 20.5q88 0 140 5t80 13q34 7 49 17l10 54q20 105 -26.5 165t-162.5 60q-87 0 -160 -33t-127 -74q-64 -47 -113 -108l-36 198q52 61 124 107q61 41 150.5 74t204.5 33q76 0 136 -14q64 22 93.5 56t41.5 85h226 q-17 -77 -72.5 -131t-131.5 -88q58 -54 77.5 -149.5t-6.5 -221.5l-154 -719h-225l108 515q-20 -10 -57 -19q-31 -7 -81.5 -12t-128.5 -5q-36 0 -74 -13.5t-72.5 -34.5t-61.5 -51.5t-34 -69.5q-15 -66 25.5 -103.5t116.5 -37.5q29 0 57 6t48 15q25 10 46 20l-41 -205 q-22 -7 -49 -15q-20 -5 -48 -10t-56 -5q-174 0 -268.5 83t-59.5 252z" />
<glyph unicode="&#xe2b;" horiz-adv-x="1075" d="M95 0l243 1158h226l-93 -433l528 433h301l-486 -398q48 -10 106 -34.5t101.5 -72t64 -125.5t-5.5 -193l-71 -335h-225l61 300q17 92 3.5 156t-46 103.5t-70.5 59t-63 23.5l-261 -217l-90 -425h-223z" />
<glyph unicode="&#xe2c;" horiz-adv-x="1525" d="M266 1158h218l56 -748l351 748h143l31 -748l274 540q17 31 23 61q10 49 -5.5 84.5t-37.5 62.5q-29 28 -68 48q88 29 161 72q64 36 121 92t75 132h222q-20 -97 -77.5 -153.5t-121.5 -88.5q-73 -39 -161 -54q36 -15 64 -41q22 -20 39 -55t9 -84q-4 -36 -25 -74t-26 -51 l-449 -901h-173l-39 732l-340 -732h-174z" />
<glyph unicode="&#xe2d;" horiz-adv-x="1158" d="M147 242q-19 83 2 183q22 107 72 153.5t128 46.5h271l-41 -197l-161 2q-20 0 -33.5 -9t-15.5 -30q-5 -102 55 -162t175 -60q315 0 402 410q20 97 12.5 173t-39.5 127.5t-84 78.5t-120 27q-90 0 -152.5 -33t-102.5 -74q-46 -47 -80 -108h-217q43 115 124 205 q69 76 183.5 141.5t288.5 65.5q154 0 245 -57t134 -145.5t47 -196t-16 -204.5q-32 -149 -98 -261.5t-154 -188t-194.5 -113.5t-222.5 -38q-113 0 -197 31.5t-138 90.5t-73 142z" />
<glyph unicode="&#xe2e;" horiz-adv-x="1158" d="M147 242q-19 83 2 183q17 85 61 142.5t135 57.5h275l-41 -197h-161q-42 0 -49 -39q-8 -98 52 -159t178 -61q315 0 402 410q44 197 -25.5 303.5t-207.5 106.5q-90 0 -151.5 -34t-101.5 -74q-46 -46 -80 -109h-217q43 116 124 206q34 38 80.5 75t104 66t128 46t156.5 17 q41 0 85 -3.5t86 -20.5q54 14 94 51t53 100h212q-20 -90 -84.5 -154.5t-130.5 -86.5q90 -90 107.5 -222t-9.5 -267q-32 -149 -98 -261.5t-154 -188t-194.5 -113.5t-222.5 -38q-113 0 -197 31.5t-138 90.5t-73 142z" />
<glyph unicode="&#xe2f;" horiz-adv-x="1070" d="M300 1158h222q3 -54 8 -96.5t23 -72t50 -45t86 -15.5q92 0 177.5 58t137.5 171h217l-161 -753q-25 -115 -61.5 -194t-86.5 -124.5t-115 -66t-145 -20.5l42 198q25 0 45.5 2t36 23t29.5 64t33 125l97 446q-36 -37 -83 -64q-41 -23 -97 -42.5t-127 -19.5q-98 0 -162 34.5 t-102.5 93.5t-53.5 135.5t-10 162.5z" />
<glyph unicode="&#xe30;" horiz-adv-x="736" d="M174 386l26 113h212l-21 -91q-7 -34 11 -48.5t84 -14.5h228l-123 -191h-212q-259 0 -205 232zM295 950l23 105h212l-20 -93q-8 -33 10 -47t84 -14h228l-121 -192h-220q-139 0 -180.5 61.5t-15.5 179.5z" />
<glyph unicode="&#xe31;" d="M-329 1466.5q-9 45.5 7 115.5l22 108h215l-20 -90q-7 -34 11 -47.5t84 -13.5h462l-120 -190h-454q-54 0 -98 10.5t-72 36t-37 71z" />
<glyph unicode="&#xe32;" horiz-adv-x="936" d="M238 865l43 197q44 32 98 59q43 23 104.5 42t134.5 19q90 0 170 -28t135 -83t78 -137t0 -189l-159 -745h-222l150 719q15 71 1.5 123t-44.5 84t-76 45.5t-90 13.5q-59 0 -117 -18.5t-104 -42.5q-54 -29 -102 -59z" />
<glyph unicode="&#xe33;" horiz-adv-x="936" d="M-228 1585q10 49 38.5 92t66.5 75t84.5 51t92.5 19q48 0 87.5 -19t65 -51t35 -75t-0.5 -92t-38.5 -91.5t-66.5 -74t-84.5 -51t-95.5 -19.5q-97 0 -150.5 69.5t-33.5 166.5zM-71 1585q-8 -34 8.5 -55.5t50.5 -21.5q28 0 54.5 21.5t33.5 55.5q5 31 -12.5 53.5t-48.5 22.5 q-29 0 -55 -22.5t-31 -53.5zM238 865l43 197q44 32 98 59q43 23 104.5 42t134.5 19q90 0 170 -28t135 -83t78 -137t0 -189l-159 -745h-222l150 719q15 71 1.5 123t-44.5 84t-76 45.5t-90 13.5q-59 0 -117 -18.5t-104 -42.5q-54 -29 -102 -59z" />
<glyph unicode="&#xe34;" d="M-665 1349l120 185h716l-39 -185h-797z" />
<glyph unicode="&#xe35;" d="M-665 1349l120 192h499l31 149h220l-73 -341h-797z" />
<glyph unicode="&#xe36;" d="M-665 1349l120 192h325q2 10 5 19t5 20q25 71 92 116t133 45q49 0 83 -18t53.5 -46t24.5 -63.5t-2 -72.5q-8 -43 -35 -79t-61 -60t-71.5 -38.5t-70.5 -14.5h-601zM-59 1544q-5 -15 4 -27t24 -12t27 12t16 27q3 15 -5.5 26.5t-21.5 11.5t-27 -11.5t-17 -26.5z" />
<glyph unicode="&#xe37;" d="M-665 1349l120 192h294l33 149h162l-32 -149h78l25 149h190l-73 -341h-797z" />
<glyph unicode="&#xe38;" d="M-525 -381l41 191h128q102 0 151 -54t29 -155l-44 -207h-225l35 164q5 22 -6.5 41.5t-35.5 19.5h-73z" />
<glyph unicode="&#xe39;" d="M-858 -384l42 194h142q83 0 136.5 -48t36.5 -131q-10 -41 -1.5 -56t36.5 -15t44.5 15t27.5 56l38 179h226l-49 -220q-7 -36 -25 -75.5t-56 -72.5t-99 -53.5t-156 -20.5q-74 0 -121.5 15.5t-73 41t-32 60t1.5 70.5q5 23 -6.5 42t-37.5 19h-74z" />
<glyph unicode="&#xe3a;" d="M-402 -402l46 212h226l-46 -212h-226z" />
<glyph unicode="&#xe3f;" horiz-adv-x="1051" d="M95 0l276 1314h247l44 212h219l-49 -221q149 -15 216.5 -105.5t41.5 -210.5q-20 -100 -93 -183.5t-183 -111.5q58 -10 106 -36t78.5 -64.5t41.5 -91t-1 -116.5q-15 -76 -59.5 -143t-110 -118t-146.5 -83t-168 -40l-45 -214h-215l45 212h-245zM359 195h159 q130 0 205.5 61.5t90.5 129.5q20 85 -33 146.5t-207 61.5h-132zM484 791h115q36 0 76.5 7.5t78 27t67 52.5t39.5 84q10 42 -2.5 71t-38 48.5t-61.5 27t-74 7.5h-132z" />
<glyph unicode="&#xe40;" horiz-adv-x="475" d="M129 109q-7 40 7 99l202 950h226l-195 -909q-5 -20 -5 -34.5t20 -16.5h77l-41 -198h-139q-39 0 -70.5 10t-53 34.5t-28.5 64.5z" />
<glyph unicode="&#xe41;" horiz-adv-x="948" d="M136 208l202 950h226l-195 -909q-5 -20 -5 -34.5t20 -16.5h77l-41 -198h-149q-76 0 -117.5 50t-17.5 158zM609 208l202 950h225l-194 -909q-4 -20 -4 -34.5t20 -16.5h77l-41 -198h-149q-76 0 -117.5 50t-18.5 158z" />
<glyph unicode="&#xe42;" horiz-adv-x="611" d="M271 208l185 860q18 78 21.5 139t3.5 106.5v83t8 73.5q25 115 134 182.5t298 67.5h308l-44 -194h-196q-137 0 -203.5 -17t-76.5 -63q-8 -31 -6.5 -64t1.5 -75t-4 -100.5t-21 -138.5l-175 -822q-5 -20 -5 -34t21 -17h76l-41 -195h-150q-76 0 -115 55t-19 153z" />
<glyph unicode="&#xe43;" horiz-adv-x="780" d="M332 1569q42 49 93 87q44 34 104 62t133 28q77 0 142.5 -20.5t108 -64t57.5 -111.5t-5 -162q-13 -59 -28.5 -93.5t-33 -72t-35.5 -86t-36 -132.5l-158 -750q-5 -20 -5 -34.5t20 -17.5h76l-40 -202h-146q-85 0 -122 55t-17 153l169 796q15 76 34 130t38.5 97.5t35 80.5 t23.5 76q12 66 -13.5 113.5t-108.5 47.5q-52 0 -95.5 -27t-80.5 -58q-41 -39 -73 -84z" />
<glyph unicode="&#xe44;" horiz-adv-x="816" d="M322 1526l42 194q44 0 79.5 -17.5t61 -40.5t41 -43.5t20.5 -26.5q29 37 62 64q28 23 70 43.5t98 20.5q69 0 106.5 -33t51.5 -88t9 -124.5t-21 -140.5l-233 -1085q-5 -20 -5 -34.5t21 -16.5h76l-41 -198h-140q-90 0 -127 55t-17 153l240 1126q5 25 14.5 60t10.5 66.5 t-9 51t-41 14.5q-22 -5 -49 -31.5t-51 -55.5q-29 -37 -56 -77q-15 47 -44 82q-25 31 -66 56.5t-103 25.5z" />
<glyph unicode="&#xe45;" horiz-adv-x="936" d="M238 865l43 197q44 32 98 59q46 23 108.5 42t140.5 19q87 0 164.5 -28t131.5 -83t77 -137t0 -189l-236 -1099q-7 -36 -34 -67t-55 -58q-34 -29 -77 -56h-95l266 1254q15 76 0 128t-47 82.5t-77 43t-85 12.5q-59 0 -117 -18.5t-104 -42.5q-54 -29 -102 -59z" />
<glyph unicode="&#xe46;" horiz-adv-x="1090" d="M233.5 667.5q-21.5 67.5 1.5 180.5q15 66 49 127t82.5 107.5t107 73t122.5 26.5q29 0 56 -25.5t47 -52.5q22 -34 43 -78q39 44 79 78q34 28 72 53t67 25q71 0 118.5 -30.5t73.5 -79t31 -108.5t-8 -116l-256 -1202q-8 -36 -34.5 -67t-54.5 -58q-34 -29 -78 -56h-94 l282 1331q41 190 -51 189q-15 0 -47.5 -28t-65.5 -61q-38 -41 -80 -90q-22 49 -46 90q-20 34 -39.5 61.5t-34.5 27.5q-28 0 -64 -30.5t-53 -106.5q-10 -47 -4 -78.5t19 -53.5q12 -25 34 -37l-114 -183q-62 18 -103 65q-36 39 -57.5 106.5z" />
<glyph unicode="&#xe47;" d="M-586 1464q-10 38 2 92q15 66 47.5 111t75.5 72t93 40t99 13l205 3q56 0 104 18.5t82 42.5q42 29 76 59l-44 -205q-29 -15 -66 -25q-34 -10 -79 -18t-101 -8h-179q-77 0 -109 -33.5t-40 -69.5q-5 -22 8 -49t51 -27q31 0 54 14t38 35q18 20 31 49h59q0 -29 5 -49t15 -34.5 t31 -14.5q39 0 63 30.5t34 67.5h156q-10 -44 -33 -85.5t-56.5 -73t-75.5 -51t-90 -19.5q-29 0 -50.5 11.5t-34.5 27.5q-15 17 -29 41q-20 -23 -47 -41q-23 -16 -54 -27.5t-70 -11.5t-74.5 13t-61 38.5t-35.5 63.5z" />
<glyph unicode="&#xe48;" d="M-31 1349l70 341h222l-71 -341h-221z" />
<glyph unicode="&#xe49;" d="M-405 1498l41 192h236q39 0 64 -29.5t18 -68.5q-5 -20 6 -36.5t32 -14.5l384 -2l-117 -190h-435q-49 0 -81 24.5t-22 72.5q8 34 -5.5 43t-27.5 9h-93z" />
<glyph unicode="&#xe4a;" d="M-525 1426.5q-5 24.5 3 53.5q10 49 36.5 88.5t64 66t78.5 41t79 14.5q29 0 46.5 -13t29.5 -28q14 -19 22 -41q15 22 36 41q18 15 42 28t52 13q66 0 113.5 -39t34.5 -87q-4 -20 3 -22.5t21 -2.5h240l-117 -190h-223q-36 0 -55.5 13t-29.5 33.5t-10 42t5 42.5q5 29 -1 52.5 t-33 23.5q-33 0 -49.5 -24t-21.5 -52h-69q6 25 3 50.5t-41 25.5q-20 0 -42 -24t-27 -52q-7 -29 0 -53.5t20 -41.5q13 -20 36 -36h-205q-15 15 -26 36q-10 17 -15 41.5z" />
<glyph unicode="&#xe4b;" d="M-141 1424l41 191h122l17 75h222l-15 -78h128l-42 -188h-127l-15 -75h-221l16 75h-126z" />
<glyph unicode="&#xe4c;" d="M-308 1349l19 82q10 47 39.5 93.5t71.5 83t93 59.5t105 23h185l-120 -192h-46q-51 0 -78 -28.5t-35 -77.5l-8 -43h-226z" />
<glyph unicode="&#xe4d;" d="M-228 1582q10 49 38.5 92.5t66.5 76.5t84.5 51t92.5 18q48 0 87.5 -18t65 -51t35 -76.5t-0.5 -92.5q-10 -48 -38.5 -90.5t-66.5 -74.5t-84.5 -50t-95.5 -18q-97 0 -150.5 68t-33.5 165zM-71 1582q-8 -33 8.5 -55t50.5 -22q28 0 54.5 22t33.5 55q5 32 -12.5 54.5 t-48.5 22.5q-29 0 -55 -22.5t-31 -54.5z" />
<glyph unicode="&#xe4e;" d="M-347 1398.5q-9 32.5 2 76.5q10 56 42 98t72.5 69t88 40t93.5 13q18 83 104 121t209 38l-23 -118q-39 0 -72 -8t-61.5 -31t-50 -65t-37.5 -108q-51 0 -99.5 -19.5t-61.5 -78.5q-5 -20 -1.5 -34t10.5 -24t14 -19h-210q-10 17 -19 49.5z" />
<glyph unicode="&#xe4f;" horiz-adv-x="1215" d="M194.5 288q-20.5 93 3.5 201q22 107 81 201t144 162.5t186.5 108.5t209.5 40q107 0 193.5 -40t140 -108.5t73.5 -162.5t-2 -201q-23 -108 -83.5 -201t-145 -162.5t-187 -108.5t-209.5 -39q-105 0 -189.5 39t-139.5 108.5t-75.5 162.5zM366 357.5q15 -62.5 50.5 -110 t94 -74.5t127.5 -27q71 0 139 27t124.5 74.5t95.5 110t55 131.5q16 71 1.5 134t-50 109.5t-92 73t-127.5 26.5q-69 0 -138.5 -26.5t-125.5 -73t-97.5 -109t-56.5 -134.5q-15 -69 0 -131.5zM476 489q10 49 38 91t67 74t84.5 50t94.5 18q98 0 150 -68t32 -165q-10 -49 -37 -91 t-65.5 -74.5t-84.5 -50t-95 -17.5q-98 0 -151 67.5t-33 165.5z" />
<glyph unicode="&#xe50;" horiz-adv-x="1156" d="M156 285.5q-20 93.5 3 200.5q22 108 82.5 201.5t147.5 163.5t189.5 111.5t210.5 41.5q107 0 193 -41.5t142 -111.5t79 -163.5t1 -201.5q-23 -107 -86 -200.5t-151.5 -162.5t-193 -108.5t-212.5 -39.5q-105 0 -190 39.5t-140 108.5t-75 162.5zM377.5 363.5 q11.5 -58.5 42 -102t80.5 -69.5t111 -26t122 26t111 69.5t85.5 102t50.5 125.5q15 66 3.5 124t-43 101.5t-80.5 69t-110 25.5t-122.5 -25.5t-111.5 -69t-86 -101.5t-49 -124q-15 -67 -3.5 -125.5z" />
<glyph unicode="&#xe51;" horiz-adv-x="1153" d="M174 412q-18 72 2 169q18 83 72 158t135 133.5t181.5 95t207.5 36.5q113 0 203 -39t147.5 -109t78 -172.5t-8.5 -233.5q-31 -141 -112 -244.5t-186 -170t-219 -100t-206 -33.5h-49t-49 3l95 187h10q64 0 142 23.5t150 69t127 112.5t75 153q18 90 8 157t-43.5 111t-86 66 t-116.5 22q-76 0 -134 -24t-100 -58.5t-65 -73.5t-31 -69q-20 -90 10 -137.5t67 -47.5q43 0 61 27t29 71l10 48h225l-18 -81q-7 -33 -27.5 -78t-62 -86t-104 -69t-154.5 -28q-54 0 -109 23t-96 70t-59 119z" />
<glyph unicode="&#xe52;" horiz-adv-x="1422" d="M298 1319l40 193h38q95 0 157.5 -40.5t99 -101.5t45 -130.5t-1.5 -125.5l-154 -728q-12 -64 -3 -106t32 -66t53.5 -34.5t57.5 -10.5h337q33 0 67.5 10.5t65 31.5t54 57.5t33.5 87.5l56 272q7 33 11 71.5t0 71.5t-20.5 55t-49.5 22q-25 0 -50 -16t-45 -36q-25 -22 -46 -51 q-7 29 -20 51q-13 20 -29.5 36t-40.5 16q-44 0 -75.5 -34.5t-41.5 -78.5q-10 -49 8 -76t48.5 -40t68.5 -15.5t67 -2.5l-41 -193q-71 0 -142 8.5t-122 40.5t-73 97.5t2 180.5q7 34 30.5 80.5t60 89.5t88 73.5t117.5 30.5q39 0 63.5 -17t38.5 -37q18 -23 29 -51q25 28 54 51 q25 20 60 37t73 17q76 0 123 -37t68 -92.5t22 -123t-11 -128.5l-59 -277q-20 -95 -66 -165.5t-108.5 -117t-137 -68.5t-154.5 -22h-406q-57 0 -113.5 22t-97 68.5t-60 117t1.5 165.5l164 770q7 41 8.5 77t-15.5 63t-55 42.5t-104 15.5z" />
<glyph unicode="&#xe53;" horiz-adv-x="1412" d="M150.5 270q-20.5 96 8.5 224q51 237 175.5 373.5t305.5 136.5q76 0 122.5 -41.5t69.5 -90.5q29 -56 38 -127q39 71 90 127q44 49 106.5 90.5t139.5 41.5q156 0 230 -133t23 -377q-25 -115 -66.5 -207t-81.5 -157q-46 -74 -100 -130h-215q52 61 96 139q39 66 80.5 156.5 t63.5 198.5q32 146 3 230.5t-105 84.5q-74 0 -135 -94.5t-103 -286.5h-200q36 176 18 278.5t-92 102.5q-28 0 -60 -14t-65 -51.5t-62.5 -97.5t-48.5 -152q-31 -144 9 -234.5t150 -90.5q46 0 90 12q23 8 46 17l-39 -183q-14 -10 -38 -20q-20 -7 -46 -13.5t-57 -6.5 q-79 0 -153 33t-125.5 99.5t-72 162.5z" />
<glyph unicode="&#xe54;" horiz-adv-x="1371" d="M146 295.5q-10 85.5 10 183.5q18 87 58 176.5t100 161.5t142 117.5t186 45.5h410q42 0 80 8t72.5 28t60 60t37.5 104l73 335l225 -3l-88 -386q-20 -95 -63.5 -158.5t-101 -103.5t-123.5 -57.5t-134 -17.5h-438q-53 0 -97.5 -25.5t-79.5 -69.5t-59.5 -100t-36.5 -118 q-29 -125 1 -203t142 -78h387q-61 39 -108 91q-39 46 -64.5 115.5t-4.5 164.5h230q-17 -82 -5.5 -149.5t43 -116.5t80.5 -77t110 -28h129l-41 -195h-838q-88 0 -150 38t-98 105t-46 152.5z" />
<glyph unicode="&#xe55;" horiz-adv-x="1373" d="M146 303.5q-10 85.5 10 172.5q18 88 58 177t100 162.5t142 119t182 45.5h71q-5 22 2 54q10 46 37.5 88.5t64.5 73t83 48.5t93 18q95 0 147 -66.5t32 -161.5q-6 -25 -16 -43q72 25 106 76.5t56 153.5l64 294h224l-81 -379q-20 -95 -61 -160t-96 -106.5t-122 -61 t-136 -19.5h-446q-54 0 -98 -25.5t-80.5 -69.5t-62 -100t-38.5 -118q-25 -122 2 -201.5t135 -79.5h393q-61 39 -107 91q-39 46 -64.5 115.5t-4.5 164.5h230q-17 -82 -3.5 -149.5t47 -116.5t79.5 -77t92 -28h141l-41 -195h-838q-87 0 -149.5 42.5t-99.5 109t-47 152z M860 1026q-8 -34 10.5 -55t50.5 -21h8q29 5 54.5 25.5t30.5 50.5q7 32 -11 55t-48 23q-34 0 -62 -23t-33 -55z" />
<glyph unicode="&#xe56;" horiz-adv-x="1551" d="M298 1319l40 196h53q137 0 216 -55t121 -148t57.5 -213.5t23.5 -250.5q39 43 95 78q48 32 118 57.5t166 25.5q124 0 214 -41.5t141.5 -110t66.5 -158.5t-5 -184q-23 -105 -79 -202.5t-138.5 -172t-190 -118.5t-229.5 -44q-98 0 -168 31.5t-120 84t-79.5 119t-39.5 136.5 h228q17 -88 81.5 -134t140.5 -46q49 0 105 21.5t109 65.5t95 108t60 151q29 136 -40.5 216t-191.5 80q-62 0 -115 -23t-95 -61t-75 -88t-57 -107h-210q-5 203 -15 351t-39.5 245.5t-87.5 144t-156 46.5z" />
<glyph unicode="&#xe57;" horiz-adv-x="1845" d="M151 289.5q-15 94.5 8 204.5q51 237 176.5 362.5t268.5 125.5q74 0 119 -38t68 -85.5t32 -89t9 -50.5q3 5 27.5 47.5t67.5 90t104 86.5t137 39q71 0 127 -30.5t90 -91.5t41.5 -153t-18.5 -213q-23 -108 -47.5 -169t-62.5 -123q61 8 112 57t78 163l156 728 q36 164 158.5 264.5t312.5 100.5h35l-42 -196q-67 0 -110.5 -12t-69.5 -34t-40 -53.5t-22 -71.5l-164 -772q-20 -95 -70 -165t-113 -117.5t-130.5 -70.5t-123.5 -23h-330q54 61 99 139q41 66 83.5 156.5t64.5 198.5q32 146 15 219t-96 73q-73 0 -136.5 -75.5t-96.5 -229.5 h-174q28 137 -4 221t-101 84q-29 0 -57 -12t-55 -42.5t-51 -88t-42 -149.5q-32 -144 12 -234.5t142 -90.5q20 0 45.5 5t46.5 10q25 7 49 16l-39 -185q-25 -10 -51 -20q-49 -17 -95 -17q-93 0 -165.5 39t-117.5 108.5t-60 164z" />
<glyph unicode="&#xe58;" horiz-adv-x="1376" d="M145.5 277.5q-13.5 96.5 13.5 216.5q20 92 67.5 179t118 156.5t161 110t198.5 40.5h354q41 0 79 8t72.5 28t60 60t39.5 104l71 335h222l-76 -357q-22 -110 -70 -182t-109.5 -114.5t-130 -59t-136.5 -16.5h-358q-68 0 -126 -24t-101 -65.5t-69.5 -96.5t-39.5 -114 q-31 -144 -3.5 -229.5t98.5 -85.5q47 0 87.5 37.5t71.5 80.5q36 51 69 121q17 -69 46 -121q25 -44 66 -81t105 -37q32 0 63.5 8.5t60 28.5t50 56t31.5 92l13 66h226l-14 -66q-34 -166 -149 -272t-321 -106q-71 0 -116 23.5t-74 52.5q-31 34 -46 76q-25 -44 -61 -76 q-31 -29 -74.5 -52.5t-102.5 -23.5q-63 0 -120 35.5t-95 101.5t-51.5 162.5z" />
<glyph unicode="&#xe59;" horiz-adv-x="1653" d="M151 289.5q-15 94.5 8 204.5q25 117 80.5 212t122 160t138 101.5t128.5 36.5q97 0 146.5 -45t85.5 -99q36 100 109 161t162 61q61 0 106 -28t79.5 -61t64 -61t65.5 -28q49 0 82 83t62 217l66 311h225l-66 -311q-17 -79 -45.5 -166.5t-74.5 -160.5t-114.5 -120.5 t-161.5 -47.5q-74 0 -123.5 28t-85 63t-63.5 62t-62 24q-36 -2 -69.5 -29t-45.5 -73q0 -8 -1 -15t-1 -11l12 -140q5 -67 15.5 -214.5t28.5 -403.5h-215l-49 662q-5 54 -39.5 104t-95.5 50q-25 0 -59 -15t-68 -53.5t-65 -100t-49 -153.5q-32 -142 4.5 -233.5t133.5 -91.5 q20 0 44.5 5t44.5 14q23 10 44 20l-40 -190q-13 -10 -49 -25t-97 -15q-83 0 -149 39t-110 108.5t-59 164z" />
<glyph unicode="&#xe5a;" horiz-adv-x="1427" d="M300 1158h222q3 -54 9.5 -96.5t23 -72t47 -45t82.5 -15.5q95 0 181.5 58t138.5 171h217l-161 -753q-20 -93 -47.5 -167t-73 -126.5t-115 -82t-172.5 -29.5l42 198q28 0 47 1t34.5 23t30.5 70t36 143l93 423q-36 -37 -83 -64q-41 -23 -99.5 -42.5t-132.5 -19.5 q-92 0 -156.5 34.5t-101.5 93.5t-52 135.5t-10 162.5zM1111 0l245 1160l224 -2l-246 -1158h-223z" />
<glyph unicode="&#xe5b;" horiz-adv-x="1898" d="M189.5 289.5q-18.5 89.5 2.5 184.5q23 102 75.5 198t130.5 169t182 116.5t226 43.5q76 0 134.5 -18t99 -46t66 -63.5t42.5 -74.5q36 -90 27 -203h-217q0 59 -20 105q-18 41 -57 74.5t-113 33.5q-57 0 -113 -24.5t-103.5 -67.5t-83.5 -105t-50 -138q-16 -72 -3 -128.5 t44.5 -96t79 -60t101.5 -20.5q56 0 108.5 21.5t93.5 50.5q47 31 87 71l105 -128l131 131l90 -127l137 130q18 -44 42 -77q20 -29 45.5 -52t61.5 -23q49 0 72 24.5t28 47.5q5 31 0 57.5t-19 46.5q-12 23 -30 44h218q18 -15 28 -37q10 -20 15.5 -51.5t-2.5 -72.5 q-7 -31 -29 -73t-61 -80t-95 -66t-132 -28q-49 0 -82 23.5t-54 52.5q-26 34 -42 76l-132 -128l-90 128l-128 -128l-105 128q-41 -46 -87 -79q-42 -29 -97 -52.5t-118 -23.5q-115 0 -199.5 42t-138 112.5t-72 160z" />
<glyph unicode="&#x2000;" horiz-adv-x="1152" />
<glyph unicode="&#x2001;" horiz-adv-x="2304" />
<glyph unicode="&#x2002;" horiz-adv-x="1152" />
<glyph unicode="&#x2003;" horiz-adv-x="2304" />
<glyph unicode="&#x2004;" horiz-adv-x="768" />
<glyph unicode="&#x2005;" horiz-adv-x="576" />
<glyph unicode="&#x2006;" horiz-adv-x="384" />
<glyph unicode="&#x2007;" horiz-adv-x="384" />
<glyph unicode="&#x2008;" horiz-adv-x="288" />
<glyph unicode="&#x2009;" horiz-adv-x="460" />
<glyph unicode="&#x200a;" horiz-adv-x="128" />
<glyph unicode="&#x2010;" horiz-adv-x="757" d="M198 486l37 185h571l-41 -185h-567z" />
<glyph unicode="&#x2011;" horiz-adv-x="757" d="M198 486l37 185h571l-41 -185h-567z" />
<glyph unicode="&#x2012;" horiz-adv-x="757" d="M198 486l37 185h571l-41 -185h-567z" />
<glyph unicode="&#x2013;" horiz-adv-x="1026" d="M198 486l37 185h840l-41 -185h-836z" />
<glyph unicode="&#x2014;" horiz-adv-x="1512" d="M198 486l37 185h1326l-40 -185h-1323z" />
<glyph unicode="&#x2018;" horiz-adv-x="411" d="M289 921l39 183q12 66 57 122t91 100q54 46 120 86h225q-66 -43 -122 -91q-49 -43 -92 -99.5t-57 -117.5l-38 -183h-223z" />
<glyph unicode="&#x2019;" horiz-adv-x="413" d="M88 921q66 44 120 93q46 44 89 100t57 117l40 181h226l-41 -181q-15 -66 -59 -121t-90 -99q-54 -49 -120 -90h-222z" />
<glyph unicode="&#x201c;" horiz-adv-x="743" d="M289 921l39 183q12 66 57 122t91 100q54 46 120 86h205q-63 -43 -115 -91q-44 -43 -86 -99.5t-55 -117.5l-37 -183h-219zM628 921l37 183q13 66 59 122t97 100q59 46 129 86h205q-66 -43 -124 -91q-49 -43 -92 -99.5t-55 -117.5l-39 -183h-217z" />
<glyph unicode="&#x201d;" horiz-adv-x="747" d="M88 921q66 44 120 93q46 44 89 100t57 117l40 181h217l-40 -181q-15 -66 -60 -121t-96 -99q-59 -49 -126 -90h-201zM438 921q63 44 114 93q44 44 86.5 100t55.5 117l41 181h217l-41 -181q-15 -66 -58.5 -121t-90.5 -99q-53 -49 -120 -90h-204z" />
<glyph unicode="&#x2022;" horiz-adv-x="711" d="M216.5 481.5q-11.5 46.5 1.5 99.5q10 57 41.5 104t75.5 83t96.5 56.5t106.5 20.5q107 0 165.5 -75.5t36.5 -188.5q-12 -53 -41.5 -99.5t-73.5 -82t-95 -56.5t-105 -21t-97.5 21t-71.5 56.5t-39.5 82z" />
<glyph unicode="&#x2026;" horiz-adv-x="1486" d="M95 0l44 210h222l-43 -210h-223zM632 0l44 210h223l-44 -210h-223zM1170 0l44 210h222l-44 -210h-222z" />
<glyph unicode="&#x202f;" horiz-adv-x="460" />
<glyph unicode="&#x205f;" horiz-adv-x="576" />
<glyph unicode="&#x20ac;" horiz-adv-x="1368" d="M181 418l34 161h130l14 63q5 20 8.5 38.5t8.5 38.5h-130l35 162h159q128 235 318 344t414 109q130 0 223 -18t149 -46l-118 -192q-66 36 -141.5 48.5t-158.5 12.5q-138 0 -254.5 -67.5t-187.5 -190.5h486l-34 -162h-535q-5 -20 -10 -38.5t-10 -38.5q-5 -17 -6 -32.5 t-4 -30.5h484l-34 -161h-440q15 -67 49.5 -114.5t81 -76.5t100 -43.5t109.5 -14.5q98 0 172.5 25.5t155.5 64.5l39 -190q-83 -44 -190 -67.5t-243 -23.5q-110 0 -202 29t-160 85.5t-108 138t-43 187.5h-161z" />
<glyph unicode="&#x2122;" horiz-adv-x="1002" d="M356 1231l10 57h313l-10 -57h-121l-84 -391h-68l85 391h-125zM630 840l95 448h79l74 -343l231 343h71l-95 -448h-56l75 345l-236 -345h-26l-74 345l-74 -345h-64z" />
<glyph unicode="&#x25fc;" horiz-adv-x="972" d="M0 0v972h972v-972h-972z" />
<glyph horiz-adv-x="1131" d="M249 940q43 66 115 120q61 46 157.5 84t236.5 38q56 0 109.5 -11t97.5 -30q56 18 102.5 58t61.5 110h222q-12 -51 -37.5 -96t-60 -79.5t-74.5 -59t-78 -35.5q79 -83 103.5 -201.5t-0.5 -233.5q-32 -149 -100 -261.5t-160 -189.5t-200.5 -115t-223.5 -38h-124l-15 394 q-5 20 -10 27t-26 7h-61l41 197h115q29 0 58.5 -5t52.5 -20.5t38 -43.5t17 -77l16 -281q57 0 113 33t105 88t85.5 129t54.5 156q22 110 2 183t-63.5 118t-100 62.5t-104.5 17.5q-105 0 -184.5 -37t-135.5 -80q-66 -52 -113 -118z" />
<glyph horiz-adv-x="1832" d="M200 208l71 332q10 49 25.5 85.5t31.5 65.5q17 31 36 54q-34 36 -62 64q-22 22 -43 41.5t-18 21.5q64 88 148 154q71 59 172 107.5t230 48.5q100 0 189.5 -24t155 -73t97.5 -121.5t11 -167.5l-84 -402q-8 -44 -10 -84.5t9 -71t36.5 -50t74.5 -19.5h108q94 0 147 69.5 t73 155.5l161 764h225l-162 -753q-14 -74 -50 -150t-94 -137.5t-136 -100.5t-180 -39h-204q-88 0 -140.5 34t-77 94t-24.5 137t19 162l74 340q15 66 -1.5 112.5t-54 74.5t-90 40.5t-108.5 12.5q-74 0 -125 -17.5t-85 -38.5q-39 -25 -64 -57l128 -127q-23 -17 -45 -46 q-20 -25 -38 -62.5t-32 -96.5l-64 -291q-5 -20 -5 -34.5t20 -16.5h83l-42 -198h-127q-108 -2 -144 54t-15 154z" />
<glyph d="M-694 1559q15 66 47 111t74.5 72t92.5 38.5t101 11.5h154q59 0 105 18t81 39q41 25 73 56l-36 -193q-32 -14 -69 -24q-34 -10 -79 -18.5t-104 -8.5h-127q-77 0 -109 -33t-40 -69q-5 -23 0 -50t34 -27q28 0 47 14t31 33q13 20 22 49h47q0 -29 7 -49q4 -18 14 -32.5 t37 -14.5q17 0 35 10t31 26t20 32t10 28h161q-20 -98 -92 -163.5t-169 -65.5q-29 0 -50 13t-34 28q-15 18 -26 41q-13 -22 -33 -41q-17 -15 -44.5 -27t-65.5 -12q-68 0 -118 51.5t-28 156.5z" />
<glyph d="M-128 1951l40 191h224q39 0 64 -29t18 -68q-6 -20 7 -35.5t34 -15.5h266l-120 -189h-303q-58 0 -84 28t-18 67q5 34 -6.5 42.5t-27.5 8.5h-94z" />
<glyph d="M-244 1898q10 51 40 89t66 65t74.5 39.5t68.5 12.5q25 0 40.5 -12.5t23.5 -27.5q11 -19 13 -39q16 20 33 39q15 15 38 27.5t52 12.5q64 0 99.5 -34.5t40.5 -88.5q0 -17 5.5 -21t18.5 -4h149l-122 -190h-130q-71 0 -89 32t-11 71q3 15 4 33t0 33.5t-10 27t-24 11.5 q-20 0 -34 -24.5t-20 -51.5h-51q5 24 1.5 50t-22.5 26q-18 0 -38.5 -24.5t-25.5 -51.5q-7 -29 -1 -53.5t16 -42.5q10 -20 29 -36h-188q-17 15 -27 36q-10 18 -17 42.5t-2 53.5z" />
<glyph horiz-adv-x="1957" d="M202 208l72 332q10 49 27 85.5t29 65.5q15 31 34 54q-34 36 -62 64q-22 22 -43 41.5t-18 21.5q67 88 150 154q74 59 176 107.5t232 48.5q139 0 256 -50t169 -147q22 29 61 63t91.5 63.5t120 50t152.5 20.5q87 0 164.5 -28t131.5 -83t77 -137t0 -189l-234 -1099 q-8 -36 -35.5 -67t-54.5 -58q-34 -29 -78 -56h-94l266 1254q16 76 0 128t-48 82.5t-77 43t-85 12.5q-104 0 -171 -32t-104 -72.5t-52.5 -75.5t-15.5 -37l-238 -1122q-7 -36 -34 -67t-56 -58q-33 -29 -76 -56h-97l273 1280q15 71 -2.5 118.5t-56 74.5t-92.5 37t-110 10 q-66 0 -115 -17.5t-85 -38.5q-41 -25 -69 -57l128 -127q-3 0 -16.5 -13t-32 -38t-37.5 -64t-29 -90l-62 -289q-4 -29 3 -40t23 -13.5t35 -1t37 1.5l-41 -198h-138q-90 0 -131 50t-18 158z" />
<glyph horiz-adv-x="1957" d="M59 0l41 198h76q25 0 34.5 38t14.5 66l49 238q10 49 24 85.5t30 65.5q14 31 36 54q-34 36 -62 64q-22 22 -43 41.5t-18 21.5q61 88 145 154q72 59 177.5 107.5t242.5 48.5q62 0 125 -12t119 -36.5t100.5 -63.5t70.5 -88q23 29 60.5 63.5t91 65t122.5 51t154 20.5 q87 0 164.5 -28t131.5 -83t77 -137t0 -189l-234 -1099q-8 -36 -35.5 -67t-54.5 -58q-34 -29 -78 -56h-94l266 1254q16 76 0 128t-48 82.5t-77 43t-85 12.5q-122 0 -192.5 -43t-108 -95.5t-46.5 -96.5t-9 -46l-225 -1058q-7 -36 -34 -67t-56 -58q-33 -29 -76 -56h-97 l273 1280q13 61 -1 107.5t-49 76t-86 43t-107 13.5q-74 0 -126.5 -17.5t-89.5 -38.5q-43 -25 -71 -57l130 -127q-22 -17 -42 -46q-18 -25 -36 -62.5t-32 -96.5l-71 -332q-20 -98 -80.5 -153t-147.5 -55h-143z" />
</font>
</defs>
</svg>
