<?xml version="1.0" standalone="no"?>
<!DOCTYPE svg PUBLIC "-//W3C//DTD SVG 1.1//EN" "http://www.w3.org/Graphics/SVG/1.1/DTD/svg11.dtd" >
<svg xmlns="http://www.w3.org/2000/svg" xmlns:xlink="http://www.w3.org/1999/xlink" version="1.1">
<metadata></metadata>
<defs>
<font id="thaisans_neuelight" horiz-adv-x="0" >
<font-face units-per-em="2048" ascent="1534" descent="-514" />
<missing-glyph horiz-adv-x="823" />
<glyph unicode="&#x3b;&#x3b;arm&#x3b;&#x3b;" horiz-adv-x="2648" d="M95 1588v102h409v205q-29 0 -56.5 16.5t-49.5 44.5t-34.5 65.5t-12.5 77.5q0 46 17.5 83.5t45.5 64.5t66 42t75 15q97 0 151 -54t54 -151q0 -34 -10 -69.5t-29.5 -65t-47.5 -48t-67 -21.5v-205h410v-102h-410v-308l275 -615h-102l-224 513l-223 -513h-102l274 615v308 h-409zM198 0q0 29 10 60.5t31.5 58.5t55 43.5t81.5 16.5q76 0 127.5 -51.5t51.5 -127.5q0 -18 -8.5 -64t-60.5 -82l56 -262l142 283h51l140 -283l90 536h127l-40 -216l28 52l166 38q0 133 16 226.5t46.5 150t79 82t114.5 25.5q77 0 115.5 -51t38.5 -127h-51q0 38 -19.5 70 t-56.5 32q-98 0 -139 -95t-41 -286l187 45l23 -94l-210 -54v-102q0 -154 -7.5 -281t-37 -219t-86 -142t-150.5 -50q-77 0 -128 38.5t-51 115.5h51q0 -38 32 -57.5t70 -19.5q77 0 118 46t60 126.5t22.5 193.5t3.5 249v76l-204 -51l-87 -460h-66l-180 383l-179 -383h-66 l-83 409l47 31q-6 -3 -16 -3q-10 -2 -36 -2q-22 0 -54.5 8.5t-59.5 29t-45.5 54t-18.5 84.5zM300 0q0 -29 19 -51.5t57 -22.5q76 0 76 74q0 76 -76 76q-38 0 -57 -22.5t-19 -53.5zM452 2099q0 -39 22 -71t81 -32t81 32.5t22 70.5q0 59 -32 80.5t-71 21.5t-71 -21.5 t-32 -80.5zM1042 665l583 1587h441l512 -1587h-409l-157 487h-688l-180 -487h-102zM1375 1280h594l-279 870zM1705 51l51 257h76l-76 -257h-51zM1776 2176l34 -100l59 100h-93zM1828 2030l21 -71l132 217h-63zM1832 51l52 257h77l-77 -257h-52zM1866 1910l29 -92l143 241 l-28 86zM1920 1741l15 -51l144 238l-15 51zM1956 1629l15 -51l144 237l-16 51zM1989 -254q0 95 23 183.5t64.5 155t97.5 107t122 40.5q136 0 209 -93t73 -264q0 -251 -89.5 -368.5t-243.5 -117.5q-49 0 -95 20t-82 62.5t-57.5 110t-21.5 164.5zM1994 1510l16 -51l142 236 l-17 54zM2028 1408l17 -62l144 239l-18 61zM2064 1290l17 -51l141 239l-13 51zM2091 -202l359 153q-5 49 -20 88q-15 33 -45 61t-89 28q-66 0 -107 -53t-61 -114q-26 -71 -37 -163zM2091 -330q0 -29 9.5 -60.5t28.5 -58.5t48 -44t68 -17q76 0 117.5 51t61.5 117 q22 71 26 166zM2099 1175l16 -41l143 234l-13 48zM2132 1075l16 -41l143 236l-15 44zM2166 972l15 -48l147 234l-17 53zM2199 870l19 -59l142 241l-18 57zM2232 768l8 -26h34l120 203l-18 61zM2314 742h51l63 106l-19 51zM2406 742h52l-18 57z" />
<glyph unicode="&#xd;" horiz-adv-x="823" />
<glyph unicode=" "  horiz-adv-x="823" />
<glyph unicode="&#x09;" horiz-adv-x="823" />
<glyph unicode="&#xa0;" horiz-adv-x="823" />
<glyph unicode="!" horiz-adv-x="320" d="M95 0v130h130v-130h-130zM95 291v1020h130v-1020h-130z" />
<glyph unicode="&#x22;" horiz-adv-x="601" d="M95 921v393h133v-393h-133zM356 921v393h133v-393h-133z" />
<glyph unicode="#" horiz-adv-x="1373" d="M95 376l25 105h195l79 291h-194l25 103h195l98 361h124l-97 -361h381l98 361h126l-98 -361h220l-28 -103h-220l-76 -291h220l-32 -105h-217l-100 -376h-123l100 376h-384l-100 -376h-122l99 376h-194zM440 481h381l80 291h-383z" />
<glyph unicode="$" horiz-adv-x="985" d="M95 71v108q49 -29 107 -51q52 -20 117 -34.5t140 -14.5q141 0 221 69.5t80 200.5q0 92 -50 142.5t-122.5 84t-160 58t-160 63t-122.5 98.5t-50 167q0 67 29.5 119.5t78 90t111 58.5t128.5 28v193h124v-193q69 -6 120.5 -16.5t85.5 -22.5q42 -13 68 -31v-108 q-39 20 -88 36q-43 13 -107 26t-154 13q-46 0 -93 -14.5t-85.5 -38.5t-63 -60t-24.5 -80q0 -76 50 -118.5t123 -73t160 -57.5t160 -70.5t123 -112.5t50 -181q0 -67 -14.5 -128.5t-51 -110.5t-100 -83.5t-159.5 -44.5v-194h-124v190q-90 2 -155 17t-108 34q-49 20 -84 42z " />
<glyph unicode="%" horiz-adv-x="1443" d="M95 1058q0 181 67.5 271t169.5 90q98 0 163.5 -85t65.5 -262q0 -87 -19.5 -152t-52.5 -108.5t-76.5 -65t-92.5 -21.5q-95 0 -160 82t-65 251zM220 1062q0 -73 9 -119.5t23 -72t33.5 -34t42.5 -8.5q22 0 42.5 8.5t36 35.5t24.5 73t9 120q0 76 -10 126t-25.5 77t-35.5 37.5 t-41 10.5q-20 0 -39.5 -10.5t-35 -38.5t-24.5 -77t-9 -128zM276 0l848 1521h136l-848 -1521h-136zM884 300q0 181 68.5 270.5t168.5 89.5q98 0 163 -84.5t65 -260.5t-71.5 -262.5t-168.5 -86.5q-95 0 -160 82t-65 252zM1009 305q0 -79 8.5 -127t24.5 -72t35 -32t39 -8 q23 0 43.5 9.5t36 35t24.5 73t9 124.5q0 78 -9 128t-24.5 77t-36 36t-43.5 9q-20 0 -39 -10t-35 -37t-24.5 -77t-8.5 -129z" />
<glyph unicode="&#x26;" horiz-adv-x="1395" d="M95 315q0 141 68.5 238t217.5 163q-56 36 -107.5 103t-51.5 163q0 139 98 209.5t238 70.5q56 0 113 -18t98.5 -50t68.5 -79t27 -106q0 -118 -67.5 -187.5t-198.5 -117.5q141 -72 226.5 -173t144.5 -191q41 59 74.5 127t55 135t33 129.5t11.5 110.5v33h131 q-7 -151 -71.5 -317.5t-167.5 -308.5q52 -64 110 -104t154 -40v-105q-130 0 -205.5 46t-134.5 113q-176 -181 -456 -181q-200 0 -304.5 80.5t-104.5 256.5zM225 315q0 -127 73 -181.5t203 -54.5q113 0 215.5 41t172.5 121q-39 54 -78 111.5t-85.5 111.5t-107 99.5 t-139.5 74.5q-67 -29 -114 -56t-78 -62.5t-46.5 -84.5t-15.5 -120zM354 982q0 -66 35.5 -127t111.5 -105q123 44 178.5 109t55.5 155q0 36 -19.5 61.5t-46.5 42t-57.5 24.5t-53.5 8q-100 0 -152 -49t-52 -119z" />
<glyph unicode="'" horiz-adv-x="320" d="M95 921v393h130v-393h-130z" />
<glyph unicode="(" horiz-adv-x="498" d="M56 469q0 493 303 855h110q-151 -184 -222 -397t-71 -458q0 -238 71 -443t222 -385h-113q-146 161 -223 371t-77 457z" />
<glyph unicode=")" horiz-adv-x="498" d="M18 -359q151 179 221.5 383t70.5 445t-70.5 455.5t-221.5 399.5h110q302 -362 302 -855q0 -487 -302 -828h-110z" />
<glyph unicode="*" horiz-adv-x="716" d="M95 975l207 107l-207 108l84 115l146 -137l-27 202h142l-30 -205l151 140l84 -115l-210 -108l210 -107l-84 -115l-151 141l30 -205h-142l27 203l-146 -139z" />
<glyph unicode="+" horiz-adv-x="933" d="M95 464v105h320v337h105v-337h320v-105h-320v-310h-105v310h-320z" />
<glyph unicode="," horiz-adv-x="320" d="M-41 -279q39 49 66 95q25 42 47.5 88.5t22.5 87.5v144h130v-144q0 -51 -27 -99.5t-59 -87.5q-39 -46 -85 -84h-95z" />
<glyph unicode="-" horiz-adv-x="665" d="M95 486v110h476v-110h-476z" />
<glyph unicode="." horiz-adv-x="320" d="M95 0v136h130v-136h-130z" />
<glyph unicode="/" horiz-adv-x="567" d="M18 0l407 1524h117l-403 -1524h-121z" />
<glyph unicode="0" horiz-adv-x="1036" d="M56 591q0 167 34.5 292.5t96.5 208.5t146.5 125.5t184.5 42.5q94 0 178.5 -39t148.5 -117t99.5 -199t35.5 -285q0 -161 -40.5 -281.5t-107.5 -201.5t-155 -120t-183 -39t-174 36.5t-138.5 113.5t-92.5 192t-33 271zM188 599q0 -264 90.5 -392t229.5 -128q146 0 244 131.5 t98 395.5q0 272 -99 410.5t-243 138.5q-139 0 -229.5 -138.5t-90.5 -417.5z" />
<glyph unicode="1" horiz-adv-x="562" d="M56 926v108q56 22 106 56t89 68q47 38 81 78h137v-1236h-131v1062q-44 -28 -121.5 -72.5t-160.5 -63.5z" />
<glyph unicode="2" horiz-adv-x="843" d="M56 0v105q0 74 44 142t109 133t142 129.5t142 130.5t108.5 135.5t43.5 145.5q0 125 -62.5 179.5t-164.5 54.5q-83 0 -170 -23t-140 -82v108q53 56 132.5 79t177.5 23q153 0 255.5 -80.5t102.5 -241.5q0 -93 -43.5 -172.5t-107.5 -151.5t-139.5 -137t-142.5 -128 t-111 -123t-48 -121h644v-105h-772z" />
<glyph unicode="3" horiz-adv-x="870" d="M95 46v115q61 -51 130.5 -66.5t153.5 -15.5q132 0 218.5 61.5t86.5 179.5q0 130 -102.5 198t-359.5 68v95q116 5 206 33q76 22 140 74t64 141q0 122 -57 174t-153 52q-61 0 -139 -15.5t-137 -59.5v108q59 38 122.5 55t153.5 17q72 0 135 -23t108.5 -63t71 -92.5 t25.5 -111.5q0 -246 -240 -328q59 -10 113 -36.5t93.5 -66.5t62.5 -92.5t23 -114.5q0 -87 -33 -153.5t-92 -111.5t-138.5 -67t-171.5 -22q-90 0 -160 18.5t-124 49.5z" />
<glyph unicode="4" horiz-adv-x="897" d="M18 305v117l571 814h136v-824h156v-107h-156v-305h-131v305h-576zM151 412h443v643z" />
<glyph unicode="5" horiz-adv-x="818" d="M95 20v108q29 -16 64 -26q31 -10 74 -16.5t99 -6.5q152 0 226 73t74 202q0 138 -85.5 213t-218.5 75q-59 0 -104 -3.5t-73 -8.5q-33 -5 -56 -10v616h581v-107h-451v-394h97q110 0 193.5 -28t138.5 -78t81.5 -118.5t26.5 -146.5q0 -193 -118.5 -289.5t-311.5 -96.5 q-90 0 -143 12t-94 30z" />
<glyph unicode="6" horiz-adv-x="905" d="M56 545q0 351 134.5 533t375.5 182h111.5t98.5 -21v-105q-25 5 -57 10q-29 5 -65 8t-88 3q-178 3 -282.5 -137t-99.5 -393q20 44 56 72t76 43t79.5 21.5t70.5 6.5q79 0 149.5 -28.5t122 -79.5t82 -122.5t30.5 -158.5q0 -88 -29.5 -160.5t-80.5 -126t-125.5 -84 t-162.5 -30.5q-183 0 -289.5 150.5t-106.5 416.5zM198 410q0 -146 62 -238.5t192 -92.5q57 0 105.5 24.5t85 65.5t58 96t21.5 114q0 136 -69 211t-201 75q-66 0 -114.5 -28t-79 -67.5t-45.5 -82.5t-15 -77z" />
<glyph unicode="7" horiz-adv-x="831" d="M18 1129v107h796v-76l-445 -1160h-128l421 1129h-644z" />
<glyph unicode="8" horiz-adv-x="882" d="M56 322q0 110 57.5 203t170.5 144q-79 39 -127.5 114t-48.5 165q0 68 24 124.5t69 99t105 65.5t134 23q69 0 130.5 -24.5t108 -67t72 -100t25.5 -120.5q0 -90 -46 -166t-131 -113q115 -51 172 -146t57 -201q0 -87 -30 -150.5t-83 -107.5t-123 -65t-152 -21 q-176 0 -280 85.5t-104 258.5zM188 349q0 -115 61 -192.5t191 -77.5q125 0 190.5 76.5t65.5 193.5q0 49 -17 95.5t-48.5 84t-79 60t-111.5 22.5q-115 0 -183.5 -73.5t-68.5 -188.5zM238 931q0 -82 50 -145.5t152 -63.5q90 0 149 64t59 145q0 105 -63 164.5t-145 59.5 q-98 0 -150 -59.5t-52 -164.5z" />
<glyph unicode="9" horiz-adv-x="905" d="M56 855q0 87 28 161t79.5 128t124.5 85t162 31q179 0 289.5 -149t110.5 -420q0 -356 -129.5 -534.5t-371.5 -178.5h-116t-103 20v104q25 -7 60 -12q29 -5 68.5 -8t90.5 -3q95 0 166 38.5t120 109.5t71 169t16 215q-22 -46 -57 -73.5t-75 -43t-79.5 -20.5t-70.5 -5 q-79 0 -148.5 26.5t-121.5 78t-83 121.5t-31 160zM184 855q0 -146 73 -215t193 -69q64 0 112.5 27t82.5 66.5t49 84.5t15 81q0 161 -70 243t-189 82q-51 0 -98 -22t-84.5 -63t-60.5 -96t-23 -119z" />
<glyph unicode=":" horiz-adv-x="320" d="M95 0v130h130v-130h-130zM95 745v130h130v-130h-130z" />
<glyph unicode=";" horiz-adv-x="320" d="M-41 -279q39 47 66 91q25 42 47.5 89.5t22.5 90.5v140h130v-140q0 -56 -27 -104.5t-59 -85.5q-39 -43 -85 -81h-95zM95 745v133h130v-133h-130z" />
<glyph unicode="&#x3c;" horiz-adv-x="900" d="M56 386v54l828 464v-118l-659 -374l659 -322v-115z" />
<glyph unicode="=" horiz-adv-x="933" d="M95 315v107h745v-107h-745zM95 584v105h745v-105h-745z" />
<glyph unicode="&#x3e;" horiz-adv-x="900" d="M18 -25v115l658 322l-658 374v118l827 -464v-54z" />
<glyph unicode="?" horiz-adv-x="780" d="M95 1058v110q23 24 61 46q34 17 84.5 31.5t125.5 14.5q59 0 116.5 -17t102.5 -50t73 -84t28 -120q0 -100 -48.5 -162t-106 -105t-105 -80.5t-47.5 -93.5v-257h-130v251q0 49 23 86t56 68.5t73.5 59.5t74.5 58.5t56.5 68.5t22.5 89q0 98 -55 142t-126 44q-69 0 -120.5 -16 t-87.5 -36q-41 -22 -71 -48zM249 0v130h130v-130h-130z" />
<glyph unicode="@" horiz-adv-x="1650" d="M128 469q0 146 58 272.5t158.5 222.5t235 153.5t288.5 60.5q138 2 262.5 -43t217.5 -125.5t148 -192t55 -241.5q0 -92 -28 -173t-75.5 -141t-110 -96t-133.5 -36q-93 -2 -141.5 45t-53.5 155q-61 -118 -120 -160t-151 -42q-52 0 -104.5 19t-93.5 60.5t-66.5 104 t-25.5 149.5q0 79 33.5 151t87 125.5t123.5 84t146 30.5q90 0 138 -34t66 -68l20 100h118l-71 -398q-5 -61 5 -107q7 -41 25.5 -74t61.5 -33q57 0 98.5 33.5t70 83.5t42.5 108.5t14 110.5q0 78 -36 168t-106 164t-175 121.5t-244 44.5q-144 -2 -257.5 -58t-194.5 -143 t-124 -193.5t-43 -208.5q0 -103 38 -204t112.5 -182t184.5 -131t257 -50q97 0 190 21t170 52v-103q-74 -24 -163.5 -45.5t-192.5 -21.5q-153 0 -283.5 50t-227 138.5t-150 210t-53.5 265.5zM571 464q0 -120 55 -176t116 -56q100 0 168 85t89 303q-3 46 -41 87t-120 41 q-47 0 -94.5 -19.5t-85.5 -55t-62.5 -88.5t-24.5 -121z" />
<glyph unicode="A" horiz-adv-x="1087" d="M18 0l453 1236h135l454 -1236h-129l-122 332h-545l-125 -332h-121zM300 440h472l-232 666z" />
<glyph unicode="B" horiz-adv-x="960" d="M95 0v1236h347q164 0 255.5 -80.5t91.5 -205.5q0 -46 -13.5 -91t-40 -86t-65 -71.5t-89.5 -49.5q125 -20 204.5 -103t79.5 -200q0 -74 -30.5 -138.5t-85.5 -110.5t-132 -73t-169 -27h-353zM225 105h207q133 0 218 69.5t85 174.5q0 122 -90 188.5t-243 66.5h-177v-499z M225 709h164q122 0 195.5 53.5t73.5 161.5q0 90 -58 147.5t-198 57.5h-177v-420z" />
<glyph unicode="C" horiz-adv-x="1023" d="M56 604q0 154 45 275.5t127 206t196 129.5t255 45q82 0 171.5 -8t150.5 -36l-41 -107q-74 36 -137 41t-144 5q-105 0 -195 -36.5t-156.5 -105t-103 -171t-36.5 -238.5q0 -249 132 -387t359 -138q49 0 84.5 4.5t67 13t62.5 21t67 33.5l44 -107q-74 -44 -160 -55t-184 -11 q-136 0 -247 43t-190 123.5t-123 197.5t-44 262z" />
<glyph unicode="D" horiz-adv-x="1151" d="M95 0v1236h340q330 0 495.5 -152.5t165.5 -453.5q0 -141 -47.5 -256t-136 -198.5t-213.5 -129.5t-279 -46h-325zM225 105h195q122 0 222 34.5t172 102.5t111.5 165t39.5 223q0 256 -142 377.5t-398 121.5h-200v-1024z" />
<glyph unicode="E" horiz-adv-x="831" d="M95 0v1236h643v-107h-513v-458h461v-105h-461v-461h513v-105h-643z" />
<glyph unicode="F" horiz-adv-x="755" d="M95 0v1236h643v-107h-513v-458h461v-105h-461v-566h-130z" />
<glyph unicode="G" horiz-adv-x="1177" d="M56 591q0 149 50 273.5t138 211t209 135.5t261 49q92 0 156.5 -12t107.5 -24q46 -15 80 -34v-100q4 -5 -11.5 4.5t-57 23t-112.5 25.5t-173 12q-110 0 -204.5 -40t-164 -113t-108.5 -176.5t-39 -234.5q0 -130 36.5 -226t103 -160t159 -95t202.5 -31q82 0 144.5 14.5 t118.5 47.5v374h-281v105h411v-559q-97 -53 -194 -68t-219 -15q-137 0 -249 41.5t-193 121t-126 193.5t-45 257z" />
<glyph unicode="H" horiz-adv-x="1112" d="M95 0v1236h130v-540h664v540h130v-1236h-130v591h-664v-591h-130z" />
<glyph unicode="I" horiz-adv-x="320" d="M95 0v1236h130v-1236h-130z" />
<glyph unicode="J" horiz-adv-x="626" d="M18 0l43 98q15 -6 34 -10q31 -8 86 -9q218 0 218 351v806h131v-806q0 -212 -89.5 -332t-252.5 -120q-49 0 -81.5 2t-52.5 8q-23 4 -36 12z" />
<glyph unicode="K" horiz-adv-x="972" d="M95 0v1236h130v-660l527 660h149l-332 -415l379 -821h-134l-330 714l-259 -330v-384h-130z" />
<glyph unicode="L" horiz-adv-x="755" d="M95 0v1236h130v-1131h513v-105h-643z" />
<glyph unicode="M" horiz-adv-x="1471" d="M95 0v1236h184l443 -1036l468 1036h188v-1236h-132v1072l-494 -1072h-61l-466 1070v-1070h-130z" />
<glyph unicode="N" horiz-adv-x="1190" d="M95 0v1236h174l696 -1077v1077h131v-1236h-175l-696 1065v-1065h-130z" />
<glyph unicode="O" horiz-adv-x="1292" d="M56 599q0 312 159 486.5t443 174.5q127 0 234 -45t183.5 -127t118.5 -199t42 -261q0 -157 -42 -278.5t-121 -203.5t-190.5 -125t-250.5 -43q-130 0 -236.5 41.5t-181.5 122t-116.5 195.5t-41.5 262zM188 599q0 -115 29 -211.5t86.5 -165t141 -106t187.5 -37.5 q226 0 350 146t124 403q0 114 -32 212t-90 168t-141 108.5t-185 38.5q-113 0 -201 -40t-148 -113t-90.5 -175t-30.5 -228z" />
<glyph unicode="P" horiz-adv-x="895" d="M95 0v1236h337q200 0 304 -98.5t104 -277.5q0 -85 -29.5 -157.5t-85.5 -126.5t-138.5 -83t-190.5 -29h-171v-464h-130zM225 569h171q152 0 232.5 79.5t80.5 209.5q0 136 -61.5 203.5t-215.5 67.5h-207v-560z" />
<glyph unicode="Q" horiz-adv-x="1292" d="M56 599q0 312 159 486.5t447 174.5q126 0 232.5 -45t182 -127t117.5 -199t42 -261q0 -210 -75.5 -356.5t-212.5 -222.5q63 -25 120.5 -76.5t57.5 -148.5h-120q0 36 -22 63.5t-53.5 49.5t-66 37.5t-58.5 23.5q-41 -10 -81.5 -15t-86.5 -5q-269 0 -425.5 163.5 t-156.5 457.5zM188 599q0 -115 30.5 -211.5t86.5 -165t138 -106t187 -37.5q225 0 350.5 146t125.5 403q0 114 -32 212t-90 168t-140 108.5t-182 38.5q-114 0 -203.5 -40t-149.5 -113t-90.5 -175t-30.5 -228z" />
<glyph unicode="R" horiz-adv-x="997" d="M95 0v1236h374q76 0 144 -22t118 -63.5t79.5 -105t29.5 -144.5q0 -136 -84.5 -209.5t-210.5 -102.5q59 -20 100 -80.5t80 -122.5l245 -386h-146l-225 356q-25 39 -48 73.5t-50 58.5t-61.5 38t-80.5 14h-134v-540h-130zM225 645h205q115 0 197 63.5t82 192.5 q0 105 -74 169q-71 61 -186 61h-11l-213 -2v-484z" />
<glyph unicode="S" horiz-adv-x="985" d="M95 71v108q51 -29 113 -51q51 -20 118.5 -34.5t142.5 -14.5q146 0 218.5 74.5t72.5 195.5q0 90 -50 141.5t-122.5 85t-160 58t-160 63t-122.5 100t-50 165.5q0 74 35.5 131t92 94t128 56t140.5 19q88 0 153 -13t108 -25q52 -15 88 -36v-106q-39 20 -88 37q-43 12 -107 24 t-154 12q-43 0 -90 -14.5t-86 -38.5t-64.5 -60t-25.5 -80q0 -76 50 -118.5t123 -73t160 -57.5t160 -70.5t123 -112.5t50 -181q0 -71 -18 -138t-65.5 -119.5t-133 -83t-218.5 -30.5q-90 0 -157 13.5t-111 30.5q-54 20 -93 49z" />
<glyph unicode="T" horiz-adv-x="870" d="M18 1129v107h834v-107h-344v-1129h-132v1129h-358z" />
<glyph unicode="U" horiz-adv-x="1112" d="M95 466v770h130v-760q0 -192 70.5 -294.5t246.5 -102.5q177 0 262 96t85 286v775h130v-752q0 -259 -116.5 -382.5t-357.5 -123.5q-230 0 -340 118.5t-110 369.5z" />
<glyph unicode="V" horiz-adv-x="1087" d="M18 1236h128l394 -1092l391 1092h129l-454 -1236h-135z" />
<glyph unicode="W" horiz-adv-x="1625" d="M18 1236h128l304 -1100l329 1100h83l279 -1104l329 1104h130l-376 -1236h-162l-241 1019l-291 -1019h-161z" />
<glyph unicode="X" horiz-adv-x="1010" d="M18 0l402 618l-376 618h151l299 -511l327 511h151l-401 -618l401 -618h-151l-325 510l-327 -510h-151z" />
<glyph unicode="Y" horiz-adv-x="960" d="M18 1236h128l315 -660l340 660h125l-401 -786v-450h-131v440z" />
<glyph unicode="Z" horiz-adv-x="960" d="M18 0v22l727 1107h-676v107h873v-25l-727 -1106h699q0 -29 1 -52.5t1 -52.5h-898z" />
<glyph unicode="[" horiz-adv-x="477" d="M95 -359v1683h366v-103h-251v-1477h251v-103h-366z" />
<glyph unicode="\" horiz-adv-x="567" d="M18 1524h121l403 -1524h-117z" />
<glyph unicode="]" horiz-adv-x="477" d="M18 -256h251v1477h-251v103h366v-1683h-366v103z" />
<glyph unicode="^" horiz-adv-x="1133" d="M95 494l413 832h53l463 -832h-118l-374 661l-320 -661h-117z" />
<glyph unicode="_" horiz-adv-x="933" d="M95 -15h745v-110h-745v110z" />
<glyph unicode="`" horiz-adv-x="518" d="M95 1390h123l181 -264h-97z" />
<glyph unicode="a" horiz-adv-x="882" d="M92 232q3 86 38.5 137t85.5 80.5t106.5 39.5t105.5 10q66 0 113.5 6.5t76.5 14.5q33 10 53 20q0 146 -66.5 212.5t-184.5 66.5q-79 0 -133.5 -25.5t-86.5 -53.5q-39 -36 -61 -80l-44 100q25 44 69 78q36 28 97 52t157 24q63 0 128 -16.5t119 -55t87.5 -103.5t33.5 -160 v-579h-117v102q-37 -41 -105 -84t-165 -43q-137 1 -224 63q-83 60 -83 183v11zM210 232q0 -94 61 -130t144 -36q41 0 80.5 13t72.5 33t58.5 44.5t42.5 45.5v238q-37 -10 -73 -20q-34 -8 -72 -14.5t-76 -6.5q-44 0 -86 -10t-76.5 -30.5t-55 -51.5t-20.5 -75z" />
<glyph unicode="b" horiz-adv-x="1010" d="M95 0v1311h117v-527q34 36 79 64q41 24 100 45t137 21q66 0 141.5 -27t138 -82t105 -139.5t42.5 -199.5q0 -127 -37 -217t-98.5 -147.5t-137.5 -84.5t-152 -27t-135.5 19.5t-99.5 44.5q-46 28 -83 64v-118h-117zM212 215q42 -41 90 -69q44 -25 103 -46t130 -21 q46 0 100 20.5t99 66.5t74.5 120.5t29.5 179.5q0 85 -29.5 151.5t-74.5 110.5t-97.5 68.5t-101.5 24.5q-74 0 -132 -21t-101 -48q-48 -28 -90 -66v-471z" />
<glyph unicode="c" horiz-adv-x="755" d="M56 425q0 110 33 200.5t94 155t145 99t187 34.5q46 0 86.5 -9t69.5 -19q34 -12 64 -28l-41 -93q-20 15 -49 29q-23 10 -56.5 18.5t-73.5 8.5q-66 0 -126.5 -25.5t-109.5 -75t-77 -124t-28 -171.5q0 -93 28 -158t77 -107t109 -61.5t127 -19.5q41 0 74 8t56 21q29 12 49 31 l41 -95q-29 -18 -64 -29q-31 -10 -75 -17.5t-97 -7.5q-200 0 -321.5 114t-121.5 321z" />
<glyph unicode="d" horiz-adv-x="1010" d="M56 466q0 118 42.5 203.5t106.5 139t140.5 79.5t143.5 26q76 0 134 -21t96 -45q46 -29 80 -64v527h117v-1311h-117v118q-34 -37 -80 -64q-41 -25 -98 -44.5t-135 -19.5q-76 0 -153 25.5t-139 82t-100 147t-38 221.5zM174 466q0 -110 29 -184t75.5 -119t100 -64.5 t102.5 -19.5q67 0 124 20.5t101 46.5q49 29 93 69v471q-44 39 -93 66q-44 26 -101 47.5t-124 21.5q-49 0 -102.5 -22.5t-100 -67.5t-75.5 -112t-29 -153z" />
<glyph unicode="e" horiz-adv-x="880" d="M56 435q0 105 31 193t83 151t125.5 99t156.5 36q169 0 270.5 -110t101.5 -325v-54h-653q0 -93 24.5 -158t67 -107t99 -61.5t117.5 -19.5q69 0 114 13t72 30q31 20 51 47l44 -100q-34 -23 -74 -40q-36 -15 -86 -27t-116 -12q-95 0 -173.5 24.5t-134.5 78t-88 138 t-32 204.5zM169 518h535q-5 146 -71.5 224.5t-180.5 78.5q-107 0 -184.5 -83t-98.5 -220z" />
<glyph unicode="f" horiz-adv-x="575" d="M18 784v91h166v149q0 151 58 231.5t178 80.5q44 0 72 -1t43 -4q17 -2 23 -2v-90q-8 0 -18 2q-10 0 -27 1.5t-44 1.5q-95 0 -131 -55t-36 -165v-149h256v-91h-256v-784h-118v784h-166z" />
<glyph unicode="g" horiz-adv-x="1010" d="M56 435q0 130 38 221.5t99 148.5t138 83t153 26t134 -21t98 -45q46 -29 83 -64v117h117v-883q0 -247 -112.5 -355t-358.5 -108q-76 0 -132.5 12.5t-92.5 27.5q-44 17 -71 41l43 95q26 -25 62 -43q31 -16 78 -29t113 -13q184 0 269 85t85 264v123q-37 -37 -83 -64 q-41 -25 -99.5 -44.5t-135.5 -19.5q-63 0 -137.5 24.5t-138.5 78t-106.5 138t-42.5 204.5zM174 435q0 -87 30.5 -153.5t77 -111.5t100 -68t102.5 -23q66 0 123.5 20.5t101.5 46.5q49 29 90 69v474q-41 39 -90 66q-44 25 -101.5 47t-123.5 22q-49 0 -102.5 -19t-100 -65 t-77 -120.5t-30.5 -184.5z" />
<glyph unicode="h" horiz-adv-x="933" d="M95 0v1311h117v-553q23 43 64 77q36 29 90 54t133 25q92 0 157.5 -24.5t106.5 -69t59 -105t18 -129.5v-586h-118v594q0 100 -70.5 157.5t-167.5 57.5q-72 0 -123 -24.5t-85 -52.5q-38 -33 -64 -77v-655h-117z" />
<glyph unicode="i" horiz-adv-x="306" d="M95 0v901h117v-901h-117zM95 1048v114h117v-114h-117z" />
<glyph unicode="j" horiz-adv-x="306" d="M-259 -418l44 98q13 -10 27 -18q13 -4 30 -10t36 -6q107 0 162 86.5t55 245.5v923h117v-896q0 -220 -89 -335t-243 -115q-74 0 -108 13q-20 7 -31 14zM95 1048v114h117v-114h-117z" />
<glyph unicode="k" horiz-adv-x="818" d="M95 0v1311h117v-942l403 503h130l-225 -281l274 -591h-110l-234 504l-238 -302v-202h-117z" />
<glyph unicode="l" horiz-adv-x="306" d="M95 0v1311h117v-1311h-117z" />
<glyph unicode="m" horiz-adv-x="1561" d="M95 0v901h117v-143q0 2 17 26.5t51.5 54t87 52.5t126.5 23q130 0 204 -43t111 -123q10 14 35.5 41t66.5 55t95 49t120 21q93 0 158 -24.5t106 -67.5t59.5 -103.5t18.5 -132.5v-586h-119v594q0 105 -72.5 160t-170.5 55q-71 0 -119.5 -24.5t-82.5 -52.5q-39 -33 -64 -77 v-655h-118v594q0 100 -70.5 157.5t-167.5 57.5q-74 0 -124 -24.5t-84 -52.5q-38 -33 -64 -77v-655h-117z" />
<glyph unicode="n" horiz-adv-x="933" d="M95 0v901h117v-143q23 43 64 77q36 29 89 54t129 25q95 0 161.5 -24.5t107.5 -67.5t59 -103.5t18 -132.5v-586h-118v594q0 105 -71.5 160t-171.5 55q-71 0 -120 -24.5t-83 -52.5q-38 -33 -64 -77v-655h-117z" />
<glyph unicode="o" horiz-adv-x="982" d="M56 438q0 232 119.5 354t325.5 122q193 0 309 -119t116 -336q0 -233 -117.5 -351t-324.5 -118q-193 0 -310.5 115t-117.5 333zM174 438q0 -177 87 -268t223 -91q146 0 235.5 95t89.5 285q0 173 -85.5 267.5t-222.5 94.5q-146 0 -236.5 -95.5t-90.5 -287.5z" />
<glyph unicode="p" horiz-adv-x="1010" d="M95 -408v1309h117v-117q34 36 79 64q41 24 100 45t141 21q72 0 147.5 -26t137 -83t100 -148t38.5 -222q0 -120 -42.5 -204.5t-106.5 -138t-139.5 -78t-141.5 -24.5q-76 0 -135.5 19.5t-98.5 44.5q-46 28 -79 64v-526h-117zM212 215q42 -39 90 -66q44 -25 101.5 -46 t126.5 -21q54 0 107.5 24t98.5 70t73.5 112t28.5 147q0 103 -28.5 176t-72 120.5t-97.5 68.5t-105 21q-74 0 -132 -20t-101 -46q-48 -29 -90 -66v-474z" />
<glyph unicode="q" horiz-adv-x="1010" d="M56 435q0 130 40 221.5t101.5 148.5t139.5 83t154 26q77 0 135 -21t96 -45q47 -29 77 -64v117h117v-1309h-117v526q-37 -37 -83 -64q-41 -25 -98 -44.5t-134 -19.5q-66 0 -140.5 24.5t-138.5 78t-106.5 138t-42.5 204.5zM174 435q0 -83 28 -148t73 -111t99 -70t107 -24 q69 0 126.5 20t101.5 47q49 29 90 66v474q-41 39 -90 66q-44 25 -101.5 45.5t-128.5 20.5q-54 0 -107.5 -21t-98.5 -68.5t-72 -120.5t-27 -176z" />
<glyph unicode="r" horiz-adv-x="555" d="M95 0v901h117v-236q23 69 59 124q31 46 77 85.5t111 39.5q15 0 27.5 -1.5t25.5 -3.5q13 -3 26 -3v-110q-10 3 -23 5q-13 3 -27 4t-29 1q-47 0 -90.5 -40.5t-79.5 -89.5q-41 -58 -77 -131v-545h-117z" />
<glyph unicode="s" horiz-adv-x="780" d="M95 34v91q29 -17 66 -30q34 -13 78.5 -21t102.5 -8q106 0 166.5 44t60.5 136q0 69 -35 106t-89 60t-114 38.5t-113.5 41.5t-88 67.5t-34.5 121.5q0 49 25.5 94.5t67.5 79.5t94.5 54t106.5 20q63 0 109.5 -9t77.5 -21q36 -13 59 -29v-94q-23 15 -59 28q-31 12 -77.5 21.5 t-109.5 9.5q-67 0 -122 -43.5t-55 -110.5q0 -56 34.5 -85.5t88.5 -46.5t114.5 -32.5t114.5 -45t88 -81.5t34 -144q0 -48 -18 -97t-58.5 -88t-107.5 -61t-164 -22q-59 0 -103.5 7t-75.5 20q-37 10 -64 29z" />
<glyph unicode="t" horiz-adv-x="575" d="M18 784v91h166v436h118v-436h256v-91h-256v-484q0 -110 37 -165.5t132 -55.5q57 0 69 3q10 0 18 3v-87q-8 -3 -26 -6q-14 -2 -42.5 -2h-71.5q-123 0 -178.5 80.5t-55.5 231.5v482h-166z" />
<glyph unicode="u" horiz-adv-x="933" d="M95 315v586h117v-599q0 -92 68.5 -152t175.5 -60q74 0 123 24.5t81 51.5q36 34 62 78v657h118v-901h-118v144q-28 -46 -70 -80q-36 -29 -90 -52.5t-130 -23.5q-92 0 -157 24t-105 67t-57.5 104t-17.5 132z" />
<glyph unicode="v" horiz-adv-x="857" d="M22 901h137l276 -771l269 771h120l-312 -901h-153z" />
<glyph unicode="w" horiz-adv-x="1305" d="M18 901h138l200 -771l255 771h88l230 -771l223 771h128l-274 -901h-136l-215 735l-237 -735h-149z" />
<glyph unicode="x" horiz-adv-x="780" d="M18 0l300 450l-300 451h126l235 -356l239 356h124l-300 -463l300 -438h-124l-239 342l-235 -342h-126z" />
<glyph unicode="y" horiz-adv-x="918" d="M15 -415l44 97q12 -10 29 -17q31 -17 68 -19q56 0 97.5 22t71.5 94l97 230l-391 909h128l327 -750l276 750h129l-425 -1089q-28 -68 -54 -118t-60 -81t-82 -44.5t-119 -13.5q-36 0 -60.5 5t-41.5 10q-20 8 -34 15z" />
<glyph unicode="z" horiz-adv-x="826" d="M95 0v25l535 784h-486v92h665v-33l-530 -776h522v-92h-706z" />
<glyph unicode="{" horiz-adv-x="511" d="M56 394v90q159 15 159 225v300q0 163 73 236.5t206 78.5v-103q-83 -5 -121 -62.5t-38 -154.5v-308q0 -102 -33 -169.5t-123 -94.5q85 -20 120.5 -88t35.5 -175v-294q0 -110 28 -163.5t131 -53.5v-103q-139 0 -209 71.5t-70 229.5v305q0 213 -159 233z" />
<glyph unicode="|" horiz-adv-x="308" d="M95 -320v1771h120v-1771h-120z" />
<glyph unicode="}" horiz-adv-x="511" d="M18 -342q102 0 130 53.5t28 163.5v294q0 107 36.5 175t119.5 88q-90 26 -123 94t-33 170v308q0 97 -38 154.5t-120 62.5v103q132 -5 206 -78.5t74 -236.5v-300q0 -210 158 -225v-90q-158 -20 -158 -233v-305q0 -158 -71 -229.5t-209 -71.5v103z" />
<glyph unicode="~" horiz-adv-x="931" d="M95 422q0 106 56.5 164.5t148.5 58.5q46 0 85.5 -22t81 -47.5t84.5 -46.5t94 -21q41 0 72 35.5t35 101.5h86q-6 -123 -64 -173t-146 -50q-47 0 -88 22t-81.5 46.5t-80.5 46t-80 21.5q-120 0 -122 -136h-81z" />
<glyph unicode="&#xa9;" horiz-adv-x="1658" d="M95 620q0 156 58.5 292t160 236.5t237 158.5t291.5 58q157 0 292.5 -58t236.5 -158.5t159 -236.5t58 -292t-58 -292t-159 -236t-236.5 -157t-292.5 -57q-156 0 -291.5 57t-237 157t-160 236t-58.5 292zM161 620q0 -141 54 -264.5t145.5 -214t216 -143t265.5 -52.5 q142 0 264.5 52.5t214 143t144.5 214t53 264.5t-53 265t-144.5 215.5t-215 144.5t-263.5 53q-141 0 -265.5 -53t-216 -144.5t-145.5 -215.5t-54 -265zM438 606q0 220 125.5 346t332.5 126q59 0 120.5 -8t107.5 -25l-28 -63q-46 20 -97 27t-103 7q-168 0 -271 -111t-103 -299 q0 -192 103 -295t271 -103q66 0 107.5 11t92.5 40l28 -69q-52 -29 -112 -37.5t-128 -8.5q-203 0 -324.5 122.5t-121.5 339.5z" />
<glyph unicode="&#xad;" horiz-adv-x="665" d="M95 486v110h476v-110h-476z" />
<glyph unicode="&#xae;" horiz-adv-x="1681" d="M95 620q0 156 58.5 292t160 236.5t237 158.5t291.5 58q157 0 292.5 -58t236.5 -158.5t159 -236.5t58 -292t-58 -292t-159 -236t-236.5 -157t-292.5 -57q-156 0 -291.5 57t-237 157t-160 236t-58.5 292zM161 620q0 -141 54 -264.5t145.5 -214t216 -143t265.5 -52.5 q142 0 264.5 52.5t214 143t144.5 214t53 264.5t-53 265t-144.5 215.5t-215 144.5t-263.5 53q-141 0 -265.5 -53t-216 -144.5t-145.5 -215.5t-54 -265zM586 181v909h274q112 0 189 -61t77 -179q0 -61 -18 -105t-48.5 -73.5t-71 -46t-84.5 -24.5q46 -25 83 -67.5t58 -74.5 l179 -278h-100l-152 251q-43 69 -100.5 110.5t-92.5 41.5h-110v-403h-83zM669 648h140q46 0 88.5 13t74.5 38.5t52.5 62.5t20.5 88q0 76 -55 125t-152 49h-169v-376z" />
<glyph unicode="&#xbc;" horiz-adv-x="1745" d="M112 1329v61q32 12 59 30.5t47 35.5q24 20 46 44h74v-681h-72v586q-22 -15 -66 -40.5t-88 -35.5zM405 0l916 1524h120l-919 -1524h-117zM1224 220v64l312 448h74v-453h88v-59h-88v-169h-71v169h-315zM1295 279h244v353z" />
<glyph unicode="&#xbd;" horiz-adv-x="1778" d="M112 1329v61q32 12 59 30.5t47 35.5q24 20 46 44h74v-681h-72v586q-22 -15 -66 -40.5t-88 -35.5zM405 0l916 1524h120l-919 -1524h-117zM1280 51v59q0 61 51 116t114 109t114 110.5t51 123.5q0 69 -34.5 99.5t-93.5 30.5q-43 0 -93 -12.5t-80 -46.5v59q31 31 75.5 45 t97.5 14q88 0 144 -46.5t56 -135.5q0 -76 -50 -139t-111.5 -118t-114 -106.5t-55.5 -102.5h359v-59h-430z" />
<glyph unicode="&#xbe;" horiz-adv-x="1742" d="M95 858v63q36 -29 73 -37.5t83 -8.5q74 0 120.5 33.5t46.5 100.5q0 71 -55 108.5t-197 37.5v51q62 3 110 18q44 12 78.5 39t34.5 78q0 67 -32 97t-83 30q-34 0 -76 -9.5t-76 -32.5v59q34 20 68.5 29.5t83.5 9.5q82 0 134.5 -46.5t52.5 -112.5q0 -136 -131 -180 q66 -13 112.5 -59t46.5 -112q0 -98 -69 -146.5t-169 -48.5q-51 0 -88.5 10.5t-67.5 28.5zM405 0l916 1524h120l-919 -1524h-117zM1221 220v64l313 448h74v-453h87v-59h-87v-169h-72v169h-315zM1292 279h244v353z" />
<glyph unicode="&#xe01;" horiz-adv-x="1075" d="M56 835q39 74 100 135q52 51 133.5 93.5t201.5 42.5q83 0 168.5 -18t157.5 -60.5t116.5 -109t44.5 -160.5v-614q0 -36 -14 -60.5t-33 -44.5q-20 -23 -45 -39h-38v706q0 93 -33.5 149t-86 89.5t-116.5 45t-123 11.5q-74 0 -132.5 -26.5t-97.5 -58.5q-47 -36 -80 -81 l153 -129q-12 -15 -22 -44q-8 -22 -14.5 -59t-6.5 -95v-508h-133v501q0 49 7.5 86.5t17.5 64.5q10 32 29 54q-44 36 -78 64q-28 22 -52 42t-24 23z" />
<glyph unicode="&#xe02;" horiz-adv-x="895" d="M56 975v105h152q100 0 167 -52.5t67 -167.5q0 -64 -33 -114t-71 -88q-20 -20 -47 -70t-27 -138v-101q0 -49 7.5 -96.5t29 -86t61.5 -63t107 -24.5q61 0 100.5 25.5t62.5 66.5t31 87.5t8 90.5v731h130v-731q0 -77 -15.5 -145t-53.5 -118t-100.5 -79t-155.5 -29 q-100 0 -166 29t-106 79t-57 117.5t-17 145.5v101q0 71 13 120.5t34 82.5t44 57.5t43 47.5q15 20 31.5 51t16.5 51q0 44 -21.5 79.5t-82.5 35.5h-152z" />
<glyph unicode="&#xe03;" horiz-adv-x="895" d="M56 978v102q18 0 36 -10t36 -22q17 -16 38 -34q18 17 39 34q17 12 40.5 22t52.5 10q82 0 126.5 -52.5t44.5 -141.5q0 -76 -35 -121.5t-73 -83.5q-10 -10 -26.5 -28t-32.5 -45t-27 -60t-11 -72v-127q0 -49 7.5 -96.5t28 -86t60 -63t106.5 -24.5q62 0 101 26.5t62 69.5 t32.5 90t9.5 91v724h130v-714q0 -85 -15.5 -155t-53.5 -122.5t-103 -81.5t-163 -29q-97 0 -161 29t-102.5 79t-54.5 117.5t-16 145.5v127q0 76 36.5 150.5t95.5 131.5q10 10 23 19t24 23t19 34.5t8 54.5q0 41 -26 61t-53 25q-15 3 -33 -10t-36 -25q-20 -18 -39 -39 q-17 20 -33 39q-13 12 -31 25t-31 13z" />
<glyph unicode="&#xe04;" horiz-adv-x="1087" d="M95 0v758q0 87 38 152t102.5 108.5t145 65.5t161.5 22q86 0 166.5 -22t144 -67t102.5 -110t39 -149v-758h-132v758q0 63 -28 109.5t-74 75.5t-103.5 43.5t-114.5 14.5q-58 0 -114.5 -14.5t-101.5 -45t-73 -76.5t-28 -107v-323q34 44 80 80q36 29 88 54t115 25v-130 q-59 0 -111 -22t-89 -48q-47 -29 -83 -66v-328h-130z" />
<glyph unicode="&#xe05;" horiz-adv-x="1087" d="M95 0v758q0 66 22 130t61.5 113t95.5 78.5t125 29.5q29 0 54.5 -19.5t45.5 -41.5q22 -29 43 -59q20 31 47 59q20 22 44.5 41.5t52.5 19.5q69 0 125.5 -29.5t96.5 -78.5t63 -113t23 -130v-758h-132v758q0 38 -10 80.5t-30.5 79.5t-52 60t-73.5 23q-20 0 -47 -23t-50 -52 q-29 -34 -57 -74q-28 42 -56 74q-22 29 -48 52t-47 23q-43 0 -74 -23t-51 -60t-30.5 -79.5t-10.5 -80.5v-323q34 44 80 80q39 29 89.5 54t113.5 25v-130q-59 0 -111 -22t-89 -48q-47 -29 -83 -66v-328h-130z" />
<glyph unicode="&#xe06;" horiz-adv-x="1100" d="M56 978v102q15 0 34.5 -10t37.5 -22q20 -16 38 -34q18 17 39 34q17 12 40.5 22t52.5 10q73 2 122 -48t49 -146q0 -87 -32 -136t-70.5 -87t-70.5 -78t-32 -106v-230q41 -41 90 -73q44 -28 100 -49.5t125 -21.5q169 0 232.5 83t63.5 237v655h131v-738q0 -61 -23 -124.5 t-68 -117.5t-110 -88t-153 -34q-97 0 -169.5 25.5t-121.5 55.5q-59 36 -97 85v-144h-132v491q0 93 33 139t71 79t70 70t32 110q0 43 -28.5 63t-55.5 20q-15 0 -33.5 -11t-32.5 -23q-18 -16 -37 -37q-12 20 -29 39q-12 12 -29 25t-37 13z" />
<glyph unicode="&#xe07;" horiz-adv-x="908" d="M56 722h132l152 -617q76 0 145.5 32t121 89.5t82 136.5t30.5 177q0 95 -30.5 175.5t-84.5 138t-123 89.5t-146 32v107q115 0 210 -40.5t161 -112t104 -171.5t38 -218q0 -125 -44 -225t-115 -170.5t-162.5 -107.5t-186.5 -37h-110z" />
<glyph unicode="&#xe08;" horiz-adv-x="1036" d="M59 889q25 61 77 107q44 42 119 76t195 34q125 0 222.5 -43.5t165.5 -117t104 -171.5t36 -208q0 -120 -32 -224t-92 -179t-146 -119t-193 -44h-129l-102 410q-8 20 -19 24t-33 4h-51v104h103q31 0 48 -5t27 -12t15 -16.5t10 -17.5l110 -386q95 0 163 41.5t110 107.5 t61.5 148t19.5 164q0 110 -34.5 192t-89.5 136t-127 80.5t-149 26.5q-93 0 -159.5 -33t-109.5 -74q-49 -46 -81 -108z" />
<glyph unicode="&#xe09;" horiz-adv-x="1075" d="M56 489v105h88q74 0 108 -50t34 -124v-71q0 -59 7 -105t28 -79t66 -50t123 -17q66 0 127.5 24t110.5 52q53 34 102 80v401q0 169 -82 257.5t-238 88.5q-76 0 -142 -21.5t-112 -50.5q-56 -31 -100 -71l-40 104q44 42 105 72q51 28 124 50t165 22q235 0 342.5 -119 t107.5 -306v-681h-130v144q-46 -49 -108 -85q-51 -31 -122.5 -56t-158.5 -25q-153 0 -229 103t-76 280v44q0 20 -2.5 52t-25.5 32h-72z" />
<glyph unicode="&#xe0a;" horiz-adv-x="960" d="M56 975v105h159q93 0 160 -52.5t67 -167.5q0 -64 -34 -115t-73 -90q-20 -20 -48 -71.5t-28 -133.5v-130q0 -44 7.5 -86t31.5 -77t73 -56.5t130 -21.5q64 0 112.5 32.5t80 79.5t46.5 99t15 94q0 66 -15 129t-48.5 112t-82 78t-115.5 29v106q64 0 116 38t90 103.5t58.5 151 t20.5 183.5h130q0 -164 -38.5 -266.5t-87 -160t-92 -79.5t-51.5 -24q5 -3 43.5 -21t82 -63t79.5 -122t36 -194q0 -69 -18 -141t-63 -132t-117 -96.5t-179 -36.5q-115 0 -186.5 26.5t-114 75t-58 112.5t-15.5 138v120q0 71 14.5 120.5t34 82.5t42.5 57.5t43 47.5 q15 20 31.5 51t16.5 51q0 44 -19 79.5t-78 35.5h-159z" />
<glyph unicode="&#xe0b;" horiz-adv-x="960" d="M56 978v102q18 0 36 -10t36 -22q17 -16 38 -34q18 17 39 34q17 12 40.5 22t52.5 10q73 0 122 -49t49 -145q0 -74 -33.5 -117.5t-69.5 -82.5q-10 -10 -28 -29t-36 -46t-30.5 -61.5t-12.5 -73.5v-156q0 -44 7.5 -86t33 -77t73 -56.5t128.5 -21.5q61 0 109 32.5t80 79.5 t48.5 99t16.5 94q0 66 -15 129t-48.5 112t-82 78t-115.5 29v106q64 0 116 38t90 103.5t58.5 151t20.5 183.5h130q0 -164 -38.5 -266.5t-87 -160t-92 -79.5t-51.5 -24q5 -3 43.5 -21t82 -63t79.5 -122t36 -194q0 -72 -19.5 -143.5t-63 -130.5t-118 -95.5t-181.5 -36.5 q-113 0 -183 26.5t-112.5 75t-58 112.5t-15.5 138v156q0 74 37.5 146t96.5 128q20 20 47 46t27 83q0 43 -26 61t-56 22q-15 0 -33 -11t-33 -23q-18 -16 -36 -39q-15 20 -32 39q-12 14 -30 27t-36 13z" />
<glyph unicode="&#xe0c;" horiz-adv-x="1740" d="M56 835q39 74 100 135q52 51 133.5 93.5t196.5 42.5q85 0 172 -18t157.5 -60.5t116.5 -109t46 -160.5v-507q33 -43 80 -75q38 -28 92 -49.5t120 -21.5q85 0 133 22t72.5 61.5t30.5 100t6 136.5v655h132v-731q0 -67 -14.5 -133.5t-49 -119t-92 -85.5t-144.5 -33 q-98 0 -166.5 25.5t-112.5 55.5q-51 36 -87 85v-144h-130v706q0 93 -34.5 150.5t-88.5 89.5t-118.5 43.5t-120.5 11.5q-74 0 -129 -26.5t-93 -58.5q-46 -36 -80 -81l154 -129q-16 -15 -26 -44q-10 -22 -16.5 -61.5t-6.5 -99.5v-345q0 -20 1 -34t22 -17h77v-105h-100 q-77 0 -103.5 44t-26.5 125v332q0 49 7.5 86.5t17.5 64.5q10 32 26 54q-44 36 -78 64q-28 22 -52 42t-24 23z" />
<glyph unicode="&#xe0d;" horiz-adv-x="1740" d="M56 835q39 74 100 135q52 51 133.5 93.5t199.5 42.5q85 0 170.5 -18t157.5 -60.5t116.5 -109t44.5 -160.5v-402q0 -115 48.5 -183t182.5 -68q73 0 131 23t96 51q46 33 79 77v824h129v-962q0 -88 -33 -168t-92.5 -143t-139 -100t-168.5 -37q-71 0 -126.5 17.5t-95.5 41.5 q-47 29 -85 61l41 102q29 -33 69 -58q36 -23 86 -41t116 -18q136 0 217.5 98t81.5 259v12q-39 -49 -89 -85q-44 -31 -106 -56t-145 -25q-97 0 -160 28t-98.5 79t-51 122.5t-15.5 158.5v340q0 90 -33 147.5t-85.5 89.5t-117 45t-125.5 13q-74 0 -130.5 -26.5t-94.5 -58.5 q-46 -36 -80 -81l154 -129q-16 -15 -26 -44q-10 -22 -16.5 -61.5t-6.5 -99.5v-345q0 -20 3 -34t23 -17h74v-105h-91q-67 0 -103 35.5t-36 133.5v332q0 49 7.5 86.5t17.5 64.5q10 32 26 54q-44 36 -78 64q-28 22 -52 42t-24 23z" />
<glyph unicode="&#xe0e;" horiz-adv-x="1075" d="M54 0v105h76q20 3 24.5 17t4.5 34v345q0 49 7.5 86.5t17.5 64.5q10 32 26 54q-44 36 -78 64q-28 22 -52 42t-24 23q39 74 100 135q52 51 133.5 93.5t199.5 42.5q87 0 174 -18t157.5 -60.5t114 -109t43.5 -160.5v-929q0 -31 -6.5 -72t-32 -78.5t-78 -64t-145.5 -26.5 q-58 0 -109.5 19t-88.5 42q-47 29 -83 65q-39 -36 -90 -65q-44 -23 -111.5 -42t-154.5 -19v104q87 0 155 19.5t111 42.5q51 28 90 62q39 -36 83 -65q36 -25 84 -44t102 -19q82 0 113 37t31 116v865q0 93 -34.5 150.5t-87 89.5t-117 43.5t-120.5 11.5q-74 0 -130.5 -26.5 t-94.5 -58.5q-46 -36 -80 -81l154 -129q-16 -17 -26 -46q-10 -25 -18 -62t-8 -97v-332q0 -90 -33 -129.5t-102 -39.5h-97z" />
<glyph unicode="&#xe0f;" horiz-adv-x="1075" d="M54 0v105h76q20 3 24.5 18.5t4.5 35.5v342q0 49 7.5 86.5t17.5 64.5q10 32 26 54q-44 36 -78 64q-28 22 -52 42t-24 23q39 74 100 135q52 51 133.5 93.5t196.5 42.5q85 0 172 -18t159 -60.5t116.5 -109t44.5 -160.5v-899q0 -29 -4 -74.5t-26 -89.5t-71 -75.5t-142 -31.5 q-41 0 -78 18t-66 40q-33 29 -66 63l-87 -134l-100 134q-39 -34 -82 -60q-36 -23 -83.5 -41t-93.5 -18v102q43 0 88 19.5t84 42.5q47 28 87 65l100 -131l90 124q2 -4 16 -23t37 -41t56.5 -39t71.5 -17q46 0 73 16t42.5 38t19.5 46t4 44v870q0 95 -34.5 152.5t-88.5 89.5 t-118.5 42.5t-120.5 10.5q-74 0 -129 -26.5t-93 -58.5q-46 -36 -80 -81l151 -129q-15 -17 -25 -46q-10 -25 -17 -62t-7 -97v-332q0 -98 -35.5 -133.5t-104.5 -35.5h-92z" />
<glyph unicode="&#xe10;" horiz-adv-x="1036" d="M56 889q29 61 80 107q44 42 119 76t197 34q110 0 200 -34q26 8 61 21t65.5 32t51 44.5t20.5 61.5h130q0 -51 -20 -86.5t-54 -60t-72 -40t-74 -25.5q105 -74 161.5 -193.5t56.5 -259.5q0 -110 -29.5 -212.5t-87 -180.5t-144.5 -125.5t-202 -47.5h-129l-105 415 q-7 20 -19.5 21.5t-33.5 1.5h-47v104h98q59 0 77 -16t28 -37l112 -384q95 0 162 41.5t109 107.5t61.5 148t19.5 164q0 110 -34.5 192t-89.5 137t-127 82t-145 27q-94 0 -159 -36.5t-109 -78.5q-49 -51 -82 -117zM82 -430q64 0 108.5 19.5t75.5 41.5q34 29 59 61l90 -127 l89 127q0 -2 14 -21.5t38.5 -42t56.5 -40.5t71 -18q44 0 66 14t33 33t12 37t1 28v118h130v-115q0 -5 -1 -39.5t-20 -74.5t-64 -73t-132 -33q-59 0 -96 18t-63 41q-29 28 -46 61l-89 -133l-90 136q-20 -34 -54 -62q-29 -22 -75.5 -41.5t-113.5 -19.5v105z" />
<glyph unicode="&#xe11;" horiz-adv-x="1100" d="M56 1009v102q15 0 34.5 -10.5t37.5 -22.5q20 -16 38 -33q18 17 39 33q17 12 40.5 22.5t52.5 10.5q56 0 111 -38.5t55 -110.5q31 42 68 72q34 28 78.5 50t100.5 22q67 0 122.5 -33.5t93.5 -87.5t60 -120t22 -133v-732h-128v655q0 154 -55.5 237t-136.5 83q-67 0 -124 -38 t-105 -98t-84 -134.5t-60.5 -146.5t-37 -135.5t-12.5 -100.5v-17v-24v-281h-127v261q0 139 30.5 244.5t68.5 184t69 133.5t31 93q0 44 -27 64.5t-57 20.5q-15 0 -33.5 -11.5t-32.5 -24.5q-18 -15 -37 -36q-15 20 -31 39q-12 14 -29 27.5t-35 13.5z" />
<glyph unicode="&#xe12;" horiz-adv-x="1740" d="M56 552q0 152 27 258t72 173t105 96.5t126 29.5q18 0 42 -19.5t48 -41.5q29 -29 54 -59q29 31 56 59q23 22 48.5 41.5t44.5 19.5q66 0 122.5 -27t96.5 -72t61 -105t21 -126v-528q34 -43 78 -75q36 -28 89.5 -49.5t122.5 -21.5q85 0 133 22t73.5 61.5t32 100t6.5 136.5 v655h131v-731q0 -67 -15.5 -133.5t-51 -119t-94.5 -85.5t-146 -33q-98 0 -165.5 25.5t-111.5 55.5q-51 36 -82 85v-144h-130v779q0 85 -42.5 153.5t-123.5 68.5q-20 0 -47.5 -23t-50.5 -52q-28 -34 -56 -74q-29 42 -56 74q-23 29 -49 52t-46 23q-31 0 -65.5 -23t-63 -75.5 t-45.5 -138t-17 -212.5q0 -104 16 -191t51.5 -149.5t91 -97.5t132.5 -35q29 0 44 3t27 8q10 5 21 10v-102q-7 -6 -21 -10q-12 -6 -29 -8t-42 -2q-105 0 -184.5 44t-132 123.5t-79.5 183t-27 223.5z" />
<glyph unicode="&#xe13;" horiz-adv-x="1740" d="M56 835q39 74 100 135q52 51 135 93.5t200 42.5q88 0 174.5 -19t156 -62t113 -109t43.5 -158v-333q0 -76 6.5 -136.5t32 -100t72.5 -61.5t130 -22q71 0 126 22t94 49q46 32 76 75v829h129v-1080h-129v144q-36 -49 -86 -85q-44 -31 -113.5 -56t-165.5 -25q-85 0 -142.5 33 t-92 85.5t-50 118.5t-15.5 134v357q0 93 -33 149t-85.5 89.5t-117 45t-123.5 11.5q-73 0 -131 -26.5t-96 -58.5q-46 -36 -80 -81l154 -129q-16 -15 -26 -44q-10 -22 -16.5 -61.5t-6.5 -99.5v-345q0 -20 1 -34t22 -17h77v-105h-103q-76 0 -101.5 44t-25.5 125v332 q0 49 7.5 86.5t17.5 64.5q10 32 26 54q-44 36 -78 64q-28 22 -52 42t-24 23z" />
<glyph unicode="&#xe14;" horiz-adv-x="1075" d="M56 552q0 154 44 259t111.5 171t152 95t166.5 29t162 -18t144.5 -60.5t104 -109t39.5 -160.5v-758h-130v765q0 56 -27 100t-72 74.5t-102.5 46t-118.5 15.5t-123 -28t-110 -83t-78.5 -140t-30.5 -198q0 -102 16 -189t51.5 -149.5t91 -98.5t132.5 -36q29 0 44 3t27 8 q10 5 21 10v-105q-7 -5 -19 -10q-20 -7 -71 -7q-92 0 -170.5 39t-134.5 113.5t-88 181t-32 240.5z" />
<glyph unicode="&#xe15;" horiz-adv-x="1075" d="M56 552q0 152 27 258t72 173t105 96.5t126 29.5q29 0 54.5 -19.5t45.5 -41.5q23 -29 44 -59q20 31 46 59q20 22 47 41.5t56 19.5q56 0 109.5 -27t95.5 -72t69 -105t27 -126v-779h-130v779q0 41 -14.5 80.5t-37 71t-52.5 51t-60 19.5q-20 0 -45.5 -23t-51.5 -52 q-29 -34 -59 -74q-29 42 -56 74q-23 29 -49 52t-46 23q-31 0 -64.5 -23t-63 -75.5t-46.5 -137t-17 -210.5q0 -97 15 -183t49 -151t89 -103.5t138 -38.5q29 0 44 3t27 8q10 5 21 10v-102q-10 -6 -21 -10q-25 -10 -66 -10q-105 0 -185.5 44t-134.5 121t-81 182t-27 227z" />
<glyph unicode="&#xe16;" horiz-adv-x="1075" d="M56 835q39 74 100 135q52 51 132.5 93.5t197.5 42.5q85 0 172 -18t157.5 -60.5t116.5 -109t46 -160.5v-614q0 -36 -14 -60.5t-33 -44.5q-20 -23 -45 -39h-38v706q0 93 -34.5 150.5t-88.5 89.5t-118.5 43.5t-120.5 11.5q-74 0 -129 -26.5t-96 -58.5q-46 -36 -82 -81 l153 -129q-12 -15 -22 -44q-8 -22 -14.5 -61.5t-6.5 -99.5v-345q0 -20 3 -34t23 -17h74v-105h-84q-76 0 -111 38t-35 131v332q0 49 7.5 86.5t17.5 64.5q10 32 26 54q-44 36 -78 64q-28 22 -52 42t-24 23z" />
<glyph unicode="&#xe17;" horiz-adv-x="1061" d="M95 0v1080h130v-142q41 46 100 83q51 31 123 58t170 27q87 0 152 -35t108 -88.5t66.5 -120t23.5 -130.5v-732h-130v655q0 169 -69.5 244.5t-223.5 75.5q-71 0 -128.5 -22t-101.5 -49q-49 -32 -90 -72v-832h-130z" />
<glyph unicode="&#xe18;" horiz-adv-x="1061" d="M95 838q0 87 47.5 140t116.5 82.5t147 40t136 10.5q72 0 142.5 -15.5t129.5 -35.5q66 -22 128 -49v-102q-63 25 -131 46q-59 17 -129.5 33t-139.5 16q-38 0 -93 -2.5t-104.5 -19.5t-84.5 -50t-35 -94q0 -77 55 -105.5t137 -38.5t179.5 -17.5t179.5 -41.5t137 -108.5 t55 -216.5q0 -61 -22 -120.5t-72 -106.5t-132 -76t-202 -29q-39 0 -109 5t-139.5 36.5t-120.5 102t-51 200.5v196h131v-196q0 -90 32 -138t78.5 -71t96.5 -28.5t84 -5.5q69 0 124.5 19.5t94 52.5t58 74t19.5 85q0 118 -55 173t-137 76.5t-179.5 28t-179.5 25.5t-137 68 t-55 157z" />
<glyph unicode="&#xe19;" horiz-adv-x="1061" d="M95 349v736h130v-655q0 -76 13 -137t47.5 -102.5t90.5 -63.5t146 -22q67 0 124.5 22t101.5 49q48 32 90 73v836h130v-1085h-130v144q-44 -49 -100 -85q-52 -31 -122.5 -56t-167.5 -25q-88 0 -153 33t-109.5 86.5t-67.5 118.5t-23 133z" />
<glyph unicode="&#xe1a;" horiz-adv-x="1036" d="M95 366v714h130v-724q0 -44 12 -92.5t40 -90t72.5 -68t111.5 -26.5h108q63 0 111 26.5t76 68t41.5 90t13.5 92.5v724h131v-714q0 -74 -21.5 -144.5t-64 -124t-106.5 -86.5t-149 -33h-179q-84 0 -145.5 33t-101 86.5t-60 123.5t-20.5 145z" />
<glyph unicode="&#xe1b;" horiz-adv-x="1036" d="M95 366v714h130v-724q0 -44 12 -92.5t40 -90t71 -68t111 -26.5h107q64 0 111.5 26.5t77 68t43 90t13.5 92.5v1056h131v-1046q0 -74 -21.5 -144.5t-64 -124t-106.5 -86.5t-146 -33h-179q-85 0 -147.5 33t-104 86.5t-60 123.5t-18.5 145z" />
<glyph unicode="&#xe1c;" horiz-adv-x="1256" d="M95 832q0 34 3.5 77t17.5 81.5t45 64t85 25.5h99v-102l-69 -3q-20 0 -33 -17.5t-18 -40.5t-6 -47.5t-1 -39.5q-3 -115 17.5 -224.5t45.5 -195.5q29 -102 68 -192l235 566h56l232 -566q37 71 68 192q29 102 54 266t37 404h131q-20 -261 -56 -460.5t-75 -338.5 q-46 -161 -93 -281h-90l-239 576l-238 -576h-87q-54 125 -94 264q-36 117 -65.5 266t-29.5 302z" />
<glyph unicode="&#xe1d;" horiz-adv-x="1256" d="M95 832q0 34 3.5 77t18.5 81.5t46.5 64t85.5 25.5h96v-102l-69 -3q-20 0 -33 -17.5t-18 -40.5t-6 -47.5t-1 -39.5q0 -115 19 -224.5t44 -195.5q29 -102 68 -192l235 566h56l232 -566q44 120 80 300q29 153 54 380.5t25 545.5h131q0 -349 -35 -616t-77 -452 q-49 -215 -112 -376h-88l-239 579l-237 -579h-90q-54 125 -94 264q-36 117 -65.5 266t-29.5 302z" />
<glyph unicode="&#xe1e;" horiz-adv-x="1312" d="M18 1080h121l230 -801l242 801h83l241 -801l230 801h123l-308 -1080h-71l-257 862l-253 -862h-74z" />
<glyph unicode="&#xe1f;" horiz-adv-x="1415" d="M18 1080h121l230 -801l242 801h83l241 -801l335 1165h120l-410 -1444h-71l-257 865l-253 -865h-74z" />
<glyph unicode="&#xe20;" horiz-adv-x="1075" d="M54 0v105h76q20 3 23 17t3 34l3 345q0 49 7.5 86.5t17.5 64.5q10 32 26 54q-44 36 -78 64q-28 22 -52 42t-24 23q39 74 100 135q52 51 135 93.5t200 42.5q79 0 166.5 -18t158 -60.5t116.5 -109t46 -160.5v-614q0 -36 -14 -60.5t-33 -44.5q-20 -23 -45 -39h-38v706 q0 93 -34.5 150.5t-86 89.5t-115.5 43.5t-121 11.5q-76 0 -133.5 -26.5t-96.5 -58.5q-46 -36 -77 -81l154 -129q-16 -17 -26 -46q-10 -25 -18 -62t-8 -97v-332q0 -98 -34 -133.5t-111 -35.5h-87z" />
<glyph unicode="&#xe21;" horiz-adv-x="1061" d="M95 0v1080h130v-821q41 -47 93 -83q43 -31 102 -54.5t128 -23.5q156 0 223 78t67 244v660h130v-731q0 -69 -23.5 -136t-69 -119.5t-111 -84t-149.5 -31.5q-97 0 -170.5 25.5t-122.5 55.5q-58 36 -97 85v-144h-130z" />
<glyph unicode="&#xe22;" horiz-adv-x="997" d="M56 310q0 90 38 150t85 95q53 41 126 63q-64 12 -113 42q-43 29 -76.5 76.5t-33.5 123.5q0 71 25 118.5t63 75.5t81.5 40t78.5 12q46 0 77 -2.5t52 -7.5q22 -5 35 -11v-103q-13 3 -33 9q-17 5 -44.5 7.5t-67.5 2.5q-67 0 -102 -45t-35 -96q0 -82 79.5 -135.5t202.5 -53.5 v-105q-83 0 -139.5 -27t-94.5 -67t-55 -85t-17 -77q0 -46 11 -88.5t44 -74.5t89.5 -50t146.5 -18q85 0 142.5 26.5t90.5 68t46.5 90t13.5 92.5v724h132v-714q0 -74 -23 -144.5t-74.5 -124t-132 -86.5t-195.5 -33q-120 0 -200.5 23.5t-129.5 67t-71 105.5t-22 136z" />
<glyph unicode="&#xe23;" horiz-adv-x="882" d="M95 71v113q46 -32 97 -54q44 -20 104 -35.5t126 -15.5q67 0 113 19.5t73 52.5t38.5 74t11.5 85q0 76 -42 116t-104 63t-136 39.5t-135.5 48.5t-103.5 91.5t-42 166.5q0 66 30.5 117.5t79.5 85.5t111.5 51t123.5 17q74 0 131 -15.5t91 -32.5q44 -20 76 -47v-107 q-32 25 -78 48q-39 18 -93.5 33.5t-128.5 15.5q-39 0 -77.5 -10.5t-67.5 -30.5t-48.5 -51t-19.5 -71q0 -74 42.5 -114t103.5 -64.5t135.5 -42.5t136 -51.5t104 -92t42.5 -163.5q0 -61 -14.5 -121.5t-55 -107.5t-114 -75t-190.5 -28q-74 0 -132 13.5t-102 30.5q-49 20 -86 49 z" />
<glyph unicode="&#xe24;" horiz-adv-x="1075" d="M56 835q39 74 100 135q52 51 133.5 93.5t199.5 42.5q82 0 169 -18t157.5 -60.5t116.5 -109t46 -160.5v-1149q0 -37 -14 -61t-33 -44q-20 -23 -45 -39h-38v1241q0 93 -34.5 149t-86 89.5t-115.5 45t-121 11.5q-73 0 -131 -26.5t-99 -58.5q-46 -36 -82 -81l153 -129 q-12 -15 -22 -44q-8 -22 -14.5 -61.5t-6.5 -99.5v-345q0 -20 3 -34t23 -17h74v-105h-89q-74 0 -107.5 38t-33.5 131v332q0 49 7.5 86.5t17.5 64.5q10 32 26 54q-44 36 -78 64q-28 22 -52 42t-24 23z" />
<glyph unicode="&#xe25;" horiz-adv-x="972" d="M56 271q0 95 38 159t99 100t138 51t153 15q87 0 138.5 7.5t78.5 21.5q31 13 47 30v67q0 52 -14.5 102.5t-46.5 90.5t-82 64.5t-121 24.5q-88 0 -154 -34.5t-112 -78.5q-54 -49 -93 -110l-43 108q37 61 92 107q48 42 124 76t186 34q202 0 298 -106t96 -319v-681h-130v545 q-20 -17 -57 -27q-31 -13 -80.5 -21t-126.5 -8q-39 0 -90.5 -11.5t-97 -35.5t-77 -67t-31.5 -104q0 -53 18.5 -89t49 -59t69.5 -33.5t77 -10.5q57 0 87 9q17 4 31 10v-100q-12 -6 -31 -10q-15 -6 -36 -8t-45 -2q-352 0 -352 293z" />
<glyph unicode="&#xe26;" horiz-adv-x="1075" d="M54 0v105h76q20 3 23 17t3 34l3 345q0 49 7.5 86.5t17.5 64.5q10 32 26 54q-44 36 -78 64q-28 22 -52 42t-24 23q39 74 100 135q52 51 133.5 93.5t196.5 42.5q88 0 175 -18t157.5 -60.5t115 -109t44.5 -160.5v-1149q0 -37 -14 -61t-33 -44q-20 -23 -45 -39h-38v1241 q0 95 -34.5 152.5t-88.5 89.5t-118.5 42.5t-120.5 10.5q-74 0 -129 -26.5t-96 -58.5q-46 -36 -82 -81l153 -129q-12 -17 -22 -46q-10 -25 -17 -62t-7 -97v-332q0 -98 -34 -133.5t-108 -35.5h-90z" />
<glyph unicode="&#xe27;" horiz-adv-x="956" d="M56 92l42 106q28 -34 73 -59q37 -23 94 -41.5t134 -18.5q85 0 153 35t116 96t75 145.5t27 184.5q0 202 -100.5 318.5t-270.5 116.5q-77 0 -134 -13.5t-94 -32.5q-43 -20 -71 -45l-44 105q20 31 66 59q39 20 106 39t174 19q103 0 193.5 -36t158 -107.5t107.5 -177.5 t40 -245t-40 -244.5t-108.5 -176t-160 -106t-193.5 -35.5q-108 0 -173 17t-104 39q-46 25 -66 58z" />
<glyph unicode="&#xe28;" horiz-adv-x="1087" d="M95 0v758q0 84 38 149t101.5 109t145 67t168.5 23q43 0 82 -3.5t76 -17.5q25 10 52.5 24.5t50.5 31.5t38 40t15 50h132q0 -85 -54 -128t-112 -69q71 -44 118.5 -111.5t47.5 -164.5v-758h-132v758q0 61 -28 107t-71.5 75.5t-101 45t-113.5 15.5q-59 0 -116.5 -14.5 t-104 -43.5t-74.5 -75.5t-28 -109.5v-328q34 46 80 82q39 32 89.5 57t113.5 25v-130q-59 0 -111 -22t-89 -48q-47 -29 -83 -66v-328h-130z" />
<glyph unicode="&#xe29;" horiz-adv-x="1036" d="M95 366v714h130v-726q0 -44 12 -91.5t40 -89t71 -68t111 -26.5h107q64 0 110 26.5t77 68t44.5 90t13.5 92.5v184h-230v115h230v423h131v-423h77v-115h-77v-174q0 -68 -20.5 -137.5t-63 -124.5t-106 -90.5t-151.5 -35.5h-179q-87 0 -149.5 34t-102.5 90.5t-57.5 126 t-17.5 137.5z" />
<glyph unicode="&#xe2a;" horiz-adv-x="972" d="M56 271q0 95 40 159t101.5 100t139.5 51t154 15q88 0 136.5 7.5t76.5 21.5q28 13 41 30v67q0 52 -14.5 102.5t-45 90.5t-80.5 64.5t-121 24.5q-88 0 -154 -34.5t-112 -78.5q-54 -49 -96 -110l-40 108q37 61 92 107q48 42 124 76t186 34q28 0 56.5 -2.5t55.5 -11.5 q56 20 102.5 55t46.5 84h127q0 -73 -44 -117t-106 -69q79 -54 116 -146.5t37 -217.5v-681h-130v545q-17 -17 -51 -27q-29 -13 -77 -21t-126 -8q-39 0 -92.5 -10t-100.5 -34.5t-80.5 -67t-33.5 -106.5q0 -53 19 -89t50 -59t69.5 -33.5t76.5 -10.5q56 0 87 9q18 4 32 10v-98 q-13 -8 -29 -12q-15 -6 -37 -8t-50 -2q-344 0 -346 293z" />
<glyph unicode="&#xe2b;" horiz-adv-x="1010" d="M95 0v1080h130v-504l503 504h168l-356 -358q51 -10 116.5 -35t123.5 -71.5t97 -125t39 -192.5v-298h-130v261q0 113 -38.5 187t-91 118.5t-105 64t-80.5 24.5l-246 -250v-405h-130z" />
<glyph unicode="&#xe2c;" horiz-adv-x="1415" d="M18 1080h121l230 -806l242 806h83l241 -806l184 647q5 15 7.5 32t2.5 29q0 49 -25.5 84t-55.5 58q-37 28 -83 44q87 22 154 61q59 33 106 86t47 129h118q0 -98 -46 -153t-100 -82q-66 -34 -145 -44q46 -23 81 -51q31 -25 54.5 -64t16.5 -90q0 -18 -7 -44l-264 -916h-76 l-252 860l-250 -860h-77z" />
<glyph unicode="&#xe2d;" horiz-adv-x="1061" d="M54 386q0 76 22 116t98 40h215v-104h-167q-38 -6 -38 -39q-3 -54 10.5 -110.5t51.5 -103t103.5 -76.5t168.5 -30q94 0 162 35t110 96t62 145.5t20 184.5q0 98 -22 182t-67 145.5t-112 97.5t-151 36q-108 0 -172 -36t-99 -79q-44 -51 -65 -116h-128q18 92 74 168 q49 63 140 115.5t250 52.5q132 0 226 -51t150 -133t82 -183t26 -199q0 -149 -40 -255t-106.5 -175t-154.5 -100.5t-183 -31.5q-98 0 -183.5 25.5t-148.5 77t-98.5 128.5t-35.5 177z" />
<glyph unicode="&#xe2e;" horiz-adv-x="1061" d="M54 386q0 85 24 120.5t96 35.5h215v-104h-167q-38 0 -38 -39q-3 -54 11.5 -111.5t51.5 -103t102.5 -75.5t168.5 -30q94 0 162 35t111.5 96t62 145.5t18.5 184.5q0 98 -22 182t-67 145.5t-112 97.5t-151 36q-108 0 -173.5 -36t-100.5 -79q-44 -51 -62 -116h-128 q18 92 74 168q49 63 140 115.5t250 52.5q41 0 75.5 -5t62.5 -13q24 7 54 19t56 30t44 41t18 53h120q0 -43 -15.5 -75t-41 -55t-55 -38t-59.5 -27q61 -41 103 -98t69 -122.5t40 -137.5t13 -138q0 -149 -40 -255t-106.5 -175t-154.5 -100.5t-183 -31.5q-98 0 -183.5 25.5 t-148.5 77t-98.5 128.5t-35.5 177z" />
<glyph unicode="&#xe2f;" horiz-adv-x="972" d="M56 1080h132q28 -108 77.5 -169t156.5 -61q116 0 204 59t116 171h133v-714q0 -85 -6.5 -151t-29.5 -115t-68.5 -74.5t-125.5 -25.5v105q25 0 44.5 5t32.5 30.5t18 80.5t5 153v568q-29 -53 -74 -97q-39 -36 -99 -68t-142 -32q-154 0 -249.5 83t-124.5 252z" />
<glyph unicode="&#xe30;" horiz-adv-x="626" d="M95 349v66h120v-97q0 -34 20.5 -48t86.5 -14h206l-44 -102h-186q-100 0 -151.5 38t-51.5 157zM95 911v67h120v-94q0 -34 20.5 -48.5t86.5 -14.5h206l-44 -102h-184q-98 0 -151.5 37.5t-53.5 154.5z" />
<glyph unicode="&#xe31;" d="M-615 1470v66h121v-97q0 -34 21 -47.5t87 -13.5h445l-41 -106h-428q-108 0 -156.5 43.5t-48.5 154.5z" />
<glyph unicode="&#xe32;" horiz-adv-x="843" d="M56 906v105q29 25 69 47q36 17 86 32.5t117 15.5q68 0 142.5 -22t137.5 -70.5t102.5 -124t39.5 -183.5v-706h-130v681q0 85 -25.5 145t-70.5 98t-102.5 57.5t-121.5 19.5q-49 0 -92.5 -15.5t-77.5 -33.5q-41 -20 -74 -46z" />
<glyph unicode="&#xe33;" horiz-adv-x="843" d="M-481 1470q0 79 56 135t139 56q82 0 138 -56t56 -135q0 -82 -56.5 -140t-137.5 -58q-83 0 -139 58t-56 140zM-376 1468q0 -37 27 -63.5t63 -26.5t63.5 26.5t27.5 63.5q0 36 -28 63.5t-63 27.5q-36 0 -63 -27.5t-27 -63.5zM56 906v105q29 25 69 47q36 17 86 32.5t117 15.5 q68 0 142.5 -22t137.5 -70.5t102.5 -124t39.5 -183.5v-706h-130v681q0 85 -25.5 145t-70.5 98t-102.5 57.5t-121.5 19.5q-49 0 -92.5 -15.5t-77.5 -33.5q-41 -20 -74 -46z" />
<glyph unicode="&#xe34;" d="M-838 1272l42 110h647v-110h-689z" />
<glyph unicode="&#xe35;" d="M-838 1272l42 108h517v156h130v-264h-689z" />
<glyph unicode="&#xe36;" d="M-838 1272l44 108h342l-9 39q-3 69 43.5 119t115.5 50q58 0 105.5 -44t47.5 -113q0 -63 -41.5 -111t-111.5 -48h-536zM-359 1429q0 -20 15.5 -35.5t35.5 -15.5q23 0 40 15t17 36q0 22 -16.5 39t-40.5 17q-20 0 -35.5 -17t-15.5 -39z" />
<glyph unicode="&#xe37;" d="M-838 1272l42 108h317v156h113v-156h87v156h130v-264h-689z" />
<glyph unicode="&#xe38;" d="M-351 -190h102q74 0 115.5 -47t41.5 -122v-171h-130v171q0 23 -16 42t-41 19h-72v108z" />
<glyph unicode="&#xe39;" d="M-650 -190h98q82 0 121.5 -48t39.5 -131q0 -79 83 -79q86 0 86 79v179h130v-179q0 -36 -8 -69t-31 -58.5t-63.5 -40.5t-107.5 -15q-74 0 -118 16t-67 43t-29 62.5t-6 71.5q0 23 -15 42t-42 19h-71v108z" />
<glyph unicode="&#xe3a;" d="M-222 -190h130v-135h-130v135z" />
<glyph unicode="&#xe3f;" horiz-adv-x="960" d="M95 0v1234h245v217h124v-217q154 -5 239.5 -84.5t85.5 -199.5q0 -100 -60 -183t-163 -112q123 -20 211 -99.5t88 -206.5q0 -77 -29.5 -140t-83 -109t-128 -72t-160.5 -28v-212h-124v212h-245zM225 105h205q64 0 120 18t97.5 50t64.5 77t23 99q0 122 -90 188.5t-243 66.5 h-177v-499zM225 709h161q133 0 202.5 56t69.5 159q0 92 -58 148.5t-198 56.5h-177v-420z" />
<glyph unicode="&#xe40;" horiz-adv-x="383" d="M95 169v911h130v-924q0 -20 2.5 -34t23.5 -17h77v-105h-93q-76 0 -108 39.5t-32 129.5z" />
<glyph unicode="&#xe41;" horiz-adv-x="818" d="M95 169v911h130v-924q0 -20 2.5 -34t23.5 -17h77v-105h-87q-76 0 -111 38t-35 131zM518 169v911h130v-924q0 -20 2 -34t24 -17h76v-105h-88q-76 0 -110 38t-34 131z" />
<glyph unicode="&#xe42;" horiz-adv-x="518" d="M179 1431q0 115 79.5 165t269.5 50h207v-107h-197q-137 0 -182.5 -24.5t-45.5 -85.5q0 -37 7.5 -72.5t17.5 -81.5t18 -106t8 -140v-873q0 -20 2.5 -34t22.5 -17h78v-105h-88q-76 0 -111 35.5t-35 133.5v860q0 79 -7.5 139.5t-17.5 106.5t-18 83t-8 73z" />
<glyph unicode="&#xe43;" horiz-adv-x="672" d="M0 1559q15 29 46 53q29 20 74.5 38.5t120.5 18.5q157 0 238.5 -77t81.5 -243q0 -59 -8 -93.5t-18 -71t-17.5 -85.5t-7.5 -134v-811q0 -20 2.5 -34.5t22.5 -17.5h76v-102h-89q-73 0 -108 35.5t-35 133.5v796q0 76 7.5 130.5t18 97.5t18 80.5t7.5 75.5q0 127 -57.5 171 t-142.5 44q-51 0 -85.5 -17.5t-56.5 -38.5q-29 -26 -44 -57z" />
<glyph unicode="&#xe44;" horiz-adv-x="672" d="M0 1539v105q44 0 77 -12t57.5 -27t39 -30.5t18.5 -20.5q16 25 38 46q20 18 50 32t74 14q56 0 85.5 -28t42 -75.5t13.5 -111t1 -136.5v-1139q0 -20 2.5 -34t23.5 -17h77v-105h-89q-74 0 -109 35.5t-35 133.5v1126q0 25 1.5 71t-3.5 89t-20.5 69.5t-52.5 14.5 q-20 -8 -33.5 -27.5t-27.5 -39.5q-12 -22 -22 -48q-29 31 -62 56q-28 20 -65 39.5t-81 19.5z" />
<glyph unicode="&#xe45;" horiz-adv-x="843" d="M56 906v105q29 25 69 47q36 17 85 32.5t115 15.5q69 0 144.5 -22t138.5 -70.5t102.5 -124t39.5 -183.5v-1097q0 -37 -15.5 -61t-33.5 -44q-20 -23 -46 -39h-35v1216q0 164 -94 242t-226 78q-49 0 -92.5 -15.5t-77.5 -33.5q-41 -20 -74 -46z" />
<glyph unicode="&#xe46;" horiz-adv-x="997" d="M56 809q0 136 67 216.5t177 80.5q29 0 59 -19t59 -39q31 -29 61 -59q31 31 61 59q29 20 59.5 39t58.5 19q63 0 110.5 -24t77 -67t44 -96.5t14.5 -109.5v-1200q0 -37 -16 -61t-33 -44q-20 -23 -46 -39h-37v1293q0 48 -6 92t-21 77t-42 53.5t-71 20.5q-20 0 -47 -21.5 t-50 -50.5q-29 -31 -56 -71q-29 41 -57 71q-22 29 -47.5 50.5t-46.5 21.5q-67 0 -103.5 -57.5t-36.5 -134.5q0 -51 11 -85.5t23 -54.5q16 -25 39 -41l-43 -110q-47 14 -82 53q-31 34 -55.5 89.5t-24.5 148.5z" />
<glyph unicode="&#xe47;" d="M-816 1444q0 66 25.5 106t61 59.5t71.5 24.5t59 5h205q59 0 96 8.5t57 21.5q25 12 39 31v-102q-13 -16 -39 -27q-20 -10 -57 -16t-96 -6h-180q-76 0 -104 -30.5t-28 -74.5q0 -23 18.5 -52.5t62.5 -29.5q36 0 55.5 11.5t31.5 24.5q13 14 18 38h46q3 -22 13 -38 q7 -13 23 -24.5t44 -11.5q49 0 64 29.5t15 44.5h113q0 -74 -49 -119t-118 -45q-29 0 -51 6.5t-41 13.5q-20 10 -35 24q-15 -12 -39 -24q-20 -7 -48 -13.5t-67 -6.5q-22 0 -52 8t-54.5 28.5t-42 52t-17.5 83.5z" />
<glyph unicode="&#xe48;" d="M-222 1272v264h130v-264h-130z" />
<glyph unicode="&#xe49;" d="M-679 1429v107h161q39 0 71 -33t32 -72q0 -20 15.5 -35.5t35.5 -15.5h349l-41 -108h-366q-62 0 -96 34.5t-34 71.5q0 33 -16 42t-31 9h-80z" />
<glyph unicode="&#xe4a;" d="M-706 1368q0 68 48.5 118t117.5 50q29 0 50 -7.5t38 -18.5q14 -10 27 -25q10 15 29 25q12 10 35 18t51 8q74 0 110 -41t36 -90q0 -20 7.5 -22.5t20.5 -2.5h121l-41 -108h-108q-71 0 -93 28.5t-22 67.5q0 36 -15.5 56t-40.5 20q-34 0 -50.5 -24.5t-16.5 -51.5h-46 q0 24 -14 50t-53 26q-20 0 -42 -21t-22 -55q0 -44 24 -73q10 -13 23 -23h-128q-12 8 -24 20q-10 13 -16 30t-6 46z" />
<glyph unicode="&#xe4b;" d="M-351 1351v108h129v77h130v-77h126v-108h-126v-79h-130v79h-129z" />
<glyph unicode="&#xe4c;" d="M-448 1272v47q0 95 54 156t162 61h114l-41 -107h-46q-54 0 -83.5 -32t-29.5 -81v-44h-130z" />
<glyph unicode="&#xe4d;" d="M-481 1470q0 79 56 135t139 56q82 0 138 -56t56 -135q0 -82 -56.5 -138.5t-137.5 -56.5q-83 0 -139 56.5t-56 138.5zM-376 1468q0 -37 27 -63.5t63 -26.5t63.5 26.5t27.5 63.5q0 36 -28 63.5t-63 27.5q-36 0 -63 -27.5t-27 -63.5z" />
<glyph unicode="&#xe4e;" d="M-566 1362q0 77 55 128t145 51q0 83 53.5 122t187.5 39v-80q-39 0 -71 -1t-55 -16t-36 -49.5t-13 -101.5q-54 0 -99.5 -19t-45.5 -79q0 -41 17 -64q10 -12 20 -20h-134q-13 26 -18.5 47.5t-5.5 42.5z" />
<glyph unicode="&#xe4f;" horiz-adv-x="1138" d="M95 450q0 100 37 187.5t102.5 152.5t151 102t185.5 37t187 -37t152 -102t102.5 -152.5t37.5 -187.5t-37.5 -185.5t-102.5 -149.5t-152 -100.5t-187 -36.5t-185.5 36.5t-151 100.5t-102.5 150t-37 185zM228 450q0 -69 26.5 -131.5t74 -110t110 -74t132.5 -26.5 q71 0 134 26.5t109 74t73 110t27 131.5q0 71 -27 134.5t-73 109.5t-109 73t-134 27q-69 0 -132 -27t-110.5 -73t-74 -109t-26.5 -135zM338 450q0 49 18 91.5t50 74.5t74 50t91 18q98 0 165.5 -68t67.5 -166q0 -49 -18 -90.5t-50 -73.5t-74 -50t-91 -18q-97 0 -165 68 t-68 164z" />
<glyph unicode="&#xe50;" horiz-adv-x="1063" d="M56 450q0 100 37 187.5t101.5 151t151 100.5t186.5 37t186 -37t151.5 -100.5t102.5 -151t37 -187.5t-37 -185.5t-102.5 -149.5t-151.5 -100.5t-186 -36.5t-185.5 36.5t-151 100.5t-102.5 149.5t-37 185.5zM188 450q0 -76 26.5 -142.5t72 -116.5t109 -79.5t134.5 -29.5 t135.5 29.5t111.5 79.5t74 116.5t27 142.5t-27 144t-74 118t-111.5 79.5t-135.5 29.5t-134.5 -29.5t-109 -79.5t-72 -118t-26.5 -144z" />
<glyph unicode="&#xe51;" horiz-adv-x="1061" d="M56 542q0 72 32 141t92.5 124t145 88.5t189.5 33.5q97 0 185.5 -32t156 -97t108.5 -161.5t41 -226.5q0 -104 -45 -198t-123 -163t-182 -110t-221 -41h-12.5t-14.5 2l30 100h10q76 0 152 31t137.5 86t99.5 130.5t38 162.5q0 106 -28 182.5t-78 127t-115 75t-139 24.5 q-97 0 -160.5 -31.5t-100 -76t-51.5 -92t-15 -79.5q0 -43 13.5 -85t35.5 -74t51.5 -51.5t60.5 -19.5q66 0 91.5 28.5t25.5 71.5v49h130v-46q0 -34 -11 -70.5t-39 -67.5t-77 -51.5t-120 -20.5q-54 0 -106.5 23t-93.5 66.5t-67 106.5t-26 141z" />
<glyph unicode="&#xe52;" horiz-adv-x="1330" d="M18 1334v105h38q95 0 152.5 -35.5t90.5 -89.5t45 -118.5t12 -120.5v-786q0 -64 24.5 -103.5t59 -61.5t73.5 -29t68 -7h335q34 0 73.5 7t74.5 30.5t57.5 64t22.5 110.5v289q0 41 -9 80.5t-27 70t-47.5 50t-66.5 19.5q-29 0 -51 -15t-37 -36q-17 -23 -31 -52q-15 29 -30 52 q-15 20 -34.5 35.5t-48.5 15.5q-58 0 -95 -34.5t-37 -83.5q0 -59 22 -93t54 -52t68.5 -24.5t65.5 -6.5v-105q-44 0 -102.5 10t-112.5 40.5t-91.5 87t-37.5 148.5q0 34 14.5 74.5t42.5 75.5t70 57.5t99 22.5q39 0 66.5 -8.5t49.5 -21.5q22 -12 40 -31q12 17 36 31 q17 13 46 21.5t66 8.5q64 0 110 -29t77 -78t46.5 -109t15.5 -121v-277q0 -94 -29.5 -158t-74.5 -104t-101 -56t-110 -16h-408q-56 0 -114.5 16t-107.5 56t-79.5 104t-30.5 158v770q0 42 -6 85.5t-28 80.5t-61.5 61.5t-106.5 24.5z" />
<glyph unicode="&#xe53;" horiz-adv-x="1317" d="M56 456q0 238 86 355.5t229 117.5q77 0 130.5 -34.5t89.5 -78.5q41 -48 64 -110q23 62 64 110q33 44 87 78.5t132 34.5q141 0 232.5 -115t91.5 -358q0 -107 -19 -191t-42 -143q-29 -68 -62 -122h-133q34 51 62 120q22 59 42.5 144t20.5 192q0 72 -13.5 138t-40.5 116 t-68 80.5t-95 30.5q-36 0 -73 -24.5t-65 -71t-46.5 -120t-18.5 -167.5h-105q0 87 -17.5 159t-47 121.5t-66.5 76t-73 26.5q-84 0 -151 -90.5t-67 -274.5q0 -71 17 -139t51 -120.5t84 -85t116 -32.5q44 0 70 13q13 6 23 13v-107q-13 -6 -27 -10q-13 -6 -30 -8t-38 -2 q-79 0 -150.5 35.5t-125.5 99t-86 151t-32 192.5z" />
<glyph unicode="&#xe54;" horiz-adv-x="1280" d="M56 438q0 87 26 170t72 148t111 105t147 40h436q41 0 77.5 7.5t65 28.5t46.5 60t18 104v338l130 2v-312q0 -95 -24.5 -159t-66.5 -103t-99 -56t-125 -17h-462q-54 0 -95.5 -33t-69.5 -84.5t-41.5 -114.5t-13.5 -124q0 -59 12 -118t38 -105t64 -75.5t92 -29.5l471 -5 q-71 39 -125 93q-49 46 -87 116t-38 165h135q0 -83 32 -150.5t78 -117.5t100 -78t98 -28h127v-105h-775q-90 0 -155 37t-110 97.5t-67 140t-22 163.5z" />
<glyph unicode="&#xe55;" horiz-adv-x="1280" d="M56 438q0 87 24.5 170t71 148t112.5 105t148 40h130q-17 35 -17 84q0 83 57.5 140t139.5 57q83 0 140 -57t57 -140q0 -46 -15 -84q58 8 104.5 46t46.5 141v351h127v-313q0 -95 -21.5 -158.5t-61 -101.5t-93.5 -55t-117 -17h-481q-54 0 -95.5 -33t-71 -84.5t-43.5 -114.5 t-14 -124q0 -62 13 -120.5t40 -106t67.5 -77t97.5 -29.5h463q-71 39 -125 93q-49 46 -87 116t-38 165h133q0 -83 30.5 -150.5t78 -117.5t102.5 -78t101 -28h122v-105h-774q-88 0 -153 35.5t-110 96t-67 140t-22 166.5zM645 989q0 -34 22 -56t55 -22h8q29 5 49 26t20 52 t-23.5 53.5t-53.5 22.5q-33 0 -55 -22.5t-22 -53.5z" />
<glyph unicode="&#xe56;" horiz-adv-x="1458" d="M18 1334v107h53q123 0 200.5 -66t129 -172.5t88 -237t77.5 -259.5q29 62 76 110q44 42 111.5 76t172.5 34q110 0 199 -34t150 -94t94 -143.5t33 -178.5q0 -105 -31.5 -196.5t-93 -158.5t-150 -105t-201.5 -38q-141 0 -253 75t-163 206h128q17 -44 50.5 -77t73 -56.5 t83.5 -35t81 -11.5q74 0 137 30t109.5 82.5t73 125t26.5 159.5q0 66 -23 129.5t-68 110t-108.5 76t-146.5 29.5q-68 0 -121 -22.5t-91 -61t-63.5 -90t-39.5 -107.5h-135q-56 210 -100 360t-92.5 245.5t-110 142t-155.5 46.5z" />
<glyph unicode="&#xe57;" horiz-adv-x="1715" d="M56 456q0 118 26 202t68 138t95 79.5t104 25.5q73 0 126 -31.5t87 -70.5t51 -74.5t19 -43.5q0 5 16.5 39.5t50 76t87.5 73t128 31.5q54 0 106 -24.5t95 -78t69.5 -138t26.5 -204.5q0 -107 -21.5 -199.5t-48.5 -154.5q31 3 67 15.5t66.5 39.5t52.5 72t22 111v771 q0 49 11.5 106.5t43.5 107.5t91 83t154 33h36v-107q-66 0 -107.5 -18t-63.5 -47.5t-28 -66.5t-6 -78v-770q0 -95 -29.5 -162t-77 -109t-105 -62.5t-113.5 -20.5h-197q33 51 61 120q22 59 41.5 144t19.5 192q0 72 -10 134t-32 108.5t-59 72t-90 25.5q-37 0 -75 -19t-69 -57.5 t-51 -96t-20 -134.5h-80q0 66 -21 123t-51.5 97.5t-68.5 63.5t-77 23q-82 0 -135 -78t-53 -262q0 -71 16 -139t49 -120.5t83 -85t120 -32.5q20 0 37 3t29 8q13 5 23 12v-104q-10 -6 -23 -10q-12 -6 -30 -8t-40 -2q-73 0 -145 33t-128.5 95.5t-89.5 150.5t-33 199z" />
<glyph unicode="&#xe58;" horiz-adv-x="1280" d="M56 456q0 83 27 163t81 142.5t134.5 101t187.5 38.5h359q41 0 78 7.5t65 28.5t46 60t18 104v338h130v-320q0 -177 -86.5 -250t-223.5 -73h-393q-67 0 -120.5 -29t-92 -78t-60.5 -111.5t-22 -129.5q0 -72 13 -138t41 -117.5t69.5 -82.5t100.5 -31q46 0 79 24.5t53 55.5 q25 33 44 79q25 -47 64 -79q33 -31 83 -55.5t121 -24.5q32 0 67.5 9.5t66 31t50 57t19.5 92.5v66h127v-66q0 -83 -26.5 -139t-73 -90.5t-106.5 -48t-124 -13.5q-71 0 -121 17t-83 39q-39 25 -64 58q-18 -33 -46 -58q-26 -20 -63 -38t-96 -18q-54 0 -111.5 29t-105 88 t-77 149.5t-29.5 211.5z" />
<glyph unicode="&#xe59;" horiz-adv-x="1561" d="M56 456q0 118 34.5 206t87 148t117 89.5t123.5 29.5q87 0 139 -34.5t93 -73.5q31 88 87.5 135.5t130.5 47.5q56 0 99.5 -28t83 -63t77 -63.5t81.5 -28.5q63 0 95 86.5t32 218.5v313h132v-313q0 -78 -13.5 -152.5t-43 -131t-75.5 -90t-115 -33.5q-73 0 -122 28.5t-88 61.5 t-70.5 61.5t-72.5 28.5q-39 0 -68.5 -14.5t-48.5 -35.5t-29.5 -47t-10.5 -50q0 -17 3 -24l41 -142q10 -34 23 -80.5t32.5 -117t45 -165.5t60.5 -223h-117l-177 632q-7 26 -22.5 61t-41.5 64t-62.5 50t-90.5 21q-36 0 -73 -23.5t-70.5 -71t-53.5 -116.5t-20 -161 q0 -68 13.5 -136.5t44 -122t78 -86t116.5 -32.5q36 0 61 11q10 5 19 12v-104q5 2 -15.5 -9t-59.5 -11q-76 0 -146.5 33t-124.5 95.5t-86 150.5t-32 199z" />
<glyph unicode="&#xe5a;" horiz-adv-x="1280" d="M56 1080h132q28 -108 77.5 -169t159.5 -61q113 0 201 59t116 171h133v-714q0 -92 -7.5 -159.5t-33 -114t-70.5 -69.5t-119 -23v105q25 0 44.5 5t32.5 30.5t18 78t5 147.5v576q-29 -53 -74 -97q-39 -36 -97.5 -68t-141.5 -32q-153 0 -250 83t-126 252zM1036 0v1080h129 v-1080h-129z" />
<glyph unicode="&#xe5b;" horiz-adv-x="1803" d="M95 435q0 103 32 192t90.5 157t140.5 106.5t180 38.5q68 0 124.5 -14t99 -37t73 -51t51.5 -59q49 -72 64 -162h-126q-15 62 -52 108q-31 41 -86.5 74t-147.5 33q-69 0 -126.5 -31.5t-99 -85.5t-64.5 -123t-23 -146q0 -71 22 -135.5t64.5 -112.5t102.5 -78t134 -30 q66 0 117 19.5t87 42.5q42 29 69 61l134 -128l100 128l115 -128l105 126q29 -34 56 -61q25 -23 56.5 -41.5t66.5 -18.5q36 0 59 11.5t37 28.5t19.5 33.5t5.5 28.5q0 31 -7 54.5t-14 38.5q-10 17 -20 28h132q10 -12 22 -28q7 -13 14.5 -34.5t7.5 -51.5q0 -18 -5 -54 t-28 -70.5t-67 -60t-120 -25.5q-49 0 -88.5 17t-67.5 39q-34 25 -62 58l-104 -126l-118 126l-100 -126l-134 126q-31 -33 -71 -58q-36 -20 -85 -38t-112 -18q-93 0 -176 35.5t-144.5 98t-97 145.5t-35.5 178z" />
<glyph unicode="&#x2000;" horiz-adv-x="1152" />
<glyph unicode="&#x2001;" horiz-adv-x="2304" />
<glyph unicode="&#x2002;" horiz-adv-x="1152" />
<glyph unicode="&#x2003;" horiz-adv-x="2304" />
<glyph unicode="&#x2004;" horiz-adv-x="768" />
<glyph unicode="&#x2005;" horiz-adv-x="576" />
<glyph unicode="&#x2006;" horiz-adv-x="384" />
<glyph unicode="&#x2007;" horiz-adv-x="384" />
<glyph unicode="&#x2008;" horiz-adv-x="288" />
<glyph unicode="&#x2009;" horiz-adv-x="460" />
<glyph unicode="&#x200a;" horiz-adv-x="128" />
<glyph unicode="&#x2010;" horiz-adv-x="665" d="M95 486v110h476v-110h-476z" />
<glyph unicode="&#x2011;" horiz-adv-x="665" d="M95 486v110h476v-110h-476z" />
<glyph unicode="&#x2012;" horiz-adv-x="665" d="M95 486v110h476v-110h-476z" />
<glyph unicode="&#x2013;" horiz-adv-x="933" d="M95 486v110h745v-110h-745z" />
<glyph unicode="&#x2014;" horiz-adv-x="1420" d="M95 486v110h1231v-110h-1231z" />
<glyph unicode="&#x2018;" horiz-adv-x="320" d="M95 921v144q0 54 25.5 104t58.5 89q39 46 87 81h95q-41 -49 -70 -95q-25 -42 -45.5 -88.5t-20.5 -90.5v-144h-130z" />
<glyph unicode="&#x2019;" horiz-adv-x="320" d="M-41 921q39 47 66 93q25 41 47.5 88.5t22.5 89.5v147h130v-147q0 -56 -27 -104.5t-59 -83.5q-39 -44 -85 -83h-95z" />
<glyph unicode="&#x201c;" horiz-adv-x="601" d="M95 921v144q0 54 25.5 104t58.5 89q39 46 87 81h103q-41 -49 -71 -95q-29 -42 -49.5 -88.5t-20.5 -90.5v-144h-133zM356 921v144q0 54 26 104t58 89q36 46 85 81h103q-42 -49 -70 -95q-29 -42 -49 -88.5t-20 -90.5v-144h-133z" />
<glyph unicode="&#x201d;" horiz-adv-x="601" d="M-41 921q39 47 66 93q25 41 47.5 88.5t22.5 89.5v147h133v-147q0 -56 -27 -104.5t-57 -83.5q-39 -44 -85 -83h-100zM215 921q39 47 69 93q28 41 50 88.5t22 89.5v147h133v-147q0 -56 -27 -104.5t-60 -83.5q-38 -44 -84 -83h-103z" />
<glyph unicode="&#x2022;" horiz-adv-x="631" d="M95 545q0 95 65 159t158 64q94 0 158 -64t64 -159q0 -93 -64 -158t-158 -65q-93 0 -158 65t-65 158z" />
<glyph unicode="&#x2026;" horiz-adv-x="1395" d="M95 0v136h130v-136h-130zM632 0v136h130v-136h-130zM1170 0v136h130v-136h-130z" />
<glyph unicode="&#x202f;" horiz-adv-x="460" />
<glyph unicode="&#x205f;" horiz-adv-x="576" />
<glyph unicode="&#x20ac;" horiz-adv-x="1266" d="M95 425v115h127v64v38t3 39h-130v118h149q46 210 204 336.5t392 126.5q82 0 175.5 -9t154.5 -37l-44 -107q-74 36 -139.5 41t-146.5 5q-174 0 -296 -95t-170 -261h517v-118h-535q-2 -20 -2 -38v-39v-33.5t2 -30.5h484v-115h-469q44 -161 164 -253.5t305 -92.5 q49 0 85.5 4.5t68.5 13t64 21t68 33.5l44 -107q-74 -44 -162.5 -55t-183.5 -11q-230 0 -382.5 118.5t-203.5 328.5h-143z" />
<glyph unicode="&#x2122;" horiz-adv-x="990" d="M95 1204v37h294v-37h-120v-393h-49v393h-125zM452 811v430h68l151 -355l164 355h56v-430h-39v364l-168 -364h-26l-159 364v-364h-47z" />
<glyph unicode="&#x25fc;" horiz-adv-x="895" d="M0 0v896h896v-896h-896z" />
<glyph horiz-adv-x="1036" d="M56 889q29 61 80 107q44 42 119 76t197 34q110 0 200 -34q26 8 61 21t65.5 32t51 44.5t20.5 61.5h130q0 -51 -20 -86.5t-54 -60t-72 -40t-74 -25.5q105 -74 161.5 -193.5t56.5 -259.5q0 -110 -29.5 -212.5t-87 -180.5t-144.5 -125.5t-202 -47.5h-129l-105 415 q-7 20 -19.5 21.5t-33.5 1.5h-47v104h98q59 0 77 -16t28 -37l112 -384q95 0 162 41.5t109 107.5t61.5 148t19.5 164q0 110 -34.5 192t-89.5 137t-127 82t-145 27q-94 0 -159 -36.5t-109 -78.5q-49 -51 -82 -117z" />
<glyph horiz-adv-x="1740" d="M56 835q39 74 100 135q52 51 133.5 93.5t201.5 42.5q83 0 170 -18t157.5 -60.5t115 -109t44.5 -160.5v-402q0 -44 9 -92.5t32 -90t64 -68t105 -26.5h107q64 0 107.5 26.5t68 68t34.5 90t10 92.5v724h131v-714q0 -74 -18 -144.5t-55 -124t-95.5 -86.5t-143.5 -33h-205 q-88 0 -143 34t-85.5 89t-40.5 126t-10 139v340q0 93 -34.5 150.5t-88 89.5t-118 43.5t-120.5 11.5q-74 0 -129 -26.5t-96 -58.5q-46 -36 -83 -81l151 -129q-12 -17 -22 -46q-8 -25 -14.5 -62t-6.5 -97v-345q0 -20 3 -34t23 -17h74v-105h-91q-67 0 -103 35.5t-36 133.5v332 q0 49 7.5 86.5t17.5 64.5q10 32 26 54q-44 36 -78 64q-28 22 -52 42t-24 23z" />
<glyph d="M-884 1444q0 66 26 106t62 59.5t73 24.5t58 5h153q58 0 94.5 8.5t58.5 21.5q25 12 41 33l-2 -104q-12 -16 -39 -27q-20 -10 -56.5 -16t-96.5 -6h-128q-76 0 -103 -30.5t-27 -74.5q0 -23 9 -52.5t45 -29.5q28 0 44.5 11.5t23.5 24.5q10 14 10 38h49q5 -22 15 -38 q8 -13 22 -24.5t40 -11.5q46 0 64 27t18 47h112q0 -68 -48.5 -116t-119.5 -48q-29 0 -52 6.5t-41 13.5q-20 10 -36 24q-10 -12 -25 -24q-15 -7 -39.5 -13.5t-62.5 -6.5q-16 0 -40 8t-46 28.5t-39 52t-17 83.5z" />
<glyph d="M-499 1912h164q39 0 71 -31.5t32 -70.5q0 -20 15 -35.5t36 -15.5h215l-39 -108h-241q-59 0 -93.5 33.5t-34.5 71.5q0 34 -15.5 43t-30.5 9h-76z" />
<glyph d="M-601 1756q0 69 48.5 119t122.5 50q25 0 42 -7.5t27 -17.5q11 -11 19 -24q4 13 14 24q10 10 26 17.5t43 7.5q74 0 112.5 -38t36.5 -89q0 -20 7.5 -23.5t20.5 -3.5h116l-39 -107h-103q-71 0 -91.5 32t-20.5 70q0 32 -17 49t-34 17q-25 0 -36 -24t-11 -52h-51 q0 25 -11 50.5t-32 25.5q-20 0 -39.5 -20t-19.5 -56q0 -44 23 -71q10 -13 26 -21h-133q-13 7 -24 21q-22 29 -22 71z" />
<glyph horiz-adv-x="1791" d="M56 835q39 74 100 135q52 51 133.5 93.5t199.5 42.5q61 0 124 -9t120.5 -30.5t106.5 -54t84 -77.5q10 17 32 46.5t60.5 56.5t95 47.5t134.5 20.5q69 0 145.5 -22t138.5 -70.5t101.5 -124t39.5 -183.5v-1097q0 -37 -15 -61t-34 -44q-20 -23 -44 -39h-37v1216 q0 164 -93.5 242t-226.5 78q-92 0 -142 -35t-72 -78t-25.5 -80.5t-3.5 -39.5v-1159q0 -37 -14 -61t-33 -44q-20 -23 -45 -39h-38v1241q0 93 -34.5 149t-86 89.5t-115.5 45t-121 11.5q-73 0 -131 -26.5t-99 -58.5q-46 -36 -82 -81l153 -129l-6 -8q-6 -9 -13.5 -33.5 t-15.5 -64t-8 -99.5v-345q0 -51 32.5 -51h67.5v-105h-89q-74 0 -107.5 38t-33.5 131v332q0 49 7.5 86.5t17.5 64.5q10 32 26 54q-44 36 -78 64q-28 22 -52 42t-24 23z" />
<glyph horiz-adv-x="1791" d="M54 0v105h76q15 3 22 22t7 47t-1.5 57.5t-1.5 52.5l3 217q0 49 7.5 86.5t17.5 64.5q10 32 26 54q-44 36 -78 64q-28 22 -52 42t-24 23q39 74 100 135q52 51 133.5 93.5t196.5 42.5q62 0 126 -9t121.5 -30.5t107.5 -54t83 -77.5q10 17 32 46.5t60.5 58t95 47.5t134.5 19 q69 0 145.5 -22t138.5 -70.5t101.5 -124t39.5 -183.5v-1097q0 -37 -15 -61t-34 -44q-20 -23 -44 -39h-37v1216q0 164 -93.5 242t-226.5 78q-115 0 -167.5 -48.5t-69 -108.5t-11.5 -112.5t5 -57.5v-1065q0 -37 -14 -61t-33 -44q-20 -23 -45 -39h-38v1241q0 95 -34.5 152.5 t-88.5 89.5t-118.5 42.5t-120.5 10.5q-74 0 -129 -26.5t-96 -58.5q-46 -36 -82 -81l153 -129q-12 -17 -22 -46q-10 -25 -17 -62t-7 -97v-332q0 -98 -34 -133.5t-108 -35.5h-90z" />
</font>
</defs>
</svg>
