<?xml version="1.0" standalone="no"?>
<!DOCTYPE svg PUBLIC "-//W3C//DTD SVG 1.1//EN" "http://www.w3.org/Graphics/SVG/1.1/DTD/svg11.dtd" >
<svg xmlns="http://www.w3.org/2000/svg" xmlns:xlink="http://www.w3.org/1999/xlink" version="1.1">
<metadata></metadata>
<defs>
<font id="thaisans_neueXBdIt" horiz-adv-x="0" >
<font-face units-per-em="2048" ascent="1561" descent="-487" />
<missing-glyph horiz-adv-x="823" />
<glyph unicode="&#x3b;&#x3b;arm&#x3b;&#x3b;" horiz-adv-x="2672" d="M95 1588v102h409v205q-29 0 -56.5 16.5t-49.5 44.5t-34.5 65.5t-12.5 77.5q0 46 17.5 83.5t45.5 64.5t66 42t75 15q97 0 151 -54t54 -151q0 -34 -10 -69.5t-29.5 -65t-47.5 -48t-67 -21.5v-205h410v-102h-410v-308l275 -615h-102l-224 513l-223 -513h-102l274 615v308 h-409zM198 0q0 29 10 60.5t31.5 58.5t55 43.5t81.5 16.5q76 0 127.5 -51.5t51.5 -127.5q0 -18 -8.5 -64t-60.5 -82l56 -262l142 283h51l140 -283l90 536h127l-40 -216l28 52l166 38q0 133 16 226.5t46.5 150t79 82t114.5 25.5q77 0 115.5 -51t38.5 -127h-51q0 38 -19.5 70 t-56.5 32q-98 0 -139 -95t-41 -286l187 45l23 -94l-210 -54v-102q0 -154 -7.5 -281t-37 -219t-86 -142t-150.5 -50q-77 0 -128 38.5t-51 115.5h51q0 -38 32 -57.5t70 -19.5q77 0 118 46t60 126.5t22.5 193.5t3.5 249v76l-204 -51l-87 -460h-66l-180 383l-179 -383h-66 l-83 409l47 31q-6 -3 -16 -3q-10 -2 -36 -2q-22 0 -54.5 8.5t-59.5 29t-45.5 54t-18.5 84.5zM300 0q0 -29 19 -51.5t57 -22.5q76 0 76 74q0 76 -76 76q-38 0 -57 -22.5t-19 -53.5zM452 2099q0 -39 22 -71t81 -32t81 32.5t22 70.5q0 59 -32 80.5t-71 21.5t-71 -21.5 t-32 -80.5zM1042 665l583 1587h441l512 -1587h-409l-157 487h-688l-180 -487h-102zM1375 1280h594l-279 870zM1705 51l51 257h76l-76 -257h-51zM1776 2176l34 -100l59 100h-93zM1828 2030l21 -71l132 217h-63zM1832 51l52 257h77l-77 -257h-52zM1866 1910l29 -92l143 241 l-28 86zM1920 1741l15 -51l144 238l-15 51zM1956 1629l15 -51l144 237l-16 51zM1989 -254q0 95 23 183.5t64.5 155t97.5 107t122 40.5q136 0 209 -93t73 -264q0 -251 -89.5 -368.5t-243.5 -117.5q-49 0 -95 20t-82 62.5t-57.5 110t-21.5 164.5zM1994 1510l16 -51l142 236 l-17 54zM2028 1408l17 -62l144 239l-18 61zM2064 1290l17 -51l141 239l-13 51zM2091 -202l359 153q-5 49 -20 88q-15 33 -45 61t-89 28q-66 0 -107 -53t-61 -114q-26 -71 -37 -163zM2091 -330q0 -29 9.5 -60.5t28.5 -58.5t48 -44t68 -17q76 0 117.5 51t61.5 117 q22 71 26 166zM2099 1175l16 -41l143 234l-13 48zM2132 1075l16 -41l143 236l-15 44zM2166 972l15 -48l147 234l-17 53zM2199 870l19 -59l142 241l-18 57zM2232 768l8 -26h34l120 203l-18 61zM2314 742h51l63 106l-19 51zM2406 742h52l-18 57z" />
<glyph unicode="&#xd;" horiz-adv-x="823" />
<glyph unicode=" "  horiz-adv-x="823" />
<glyph unicode="&#x09;" horiz-adv-x="823" />
<glyph unicode="&#xa0;" horiz-adv-x="823" />
<glyph unicode="!" horiz-adv-x="447" d="M95 0l54 256h259l-54 -256h-259zM174 379l220 1040h261l-223 -1040h-258z" />
<glyph unicode="&#x22;" horiz-adv-x="806" d="M289 921l105 495h248l-104 -495h-249zM658 921l102 495h251l-105 -495h-248z" />
<glyph unicode="#" horiz-adv-x="1535" d="M171 371l110 225h195l79 162h-194l105 227h199l173 354h258l-172 -354h248l172 354h258l-173 -354h220l-110 -227h-218l-80 -162h223l-115 -225h-218l-176 -371h-259l176 371h-244l-180 -371h-258l176 371h-195zM735 596h247l80 162h-248z" />
<glyph unicode="$" horiz-adv-x="1112" d="M112 100l49 215q57 -31 123 -56q56 -20 125.5 -38.5t142.5 -18.5q69 0 122.5 16.5t87.5 44.5t55 64.5t28 71.5q15 71 -25.5 112t-109 70.5t-149 56.5t-144 72t-98.5 115.5t-9 188.5q15 66 53.5 123.5t93.5 101t125 74.5t148 43l42 198h254l-44 -195q64 -8 111.5 -23 t78.5 -31q37 -17 62 -37l-44 -216q-46 23 -105 40q-51 16 -121 30t-160 14q-32 0 -70 -8.5t-72 -25.5t-61 -38.5t-32 -47.5q-13 -56 29 -89t110 -61t149 -59t143 -81t95.5 -127t8.5 -200q-15 -67 -45 -132t-80 -120t-121.5 -96t-166.5 -59l-43 -204h-252l42 192 q-77 0 -135.5 17.5t-102.5 41.5q-49 29 -88 61z" />
<glyph unicode="%" horiz-adv-x="1571" d="M230 0l1265 1629h281l-1264 -1629h-282zM316 951q-4 73 14 158q18 90 56.5 166t90 131t113.5 87.5t132 32.5q133 0 188 -112t19 -283q-20 -90 -57 -166t-89.5 -132.5t-115.5 -89t-135 -32.5q-68 0 -115.5 30.5t-72 83.5t-28.5 126zM566.5 967.5q2.5 -17.5 10 -21.5 t14.5 -4q10 0 19.5 5t19.5 23.5t22 53t24 92.5q23 110 18 144.5t-25 34.5q-25 0 -44 -34.5t-41 -146.5q-13 -59 -16.5 -94t-1 -52.5zM958 351q17 90 54.5 167.5t88.5 135t115 90t138 32.5q132 0 186.5 -113t15.5 -289q-17 -88 -57 -161.5t-91.5 -128.5t-112.5 -86.5 t-125 -31.5q-139 0 -194 107.5t-18 277.5zM1194.5 237q0.5 -45 24.5 -45q47 0 86 169q17 88 16.5 137.5t-26.5 49.5q-46 0 -84 -187q-17 -79 -16.5 -124z" />
<glyph unicode="&#x26;" horiz-adv-x="1522" d="M170.5 191q-19.5 73 0.5 175q31 142 124.5 233.5t246.5 158.5q-51 38 -85.5 109t-14.5 167q16 68 58 129t103.5 106t139.5 70.5t163 25.5q83 0 146.5 -25.5t104.5 -68t57.5 -97.5t4.5 -114q-13 -59 -38.5 -102.5t-62 -79.5t-85 -66.5t-104.5 -63.5q49 -44 79.5 -71 t51 -51.5t37.5 -50t39 -63.5q44 59 74.5 109t52.5 95.5t37.5 90.5t28.5 94l22 84h261q-20 -74 -54 -162t-81.5 -178t-105 -175.5t-125.5 -157.5q29 -43 80.5 -62.5t148.5 -19.5l-46 -230q-130 0 -234.5 32t-146.5 98q-118 -79 -235 -115.5t-258 -36.5q-100 0 -180 22 t-132.5 70t-72 121zM430 366q-12 -54 1.5 -85.5t41.5 -48.5t63.5 -22t69.5 -5q56 0 99 6.5t78.5 20.5t71.5 33t80 45q-29 54 -51 97t-48.5 82t-65 70.5t-96.5 62.5q-36 -17 -73 -36.5t-71 -47.5t-61 -69t-39 -103zM701 1034q-12 -66 8.5 -103t48.5 -61q97 39 143.5 85 t53.5 87q7 42 -22 64.5t-75 22.5q-74 0 -113 -33.5t-44 -61.5z" />
<glyph unicode="'" horiz-adv-x="447" d="M289 921l105 495h258l-104 -495h-259z" />
<glyph unicode="(" horiz-adv-x="685" d="M152 51q-40 210 14 469q59 271 197 498.5t328 407.5h277q-96 -92 -184 -199.5t-161 -224t-128 -238.5t-80 -242q-29 -132 -26.5 -252.5t29.5 -230.5t72 -209t101 -189h-276q-123 200 -163 410z" />
<glyph unicode=")" horiz-adv-x="685" d="M-54 -359q93 90 178.5 190t158.5 211.5t127 230t81 247.5q29 130 26.5 254.5t-28 238t-69.5 217.5t-100 196h276q110 -178 155 -407.5t-11 -498.5q-59 -271 -200 -490.5t-325 -388.5h-269z" />
<glyph unicode="*" horiz-adv-x="738" d="M312 1026l230 108l-183 107l107 115l118 -137l15 202h143l-73 -205l179 140l61 -115l-233 -107l186 -108l-110 -115l-120 141l-12 -204h-144l72 202l-177 -139z" />
<glyph unicode="+" horiz-adv-x="1061" d="M190 452l48 229h320l70 333h234l-71 -333h320l-49 -229h-320l-63 -298h-234l65 298h-320z" />
<glyph unicode="," horiz-adv-x="450" d="M-190 -279q69 34 129 79q51 41 98.5 100t64.5 141l42 197h261l-41 -197q-20 -85 -66.5 -146t-95.5 -100q-56 -46 -123 -74h-269z" />
<glyph unicode="-" horiz-adv-x="792" d="M198 486l46 213h604l-47 -213h-603z" />
<glyph unicode="." horiz-adv-x="447" d="M95 0l49 238h261l-51 -238h-259z" />
<glyph unicode="/" horiz-adv-x="726" d="M18 0l783 1625h254l-786 -1625h-251z" />
<glyph unicode="0" horiz-adv-x="1163" d="M192 642q37 167 103 301.5t154.5 228t195.5 145t227 51.5q113 0 199.5 -48t137.5 -136t62 -218.5t-22 -294.5q-37 -161 -105.5 -289t-160.5 -219.5t-203 -138t-230 -46.5q-228 0 -326.5 175t-31.5 489zM428 432.5q4 -87.5 30 -137t67 -70t86 -20.5q49 0 103 22t105 73 t94 139.5t72 218.5q29 136 24 226.5t-32 147t-72 79.5t-94 23q-46 0 -97.5 -24.5t-99.5 -79.5t-90.5 -148t-71.5 -232q-28 -130 -24 -217.5z" />
<glyph unicode="1" horiz-adv-x="690" d="M246 894l49 227q66 23 131 59t116 71q59 41 110 88h229l-285 -1339h-258l210 996q-49 -28 -133.5 -56.5t-168.5 -45.5z" />
<glyph unicode="2" horiz-adv-x="972" d="M56 0l36 179q16 79 74.5 149.5t138 136t169.5 128t169 124.5t137 124.5t72 130.5q10 49 1.5 81t-30.5 50t-51.5 24.5t-60.5 6.5q-82 0 -192.5 -34.5t-198.5 -93.5l46 220q66 56 171 99t225 43q100 0 173.5 -29.5t119.5 -79.5t61 -120.5t-2 -149.5q-20 -100 -71.5 -177 t-118 -141.5t-143.5 -117t-150 -103.5t-138 -103t-107 -117h615l-46 -230h-899z" />
<glyph unicode="3" horiz-adv-x="997" d="M108 69l51 236q51 -51 136.5 -75.5t170.5 -24.5q34 0 81 7.5t90.5 25.5t79 50t45.5 83q10 57 -5 95t-65 62t-135.5 35t-214.5 11l49 227q113 -2 208 13q82 12 152 49.5t89 116.5q10 51 0 81.5t-30.5 46.5t-49 21t-54.5 5q-200 0 -337 -86l43 220q69 38 163 69t183 31 q71 0 141.5 -23.5t123 -68.5t78 -108.5t8.5 -146.5q-15 -76 -55 -132.5t-94 -95t-116.5 -61.5t-127.5 -31q62 -7 123.5 -28t108 -59t69 -96t7.5 -134q-20 -88 -70 -161.5t-128 -128.5t-181 -85.5t-227 -30.5q-90 0 -177 30.5t-133 60.5z" />
<glyph unicode="4" horiz-adv-x="1026" d="M79 300l41 196l781 843h235l-171 -807h156l-51 -232h-156l-64 -300h-256l61 300h-576zM448 532h256l80 367z" />
<glyph unicode="5" horiz-adv-x="946" d="M102 44l54 254q36 -26 76 -47q37 -17 82 -31.5t94 -14.5q51 0 100.5 7.5t91.5 29.5t73 60t43 103q8 41 4 80.5t-25 71.5t-62.5 52.5t-107.5 20.5q-59 0 -114 -7.5t-99 -16.5q-48 -10 -92 -20l159 753h709l-49 -230h-450l-57 -261h69q90 0 169.5 -26t133.5 -78.5t75 -134 t-1 -194.5q-42 -193 -199 -315t-423 -122q-90 0 -153.5 22t-100.5 44z" />
<glyph unicode="6" horiz-adv-x="1036" d="M161 322.5q-13 112.5 18 258.5q41 200 116.5 348.5t173 245.5t211.5 145t234 48q31 0 68 -4.5t75.5 -9.5t73 -12.5t54.5 -17.5l-49 -234q-41 12 -86 24q-39 7 -87.5 14.5t-100.5 5.5q-136 -5 -225 -92t-136 -221q59 34 121 47t123 13q79 0 148 -33.5t115.5 -93.5t65 -142 t-1.5 -177q-22 -100 -76 -184.5t-129.5 -145.5t-168 -94t-186.5 -33t-170 39t-122 116t-59 189.5zM415 322.5q10 -46.5 33 -72t53.5 -35.5t59.5 -10q31 0 69.5 13.5t75 42t66 72t42.5 102.5q15 66 5 108.5t-35.5 67t-60 33t-68.5 8.5q-54 0 -94.5 -20.5t-68.5 -52t-46 -68.5 t-26 -71q-15 -71 -5 -117.5z" />
<glyph unicode="7" horiz-adv-x="962" d="M210 0l658 1109h-617l51 230l927 -3l-18 -76l-735 -1260h-266z" />
<glyph unicode="8" horiz-adv-x="1010" d="M131 213.5q-13 72.5 5 160.5q23 115 83 195.5t170 149.5q-59 61 -71.5 133.5t2.5 146.5q15 69 57.5 134t105 117t142 85t171.5 33q85 0 150 -34t107.5 -88t59 -119t3.5 -128q-20 -90 -67.5 -152.5t-119.5 -127.5q71 -57 98.5 -148.5t6.5 -196.5q-18 -88 -64 -160.5 t-115 -125t-157.5 -81.5t-193.5 -29q-113 0 -192.5 29t-123.5 81.5t-57 125zM395.5 307.5q9.5 -38.5 32 -62t53.5 -32t64 -8.5q34 0 69.5 8.5t68.5 30.5t59 59t39 96q20 97 -25 151t-124 54q-31 0 -66.5 -10t-68.5 -33t-60 -61.5t-38 -94.5q-13 -59 -3.5 -97.5zM574 982 q-18 -82 18 -114.5t89 -32.5q18 0 44.5 7.5t52.5 25.5t48 46t29 68q3 18 1.5 44t-13 50.5t-34.5 41t-64 16.5q-46 0 -76.5 -17.5t-51.5 -42t-31 -50.5t-12 -42z" />
<glyph unicode="9" horiz-adv-x="1033" d="M132 18l49 228q29 -10 68 -21q31 -7 74 -13.5t95 -6.5q41 0 90.5 8.5t103 42t105 95t97.5 167.5q-54 -32 -119 -45.5t-126 -13.5q-85 0 -152.5 36.5t-111.5 98t-60.5 142t4.5 170.5q22 105 78.5 190.5t133.5 145.5t166 93t179 33q108 0 182 -48t117 -131t50 -196.5 t-21 -250.5q-79 -376 -277.5 -570t-485.5 -194q-59 0 -128 11t-111 29zM495 823q1 -39 18 -70t52.5 -49t94.5 -18t102.5 26t71.5 59t44 66.5t18 48.5q8 39 9 82t-13 80t-46 61.5t-91 24.5q-51 0 -93 -23t-76 -56.5t-54 -74t-28 -74.5q-10 -44 -9 -83z" />
<glyph unicode=":" horiz-adv-x="447" d="M95 0l51 254h259l-51 -254h-259zM246 728l56 254h259l-53 -254h-262z" />
<glyph unicode=";" horiz-adv-x="450" d="M-190 -279q69 41 131 91q51 44 99 103.5t62 125.5l44 208h262l-44 -208q-15 -71 -61.5 -129t-97.5 -102q-59 -49 -126 -89h-269zM249 725l53 255h262l-56 -255h-259z" />
<glyph unicode="&#x3c;" horiz-adv-x="1028" d="M141 399l25 129l1068 527l-54 -261l-655 -325l525 -281l-54 -252z" />
<glyph unicode="=" horiz-adv-x="1061" d="M151 269l47 222h874l-48 -222h-873zM222 615l49 225h877l-52 -225h-874z" />
<glyph unicode="&#x3e;" horiz-adv-x="1028" d="M2 -64l54 252l645 281l-513 325l53 261l841 -527l-24 -129z" />
<glyph unicode="?" horiz-adv-x="908" d="M249 0l53 256h259l-53 -256h-259zM308 1011l46 215q38 39 91 69q46 29 115.5 51t161.5 22q74 0 138 -24.5t107.5 -69.5t63 -105t3.5 -130q-13 -67 -47.5 -117t-76.5 -89t-90 -70t-87 -59t-68.5 -58.5t-36.5 -66.5l-42 -200h-258l46 215q15 74 75.5 128t128 101t125 94.5 t69.5 106.5q13 56 -22.5 81.5t-107.5 25.5q-68 0 -129 -19.5t-105 -41.5q-54 -29 -100 -59z" />
<glyph unicode="@" horiz-adv-x="1673" d="M204.5 246.5q-30.5 124.5 0.5 273.5q31 151 122 283t217.5 230t277 154.5t304.5 56.5q149 0 269 -47t199.5 -132t112 -199t3.5 -246q-20 -102 -72.5 -192t-120.5 -158t-143.5 -108t-144.5 -40q-51 0 -85.5 11t-55 27t-32.5 38.5t-20 47.5q-36 -41 -100 -82.5t-176 -41.5 q-69 0 -127.5 27t-96 77t-51.5 123t6 163q20 100 74.5 178t124.5 131.5t148 81.5t151 28q71 0 132 -39.5t71 -82.5l42 102h205l-167 -420q-17 -53 -26 -95q-5 -36 0 -63.5t39 -27.5q49 0 94 32t80.5 79.5t61 102.5t35.5 101q15 74 -2.5 161t-72.5 161t-150 124t-232 50 q-139 0 -264.5 -57.5t-224 -144t-165 -193t-86.5 -201.5q-23 -102 -5.5 -201t75 -177t157.5 -127t242 -49q100 0 200.5 22t182.5 53l-29 -133q-92 -29 -189 -49t-194 -20q-154 0 -277 51t-205 141.5t-112.5 215zM745 428.5q7 -32.5 23 -48.5t33.5 -21t28.5 -5q51 0 86.5 24 t61.5 61t39.5 78t21.5 74q29 131 -57 139q-51 0 -90.5 -20.5t-68.5 -52.5t-47 -70.5t-26 -74.5q-12 -51 -5 -83.5z" />
<glyph unicode="A" horiz-adv-x="1258" d="M18 0l781 1339h225l217 -1339h-266l-56 328h-453l-192 -328h-256zM596 555h293l-57 413z" />
<glyph unicode="B" horiz-adv-x="1087" d="M95 0l284 1339h407q95 0 166.5 -25.5t116.5 -71.5t60 -108q8 -31 8 -64.5t-8 -68.5q-15 -69 -51 -120t-84.5 -86t-103.5 -54t-106 -22q58 -3 118 -20.5t105 -55t67 -97.5q12 -33 12 -74q0 -34 -8 -73q-20 -100 -79 -174t-138.5 -124t-174.5 -75.5t-187 -25.5h-404z M399 230h131q115 0 194.5 47.5t94.5 121.5q4 21 4 41q0 17 -3 33q-6 35 -32 61.5t-74.5 41.5t-124.5 15h-113zM528 821h83q105 0 171 39t83 115q4 18 4 34q0 23 -9 37q-15 26 -42 40.5t-58.5 18.5t-58.5 4h-112z" />
<glyph unicode="C" horiz-adv-x="1166" d="M184 386q-8 50 -8 102q0 80 19 167q34 161 112.5 292t188.5 224.5t243 145t275 51.5q146 0 250 -24.5t160 -53.5l-139 -222q-66 36 -153 51t-170 15q-120 0 -210 -54t-151 -129.5t-96.5 -157.5t-48.5 -138q-13 -63 -13 -120q1 -33 5 -63q12 -83 51 -143t107 -92t159 -32 q97 0 185.5 28t170.5 67l44 -221q-83 -44 -210 -72.5t-256 -28.5q-144 0 -252.5 50.5t-175.5 142t-87 215.5z" />
<glyph unicode="D" horiz-adv-x="1280" d="M95 0l284 1339h389q163 0 291.5 -37t208.5 -115q81 -77 109 -203q12 -54 12 -118q0 -84 -21 -185q-37 -161 -122.5 -288t-207.5 -215t-269 -133t-300 -45h-374zM399 230h119q122 0 222 36t175.5 97.5t124 143.5t69.5 174q14 69 14 128q0 27 -3 51q-9 78 -55 134 t-129.5 85.5t-210.5 29.5h-136z" />
<glyph unicode="E" horiz-adv-x="960" d="M95 0l284 1339h771l-49 -230h-512l-69 -323h460l-51 -234h-460l-70 -322h512l-46 -230h-770z" />
<glyph unicode="F" horiz-adv-x="882" d="M95 0l284 1339h771l-49 -230h-512l-69 -323h460l-51 -234h-460l-115 -552h-259z" />
<glyph unicode="G" horiz-adv-x="1305" d="M184 366q-11 54 -11 113q0 77 19 163q32 149 113 282.5t198 230t262.5 155t304.5 58.5q108 0 179.5 -16t118.5 -36q51 -22 83 -51l-53 -256q-37 41 -142.5 83t-266.5 42q-115 0 -209 -49t-162 -122.5t-110 -160t-58 -160.5q-10 -51 -10 -105q0 -23 2 -47q6 -78 41 -142 t102 -103.5t177 -39.5h71t55 3.5t53 11.5t63 21l54 263h-282l48 231h544l-139 -650q-54 -29 -119 -49.5t-134.5 -33t-138.5 -18.5t-131 -6q-136 0 -244 46.5t-180 133t-98 208.5z" />
<glyph unicode="H" horiz-adv-x="1241" d="M95 0l284 1339h259l-113 -530h533l112 530h261l-283 -1339h-259l120 579h-535l-123 -579h-256z" />
<glyph unicode="I" horiz-adv-x="447" d="M95 0l284 1339h259l-284 -1339h-259z" />
<glyph unicode="J" horiz-adv-x="767" d="M25 41l131 197q20 -10 46 -18q20 -5 47 -10t56 -5q74 0 126.5 61.5t86.5 214.5l181 858h259l-182 -858q-31 -141 -88.5 -238t-130.5 -155.5t-156 -85.5t-166 -27q-49 0 -87 10t-66 23q-31 12 -57 33z" />
<glyph unicode="K" horiz-adv-x="1128" d="M95 0l284 1339h259l-113 -530l543 530h314l-493 -487l222 -852h-273l-167 642l-231 -220l-86 -422h-259z" />
<glyph unicode="L" horiz-adv-x="882" d="M95 0l284 1339h259l-239 -1109h512l-46 -230h-770z" />
<glyph unicode="M" horiz-adv-x="1600" d="M95 0l284 1339h290l203 -931l623 931h295l-285 -1339h-259l178 835l-564 -835h-146l-186 819l-177 -819h-256z" />
<glyph unicode="N" horiz-adv-x="1317" d="M95 0l284 1339h271l402 -914l194 914h262l-284 -1339h-274l-405 904l-191 -904h-259z" />
<glyph unicode="O" horiz-adv-x="1420" d="M182 382q-7 45 -7 93q0 83 20 175q34 156 106.5 287t177.5 227t238 150t287 54q148 0 258 -54t174 -146t84 -218q8 -48 7 -100q0 -82 -19 -171q-34 -157 -106.5 -286t-179 -221.5t-243.5 -143t-295 -50.5q-146 0 -252.5 49t-169 141t-80.5 214zM442 450q14 -84 55 -139 t102.5 -80.5t135.5 -25.5q83 0 163 27t149 83t121.5 145.5t80.5 218.5q16 72 16 132q0 37 -6 69q-15 86 -57 142t-107.5 84t-136.5 28q-83 0 -162.5 -28t-145.5 -88t-118.5 -151t-79.5 -217q-15 -73 -16 -133q1 -36 6 -67z" />
<glyph unicode="P" horiz-adv-x="1023" d="M95 0l284 1339h386q100 0 183 -24.5t138 -76.5q56 -54 76 -134q10 -39 9 -85q0 -50 -11 -108q-25 -122 -85.5 -209t-142.5 -142.5t-182 -81.5t-208 -26h-94l-97 -452h-256zM496 684h95q151 0 220.5 65t89.5 160q9 46 9 82q0 35 -17 60q-18 27 -58.5 42.5t-118.5 15.5 h-127z" />
<glyph unicode="Q" horiz-adv-x="1420" d="M183 382q-7 46 -7 96q0 81 19 172q34 156 107.5 287t178.5 227t233 150t268 54q157 0 271.5 -54t180.5 -146.5t86 -217.5q7 -49 7 -100q0 -82 -19 -171q-49 -223 -171.5 -381.5t-276.5 -236.5q29 -12 60.5 -32.5t54.5 -50t36 -68.5q7 -21 7 -46q0 -19 -4 -40h-246 q3 16 3 31q0 49 -31 80q-41 40 -88 57q-43 -10 -94.5 -12t-97.5 -2q-132 0 -233.5 49t-163 140.5t-80.5 214.5zM440 450q12 -84 52 -139t103.5 -82t139.5 -27q79 0 159.5 27t151 84.5t123 147t80.5 218.5q16 72 16 132q0 36 -6 69q-15 85 -58 141.5t-114 84.5t-156 28 q-69 0 -142 -28t-138 -88t-118.5 -151t-80.5 -217q-16 -77 -16 -140q0 -31 4 -60z" />
<glyph unicode="R" horiz-adv-x="1168" d="M95 0l284 1339h422q85 0 160 -23.5t129 -71.5t78 -120q13 -39 13 -87q0 -40 -9 -85q-14 -68 -54 -120.5t-91.5 -90t-108 -59.5t-102.5 -24q54 -20 101.5 -107t91.5 -195l143 -356h-300l-120 312q-51 128 -107 172t-95 44h-66l-113 -528h-256zM515 760h133q112 0 177.5 50 t85.5 142q3 16 3 30q0 44 -30 78q-40 44 -162 46l-133 3z" />
<glyph unicode="S" horiz-adv-x="1112" d="M115 102l46 218q44 -34 100 -59q47 -20 110.5 -38t138.5 -18q61 0 116 7.5t99.5 29.5t75.5 60t44 97q4 20 4 37q1 48 -29 78q-40 42 -109 71.5t-149.5 54.5t-143.5 70q-64 46 -99 116q-20 40 -20 96q0 42 11 92q15 74 66.5 138t124.5 111.5t161 74.5t183 27 q113 0 186 -15.5t119 -33.5q51 -22 84 -48l-46 -229q-47 25 -108 46q-51 17 -122.5 33t-161.5 16t-152.5 -36t-72.5 -84q-3 -13 -3 -25q0 -41 32 -67q42 -33 110.5 -60t148 -55t143 -77t95.5 -127q18 -44 18 -103q0 -46 -11 -101q-20 -90 -64 -166.5t-117 -132.5t-175.5 -89 t-235.5 -33q-102 0 -176.5 18.5t-123.5 42.5q-58 29 -97 63z" />
<glyph unicode="T" horiz-adv-x="997" d="M251 1109l51 230h963l-49 -230h-346l-235 -1109h-259l233 1109h-358z" />
<glyph unicode="U" horiz-adv-x="1241" d="M190 275q-5 34 -6 72q0 76 21 171l174 821h259l-172 -811q-16 -78 -16 -133q0 -14 1 -26q5 -61 29 -99t67.5 -51.5t100.5 -13.5q48 0 102 12.5t101.5 47.5t85.5 94t59 153l176 827h259l-171 -804q-31 -149 -93.5 -254t-150 -172.5t-194 -99t-226.5 -31.5 q-115 0 -200.5 31.5t-137.5 98t-68 167.5z" />
<glyph unicode="V" horiz-adv-x="1258" d="M302 1339h262l145 -958l551 958h264l-782 -1339h-227z" />
<glyph unicode="W" horiz-adv-x="1788" d="M302 1339h262l61 -921l476 921h179l39 -914l473 914h260l-698 -1339h-262l-20 828l-407 -828h-260z" />
<glyph unicode="X" horiz-adv-x="1228" d="M18 0l583 669l-271 670h302l172 -443l384 443h304l-586 -670l305 -669h-307l-198 448l-384 -448h-304z" />
<glyph unicode="Y" horiz-adv-x="1151" d="M302 1339h269l154 -569l419 569h275l-625 -848l-103 -491h-261l102 491z" />
<glyph unicode="Z" horiz-adv-x="1087" d="M18 0l21 105l882 1004h-619l52 230h1000l-23 -105l-886 -1004h645l-45 -230h-1027z" />
<glyph unicode="[" horiz-adv-x="606" d="M18 -359l378 1790h498l-49 -230h-251l-286 -1331h250l-46 -229h-494z" />
<glyph unicode="\" horiz-adv-x="726" d="M361 1625h250l98 -1625h-253z" />
<glyph unicode="]" horiz-adv-x="606" d="M-54 -359l46 229h246l284 1331h-251l49 230h496l-381 -1790h-489z" />
<glyph unicode="^" horiz-adv-x="1330" d="M200 494l672 935h132l337 -935h-263l-213 571l-404 -571h-261z" />
<glyph unicode="_" horiz-adv-x="1061" d="M66 -125l46 210h873l-45 -210h-874z" />
<glyph unicode="`" horiz-adv-x="755" d="M412 1498h289l198 -372h-257z" />
<glyph unicode="a" horiz-adv-x="1016" d="M155 167q-4 22 -4 45q0 36 10 77q20 85 65 136t100 80.5t112.5 38t106.5 8.5q66 0 113.5 6t79.5 13q36 10 58 20q10 46 10 80q0 17 -2 31q-8 42 -28.5 64.5t-51 30t-64.5 7.5q-79 0 -144.5 -23t-113.5 -51q-56 -34 -100 -75l-38 149q41 61 107 107q57 41 141 75.5 t202 34.5q85 0 156.5 -25.5t118.5 -74.5t67 -123q10 -36 9 -77q0 -43 -10 -91l-134 -630h-245l30 144q-22 -20 -53 -47.5t-69.5 -53t-81.5 -42t-92 -16.5q-66 0 -120.5 23t-89 63.5t-45.5 95.5zM408 289q-3 -17 -3 -30q0 -37 27 -51q37 -18 86 -18q51 0 113.5 24t103.5 67 l27 129q-33 -8 -66 -14q-28 -5 -65 -7.5t-76 -2.5t-88 -25.5t-59 -71.5z" />
<glyph unicode="b" horiz-adv-x="1138" d="M95 0l299 1419h248l-124 -584q28 51 73 94q39 36 96.5 66.5t133.5 30.5q67 0 144 -29t137 -92t90 -159q15 -48 15 -105q0 -56 -15 -121q-31 -146 -99.5 -247.5t-155.5 -164t-179.5 -91.5t-168.5 -29q-77 0 -120.5 26.5t-63.5 61.5q-25 42 -29 93l-36 -169h-245zM405 312 q25 -31 59 -53q28 -20 67.5 -37t90.5 -17q49 0 99.5 16.5t94.5 55t78.5 97t53.5 144.5q7 36 7 68q0 28 -5 52q-10 54 -39.5 90.5t-70.5 57t-90 20.5t-96.5 -17t-82.5 -37q-43 -24 -82 -53z" />
<glyph unicode="c" horiz-adv-x="895" d="M152 262q-10 42 -10 91q0 57 14 123q25 123 88.5 223t149 171.5t185.5 111t202 39.5q64 0 116.5 -15t93.5 -34q47 -20 84 -46l-146 -217q-29 25 -57 46q-28 17 -60.5 33t-73.5 16q-67 0 -122 -29.5t-100 -77t-74.5 -106.5t-39.5 -115q-8 -37 -8 -70q0 -70 36 -124 q52 -80 181 -80q41 0 82.5 14t74.5 33q38 20 74 49l54 -219q-56 -25 -115 -45q-51 -18 -110.5 -32t-112.5 -14q-100 0 -184.5 30.5t-142 91t-79.5 152.5z" />
<glyph unicode="d" horiz-adv-x="1138" d="M159 290q-9 42 -9 90q0 65 16 140q25 118 89.5 211t144 158.5t165 98.5t151.5 33q76 0 127 -29.5t78 -65.5q34 -41 54 -91l124 584h247l-301 -1419h-246l36 169q-41 -51 -90 -90q-44 -37 -104 -63t-137 -26q-76 0 -149.5 33t-124.5 101t-71 166zM412 518q-11 -52 -11 -97 q0 -74 29 -128q46 -88 144 -88q66 0 120 16.5t92 37.5q44 22 76 53l83 387q-20 29 -54 53q-29 20 -75 37t-112 17q-49 0 -96 -24t-87 -65t-69.5 -92t-39.5 -107z" />
<glyph unicode="e" horiz-adv-x="1005" d="M147 268q-6 35 -6 73q0 66 18 145q22 105 74.5 201.5t129.5 170t172 118.5t200 45t176 -35.5t111 -101.5q40 -64 48 -154q2 -28 2 -58q0 -66 -12 -142l-21 -118h-645q-5 -22 -5 -42q0 -57 40 -104q55 -64 175 -64q68 0 118 14t87 33q41 20 69 49l48 -188 q-51 -34 -112 -61q-52 -23 -123 -41t-156 -18q-107 0 -189 30.5t-132 92t-67 155.5zM450 630h374q5 25 1 55.5t-20 56.5t-44.5 44t-71.5 18q-41 0 -80.5 -18t-72 -45t-55 -56.5t-31.5 -54.5z" />
<glyph unicode="f" horiz-adv-x="703" d="M179 768l46 221h166l21 86q18 74 47.5 142t77 118t113.5 79.5t159 29.5q43 0 77.5 -6.5t55.5 -11.5q26 -10 40 -18l-44 -230q-20 14 -42 26q-17 10 -39 17.5t-43 7.5q-15 0 -38.5 -4t-46.5 -19.5t-43.5 -46t-30.5 -84.5l-17 -86h258l-48 -221h-257l-163 -768h-244 l161 768h-166z" />
<glyph unicode="g" horiz-adv-x="1138" d="M64 -320l131 200q23 -31 56 -54q29 -20 74.5 -37t112.5 -17q56 0 113.5 9t107.5 38.5t88.5 82t58.5 142.5l29 125q-31 -51 -77 -93q-39 -36 -96.5 -63.5t-133.5 -27.5q-83 0 -160 33t-132 98t-80 158q-11 44 -11 94q0 55 14 118q29 130 94 230t148 168t173.5 102.5 t167.5 34.5t122 -29.5t71 -65.5q29 -41 40 -91l36 174h249l-200 -940q-59 -271 -227 -394t-444 -123q-77 0 -135.5 19t-102.5 45q-49 29 -87 64zM402 389q6 -51 26 -93t56 -69t85 -27q66 0 121 16t94 38q46 22 78 54l83 386q-23 28 -59 51q-31 20 -78.5 37t-113.5 17 q-49 0 -95.5 -24.5t-84.5 -67t-67 -100t-42 -121.5q-6 -28 -6 -58q0 -19 3 -39z" />
<glyph unicode="h" horiz-adv-x="1061" d="M95 0l299 1419h248l-130 -610q42 59 87 105q41 41 96 74t121 33q93 0 155.5 -31.5t97.5 -84.5t43 -122q2 -23 2 -47q0 -48 -10 -98l-136 -638h-246l136 645q3 14 3 28q0 42 -29 76q-38 45 -136 45q-44 0 -82 -16t-66 -36q-34 -22 -62 -48l-146 -694h-245z" />
<glyph unicode="i" horiz-adv-x="435" d="M95 0l213 1009h247l-215 -1009h-245zM338 1144l51 241h246l-51 -241h-246z" />
<glyph unicode="j" horiz-adv-x="435" d="M-349 -366l131 197q16 -17 34 -29q15 -12 33.5 -19.5t35.5 -7.5q34 0 64.5 10t58.5 37t52.5 77t39.5 126l208 984h247l-204 -953q-22 -110 -69 -202t-112 -158.5t-150.5 -103.5t-188.5 -37q-46 0 -79 11.5t-57 25.5q-29 18 -44 42zM335 1141l54 244h246l-54 -244h-246z " />
<glyph unicode="k" horiz-adv-x="985" d="M95 0l299 1419h248l-173 -818l412 400h289l-379 -366l167 -635h-249l-115 445l-203 -201l-51 -244h-245z" />
<glyph unicode="l" horiz-adv-x="435" d="M95 0l299 1419h248l-302 -1419h-245z" />
<glyph unicode="m" horiz-adv-x="1688" d="M95 0l213 1009h247l-43 -200q3 2 24.5 35.5t62.5 73.5t100 71.5t133 31.5q64 0 111.5 -20.5t79.5 -52.5t52.5 -71t28.5 -78q12 15 41.5 51t74.5 74t101.5 67.5t122.5 29.5q92 0 154.5 -33t97 -86.5t42.5 -123.5q3 -23 3 -46q0 -47 -11 -94l-135 -638h-246l136 645 q5 23 1 48.5t-22 47t-48.5 36t-79.5 14.5q-36 0 -75.5 -15.5t-72.5 -33.5q-39 -22 -74 -48l-146 -694h-246l136 645q3 15 3 28q0 43 -29 75q-38 42 -136 41q-36 0 -73 -15.5t-68 -33.5q-36 -20 -69 -46l-146 -694h-245z" />
<glyph unicode="n" horiz-adv-x="1061" d="M95 0l213 1009h247l-43 -200q39 59 87 105q43 41 103 74t136 33q84 0 142.5 -33t91 -86.5t40.5 -123.5q2 -23 2 -46q0 -47 -10 -94l-136 -638h-246l133 645q2 11 2 22q0 36 -24 74q-32 50 -117 50q-44 0 -84.5 -15.5t-73.5 -33.5q-39 -22 -72 -48l-146 -694h-245z" />
<glyph unicode="o" horiz-adv-x="1110" d="M150 288q-5 35 -5 73q0 61 14 128q25 115 80.5 212.5t134 169t181.5 111t224 39.5q115 0 198 -39.5t132 -108.5t63 -162q5 -34 4 -71q0 -62 -14 -130q-24 -115 -81 -212.5t-138 -167t-184.5 -107.5t-220.5 -38q-113 0 -193.5 38t-130.5 105t-64 160zM417 296 q21 -42 62 -68t107 -26q72 0 128 24.5t96 66.5t67 98.5t39 118.5q9 49 9 98v10q-1 54 -21 94t-62.5 66t-109.5 26q-73 0 -128.5 -28t-96.5 -73t-66.5 -101.5t-35.5 -112.5q-10 -49 -9 -96q-1 -54 21 -97z" />
<glyph unicode="p" horiz-adv-x="1138" d="M5 -408l303 1417h247l-37 -174q41 51 86 91q41 36 91 65.5t109 29.5q97 0 179 -34.5t135.5 -102.5t74.5 -167q9 -42 9 -89q0 -65 -17 -142q-25 -120 -90.5 -212.5t-149 -157.5t-170 -98t-153.5 -33q-76 0 -124 28t-76 63q-31 42 -46 93l-125 -577h-246zM405 308 q23 -32 59 -57q31 -20 75.5 -36.5t105.5 -16.5q23 0 65 15t87 48.5t83.5 88.5t57.5 136q13 62 13 109q0 31 -5 55q-15 61 -48 95t-73.5 45t-74.5 11q-49 0 -95 -16.5t-81 -36.5q-44 -26 -85 -54z" />
<glyph unicode="q" horiz-adv-x="1138" d="M156 274q-11 44 -11 94q0 55 14 118q29 130 89 230t136.5 168t161 102.5t160.5 34.5t128 -29.5t82 -65.5q36 -41 59 -91l36 174h249l-305 -1417h-246l126 577q-36 -51 -83 -93q-41 -36 -98.5 -63.5t-133.5 -27.5t-152.5 33t-131.5 98t-80 158zM403 350q15 -55 45.5 -88.5 t66 -48.5t61.5 -15q59 0 109 16t91 37q46 25 86 57l83 386q-31 28 -64 54q-31 20 -71 36.5t-91 16.5q-23 0 -68 -11t-92 -45t-89 -95t-65 -164q-9 -44 -9 -79q0 -32 7 -57z" />
<glyph unicode="r" horiz-adv-x="682" d="M95 0l213 1009h247l-59 -279q39 79 85 145q41 54 94 100t114 46q15 0 30.5 -5t28.5 -10q12 -7 27 -12l-51 -246q-18 7 -35 14q-15 6 -33 11.5t-40 5.5q-38 0 -82.5 -31.5t-83.5 -66.5q-46 -43 -86 -97l-124 -584h-245z" />
<glyph unicode="s" horiz-adv-x="908" d="M105 59l46 215q37 -25 79 -44q36 -15 86 -27.5t109 -12.5q105 0 150 30.5t55 77.5q3 12 3 22q-1 31 -23 50q-30 26 -78 45.5t-104.5 39t-102.5 52.5q-45 33 -69 85q-13 29 -13 69q0 32 8 71q15 74 62.5 130.5t109 94t128.5 56t120 18.5q83 0 137 -13.5t91 -32.5 q41 -20 63 -43l-46 -210q-34 23 -78 40q-39 16 -93 30t-117 14q-52 0 -89.5 -29t-42.5 -55q-7 -33 24.5 -51.5t80.5 -33.5t105 -35.5t101 -57t67 -98.5q11 -32 12 -72q0 -39 -11 -86q-31 -142 -157.5 -231t-323.5 -89q-59 0 -110.5 12t-91.5 28q-46 17 -87 41z" />
<glyph unicode="t" horiz-adv-x="703" d="M179 768l46 221h166l93 430h248l-92 -430h256l-48 -221h-257l-87 -417q-9 -35 -9 -61q1 -14 3 -24q6 -32 19 -44t32.5 -14.5t34.5 -2.5q28 0 53 6.5t49 13.5q25 10 52 24l-47 -231q-17 -8 -46 -16q-51 -12 -135 -12q-85 0 -142.5 28t-87.5 77t-36 114l-2 34q0 50 12 106 l88 419h-163z" />
<glyph unicode="u" horiz-adv-x="1061" d="M166 230q-4 26 -4 53q0 41 9 83l137 643h247l-133 -620q-5 -25 -5 -45q0 -18 4 -34q9 -32 29.5 -50.5t49 -26.5t55.5 -8q44 0 85 14.5t74 34.5q38 22 75 51l146 684h247l-212 -999h-245l37 185q-24 -54 -68 -97q-36 -37 -92.5 -67.5t-130.5 -30.5q-92 0 -157 30.5 t-101.5 82t-46.5 117.5z" />
<glyph unicode="v" horiz-adv-x="1028" d="M230 1009h280l94 -640l368 640h254l-571 -1009h-253z" />
<glyph unicode="w" horiz-adv-x="1466" d="M230 1009h274l28 -610l330 610h180l48 -610l308 610h263l-527 -1009h-233l-43 586l-313 -586h-245z" />
<glyph unicode="x" horiz-adv-x="1000" d="M18 0l446 501l-234 508h282l136 -300l266 300h281l-453 -520l240 -489h-278l-146 286l-260 -286h-280z" />
<glyph unicode="y" horiz-adv-x="1090" d="M-49 -371l120 195q20 -15 41 -26q18 -10 38.5 -18t41.5 -8q57 0 96.5 36t82.5 110l74 126l-213 965h269l147 -635l371 635h266l-704 -1158q-85 -141 -180.5 -218.5t-239.5 -77.5q-59 0 -99 11.5t-64 23.5q-29 15 -47 39z" />
<glyph unicode="z" horiz-adv-x="953" d="M95 0l20 108l623 683h-428l46 218h796l-26 -118l-618 -676h464l-43 -215h-834z" />
<glyph unicode="{" horiz-adv-x="640" d="M139 389l42 207q39 3 69.5 11t55 24.5t41.5 47t29 81.5l64 300q15 76 48.5 143t90 116t141 78t206.5 34l-48 -225q-20 0 -48.5 -7t-56.5 -22t-51 -44t-33 -78l-64 -307q-20 -103 -98.5 -170.5t-172.5 -93.5q82 -20 131.5 -88t26.5 -176l-64 -294q-13 -54 1.5 -84 t37.5 -42t48.5 -13.5t38.5 -1.5l-46 -227q-213 0 -291 95.5t-42 254.5l66 304q10 52 7.5 84t-19.5 51t-45 28t-65 14z" />
<glyph unicode="|" horiz-adv-x="437" d="M25 -320l400 1874h249l-400 -1874h-249z" />
<glyph unicode="}" horiz-adv-x="640" d="M-71 -442l46 227q13 0 38.5 1.5t53.5 13.5t52.5 42t36.5 84l64 294q22 108 102 176t169 88q-82 25 -130.5 93t-28.5 171l64 307q10 49 -1 78t-33 44t-47.5 22t-43.5 7l49 225q118 -5 189.5 -34t108.5 -78t40.5 -116t-10.5 -143l-64 -300q-13 -51 -8 -81.5t22 -47 t45 -24.5t66 -11l-44 -207q-39 -5 -71.5 -14t-57 -28t-42.5 -51t-28 -84l-64 -304q-33 -159 -149.5 -254.5t-323.5 -95.5z" />
<glyph unicode="~" horiz-adv-x="1058" d="M184 422q10 52 36 109.5t65.5 105t96 79.5t128.5 32q61 0 103 -19.5t75.5 -44t63 -43.5t67.5 -19q41 0 58 29.5t34 96.5h213q-15 -62 -42 -120.5t-65.5 -103.5t-91.5 -73.5t-121 -28.5q-69 0 -117.5 19.5t-83 44t-61.5 43.5t-58 19q-36 0 -56 -28.5t-34 -97.5h-210z" />
<glyph unicode="&#xa9;" horiz-adv-x="1681" d="M95 620q0 156 58.5 292t160 236.5t237 158.5t291.5 58q157 0 292.5 -58t236.5 -158.5t159 -236.5t58 -292t-58 -292t-159 -236t-236.5 -157t-292.5 -57q-156 0 -291.5 57t-237 157t-160 236t-58.5 292zM212 618q0 -130 50 -244.5t136 -199t201 -133.5t246 -49 q130 0 244.5 49t200 133.5t134 198t48.5 245.5q0 130 -48.5 243.5t-134 200t-200 134.5t-244.5 48t-245.5 -48t-201.5 -134.5t-136 -200t-50 -243.5zM391 606q0 110 34 199t94 152.5t143 98t186 34.5q58 0 135 -10t123 -28l-41 -84q-46 20 -105 28t-110 8q-85 0 -150 -33 t-111.5 -88t-69.5 -127t-23 -150q0 -82 23 -152t69.5 -121.5t111.5 -82t150 -30.5q66 0 115 13t100 41l39 -90q-52 -29 -125 -41.5t-141 -12.5q-203 0 -325 129.5t-122 346.5z" />
<glyph unicode="&#xad;" horiz-adv-x="792" d="M198 486l46 213h604l-47 -213h-603z" />
<glyph unicode="&#xae;" horiz-adv-x="1681" d="M95 620q0 156 58.5 292t160 236.5t237 158.5t291.5 58q157 0 292.5 -58t236.5 -158.5t159 -236.5t58 -292t-58 -292t-159 -236t-236.5 -157t-292.5 -57q-156 0 -291.5 57t-237 157t-160 236t-58.5 292zM212 615q0 -130 50 -244.5t136 -198.5t201 -133t246 -49 q130 0 245.5 49t201.5 133t134.5 198t48.5 245q0 133 -48.5 248t-134.5 200t-201.5 133t-245.5 48t-245.5 -48t-201.5 -133t-136 -200t-50 -248zM561 169v935h274q56 0 107.5 -16t92 -46.5t65 -79t24.5 -112.5q0 -61 -18 -105t-49 -73.5t-70 -46t-83 -24.5q46 -25 90.5 -66 t65.5 -76l174 -290h-128l-158 263q-42 69 -100.5 104t-95.5 35h-83v-402h-108zM669 660h115q46 0 88 10.5t74 34t52.5 59t20.5 86.5q0 76 -55 118.5t-153 42.5h-142v-351z" />
<glyph unicode="&#xbc;" horiz-adv-x="1962" d="M391 0l1297 1625h252l-1298 -1625h-251zM402 1378l26 122q36 12 70 31.5t63 39.5q31 23 61 47h123l-154 -727h-141l116 540q-28 -12 -73 -27.5t-91 -25.5zM1424 286l22 105l423 459h127l-91 -438h84l-28 -126h-85l-35 -164h-139l34 164h-312zM1622 412h139l44 199z" />
<glyph unicode="&#xbd;" horiz-adv-x="1986" d="M391 0l1297 1625h252l-1298 -1625h-251zM402 1378l26 122q36 12 70 31.5t63 39.5q31 23 61 47h123l-154 -727h-141l116 540q-28 -12 -73 -27.5t-91 -25.5zM1439 122l20 100q12 64 75.5 120.5t136.5 107.5t134 102.5t74 107.5q10 56 -17 73t-60 17q-46 0 -107 -18 t-110 -51l25 120q36 31 95 55.5t125 24.5q110 0 161 -60.5t31 -149.5q-17 -85 -68.5 -141t-114.5 -100t-123 -84.5t-96 -94.5h341l-26 -129h-496z" />
<glyph unicode="&#xbe;" horiz-adv-x="2001" d="M291 942l29 128q29 -29 74.5 -42.5t91.5 -13.5q18 0 43.5 3.5t50 15.5t43.5 28.5t25 44.5q12 62 -39 86t-189 24l25 123q61 -5 113 5q43 7 82 27.5t49 64.5q10 56 -17 70.5t-54 14.5q-108 0 -186 -49l27 120q36 20 85.5 37t100.5 17q39 0 77 -13t66 -37.5t42.5 -59 t4.5 -77.5q-17 -85 -79 -124.5t-134 -49.5q34 -5 67 -16t58 -32t37 -53t5 -73q-20 -95 -106.5 -157.5t-221.5 -62.5q-51 0 -97 16.5t-73 34.5zM432 0l1296 1625h251l-1295 -1625h-252zM1464 286l24 105l422 459h128l-93 -438h85l-28 -126h-84l-37 -164h-137l32 164h-312z M1664 412h138l44 199z" />
<glyph unicode="&#xe01;" horiz-adv-x="1207" d="M164 0l117 552q10 49 25.5 86.5t28.5 65.5q15 31 31 54q-34 36 -61 63q-23 23 -42 43t-19 22q68 93 155 164q73 61 181.5 112.5t238.5 51.5q107 0 202 -27t160 -79.5t94.5 -128t9.5 -170.5l-130 -614q-7 -36 -36 -69.5t-61 -61.5q-39 -34 -86 -64h-117l161 758 q15 66 -2.5 109.5t-55 68t-86 34.5t-93.5 10q-59 0 -106.5 -15t-78.5 -34q-39 -20 -64 -45l130 -128q-29 -23 -54 -54q-20 -29 -42 -69.5t-34 -96.5l-115 -538h-251z" />
<glyph unicode="&#xe02;" horiz-adv-x="1023" d="M209 246.5q-1 75.5 13 152.5l22 102q20 98 76 177.5t102 130.5q20 22 48.5 52t33.5 50q7 49 -79 49h-166l49 228h166q184 0 249.5 -81t38.5 -196q-12 -63 -50 -118t-84 -94q-13 -10 -33.5 -32t-41.5 -49t-37.5 -57.5t-21.5 -59.5l-20 -102q-20 -98 1 -146t91 -48 q74 0 123 55t66 139l166 789h259l-166 -789q-15 -77 -50 -152.5t-96.5 -134t-153.5 -95.5t-225 -37q-103 0 -163 37t-88 95.5t-29 134z" />
<glyph unicode="&#xe03;" horiz-adv-x="1023" d="M203.5 246.5q-1.5 75.5 14.5 152.5l20 105q20 100 71.5 169t110.5 136q10 10 28 26.5t37 33.5t33 33.5t17 32.5q5 23 -13 34t-51 -9q-15 -10 -32 -24.5t-31 -26.5q-18 -15 -34 -34q-13 23 -29 41q-13 15 -36 29.5t-50 14.5l49 228q24 0 45 -19t33 -43q15 -28 29 -58 q31 31 66 58q31 23 69.5 42.5t81.5 19.5q29 0 62.5 -14t57.5 -43.5t35.5 -75.5t-3.5 -113q-15 -76 -57.5 -135t-88.5 -98q-13 -10 -33.5 -30.5t-42.5 -49t-41.5 -63t-26.5 -72.5l-20 -95q-20 -98 1 -146t96 -48q74 0 121.5 58.5t65.5 144.5l163 780h259l-164 -770 q-17 -86 -53.5 -165t-96.5 -140.5t-144 -98t-200 -36.5q-117 0 -185 36.5t-100 96.5t-33.5 135.5z" />
<glyph unicode="&#xe04;" horiz-adv-x="1215" d="M95 0l171 809q18 90 77 164.5t141 128t180 83t201 29.5q97 0 184 -29.5t148 -82t87.5 -127t7.5 -166.5l-171 -809h-259l172 809q15 69 -45 120t-175 51t-194.5 -49.5t-94.5 -121.5l-49 -233q46 39 98 66q44 26 99 46.5t113 20.5l-56 -257q-74 0 -131 -15t-95 -35 q-46 -22 -79 -48l-74 -354h-256z" />
<glyph unicode="&#xe05;" horiz-adv-x="1215" d="M95 0l171 809q15 66 56.5 138t97.5 129.5t120 95t122 37.5q37 0 66.5 -27t52.5 -58q29 -39 49 -85q36 46 76 85q34 34 74.5 60.5t81.5 26.5q64 0 114 -37.5t81 -96t41.5 -130.5t-6.5 -138l-171 -809h-259l172 809q15 76 -4 123.5t-60 47.5q-20 0 -52 -27t-63 -59 q-36 -39 -74 -85q-20 46 -43 85q-20 34 -41 60t-42 26q-36 0 -76.5 -47t-56.5 -124l-48 -233q44 39 95 66q43 26 99.5 46.5t117.5 20.5l-56 -257q-74 0 -129.5 -15t-92.5 -32q-47 -23 -80 -49l-77 -356h-256z" />
<glyph unicode="&#xe06;" horiz-adv-x="1228" d="M132 0l117 542q17 88 61 142t89.5 92t84 71.5t48.5 76.5q6 17 1 34t-34 17q-13 0 -35 -15t-42 -36q-24 -23 -48 -49q-18 23 -39 41q-17 15 -36.5 29.5t-39.5 14.5l49 228q24 0 45 -19t33 -43q15 -28 29 -58q31 33 66 61q31 22 69.5 40.5t81.5 18.5q93 -6 138.5 -80 t25.5 -170q-17 -88 -61 -138t-92.5 -90.5t-89.5 -82t-54 -107.5l-35 -175q22 -34 58 -59q29 -22 74.5 -40t109.5 -18q42 0 83 10.5t76.5 37t65 75t44.5 125.5l151 712h259l-164 -766q-20 -97 -66 -179t-109.5 -140.5t-142.5 -91.5t-165 -33q-93 0 -151.5 33t-95.5 74 q-41 46 -61 110l-41 -195h-257z" />
<glyph unicode="&#xe07;" horiz-adv-x="1051" d="M232 816h262l26 -584q34 0 83 21t100.5 63.5t95 110t63.5 164.5q20 95 4 164t-61 114t-110 65.5t-143 20.5l52 230q115 0 223 -34.5t184.5 -107.5t110 -184t-0.5 -268q-29 -125 -99 -232.5t-163.5 -187t-198.5 -125.5t-199 -46h-200z" />
<glyph unicode="&#xe08;" horiz-adv-x="1168" d="M246 970q59 66 140 120q69 46 170.5 85t239.5 39q125 0 219 -51.5t152.5 -136t79.5 -191.5t-3 -217q-25 -120 -82.5 -232t-146.5 -198t-209 -137t-274 -51h-127l-19 405q-5 20 -15 20h-31h-51l49 233h102q29 0 60.5 -1.5t61 -16.5t54 -50t36.5 -99l10 -259q42 0 92 29.5 t96 81t82 122t53 153.5q23 110 0 180t-65 111t-91.5 56t-80.5 15q-113 0 -197.5 -34.5t-142.5 -77.5q-67 -49 -119 -113z" />
<glyph unicode="&#xe09;" horiz-adv-x="1202" d="M156 476l49 233h169q97 0 130.5 -61.5t7.5 -176.5l-16 -72q-12 -59 -7 -92t20.5 -49.5t38.5 -22t46 -5.5q66 0 126.5 18t107.5 41q51 29 96 62l75 355q10 46 8.5 95t-20.5 88.5t-64 65t-122 25.5q-76 0 -153 -21t-138 -50q-71 -31 -136 -71l-46 214q66 44 151 79 q71 31 166 57t207 26q238 0 350 -129.5t63 -352.5l-156 -732h-259l41 195q-53 -64 -119 -110q-56 -41 -128.5 -74t-159.5 -33q-154 0 -215 101.5t-31 262.5l18 93q5 20 2.5 30.5t-26.5 10.5h-76z" />
<glyph unicode="&#xe0a;" horiz-adv-x="1067" d="M206 236q-4 72 12 145l26 120q20 90 75 174.5t103 133.5q20 20 48.5 51t33.5 51q5 29 -30.5 38t-82.5 9h-132l49 230h134q106 0 174 -22t105 -59t46 -88t-5 -108q-12 -63 -45 -114.5t-82 -90.5q-13 -10 -33.5 -28t-41 -43.5t-40 -59t-26.5 -74.5l-25 -130 q-34 -166 110 -166q61 0 102 22t69.5 56.5t44.5 75t24 81.5q29 136 9.5 206t-63.5 70l51 234q34 0 68.5 37t65 100t56 147.5t46.5 181.5h259q-36 -164 -87.5 -274.5t-102.5 -178t-90.5 -96.5t-50.5 -32q5 -3 30.5 -21t48.5 -63t34 -122t-15 -194q-20 -97 -66.5 -180.5 t-115 -144.5t-161.5 -95.5t-207 -34.5q-116 0 -184 34.5t-101 92t-37 129.5z" />
<glyph unicode="&#xe0b;" horiz-adv-x="1067" d="M203.5 236q-1.5 72 14.5 145l23 108q20 92 66.5 170.5t104.5 141.5q10 10 29.5 27t39.5 36.5t35.5 37t18.5 33.5q5 20 -10 32.5t-41 0.5q-18 -10 -36 -24.5t-36 -29.5q-20 -18 -41 -36q-17 22 -39 41q-17 15 -36.5 28t-36.5 13l49 228q24 0 45 -19t33 -43q15 -28 29 -58 q29 31 64 58q29 23 69.5 42.5t83.5 19.5q47 0 80 -22t52.5 -56.5t23 -79.5t-6.5 -92q-20 -90 -70.5 -145t-101.5 -104q-20 -20 -58.5 -67.5t-54.5 -120.5l-27 -130q-20 -87 11.5 -126.5t120.5 -39.5q49 0 88 22t64.5 56.5t41.5 73.5t24 78q29 136 9.5 208.5t-63.5 72.5 l51 234q34 0 68.5 37t65 100t56 147.5t46.5 181.5h259q-36 -164 -87.5 -274.5t-101.5 -178t-89 -96.5t-51 -32q6 -3 30 -21t47 -63t34 -122t-15 -194q-18 -83 -60.5 -164t-110 -146.5t-157.5 -106t-200 -40.5q-130 0 -204.5 35.5t-107.5 93t-34.5 129.5z" />
<glyph unicode="&#xe0c;" horiz-adv-x="1873" d="M207 100q-15 44 1 120l71 332q10 49 25.5 86.5t27.5 65.5q16 31 34 54q-34 36 -61 63q-23 23 -42 43t-19 22q66 93 155 164q76 61 186.5 112.5t252.5 51.5q100 0 189 -27t153 -79.5t94.5 -128t10.5 -170.5l-97 -464q10 -34 38 -59q23 -22 65.5 -40t108.5 -18 q44 0 77 10.5t60 37t47.5 75t35.5 125.5l151 712h259l-166 -789q-15 -67 -51.5 -141t-90 -135.5t-125 -102t-158.5 -40.5q-98 0 -154 33t-84 75q-33 46 -46 107l-41 -195h-259l161 758q13 56 0.5 98.5t-44.5 70.5t-81 40.5t-105 12.5q-74 0 -121 -15t-79 -34 q-36 -20 -56 -45l130 -128q-29 -23 -54 -52q-20 -25 -40.5 -63.5t-33.5 -90.5l-58 -268q-5 -20 -1.5 -34.5t23.5 -17.5h78l-49 -232h-113q-38 0 -82 5t-76 28t-47 67z" />
<glyph unicode="&#xe0d;" horiz-adv-x="1881" d="M205 220l71 332q10 49 26 86.5t28 65.5q15 31 34 54q-34 36 -62 63q-22 23 -40 43t-18 22q66 93 155 164q76 61 185.5 112.5t250.5 51.5q100 0 189.5 -27t153 -79.5t94 -128t10.5 -170.5l-84 -401q-13 -57 -3.5 -92t32 -53.5t57.5 -25.5t72 -7q52 0 95.5 18t74.5 38 q36 25 66 56l177 846h259l-196 -958q-28 -139 -95.5 -243.5t-153 -175t-180 -106t-179.5 -35.5q-98 0 -166.5 25.5t-112.5 55.5q-51 37 -87 85l87 130q20 -36 56 -64q29 -24 76 -43.5t113 -19.5q122 0 221 88t140 247l5 21q-41 -64 -92 -110q-44 -44 -109 -77t-146 -33 q-98 0 -159 35.5t-92.5 97t-36.5 142t17 168.5l73 340q15 68 -3.5 112t-56 68t-84 33t-83.5 9q-74 0 -121.5 -15t-78.5 -34q-36 -20 -56 -45l130 -128q-29 -20 -54 -49q-20 -25 -41 -65t-33 -92l-56 -268q-5 -20 -5 -34.5t20 -17.5h85l-49 -232h-141q-128 0 -164 61t-15 159 z" />
<glyph unicode="&#xe0e;" horiz-adv-x="1207" d="M-18 -510l43 234q87 0 168 22t145 49q73 31 138 73q23 -37 54 -66q29 -24 64.5 -43.5t84.5 -19.5q82 0 108.5 36.5t44.5 116.5l184 866q13 56 -1 98.5t-45.5 70.5t-81.5 40.5t-107 12.5q-66 0 -113.5 -15t-78.5 -34q-37 -20 -59 -45l130 -128q-22 -18 -45 -47 q-20 -25 -40 -62.5t-33 -96.5l-71 -332q-29 -130 -96 -175t-183 -45h-131l47 228h76q20 2 25.5 16.5t10.5 34.5l59 273q10 49 25.5 86.5t27.5 65.5q16 31 34 54q-34 36 -61 63q-23 23 -42 43t-19 22q68 93 155 164q73 61 181.5 112.5t247.5 51.5q87 0 175.5 -27t158 -79.5 t106.5 -128t17 -170.5l-213 -1001q-7 -32 -26.5 -84t-61.5 -104t-113.5 -91t-181.5 -39q-59 0 -106.5 20.5t-83.5 49.5q-41 31 -71 71q-67 -41 -139 -71q-61 -29 -142 -49.5t-165 -20.5z" />
<glyph unicode="&#xe0f;" horiz-adv-x="1207" d="M-18 -510l43 234q66 0 133 23t118 51q62 33 113 77l63 -116l124 136q0 -5 10 -32t28 -57.5t45 -56t60 -25.5q29 0 55.5 13.5t34.5 54.5l207 966q23 107 -42 164.5t-180 57.5q-74 0 -124 -15t-81 -34q-37 -20 -59 -45l139 -128q-25 -18 -51 -47q-20 -25 -41.5 -62.5 t-34.5 -96.5l-71 -332q-20 -98 -80.5 -159t-175.5 -61h-154l47 228h76q20 2 25.5 15t10.5 28l59 287q10 48 25.5 85.5t27.5 62.5q16 29 34 52q-34 36 -61 63q-23 23 -42 43t-19 22q66 93 155 164q76 61 188 112.5t258 51.5q95 0 183 -27t152 -79.5t94.5 -128t10.5 -170.5 l-213 -993q-4 -28 -23.5 -82t-61.5 -108t-112.5 -95t-178.5 -41q-41 0 -71.5 20.5t-53.5 49.5q-29 31 -49 71l-117 -110l-67 110q-67 -41 -133 -71q-56 -29 -118 -49.5t-105 -20.5z" />
<glyph unicode="&#xe10;" horiz-adv-x="1168" d="M-25 -535l45 230q82 0 146 25.5t108 59.5q48 39 85 88l66 -134l120 134q0 -3 10.5 -30.5t29.5 -59.5t44.5 -57.5t56.5 -25.5q25 0 42 17t22 37l36 177h259l-41 -190q-8 -34 -30 -79.5t-62 -88t-101 -73t-149 -30.5q-58 0 -90 20.5t-52 48.5q-22 31 -31 72l-113 -107 l-74 99q-48 -39 -100 -67q-46 -25 -103.5 -45.5t-123.5 -20.5zM241 968q49 68 125 122q66 46 169 85t249 39q56 0 112 -13t100 -31q56 18 90.5 56.5t49.5 107.5h259q-13 -52 -38.5 -99t-58.5 -85.5t-71.5 -65t-76.5 -36.5q74 -86 94.5 -204.5t-3.5 -225.5 q-33 -162 -106 -280t-171.5 -192.5t-212 -110t-229.5 -35.5h-120l-18 389q-5 20 -7.5 28t-22.5 8h-68l49 233h126q29 0 60 -5t59.5 -24.5t48 -55t21.5 -97.5l10 -244q41 0 91 29.5t96.5 81t83.5 122t54 153.5q23 110 1.5 180t-63.5 110t-96.5 55t-94.5 15q-107 0 -189 -38.5 t-138 -81.5q-66 -52 -116 -118z" />
<glyph unicode="&#xe11;" horiz-adv-x="1210" d="M112 0l67 312q31 139 87 239.5t114 175t103 124.5t52 89q5 15 -4 27.5t-30 12.5q-15 0 -37 -15t-42 -34q-24 -22 -48 -47q-13 22 -29 40q-13 15 -34.5 28t-49.5 13l47 227q24 0 46 -18.5t35 -39.5q15 -29 29 -59q31 31 66 59q28 20 66.5 39t77.5 19q56 0 95 -38t19 -140 q47 54 100 100q47 36 105.5 68t122.5 32q74 0 121.5 -42.5t72 -106.5t28 -139.5t-11.5 -141.5l-166 -784h-259l149 706q15 76 15 125.5t-11.5 78t-32 38.5t-44.5 10q-95 0 -177.5 -71t-147 -166.5t-105 -193t-51.5 -153.5q-2 -10 -5 -18q-3 -10 -3 -24l-68 -332h-262z" />
<glyph unicode="&#xe12;" horiz-adv-x="1868" d="M164 339q-10 117 20 265q34 151 86 264.5t117 189.5t136 113.5t137 37.5q29 0 55.5 -27t49.5 -58q29 -39 51 -85q39 46 78 85q34 34 72 60.5t68 26.5q66 0 120.5 -35t87.5 -90t45.5 -122.5t-2.5 -133.5l-105 -485q20 -34 49 -61q25 -23 66 -41t103 -18q46 0 79 10.5 t58.5 38.5t45 76.5t34.5 125.5l151 712h259l-166 -789q-15 -67 -47.5 -141t-82.5 -136.5t-117.5 -103t-155.5 -40.5q-97 0 -156 34t-91 78q-39 49 -57 112l-43 -202h-259l176 830q15 69 -13 109.5t-55 40.5q-20 0 -53 -27t-63 -59q-36 -39 -74 -85q-20 46 -43 85 q-20 34 -41.5 60t-41.5 26q-14 0 -37.5 -11t-50 -51t-56 -114t-56.5 -200q-12 -56 -19.5 -125t2.5 -131t46.5 -102.5t112.5 -40.5q28 0 56.5 7.5t53.5 17.5q28 10 58 26l-48 -231q-23 -15 -52 -25q-22 -10 -51.5 -16t-65.5 -6q-105 0 -185.5 41.5t-128 122t-57.5 197.5z" />
<glyph unicode="&#xe13;" horiz-adv-x="1873" d="M205 220l71 332q10 49 26 86.5t28 65.5q15 31 34 54q-34 36 -62 63q-22 23 -40 43t-18 22q68 93 155 164q73 61 179 111t238 53q88 0 180 -22t163.5 -71t108.5 -125.5t14 -186.5l-68 -333q-15 -76 -18.5 -125t12.5 -75.5t50 -36t88 -9.5q52 0 97 18t78 38q39 25 71 59 l177 843h259l-249 -1188h-261l41 195q-39 -64 -91 -110q-47 -41 -117.5 -74t-168.5 -33q-97 0 -153.5 40.5t-80.5 103t-25.5 136.5t15.5 141l76 359q15 66 -4 109.5t-57.5 68t-87.5 34.5t-95 10q-66 0 -113.5 -15t-75.5 -34q-33 -20 -53 -45l130 -128q-29 -23 -54 -52 q-20 -25 -42 -63.5t-32 -90.5l-56 -268q-5 -20 -1.5 -34.5t23.5 -17.5h78l-49 -232h-103q-38 0 -82.5 5t-81 28t-52.5 67t-1 120z" />
<glyph unicode="&#xe14;" horiz-adv-x="1202" d="M163.5 355q-7.5 114 20.5 249q34 154 104.5 267.5t161 190.5t195.5 114.5t207 37.5q106 0 194 -27t146.5 -79.5t83 -128t4.5 -170.5l-171 -809h-259l164 779q12 61 -3 99t-47.5 61t-75.5 32t-87 9q-36 0 -87.5 -16t-103.5 -59t-98 -116t-70 -185q-12 -62 -19.5 -132 t4 -130.5t47.5 -98.5t110 -38q41 0 73 7.5t52 17.5q25 10 43 26l-48 -227q-18 -15 -46 -27q-23 -10 -55 -17t-75 -7q-113 0 -192.5 46.5t-122 131.5t-50 199z" />
<glyph unicode="&#xe15;" horiz-adv-x="1202" d="M165 353.5q-9 115.5 19 250.5q34 151 86 264.5t117 189.5t136 113.5t137 37.5q29 0 57 -27t51 -58q24 -39 48 -85q36 46 75 85q34 34 71 60.5t72 26.5q64 0 118 -35t88.5 -90t47 -122.5t-2.5 -133.5l-176 -830h-259l176 830q15 74 -15.5 112t-58.5 38q-14 0 -45.5 -27 t-61.5 -59q-36 -39 -77 -85q-20 46 -43 85q-20 34 -41.5 60t-41.5 26q-14 0 -38.5 -12.5t-51.5 -52.5t-56.5 -113.5t-55.5 -200.5q-41 -192 -6 -294t150 -102q28 0 56.5 7.5t53.5 17.5q28 10 58 26l-48 -231q-25 -15 -54 -25q-25 -10 -58.5 -16t-76.5 -6q-105 0 -180.5 46.5 t-118 130t-51.5 199z" />
<glyph unicode="&#xe16;" horiz-adv-x="1207" d="M208 220l71 332q10 49 25.5 86.5t27.5 65.5q16 31 34 54q-34 36 -61 63q-23 23 -42 43t-19 22q68 93 158 164q77 61 187 112.5t249 51.5q100 0 189 -27t153 -79.5t94.5 -128t10.5 -170.5l-130 -614q-7 -36 -36 -69.5t-61 -61.5q-39 -34 -86 -64h-117l161 758 q13 61 0.5 103.5t-44.5 69.5t-81 38t-105 11q-74 0 -121 -15t-79 -34q-36 -20 -56 -45l130 -128q-29 -23 -54 -52q-20 -25 -40.5 -63.5t-33.5 -90.5l-58 -266q-5 -20 -5 -35.5t20 -15.5l85 -3l-49 -232l-176 2q-77 3 -122.5 53t-18.5 165z" />
<glyph unicode="&#xe17;" horiz-adv-x="1190" d="M95 0l250 1188h259l-40 -199q41 63 98 112q52 44 125 78.5t171 34.5q87 0 150.5 -39t103 -100t53 -138t-2.5 -153l-166 -784h-258l147 706q10 49 13 94t-15 79.5t-58.5 56.5t-118.5 22q-56 0 -105 -19.5t-86 -42.5q-46 -28 -85 -61l-179 -835h-256z" />
<glyph unicode="&#xe18;" horiz-adv-x="1112" d="M156 374q10 44 14 67t6 33l3 12h263l-2 -15q-2 -12 -7 -34t-13 -63q-15 -64 0 -98.5t45.5 -50t69.5 -18t74 -2.5q41 0 85 8.5t80.5 28t65 50t35.5 74.5q17 88 -28.5 127t-125 58.5t-172.5 29.5t-170 38.5t-119 87t-16 177.5q17 87 73.5 147.5t135.5 102t177 61t198 19.5 t178.5 -19.5t137.5 -42.5q66 -28 118 -60l-51 -242q-43 39 -107 66q-54 25 -136 45.5t-189 20.5q-39 0 -84 -1t-85.5 -10t-70 -29.5t-38.5 -57.5q-10 -46 42.5 -62t133.5 -24.5t174.5 -24t166 -57.5t110 -125t6.5 -230q-15 -69 -57.5 -137t-112.5 -123t-166.5 -89 t-216.5 -34q-76 0 -162.5 12t-153.5 53.5t-102 119.5t-7 211z" />
<glyph unicode="&#xe19;" horiz-adv-x="1190" d="M174 249.5q-10 75.5 5 152.5l161 766h259l-149 -709q-15 -77 -0.5 -122.5t42.5 -69t62.5 -30.5t60.5 -7q61 0 115 19.5t94 41.5q46 29 87 63l174 814h256l-245 -1168h-258l40 198q-47 -64 -108 -110q-51 -44 -126 -77t-173 -33q-87 0 -149.5 38t-100 98t-47.5 135.5z" />
<glyph unicode="&#xe1a;" horiz-adv-x="1163" d="M172.5 265q-6.5 77 8.5 153l164 770h259l-164 -780q-18 -88 15.5 -145.5t99.5 -57.5h107q83 0 151 57.5t86 145.5l163 780h262l-166 -770q-16 -74 -58 -152t-105.5 -142.5t-148 -105t-184.5 -40.5h-178q-105 0 -170 40.5t-100 105t-41.5 141.5z" />
<glyph unicode="&#xe1b;" horiz-adv-x="1163" d="M172.5 265q-6.5 77 8.5 153l164 770h259l-164 -780q-18 -88 16.5 -145.5t107.5 -57.5h107q79 0 143 57.5t85 145.5l235 1113h258l-234 -1103q-16 -74 -57 -152t-105.5 -142.5t-152.5 -105t-195 -40.5h-179q-98 0 -159 40.5t-96 105t-41.5 141.5z" />
<glyph unicode="&#xe1c;" horiz-adv-x="1387" d="M244 542.5q0 158.5 37 341.5q31 146 109.5 225t185.5 79h149l-49 -236l-90 3q-28 0 -38 -23t-16 -51q-20 -112 -25.5 -201t-2.5 -150q2 -71 11 -125l269 430h122l83 -430q41 51 86 153q41 87 95 238.5t115 391.5h259q-69 -287 -157.5 -505.5t-165.5 -372.5 q-90 -179 -182 -310h-169l-100 459l-291 -459h-171q-37 120 -52 261q-12 123 -12 281.5z" />
<glyph unicode="&#xe1d;" horiz-adv-x="1381" d="M244 545q0 159 37 339q31 141 104.5 222.5t180.5 81.5h156l-48 -236l-90 3q-25 0 -35.5 -19.5t-18.5 -51.5q-25 -115 -30.5 -204t-3.5 -150q3 -71 16 -125l269 430h123l85 -430q51 76 110 225q51 128 116 344t136 552h261q-84 -398 -183.5 -686t-187.5 -474 q-102 -217 -202 -366h-171l-100 459l-292 -459h-168q-37 122 -52 264q-12 122 -12 281z" />
<glyph unicode="&#xe1e;" horiz-adv-x="1473" d="M269 1188h253l57 -732l325 732h168l13 -732l366 732h257l-592 -1188h-215l-17 701l-315 -701h-208z" />
<glyph unicode="&#xe1f;" horiz-adv-x="1571" d="M269 1188h253l57 -732l325 732h168l13 -732l535 1070h256l-760 -1526h-215l-20 686l-305 -686h-215z" />
<glyph unicode="&#xe20;" horiz-adv-x="1207" d="M59 -2l51 232h78q20 2 25 16.5t9 34.5l54 271q10 49 24.5 86.5t29.5 65.5q15 31 36 54q-34 36 -61 63q-23 23 -42 43t-19 22q66 93 152 164q74 61 181 112.5t242 51.5q110 0 205 -27t158.5 -79.5t93 -128t9.5 -170.5l-130 -614q-7 -36 -36 -69.5t-61 -61.5 q-39 -34 -86 -64h-117l161 758q13 63 -2 105.5t-50 68.5t-85.5 37t-110.5 11q-57 0 -100 -15t-74 -34q-36 -20 -64 -45l130 -128q-22 -18 -45 -47q-20 -25 -40 -62.5t-33 -96.5l-71 -332q-20 -98 -90.5 -160t-148.5 -62h-173z" />
<glyph unicode="&#xe21;" horiz-adv-x="1190" d="M95 0l250 1188h259l-169 -799q29 -34 61 -61q29 -23 67 -41t85 -18q146 0 209.5 63.5t84.5 166.5l146 689h258l-166 -789q-12 -61 -53.5 -135t-103 -137t-143 -106t-176.5 -43q-98 0 -156.5 33t-95.5 74q-41 46 -58 110l-40 -195h-259z" />
<glyph unicode="&#xe22;" horiz-adv-x="1126" d="M125 218.5q-7 69.5 7 142.5q20 90 77 150t121 95q71 42 161 63q-73 12 -125 42q-44 29 -77 76.5t-15 123.5q15 71 53.5 128t88.5 95t107.5 59t108.5 21q54 0 97 -8t75 -16q36 -10 64 -22l-52 -244q-31 15 -61 28q-29 10 -57.5 19t-57.5 9q-25 0 -61.5 -12.5t-46.5 -56.5 q-7 -41 8 -65.5t50 -38t86.5 -18.5t112.5 -5l-51 -232q-83 0 -144.5 -17t-103.5 -44t-66.5 -62t-32.5 -68q-10 -46 0.5 -76.5t34.5 -48.5t61.5 -24.5t78.5 -6.5q115 0 195.5 57.5t98.5 145.5l164 780h258l-163 -770q-15 -74 -57.5 -152t-116 -142.5t-179.5 -105t-248 -40.5 q-133 0 -215.5 31.5t-126.5 85.5t-51 123.5z" />
<glyph unicode="&#xe23;" horiz-adv-x="1010" d="M110 74l46 217q46 -25 100 -42q46 -18 106 -31t127 -13q100 0 162.5 34.5t83.5 121.5q13 57 -23 85t-95 47t-128 39t-123 60t-82 108t-3 186q15 66 59 126t109.5 105t148.5 71t172 26q85 0 146.5 -16t102.5 -36q46 -22 82 -51l-53 -246q-26 31 -73 56q-39 20 -101.5 39.5 t-151.5 19.5q-76 0 -124 -27t-60 -78q-10 -46 26.5 -71t94 -45.5t125.5 -45t123 -66t82 -109t5 -177.5q-13 -61 -45.5 -129t-92.5 -124.5t-153.5 -93t-231.5 -36.5q-87 0 -153.5 13.5t-112.5 33.5q-54 20 -95 49z" />
<glyph unicode="&#xe24;" horiz-adv-x="1207" d="M208 220l71 332q10 49 25.5 86.5t27.5 65.5q16 31 34 54q-34 36 -61 63q-23 23 -42 43t-19 22q68 93 158 164q77 61 184.5 112.5t243.5 51.5q102 0 193 -27t156 -79.5t95.5 -128t10.5 -170.5l-246 -1149q-8 -36 -36 -69t-61 -62q-38 -34 -84 -64h-118l276 1293 q13 63 -2 107t-51.5 69.5t-87.5 35.5t-107 10q-62 0 -107.5 -15t-74.5 -34q-34 -20 -56 -45l128 -128q-26 -23 -52 -52q-20 -25 -40.5 -63.5t-33.5 -90.5l-58 -266q-5 -20 -5 -35.5t20 -15.5l85 -3l-49 -230h-156q-95 0 -140 55t-21 163z" />
<glyph unicode="&#xe25;" horiz-adv-x="1100" d="M125 322q20 96 79.5 167.5t137.5 118.5t165 70t164 23q88 0 134.5 4t66.5 9q26 7 29 16l10 42q41 206 -183 206q-88 0 -161 -32t-125 -71q-61 -46 -110 -103l-46 227q56 61 132 107q63 42 153.5 75t207.5 33q130 0 214.5 -36.5t129.5 -100t53.5 -151.5t-14.5 -194 l-156 -732h-258l104 501q-12 -7 -41 -12q-25 -5 -70 -9t-121 -4q-36 0 -73 -8.5t-72 -28t-59.5 -47.5t-31.5 -70q-13 -51 20.5 -84t110.5 -33q29 0 56.5 6.5t50.5 13.5q29 10 52 21l-52 -238q-17 -10 -43 -18q-23 -5 -56.5 -10t-80.5 -5q-173 0 -263.5 89.5t-53.5 257.5z " />
<glyph unicode="&#xe26;" horiz-adv-x="1207" d="M61 0l49 230h78q20 2 25 16.5t9 34.5l54 271q10 49 24.5 86.5t29.5 65.5q15 31 36 54q-34 36 -61 63q-23 23 -42 43t-19 22q66 93 152 164q74 61 184.5 112.5t257.5 51.5q87 0 175 -27t154.5 -79.5t102 -128t15.5 -170.5l-246 -1149q-8 -36 -36 -69t-61 -62 q-38 -34 -84 -64h-118l276 1293q23 104 -42 163t-180 59q-74 0 -124 -15t-81 -34q-37 -20 -59 -45l130 -128q-22 -18 -45 -47q-20 -25 -40 -62.5t-33 -96.5l-71 -332q-20 -98 -88 -156.5t-158 -61.5z" />
<glyph unicode="&#xe27;" horiz-adv-x="1092" d="M88 146l140 233q24 -49 70 -88q36 -33 91.5 -59.5t132.5 -26.5q47 0 104.5 23t112.5 70t100 120t65 173t6 170.5t-48 114t-82 63t-96 19.5q-76 0 -143 -22t-119 -50q-58 -31 -104 -70l-42 223q52 49 120 87q59 34 142.5 61t191.5 27q120 0 214.5 -45t152.5 -127 t76.5 -197t-11.5 -254q-31 -139 -96 -252.5t-157.5 -194t-203.5 -123.5t-229 -43q-107 0 -180.5 25.5t-119.5 57.5q-54 37 -88 85z" />
<glyph unicode="&#xe28;" horiz-adv-x="1215" d="M95 0l171 809q20 95 81 170.5t144 127t176 79.5t181 28q43 0 93 -6.5t85 -19.5q56 20 82 53.5t40 92.5h257q-20 -85 -67.5 -157.5t-113.5 -101.5q28 -23 44.5 -58t24 -70.5t7.5 -71t-8 -66.5l-171 -809h-259l172 809q17 82 -51.5 127.5t-183.5 45.5q-59 0 -106.5 -15 t-83 -40.5t-58.5 -56t-29 -61.5l-43 -215q43 31 92 56q44 20 99 39.5t116 19.5l-56 -257q-74 0 -131 -15t-95 -32q-46 -20 -76 -46l-77 -359h-256z" />
<glyph unicode="&#xe29;" horiz-adv-x="1163" d="M174.5 241.5q-13.5 80.5 6.5 176.5l164 770h259l-162 -766q-20 -97 13.5 -157t113.5 -60h107q83 0 138.5 57.5t76.5 145.5l30 120h-230l39 178h230l102 482h262l-105 -482h76l-37 -178h-78l-28 -110q-51 -200 -181.5 -320t-305.5 -120h-179q-87 0 -153.5 33t-105.5 91.5 t-52.5 139z" />
<glyph unicode="&#xe2a;" horiz-adv-x="1121" d="M124.5 167q-19.5 65 0.5 155q20 96 74.5 167.5t127 118.5t155 70t158.5 23q88 0 140 4t80 9q34 7 46 16l10 42q20 106 -29 156t-155 50q-87 0 -160 -32t-124 -71q-62 -46 -110 -103l-40 234q53 56 127 103q61 39 152.5 72t206.5 33q36 0 74 -4t66 -12q66 22 89 53t37 83 h259q-18 -76 -74.5 -133t-138.5 -92q59 -54 79 -152.5t-5 -224.5l-159 -732h-259l106 501q-20 -7 -57 -15q-31 -5 -81.5 -8.5t-128.5 -3.5q-66 0 -127.5 -46.5t-74.5 -105.5q-13 -51 20 -84t111 -33q29 0 57.5 6.5t52.5 16.5q29 10 51 26l-51 -246q-22 -10 -51 -18 q-23 -5 -53 -10t-57 -5q-88 0 -159.5 21.5t-118.5 63.5t-66.5 107z" />
<glyph unicode="&#xe2b;" horiz-adv-x="1097" d="M95 0l250 1188h259l-84 -407l496 407h352l-508 -416q49 -10 105 -34t98.5 -71t61.5 -125t-6 -193l-74 -349h-261l64 312q17 88 4.5 147t-39.5 97t-63 57t-61 25l-244 -206l-94 -432h-256z" />
<glyph unicode="&#xe2c;" horiz-adv-x="1571" d="M274 1188h256l56 -732l323 732h171l10 -732l259 504q17 31 23 61q10 49 -5.5 86t-35.5 63q-25 29 -61 49q88 31 159 76q61 39 116 96.5t73 134.5h263q-20 -97 -78.5 -154.5t-123.5 -93.5q-74 -42 -161 -59q33 -13 62 -37q22 -20 38 -51.5t11 -80.5q-3 -22 -12 -48.5 t-20.5 -49.5t-21 -39.5t-11.5 -23.5l-443 -889h-215l-20 686l-305 -686h-215z" />
<glyph unicode="&#xe2d;" horiz-adv-x="1195" d="M149.5 253.5q-19.5 84.5 4.5 184.5q25 120 84.5 170t135.5 50h291l-47 -233l-162 3q-20 4 -33 -7t-13 -32q0 -98 65 -141t147 -43q152 0 246 92t138 294q20 98 11.5 171t-39 121t-80.5 72.5t-112 24.5q-85 0 -143.5 -33t-97.5 -72q-46 -46 -74 -103h-251q44 123 129 222 q36 41 83 80.5t107 70t134.5 50t164.5 19.5q161 0 255.5 -61t139.5 -152.5t48.5 -201.5t-16.5 -208q-31 -149 -98.5 -264t-160 -193t-204 -117t-231.5 -39q-115 0 -203.5 34t-143.5 95.5t-74.5 146z" />
<glyph unicode="&#xe2e;" horiz-adv-x="1195" d="M151.5 253.5q-19.5 84.5 2.5 184.5q7 41 24 80.5t41.5 70.5t61.5 50t88 19h296l-47 -233h-159q-20 0 -33.5 -8.5t-15.5 -30.5q-2 -46 15 -79t46.5 -56t69.5 -34.5t81 -11.5q147 0 243.5 92t140.5 294q42 195 -27.5 293t-194.5 98q-83 0 -141.5 -33t-97.5 -71 q-46 -47 -74 -102h-251q44 120 129 218q36 41 81.5 80.5t105.5 70t133 50t163 19.5q42 0 91 -4t98 -25q54 15 81 51t39 98h249q-20 -90 -84.5 -161.5t-130.5 -94.5q83 -90 100 -220t-10 -267q-31 -149 -98.5 -264t-160 -193t-204 -117t-231.5 -39q-115 0 -202.5 34 t-142.5 95.5t-74.5 146z" />
<glyph unicode="&#xe2f;" horiz-adv-x="1107" d="M308 1188h253q3 -54 8 -96t20 -72.5t45.5 -46t84.5 -15.5q85 0 165.5 58.5t131.5 171.5h249l-164 -770q-29 -126 -70.5 -207t-98.5 -128t-127 -65t-150 -18l49 230q25 0 45.5 2.5t36 20.5t30 58t29.5 114l84 403q-34 -29 -77 -49q-36 -20 -88.5 -34.5t-118.5 -14.5 q-105 0 -172.5 39.5t-106 105t-51.5 147.5t-7 166z" />
<glyph unicode="&#xe30;" horiz-adv-x="780" d="M179 399l26 131h247l-17 -90q-5 -34 12 -47.5t83 -13.5h235l-143 -225h-223q-147 0 -195 63.5t-25 181.5zM292 856.5q-3 47.5 8 105.5l22 123h249l-21 -94q-8 -33 10.5 -47.5t84.5 -14.5h236l-141 -225h-230q-76 0 -123 18t-69.5 52.5t-25.5 82z" />
<glyph unicode="&#xe31;" d="M-333.5 1501.5q-11.5 47.5 3.5 123.5l25 121h251l-17 -87q-5 -34 10 -47.5t79 -13.5h476l-143 -218h-466q-54 0 -100 10t-76.5 37t-42 74.5z" />
<glyph unicode="&#xe32;" horiz-adv-x="972" d="M235 852l49 228q46 39 102 68q49 24 113.5 45t138.5 21q97 0 181.5 -31t140.5 -90t79 -143.5t0 -191.5l-161 -758h-258l156 732q15 69 0.5 118t-45 77t-71 40.5t-81.5 12.5q-59 0 -119.5 -20t-110.5 -44q-59 -28 -114 -64z" />
<glyph unicode="&#xe33;" horiz-adv-x="972" d="M-249 1629q10 53 41.5 99t70.5 81t88 53.5t98 18.5q53 0 96 -18.5t69.5 -53.5t35.5 -81t-1 -99q-10 -51 -40 -96t-70.5 -79.5t-90.5 -54t-102 -19.5q-102 0 -159.5 73t-35.5 176zM-82 1629q-8 -34 10 -56t52 -22q29 0 54 22t32 56q5 31 -11 53.5t-47 22.5 q-29 0 -57.5 -22.5t-32.5 -53.5zM235 852l49 228q46 39 102 68q49 24 113.5 45t138.5 21q97 0 181.5 -31t140.5 -90t79 -143.5t0 -191.5l-161 -758h-258l156 732q15 69 0.5 118t-45 77t-71 40.5t-81.5 12.5q-59 0 -119.5 -20t-110.5 -44q-59 -28 -114 -64z" />
<glyph unicode="&#xe34;" d="M-701 1380l137 212h748l-43 -212h-842z" />
<glyph unicode="&#xe35;" d="M-701 1380l140 220h495l30 146h254l-77 -366h-842z" />
<glyph unicode="&#xe36;" d="M-701 1380l137 220h320q3 10 7.5 19.5t8.5 19.5q16 36 42.5 64.5t58.5 49.5t68.5 33t68.5 12q56 0 93.5 -21t57.5 -51.5t25.5 -68t-2.5 -72.5q-10 -49 -39.5 -87.5t-67.5 -64t-78 -39.5t-73 -14h-627zM-69 1588q-5 -16 5 -27.5t25 -11.5t27 11t17 28q3 14 -5 25.5 t-22 11.5q-16 0 -29 -11.5t-18 -25.5z" />
<glyph unicode="&#xe37;" d="M-701 1380l140 220h290l30 146h180l-31 -146h77l25 146h208l-77 -366h-842z" />
<glyph unicode="&#xe38;" d="M-569 -415l51 225h137q112 0 169.5 -55t32.5 -167l-49 -223h-258l34 159q4 22 -7.5 41.5t-36.5 19.5h-73z" />
<glyph unicode="&#xe39;" d="M-914 -415l52 225h158q42 0 78.5 -12.5t65 -35.5t40.5 -55t5 -73q-10 -42 -3.5 -55.5t27.5 -13.5q25 0 39 12.5t24 53.5l39 179h259l-51 -235q-8 -36 -27.5 -78t-61.5 -78.5t-110 -58.5t-170 -22q-74 0 -126 15t-80 40.5t-36.5 60t-1.5 70.5q5 22 -6 41.5t-38 19.5h-76z " />
<glyph unicode="&#xe3a;" d="M-442 -430l53 240h259l-54 -240h-258z" />
<glyph unicode="&#xe3f;" horiz-adv-x="1087" d="M95 0l284 1341h246l46 213h250l-49 -220q147 -20 215 -116.5t42 -216.5q-20 -100 -92 -183t-179 -112q120 -20 184 -100t36 -207q-16 -77 -61 -144t-110 -120t-145.5 -88t-170.5 -45l-46 -214h-250l45 212h-245zM399 228h141q64 0 114 16.5t84 42t55 55t26 57.5 q7 36 2 70.5t-32 61.5t-75.5 43.5t-124.5 16.5h-113zM528 824h97q23 0 60 5.5t73 20.5t66.5 44.5t40.5 80.5q10 41 -5 68t-42 42.5t-58.5 20.5t-58.5 5h-112z" />
<glyph unicode="&#xe40;" horiz-adv-x="511" d="M137 116.5q-9 42.5 4 103.5l204 968h259l-192 -907q-4 -20 -4 -34.5t20 -16.5h76l-48 -230h-156q-39 0 -73.5 11t-57.5 37t-32 68.5z" />
<glyph unicode="&#xe41;" horiz-adv-x="1005" d="M141 220l204 968h259l-192 -907q-4 -20 -4 -34.5t20 -16.5h76l-48 -230h-175q-76 0 -119.5 54t-20.5 166zM632 220l206 968h258l-190 -907q-5 -20 -5 -34.5t20 -16.5h78l-49 -230h-171q-77 0 -123.5 54t-23.5 166z" />
<glyph unicode="&#xe42;" horiz-adv-x="647" d="M276 220l183 860q17 79 22 139.5t5 106.5v83t8 73q25 116 139.5 191.5t304.5 75.5h344l-48 -228h-198q-136 0 -208.5 -14.5t-79.5 -52.5q-6 -29 -6 -60.5v-73.5t-3.5 -101t-22.5 -139l-168 -799q-6 -20 -6 -34.5t19 -16.5h77l-47 -230h-173q-77 0 -119.5 61t-22.5 159z " />
<glyph unicode="&#xe43;" horiz-adv-x="821" d="M332 1575q49 54 106 99q48 38 112.5 70t138.5 32q76 0 144 -20t114.5 -66t64 -118t-2.5 -172q-13 -59 -28.5 -93.5t-32.5 -71.5t-34.5 -85.5t-35.5 -133.5l-153 -727q-5 -20 -5.5 -34t18.5 -17h76l-49 -238h-164q-90 0 -130.5 61t-20.5 159l170 796q15 76 34.5 130.5 t38 98t34 80.5t23.5 75q5 22 3.5 47t-12.5 46.5t-36.5 36t-66.5 14.5q-52 0 -99.5 -29.5t-82.5 -65.5q-44 -44 -82 -95z" />
<glyph unicode="&#xe44;" horiz-adv-x="877" d="M320 1521l51 230q44 0 81 -20.5t65 -46t45 -50t19 -29.5q29 41 64 71q31 29 77 51t106 22q73 0 117 -36.5t62.5 -94t16 -128.5t-17.5 -144l-227 -1062q-5 -20 -6 -34.5t21 -17.5h76l-49 -232h-159q-97 0 -136.5 61t-17.5 159l240 1126q4 25 12 56.5t8 58.5t-10 45t-39 15 q-23 -2 -51 -31t-57 -61q-31 -39 -63 -88q-16 49 -44 90q-25 34 -69 62t-115 28z" />
<glyph unicode="&#xe45;" horiz-adv-x="972" d="M235 852l49 228q46 39 105 68q51 24 118 45t148 21q93 0 172 -31t134 -90t78 -143.5t0 -191.5l-235 -1098q-8 -36 -36 -69t-62 -62q-38 -34 -84 -64h-118l272 1267q15 74 -1.5 123t-48.5 77t-73.5 38t-73.5 10q-59 0 -119.5 -20t-110.5 -44q-59 -28 -114 -64z" />
<glyph unicode="&#xe46;" horiz-adv-x="1126" d="M238 670.5q-26 71.5 0 189.5q14 66 50.5 130.5t88 114.5t113.5 79.5t132 29.5q29 0 54 -27t46 -61q23 -38 40 -87q42 49 83 87q36 34 74.5 61t65.5 27q74 0 124.5 -33t77.5 -86t33 -116t-6 -119l-256 -1200q-8 -36 -36 -69t-62 -62q-39 -34 -84 -64h-118l287 1344 q20 97 6.5 134t-45.5 37q-15 0 -46.5 -30.5t-65.5 -65.5q-39 -44 -85 -98q-23 54 -47 98q-20 36 -39 66t-32 30q-12 0 -44 -21t-51 -99q-10 -44 -2.5 -74.5t21.5 -50.5q13 -25 35 -39l-130 -207q-69 22 -115 69q-41 41 -67 112.5z" />
<glyph unicode="&#xe47;" d="M-613 1505q-12 41 2 95q29 132 123 189t214 62l205 5q57 0 107 22t90 50q46 31 87 68l-51 -242q-34 -15 -76 -26q-37 -10 -85.5 -18t-104.5 -8h-179q-77 0 -109 -33t-40 -69q-5 -22 8.5 -49t52.5 -27q29 0 51.5 15t38.5 36q18 23 33 54h65q0 -31 5 -54q5 -20 12.5 -35.5 t24.5 -15.5q39 0 64.5 30.5t35.5 74.5h175q-10 -47 -35 -92t-62 -79t-83 -56t-100 -22q-28 0 -49.5 14t-34.5 32q-14 20 -26 46q-20 -24 -48 -46q-23 -17 -55 -31.5t-71 -14.5q-46 0 -84 14t-63.5 42t-37.5 69z" />
<glyph unicode="&#xe48;" d="M-59 1380l77 366h256l-76 -366h-257z" />
<glyph unicode="&#xe49;" d="M-415 1524l46 222h264q39 0 64.5 -28t20.5 -67q-5 -20 5 -35.5t27 -15.5h406l-142 -220h-460q-46 0 -80 20.5t-20 71.5q5 34 -8 43t-28 9h-95z" />
<glyph unicode="&#xe4a;" d="M-564 1524q10 54 41.5 95.5t72 71t84.5 44t82 14.5q29 0 46.5 -15.5t29.5 -33.5q10 -24 18 -49q18 25 39 47q17 17 41.5 32.5t53.5 15.5q31 0 63 -10.5t56.5 -27t36.5 -38t8 -45.5q-6 -20 0.5 -22.5t19.5 -2.5h290l-142 -220h-266q-36 0 -55 15t-26.5 37t-7.5 46t5 46 q5 28 -3 52t-33 24q-34 0 -47.5 -24.5t-18.5 -51.5h-80q5 25 5 50.5t-38 25.5q-20 0 -41 -24.5t-26 -51.5q-8 -29 3 -54.5t23 -45.5q15 -23 41 -44h-229q-17 20 -27 44q-10 20 -17 45.5t-2 54.5z" />
<glyph unicode="&#xe4b;" d="M-171 1449l49 225h124l16 72h256l-15 -75h127l-46 -222h-128l-14 -69h-257l15 69h-127z" />
<glyph unicode="&#xe4c;" d="M-359 1380l24 95q10 46 43 94.5t79.5 88.5t101.5 64t109 24h207l-144 -222h-43q-52 0 -72 -26t-34 -74l-10 -44h-261z" />
<glyph unicode="&#xe4d;" d="M-249 1625q10 54 41.5 100t70.5 81t88 55t98 20q53 0 96 -20t69.5 -55t35.5 -81t-1 -100q-10 -51 -40 -95.5t-70.5 -79t-90.5 -53.5t-102 -19q-102 0 -159.5 72t-35.5 175zM-82 1625q-8 -34 10 -55t52 -21q29 0 54 21.5t32 54.5q5 31 -12.5 54t-45.5 23q-32 0 -59 -23 t-31 -54z" />
<glyph unicode="&#xe4e;" d="M-372.5 1428q-11.5 36 1.5 90q12 61 47 106t80.5 73t95.5 41t97 13q17 83 111 122t216 39l-27 -133q-74 0 -134.5 -47t-89.5 -181q-51 0 -99 -19.5t-62 -77.5q-5 -20 -0.5 -36t8.5 -23q8 -10 18 -15h-241q-10 12 -21.5 48z" />
<glyph unicode="&#xe4f;" horiz-adv-x="1243" d="M197 295.5q-21 95.5 3 205.5q22 110 83.5 206.5t149 168.5t192.5 112.5t213 40.5q110 0 198 -40.5t144 -112.5t77 -168.5t-2 -206.5t-84.5 -205.5t-148.5 -166t-192 -111t-215 -40.5t-197.5 40.5t-143.5 111t-77 166zM382.5 370q13.5 -62 51 -110t94 -74.5t124.5 -26.5 q72 0 140 26.5t125.5 74.5t97.5 110t55 131q15 71 1.5 134.5t-51.5 109.5t-94 73t-127 27q-69 0 -137 -27t-124.5 -73t-97.5 -108.5t-56 -135.5q-15 -69 -1.5 -131zM494 501q10 49 37 91.5t65.5 74.5t85 50t94.5 18q98 0 151 -68t33 -166q-10 -49 -38 -90.5t-67 -73.5 t-84.5 -50t-94.5 -18q-97 0 -149.5 68t-32.5 164z" />
<glyph unicode="&#xe50;" horiz-adv-x="1190" d="M159 295.5q-20 95.5 2 205.5q23 108 87 205.5t152.5 170.5t196 115t214.5 42q110 0 199 -42t147.5 -115t81.5 -170.5t0 -205.5q-23 -110 -90 -205.5t-157.5 -167.5t-198 -112.5t-217.5 -40.5t-197.5 40.5t-143.5 112.5t-76 167.5zM415 384q10 -56 40.5 -97t77 -65 t105.5 -24q58 0 114.5 24t104 65t81.5 97t47 117t1.5 118t-41 98t-75.5 65t-105 24t-115 -24t-103.5 -65t-82 -98t-46.5 -118q-13 -61 -3 -117z" />
<glyph unicode="&#xe51;" horiz-adv-x="1190" d="M179.5 416.5q-20.5 74.5 1.5 177.5q18 87 76 166.5t140 139.5t185.5 95.5t213.5 35.5q118 0 211.5 -39.5t152.5 -113.5t79.5 -179t-8.5 -235q-33 -154 -121.5 -261.5t-198.5 -174.5t-223.5 -96.5t-196.5 -29.5h-23h-39t-39.5 1.5t-23.5 1.5l113 220h10q59 0 134.5 20.5 t147 62t128 105t73.5 151.5q37 171 -33.5 254t-188.5 83q-69 0 -122.5 -20.5t-93.5 -52.5t-63 -67.5t-31 -66.5q-10 -44 -6 -76t15.5 -52.5t25.5 -29t26 -8.5q37 0 51 28t24 72l10 48h259l-17 -97q-8 -34 -30 -81t-65.5 -92t-112 -75.5t-168.5 -30.5q-53 0 -110.5 23 t-99.5 71t-62.5 122.5z" />
<glyph unicode="&#xe52;" horiz-adv-x="1458" d="M295 1314l47 227h39q95 0 162.5 -43.5t109 -107.5t55.5 -136t1 -128l-148 -701q-12 -64 -4.5 -106.5t26 -68t48 -35.5t58.5 -10h335q66 0 123 40.5t77 133.5l56 261q8 34 13 72t2 71t-16.5 55t-44.5 22q-25 0 -48.5 -15t-44.5 -36q-22 -23 -45 -51q-10 28 -24 51 q-12 20 -29 35.5t-39 15.5q-36 0 -64.5 -34.5t-38.5 -77.5q-10 -44 9 -67t52.5 -33t71.5 -11.5t67 -1.5l-49 -230q-82 0 -157.5 7.5t-127 42t-71.5 102.5t5 191q8 33 29.5 83t60.5 95.5t93 79t122 33.5q39 0 62.5 -19t37.5 -42q15 -29 25 -62q29 34 59 62q29 22 64.5 41.5 t74.5 19.5q79 0 126 -39.5t70.5 -98.5t24.5 -129.5t-11 -131.5l-59 -276q-41 -190 -179.5 -288t-318.5 -98h-406q-56 0 -112 25.5t-97.5 73.5t-61 120t2.5 167l163 770q8 41 6.5 74t-19.5 56.5t-57.5 36.5t-105.5 13z" />
<glyph unicode="&#xe53;" horiz-adv-x="1448" d="M157.5 271q-21.5 100 6.5 237q25 117 70 214t109.5 166.5t146 106t179.5 36.5q76 0 122.5 -43t68.5 -94q29 -62 36 -136q42 73 93 136q43 51 106 94t139 43q161 0 239 -140.5t27 -382.5q-29 -120 -72 -214t-87 -162q-49 -76 -105 -132h-245q54 64 99 146 q41 66 83.5 159.5t65.5 202.5q31 146 4 221t-93 75q-74 0 -126 -93t-93 -286h-235q36 176 25.5 277.5t-83.5 101.5q-20 0 -48.5 -11.5t-58.5 -45t-58 -91t-48 -148.5q-31 -144 9 -223.5t142 -79.5q46 0 98 13q28 4 51 12l-46 -208q-18 -14 -41 -24q-20 -10 -50 -16.5 t-66 -6.5q-78 0 -155.5 32t-132.5 98t-76.5 166z" />
<glyph unicode="&#xe54;" horiz-adv-x="1407" d="M150 303q-11 91 11 191q18 87 55.5 177.5t97.5 166.5t145.5 123.5t198.5 47.5h402q41 0 79.5 7.5t71.5 28t58.5 60t39.5 104.5l71 337l261 -5l-92 -417q-20 -93 -66.5 -156.5t-107.5 -103.5t-130.5 -57.5t-133.5 -17.5h-422q-54 0 -97.5 -24.5t-78 -65.5t-59 -95 t-36.5 -115q-29 -128 0.5 -193.5t142.5 -65.5l353 -2q-62 38 -108 92q-38 46 -64 115t-4 164h266q-18 -83 -9 -149t38 -116t80.5 -77t117.5 -27h128l-45 -230h-862q-84 0 -149 39.5t-103.5 106t-49.5 157.5z" />
<glyph unicode="&#xe55;" horiz-adv-x="1412" d="M152.5 315q-11.5 87 6.5 174q17 87 57 179t101.5 167.5t144.5 124.5t190 49h49q0 7 1.5 20t3.5 26q10 49 38 92t67 75.5t86.5 51t96.5 18.5q100 0 155 -70t36 -167q-5 -7 -6 -15.5t-7 -13.5q79 34 106 88t48 156l56 276h262l-85 -405q-20 -95 -61.5 -161t-99 -108 t-125 -62.5t-139.5 -20.5h-433q-53 0 -99.5 -24.5t-82 -65.5t-60 -95t-37.5 -115q-28 -123 -1 -191t134 -68h364q-61 36 -108 90q-39 46 -64 115t-5 164h267q-18 -83 -5.5 -149t44.5 -116t77 -77t91 -27h149l-46 -230h-860q-88 0 -153 44t-103.5 114t-50 157zM865 1039 q-7 -34 11 -55.5t50 -21.5h9q29 6 54 26.5t30 50.5q5 31 -12.5 54t-48.5 23q-34 0 -61 -23t-32 -54z" />
<glyph unicode="&#xe56;" horiz-adv-x="1586" d="M295 1314l50 230h54q139 0 224.5 -51.5t133 -139.5t65.5 -205t23 -247q39 39 95 69q46 25 115 47t159 22q132 0 223.5 -43.5t144 -116.5t67.5 -165t-5 -186q-23 -106 -81 -206t-142.5 -176.5t-194.5 -122t-237 -45.5q-108 0 -183.5 36.5t-126.5 95.5t-79.5 130.5 t-38.5 140.5h263q17 -87 76.5 -131.5t135.5 -44.5q39 0 91.5 18t103.5 56.5t94 99.5t60 149q15 66 1 118.5t-45.5 88t-78 53.5t-97.5 18q-61 0 -110 -22t-90 -60t-72 -88t-55 -106h-237q-5 202 -13.5 349t-39 243.5t-91.5 144t-162 47.5z" />
<glyph unicode="&#xe57;" horiz-adv-x="1901" d="M155 300.5q-14 95.5 9 207.5q25 117 71 211.5t108 160t134.5 100t150.5 34.5q73 0 117 -41.5t68.5 -92t31.5 -95.5t10 -53q3 6 27 51t69 95.5t106.5 93t134.5 42.5q157 0 231.5 -132t22.5 -374q-12 -54 -21 -91.5t-19.5 -66t-23 -54t-31.5 -55.5q61 8 100 56t64 164 l149 701q41 190 180.5 286t329.5 96h35l-48 -230q-66 0 -108.5 -11t-68 -29.5t-40 -48.5t-22.5 -70l-163 -771q-20 -95 -72.5 -166.5t-118.5 -120t-136 -73t-127 -24.5h-379q56 64 108 146q44 66 87.5 159.5t66.5 202.5q31 146 15.5 209.5t-87.5 63.5q-151 0 -215 -302h-207 q28 136 4 219t-92 83q-22 0 -46.5 -8t-49 -37.5t-47.5 -83t-41 -144.5q-31 -144 14 -223.5t128 -79.5q20 0 48 5t53 10q29 8 57 18l-43 -216q-34 -12 -61 -22q-26 -10 -56 -16t-50 -6q-100 0 -175.5 41.5t-121.5 113.5t-60 167.5z" />
<glyph unicode="&#xe58;" horiz-adv-x="1412" d="M151.5 288q-12.5 98 12.5 220q20 94 68.5 185t119 161t162.5 112.5t200 42.5h354q41 0 79 7.5t73 29.5t60 62t39 103l69 335h258l-80 -376q-25 -118 -76 -192t-115 -118t-137 -60t-139 -16h-344q-71 0 -127.5 -22t-97.5 -61t-66.5 -91t-38.5 -111q-31 -144 -3 -219 t82 -75q44 0 87.5 42t77.5 93q39 59 71 136q18 -76 46 -136q25 -51 65 -93t99 -42q31 0 61.5 7.5t55.5 28t44.5 56t29.5 92.5l14 67h257l-12 -67q-15 -83 -50.5 -158t-96.5 -131t-147.5 -89t-204.5 -33q-71 0 -116 25.5t-71 55.5q-29 36 -43 85q-29 -49 -65 -85 q-31 -31 -75.5 -56t-102.5 -25q-67 0 -127 36.5t-98.5 106t-51 167.5z" />
<glyph unicode="&#xe59;" horiz-adv-x="1688" d="M156 300.5q-15 95.5 8 207.5q25 117 80.5 214t123 166.5t139.5 106t125 36.5q49 0 87.5 -13.5t66.5 -35.5t50 -50t39 -60q31 108 104 175t171 67q66 0 112.5 -28t82 -61.5t65 -61.5t60.5 -28q44 0 70 83t55 216l66 312h261l-66 -312q-17 -79 -46 -171.5t-75.5 -172 t-120 -132t-180.5 -52.5q-74 0 -124 28t-87.5 63t-67 61t-59.5 23q-20 -5 -47.5 -23t-39.5 -64q0 -8 -1.5 -15t-1.5 -11l13 -140q5 -67 17 -219.5t29 -408.5h-254l-49 676q-4 54 -40 94.5t-82 40.5q-20 0 -49.5 -12.5t-60.5 -47.5t-60.5 -93.5t-47.5 -149.5 q-31 -142 5.5 -222.5t117.5 -80.5q20 0 48.5 6.5t51.5 13.5q29 10 54 21l-47 -221q-22 -13 -62 -30t-111 -17q-83 0 -151.5 41.5t-112.5 113.5t-59 167.5z" />
<glyph unicode="&#xe5a;" horiz-adv-x="1491" d="M308 1188h253q5 -108 31 -169t122 -61q90 0 170.5 58.5t131.5 171.5h249l-164 -770q-20 -93 -50 -168.5t-80 -132t-126.5 -87t-189.5 -30.5l49 230q31 0 49.5 1t34.5 22t30 68.5t34 142.5l77 364q-31 -29 -74 -49q-36 -20 -92.5 -34.5t-130.5 -14.5q-100 0 -163.5 39.5 t-102 105t-51.5 147.5t-7 166zM1139 0l251 1188h259l-251 -1188h-259z" />
<glyph unicode="&#xe5b;" horiz-adv-x="1935" d="M194 299.5q-18 91.5 4 186.5q22 103 74.5 200.5t133 173t188 121t241.5 45.5q79 0 139 -18.5t101 -50t68 -69.5t42 -79q36 -98 29 -218h-254q0 59 -18 105q-14 42 -50.5 75t-102.5 33q-51 0 -102.5 -22t-96.5 -61.5t-80.5 -98t-50.5 -136.5q-15 -71 -2.5 -124.5t44 -88.5 t76.5 -53t94 -18q51 0 102 23.5t92 50.5q46 34 87 78l108 -126l130 128l92 -128l139 136q15 -46 38 -83q20 -31 46 -56t61 -25q39 0 59.5 19t25.5 42q5 31 -2.5 60.5t-19.5 49.5q-15 25 -39 47h251q23 -18 35 -44q13 -23 19.5 -56.5t-4.5 -79.5q-7 -34 -33 -78.5t-67.5 -85 t-101.5 -68.5t-138 -28q-49 0 -80.5 25.5t-51.5 55.5q-23 36 -37 85l-133 -129l-89 129l-129 -129l-105 129q-41 -49 -88 -85q-44 -34 -99 -59t-119 -25q-122 0 -211 44.5t-143 116.5t-72 163.5z" />
<glyph unicode="&#x2000;" horiz-adv-x="1152" />
<glyph unicode="&#x2001;" horiz-adv-x="2304" />
<glyph unicode="&#x2002;" horiz-adv-x="1152" />
<glyph unicode="&#x2003;" horiz-adv-x="2304" />
<glyph unicode="&#x2004;" horiz-adv-x="768" />
<glyph unicode="&#x2005;" horiz-adv-x="576" />
<glyph unicode="&#x2006;" horiz-adv-x="384" />
<glyph unicode="&#x2007;" horiz-adv-x="384" />
<glyph unicode="&#x2008;" horiz-adv-x="288" />
<glyph unicode="&#x2009;" horiz-adv-x="460" />
<glyph unicode="&#x200a;" horiz-adv-x="128" />
<glyph unicode="&#x2010;" horiz-adv-x="792" d="M198 486l46 213h604l-47 -213h-603z" />
<glyph unicode="&#x2011;" horiz-adv-x="792" d="M198 486l46 213h604l-47 -213h-603z" />
<glyph unicode="&#x2012;" horiz-adv-x="792" d="M198 486l46 213h604l-47 -213h-603z" />
<glyph unicode="&#x2013;" horiz-adv-x="1061" d="M198 486l46 213h872l-46 -213h-872z" />
<glyph unicode="&#x2014;" horiz-adv-x="1548" d="M198 486l46 213h1358l-46 -213h-1358z" />
<glyph unicode="&#x2018;" horiz-adv-x="447" d="M289 921l41 195q15 72 60 132.5t96 102.5q59 49 129 90h274q-74 -41 -137 -92q-51 -44 -101 -104t-62 -129l-41 -195h-259z" />
<glyph unicode="&#x2019;" horiz-adv-x="450" d="M61 921q71 41 134 93q51 44 99 102.5t65 127.5l40 197h261l-40 -197q-15 -72 -60 -129t-96 -101q-59 -49 -129 -93h-274z" />
<glyph unicode="&#x201c;" horiz-adv-x="806" d="M289 921l41 195q15 72 60 132.5t96 102.5q59 49 129 90h243q-69 -41 -126 -92q-48 -44 -94.5 -104t-58.5 -129l-41 -195h-249zM658 921l41 195q15 72 63.5 132.5t102.5 102.5q64 49 139 90h242q-74 -41 -135 -92q-51 -44 -101 -104t-62 -129l-42 -195h-248z" />
<glyph unicode="&#x201d;" horiz-adv-x="808" d="M61 921q71 41 134 93q51 44 99 102.5t65 127.5l40 197h251l-44 -197q-15 -72 -65 -129t-101 -101q-64 -49 -135 -93h-244zM450 921q66 41 124 93q48 44 92.5 102.5t61.5 127.5l42 197h249l-41 -197q-16 -72 -61 -129t-96 -101q-59 -49 -127 -93h-244z" />
<glyph unicode="&#x2022;" horiz-adv-x="741" d="M219 490q-11 50 1 106q12 59 45 110.5t78.5 88.5t100.5 58.5t114 21.5q114 0 177.5 -80.5t36.5 -198.5q-12 -56 -44 -106t-77 -87t-100 -59t-111 -22q-59 0 -105 22t-75.5 59t-40.5 87z" />
<glyph unicode="&#x2026;" horiz-adv-x="1522" d="M95 0l49 238h261l-51 -238h-259zM632 0l49 238h261l-51 -238h-259zM1170 0l49 238h261l-51 -238h-259z" />
<glyph unicode="&#x202f;" horiz-adv-x="460" />
<glyph unicode="&#x205f;" horiz-adv-x="576" />
<glyph unicode="&#x20ac;" horiz-adv-x="1407" d="M181 415l39 176h129l12 64q5 20 9 38t11 39h-130l35 179h166q142 244 334 346t412 102q148 0 242 -20t148 -49l-139 -225q-67 36 -145 52.5t-160 16.5q-125 0 -232.5 -59t-176.5 -164h479l-39 -179h-533q-14 -38 -22 -77q-5 -17 -7 -33t-4 -31h483l-37 -176h-430 q20 -61 58.5 -101t82 -66t91 -36t88.5 -10q97 0 178 29.5t162 68.5l44 -221q-83 -44 -196.5 -72.5t-262.5 -28.5q-108 0 -201 29t-163.5 84t-111 137t-43.5 187h-170z" />
<glyph unicode="&#x2122;" horiz-adv-x="1007" d="M359 1244l12 61h318l-13 -61h-121l-81 -392h-75l85 392h-125zM632 852l98 453h84l75 -340l225 340h76l-94 -453h-65l73 338l-232 -338h-24l-72 338l-72 -338h-72z" />
<glyph unicode="&#x25fc;" horiz-adv-x="1010" d="M0 0v1011h1011v-1011h-1011z" />
<glyph horiz-adv-x="1168" d="M251 960q47 69 120 125q64 49 165.5 89t247.5 40q56 0 112 -13t100 -31q56 18 90.5 56.5t49.5 107.5h259q-13 -52 -38.5 -99t-58.5 -85.5t-71.5 -65t-76.5 -36.5q74 -86 94.5 -204.5t-3.5 -225.5q-33 -162 -106 -280t-171.5 -192.5t-212 -110t-229.5 -35.5h-120l-18 389 q-5 20 -7.5 28t-22.5 8h-68l49 233h126q29 0 60 -5t59.5 -24.5t48 -55t21.5 -97.5l10 -244q41 0 91 29.5t96.5 81t83.5 122t54 153.5q23 110 1.5 180t-63.5 110t-96.5 55t-94.5 15q-107 0 -189 -38.5t-138 -81.5q-66 -52 -116 -118z" />
<glyph horiz-adv-x="1868" d="M205 220l71 332q10 49 26 86.5t28 65.5q15 31 34 54q-34 36 -62 63q-22 23 -40 43t-18 22q68 93 155 164q73 61 179 112.5t236 51.5q105 0 200 -27t161 -79.5t96.5 -128t10.5 -170.5l-84 -401q-8 -44 -9 -81.5t8 -64.5t31.5 -42t63.5 -15h108q82 0 133.5 57.5t68.5 145.5 l164 780h259l-164 -770q-15 -74 -52.5 -152t-97.5 -142.5t-143 -105t-190 -40.5h-206q-87 0 -142 35.5t-82 95.5t-28 139.5t20 169.5l71 340q13 56 0.5 98.5t-46.5 70.5t-82 40.5t-104 12.5q-74 0 -122 -15t-76 -34q-33 -20 -53 -45l130 -128q-26 -18 -52 -47 q-20 -25 -42 -62.5t-34 -96.5l-59 -268q-5 -20 -5 -34.5t20 -17.5h88l-49 -232h-144q-122 -2 -159.5 60t-16.5 160z" />
<glyph d="M-738 1602q29 137 119.5 193t216.5 56h153q59 0 109 19t89 45q46 29 85 66l-42 -225q-36 -15 -80 -26q-36 -10 -84 -17.5t-107 -7.5h-129q-76 0 -109 -33t-41 -70q-4 -22 2 -49t34 -27t47 15t33 37q12 22 22 51h49q-3 -29 2 -51q5 -20 16 -36t35 -16q18 0 36 11.5t31 28 t22 34.5t11 29h177q-23 -108 -100 -178.5t-181 -70.5q-29 0 -49 14t-34 32q-15 20 -25 49q-15 -29 -36 -49q-20 -17 -47 -31.5t-66 -14.5q-82 0 -131.5 57.5t-27.5 164.5z" />
<glyph d="M-136 2008l48 222h252q38 0 64 -28t18 -67q-5 -20 6.5 -35.5t31.5 -15.5h287l-141 -223h-325q-59 0 -86 28.5t-19 66.5q5 34 -6.5 43t-27.5 9h-102z" />
<glyph d="M-249 1894.5q-7 25.5 0 54.5q13 59 45.5 100.5t72 70t79.5 41.5t67 13q23 0 38.5 -16t25.5 -33q11 -24 16 -49q15 25 35 49q18 17 43 33t52 16q59 0 99 -32t52 -90q3 -20 6.5 -22t16.5 -2l159 -3l-140 -220h-142q-71 0 -89 32t-11 71q3 14 5.5 33.5t1 38.5t-9 32 t-24.5 13q-20 0 -35.5 -24.5t-21.5 -51.5h-51q5 25 2.5 50.5t-23.5 25.5q-18 0 -38.5 -24.5t-25.5 -51.5q-5 -29 1.5 -54.5t20.5 -45.5q12 -23 30 -44h-206q-20 20 -32 44q-12 20 -19 45.5z" />
<glyph horiz-adv-x="2032" d="M208 220l71 332q10 49 25.5 86.5t27.5 65.5q16 31 34 54q-34 36 -61 63q-23 23 -42 43t-19 22q68 93 158 164q77 61 184.5 112.5t243.5 51.5q71 0 137.5 -14.5t124.5 -40t102.5 -65t70.5 -88.5q25 32 66 68.5t97.5 67t126.5 51.5t157 21q93 0 173.5 -31t134.5 -90 t77 -143.5t-1 -191.5l-232 -1098q-8 -36 -36 -69t-62 -62q-38 -34 -84 -64h-121l271 1267q16 74 1 123t-48.5 77t-73.5 38t-72 10q-110 0 -180.5 -32t-110 -70t-56.5 -72t-17 -36l-236 -1110q-8 -36 -36 -69t-61 -62q-38 -34 -84 -64h-118l276 1293q13 63 -2 107t-51.5 69.5 t-87.5 35.5t-107 10q-62 0 -107.5 -15t-74.5 -34q-34 -20 -56 -45l125 -128q-3 0 -18 -14t-34 -39.5t-40 -64.5t-31 -88l-58 -266q-5 -28 2.5 -39.5t24.5 -14t35.5 -1.5t37.5 1l-49 -230h-156q-95 0 -140 55t-21 163z" />
<glyph horiz-adv-x="2032" d="M61 0l49 230h78q22 5 29.5 29.5t12.5 50.5l46 242q8 49 23.5 86.5t30.5 65.5q18 31 36 54q-34 36 -61 63q-23 23 -42 43t-19 22q66 93 152 164q74 61 184.5 112.5t257.5 51.5q61 0 124.5 -14.5t121 -41.5t102.5 -66.5t74 -90.5q25 31 67.5 68t97.5 69t126 54t161 22 q93 0 173.5 -31t134.5 -90t77 -143.5t-1 -191.5l-232 -1098q-8 -36 -36 -69t-62 -62q-38 -34 -84 -64h-121l271 1267q16 74 1 123t-48.5 77t-73.5 38t-72 10q-118 0 -189.5 -37t-111.5 -82t-54 -83t-14 -40l-231 -1078q-8 -36 -36 -69t-61 -62q-38 -34 -84 -64h-118 l276 1293q23 104 -42 163t-180 59q-74 0 -124 -15t-81 -34q-37 -20 -59 -45l130 -128q-22 -18 -45 -47q-20 -25 -40 -62.5t-33 -96.5l-71 -332q-20 -95 -88 -156.5t-158 -61.5q-41 0 -82 -1t-82 -1z" />
</font>
</defs>
</svg>
