<?xml version="1.0" standalone="no"?>
<!DOCTYPE svg PUBLIC "-//W3C//DTD SVG 1.1//EN" "http://www.w3.org/Graphics/SVG/1.1/DTD/svg11.dtd" >
<svg xmlns="http://www.w3.org/2000/svg" xmlns:xlink="http://www.w3.org/1999/xlink" version="1.1">
<metadata></metadata>
<defs>
<font id="thaisans_neueultra_light" horiz-adv-x="0" >
<font-face units-per-em="2048" ascent="1524" descent="-524" />
<missing-glyph horiz-adv-x="823" />
<glyph unicode="&#x3b;&#x3b;arm&#x3b;&#x3b;" horiz-adv-x="2600" d="M95 1588v102h409v205q-29 0 -56.5 16.5t-49.5 44.5t-34.5 65.5t-12.5 77.5q0 46 17.5 83.5t45.5 64.5t66 42t75 15q97 0 151 -54t54 -151q0 -34 -10 -69.5t-29.5 -65t-47.5 -48t-67 -21.5v-205h410v-102h-410v-308l275 -615h-102l-224 513l-223 -513h-102l274 615v308 h-409zM198 0q0 29 10 60.5t31.5 58.5t55 43.5t81.5 16.5q76 0 127.5 -51.5t51.5 -127.5q0 -18 -8.5 -64t-60.5 -82l56 -262l142 283h51l140 -283l90 536h127l-40 -216l28 52l166 38q0 133 16 226.5t46.5 150t79 82t114.5 25.5q77 0 115.5 -51t38.5 -127h-51q0 38 -19.5 70 t-56.5 32q-98 0 -139 -95t-41 -286l187 45l23 -94l-210 -54v-102q0 -154 -7.5 -281t-37 -219t-86 -142t-150.5 -50q-77 0 -128 38.5t-51 115.5h51q0 -38 32 -57.5t70 -19.5q77 0 118 46t60 126.5t22.5 193.5t3.5 249v76l-204 -51l-87 -460h-66l-180 383l-179 -383h-66 l-83 409l47 31q-6 -3 -16 -3q-10 -2 -36 -2q-22 0 -54.5 8.5t-59.5 29t-45.5 54t-18.5 84.5zM300 0q0 -29 19 -51.5t57 -22.5q76 0 76 74q0 76 -76 76q-38 0 -57 -22.5t-19 -53.5zM452 2099q0 -39 22 -71t81 -32t81 32.5t22 70.5q0 59 -32 80.5t-71 21.5t-71 -21.5 t-32 -80.5zM1042 665l583 1587h441l512 -1587h-409l-157 487h-688l-180 -487h-102zM1375 1280h594l-279 870zM1705 51l51 257h76l-76 -257h-51zM1776 2176l34 -100l59 100h-93zM1828 2030l21 -71l132 217h-63zM1832 51l52 257h77l-77 -257h-52zM1866 1910l29 -92l143 241 l-28 86zM1920 1741l15 -51l144 238l-15 51zM1956 1629l15 -51l144 237l-16 51zM1989 -254q0 95 23 183.5t64.5 155t97.5 107t122 40.5q136 0 209 -93t73 -264q0 -251 -89.5 -368.5t-243.5 -117.5q-49 0 -95 20t-82 62.5t-57.5 110t-21.5 164.5zM1994 1510l16 -51l142 236 l-17 54zM2028 1408l17 -62l144 239l-18 61zM2064 1290l17 -51l141 239l-13 51zM2091 -202l359 153q-5 49 -20 88q-15 33 -45 61t-89 28q-66 0 -107 -53t-61 -114q-26 -71 -37 -163zM2091 -330q0 -29 9.5 -60.5t28.5 -58.5t48 -44t68 -17q76 0 117.5 51t61.5 117 q22 71 26 166zM2099 1175l16 -41l143 234l-13 48zM2132 1075l16 -41l143 236l-15 44zM2166 972l15 -48l147 234l-17 53zM2199 870l19 -59l142 241l-18 57zM2232 768l8 -26h34l120 203l-18 61zM2314 742h51l63 106l-19 51zM2406 742h52l-18 57z" />
<glyph unicode="&#xd;" horiz-adv-x="823" />
<glyph unicode=" "  horiz-adv-x="823" />
<glyph unicode="&#x09;" horiz-adv-x="823" />
<glyph unicode="&#xa0;" horiz-adv-x="823" />
<glyph unicode="!" horiz-adv-x="271" d="M95 0v85h81v-85h-81zM95 259v1013h81v-1013h-81z" />
<glyph unicode="&#x22;" horiz-adv-x="552" d="M95 921v354h89v-354h-89zM318 921v354h90v-354h-90z" />
<glyph unicode="#" horiz-adv-x="1325" d="M95 379l13 59h194l89 341h-193l14 56h196l96 363h77l-100 -363h433l97 363h77l-97 -363h220l-16 -56h-220l-89 -341h218l-16 -59h-218l-100 -379h-74l100 379h-432l-100 -379h-74l99 379h-194zM379 438h430l90 341h-430z" />
<glyph unicode="$" horiz-adv-x="936" d="M95 61v69q46 -29 100 -48q46 -17 108.5 -31.5t136.5 -14.5q141 0 230.5 71.5t89.5 222.5q0 98 -50 154t-122.5 89t-160 57.5t-160 61t-122.5 93.5t-50 160q0 66 30.5 117.5t79.5 84.5t111.5 51t123.5 21v193h78v-193q71 -5 123.5 -14.5t86.5 -19.5q38 -10 63 -25v-70 q-31 20 -77 36q-42 13 -102 24.5t-148 11.5q-54 0 -105 -15.5t-91 -43.5t-66 -68.5t-26 -92.5q0 -82 50 -129.5t123 -78t160 -56.5t160 -66.5t123 -106t50 -175.5q0 -66 -14 -126t-50 -106.5t-98 -78t-162 -39.5v-192h-76v187q-94 5 -159 19t-109 28q-49 18 -79 39z" />
<glyph unicode="%" horiz-adv-x="1395" d="M95 1039q0 181 62.5 261t152.5 80q85 0 143.5 -74.5t58.5 -255.5q0 -85 -19 -146.5t-50 -101.5t-69 -57t-76 -17q-79 0 -141 71t-62 240zM171 1045q0 -83 10.5 -133t28.5 -79t42 -39t53 -10q25 0 49.5 11t44 40.5t30.5 81.5t11 131q0 84 -11 137.5t-30.5 84t-44 42.5 t-49.5 12t-49 -12t-42.5 -42.5t-30.5 -84.5t-12 -140zM295 0l819 1482h81l-821 -1482h-79zM884 281q0 90 17.5 154t47 104t68 59.5t79.5 19.5q85 0 144.5 -74.5t59.5 -252.5q0 -87 -17.5 -148t-47 -101t-69.5 -58t-84 -18q-78 0 -138 73t-60 242zM962 284q0 -95 11.5 -147 t29.5 -77.5t41.5 -32.5t47.5 -7q26 0 51 8t44 36t30.5 80t11.5 142q0 93 -11.5 148t-30.5 83t-43.5 36t-51.5 8q-24 0 -47.5 -9.5t-41.5 -37.5t-29.5 -83t-11.5 -147z" />
<glyph unicode="&#x26;" horiz-adv-x="1346" d="M95 298q0 141 66.5 239t217.5 164q-25 18 -53 42.5t-51.5 58t-38 74t-14.5 89.5q0 69 24.5 117.5t67 80.5t100 46.5t121.5 14.5q49 0 100 -14.5t90.5 -44t65 -72.5t25.5 -102q0 -117 -70 -189t-211 -116q74 -34 138.5 -84t115.5 -107t90.5 -115t68.5 -104q46 59 83 133.5 t63.5 148.5t41 143t12.5 118l-4 16h82q-7 -151 -74 -308.5t-170 -301.5q57 -71 115 -118.5t154 -47.5v-59q-66 0 -112.5 14.5t-80.5 37t-62 53.5t-58 64q-83 -93 -199.5 -142t-257.5 -49q-200 0 -293 76t-93 244zM176 298q0 -264 303 -264q56 0 114.5 11t113.5 34t104 57.5 t85 78.5q-38 54 -79 116.5t-93.5 123t-118 110.5t-149.5 77q-78 -31 -132.5 -60.5t-86.5 -67.5t-46.5 -89t-14.5 -127zM305 965q0 -66 38 -136.5t133 -122.5q133 46 196 118t63 180q0 41 -23 69t-53.5 47t-65.5 28.5t-58 9.5q-110 0 -170 -54t-60 -139z" />
<glyph unicode="'" horiz-adv-x="271" d="M95 921v354h81v-354h-81z" />
<glyph unicode="(" horiz-adv-x="450" d="M56 450q0 241 69.5 448.5t219.5 386.5h49q-152 -184 -209 -387.5t-57 -449.5q0 -228 58 -427.5t208 -379.5h-52q-138 149 -212 359t-74 450z" />
<glyph unicode=")" horiz-adv-x="450" d="M15 1285h51q152 -179 221 -386.5t69 -448.5q0 -232 -68 -436t-219 -373h-51q151 179 207 378t56 431t-57.5 441.5t-208.5 393.5z" />
<glyph unicode="*" horiz-adv-x="667" d="M95 958l207 107l-207 107l84 116l146 -138l-27 201h142l-30 -203l151 140l84 -116l-210 -107l210 -107l-84 -116l-151 140l30 -203h-142l27 201l-146 -138z" />
<glyph unicode="+" horiz-adv-x="885" d="M95 466v62h320v340h56v-340h320v-62h-320v-312h-56v312h-320z" />
<glyph unicode="," horiz-adv-x="271" d="M-8 -279q29 54 52 103q20 41 35.5 83t15.5 68v123h81v-123q0 -41 -25.5 -85t-52.5 -82q-34 -47 -78 -87h-28z" />
<glyph unicode="-" horiz-adv-x="616" d="M95 486v72h427v-72h-427z" />
<glyph unicode="." horiz-adv-x="271" d="M95 0v98h81v-98h-81z" />
<glyph unicode="/" horiz-adv-x="518" d="M18 0l394 1485h69l-391 -1485h-72z" />
<glyph unicode="0" horiz-adv-x="987" d="M56 574q0 166 33 288.5t92.5 202t140 118t172.5 38.5q90 0 169 -34.5t139 -110t94.5 -193.5t34.5 -282q0 -161 -39.5 -278.5t-104.5 -194.5t-147 -113.5t-169 -36.5t-163 34t-132 107t-88 186t-32 269zM139 581q0 -263 94.5 -405t250.5 -142q166 0 266 145.5t100 409.5 q0 271 -102.5 422t-263.5 151q-156 0 -250.5 -151t-94.5 -430z" />
<glyph unicode="1" horiz-adv-x="513" d="M56 940v61q54 23 101.5 56t83.5 64q44 37 79 77h100v-1198h-82v1085q-20 -13 -52 -34.5t-69.5 -43.5t-78 -40.5t-82.5 -26.5z" />
<glyph unicode="2" horiz-adv-x="795" d="M56 0v76q0 72 44 140t109 133.5t142 130.5t142 132t108.5 140t43.5 152q0 132 -65 195t-184 63q-82 0 -162 -19t-126 -78v66q53 57 126.5 73.5t161.5 16.5q69 0 129.5 -16.5t105.5 -53.5t71 -94.5t26 -137.5q0 -90 -46.5 -170t-116 -155.5t-148.5 -145t-145.5 -136 t-109 -129.5t-37.5 -124h654v-59h-723z" />
<glyph unicode="3" horiz-adv-x="821" d="M95 39v69q61 -52 121 -63t145 -11q159 0 241 71t82 197q0 69 -24.5 121.5t-78 89.5t-142 56.5t-217.5 19.5v49q116 10 206 41q76 29 140 82t64 150q0 128 -58.5 189.5t-168.5 61.5q-46 0 -123 -14t-136 -56v68q59 39 115.5 50t143.5 11q74 0 131.5 -23t97.5 -60t60 -85.5 t20 -100.5q0 -112 -43 -196.5t-167 -135.5q58 -10 106 -39t83 -69.5t53.5 -91.5t18.5 -105q0 -87 -33 -151t-89.5 -105t-129.5 -61t-152 -20q-90 0 -151 16t-115 45z" />
<glyph unicode="4" horiz-adv-x="848" d="M18 308v86l558 804h100v-829h156v-61h-156l3 -308h-85v308h-576zM82 369h512v742z" />
<glyph unicode="5" horiz-adv-x="770" d="M95 12v54q20 -10 54 -17q29 -5 70.5 -10t100.5 -5q166 0 239 87t73 214q0 79 -26.5 137t-71.5 96t-104 57.5t-125 19.5q-59 0 -99 -2.5t-65 -4.5q-29 -3 -46 -6v566h533v-62h-452v-442h108q117 0 199.5 -29.5t134 -78t74 -112t22.5 -129.5q0 -97 -31 -166t-84.5 -114 t-125 -66t-153.5 -21q-90 0 -137 8.5t-88 25.5z" />
<glyph unicode="6" horiz-adv-x="857" d="M56 532q0 330 123 509.5t363 179.5q59 0 99 4t87 -16v-59q-18 2 -44 5q-23 3 -56.5 4t-85.5 3q-97 3 -175 -37t-133 -118t-82 -192t-22 -263q20 54 59 89t82.5 54t87 26t73.5 7q79 0 147.5 -27t117 -76t76.5 -117t28 -149q0 -83 -26.5 -151.5t-74.5 -120t-116.5 -80.5 t-153.5 -29q-184 0 -279 149t-95 405zM149 396q0 -71 13.5 -137.5t47.5 -116.5t87.5 -79t132.5 -29q64 0 117.5 28t92.5 73.5t59 105t20 118.5q0 66 -16.5 123.5t-52 98.5t-89 64.5t-131.5 23.5q-71 0 -125 -31.5t-89 -73.5t-51 -88t-16 -80z" />
<glyph unicode="7" horiz-adv-x="782" d="M18 1136v62h747v-77l-435 -1121h-79l423 1136h-656z" />
<glyph unicode="8" horiz-adv-x="833" d="M56 305q0 107 62.5 204t183.5 141q-82 29 -138 105t-56 174q0 139 86.5 215.5t223.5 76.5q63 0 119.5 -21.5t99 -60t67 -92t24.5 -118.5q0 -44 -13.5 -87t-38 -81.5t-60 -67t-81.5 -43.5q127 -51 185.5 -145.5t58.5 -199.5q0 -87 -30 -148.5t-79.5 -101.5t-116.5 -58.5 t-141 -18.5q-156 0 -256 76t-100 251zM139 328q0 -59 15 -111.5t48 -93.5t85.5 -65t130.5 -24q71 0 124.5 24t86.5 66t50 94.5t17 111.5q0 49 -17 97.5t-51 88t-86.5 65t-123.5 25.5q-67 0 -119.5 -21t-88.5 -60t-53.5 -90t-17.5 -107zM190 914q0 -42 12.5 -83.5t40.5 -75 t70.5 -54t104.5 -20.5q53 0 96.5 20.5t73.5 54t45 75t15 83.5q0 64 -21 110t-54 76.5t-73.5 46t-81.5 15.5q-103 0 -165.5 -59t-62.5 -189z" />
<glyph unicode="9" horiz-adv-x="857" d="M56 838q0 78 24.5 147.5t72 122t116.5 83t159 30.5q166 0 271 -138t105 -409q0 -349 -110 -522.5t-359 -173.5q-59 0 -109 -4.5t-96 16.5v59q22 -5 54 -8q54 -7 154 -7q114 0 195.5 49t129.5 133t63.5 195t1.5 234q-20 -56 -59 -89.5t-83 -52.5t-85.5 -25.5t-72.5 -6.5 q-77 0 -145 24.5t-118 70t-79.5 114t-29.5 158.5zM136 838q0 -86 22.5 -144.5t62.5 -95.5t94 -53.5t113 -16.5q66 0 118.5 26.5t88.5 68.5t55 92t19 94q0 187 -82 270t-199 83q-52 0 -103 -21.5t-93 -64t-69 -102.5t-27 -136z" />
<glyph unicode=":" horiz-adv-x="271" d="M95 0v88h81v-88h-81zM95 752v86h81v-86h-81z" />
<glyph unicode=";" horiz-adv-x="271" d="M-8 -279q29 47 52 91q20 39 35.5 83t15.5 80v115h81v-115q0 -51 -25.5 -96t-52.5 -81q-34 -42 -78 -77h-28zM92 752v88h84v-88h-84z" />
<glyph unicode="&#x3c;" horiz-adv-x="851" d="M56 381v27l779 442v-66l-684 -393l684 -337v-66z" />
<glyph unicode="=" horiz-adv-x="885" d="M95 332v64h696v-64h-696zM95 571v64h696v-64h-696z" />
<glyph unicode="&#x3e;" horiz-adv-x="851" d="M18 -12v66l686 337l-686 393v66l778 -442v-27z" />
<glyph unicode="?" horiz-adv-x="731" d="M95 1075v69q23 20 56 38q29 13 76 26t115 13q54 0 106.5 -13t95 -42.5t68.5 -78t26 -117.5q0 -66 -23.5 -115t-56.5 -84.5t-74.5 -62.5t-74.5 -53.5t-56 -55t-23 -64.5v-276h-81v266q0 49 23 84.5t56 65t73.5 56.5t74.5 57.5t56.5 70.5t22.5 96q0 113 -61.5 161.5 t-132.5 48.5q-69 0 -119 -14.5t-83 -31.5q-39 -20 -64 -44zM249 0v85h81v-85h-81z" />
<glyph unicode="@" horiz-adv-x="1602" d="M192 450q0 130 48.5 249.5t139.5 212t216.5 148.5t278.5 64q123 5 234.5 -32t196 -110t135.5 -177t51 -231q0 -74 -15.5 -149.5t-48.5 -137.5t-85.5 -102.5t-128.5 -48.5q-72 0 -126 46t-57 158q-43 -74 -79 -115t-69 -62.5t-68.5 -27t-79.5 -5.5q-39 0 -82.5 18 t-80.5 57t-61.5 97.5t-24.5 139.5q0 72 31 140t81 120.5t114 84.5t128 32q61 0 105 -14t72 -33.5t43 -36t22 -24.5l22 100h68l-76 -355q-12 -71 -6 -128q5 -49 29.5 -88.5t86.5 -39.5q54 0 94.5 33t67.5 85.5t41.5 116.5t14.5 129q0 92 -35 184t-102.5 164.5t-171.5 115 t-243 37.5q-151 -5 -269.5 -60t-199.5 -142t-123 -196t-42 -222q0 -103 37 -208t111.5 -189t187 -138t266.5 -54q192 0 345 62l3 -33q-52 -20 -136 -43t-194 -23q-154 0 -276.5 48t-209 134.5t-133.5 201.5t-47 247zM552 445q0 -64 18.5 -112.5t46.5 -80.5t62.5 -48 t70.5 -16q46 0 90 20t84.5 71t77.5 140t66 223q-3 3 -16 22.5t-40 38.5t-69 35.5t-103 16.5q-36 0 -86 -22t-94.5 -61.5t-76 -96.5t-31.5 -130z" />
<glyph unicode="A" horiz-adv-x="1038" d="M18 0l434 1198h106l436 -1198h-80l-123 335h-576l-125 -335h-72zM232 396h540l-264 745z" />
<glyph unicode="B" horiz-adv-x="911" d="M95 0v1198h325q154 0 237 -74t83 -193q0 -36 -9 -80.5t-29.5 -86.5t-53.5 -78t-84 -56q64 -15 111 -46.5t79 -72t47 -88t15 -93.5q0 -66 -25.5 -125t-73.5 -105t-121.5 -73t-165.5 -27h-335zM176 59h239q69 0 127.5 20.5t101 57.5t67 85.5t24.5 107.5q0 139 -101.5 207.5 t-254.5 68.5h-203v-547zM176 669h195q128 0 207.5 58.5t79.5 178.5q0 46 -11.5 87t-42 73.5t-85.5 51t-140 18.5h-203v-467z" />
<glyph unicode="C" horiz-adv-x="975" d="M56 586q0 300 161.5 467.5t442.5 167.5q61 0 143.5 -2.5t144.5 -30.5l-27 -67q-36 18 -66.5 26t-60 11.5t-61.5 3.5h-73q-100 0 -193 -28t-166 -96t-117.5 -178t-44.5 -274q0 -130 36.5 -233.5t106 -174t165 -107.5t213.5 -37q49 0 82.5 2.5t61.5 10t56.5 18.5t63.5 33 l26 -67q-74 -43 -147 -48t-161 -5q-132 0 -241.5 40.5t-185.5 117t-117.5 190.5t-41.5 260z" />
<glyph unicode="D" horiz-adv-x="1102" d="M95 0v1198h323q327 0 478.5 -153.5t151.5 -433.5q0 -132 -43 -243.5t-126 -193.5t-203.5 -128t-273.5 -46h-307zM176 59h226q123 0 225.5 34.5t178 103.5t117.5 173t42 241q0 274 -153.5 399.5t-409.5 125.5h-226v-1077z" />
<glyph unicode="E" horiz-adv-x="782" d="M95 0v1198h594v-62h-513v-508h462v-59h-462v-510h513v-59h-594z" />
<glyph unicode="F" horiz-adv-x="706" d="M95 0v1198h594v-62h-513v-508h462v-59h-462v-569h-81z" />
<glyph unicode="G" horiz-adv-x="1128" d="M56 574q0 148 49 268t134.5 204.5t202 129.5t249.5 45q88 0 148 -8.5t99 -22.5q46 -12 71 -28v-43q15 -13 8.5 -8t-42 16.5t-106 23t-183.5 11.5q-107 0 -206 -36t-174.5 -108.5t-121 -182.5t-45.5 -261q0 -152 41.5 -255.5t116 -167t172 -90.5t207.5 -27q164 0 276 68 v416h-281v58h363v-522q-49 -29 -92 -44t-88 -22.5t-94 -8.5t-110 -1q-136 0 -245.5 40.5t-186.5 117t-119.5 186.5t-42.5 252z" />
<glyph unicode="H" horiz-adv-x="1063" d="M95 0v1198h81v-543h713v543h81v-1198h-81v594h-713l3 -594h-84z" />
<glyph unicode="I" horiz-adv-x="271" d="M95 0v1198h81v-1198h-81z" />
<glyph unicode="J" horiz-adv-x="577" d="M18 -12l26 58q12 -5 27 -7q13 -3 33.5 -4t49.5 -1q122 0 179.5 98t57.5 280v786h85v-786q0 -92 -18 -172.5t-55 -138t-95.5 -90.5t-141.5 -33q-48 0 -77.5 1t-44.5 3q-18 3 -26 6z" />
<glyph unicode="K" horiz-adv-x="923" d="M95 0v1198h81v-707l564 707h90l-312 -389l371 -809h-83l-340 740l-290 -369v-371h-81z" />
<glyph unicode="L" horiz-adv-x="706" d="M95 0v1198h81v-1139h513v-59h-594z" />
<glyph unicode="M" horiz-adv-x="1422" d="M95 0v1198h146l458 -1059l483 1059h147v-1198h-83v1144l-532 -1144h-30l-508 1148v-1148h-81z" />
<glyph unicode="N" horiz-adv-x="1141" d="M95 0v1198h137l733 -1124v1124h83v-1198h-137l-735 1109v-1109h-81z" />
<glyph unicode="O" horiz-adv-x="1243" d="M56 581q0 313 154 476.5t428 163.5q120 0 221 -41t174 -120.5t114 -192t41 -258.5q0 -157 -41 -275.5t-118 -198t-183.5 -118.5t-236.5 -39q-125 0 -226.5 39t-174 116t-112.5 189.5t-40 258.5zM139 581q0 -115 29.5 -216t88 -174t146.5 -115t206 -42q122 0 216 42 t155.5 118.5t93.5 181.5t32 233q0 115 -30.5 216t-91 177t-147.5 118t-202 42q-125 0 -219 -43.5t-155 -121.5t-91.5 -184.5t-30.5 -231.5z" />
<glyph unicode="P" horiz-adv-x="846" d="M95 0v1198h320q200 0 288 -97t88 -259q0 -71 -24.5 -139t-75.5 -120.5t-128 -84.5t-184 -32h-203l3 -466h-84zM176 525h203q151 0 240.5 85.5t89.5 229.5q0 154 -70 225t-224 71h-239v-611z" />
<glyph unicode="Q" horiz-adv-x="1243" d="M56 581q0 313 152.5 476.5t441.5 163.5q115 0 213.5 -41t170.5 -120.5t113 -192t41 -258.5q0 -410 -279 -565q63 -25 117 -74t54 -146h-74q0 36 -25.5 63.5t-60 50.5t-72 38.5t-59.5 23.5q-41 -10 -79.5 -16t-84.5 -6q-269 0 -419 154t-150 449zM139 581 q0 -115 30.5 -215t89.5 -173t147 -115t200 -42q123 0 216.5 42t156.5 117.5t95 180.5t32 233q0 115 -30.5 216t-90 177t-143.5 118t-192 42q-132 0 -230 -43.5t-160 -121.5t-91.5 -184.5t-29.5 -231.5z" />
<glyph unicode="R" horiz-adv-x="948" d="M95 0v1198h355q149 0 245 -82t96 -232q0 -76 -24.5 -130.5t-65.5 -91.5t-97 -60t-118 -38q59 -18 92 -65t62 -89l264 -410h-90l-240 371q-20 31 -39.5 62t-45 55t-62 39t-92.5 15h-159l3 -542h-84zM176 601h218q61 0 118 18.5t101.5 52.5t70 88t25.5 124q1 117 -83 187 q-81 68 -199 68h-7l-244 -3v-535z" />
<glyph unicode="S" horiz-adv-x="936" d="M95 59v69q51 -29 113 -49q51 -18 118.5 -31.5t142.5 -13.5q76 0 131 24t91.5 65t52.5 94.5t16 112.5q0 98 -50 153t-122.5 89t-160 58.5t-160 61t-122.5 93.5t-50 160q0 74 35.5 127.5t89.5 86.5t121 49t128 16q76 0 136 -10t101 -24q46 -12 85 -30v-61q-29 17 -75 30 q-38 12 -98 22.5t-149 10.5q-44 0 -95.5 -15.5t-95 -43.5t-73 -67.5t-29.5 -90.5q0 -83 50 -130t123 -79t160 -59t160 -67.5t123 -106t50 -173.5q0 -66 -14 -128.5t-56 -112.5t-124 -80.5t-216 -30.5q-87 0 -148.5 12t-104.5 28q-49 17 -84 41z" />
<glyph unicode="T" horiz-adv-x="821" d="M18 1136v62h786v-62h-345v-1136h-83v1136h-358z" />
<glyph unicode="U" horiz-adv-x="1063" d="M95 448v750h81v-739q0 -98 17 -176t55 -133t105 -85.5t167 -30.5q202 0 285.5 110t83.5 298v756h81v-732q0 -246 -104 -367t-344 -121q-230 0 -328.5 115t-98.5 355z" />
<glyph unicode="V" horiz-adv-x="1038" d="M18 1198h80l410 -1129l406 1129h80l-436 -1198h-106z" />
<glyph unicode="W" horiz-adv-x="1576" d="M18 1198h80l320 -1152l347 1152h49l295 -1157l347 1157h80l-361 -1198h-125l-261 1060l-308 -1060h-125z" />
<glyph unicode="X" horiz-adv-x="962" d="M18 0l387 599l-364 599h98l311 -538l341 538h95l-387 -599l387 -599h-95l-339 532l-340 -532h-94z" />
<glyph unicode="Y" horiz-adv-x="911" d="M18 1198h77l327 -694l357 694h73l-388 -763v-435h-83v422z" />
<glyph unicode="Z" horiz-adv-x="911" d="M18 0v-5l747 1141h-696v62h825v6l-745 -1145h716q0 -15 1.5 -29.5t1.5 -29.5h-850z" />
<glyph unicode="[" horiz-adv-x="430" d="M95 -359v1644h317v-56h-251v-1531h251v-57h-317z" />
<glyph unicode="\" horiz-adv-x="518" d="M18 1485h72l391 -1485h-69z" />
<glyph unicode="]" horiz-adv-x="430" d="M18 -302h251v1531h-251v56h317v-1644h-317v57z" />
<glyph unicode="^" horiz-adv-x="1085" d="M95 494l389 794h26l435 -794h-61l-390 694l-335 -694h-64z" />
<glyph unicode="_" horiz-adv-x="885" d="M95 -54h696v-71h-696v71z" />
<glyph unicode="`" horiz-adv-x="470" d="M95 1351h61l149 -225h-41z" />
<glyph unicode="a" horiz-adv-x="833" d="M90 212q2 86 38 135t86 77t106 37.5t105 9.5q66 0 113.5 7.5t76.5 17.5q34 10 54 26q0 294 -271 294h-4q-79 0 -131.5 -22t-83.5 -49q-37 -31 -57 -71l-27 68q20 39 61 67q36 25 91 45.5t142 20.5q53 0 115 -12.5t114.5 -48t86 -97.5t33.5 -156v-561h-73v100 q-36 -41 -106 -85t-168 -44q-136 0 -221 54q-80 51 -80 172v15zM161 212q0 -104 69 -147t161 -43q49 0 91.5 16t78 39t62.5 50t42 47v276q-39 -15 -76 -25q-34 -10 -73.5 -16.5t-77.5 -6.5q-52 0 -102 -11.5t-88 -35t-62.5 -59t-24.5 -84.5z" />
<glyph unicode="b" horiz-adv-x="962" d="M95 0v1272h69v-507q38 29 90 54q44 20 106 36.5t139 16.5q66 0 138 -25.5t132.5 -76.5t98.5 -133t38 -192q0 -120 -33 -207t-89 -142t-128 -80.5t-148 -25.5q-77 0 -141.5 16t-107.5 38q-54 25 -95 56v-100h-69zM164 159q44 -37 97 -64q47 -23 112 -42t145 -19 q46 0 102 21t104 71t81 129.5t33 192.5q0 90 -33 160.5t-81 119t-103 74.5t-103 26q-83 0 -146.5 -21t-110.5 -45q-53 -28 -97 -61v-542z" />
<glyph unicode="c" horiz-adv-x="706" d="M56 408q0 212 117.5 339.5t322.5 127.5q42 0 75 -7.5t59 -15.5q29 -10 51 -20l-21 -46q-15 10 -40 20q-20 8 -51 16t-73 8q-66 0 -131 -24.5t-119 -75.5t-87.5 -131.5t-33.5 -190.5q0 -106 33.5 -177.5t86.5 -115.5t118 -61.5t131 -17.5q41 0 71.5 6.5t52.5 13.5 q24 10 42 23l21 -48q-20 -10 -49 -21q-24 -8 -63 -14t-93 -6q-200 0 -310 112.5t-110 305.5z" />
<glyph unicode="d" horiz-adv-x="962" d="M56 445q0 117 41.5 201t105 134t139.5 72.5t142 22.5q76 0 134 -17.5t98 -38.5q46 -25 83 -54v507h69v-1272h-69v100q-39 -31 -85 -56q-42 -20 -100.5 -37t-134.5 -17q-77 0 -152.5 22t-136 75.5t-97.5 140.5t-37 217zM125 448q0 -126 35 -206.5t86.5 -126.5t110 -63.5 t107.5 -17.5q66 0 127 18.5t108 42.5q53 29 100 64v542q-47 34 -100 61q-47 23 -108 44.5t-127 21.5q-49 0 -107.5 -23.5t-110 -69.5t-86.5 -118t-35 -169z" />
<glyph unicode="e" horiz-adv-x="831" d="M56 418q0 104 29.5 188.5t81 144.5t119.5 92t144 32t144 -25.5t116 -76.5t74 -129q19 -59 19 -134q0 -24 -2 -49l-2 -33h-657q0 -108 27 -183.5t72 -122t104 -66.5t123 -20q68 0 112 12.5t72 27.5q29 18 47 44l27 -66q-28 -20 -64 -34q-31 -12 -75.5 -21t-102.5 -9 q-90 0 -164.5 23t-128 73t-84.5 132t-31 200zM115 476h591q-5 179 -80.5 266.5t-195.5 87.5t-203 -91t-112 -263z" />
<glyph unicode="f" horiz-adv-x="526" d="M18 789v46h166v171q0 152 55.5 222t149.5 70h105q12 0 16 2v-38q2 -4 -6 -7q-5 -3 -21.5 -4.5t-47.5 -1.5q-115 0 -147 -66.5t-32 -176.5v-171h254v-46h-256l2 -789h-72v789h-166z" />
<glyph unicode="g" horiz-adv-x="962" d="M56 418q0 130 36 218.5t94 141t131.5 75t151.5 22.5q76 0 136 -17.5t104 -38.5q49 -25 90 -54v97h69v-862q0 -238 -103 -341.5t-335 -103.5q-76 0 -128.5 8.5t-86.5 21.5q-39 13 -61 34l25 59q22 -23 59 -39q31 -15 78.5 -26.5t113.5 -11.5q105 0 175.5 25t113.5 72.5 t61.5 118.5t18.5 161v122q-41 -31 -93 -54q-44 -20 -105 -37t-137 -17q-59 0 -129.5 22t-132 72t-104 131t-42.5 201zM125 418q0 -103 36.5 -176t88.5 -119.5t111 -66.5t108 -20q66 0 126 19t106 43q51 28 98 63v545q-47 34 -98 62q-46 22 -106 43t-126 21q-49 0 -108 -18 t-111 -64t-88.5 -127t-36.5 -205z" />
<glyph unicode="h" horiz-adv-x="885" d="M95 0v1272h69v-532q22 39 64 66q36 25 92 47t141 22q93 0 156.5 -22.5t102 -62.5t55 -96t16.5 -125v-569h-69v576q0 56 -21.5 101t-58 76t-82 46t-94.5 15q-78 0 -136.5 -24.5t-94.5 -51.5q-44 -34 -71 -76v-662h-69z" />
<glyph unicode="i" horiz-adv-x="257" d="M95 0v862h69v-862h-69zM95 1011v69h69v-69h-69z" />
<glyph unicode="j" horiz-adv-x="257" d="M-256 -435l28 61q13 -7 26 -15q24 -12 58 -13q125 0 182 101t57 260v903h69v-872q0 -222 -83 -328.5t-220 -106.5q-36 0 -58.5 1.5t-34.5 3.5q-16 2 -24 5zM95 1014v66h69v-66h-69z" />
<glyph unicode="k" horiz-adv-x="770" d="M95 0v1272h69v-983l422 535h79l-196 -250l266 -574h-70l-240 518l-261 -330v-188h-69z" />
<glyph unicode="l" horiz-adv-x="257" d="M95 0v1272h69v-1272h-69z" />
<glyph unicode="m" horiz-adv-x="1512" d="M95 0v862h69v-122q0 2 18 24t52.5 46.5t88 44.5t127.5 20q130 0 204 -33t108 -112q10 15 38 39.5t69.5 47.5t96.5 40.5t122 17.5q187 0 259 -82t72 -224v-569h-70v576q0 62 -23.5 107t-61.5 75.5t-85.5 44t-96.5 13.5q-76 0 -131 -24t-91 -52q-44 -34 -69 -78v-662h-69 v576q0 56 -21.5 101t-58 76t-82 47t-94.5 16q-82 0 -139.5 -24t-94.5 -52q-43 -34 -68 -78v-662h-69z" />
<glyph unicode="n" horiz-adv-x="885" d="M95 0v862h69v-122q22 39 64 66q36 25 89.5 47t130.5 22q97 0 164 -21.5t106.5 -61.5t56 -96t16.5 -127v-569h-69v576q0 123 -82 181.5t-190 58.5q-74 0 -127.5 -24t-90.5 -52q-41 -34 -68 -78v-662h-69z" />
<glyph unicode="o" horiz-adv-x="933" d="M56 420q0 232 115 343.5t308 111.5q173 0 286 -110t113 -325q0 -232 -111 -340t-306 -108q-181 0 -293 105t-112 323zM125 420q0 -102 27 -175.5t73 -119.5t108 -67.5t128 -21.5q71 0 135 23t111.5 72.5t74.5 125t27 183.5q0 98 -27 171t-72 121.5t-105 73t-126 24.5 q-74 0 -138.5 -23t-112 -72t-75.5 -127t-28 -188z" />
<glyph unicode="p" horiz-adv-x="962" d="M95 -408v1270h69v-97q36 29 85 54q43 20 108 38t155 18q64 0 133 -22.5t127 -75t96 -141t38 -218.5q0 -120 -41 -201t-102.5 -131t-136 -72t-140.5 -22q-76 0 -136.5 16.5t-100.5 37.5q-49 23 -85 54v-508h-69zM164 161q44 -33 97 -61q47 -22 107 -41.5t133 -19.5 q64 0 124.5 29.5t108 79.5t76 118.5t28.5 151.5q0 102 -28.5 179t-73.5 128t-102.5 78t-115.5 27q-83 0 -148 -19.5t-111 -42.5q-54 -29 -95 -62v-545z" />
<glyph unicode="q" horiz-adv-x="962" d="M56 418q0 130 40 218.5t101.5 141t139.5 75t154 22.5q77 0 135 -17.5t96 -38.5q47 -25 77 -54v97h69v-1270h-69v508q-41 -31 -90 -54q-44 -20 -104 -37t-136 -17q-61 0 -133 22t-133.5 72t-104 131t-42.5 201zM125 418q0 -83 28 -151.5t75.5 -118.5t107.5 -79.5 t125 -29.5q74 0 136.5 18.5t106.5 42.5q51 29 95 61v545q-44 34 -95 62q-46 22 -109 42t-143 20q-63 0 -122 -27t-105 -78t-73 -128t-27 -179z" />
<glyph unicode="r" horiz-adv-x="506" d="M95 0v862h69v-220q25 64 66 116q36 43 88.5 80t126.5 37q5 0 14.5 -1.5t14.5 -1.5h15v-44h-13q-5 0 -12.5 1t-18.5 1q-64 0 -115 -44t-86 -95q-44 -61 -80 -139v-552h-69z" />
<glyph unicode="s" horiz-adv-x="731" d="M95 22v49q25 -15 59 -25q28 -10 71.5 -17t102.5 -7q104 0 172.5 48t68.5 158q0 76 -35 117t-89 64t-114 37.5t-113.5 38t-88 62.5t-34.5 115q0 42 22 82t60 73t86.5 53.5t102.5 20.5q59 0 98.5 -8t67.5 -18q32 -10 54 -23v-51q-17 15 -46 25q-25 10 -67.5 18t-106.5 8 q-36 0 -71.5 -13t-65 -37t-47.5 -57.5t-18 -72.5q0 -66 34 -98t88 -50t114.5 -30.5t114.5 -39t88.5 -76.5t34.5 -140q0 -42 -14.5 -86t-50 -80.5t-98.5 -60t-160 -23.5q-59 0 -100 6t-69 16q-31 10 -51 22z" />
<glyph unicode="t" horiz-adv-x="526" d="M18 789v46h166v437h70v-437h256v-46h-256v-508q0 -53 7.5 -99t28 -79.5t58.5 -51t97 -17.5q29 0 41.5 -1.5t17.5 -3.5q7 -3 6 -4v-35h-129q-105 0 -151 71t-46 223v505h-166z" />
<glyph unicode="u" horiz-adv-x="885" d="M95 298v564h69v-593q0 -93 73 -160.5t198 -67.5q83 0 139 23.5t88 50.5q39 34 60 77v670h69v-867h-69v130q-31 -41 -77 -71q-39 -29 -96.5 -50.5t-130.5 -21.5q-93 0 -155.5 23.5t-100 64t-52.5 98t-15 130.5z" />
<glyph unicode="v" horiz-adv-x="808" d="M31 862h79l292 -806l269 806h79l-298 -862h-101z" />
<glyph unicode="w" horiz-adv-x="1256" d="M18 862h82l215 -801l284 801h51l256 -801l233 801h80l-261 -862h-100l-230 748l-259 -748h-113z" />
<glyph unicode="x" horiz-adv-x="731" d="M18 0l284 432l-284 430h70l247 -376l251 376h69l-284 -442l281 -420h-68l-249 364l-247 -364h-70z" />
<glyph unicode="y" horiz-adv-x="870" d="M12 -432l29 63q10 -7 20 -15q10 -5 25.5 -10t35.5 -5q57 0 104.5 16.5t75.5 84.5l113 269l-381 891h76l346 -793l292 793h76l-412 -1062q-28 -69 -51 -116.5t-55 -76.5t-77 -40.5t-117 -11.5q-28 0 -45.5 1.5t-30.5 3.5q-12 2 -24 8z" />
<glyph unicode="z" horiz-adv-x="777" d="M95 0v-2l555 818h-506v46h616v-2l-550 -811h542v-49h-657z" />
<glyph unicode="{" horiz-adv-x="462" d="M56 396v46q76 8 116 76t40 173v300q0 83 19.5 137t51.5 88.5t74 50t88 18.5v-59q-97 -7 -128 -75.5t-31 -165.5v-306q0 -103 -22.5 -171t-112.5 -93q85 -20 110 -88t25 -176v-295q0 -54 1.5 -99.5t14.5 -79t46 -51t97 -17.5v-57q-113 0 -173 64t-60 223v305 q0 105 -40 173.5t-116 78.5z" />
<glyph unicode="|" horiz-adv-x="260" d="M95 -320v1732h71v-1732h-71z" />
<glyph unicode="}" horiz-adv-x="462" d="M18 -391q63 0 97 17.5t46.5 51t13.5 79t1 99.5v295q0 108 26 175.5t110 88.5q-90 25 -113 93t-23 171v306q0 97 -30.5 165.5t-127.5 75.5v59q46 -3 88.5 -18.5t74 -50t51 -89.5t19.5 -136v-300q0 -105 39.5 -173t117.5 -76v-46q-77 -10 -117 -78.5t-40 -173.5v-305 q0 -159 -60.5 -223t-172.5 -64v57z" />
<glyph unicode="~" horiz-adv-x="882" d="M95 422q0 106 56.5 145t129.5 39q41 0 78 -22.5t78.5 -49t87.5 -48.5t105 -22q41 0 78 38t42 104h39q-3 -61 -20 -98t-43.5 -56.5t-60 -24.5t-71.5 -5q-36 0 -73 22t-76.5 48t-83 47.5t-90.5 21.5q-66 0 -104.5 -35t-38.5 -104h-33z" />
<glyph unicode="&#xa9;" horiz-adv-x="1610" d="M95 620q0 156 58.5 292t160 236.5t237 158.5t291.5 58q157 0 292.5 -58t236.5 -158.5t159 -236.5t58 -292t-58 -292t-159 -236t-236.5 -157t-292.5 -57q-156 0 -291.5 57t-237 157t-160 236t-58.5 292zM144 620q0 -146 55 -272t148 -219t220 -146.5t273 -53.5t272.5 53.5 t220 146.5t148.5 219t55 272t-55 272.5t-148.5 220t-220.5 148.5t-272 55q-146 0 -273 -55t-220 -148.5t-148 -220t-55 -272.5zM456 606q0 220 125 343t333 123q58 0 114.5 -6t102.5 -24l-25 -53q-46 20 -93.5 25t-98.5 5q-169 0 -276.5 -106.5t-107.5 -306.5 q0 -205 107.5 -304.5t276.5 -99.5q34 0 59.5 3t45.5 8t40.5 13.5t46.5 24.5l25 -59q-51 -28 -106 -37t-124 -9q-202 0 -323.5 121.5t-121.5 338.5z" />
<glyph unicode="&#xad;" horiz-adv-x="616" d="M95 486v72h427v-72h-427z" />
<glyph unicode="&#xae;" horiz-adv-x="1681" d="M95 620q0 156 58.5 292t160 236.5t237 158.5t291.5 58q157 0 292.5 -58t236.5 -158.5t159 -236.5t58 -292t-58 -292t-159 -236t-236.5 -157t-292.5 -57q-156 0 -291.5 57t-237 157t-160 236t-58.5 292zM144 622q0 -146 55 -271.5t149 -220t221 -148t271 -53.5t270 53.5 t220 148t149 220t55 271.5q0 144 -55 270.5t-149 220t-221 148.5t-269 55q-144 0 -271 -55t-221 -148.5t-149 -220t-55 -270.5zM594 184v901h274q112 0 185 -61.5t73 -173.5q0 -61 -18 -105t-48.5 -73.5t-71 -46t-84.5 -24.5q46 -25 78 -67.5t54 -74.5l185 -275h-90 l-151 248q-41 67 -100 110.5t-94 43.5h-117v-402h-75zM669 642h147q46 0 89 14.5t74.5 40t52 64t20.5 89.5q0 76 -55 126t-152 50h-176v-384z" />
<glyph unicode="&#xbc;" horiz-adv-x="1696" d="M112 1336v34q29 12 56 31.5t47 37.5q23 20 41 41h56v-661h-46v600q-22 -15 -66 -44t-88 -39zM408 0l906 1485h71l-906 -1485h-71zM1224 220v49l307 442h54v-457h84v-34h-84l3 -169h-49v169h-315zM1260 254h279v408z" />
<glyph unicode="&#xbd;" horiz-adv-x="1730" d="M112 1336v34q29 12 56 31.5t47 37.5q23 20 41 41h56v-661h-46v600q-22 -15 -66 -44t-88 -39zM408 0l906 1485h71l-906 -1485h-71zM1280 51v44q0 61 51 116t114 110t114 112.5t51 124.5q0 143 -140 143q-44 0 -89 -10t-72 -43v38q31 32 70.5 40.5t90.5 8.5q76 0 130 -40 t54 -129q0 -74 -54 -139.5t-117.5 -124t-116 -112.5t-47.5 -105h366v-34h-405z" />
<glyph unicode="&#xbe;" horiz-adv-x="1693" d="M95 852v39q36 -29 68 -35t78 -6q88 0 132.5 39.5t44.5 109.5q0 73 -55 114.5t-197 41.5v27q62 6 110 24q44 15 78.5 44.5t34.5 80.5q0 139 -123 139q-28 0 -69 -7t-75 -32v39q34 20 65 26t79 6q83 0 126 -46t43 -102q0 -62 -24.5 -107.5t-90.5 -74.5q64 -12 104 -59.5 t40 -106.5q0 -97 -67 -142t-156 -45q-49 0 -82.5 8t-63.5 25zM408 0l906 1485h71l-906 -1485h-71zM1221 220v49l308 442h53v-457h84v-34h-84l3 -169h-49v169h-315zM1258 254h278v408z" />
<glyph unicode="&#xe01;" horiz-adv-x="1026" d="M56 816q36 69 93 126q49 47 125.5 86.5t191.5 39.5q72 0 152.5 -16t150 -53t115 -100.5t45.5 -158.5v-615q0 -36 -12.5 -58.5t-25.5 -37.5q-17 -18 -39 -29h-7v689q0 100 -36.5 161t-92.5 96.5t-125 49t-132 13.5q-83 0 -145.5 -30.5t-105.5 -67.5q-52 -43 -88 -95 l151 -127q-7 -13 -15 -39q-12 -46 -12 -156v-494h-90v484q0 48 7.5 85t19.5 66q13 31 31 54q-46 36 -80 63q-28 23 -52 42.5t-24 21.5z" />
<glyph unicode="&#xe02;" horiz-adv-x="846" d="M56 980v62h144q34 0 69.5 -10.5t62.5 -33.5t44.5 -61t17.5 -95q0 -63 -34.5 -112t-73.5 -88q-20 -20 -44 -66t-24 -144v-102q0 -49 6 -101.5t30.5 -95.5t70.5 -71t123 -28q71 0 114.5 30.5t68 75t32.5 95.5t8 95v712h81v-712q0 -76 -13.5 -142t-47 -112.5t-88.5 -73.5 t-134 -27q-100 0 -167 27t-105 73.5t-53.5 112.5t-15.5 142v102q0 79 14 129t35 82.5t45 52.5t44 44q15 18 30.5 49.5t15.5 52.5q0 52 -21.5 95t-90.5 43h-144z" />
<glyph unicode="&#xe03;" horiz-adv-x="846" d="M56 985v57q13 0 32.5 -8t33.5 -18q18 -10 37 -22q15 12 33 22q16 10 34 18t38 8q90 0 123 -51t33 -123q0 -77 -37.5 -122t-74.5 -84q-10 -10 -26 -27t-30 -44t-24 -61t-10 -71v-129q0 -49 7 -101.5t30.5 -95.5t68.5 -71t118 -28q72 0 117 32t69 78t33.5 98.5t9.5 95.5 v704h81v-693q0 -85 -13.5 -153t-48.5 -116.5t-95 -75t-153 -26.5q-90 0 -148.5 26.5t-94 72t-51.5 111.5t-16 142v129q0 76 35 153t102 128q10 8 23 15t23 20.5t16.5 35t6.5 59.5q0 49 -27 73.5t-55 36.5q-17 5 -36.5 -5t-38.5 -25q-20 -18 -42 -41q-18 20 -34 39 q-13 12 -27 24.5t-22 12.5z" />
<glyph unicode="&#xe04;" horiz-adv-x="1038" d="M95 0v740q0 85 38 146.5t98 102t135.5 60t153.5 19.5q79 0 154.5 -21t135.5 -60t97.5 -101t37.5 -146v-740h-83v740q0 71 -31.5 122.5t-81.5 84.5t-111.5 47.5t-117.5 14.5q-59 0 -119.5 -15.5t-110 -47.5t-82 -83.5t-32.5 -122.5v-356q36 46 80 82q36 32 87 58t116 26 v-84q-51 0 -102.5 -23t-90.5 -52q-46 -33 -87 -73v-318h-84z" />
<glyph unicode="&#xe05;" horiz-adv-x="1038" d="M95 0v740q0 66 18.5 126t57.5 105t95 72t130 27q25 0 47.5 -15.5t40.5 -35.5q20 -23 36 -49q20 25 41 49q18 20 39.5 35.5t41.5 15.5q69 0 125.5 -27t95 -72t60.5 -105t22 -126v-740h-83v740q0 39 -11 85.5t-34 86.5t-59 68.5t-87 28.5q-20 0 -46 -22t-49 -49 q-28 -32 -56 -70q-29 38 -56 70q-23 28 -49 49.5t-46 21.5q-51 0 -87 -28.5t-59 -68.5t-33.5 -86.5t-10.5 -85.5v-356q36 46 80 82q36 32 86.5 58t113.5 26v-84q-54 0 -104 -23t-89 -52q-46 -33 -87 -73v-318h-84z" />
<glyph unicode="&#xe06;" horiz-adv-x="1051" d="M56 985v57q13 0 31 -8t33 -18q18 -10 39 -22q15 12 33 22q37 23 72 26q66 3 111 -37t45 -137q0 -88 -30.5 -136t-69.5 -85.5t-70.5 -77t-31.5 -105.5l-3 -280q44 -34 97 -62q44 -22 105.5 -41.5t130.5 -19.5q100 0 164 25.5t101 70.5t49.5 109t12.5 142v634h83v-727 q0 -46 -21 -105t-63 -111.5t-105 -86.5t-149 -34q-98 0 -173.5 22t-126.5 51q-61 31 -102 74v-125h-86v474q0 92 33 135t71 75t70 71t32 120q0 54 -36 74.5t-64 20.5q-16 0 -33 -9t-34 -21t-32 -31q-13 20 -24 39q-13 12 -26 24.5t-33 12.5z" />
<glyph unicode="&#xe07;" horiz-adv-x="860" d="M56 681h83l152 -625q93 0 171 37t133 100t85.5 147.5t30.5 181.5q0 96 -30.5 180t-84.5 146.5t-122.5 98t-145.5 35.5v63q114 0 202 -42.5t146.5 -114.5t88 -166t29.5 -200q0 -124 -42.5 -222t-111.5 -164.5t-159 -101t-183 -34.5h-80z" />
<glyph unicode="&#xe08;" horiz-adv-x="987" d="M64 872q25 54 72 98q42 36 109 67t173 31q124 0 219 -39.5t160 -110t98.5 -165.5t33.5 -205q0 -120 -32 -220t-88.5 -173t-134.5 -114t-166 -41h-129l-103 412q-7 20 -18.5 24t-32.5 4h-51v59h105q31 0 41 -4t10 -6.5t-5 0t-5 15.5l130 -448q115 0 190.5 46.5 t120.5 117.5t64.5 158.5t19.5 169.5q0 110 -33 196t-91.5 145t-135.5 89.5t-170 30.5q-87 0 -150 -29.5t-106 -65.5q-49 -44 -85 -95z" />
<glyph unicode="&#xe09;" horiz-adv-x="1026" d="M56 491v59h59q61 0 89 -44.5t28 -103.5v-72q0 -59 6 -111.5t31.5 -94.5t77.5 -66t149 -24q66 0 129.5 25.5t114.5 55.5q59 36 110 83v440q0 194 -94 282.5t-248 88.5q-77 0 -141.5 -20.5t-107.5 -43.5q-54 -29 -95 -64l-25 59q41 36 96 64q49 22 117 43t156 21 q117 0 199 -31t132 -84.5t71 -128t21 -162.5v-662h-81v125q-51 -44 -115 -74q-54 -29 -127 -51t-160 -22q-154 0 -224 105t-70 286v22v27t-2.5 34t-9 28t-17.5 11h-69z" />
<glyph unicode="&#xe0a;" horiz-adv-x="911" d="M56 982v60h166q26 0 56 -10.5t55.5 -33.5t43 -61t17.5 -95q0 -63 -37 -114.5t-76 -89.5q-20 -20 -48 -71.5t-28 -134.5v-130q0 -43 7.5 -90.5t35.5 -87t84.5 -65t156.5 -25.5q73 0 127.5 35.5t89 88t49.5 108.5t15 98q0 66 -19 133t-59 120.5t-100 87t-142 33.5v58 q71 0 134.5 38t107 105t69 153t25.5 183h84q0 -164 -42 -264t-93 -153.5t-98.5 -71.5t-55.5 -21q5 -3 46.5 -20t89.5 -62t86.5 -122t38.5 -195q0 -58 -19 -127.5t-61.5 -128.5t-109 -97t-158.5 -38q-115 0 -185.5 25t-111.5 70t-55 106.5t-14 135.5v120q0 83 14 133t36 80.5 t45 50.5t43 44q15 20 30.5 50.5t15.5 51.5q0 23 -1 47.5t-10.5 46.5t-27 34t-51.5 12h-166z" />
<glyph unicode="&#xe0b;" horiz-adv-x="911" d="M56 985v57q13 0 32.5 -8t33.5 -18q18 -10 37 -22q15 12 33 22q16 10 34 18t38 8q66 0 111 -38.5t45 -135.5q0 -67 -32 -110.5t-68 -81.5q-10 -10 -29.5 -30.5t-39 -48.5t-33 -63t-13.5 -75v-157q0 -43 8.5 -90.5t38 -87t84.5 -65t150 -25.5q66 0 119 35.5t90 88t56 108.5 t19 100q0 66 -19 133t-59 119.5t-100 86t-142 33.5v58q71 0 134.5 38t107 105t69 153t25.5 183h84q0 -164 -42 -264t-94.5 -153.5t-100 -71.5t-54.5 -21q5 -3 47.5 -20t89 -62t86.5 -122t40 -195q0 -66 -20.5 -134t-65.5 -125.5t-113.5 -93t-166.5 -35.5q-105 0 -171.5 23.5 t-106 68.5t-55 106.5t-15.5 135.5v172q0 66 38.5 136.5t104.5 124.5q20 17 43.5 46.5t23.5 78.5q0 51 -28.5 73t-60.5 32q-15 5 -33 -5t-37 -22q-20 -18 -38 -42q-12 20 -26 39q-13 15 -27 27.5t-32 12.5z" />
<glyph unicode="&#xe0c;" horiz-adv-x="1691" d="M56 816q36 69 93 126q49 47 122.5 86.5t180.5 39.5q77 0 162 -16t155.5 -53t115 -100.5t44.5 -158.5v-552q39 -37 87 -66q42 -22 99 -41.5t124 -19.5q100 0 153.5 25.5t80.5 70.5t32 109t5 142v634h85v-712q0 -66 -13 -130t-46.5 -114t-88.5 -80.5t-142 -30.5 q-97 0 -167 22.5t-117 51.5q-53 33 -92 76v-125h-84v689q0 105 -40 168.5t-98.5 97.5t-127.5 44t-127 10q-73 0 -130.5 -30.5t-101.5 -67.5q-49 -43 -88 -95l152 -127q-10 -13 -20 -41q-8 -23 -14 -63t-6 -101v-376v-34.5t20 -17.5h76v-56h-94q-38 0 -57.5 12.5t-26 33 t-6.5 48.5v57v333q0 48 7.5 85t20.5 66q10 31 28 54q-46 36 -80 63q-28 23 -52 42.5t-24 21.5z" />
<glyph unicode="&#xe0d;" horiz-adv-x="1691" d="M56 816q36 69 93 126q49 47 124.5 86.5t182.5 39.5q76 0 160.5 -16t154 -53t114 -100.5t44.5 -158.5v-402q0 -57 9.5 -108t36 -89.5t72 -60t123.5 -21.5q82 0 146 21.5t108 49.5q51 31 88 72v840h83l-5 -896q0 -66 -18 -150t-64.5 -156t-126 -121t-201.5 -49 q-61 0 -111 15t-87 36q-41 23 -71 51l20 52q29 -29 68 -49q33 -17 81.5 -31.5t114.5 -14.5q83 0 143 30.5t100 84.5t58.5 124.5t18.5 149.5v7q-44 -44 -96 -74q-47 -29 -112.5 -51t-146.5 -22q-98 0 -158 25.5t-93.5 72t-46 116t-12.5 157.5v340q0 97 -35.5 158.5t-92.5 97 t-127 50t-139 14.5q-74 0 -132 -30.5t-102 -67.5q-48 -43 -86 -95l150 -127q-12 -13 -22 -41q-8 -23 -14 -64.5t-6 -99.5v-376q0 -20 2.5 -34.5t22.5 -17.5h71v-56h-76q-23 0 -42.5 5t-33.5 22t-21.5 46t-7.5 78v333q0 48 7.5 85t17.5 66q10 31 28 54q-46 36 -80 63 q-28 23 -52 42.5t-24 21.5z" />
<glyph unicode="&#xe0e;" horiz-adv-x="1026" d="M51 0v61h77q20 3 24 17t4 34v372q0 48 7.5 85t20.5 66q10 31 28 54q-46 36 -80 63q-28 23 -52 42.5t-24 21.5q36 69 93 126q49 47 125.5 86.5t186.5 39.5q88 0 170.5 -16t149.5 -53t107.5 -100.5t40.5 -158.5v-904q0 -31 -6.5 -68t-29.5 -68.5t-72 -55t-132 -23.5 q-59 0 -110 18.5t-90 40.5q-47 29 -81 61q-32 -33 -78 -61q-41 -22 -103.5 -40.5t-150.5 -18.5v59q88 0 150.5 18t103.5 41q46 25 80 59q34 -37 76 -64q36 -25 87.5 -44.5t117.5 -19.5q83 0 118.5 37t35.5 117v865q0 105 -40 168.5t-97.5 97.5t-126.5 44t-125 10 q-74 0 -133 -30.5t-103 -67.5q-49 -43 -88 -95l152 -127q-15 -18 -25 -47q-10 -24 -17 -62t-7 -96v-333q0 -151 -99 -151h-85z" />
<glyph unicode="&#xe0f;" horiz-adv-x="1026" d="M51 0v61h77q20 3 24 18.5t4 38.5v363q0 49 7.5 86t20.5 65q10 32 28 57q-46 36 -80 63q-28 23 -52 42.5t-24 21.5q36 69 93 126q49 47 121 86.5t178 39.5q78 0 164.5 -16t157 -53t115 -100.5t44.5 -158.5v-865q0 -29 -2.5 -72.5t-21.5 -83t-65 -69t-131 -29.5 q-41 0 -78 15t-67 36q-36 23 -68 54l-84 -138l-102 141q-31 -31 -69 -54q-33 -20 -76 -35.5t-89 -15.5v56q34 0 75 19.5t77 41.5q41 29 82 64l102 -137l87 122q2 -5 15.5 -23t36.5 -37t56 -34.5t77 -15.5q56 0 89 19.5t49 46t19.5 56t3.5 49.5v838q0 107 -41.5 171 t-100 97.5t-129 42.5t-126.5 9q-74 0 -131.5 -30.5t-98.5 -67.5q-47 -43 -86 -95l147 -127q-13 -18 -23 -47q-7 -24 -14 -62t-7 -96v-333q0 -97 -32 -124t-83 -27h-69z" />
<glyph unicode="&#xe10;" horiz-adv-x="987" d="M56 872q25 54 74 98q44 36 113 67t182 31q56 0 101 -6.5t92 -25.5q24 8 64 21t76 30t63 41t27 60h83q0 -52 -22.5 -82.5t-57.5 -48.5t-75.5 -28t-76.5 -20q107 -74 168.5 -191t61.5 -270q0 -93 -21.5 -190t-71.5 -176.5t-129 -130.5t-195 -51h-133l-105 422 q-8 20 -23.5 19t-35.5 -1h-41v59h90q28 0 42 -4t18 -7.5t1 -3.5t-3 7l130 -435q116 0 191.5 46.5t120.5 117.5t63 158.5t18 169.5q0 110 -34.5 196t-92.5 146t-133 90.5t-160 30.5q-90 0 -152.5 -34.5t-103.5 -77.5q-47 -49 -79 -113zM79 -476q56 0 97.5 18t69.5 38 q32 25 56 56l87 -125l87 125q0 -2 14 -20t37 -38t57 -37t74 -17q56 0 84 18t40 41t12 44.5v32.5v94h84v-86q0 4 3 -26.5t-13 -70.5t-57 -73t-127 -33q-59 0 -96.5 15.5t-62.5 35.5q-29 23 -46 54l-90 -141l-87 146q-14 -31 -43 -56q-25 -20 -69 -37t-111 -17v59z" />
<glyph unicode="&#xe11;" horiz-adv-x="1051" d="M56 1024v56q13 0 31 -7.5t33 -17.5q18 -10 39 -24q15 13 33 24q16 10 35 17.5t42 7.5q29 0 59.5 -10t55 -28t40.5 -42.5t16 -54.5q31 34 72 61q37 23 82.5 42.5t99.5 19.5q61 0 112.5 -29.5t88 -79.5t56 -114t19.5 -131v-714h-81v638q0 153 -59.5 248.5t-155.5 95.5 q-69 0 -129.5 -39t-110.5 -101.5t-88 -141t-64 -154t-40 -141t-14 -100.5v-19v-22v-264h-82v244q0 138 29.5 245t66.5 188t66.5 137t29.5 95q0 53 -33.5 76.5t-66.5 23.5q-16 0 -32 -9t-32 -22q-18 -13 -35 -30q-15 20 -29 37q-12 13 -26.5 26t-27.5 13z" />
<glyph unicode="&#xe12;" horiz-adv-x="1691" d="M56 535q0 151 26 253.5t69.5 165t102 89.5t125.5 27q12 0 34 -15.5t43 -35.5q25 -23 52 -49q24 25 53 49q20 20 43.5 35.5t35.5 15.5q136 0 213.5 -87t77.5 -223v-572q37 -37 83 -66q41 -22 97.5 -41.5t129.5 -19.5q98 0 153 25.5t81.5 70.5t33 109t6.5 142v634h83v-712 q0 -66 -16 -130t-51.5 -114t-93 -79t-145.5 -29q-97 0 -164.5 21t-111.5 50q-51 31 -85 71v-120h-81v760q0 44 -11 89t-34.5 80.5t-61 57.5t-85.5 22q-20 0 -46 -22t-48 -49q-29 -32 -56 -70q-29 38 -58 70q-22 28 -48 49.5t-46 21.5q-36 0 -74 -27t-70.5 -84.5 t-52.5 -147.5t-20 -215q0 -249 81.5 -375t235.5 -126q52 0 59 2q7 3 7 5v-56q0 -3 -10 -5t-56 -2q-105 0 -180.5 45.5t-124.5 123.5t-72 179.5t-23 208.5z" />
<glyph unicode="&#xe13;" horiz-adv-x="1691" d="M56 816q36 69 93 126q49 49 125.5 87.5t191.5 38.5q88 0 170.5 -19.5t148 -59t105 -100.5t39.5 -149v-332q0 -77 6.5 -141.5t32.5 -110.5t77 -71.5t143 -25.5q78 0 137.5 19.5t103.5 43.5q46 29 83 66v854h83v-1042h-83v125q-41 -44 -93 -74q-49 -29 -118.5 -51 t-166.5 -22q-79 0 -134 29t-88.5 79t-48.5 114t-15 130v359q0 100 -36 161t-91.5 96.5t-124 49t-132.5 13.5q-74 0 -134.5 -30.5t-104.5 -67.5q-49 -43 -89 -95l150 -127q-12 -13 -22 -41q-8 -23 -14 -63t-6 -101v-376v-34.5t20 -17.5h76v-56h-102q-39 0 -56.5 12.5 t-22.5 33t-4 48.5t1 57v333q0 48 7.5 85t20.5 66q10 31 28 54q-46 36 -80 63q-28 23 -52 42.5t-24 21.5z" />
<glyph unicode="&#xe14;" horiz-adv-x="1026" d="M56 535q0 154 42.5 256.5t107.5 163.5t144.5 87t157.5 26q73 0 148.5 -16t137 -53t99.5 -100.5t38 -158.5v-740h-81v760q0 56 -28 101t-77 78t-110 51.5t-127 18.5q-72 0 -139 -32t-118 -92.5t-81.5 -148.5t-30.5 -201q0 -237 79.5 -369t237.5 -132q46 0 56 2q10 3 10 5 v-59q-2 -2 -10 -2q-7 -2 -51 -2q-85 0 -159 36.5t-128 107t-86 174t-32 239.5z" />
<glyph unicode="&#xe15;" horiz-adv-x="1026" d="M56 535q0 151 26 253.5t69.5 165t102 89.5t125.5 27q29 0 51 -15.5t41 -35.5q20 -23 37 -49q17 25 40 49q20 20 41.5 35.5t50.5 15.5q54 0 105 -23t93.5 -64t67.5 -98t25 -125v-760h-81v760q0 41 -15.5 86t-40 80.5t-59 59t-73.5 23.5q-22 0 -49 -22t-49 -49 q-29 -32 -56 -70q-29 38 -58 70q-22 28 -48 49.5t-46 21.5q-36 0 -74 -27t-69.5 -84.5t-51.5 -146.5t-20 -213q0 -98 15 -187.5t51.5 -161t97.5 -113.5t151 -42q52 0 59 2q7 3 7 5v-56q-2 -3 -10 -5q-7 -2 -41 -2q-107 0 -185 43t-129.5 118.5t-76 177t-24.5 218.5z" />
<glyph unicode="&#xe16;" horiz-adv-x="1026" d="M56 816q34 69 90 126q49 47 122.5 86.5t183.5 39.5q77 0 162 -16t155.5 -53t115 -100.5t44.5 -158.5v-615q0 -36 -12.5 -58.5t-25.5 -37.5q-17 -18 -39 -29h-7v689q0 102 -40 166t-98.5 97t-127.5 45t-127 12q-73 0 -133 -30.5t-104 -67.5q-51 -43 -95 -95l151 -127 q-7 -13 -15 -41q-5 -23 -8.5 -63t-3.5 -101v-376q0 -20 2.5 -34.5t22.5 -17.5h71v-56h-54q-76 -5 -103 30.5t-27 120.5v333q0 48 7.5 85t20.5 66q10 31 28 54q-46 36 -80 63q-28 23 -52 42.5t-24 21.5z" />
<glyph unicode="&#xe17;" horiz-adv-x="1013" d="M95 0v1042h81v-123q44 41 108 75q51 28 128 51t174 23q88 0 150.5 -32t103.5 -83.5t60 -114t19 -124.5v-714h-81v638q0 192 -81 268t-235 76q-73 0 -137.5 -18.5t-110.5 -42.5q-54 -29 -98 -61l3 -860h-84z" />
<glyph unicode="&#xe18;" horiz-adv-x="1013" d="M95 819q0 87 50 137t117.5 76t139.5 33t118 7q61 0 126 -13.5t122 -32.5q63 -20 126 -46v-51q-64 22 -132 41q-56 15 -121 28t-121 13q-39 0 -97.5 -3.5t-112.5 -21.5t-94 -57.5t-40 -109.5q0 -88 55 -121t137 -44.5t179.5 -15t179.5 -33t137 -100t55 -214.5 q0 -59 -19 -115t-66.5 -100.5t-126.5 -71t-199 -26.5q-23 0 -86 1t-130 30.5t-118.5 97t-51.5 198.5v223h80v-223q0 -97 37 -152t87 -82t104 -32t90 -5q79 0 139 24t100 61t59.5 82t19.5 88q0 95 -33 152.5t-84.5 88.5t-118.5 42.5t-136.5 17.5t-135.5 13.5t-118.5 29.5 t-84.5 65.5t-32 120.5z" />
<glyph unicode="&#xe19;" horiz-adv-x="1013" d="M95 328v727h81v-635q0 -76 9.5 -143t44 -114.5t98 -75.5t176.5 -28q68 0 130 19.5t106 41.5q51 29 98 61l-3 874h84v-1055h-81v122q-44 -43 -106 -73q-51 -29 -125.5 -50t-171.5 -21q-87 0 -151 31.5t-106 81.5t-62.5 112.5t-20.5 124.5z" />
<glyph unicode="&#xe1a;" horiz-adv-x="987" d="M95 349v693h81v-704q0 -44 12 -96t42.5 -98t82 -78t129.5 -32h108q71 0 121.5 32t81.5 78t44.5 98.5t13.5 95.5v704h83v-693q0 -74 -21 -141t-61 -118t-98.5 -81.5t-137.5 -30.5h-180q-76 0 -132 30.5t-94 81.5t-56.5 117.5t-18.5 141.5z" />
<glyph unicode="&#xe1b;" horiz-adv-x="987" d="M95 349v693h81v-704q0 -44 12 -96t41.5 -98t79.5 -78t126 -32h107q74 0 125.5 32t84 78t46 98.5t13.5 95.5v1037h83v-1026q0 -74 -21 -141t-61 -118t-97 -81.5t-129 -30.5h-178q-83 0 -141.5 30.5t-97.5 81.5t-56.5 117.5t-17.5 141.5z" />
<glyph unicode="&#xe1c;" horiz-adv-x="1207" d="M93.5 870q-1.5 39 8.5 77t36 66.5t80 28.5h80v-57l-60 -3q-23 0 -36.5 -21t-22 -49t-9.5 -56t-1 -45q-5 -115 17 -232.5t49 -214.5q31 -113 75 -220l271 621h20l259 -621q39 82 71 210q29 110 57 278.5t41 409.5h85q-23 -251 -59 -444t-73 -327q-41 -156 -83 -271h-59 l-254 625l-254 -625h-56q-51 125 -92 264q-36 117 -62.5 261t-26.5 289q0 17 -1.5 56z" />
<glyph unicode="&#xe1d;" horiz-adv-x="1207" d="M95 814v58.5t10 75.5t37 65.5t80 28.5h78v-57l-62 -3q-26 0 -38 -22t-19 -50.5t-8.5 -58.5t-1.5 -42q0 -115 20.5 -231.5t49.5 -213.5q31 -113 71 -220l269 621h20l259 -621q49 138 88 327q33 161 59.5 397t26.5 544h82q0 -327 -34 -587.5t-76 -445.5q-46 -215 -107 -379 h-57l-253 638l-254 -638h-59q-51 125 -92 264q-36 117 -62.5 261t-26.5 289z" />
<glyph unicode="&#xe1e;" horiz-adv-x="1263" d="M18 1042h72l242 -834l259 834h61l254 -834l246 834h74l-295 -1042h-27l-282 926l-282 -926h-28z" />
<glyph unicode="&#xe1f;" horiz-adv-x="1366" d="M18 1042h72l242 -834l259 834h61l254 -834l354 1204h71l-400 -1412h-27l-282 938l-282 -938h-28z" />
<glyph unicode="&#xe20;" horiz-adv-x="1026" d="M51 2v57h77q20 2 23 16.5t3 34.5l2 374q0 48 7.5 85t20.5 66q10 31 28 54q-46 36 -80 63q-28 23 -52 42.5t-24 21.5q34 69 93 126q49 47 127 86.5t190 39.5q69 0 151 -16t151.5 -53t115 -100.5t45.5 -158.5v-615q0 -36 -12.5 -58.5t-25.5 -37.5q-17 -18 -39 -29h-7v689 q0 102 -38.5 164.5t-95 97t-123 46.5t-122.5 12q-85 0 -146 -30.5t-105 -67.5q-49 -43 -83 -95l152 -127q-15 -18 -25 -47q-10 -24 -17 -62t-7 -96v-333q0 -49 -5 -78t-20 -45t-39.5 -21t-62.5 -5h-57z" />
<glyph unicode="&#xe21;" horiz-adv-x="1013" d="M95 0v1042h81v-832q46 -51 103 -90q49 -34 113 -60t138 -26q161 0 234.5 84t73.5 273v651h81v-712q0 -71 -23.5 -135.5t-66.5 -112.5t-107 -76t-143 -28q-98 0 -172.5 22t-125.5 51q-61 31 -105 74v-125h-81z" />
<glyph unicode="&#xe22;" horiz-adv-x="948" d="M56 291q0 90 36 150t79 97q49 41 115 61q-56 12 -102 43q-39 29 -70.5 76t-31.5 124q0 72 24 115.5t60 68t75.5 33.5t70.5 9q44 0 71 -3t39 -5q16 -2 23 -5v-51q-5 0 -20 2q-13 0 -38.5 1.5t-71.5 1.5q-39 0 -68 -15.5t-47.5 -41.5t-27 -55t-8.5 -55q0 -41 20.5 -79 t58.5 -68t89.5 -47.5t112.5 -17.5v-61q-83 0 -139.5 -30.5t-94 -74.5t-55 -91.5t-17.5 -81.5q0 -46 10 -93t44.5 -83t97.5 -58.5t170 -22.5q95 0 156.5 32t96 78t46.5 98.5t12 95.5v704h83v-693q0 -74 -22 -141t-69.5 -118t-122.5 -81.5t-180 -30.5q-112 0 -190.5 21 t-125.5 61t-68 99t-21 132z" />
<glyph unicode="&#xe23;" horiz-adv-x="833" d="M95 59v87q41 -31 93 -56q43 -20 102 -38t125 -18q71 0 118.5 24t76 61t38.5 83.5t10 88.5q0 85 -42 129t-104 68t-136 39t-135.5 44.5t-103.5 84.5t-42 160q0 66 30.5 114t77 78.5t102.5 45t107 14.5q72 0 123 -13t87 -29q42 -17 67 -41v-69q-31 25 -71 46 q-37 18 -89.5 32.5t-118.5 14.5q-39 0 -80 -12t-75.5 -34.5t-56.5 -57.5t-22 -81q0 -88 42.5 -132t104 -68.5t135.5 -41t135.5 -47.5t104 -86t42.5 -158q0 -61 -13 -118.5t-51 -100.5t-106.5 -68.5t-178.5 -25.5q-71 0 -125 12t-92 28q-46 17 -79 41z" />
<glyph unicode="&#xe24;" horiz-adv-x="1026" d="M56 816q34 69 90 126q49 47 124 86.5t189 39.5q76 0 159 -16t152.5 -53t114 -100.5t44.5 -158.5v-1150q0 -36 -12.5 -58.5t-25.5 -39.5q-17 -17 -39 -27h-7v1224q0 100 -37.5 162.5t-95 96.5t-124 47.5t-122.5 13.5q-82 0 -146 -30.5t-108 -67.5q-51 -43 -92 -95 l154 -127q-8 -13 -15 -41q-5 -23 -10 -63t-5 -101v-376q0 -20 2.5 -34.5t22.5 -17.5h71v-56h-66q-66 0 -92 30.5t-26 120.5v333q0 48 7.5 85t20.5 66q10 31 28 54q-46 36 -80 63q-28 23 -52 42.5t-24 21.5z" />
<glyph unicode="&#xe25;" horiz-adv-x="923" d="M56 254q0 95 36 155t95 94.5t133 46t151 11.5q88 0 141 11.5t84 26.5q36 15 52 39v66q0 51 -14.5 106t-48 100t-85.5 73t-129 28q-87 0 -153.5 -31.5t-112.5 -70.5q-54 -47 -95 -103l-25 64q41 54 96 98q49 36 121 68t169 32q179 0 269 -96.5t90 -309.5v-662h-82v561 q-23 -20 -62 -36q-34 -13 -86 -23.5t-129 -10.5q-41 0 -97 -11t-109 -38t-89.5 -73.5t-36.5 -114.5q0 -62 22.5 -104t57.5 -68t77 -37t80 -11h46.5t29.5 2q10 0 19 3v-51q-10 -3 -23 -6q-13 -2 -26.5 -3t-32.5 -1q-174 0 -253.5 65t-79.5 211z" />
<glyph unicode="&#xe26;" horiz-adv-x="1026" d="M51 0v59h77q20 2 23 16.5t3 34.5l2 374q0 48 7.5 85t20.5 66q10 31 28 54q-46 36 -80 63q-28 23 -52 42.5t-24 21.5q39 69 95 126q49 47 121.5 86.5t179.5 39.5q88 0 172.5 -16t152.5 -53t110 -100.5t42 -158.5v-1150q0 -36 -12.5 -58.5t-25.5 -39.5q-17 -17 -39 -27h-7 v1224q0 110 -41.5 172.5t-100 96t-129 42.5t-126.5 9q-74 0 -133 -30.5t-103 -67.5q-51 -43 -92 -95l151 -127q-10 -18 -17 -47q-8 -24 -13.5 -62t-5.5 -96v-333q0 -97 -27 -125t-96 -26h-61z" />
<glyph unicode="&#xe27;" horiz-adv-x="908" d="M56 71l23 59q25 -29 67 -48q36 -20 90.5 -34t132.5 -14q97 0 173 38t125 105t75 156t26 189t-27 184.5t-76.5 146t-125 95.5t-170.5 34q-77 0 -131 -12t-89 -25q-41 -17 -67 -39l-26 64q13 25 54 49q34 17 96.5 33t169.5 16q95 0 182 -33.5t152.5 -100t103.5 -170.5 t38 -242t-40 -242t-106 -170t-154 -99t-183 -33q-108 0 -168 13.5t-93 30.5q-39 20 -52 49z" />
<glyph unicode="&#xe28;" horiz-adv-x="1038" d="M95 0v740q0 79 35.5 140.5t95.5 103.5t139.5 63t166.5 21q44 0 77 -4t72 -16q25 10 56 22t57.5 29t46 39t19.5 50h85q0 -44 -17 -70t-43.5 -43t-57.5 -30.5t-62 -25.5q74 -44 127 -105.5t53 -173.5v-740h-83v740q0 69 -29 120t-78 83t-107.5 49t-115.5 17 q-58 0 -119.5 -14.5t-114 -45t-86 -82t-33.5 -127.5v-369q36 49 80 90q36 34 86.5 61.5t113.5 27.5v-84q-51 0 -100 -24t-90 -53q-47 -34 -90 -74v-315h-84z" />
<glyph unicode="&#xe29;" horiz-adv-x="987" d="M95 349v693h81v-714q0 -39 12 -89.5t41.5 -97t79.5 -77t123 -30.5h108q71 0 123.5 32t86.5 78t49 98.5t15 95.5l-3 204h-230v96h230v398h83v-398h76v-96h-74l3 -193q0 -57 -18.5 -122.5t-56.5 -120.5t-101 -91.5t-149 -36.5h-180q-88 0 -145 35.5t-92 89t-48.5 118.5 t-13.5 128z" />
<glyph unicode="&#xe2a;" horiz-adv-x="923" d="M56 254q0 95 40 155t101.5 94.5t139.5 46t154 11.5q88 0 138 11.5t75 26.5q28 15 38 39v66q0 51 -13 106t-45 100t-84 73t-131 28q-88 0 -155.5 -31.5t-113.5 -70.5q-54 -47 -95 -103l-26 66q41 54 100 98q51 36 123 67t167 31q15 0 30.5 -1.5t42.5 -6.5q39 8 74.5 22 t64 30.5t45 36t16.5 39.5h74q0 -67 -50 -101.5t-124 -57.5q98 -57 140 -148.5t42 -218.5l4 -662h-86v561q-17 -20 -48 -33q-29 -13 -77 -23.5t-126 -10.5q-43 0 -103 -9t-116.5 -34.5t-96 -73t-39.5 -123.5q0 -62 21.5 -104t56.5 -68t76.5 -37t80.5 -11h46.5t30.5 2 q12 0 21 3l-3 -47q-7 -4 -18 -7q-20 -7 -74 -7q-174 0 -246 68.5t-72 207.5z" />
<glyph unicode="&#xe2b;" horiz-adv-x="962" d="M95 0v1042h81v-541l538 541h102l-335 -338q51 -10 117.5 -34.5t127 -72t101.5 -125.5t41 -193v-279h-82l3 244q0 122 -44 201.5t-102.5 126t-116 66.5t-86.5 24l-264 -268l3 -394h-84z" />
<glyph unicode="&#xe2c;" horiz-adv-x="1366" d="M18 1042h72l242 -847l259 847h61l257 -847l202 714q5 15 7.5 32t2.5 29q0 49 -26.5 83.5t-60.5 55.5q-39 25 -84 41q88 18 156 54q59 31 109 81.5t50 126.5h66q0 -97 -46 -149t-100 -81q-64 -31 -143 -41q57 -22 94 -56q34 -29 56 -71t3 -100q-3 -5 -3 -9t-4 -16 l-257 -889h-40l-269 924l-268 -924h-42z" />
<glyph unicode="&#xe2d;" horiz-adv-x="1013" d="M51 369q0 61 11.5 95.5t88.5 34.5h189v-59h-171q-20 -5 -28.5 -11.5t-10.5 -26.5q-8 -56 1.5 -120t48 -119t114 -92t200.5 -37q102 0 174 38t117 105t65 156t20 189q0 98 -23 186t-69 154.5t-116.5 106.5t-165.5 40q-115 0 -182.5 -37t-105.5 -81q-47 -51 -67 -115h-85 q18 79 72 145q46 54 133.5 100.5t234.5 46.5q125 0 212.5 -49t142.5 -127t79.5 -175t24.5 -195q0 -148 -38.5 -252t-102.5 -169t-147 -94t-171 -29q-92 0 -172 22t-141 71t-96.5 123.5t-35.5 174.5z" />
<glyph unicode="&#xe2e;" horiz-adv-x="1013" d="M51 369q0 85 20.5 107.5t82.5 22.5h186v-59h-171q-37 0 -39 -38q-5 -58 4.5 -122.5t47.5 -119.5t113.5 -90.5t198.5 -35.5q102 0 175 38t117 105t64 156t20 189q0 98 -23 186t-69 154.5t-115 106.5t-164 40q-115 0 -185 -37t-109 -81q-46 -51 -64 -115h-85q18 79 72 145 q46 54 133.5 100.5t237.5 46.5q41 0 69 -5t50 -11q24 8 58.5 18t65 27t52.5 39t22 52h75q0 -44 -16.5 -72t-41 -44.5t-55 -28.5t-62.5 -22q64 -39 110 -96t74.5 -125t41.5 -139.5t13 -138.5q0 -148 -38.5 -252t-102.5 -169t-147 -94t-171 -29q-92 0 -172 22t-141 71 t-96.5 123.5t-35.5 174.5z" />
<glyph unicode="&#xe2f;" horiz-adv-x="923" d="M56 1042h85q29 -107 84.5 -169t163.5 -62q122 0 219.5 59t126.5 172h89v-693q0 -69 2 -132t-11.5 -110.5t-53 -77t-119.5 -29.5v59q26 0 45 6t32 34.5t18 89t5 167.5v626q-33 -63 -80 -114q-41 -44 -103.5 -81t-150.5 -37q-64 0 -122 14.5t-104 47.5t-79.5 89.5 t-46.5 140.5z" />
<glyph unicode="&#xe30;" horiz-adv-x="577" d="M95 330v41h74v-97q0 -34 20.5 -48t86.5 -14h193l-24 -58h-176q-41 0 -73 5t-55 24t-34.5 53.5t-11.5 93.5zM95 894v46h74v-95q0 -34 20.5 -47.5t86.5 -13.5h193l-24 -59h-169q-38 0 -71.5 3.5t-58 21.5t-38 51.5t-13.5 92.5z" />
<glyph unicode="&#xe31;" d="M-591 1410v49h71v-100q0 -34 20.5 -47.5t87.5 -13.5h434l-20 -64h-412q-108 0 -144.5 41t-36.5 135z" />
<glyph unicode="&#xe32;" horiz-adv-x="795" d="M56 924v61q25 23 64 41q31 15 78.5 28.5t111.5 13.5q56 0 125 -19.5t128 -63t98.5 -116.5t39.5 -180v-689h-81v662q0 174 -100 260.5t-249 86.5q-29 0 -65.5 -14.5t-69.5 -29.5q-38 -17 -80 -41z" />
<glyph unicode="&#xe33;" horiz-adv-x="795" d="M-440 1410q0 69 51 120.5t125 51.5q69 0 120.5 -51t51.5 -121q0 -74 -51.5 -125t-120.5 -51q-74 0 -125 51t-51 125zM-379 1408q0 -49 33.5 -82.5t81.5 -33.5q46 0 82 33.5t36 82.5q0 46 -36 82t-82 36q-48 0 -81.5 -36t-33.5 -82zM56 924v61q25 23 64 41 q31 15 78.5 28.5t111.5 13.5q56 0 125 -19.5t128 -63t98.5 -116.5t39.5 -180v-689h-81v662q0 174 -100 260.5t-249 86.5q-29 0 -65.5 -14.5t-69.5 -29.5q-38 -17 -80 -41z" />
<glyph unicode="&#xe34;" d="M-779 1234l21 71h609v-71h-630z" />
<glyph unicode="&#xe35;" d="M-779 1234l21 66h528v159h81v-225h-630z" />
<glyph unicode="&#xe36;" d="M-779 1234l24 66h350q-3 10 -6.5 19.5t-6.5 19.5q-10 66 29.5 118.5t109.5 52.5q39 0 84.5 -34.5t45.5 -100.5q0 -51 -30.5 -96t-99.5 -45h-500zM-366 1370q0 -29 24 -53.5t53 -24.5q37 0 62 24.5t25 53.5q0 36 -26 61t-61 25q-29 0 -53 -25t-24 -61z" />
<glyph unicode="&#xe37;" d="M-779 1234l21 66h333v159h83v-159h112v159h81v-225h-630z" />
<glyph unicode="&#xe38;" d="M-305 -190h90q59 0 91 -45.5t32 -104.5v-151h-84v176q0 23 -16 42t-40 19h-73v64z" />
<glyph unicode="&#xe39;" d="M-586 -190h74q82 0 110 -49.5t28 -131.5q0 -83 100 -81q98 0 98 83v179h84v-159q0 -73 -32 -119.5t-140 -46.5q-74 0 -114 18t-59 46.5t-21.5 64t-2.5 71.5q0 23 -15 42t-42 19h-68v64z" />
<glyph unicode="&#xe3a;" d="M-176 -190h84v-96h-84v96z" />
<glyph unicode="&#xe3f;" horiz-adv-x="911" d="M95 0v1195h245v217h75l3 -217q156 0 239 -71.5t83 -192.5q0 -100 -62.5 -183t-165.5 -110q62 -10 117 -36t97 -64.5t66 -91t24 -116.5q0 -76 -29 -137t-83 -104t-128.5 -66t-160.5 -23v-212h-75v212h-245zM176 61h232q63 0 122 18.5t105 52.5t73 84t27 114 q0 139 -101.5 207.5t-254.5 68.5h-203v-545zM176 665h188q164 0 229 69.5t65 171.5q0 46 -11.5 88t-42 74.5t-85.5 50t-140 17.5h-203v-471z" />
<glyph unicode="&#xe40;" horiz-adv-x="335" d="M95 151v891h81v-932q0 -20 2.5 -34.5t23.5 -16.5h77v-59h-67q-76 0 -96.5 37t-20.5 114z" />
<glyph unicode="&#xe41;" horiz-adv-x="770" d="M95 151v891h81v-932q0 -20 2.5 -34.5t23.5 -16.5h77v-59h-54q-76 0 -103 32t-27 119zM491 151v891h83v-932q0 -20 2.5 -34.5t22.5 -16.5h77v-59h-56q-76 0 -102.5 32t-26.5 119z" />
<glyph unicode="&#xe42;" horiz-adv-x="470" d="M179 1412q0 57 16.5 95.5t55 60.5t103 31t158.5 9h159v-62h-197q-66 0 -109 -6t-66 -22t-30.5 -40t-7.5 -59q0 -37 7.5 -75.5t18.5 -85.5t18 -107.5t7 -139.5v-901q0 -20 3 -34.5t23 -16.5h77v-59h-54q-39 0 -64.5 5t-39 22t-20.5 46t-7 78v860q0 79 -7.5 139.5 t-17.5 106t-18 83.5t-8 72z" />
<glyph unicode="&#xe43;" horiz-adv-x="623" d="M0 1551q8 20 34 39q20 15 62.5 28t115.5 13q157 0 224.5 -74.5t67.5 -225.5q0 -59 -7.5 -93t-17.5 -71.5t-18.5 -86.5t-8.5 -132v-843q0 -20 3.5 -34.5t23.5 -16.5h76v-54h-61q-69 0 -97 27t-28 124v797q0 76 8.5 129.5t18 97.5t18 80.5t8.5 75.5q0 79 -19 126.5t-50 73 t-70 33t-81 7.5q-51 0 -84 -13.5t-54 -28.5q-25 -20 -39 -44z" />
<glyph unicode="&#xe44;" horiz-adv-x="623" d="M0 1546v59q88 0 126 -28t48 -41q10 20 26 35q12 13 35.5 25t59.5 12q49 0 72.5 -24.5t34 -69t12 -105t1.5 -131.5v-1170q0 -20 2.5 -34.5t22.5 -17.5h78v-56h-66q-63 0 -91.5 27t-28.5 124v1127q0 24 1.5 75.5t-3.5 100t-22 79.5t-54 13q-20 -10 -33 -25.5t-21 -30.5 q-10 -18 -12 -39q-32 25 -63 47q-29 17 -60 32.5t-65 15.5z" />
<glyph unicode="&#xe45;" horiz-adv-x="795" d="M56 924v61q25 23 62 41q31 15 75.5 28.5t104.5 13.5q61 0 132 -19.5t131.5 -63t100 -116.5t39.5 -180v-1099q0 -36 -12.5 -58.5t-26.5 -39.5q-17 -17 -37 -27h-5v1197q0 169 -95 258t-254 89q-29 0 -65.5 -14.5t-69.5 -29.5q-38 -17 -80 -41z" />
<glyph unicode="&#xe46;" horiz-adv-x="948" d="M56 791q0 137 60 207t160 70q29 0 59.5 -16t58.5 -33q31 -23 62 -49q29 25 59 49q25 17 57 33t60 16q123 0 173 -81t50 -196v-1201q0 -36 -12.5 -58.5t-26.5 -39.5q-17 -17 -37 -27h-7v1275q0 49 -6 96.5t-22 85.5t-50 62.5t-88 24.5q-22 0 -48 -20.5t-48 -43.5 q-29 -29 -54 -61q-22 34 -51 61q-23 23 -50 43.5t-50 20.5q-44 0 -74.5 -19.5t-51 -51.5t-30.5 -70t-10 -77q0 -51 10 -86.5t22 -59.5q15 -29 37 -44l-29 -73q-34 14 -61 48q-23 29 -42.5 81t-19.5 134z" />
<glyph unicode="&#xe47;" d="M-768 1385q0 66 27 102.5t61.5 51.5t66.5 17.5t39 2.5h205q59 0 91 5t50 11q20 7 28 15v-51q-8 -10 -28 -21q-17 -8 -49.5 -13t-91.5 -5h-179q-76 0 -108.5 -29.5t-32.5 -85.5q0 -13 2.5 -28.5t13.5 -28t28 -23t46 -10.5q37 0 57 12t32 24q12 15 19 37h39q2 -20 12 -37 q8 -12 24.5 -24t44.5 -12q33 0 51 10.5t27 23t10.5 24.5t1.5 15h81q0 -67 -44.5 -100.5t-100.5 -33.5q-29 0 -53 2.5t-40 7.5q-20 5 -33 14q-15 -8 -39 -14q-20 -5 -48 -7.5t-67 -2.5q-15 0 -39.5 7.5t-47.5 24t-39.5 46t-16.5 73.5z" />
<glyph unicode="&#xe48;" d="M-176 1234v225h84v-225h-84z" />
<glyph unicode="&#xe49;" d="M-655 1395v64h123q38 0 70 -34.5t32 -73.5q0 -20 15.5 -35.5t35.5 -15.5h328l-23 -66h-328q-67 0 -100 40t-33 70q0 34 -15.5 42.5t-30.5 8.5h-74z" />
<glyph unicode="&#xe4a;" d="M-642 1309q0 56 43.5 101.5t102.5 45.5q28 0 49.5 -7.5t36.5 -14.5q16 -12 29 -24q10 12 27 24q13 10 36 17.5t52 7.5q64 0 95.5 -42t31.5 -91q0 -20 8.5 -23t20.5 -3h59l-23 -66h-46q-71 0 -89.5 18t-18.5 57q0 49 -19 62.5t-44 13.5q-34 0 -54.5 -24.5t-20.5 -51.5h-33 q0 25 -16.5 50.5t-55.5 25.5q-10 0 -25.5 -2.5t-29.5 -11.5t-24.5 -24.5t-10.5 -37.5q0 -18 5.5 -31t10.5 -23q7 -10 15 -21h-76q-10 7 -19 17q-17 23 -17 58z" />
<glyph unicode="&#xe4b;" d="M-305 1316v64h129v79h84v-79h126v-64h-126v-82h-84v82h-129z" />
<glyph unicode="&#xe4c;" d="M-374 1234v26q0 95 42.5 147t150.5 52h79l-20 -64h-47q-53 0 -87.5 -34.5t-34.5 -82.5v-44h-83z" />
<glyph unicode="&#xe4d;" d="M-440 1410q0 71 51 121.5t125 50.5q69 0 120.5 -50t51.5 -122q0 -74 -51.5 -124t-120.5 -50q-74 0 -125 50t-51 124zM-379 1408q0 -49 33.5 -82.5t81.5 -33.5q46 0 82 33.5t36 82.5q0 46 -36 82t-82 36q-48 0 -81.5 -36t-33.5 -82z" />
<glyph unicode="&#xe4e;" d="M-520 1280v22q0 62 44 112t134 50q0 41 7 70.5t31.5 50t66.5 30.5t112 10v-61q-39 0 -71 2.5t-55 -7.5t-36 -42t-13 -98q-54 0 -99.5 -19.5t-45.5 -78.5q0 -39 17 -63q8 -13 18 -24h-98q-12 28 -12 46z" />
<glyph unicode="&#xe4f;" horiz-adv-x="1090" d="M95 432q0 96 35.5 180t98 145.5t146 97.5t177.5 36q96 0 180 -36t146 -97.5t97.5 -145.5t35.5 -180q0 -94 -35.5 -177.5t-97.5 -144.5t-146 -96.5t-180 -35.5q-94 0 -177.5 35.5t-146 96.5t-98 144.5t-35.5 177.5zM210 432q0 -68 27 -131t74.5 -110t110 -74t130.5 -27 q72 0 135 27t109 74t73 110t27 131q0 72 -27 135t-73 109t-109 73t-135 27q-68 0 -130.5 -27t-110 -73t-74.5 -109t-27 -135zM320 432q0 49 18 91.5t50 74.5t74 49.5t90 17.5q98 0 166 -67.5t68 -165.5q0 -48 -18 -90t-50 -74.5t-74.5 -50t-91.5 -17.5q-97 0 -164.5 67.5 t-67.5 164.5z" />
<glyph unicode="&#xe50;" horiz-adv-x="1016" d="M56 432q0 96 34.5 179t96.5 144t143.5 97.5t179.5 36.5q95 0 177.5 -36.5t144.5 -97.5t96 -144t34 -179q0 -94 -34 -177.5t-95 -144.5t-142.5 -96.5t-175.5 -35.5q-95 0 -178 35.5t-146 96.5t-99 144.5t-36 177.5zM141 432q0 -82 28.5 -153t78.5 -125t116 -84.5 t144 -30.5q76 0 142 30.5t116 84.5t79.5 125.5t29.5 152.5q0 83 -29.5 154.5t-79.5 125t-116 85t-142 31.5q-77 0 -143.5 -31.5t-116.5 -85t-78.5 -125t-28.5 -154.5z" />
<glyph unicode="&#xe51;" horiz-adv-x="1013" d="M56 525q0 64 29.5 130.5t86 117.5t137 84.5t182.5 33.5q90 0 173.5 -29.5t148.5 -90t105 -153.5t40 -224q0 -88 -37 -176t-108 -159t-173 -116t-232 -45q-6 0 -3 0h6.5t6 1t-2.5 1l17 61h10q83 0 161 35t138 95t97 138.5t37 164.5q0 110 -30.5 192.5t-82 136t-121.5 80.5 t-150 27q-107 0 -176 -36t-109 -86t-53.5 -101.5t-13.5 -81.5q0 -44 15 -90t40.5 -83t58.5 -60t72 -23q74 0 107.5 28t33.5 72v49h82v-27q0 -33 -11.5 -66.5t-37 -58.5t-68 -41.5t-106.5 -16.5q-54 0 -102.5 23t-85.5 65t-59 99t-22 130z" />
<glyph unicode="&#xe52;" horiz-adv-x="1282" d="M18 1341v59h38q95 0 146.5 -32t75.5 -82t29 -111t5 -117v-817q0 -63 28.5 -101t66.5 -56t80.5 -21.5t70.5 -3.5h336q34 0 77 3.5t81 25.5t65 64.5t27 118.5v300q0 105 -43 162.5t-131 57.5q-36 0 -57.5 -15.5t-34.5 -35.5q-16 -22 -26 -51q-7 29 -22 51q-12 20 -35 35.5 t-55 15.5q-66 0 -115 -36t-49 -97q0 -57 23 -92.5t56.5 -57.5t70 -29.5t65.5 -7.5v-59q-29 0 -81 11.5t-103.5 41t-89.5 80.5t-38 134q0 33 16.5 70t45 68t69 50t89.5 19q39 0 67 -7t48 -14q22 -10 41 -17q10 7 31 17q18 7 45 14t65 7q49 0 91 -25.5t72.5 -70.5t48.5 -101.5 t18 -117.5v-276q0 -95 -28 -157t-70.5 -97.5t-90.5 -49t-89 -13.5h-408q-56 0 -113.5 13.5t-104 49t-75.5 97.5t-29 157v770q0 41 -6.5 88.5t-27 89.5t-60 70t-106.5 28z" />
<glyph unicode="&#xe53;" horiz-adv-x="1268" d="M56 438q0 234 82 343.5t204 109.5q77 0 131.5 -31.5t90.5 -70.5q41 -47 64 -100q22 53 63 100q34 39 87.5 70.5t130.5 31.5q132 0 218.5 -106t86.5 -347q0 -100 -18 -181t-38 -139q-26 -67 -54 -118h-93q31 44 59 110q20 56 39.5 138t19.5 190q0 71 -14 141.5 t-43.5 125.5t-74.5 90t-106 35q-36 0 -77.5 -24.5t-74.5 -74.5t-55 -123t-22 -168h-56q0 88 -21 159.5t-55 122t-74.5 79.5t-76.5 29q-100 0 -171.5 -104t-71.5 -288q0 -72 17.5 -144t55 -129t91.5 -94t125 -37q41 0 59 12q10 5 12 13v-71q-12 -3 -25 -6q-12 -2 -24 -3 t-25 -1q-78 0 -146 36.5t-117 100.5t-76 147t-27 176z" />
<glyph unicode="&#xe54;" horiz-adv-x="1231" d="M56 418q0 87 27 167t74.5 142t110 98.5t131.5 36.5h449q41 0 77.5 8t65 28.5t46.5 60.5t18 103v338l81 2l3 -271q0 -95 -20 -158.5t-60 -103t-95 -56.5t-122 -17h-458q-54 0 -98.5 -35.5t-78 -92.5t-51 -122t-17.5 -126q0 -59 13.5 -120.5t40.5 -111t67 -83.5t91 -34 l499 -10q-66 39 -118 93q-43 46 -80 116t-37 165h86q0 -83 35.5 -150t84.5 -118.5t101.5 -79.5t86.5 -28h127v-59h-745q-90 0 -152.5 35.5t-103 95t-60 133.5t-19.5 154z" />
<glyph unicode="&#xe55;" horiz-adv-x="1231" d="M56 420q0 88 27 168.5t73 141.5t109 96.5t137 35.5h159q-21 42 -21 98q0 74 54 127.5t128 53.5t128 -53.5t54 -127.5q0 -51 -20 -105q25 0 54.5 6.5t55 25.5t42 51t16.5 83v379h82v-281q0 -95 -16.5 -156.5t-47.5 -98t-74.5 -52.5t-96.5 -16h-513q-54 0 -99.5 -35.5 t-79 -92.5t-52.5 -122t-19 -126t14 -125.5t42 -117t73 -85.5t106 -33h477q-67 39 -118 95q-44 46 -81.5 116t-37.5 165h88q0 -83 31.5 -150t80.5 -118.5t105 -79.5t103 -28h115v-59h-745q-88 0 -150.5 33t-103 89.5t-60 133t-19.5 164.5zM645 970q0 -34 22 -55t55 -21h8 q29 5 49 25.5t20 50.5q0 31 -23.5 54.5t-53.5 23.5q-33 0 -55 -23.5t-22 -54.5z" />
<glyph unicode="&#xe56;" horiz-adv-x="1410" d="M18 1341v61h53q108 0 177.5 -71t119.5 -184t85.5 -249t78.5 -263q34 69 86 125q43 46 112 86t171 40q103 0 187 -31t143 -87.5t91 -136t32 -172.5q0 -105 -31 -194t-89.5 -152.5t-141.5 -99t-191 -35.5q-56 0 -113.5 15t-108.5 45.5t-94 74t-65 102.5h79q17 -44 53.5 -77 t78 -56t86.5 -35.5t84 -12.5q88 0 155.5 34t116 92t74 134.5t25.5 164.5q0 66 -23 132.5t-69 118.5t-115 85t-164 33q-71 0 -128 -23.5t-97.5 -63.5t-67.5 -91t-39 -108h-98q-61 213 -105 364.5t-91 248t-106 141.5t-151 45z" />
<glyph unicode="&#xe57;" horiz-adv-x="1666" d="M56 438q0 117 26 197.5t67 130.5t86.5 72t89.5 22q74 0 126.5 -28t87.5 -62.5t51 -66.5t19 -41q0 6 16.5 37t50 66.5t87 65t128.5 29.5q44 0 92 -20.5t88 -69t65.5 -130.5t25.5 -202q0 -54 -7 -109t-19 -107.5t-26 -96t-28 -74.5q32 3 72.5 14t78 41t64.5 82.5t27 139.5 v764q0 32 3.5 84.5t27 102.5t74.5 86.5t146 36.5h35v-61q-66 0 -107.5 -20.5t-62.5 -53.5t-28 -74t-7 -82v-771q0 -95 -27 -160t-70 -104.5t-96.5 -57.5t-110.5 -18h-133q31 44 56 110q20 56 38 138t18 190q0 71 -11 137.5t-35.5 116.5t-66 79.5t-102.5 29.5 q-36 0 -78 -19.5t-77.5 -58.5t-60 -96.5t-24.5 -135.5h-31q0 67 -23 125t-59 98.5t-78.5 63.5t-79.5 23q-98 0 -156.5 -89.5t-58.5 -273.5q0 -72 16 -144t52.5 -129t92.5 -94t132 -37q39 0 54 10q8 5 10 10v-66q0 -3 -10 -6q-20 -4 -56 -4q-66 0 -133 30.5t-121 89 t-87 144.5t-33 196z" />
<glyph unicode="&#xe58;" horiz-adv-x="1231" d="M56 438q0 76 26 151.5t79.5 137.5t133 98.5t186.5 36.5h361q42 0 79 6.5t65 28.5t46 60.5t18 102.5v340h84v-299q0 -159 -74.5 -230.5t-209.5 -71.5h-391q-64 0 -123.5 -27t-102.5 -75.5t-70 -116.5t-27 -150q0 -71 14 -141.5t43 -127t77 -92t116 -35.5q46 0 79.5 17.5 t54.5 40.5q25 26 44 59q22 -33 58 -59q32 -22 82.5 -40t127.5 -18q32 0 70 8.5t71 30.5t56 59t23 93v66h82v-66q0 -83 -29.5 -132t-76 -75t-98.5 -33t-98 -7q-71 0 -121.5 13.5t-82.5 33.5q-39 20 -64 49q-18 -29 -46 -49q-26 -20 -63 -33.5t-96 -13.5q-51 0 -104 26.5 t-98 83t-73 143.5t-28 207z" />
<glyph unicode="&#xe59;" horiz-adv-x="1512" d="M56 438q0 117 33 203.5t86 141.5t117 81.5t126 26.5q82 0 130 -28t87 -59q83 158 215 158q51 0 93 -28t80.5 -62t77 -62.5t84.5 -28.5q71 0 111 87t40 220v312h83v-312q0 -162 -55 -264t-166 -102q-74 0 -120.5 27t-82 60t-67.5 62.5t-76 34.5q-48 0 -84 -18t-59 -43.5 t-35 -55t-12 -51.5q0 -18 3 -27l41 -140q10 -33 22 -78t30 -113t44 -160t60 -220h-68l-172 615q-7 25 -22.5 63t-42.5 72t-69.5 58t-106.5 24q-41 0 -83 -26.5t-78 -78t-58.5 -124.5t-22.5 -165q0 -69 13.5 -142.5t46.5 -130.5t87 -94t132 -37q41 0 48 7q5 3 5 8v-64 q13 7 0.5 0t-41.5 -7q-74 0 -141 30.5t-119 89t-83 144.5t-31 196z" />
<glyph unicode="&#xe5a;" horiz-adv-x="1231" d="M56 1042h85q29 -107 82 -169t168 -62q120 0 217.5 59t126.5 172h89v-693q0 -93 -6.5 -158.5t-26 -107.5t-55 -62.5t-94.5 -20.5v59q26 0 44 7.5t31 34.5t19 80.5t6 148.5v652q-33 -63 -80 -114q-41 -44 -102 -81t-145 -37q-136 -2 -234.5 61.5t-124.5 230.5zM999 0v1042 h81v-1042h-81z" />
<glyph unicode="&#xe5b;" horiz-adv-x="1755" d="M95 418q0 102 32 189t88 150.5t131.5 100t163.5 36.5q132 0 209 -45t119 -97q46 -63 61 -141h-80q-18 61 -57 108q-33 41 -93 76t-159 35q-76 0 -139 -36t-106 -95t-66 -132t-23 -149q0 -72 22 -140t64.5 -122t107.5 -87t150 -33q71 0 123.5 17.5t88.5 38.5q42 26 67 57 l132 -131l100 128l117 -128l101 123q25 -31 53 -53q26 -20 57 -36t67 -16q44 0 71 14t42 33t21 38.5t6 32.5q0 31 -3.5 51t-8.5 33q-5 12 -10 21h90q5 -10 12 -21q5 -13 10 -28t5 -41q0 -13 -2.5 -45t-19.5 -63.5t-57.5 -57t-117.5 -25.5q-49 0 -89.5 13.5t-69.5 33.5 q-34 20 -61 49l-105 -125l-118 125l-100 -125l-132 125q-31 -29 -73 -49q-36 -20 -84 -33.5t-112 -13.5q-85 0 -162 33t-135.5 91.5t-93 139t-34.5 176.5z" />
<glyph unicode="&#x2000;" horiz-adv-x="1152" />
<glyph unicode="&#x2001;" horiz-adv-x="2304" />
<glyph unicode="&#x2002;" horiz-adv-x="1152" />
<glyph unicode="&#x2003;" horiz-adv-x="2304" />
<glyph unicode="&#x2004;" horiz-adv-x="768" />
<glyph unicode="&#x2005;" horiz-adv-x="576" />
<glyph unicode="&#x2006;" horiz-adv-x="384" />
<glyph unicode="&#x2007;" horiz-adv-x="384" />
<glyph unicode="&#x2008;" horiz-adv-x="288" />
<glyph unicode="&#x2009;" horiz-adv-x="460" />
<glyph unicode="&#x200a;" horiz-adv-x="128" />
<glyph unicode="&#x2010;" horiz-adv-x="616" d="M95 486v72h427v-72h-427z" />
<glyph unicode="&#x2011;" horiz-adv-x="616" d="M95 486v72h427v-72h-427z" />
<glyph unicode="&#x2012;" horiz-adv-x="616" d="M95 486v72h427v-72h-427z" />
<glyph unicode="&#x2013;" horiz-adv-x="885" d="M95 486v72h696v-72h-696z" />
<glyph unicode="&#x2014;" horiz-adv-x="1371" d="M95 486v72h1183v-72h-1183z" />
<glyph unicode="&#x2018;" horiz-adv-x="271" d="M95 921v127q0 48 24.5 92.5t51.5 80.5q34 41 80 79h30q-31 -46 -53 -91q-20 -39 -36 -84t-16 -77v-127h-81z" />
<glyph unicode="&#x2019;" horiz-adv-x="271" d="M-8 921q29 47 52 93q20 38 35.5 81.5t15.5 79.5v125h81v-125q0 -51 -25.5 -96t-52.5 -80q-34 -41 -78 -78h-28z" />
<glyph unicode="&#x201c;" horiz-adv-x="552" d="M95 921v127q0 48 24.5 92.5t51.5 80.5q34 41 80 79h51q-33 -46 -58 -91q-23 -39 -41.5 -84t-18.5 -77v-127h-89zM318 921v127q0 48 21.5 92.5t49.5 80.5q31 41 72 79h51q-31 -46 -53 -91q-20 -39 -35.5 -84t-15.5 -77v-127h-90z" />
<glyph unicode="&#x201d;" horiz-adv-x="552" d="M-8 921q29 47 52 93q20 38 35.5 81.5t15.5 79.5v125h89v-125q0 -51 -21.5 -96t-50.5 -80q-31 -41 -71 -78h-49zM200 921q31 47 59 93q20 38 39.5 81.5t19.5 79.5v125h90v-125q0 -51 -26 -96t-54 -80q-34 -41 -77 -78h-51z" />
<glyph unicode="&#x2022;" horiz-adv-x="582" d="M95 528q0 84 60 143t143 59q87 0 145 -59.5t58 -142.5q0 -86 -58.5 -146t-144.5 -60q-83 0 -143 60t-60 146z" />
<glyph unicode="&#x2026;" horiz-adv-x="1346" d="M95 0v98h81v-98h-81zM632 0v98h82v-98h-82zM1170 0v98h81v-98h-81z" />
<glyph unicode="&#x202f;" horiz-adv-x="460" />
<glyph unicode="&#x205f;" horiz-adv-x="576" />
<glyph unicode="&#x20ac;" horiz-adv-x="1217" d="M95 428v94h125l2 64v38t3 38h-130v96h140q15 97 62.5 182.5t123 148.5t174.5 100t219 37h67.5t82 -3.5t82 -11t70.5 -23.5l-26 -64q-74 34 -134 36t-140 2q-192 0 -323.5 -108.5t-180.5 -295.5h530v-96h-534q-3 -20 -3 -38v-38v-32.5t3 -31.5h483v-94h-481 q34 -174 159 -283t347 -109q49 0 84 2.5t65.5 9t60 17.5t64.5 33l26 -67q-74 -43 -156 -48t-156 -5q-235 0 -379 120t-195 330h-135z" />
<glyph unicode="&#x2122;" horiz-adv-x="990" d="M95 1188v31h286v-31h-120v-392h-41v392h-125zM452 796v423h60l153 -361l167 361h52v-423h-32v372l-171 -372h-26l-164 372v-372h-39z" />
<glyph unicode="&#x25fc;" horiz-adv-x="857" d="M0 0v858h858v-858h-858z" />
<glyph horiz-adv-x="987" d="M56 872q25 54 74 98q44 36 113 67t182 31q56 0 101 -6.5t92 -25.5q24 8 64 21t76 30t63 41t27 60h83q0 -52 -22.5 -82.5t-57.5 -48.5t-75.5 -28t-76.5 -20q107 -74 168.5 -191t61.5 -270q0 -93 -21.5 -190t-71.5 -176.5t-129 -130.5t-195 -51h-133l-105 422 q-8 20 -23.5 19t-35.5 -1h-41v59h90q28 0 42 -4t18 -7.5t1 -3.5t-3 7l130 -435q116 0 191.5 46.5t120.5 117.5t63 158.5t18 169.5q0 110 -34.5 196t-92.5 146t-133 90.5t-160 30.5q-90 0 -152.5 -34.5t-103.5 -77.5q-47 -49 -79 -113z" />
<glyph horiz-adv-x="1691" d="M56 816q36 69 93 126q49 47 127 86.5t193 39.5q73 0 154 -16t149 -53t112.5 -100.5t44.5 -158.5v-402q0 -44 9.5 -96t36 -98t71 -78t119.5 -32h107q74 0 121.5 32t74.5 78t37 98.5t10 95.5v704h83v-693q0 -74 -17 -141t-51.5 -118t-87 -81.5t-126.5 -30.5h-205 q-87 0 -139.5 34t-79.5 88t-35.5 119t-8.5 130v340q0 105 -40 168.5t-98 97.5t-126.5 44t-124.5 10q-74 0 -136 -30.5t-105 -67.5q-52 -43 -96 -95l152 -127q-8 -18 -15 -47q-5 -24 -10 -62t-5 -96l2 -376q0 -20 2.5 -34.5t22.5 -17.5h69v-56h-76q-46 0 -75.5 27t-29.5 124 v333q0 48 7.5 85t17.5 66q10 31 28 54q-46 36 -80 63q-28 23 -52 42.5t-24 21.5z" />
<glyph d="M-814 1385q0 66 28 102.5t64 51.5t66.5 17.5t37.5 2.5h154q59 0 91.5 6t50.5 15q20 10 27 20l-3 -61q-4 -10 -24 -21q-18 -8 -50.5 -13t-91.5 -5h-127q-77 0 -109 -29.5t-32 -85.5v-28.5t6.5 -28t19 -23t37.5 -10.5q29 0 46 12t24 24q10 15 10 37h49q5 -20 15 -37 q7 -12 21.5 -24t39.5 -12q59 0 74.5 25.5t15.5 47.5h83q0 -57 -44 -95.5t-103 -38.5q-28 0 -51 2.5t-41 7.5q-20 5 -36 14q-10 -8 -25 -14q-15 -5 -39.5 -7.5t-63.5 -2.5q-7 0 -26.5 7.5t-40 24t-37 46t-16.5 73.5z" />
<glyph d="M-476 1798h131q39 0 70 -35t31 -73q0 -20 16 -35.5t36 -15.5h192l-20 -64h-210q-59 0 -94 34.5t-35 72.5q0 34 -15 42t-31 8h-69z" />
<glyph d="M-579 1688q0 51 41.5 99t109.5 48q20 0 37 -7.5t27 -15.5q12 -10 22 -22q7 12 17 22q10 8 23 15.5t33 7.5q69 0 108 -38t33 -95q-2 -20 5.5 -23t20.5 -3l102 3l-20 -67h-90q-36 0 -55 9.5t-28 23.5t-10.5 32t-1.5 38q0 34 -25.5 41.5t-28.5 7.5q-36 0 -47.5 -24.5 t-11.5 -51.5h-51q0 24 -18 50t-38 26t-45.5 -14t-25.5 -62q0 -20 6 -33.5t14 -23.5q10 -10 20 -19h-92q-7 8 -16 19q-5 10 -10 22.5t-5 34.5z" />
<glyph horiz-adv-x="1742" d="M56 816q34 69 90 126q49 47 124 86.5t189 39.5q56 0 116 -8t116.5 -27t105 -50t81.5 -77q4 15 22.5 42t53.5 54t86.5 46.5t129.5 19.5q61 0 133 -19.5t132 -63t100 -116.5t40 -180v-1099q0 -36 -13 -58.5t-26 -39.5q-17 -17 -38 -27h-6v1197q0 169 -95 258t-253 89 q-85 0 -129.5 -35.5t-64 -80.5t-20.5 -84t-1 -44v-1175q0 -36 -12.5 -58.5t-25.5 -39.5q-17 -17 -39 -27h-7v1224q0 100 -37.5 162.5t-95 96.5t-124 47.5t-122.5 13.5q-82 0 -146 -30.5t-108 -67.5q-51 -43 -92 -95l154 -127l-4 -8q-4 -7 -10 -30t-11 -63t-5 -104v-376 q0 -52 30.5 -52h65.5v-56h-66q-66 0 -92 30.5t-26 120.5v333q0 48 7.5 85t20.5 66q10 31 28 54q-46 36 -80 63q-28 23 -52 42.5t-24 21.5z" />
<glyph horiz-adv-x="1742" d="M51 0v59h77q17 2 24 26.5t7 57.5t-2.5 69.5t-2.5 61.5l2 210q0 48 9 85t19 66q10 31 28 54q-46 36 -80 63q-28 23 -52 42.5t-24 21.5q39 69 95 126q49 47 121.5 86.5t179.5 39.5q126 0 244 -33.5t182 -123.5q7 15 25 41t53 51.5t87.5 45t126.5 19.5q61 0 133 -19.5 t132 -63t100 -116.5t40 -180v-1099q0 -36 -13 -58.5t-26 -39.5q-17 -17 -38 -27h-6v1197q0 169 -95 258t-253 89q-85 0 -129.5 -35.5t-64 -82t-20.5 -90t-1 -61.5v-1150q0 -36 -12.5 -58.5t-25.5 -39.5q-17 -17 -39 -27h-7v1224q0 110 -41.5 172.5t-100 96t-129 42.5 t-126.5 9q-74 0 -133 -30.5t-103 -67.5q-51 -43 -92 -95l151 -127q-10 -18 -17 -47q-8 -24 -13.5 -62t-5.5 -96v-333q0 -97 -27 -124t-96 -27h-61z" />
</font>
</defs>
</svg>
