<?xml version="1.0" standalone="no"?>
<!DOCTYPE svg PUBLIC "-//W3C//DTD SVG 1.1//EN" "http://www.w3.org/Graphics/SVG/1.1/DTD/svg11.dtd" >
<svg xmlns="http://www.w3.org/2000/svg" xmlns:xlink="http://www.w3.org/1999/xlink" version="1.1">
<metadata></metadata>
<defs>
<font id="thaisans_neueitalic" horiz-adv-x="0" >
<font-face units-per-em="2048" ascent="1540" descent="-508" />
<missing-glyph horiz-adv-x="823" />
<glyph unicode="&#x3b;&#x3b;arm&#x3b;&#x3b;" horiz-adv-x="2672" d="M95 1588v102h409v205q-29 0 -56.5 16.5t-49.5 44.5t-34.5 65.5t-12.5 77.5q0 46 17.5 83.5t45.5 64.5t66 42t75 15q97 0 151 -54t54 -151q0 -34 -10 -69.5t-29.5 -65t-47.5 -48t-67 -21.5v-205h410v-102h-410v-308l275 -615h-102l-224 513l-223 -513h-102l274 615v308 h-409zM198 0q0 29 10 60.5t31.5 58.5t55 43.5t81.5 16.5q76 0 127.5 -51.5t51.5 -127.5q0 -18 -8.5 -64t-60.5 -82l56 -262l142 283h51l140 -283l90 536h127l-40 -216l28 52l166 38q0 133 16 226.5t46.5 150t79 82t114.5 25.5q77 0 115.5 -51t38.5 -127h-51q0 38 -19.5 70 t-56.5 32q-98 0 -139 -95t-41 -286l187 45l23 -94l-210 -54v-102q0 -154 -7.5 -281t-37 -219t-86 -142t-150.5 -50q-77 0 -128 38.5t-51 115.5h51q0 -38 32 -57.5t70 -19.5q77 0 118 46t60 126.5t22.5 193.5t3.5 249v76l-204 -51l-87 -460h-66l-180 383l-179 -383h-66 l-83 409l47 31q-6 -3 -16 -3q-10 -2 -36 -2q-22 0 -54.5 8.5t-59.5 29t-45.5 54t-18.5 84.5zM300 0q0 -29 19 -51.5t57 -22.5q76 0 76 74q0 76 -76 76q-38 0 -57 -22.5t-19 -53.5zM452 2099q0 -39 22 -71t81 -32t81 32.5t22 70.5q0 59 -32 80.5t-71 21.5t-71 -21.5 t-32 -80.5zM1042 665l583 1587h441l512 -1587h-409l-157 487h-688l-180 -487h-102zM1375 1280h594l-279 870zM1705 51l51 257h76l-76 -257h-51zM1776 2176l34 -100l59 100h-93zM1828 2030l21 -71l132 217h-63zM1832 51l52 257h77l-77 -257h-52zM1866 1910l29 -92l143 241 l-28 86zM1920 1741l15 -51l144 238l-15 51zM1956 1629l15 -51l144 237l-16 51zM1989 -254q0 95 23 183.5t64.5 155t97.5 107t122 40.5q136 0 209 -93t73 -264q0 -251 -89.5 -368.5t-243.5 -117.5q-49 0 -95 20t-82 62.5t-57.5 110t-21.5 164.5zM1994 1510l16 -51l142 236 l-17 54zM2028 1408l17 -62l144 239l-18 61zM2064 1290l17 -51l141 239l-13 51zM2091 -202l359 153q-5 49 -20 88q-15 33 -45 61t-89 28q-66 0 -107 -53t-61 -114q-26 -71 -37 -163zM2091 -330q0 -29 9.5 -60.5t28.5 -58.5t48 -44t68 -17q76 0 117.5 51t61.5 117 q22 71 26 166zM2099 1175l16 -41l143 234l-13 48zM2132 1075l16 -41l143 236l-15 44zM2166 972l15 -48l147 234l-17 53zM2199 870l19 -59l142 241l-18 57zM2232 768l8 -26h34l120 203l-18 61zM2314 742h51l63 106l-19 51zM2406 742h52l-18 57z" />
<glyph unicode="&#xd;" horiz-adv-x="823" />
<glyph unicode=" "  horiz-adv-x="823" />
<glyph unicode="&#x09;" horiz-adv-x="823" />
<glyph unicode="&#xa0;" horiz-adv-x="823" />
<glyph unicode="!" horiz-adv-x="342" d="M95 0l30 154h154l-30 -154h-154zM159 308l217 1023h154l-218 -1023h-153z" />
<glyph unicode="&#x22;" horiz-adv-x="623" d="M289 921l87 410h154l-88 -410h-153zM571 921l87 410h153l-86 -410h-154z" />
<glyph unicode="#" horiz-adv-x="1397" d="M174 376l58 125h196l127 269h-194l59 126h198l173 359h149l-175 -359h359l174 359h148l-174 -359h220l-61 -126h-220l-129 -269h220l-61 -125h-217l-179 -376h-149l179 376h-357l-180 -376h-148l179 376h-195zM576 501h359l127 269h-358z" />
<glyph unicode="$" horiz-adv-x="1007" d="M110 76l29 129q46 -29 102 -51q49 -20 111.5 -36t136.5 -16q141 0 230.5 68t115.5 189q17 87 -21 136.5t-106 81.5t-148.5 57.5t-145.5 64.5t-101.5 102.5t-12.5 170.5q15 67 54.5 121.5t97.5 92.5t124 60t135 29l44 195h146l-43 -195q66 -5 116 -17t81 -24 q36 -13 61 -30l-26 -129q-36 20 -84 39q-44 12 -106 25t-152 13q-44 0 -93 -13t-91 -36t-72.5 -56t-39.5 -75q-14 -71 27 -113.5t107 -71.5t147 -57.5t146.5 -71.5t98.5 -113.5t11 -185.5q-15 -67 -42.5 -128.5t-76.5 -113t-117.5 -85.5t-168.5 -47l-42 -197h-146l39 190 q-87 2 -147 18t-100 35q-47 20 -78 45z" />
<glyph unicode="%" horiz-adv-x="1466" d="M269 0l1185 1541h161l-1185 -1541h-161zM320 1068q39 181 129.5 276t200.5 95q105 0 152.5 -89.5t8.5 -267.5q-17 -87 -51.5 -154.5t-78 -113.5t-95 -69t-102.5 -23q-105 0 -152.5 88.5t-11.5 257.5zM454 956q-2 -45 6.5 -69.5t23.5 -31.5t36 -7q18 0 38.5 8.5t40 33 t37.5 69.5t33 116t16 118.5t-6.5 73t-24 36.5t-34.5 11q-20 0 -39.5 -11t-39 -37.5t-37.5 -72t-33 -121.5q-15 -71 -17 -116zM948 310q38 181 129 276t201 95q104 0 152 -90t9 -266q-18 -87 -51.5 -153.5t-76.5 -113t-94.5 -69.5t-102.5 -23q-103 0 -153 87.5t-13 256.5z M1082 199q-2 -45 6 -69.5t23 -32t37 -7.5q20 0 39 9t38 33t37 69t33 117q15 71 17 118.5t-6 73t-23 35.5t-37 10q-20 0 -39 -10t-38 -37t-37 -73t-33 -120q-15 -71 -17 -116z" />
<glyph unicode="&#x26;" horiz-adv-x="1417" d="M161 325q29 141 121 237t253 163q-49 36 -86 103.5t-17 165.5q16 68 53 122t92 89.5t121.5 55t141.5 19.5q61 0 115 -18t90.5 -52.5t53.5 -83t5 -107.5q-25 -118 -106.5 -187.5t-216.5 -120.5q120 -73 179 -162.5t98 -177.5q53 59 96.5 123t77 128t56.5 123t36 107l10 44 h154q-42 -151 -140.5 -321t-231.5 -314q36 -59 85.5 -96t147.5 -37l-25 -128q-130 0 -203 44t-120 110q-215 -176 -493 -176q-200 0 -293 83t-54 264zM312 220q10 -44 39.5 -69.5t77 -37t106.5 -11.5q113 0 214 38.5t191 113.5q-29 54 -54.5 109t-60 106t-82 94t-118.5 72 q-66 -25 -117.5 -51t-90 -60.5t-63 -82t-39.5 -116.5q-13 -61 -3 -105zM586 994q-12 -66 10 -124.5t83 -97.5q122 44 187.5 104t83.5 143q8 33 -5.5 57.5t-34.5 39.5t-48 23.5t-51 8.5q-95 0 -153.5 -46.5t-71.5 -107.5z" />
<glyph unicode="'" horiz-adv-x="342" d="M289 921l87 410h154l-88 -410h-153z" />
<glyph unicode="(" horiz-adv-x="521" d="M156 479q54 253 178.5 468t313.5 394h141q-384 -373 -489 -862q-51 -244 -19.5 -451t147.5 -387h-142q-232 343 -130 838z" />
<glyph unicode=")" horiz-adv-x="521" d="M-54 -359q184 179 304.5 386.5t171.5 451.5q52 246 21 462.5t-141 399.5h140q113 -179 145.5 -394t-21.5 -468q-51 -249 -175.5 -459t-308.5 -379h-136z" />
<glyph unicode="*" horiz-adv-x="738" d="M302 985l230 107l-183 109l110 115l115 -138l15 202h143l-74 -205l182 141l59 -115l-234 -109l187 -107l-107 -115l-123 141l-13 -205h-143l72 203l-174 -139z" />
<glyph unicode="+" horiz-adv-x="956" d="M192 461l26 128h320l71 337h129l-73 -337h320l-25 -128h-320l-66 -307h-129l67 307h-320z" />
<glyph unicode="," horiz-adv-x="342" d="M-115 -279q51 47 95 91q36 42 70.5 90.5t44.5 97.5l30 154h154l-30 -154q-13 -59 -51.5 -109t-82.5 -89q-49 -46 -107 -81h-123z" />
<glyph unicode="-" horiz-adv-x="687" d="M198 486l27 129h500l-29 -129h-498z" />
<glyph unicode="." horiz-adv-x="342" d="M95 0l30 154h154l-30 -154h-154z" />
<glyph unicode="/" horiz-adv-x="591" d="M18 0l737 1541h144l-738 -1541h-143z" />
<glyph unicode="0" horiz-adv-x="1058" d="M157.5 327.5q-8.5 117.5 23.5 273.5q37 167 99 293.5t143 212t177 129.5t201 44q100 0 177 -39.5t124.5 -120.5t57.5 -203.5t-24 -286.5q-36 -161 -102 -283t-152 -205t-184.5 -123.5t-198.5 -40.5q-98 0 -171.5 38t-117.5 116t-52.5 195.5zM313.5 382.5 q4.5 -96.5 32.5 -159t78 -92t116 -29.5q69 0 135.5 31t125.5 94.5t104.5 162t74.5 228.5q29 136 24 235t-35.5 165.5t-83.5 100t-123 33.5q-130 0 -248 -133t-176 -410q-29 -130 -24.5 -226.5z" />
<glyph unicode="1" horiz-adv-x="585" d="M251 921l28 129q61 22 120.5 56.5t104.5 68.5q54 39 102 80h152l-267 -1255h-153l223 1050q-22 -12 -58.5 -31.5t-79 -38t-87.5 -35t-85 -24.5z" />
<glyph unicode="2" horiz-adv-x="867" d="M56 0l23 118q15 73 73 142.5t137.5 135t170 129.5t170 129t139 133t73.5 144q26 120 -25.5 170.5t-145.5 50.5q-82 0 -177 -25.5t-166 -84.5l28 128q66 56 153 83t190 27q161 0 246.5 -85.5t53.5 -246.5q-20 -93 -78.5 -173.5t-136.5 -151.5t-165 -133t-165 -122 t-136.5 -119t-79.5 -121h637l-25 -128h-794z" />
<glyph unicode="3" horiz-adv-x="892" d="M105 51l27 137q52 -52 121 -69t155 -17q122 0 221 56.5t123 171.5q13 64 -0.5 111.5t-61.5 79t-132 47.5t-213 16l26 120q115 0 213 28q82 20 154.5 69t93.5 139q26 118 -23 165t-135 47q-66 0 -150 -16.5t-150 -60.5l25 129q69 38 140.5 57t161.5 19q71 0 132 -23 t100 -64t56 -94.5t5 -118.5q-29 -130 -111 -209.5t-214 -118.5q59 -7 109 -32.5t83 -66.5t46.5 -94t1.5 -117q-18 -87 -66.5 -154.5t-119.5 -115t-159 -71t-185 -23.5q-90 0 -159 21t-115 52z" />
<glyph unicode="4" horiz-adv-x="921" d="M82 305l28 130l750 820h154l-174 -820h156l-28 -130h-157l-63 -305h-154l64 305h-576zM276 435h410l125 591z" />
<glyph unicode="5" horiz-adv-x="841" d="M100 25l28 134q24 -18 62 -29q29 -12 72 -20t97 -8q143 0 232.5 66.5t117.5 195.5q29 127 -35.5 201.5t-197.5 74.5q-58 0 -104.5 -4t-80.5 -8q-39 -8 -66 -13l136 640h604l-27 -129h-452l-78 -371h91q215 0 308.5 -105t57.5 -276q-41 -193 -184 -294.5t-351 -101.5 q-90 0 -142 13.5t-88 33.5z" />
<glyph unicode="6" horiz-adv-x="928" d="M171 552q77 359 256 543.5t421 184.5q58 0 115.5 -2.5t101.5 -22.5l-29 -129q-25 5 -58 13q-29 5 -68.5 9t-90.5 4q-171 0 -295.5 -129t-174.5 -363q31 39 70.5 64.5t80 40t80.5 19.5t70 5q79 0 143.5 -29.5t106.5 -82t57 -127t-2 -161.5q-20 -90 -66.5 -165t-112 -130 t-147 -85.5t-170.5 -30.5q-184 0 -265.5 151.5t-22.5 422.5zM308 415q-32 -146 14.5 -229.5t163.5 -83.5q52 0 103 23.5t95 61.5t75.5 90.5t44.5 111.5q28 136 -24 204.5t-174 68.5q-64 0 -116 -26.5t-90.5 -65t-61.5 -80t-30 -75.5z" />
<glyph unicode="7" horiz-adv-x="855" d="M235 0l661 1126h-640l28 129h820l-19 -77l-696 -1178h-154z" />
<glyph unicode="8" horiz-adv-x="905" d="M125 332q23 110 98 201.5t197 145.5q-69 43 -99.5 116t-10.5 163q15 68 52 127t92.5 102.5t124.5 68t146 24.5q71 0 128.5 -27t94.5 -70.5t51.5 -102.5t1.5 -122q-20 -90 -78 -163t-147 -116q98 -51 132 -146t11 -201q-18 -87 -61.5 -153.5t-106 -111.5t-141 -67 t-165.5 -22q-184 0 -269.5 90.5t-50.5 263.5zM284 359q-25 -115 23.5 -186t166.5 -71q115 0 193 71t103 186q10 49 4 94.5t-29 81.5t-63 58t-98 22q-108 0 -192 -70.5t-108 -185.5zM461 942q-17 -82 18.5 -141t129.5 -59q41 0 80 15t72 43t56 64.5t31 77.5q17 90 -27.5 150 t-124.5 60q-97 0 -156 -60t-79 -150z" />
<glyph unicode="9" horiz-adv-x="928" d="M130 0l26 128q25 -8 59 -13q64 -13 159 -13q171 0 295.5 129.5t175.5 362.5q-31 -39 -70.5 -64.5t-81 -39.5t-80.5 -19t-71 -5q-78 0 -142.5 29.5t-106.5 82t-57.5 125.5t2.5 162q17 90 65 165.5t113 132t147 87t172 30.5q184 0 264.5 -154t21.5 -425 q-76 -359 -255.5 -541t-420.5 -182q-59 0 -116.5 2t-98.5 20zM389 865q-29 -136 25.5 -205t174.5 -69q63 0 116 27t90 65.5t60.5 80.5t30.5 76q32 146 -15 229t-165 83q-51 0 -102.5 -23t-94.5 -61.5t-75 -91t-45 -111.5z" />
<glyph unicode=":" horiz-adv-x="342" d="M95 0l30 154h154l-30 -154h-154zM251 742l33 154h154l-33 -154h-154z" />
<glyph unicode=";" horiz-adv-x="342" d="M-115 -279q51 47 95 91q36 42 70.5 90.5t44.5 97.5l30 154h154l-30 -154q-13 -59 -51.5 -109t-82.5 -89q-49 -46 -107 -81h-123zM251 742l33 154h154l-33 -154h-154z" />
<glyph unicode="&#x3c;" horiz-adv-x="923" d="M139 389l12 67l953 475l-32 -142l-721 -367l575 -314l-27 -142z" />
<glyph unicode="=" horiz-adv-x="956" d="M159 308l29 127h767l-29 -127h-767zM218 589l28 127h768l-29 -127h-767z" />
<glyph unicode="&#x3e;" horiz-adv-x="923" d="M10 -34l29 142l713 314l-568 367l31 142l747 -475l-12 -67z" />
<glyph unicode="?" horiz-adv-x="803" d="M249 0l30 154h153l-30 -154h-153zM312 308l52 244q15 74 73.5 123.5t125.5 92.5t126 92t73 122q20 90 -24 130t-116 40q-68 0 -124 -15.5t-96 -35.5q-46 -22 -84 -51l24 128q32 28 78 51q39 20 95 35.5t135 15.5q61 0 117.5 -18t95 -52.5t55.5 -88t1 -122.5 q-15 -67 -47 -115.5t-74.5 -86t-89 -67t-85.5 -56t-68.5 -56t-36.5 -66.5l-52 -244h-154z" />
<glyph unicode="@" horiz-adv-x="1673" d="M194.5 206q-30.5 124 0.5 273q31 151 122 283t217 230t277 155t305 57q149 0 269 -47.5t199.5 -132t112.5 -199t5 -246.5q-22 -103 -73 -186t-118 -142t-143 -91t-144 -32q-105 0 -139.5 46t-22.5 151q-66 -105 -135 -151t-165 -46q-58 0 -109.5 19t-86 61.5t-46.5 107.5 t8 155q17 85 67 157.5t118 126.5t148.5 84.5t157.5 30.5q71 0 112 -29.5t51 -72.5l44 102h144l-161 -420q-10 -54 -11 -96q0 -36 10.5 -67t42.5 -31q57 0 107 33t90 82t65.5 105t35.5 103q15 73 -2.5 161t-72.5 161.5t-150 123.5t-234 50t-264 -57.5t-225 -144.5t-166 -193 t-86 -201q-23 -103 -5.5 -201.5t75 -177t157.5 -126.5t240 -48q100 0 201.5 22.5t186.5 51.5l-32 -132q-92 -29 -189 -49.5t-194 -20.5q-154 0 -277 51t-205 142t-112.5 215zM674 371q5 -41 21 -66.5t41.5 -37t54.5 -11.5q108 0 183.5 81t115.5 272q12 66 -14 99.5t-85 33.5 q-102 0 -192 -68t-118 -203q-12 -59 -7 -100z" />
<glyph unicode="A" horiz-adv-x="1110" d="M18 0l727 1255h154l193 -1255h-152l-54 332h-527l-195 -332h-146zM430 461h440l-84 627z" />
<glyph unicode="B" horiz-adv-x="982" d="M95 0l266 1255h358q169 1 246 -83q56 -61 57 -147q0 -31 -8 -65q-20 -100 -97 -183t-185 -112q59 -10 108 -35.5t80.5 -63.5t43.5 -91q5 -25 5 -52q0 -31 -7 -64q-14 -79 -60.5 -144.5t-114.5 -113t-152.5 -74.5t-175.5 -27h-364zM274 128h195q63 0 121 18t103 48.5 t75.5 73t40.5 91.5q7 29 7 56q0 73 -52 121q-70 65 -224 65h-166zM402 730h150q118 0 200.5 51t102.5 154q6 26 6 49q1 56 -35 92q-50 50 -174 50h-166z" />
<glyph unicode="C" horiz-adv-x="1046" d="M174 350q-6 43 -6 89q0 82 20 176q33 154 104.5 276.5t172.5 209.5t226 133t267 46q94 0 185 -11t147 -40l-79 -128q-66 37 -133 44t-149 7q-108 0 -203.5 -38.5t-172.5 -108.5t-132 -170t-81 -220q-16 -78 -16 -145q0 -36 4 -70q14 -95 62 -160.5t128.5 -101.5 t187.5 -36q98 0 161.5 19.5t146.5 57.5l25 -128q-83 -43 -178.5 -58t-200.5 -15q-139 0 -240.5 44t-164.5 127t-81 201z" />
<glyph unicode="D" horiz-adv-x="1175" d="M95 0l266 1255h350q330 -1 470 -153q95 -104 95 -280q0 -83 -21 -182q-31 -144 -105.5 -261.5t-183 -202t-245.5 -130.5t-291 -46h-335zM274 128h182q123 0 229 36t189.5 101t142 160t84.5 215q16 78 16 143q1 141 -75 223q-110 120 -366 120h-190z" />
<glyph unicode="E" horiz-adv-x="855" d="M95 0l266 1255h665l-27 -129h-513l-92 -435h461l-27 -127h-462l-92 -436h512l-26 -128h-665z" />
<glyph unicode="F" horiz-adv-x="777" d="M95 0l266 1255h665l-27 -129h-513l-92 -435h461l-27 -127h-462l-117 -564h-154z" />
<glyph unicode="G" horiz-adv-x="1200" d="M173 340q-9 49 -9 104q0 73 17 157q34 149 111 274.5t187 215t243 139.5t277 50q95 0 157.5 -12.5t103.5 -26.5q46 -17 74 -37l-25 -129q-31 20 -78 39q-43 12 -109.5 25t-166.5 13q-110 0 -211.5 -41t-184.5 -114t-140.5 -174t-83.5 -222q-17 -79 -17 -147 q0 -138 71 -224q105 -128 325 -128q82 0 143.5 13t127.5 44l75 353h-281l27 128h435l-122 -574q-108 -54 -218 -71t-232 -17q-137 0 -240.5 43t-168.5 123.5t-87 195.5z" />
<glyph unicode="H" horiz-adv-x="1136" d="M95 0l266 1255h154l-116 -539h640l116 539h154l-267 -1255h-153l122 589h-640l-122 -589h-154z" />
<glyph unicode="I" horiz-adv-x="342" d="M95 0l266 1255h154l-266 -1255h-154z" />
<glyph unicode="J" horiz-adv-x="650" d="M18 8l77 114q15 -4 33 -10q14 -4 38 -7t52 -3q202 0 276 338l175 815h152l-173 -815q-49 -225 -171.5 -343.5t-286.5 -118.5q-49 0 -81.5 5t-52.5 9q-25 8 -38 16z" />
<glyph unicode="K" horiz-adv-x="995" d="M95 0l266 1255h154l-136 -635l645 635h180l-436 -427l210 -828h-159l-177 701l-312 -310l-81 -391h-154z" />
<glyph unicode="L" horiz-adv-x="777" d="M95 0l266 1255h154l-241 -1127h512l-26 -128h-665z" />
<glyph unicode="M" horiz-adv-x="1495" d="M95 0l266 1255h205l218 -1025l677 1025h205l-266 -1255h-154l222 1036l-696 -1036h-76l-230 1031l-217 -1031h-154z" />
<glyph unicode="N" horiz-adv-x="1212" d="M95 0l266 1255h191l454 -1055l225 1055h154l-266 -1255h-193l-457 1042l-220 -1042h-154z" />
<glyph unicode="O" horiz-adv-x="1315" d="M171 347q-6 42 -6 88q0 81 19 174q34 156 103 280.5t166 211.5t220 133t267 46q132 0 231 -46t158 -130t77 -202q6 -42 6 -89q0 -82 -20 -175q-33 -157 -102 -280t-167.5 -207.5t-222.5 -128.5t-265 -44q-133 0 -231.5 43t-157 126t-75.5 200zM338 609q-19 -86 -19 -158 q1 -125 57 -212q90 -137 286 -137q216 0 369.5 139.5t207.5 396.5q17 78 17 148q0 32 -4 62q-12 96 -54.5 163t-115.5 104t-171 37q-217 0 -368.5 -145t-204.5 -398z" />
<glyph unicode="P" horiz-adv-x="918" d="M95 0l266 1255h348q199 -1 289 -99q62 -68 62 -178q0 -50 -12 -108q-20 -92 -66.5 -167t-117 -129t-162 -83.5t-198.5 -29.5h-159l-96 -461h-154zM371 589h159q151 0 244.5 78t119.5 201q9 45 9 83q1 66 -27 108q-44 67 -195 67h-195z" />
<glyph unicode="Q" horiz-adv-x="1315" d="M171 347q-6 42 -6 88q0 81 19 174q34 156 103 280.5t166 211.5t220 133t267 46q132 0 231 -46t158 -130.5t77 -201.5q6 -43 6 -89q0 -82 -20 -175q-46 -213 -154.5 -361.5t-262.5 -225.5q29 -12 57 -31.5t50 -46.5t30 -64q4 -17 4 -36q0 -23 -5 -49h-143q2 11 2 22 q0 23 -10 42q-15 27 -40.5 49t-53.5 37.5t-52 23.5q-89 -20 -179 -20q-133 0 -231.5 43t-157 126t-75.5 200zM338 609q-19 -86 -19 -158q0 -125 57 -212q89 -137 286 -137q216 0 369.5 139.5t207.5 396.5q17 78 17 148q0 32 -4 62q-11 97 -54 163.5t-116 103.5t-171 37 q-217 0 -368.5 -145t-204.5 -398z" />
<glyph unicode="R" horiz-adv-x="1021" d="M95 0l266 1255h384q76 0 141.5 -22t109.5 -65q44 -44 60 -108q8 -32 7 -68q0 -38 -8 -81q-29 -130 -126 -205.5t-230 -104.5q53 -20 85 -89.5t61 -137.5l159 -374h-174l-146 349q-36 90 -78 139.5t-125 49.5h-120l-112 -538h-154zM389 665h200q112 0 199 62t113 184 q5 26 5 49q0 66 -41 108q-56 58 -179 58h-200z" />
<glyph unicode="S" horiz-adv-x="1007" d="M110 76l29 129q46 -29 102 -51q49 -20 111.5 -36t136.5 -16q141 0 230.5 68t115.5 189q5 27 5 50q0 53 -26 87q-38 50 -106 81.5t-148.5 57t-145.5 64.5q-66 39 -102 103q-22 38 -22 92q0 36 10 78q15 74 63.5 132t115 96.5t144.5 59t153 20.5q90 0 155 -12.5t105 -26.5 q46 -17 80 -37l-26 -129q-36 20 -84 39q-44 12 -106 25t-152 13q-44 0 -93 -13t-91 -36t-72.5 -56t-39.5 -75q-4 -18 -4 -34q0 -48 31 -80q41 -42 107 -71t147 -57.5t147 -71.5q65 -44 98 -114q20 -42 20 -100q0 -39 -9 -85q-15 -74 -50 -143.5t-96.5 -122t-155 -84 t-226.5 -31.5q-92 0 -159 13.5t-110 33.5q-48 23 -82 51z" />
<glyph unicode="T" horiz-adv-x="892" d="M256 1126l28 129h857l-27 -129h-346l-238 -1126h-154l239 1126h-359z" />
<glyph unicode="U" horiz-adv-x="1136" d="M195 476l166 779h154l-164 -769q-18 -87 -18 -154q0 -82 27 -134q50 -96 216 -96q162 0 267 89.5t146 279.5l166 784h154l-161 -761q-57 -266 -208 -391t-392 -125q-230 0 -318 121q-55 75 -55 202q0 78 20 175z" />
<glyph unicode="V" horiz-adv-x="1110" d="M284 1255h154l153 -1076l615 1076h153l-727 -1255h-153z" />
<glyph unicode="W" horiz-adv-x="1647" d="M284 1255h154l63 -1076l551 1076h103l37 -1076l552 1076h154l-652 -1255h-178l-20 999l-493 -999h-179z" />
<glyph unicode="X" horiz-adv-x="1033" d="M18 0l543 628l-251 627h179l187 -500l428 500h178l-542 -627l276 -628h-178l-216 499l-424 -499h-180z" />
<glyph unicode="Y" horiz-adv-x="982" d="M284 1255h154l168 -644l472 644h153l-579 -796l-97 -459h-153l94 450z" />
<glyph unicode="Z" horiz-adv-x="982" d="M18 0l7 39l947 1087h-664l27 129h896l-10 -39l-947 -1088h688l-22 -128h-922z" />
<glyph unicode="[" horiz-adv-x="501" d="M18 -359l361 1703h389l-26 -125h-251l-310 -1451h251l-24 -127h-390z" />
<glyph unicode="\" horiz-adv-x="591" d="M342 1541h144l88 -1541h-144z" />
<glyph unicode="]" horiz-adv-x="501" d="M-54 -359l25 127h247l310 1451h-252l26 125h389l-361 -1703h-384z" />
<glyph unicode="^" horiz-adv-x="1156" d="M200 494l604 850h66l298 -850h-144l-230 645l-452 -645h-142z" />
<glyph unicode="_" horiz-adv-x="956" d="M66 -125l29 125h767l-27 -125h-769z" />
<glyph unicode="`" horiz-adv-x="542" d="M394 1410h154l138 -284h-128z" />
<glyph unicode="a" horiz-adv-x="905" d="M140 128q-4 19 -5 40q0 34 11 76q20 85 66.5 136.5t101.5 81t113.5 40t107.5 10.5q66 0 113.5 5t79.5 13q36 10 58 20q12 56 12 99q0 71 -32 109q-52 62 -160 61q-78 0 -138 -27t-102 -57q-46 -36 -82 -83l-28 116q36 46 89 82q46 31 116.5 58t168.5 27q66 0 130 -18 t109 -59.5t65 -107.5q10 -33 11 -74q0 -40 -10 -87l-124 -589h-140l20 102q-43 -41 -121.5 -82.5t-175.5 -41.5q-66 0 -120 16t-88 51t-46 83zM286 244q-5 -21 -5 -39q0 -19 6 -35q11 -30 33 -47.5t54 -25t71 -7.5t79 11t75.5 30.5t66 43t50.5 43.5l46 217l-76 -20 q-34 -7 -73 -13t-78 -6t-79.5 -8.5t-75.5 -28t-60 -49t-34 -66.5z" />
<glyph unicode="b" horiz-adv-x="1033" d="M95 0l281 1331h142l-116 -537q42 38 92 68q44 29 106 51t140 22q66 0 137 -27t125 -84q54 -56 78 -143q12 -42 11 -92q0 -53 -13 -113q-29 -130 -88 -222.5t-134 -151t-158 -85.5t-160 -27t-129.5 20.5t-86.5 48.5q-38 29 -61 69l-26 -128h-140zM286 244q32 -42 73 -73 q36 -29 86.5 -49t118.5 -20q48 0 104.5 21t109 65t95.5 115t65 173q9 43 9 81q-1 33 -7 63q-14 64 -48 108t-80.5 67.5t-95.5 23.5q-66 0 -127 -21.5t-108 -49.5q-53 -32 -102 -69z" />
<glyph unicode="c" horiz-adv-x="777" d="M149 435q22 113 77 205t130.5 157t169.5 101.5t196 36.5q52 0 92.5 -10.5t69.5 -23.5q34 -12 61 -31l-77 -115q-18 17 -44 31q-20 13 -52 23t-73 10q-67 0 -132.5 -27t-120.5 -77t-96.5 -120t-60.5 -160q-10 -50 -11 -92q0 -31 6 -58q14 -63 50.5 -103.5t90.5 -60 t120 -19.5q41 0 75.5 9t63.5 21q31 13 58 34l28 -115q-34 -17 -76 -31q-36 -12 -84.5 -21t-101.5 -9q-200 0 -303 115q-71 79 -71 205q0 58 15 125z" />
<glyph unicode="d" horiz-adv-x="1033" d="M147 253q-8 37 -8 81q0 64 17 142q25 118 85.5 205t137.5 143.5t160 83.5t150 27q76 0 128.5 -22t86.5 -51q38 -31 61 -68l115 537h141l-281 -1331h-141l25 128q-42 -42 -92 -69q-43 -29 -105.5 -49t-140.5 -20q-76 0 -148 27t-122 85.5t-69 150.5zM290 303 q12 -71 45.5 -115t81 -65t95.5 -21q67 0 128 21t108 48q53 31 102 73l92 435q-31 39 -72 69q-36 28 -87 49.5t-118 21.5q-49 0 -105 -23.5t-110 -67.5t-94.5 -108.5t-57.5 -143.5q-12 -64 -13 -115q1 -31 5 -58z" />
<glyph unicode="e" horiz-adv-x="902" d="M136 238q-5 30 -5 65q0 64 18 142q22 105 72 195t119.5 155t151.5 102.5t170 37.5q177 -1 253 -115q49 -74 49 -192q0 -63 -14 -139l-12 -67h-652q-11 -52 -11 -95q0 -25 4 -47q10 -60 42.5 -99.5t81.5 -59t112 -19.5q69 0 117.5 13t78.5 31q37 20 61 46l29 -116 q-41 -25 -87 -42q-44 -18 -100 -31t-125 -13q-98 0 -171.5 25.5t-120.5 80.5t-61 142zM310 538h504q7 43 7 81q0 75 -29 125q-44 76 -152 75q-51 0 -101 -20t-93.5 -59t-78.5 -90t-57 -112z" />
<glyph unicode="f" horiz-adv-x="598" d="M181 781l27 115h166l28 138q32 151 110.5 236.5t209.5 85.5q44 0 73 -2.5t45 -4.5q18 -3 25 -5l-23 -115q-7 2 -21 5q-12 2 -28.5 4.5t-44.5 2.5q-83 0 -132.5 -48.5t-73.5 -158.5l-27 -138h255l-25 -115h-256l-164 -781h-141l165 781h-168z" />
<glyph unicode="g" horiz-adv-x="1033" d="M69 -356l75 115q20 -25 54 -45q28 -18 72.5 -31t110.5 -13q171 0 276 78t142 254l25 126q-42 -42 -92 -69q-43 -29 -105.5 -49t-140.5 -20q-66 0 -136.5 27t-124.5 82t-79 141q-11 40 -11 89q0 53 14 116q29 130 87.5 222.5t133.5 153t158 87.5t161 27q76 0 128.5 -22 t86.5 -51q38 -31 61 -68l29 127h140l-189 -892q-54 -251 -196.5 -362.5t-392.5 -111.5q-76 0 -130.5 12.5t-89.5 30.5q-41 20 -67 46zM286 300q16 -62 49.5 -106.5t81 -68t95.5 -23.5q67 0 128 21t108 48q53 31 102 73l92 435q-31 39 -72 69q-36 28 -87 49.5t-118 21.5 q-49 0 -105 -20t-110 -65t-97 -115.5t-64 -173.5q-10 -45 -10 -83q0 -33 7 -62z" />
<glyph unicode="h" horiz-adv-x="956" d="M95 0l281 1331h142l-122 -563q36 46 83 82q41 31 100 58t135 27q92 0 152 -25.5t92 -71.5q34 -47 40 -108q2 -18 1 -38q0 -45 -10 -96l-127 -596h-140l128 604q5 24 5 46q0 61 -41 101q-56 55 -154 55q-66 0 -120 -24t-90 -52q-44 -34 -76 -78l-139 -652h-140z" />
<glyph unicode="i" horiz-adv-x="330" d="M95 0l194 921h141l-195 -921h-140zM320 1065l29 139h140l-28 -139h-141z" />
<glyph unicode="j" horiz-adv-x="330" d="M-349 -408l78 117q12 -10 27 -21q25 -18 63 -18q205 0 271 318l199 933h141l-192 -906q-47 -220 -164.5 -340t-281.5 -120q-41 0 -66.5 5t-43.5 12q-20 10 -31 20zM320 1065l29 139h140l-28 -139h-141z" />
<glyph unicode="k" horiz-adv-x="841" d="M95 0l281 1331h142l-198 -923l496 488h156l-301 -297l153 -599h-133l-122 496l-290 -286l-44 -210h-140z" />
<glyph unicode="l" horiz-adv-x="330" d="M95 0l281 1331h142l-283 -1331h-140z" />
<glyph unicode="m" horiz-adv-x="1583" d="M95 0l194 921h141l-34 -153q3 2 24.5 29t63 58t99 55.5t131.5 24.5q130 0 194 -48.5t83 -128.5q13 14 45 44t78 59.5t103.5 51.5t123.5 22q93 0 153 -25.5t92 -72t38 -107.5q2 -18 2 -36q0 -46 -11 -98l-125 -596h-141l129 604q5 24 5 46q1 61 -41 101q-56 55 -154 55 q-67 0 -120.5 -24t-89.5 -52q-44 -34 -77 -78l-139 -652h-140l128 604q5 24 5 46q0 61 -41 101q-56 55 -154 55q-66 0 -120 -24t-90 -52q-44 -34 -76 -78l-139 -652h-140z" />
<glyph unicode="n" horiz-adv-x="956" d="M95 0l194 921h141l-34 -153q36 46 83 82q41 31 100 58t135 27q92 0 152 -25.5t92 -71.5q34 -47 40 -108q2 -18 1 -38q0 -45 -10 -96l-127 -596h-140l128 604q5 24 5 46q0 61 -41 101q-56 55 -154 55q-66 0 -120 -24t-90 -52q-44 -34 -76 -78l-139 -652h-140z" />
<glyph unicode="o" horiz-adv-x="1005" d="M151 448q49 232 197 359.5t361 127.5q199 -1 291 -125q62 -84 62 -210q0 -61 -14 -131q-49 -233 -198 -356t-361 -123q-200 0 -292 120q-61 80 -61 204q0 61 15 134zM291 448q-13 -60 -13 -111q0 -87 39 -144q62 -91 198 -91q146 0 250.5 94.5t140.5 272.5q13 60 13 111 q1 84 -37 144q-60 94 -196 95q-146 0 -252 -97t-143 -274z" />
<glyph unicode="p" horiz-adv-x="1033" d="M5 -408l284 1329h141l-28 -127q42 38 92 68q44 29 106 51t140 22q76 0 148 -27t122 -87.5t70 -152.5q7 -37 7 -80q0 -65 -17 -143q-25 -120 -87 -205.5t-138.5 -140.5t-158.5 -82t-148 -27q-77 0 -129.5 20.5t-86.5 48.5q-38 29 -61 69l-115 -536h-141zM286 244 q32 -42 73 -73q36 -29 86.5 -49t118.5 -20q48 0 104.5 23.5t109 68t93 107.5t58.5 144q12 63 12 114q0 32 -5 59q-12 71 -44 116t-79.5 65t-96.5 20q-66 0 -127 -21.5t-108 -49.5q-53 -32 -102 -69z" />
<glyph unicode="q" horiz-adv-x="1033" d="M146 240q-11 40 -11 89q0 53 14 116q29 130 87.5 222.5t133.5 153t158 87.5t161 27q76 0 128.5 -22t86.5 -51q38 -31 61 -68l29 127h140l-284 -1329h-141l115 536q-42 -42 -92 -69q-43 -29 -105.5 -49t-140.5 -20q-66 0 -136.5 27t-124.5 82t-79 141zM286 300 q16 -62 49.5 -106.5t81 -68t95.5 -23.5q67 0 128 21t108 48q53 31 102 73l92 435q-31 39 -72 69q-36 28 -87 49.5t-118 21.5q-49 0 -105 -20t-110 -65t-97 -115.5t-64 -173.5q-10 -45 -10 -83q0 -33 7 -62z" />
<glyph unicode="r" horiz-adv-x="577" d="M95 0l194 921h141l-51 -242q39 71 85 127q38 49 89 89t109 40q20 0 36 -3t30 -6q12 -2 27 -5l-30 -140q-15 3 -29 5q-12 3 -28 5.5t-36 2.5q-38 0 -87 -40t-93 -85q-51 -57 -101 -127l-116 -542h-140z" />
<glyph unicode="s" horiz-adv-x="803" d="M102 39l23 115q29 -20 65 -34q31 -12 75.5 -21t103.5 -9q105 0 170 40.5t83 125.5q6 23 6 42q0 34 -18 58q-28 36 -77 57.5t-106.5 37t-105 42.5t-73.5 73q-15 26 -15 64q0 28 8 61q10 54 48.5 100.5t89.5 80.5t110 55t112 21q67 0 114 -11t76 -23q34 -13 54 -30 l-26 -116q-23 17 -57 31q-28 12 -74 22.5t-109 10.5q-64 0 -124.5 -41t-73.5 -100q-3 -14 -3 -26q0 -34 22 -53q28 -26 78 -44t107 -33t103 -45q48 -31 72 -86q13 -29 13 -69q0 -35 -11 -79q-12 -54 -41.5 -104t-80.5 -88.5t-125.5 -62t-172.5 -23.5q-58 0 -102.5 8.5 t-75.5 21.5q-36 12 -62 31z" />
<glyph unicode="t" horiz-adv-x="598" d="M181 781l27 115h166l92 435h140l-91 -435h255l-25 -115h-256l-100 -471q-10 -50 -10 -87q0 -45 15 -72q28 -49 110 -49q28 0 46.5 1.5t30.5 4.5q13 2 23 7l-23 -115q-10 -2 -31 -5q-18 -3 -47 -4t-73 -1q-130 0 -172 84q-24 47 -24 115q0 54 15 121l100 471h-168z" />
<glyph unicode="u" horiz-adv-x="956" d="M152 192q-2 19 -1 38q0 45 10 95l128 596h141l-128 -603q-5 -25 -5 -47q-1 -61 39 -101q54 -55 153 -55q66 0 119.5 24.5t92.5 52.5q44 34 78 77l137 652h142l-196 -921h-140l30 154q-36 -46 -81 -83q-41 -31 -101 -56t-135 -25q-93 0 -153 25.5t-92 70t-38 106.5z" />
<glyph unicode="v" horiz-adv-x="880" d="M212 921h167l107 -755l430 755h142l-516 -921h-178z" />
<glyph unicode="w" horiz-adv-x="1327" d="M212 921h167l31 -755l404 755h102l56 -755l379 755h154l-476 -921h-154l-51 730l-384 -730h-166z" />
<glyph unicode="x" horiz-adv-x="803" d="M18 0l404 461l-210 460h154l156 -345l306 345h152l-406 -473l212 -448h-154l-161 332l-300 -332h-153z" />
<glyph unicode="y" horiz-adv-x="941" d="M-66 -408l71 117q13 -10 29 -21q31 -18 66 -18q56 0 102.5 24.5t88.5 95.5l134 210l-203 921h154l164 -729l425 729h154l-667 -1100q-43 -69 -80 -120.5t-79 -83.5t-94.5 -47t-124.5 -15q-39 0 -64 5t-44 12q-20 10 -32 20z" />
<glyph unicode="z" horiz-adv-x="848" d="M95 0l7 41l687 765h-477l26 115h688l-10 -49l-681 -757h513l-24 -115h-729z" />
<glyph unicode="{" horiz-adv-x="535" d="M139 394l22 110q79 7 130 59t75 156l64 300q36 161 127 239t244 86l-25 -125q-158 -13 -202 -205l-66 -308q-20 -102 -74.5 -169.5t-149.5 -94.5q82 -20 106.5 -88t3.5 -175l-62 -294q-22 -110 2.5 -157.5t113.5 -47.5l-28 -125q-305 0 -236 313l67 303q23 105 -8 159 t-104 64z" />
<glyph unicode="|" horiz-adv-x="332" d="M25 -320l383 1790h142l-381 -1790h-144z" />
<glyph unicode="}" horiz-adv-x="535" d="M-74 -445l28 125q85 0 129.5 47.5t67.5 157.5l61 294q20 107 76.5 175t146.5 88q-83 26 -106.5 94t-3.5 170l66 308q20 97 -10 148.5t-105 56.5l26 125q152 -8 210.5 -86t22.5 -239l-64 -300q-22 -105 8.5 -156t104.5 -59l-23 -110q-159 -20 -205 -223l-67 -303 q-69 -313 -363 -313z" />
<glyph unicode="~" horiz-adv-x="953" d="M184 422q20 106 92.5 173t173.5 67q49 0 86.5 -21t70.5 -45.5t70 -46t85 -21.5q42 0 76 34t56 100h107q-31 -122 -100 -181t-169 -59q-51 0 -89.5 21t-73 46.5t-67.5 45.5t-74 20q-113 0 -139 -133h-105z" />
<glyph unicode="&#xa9;" horiz-adv-x="1681" d="M95 620q0 156 58.5 292t160 236.5t237 158.5t291.5 58q157 0 292.5 -58t236.5 -158.5t159 -236.5t58 -292t-58 -292t-159 -236t-236.5 -157t-292.5 -57q-156 0 -291.5 57t-237 157t-160 236t-58.5 292zM171 620q0 -139 52.5 -260.5t144 -212.5t214 -142t260.5 -51 q139 0 261.5 51t212 142t142 212.5t52.5 260.5t-52.5 261.5t-142 211.5t-212.5 142t-261 53t-260.5 -53t-214 -142t-144 -211.5t-52.5 -261.5zM430 606q0 110 33 197.5t94 149t145 94.5t187 33q59 0 122.5 -7.5t109.5 -24.5l-31 -68q-46 20 -98 27t-103 7 q-85 0 -154.5 -29.5t-116.5 -83t-73.5 -129.5t-26.5 -166q0 -187 100.5 -291.5t270.5 -104.5q66 0 108 11t93 40l31 -71q-51 -29 -113.5 -39t-132.5 -10q-203 0 -324 124t-121 341z" />
<glyph unicode="&#xad;" horiz-adv-x="687" d="M198 486l27 129h500l-29 -129h-498z" />
<glyph unicode="&#xae;" horiz-adv-x="1681" d="M95 620q0 156 58.5 292t160 236.5t237 158.5t291.5 58q157 0 292.5 -58t236.5 -158.5t159 -236.5t58 -292t-58 -292t-159 -236t-236.5 -157t-292.5 -57q-156 0 -291.5 57t-237 157t-160 236t-58.5 292zM171 620q0 -139 52.5 -260.5t144 -212.5t214 -142t260.5 -51 q139 0 261.5 51t212 142t142 212.5t52.5 260.5t-52.5 261.5t-142 211.5t-212.5 142t-261 53t-260.5 -53t-214 -142t-144 -211.5t-52.5 -261.5zM581 179v913h274q113 0 192 -61t79 -181q0 -61 -18 -105t-48.5 -73.5t-71 -46t-84.5 -24.5q46 -25 84 -66t60 -76l178 -280h-105 l-153 253q-42 67 -100.5 108t-95.5 41h-103v-402h-88zM669 650h135q46 0 88.5 13t74.5 37.5t52 61.5t20 88q0 76 -55 123.5t-152 47.5h-163v-371z" />
<glyph unicode="&#xbc;" horiz-adv-x="1768" d="M394 1326l16 72q34 12 66 31.5t56 38.5q29 20 57 42h82l-146 -691h-85l124 579q-29 -16 -76.5 -39t-93.5 -33zM402 0l1249 1541h144l-1250 -1541h-143zM1270 220l15 71l413 451h81l-94 -451h86l-15 -71h-87l-35 -169h-85l36 169h-315zM1375 291h225l69 327z" />
<glyph unicode="&#xbd;" horiz-adv-x="1801" d="M394 1326l16 72q34 12 66 31.5t56 38.5q29 20 57 42h82l-146 -691h-85l124 579q-29 -16 -76.5 -39t-93.5 -33zM402 0l1249 1541h144l-1250 -1541h-143zM1290 51l12 67q13 63 76 118t137.5 109t138.5 109.5t76 119.5q12 66 -15 94t-81 28q-44 0 -98 -13.5t-95 -47.5l18 71 q71 62 190 62q90 0 139.5 -48.5t29.5 -138.5q-18 -79 -80 -140.5t-133 -115.5t-133 -102.5t-80 -100.5h357l-17 -71h-442z" />
<glyph unicode="&#xbe;" horiz-adv-x="1766" d="M276 860l19 75q29 -29 65 -37.5t82 -8.5q67 0 122.5 30.5t67.5 94.5q16 68 -33 103t-189 35l12 67q64 2 116 15q43 12 83.5 38t54.5 74q13 66 -12.5 92t-74.5 26q-37 0 -82.5 -9t-81.5 -31l15 68q74 44 164 44q82 0 128.5 -47.5t32.5 -118.5q-29 -136 -179 -180 q66 -10 107 -55t26 -114q-20 -97 -102 -149.5t-189 -52.5q-52 0 -87.5 11.5t-64.5 29.5zM399 0l1250 1541h143l-1250 -1541h-143zM1268 220l14 71l413 451h81l-94 -451h87l-15 -71h-88l-35 -169h-85l36 169h-314zM1372 291h226l68 327z" />
<glyph unicode="&#xe01;" horiz-adv-x="1097" d="M159 0l107 512q10 49 27 86t32 64q17 32 36 54l-63 65q-23 23 -44.5 42t-18.5 22q56 76 134 140q66 51 158.5 96t214.5 45q88 0 172.5 -20.5t147 -62.5t93 -111.5t10.5 -163.5l-131 -614q-8 -36 -30 -63t-44 -47q-29 -25 -59 -44h-51l151 716q18 88 -2.5 143t-65 85.5 t-104 42.5t-115.5 12q-74 0 -133 -24.5t-102 -53.5q-49 -33 -90 -76l126 -129q-17 -17 -36 -45q-15 -25 -31 -62.5t-28 -96.5l-108 -512h-153z" />
<glyph unicode="&#xe02;" horiz-adv-x="918" d="M191 212.5q-1 68.5 17 146.5l22 102q15 67 38 114t48.5 81.5t54 61.5t51.5 50q20 20 44.5 51t29.5 51q8 39 -7 70.5t-74 31.5h-154l28 129h153q116 0 175 -58t33 -173q-12 -64 -56 -115t-90 -90q-23 -20 -62.5 -71.5t-57.5 -132.5l-23 -102q-10 -49 -13 -95t10 -82 t46.5 -58t94.5 -22q56 0 99.5 24.5t73 61.5t48 82t25.5 89l159 742h154l-159 -742q-15 -77 -47.5 -146t-82.5 -121.5t-124 -83t-174 -30.5t-160 30.5t-89.5 83t-30.5 121z" />
<glyph unicode="&#xe03;" horiz-adv-x="918" d="M191 212.5q-1 68.5 17 146.5l27 127q17 76 68 149.5t119 132.5q23 20 58 45t48 83q7 39 -13.5 57.5t-48.5 18.5q-15 0 -34.5 -12t-40.5 -25q-22 -17 -42 -39q-13 20 -27 39q-12 15 -27.5 27.5t-33.5 12.5l28 126q20 0 38 -13t32 -26q15 -17 30 -38q20 20 49 38 q20 13 50 26t57 13q76 0 116 -53.5t20 -151.5q-17 -76 -58.5 -121t-87.5 -84q-13 -10 -33.5 -28t-42 -45t-42.5 -60t-28 -72l-28 -127q-10 -49 -13 -95t10 -82t46.5 -58t94.5 -22q56 0 99.5 26t73 64t49 84t27.5 90l156 735h154l-154 -725q-18 -85 -50.5 -157.5t-83.5 -126 t-125 -84t-174 -30.5t-160 30.5t-89.5 83t-30.5 121z" />
<glyph unicode="&#xe04;" horiz-adv-x="1110" d="M95 0l161 768q18 87 71.5 154t129 112.5t162.5 68.5t175 23q87 0 163.5 -23t131.5 -68.5t80.5 -112.5t8.5 -154l-162 -768h-154l162 768q12 56 -5.5 99.5t-55 73t-90 44t-108.5 14.5q-59 0 -116.5 -14.5t-106 -44t-84.5 -73t-48 -99.5l-65 -307q46 44 97 77 q44 28 100.5 52.5t117.5 24.5l-32 -154q-62 0 -117 -20.5t-99 -44.5q-48 -28 -94 -64l-69 -332h-154z" />
<glyph unicode="&#xe05;" horiz-adv-x="1110" d="M95 0l161 768q15 66 50.5 131.5t88.5 115.5t116 80.5t129 30.5q29 0 51.5 -20.5t40.5 -43.5q18 -28 33 -63q31 36 63 63q28 23 59.5 43.5t60.5 20.5q66 0 116 -30.5t80.5 -80.5t39 -115t-5.5 -132l-162 -768h-154l162 768q7 38 6 79.5t-12.5 74.5t-35.5 55t-63 22 q-20 0 -52 -24.5t-61 -53.5q-36 -33 -71 -76q-23 44 -44 76q-20 29 -39.5 53.5t-40.5 24.5q-39 0 -71 -22t-60 -55t-45 -74.5t-25 -79.5l-65 -307q46 44 97 77q44 28 100.5 52.5t117.5 24.5l-32 -154q-62 0 -117 -20.5t-99 -44.5q-48 -28 -94 -64l-69 -332h-154z" />
<glyph unicode="&#xe06;" horiz-adv-x="1123" d="M132 0l106 501q17 90 59.5 137.5t88.5 82t86 72t56 103.5q7 39 -13.5 57.5t-48.5 18.5q-15 0 -34.5 -12t-40.5 -25q-22 -17 -42 -39q-13 20 -27 39q-12 15 -26.5 27.5t-34.5 12.5l28 126q17 0 36.5 -13t33.5 -26q15 -17 30 -38q20 20 49 38q20 13 50 26t57 13 q76 0 116 -53.5t20 -151.5q-17 -87 -59.5 -137t-90 -88.5t-87 -78.5t-55.5 -106l-44 -205q29 -43 70 -76q36 -29 86.5 -53t118.5 -24q154 0 234.5 76.5t113.5 230.5l141 666h153l-158 -742q-15 -67 -52.5 -135t-95 -123t-132 -89t-162.5 -34q-97 0 -162 26.5t-106 59.5 q-46 38 -76 90l-32 -154h-154z" />
<glyph unicode="&#xe07;" horiz-adv-x="931" d="M212 742h154l23 -614q69 0 140.5 30t133.5 86t107.5 132t67.5 174q20 95 5 173t-56.5 134.5t-104 85.5t-140.5 29l29 129q115 0 204.5 -40t147 -111.5t75.5 -172.5t-7 -227q-25 -125 -92 -226.5t-154 -173t-186.5 -111t-194.5 -39.5h-129z" />
<glyph unicode="&#xe08;" horiz-adv-x="1058" d="M246 896q39 64 105 115q54 44 141 79.5t212 35.5t215 -45t143.5 -120t69.5 -175t-8 -210q-25 -120 -80 -225t-133.5 -183t-178.5 -123t-214 -45h-129l-15 410q-5 20 -15 22.5t-31 2.5h-52l26 129h103q59 0 82 -19.5t31 -58.5l24 -358q86 0 157 40t125 102t91 143t55 163 q22 110 5 189.5t-61 132t-108 77t-130 24.5q-97 0 -172.5 -36.5t-127.5 -78.5q-61 -52 -107 -116z" />
<glyph unicode="&#xe09;" horiz-adv-x="1097" d="M159 486l29 129h101q76 0 103.5 -51.5t9.5 -133.5l-16 -71q-12 -59 -14.5 -101.5t12.5 -72t53.5 -43.5t104.5 -14q67 0 133.5 24t118.5 53q61 34 115 76l82 384q34 154 -24 244t-215 90q-76 0 -146.5 -24.5t-124.5 -53.5q-63 -33 -117 -76l-26 127q56 44 126 78 q58 29 139 52.5t178 23.5q235 0 322 -121t47 -314l-146 -691h-154l31 154q-59 -52 -126 -90q-59 -34 -134.5 -60t-161.5 -26q-154 0 -211.5 105t-15.5 276l14 51q5 20 6.5 48t-22.5 28h-71z" />
<glyph unicode="&#xe0a;" horiz-adv-x="982" d="M191 201q-1 65 14 139l25 121q15 67 37 114t48.5 81.5t55 61.5t51.5 50q20 20 44.5 51t29.5 51q8 39 -7 70.5t-74 31.5h-154l28 129h153q116 0 175 -58t33 -173q-12 -64 -56 -115t-90 -90q-23 -20 -62.5 -71.5t-57.5 -132.5l-28 -131q-10 -44 -12 -84.5t15 -72.5 t57 -51.5t114 -19.5q61 0 112.5 31t89.5 76t63.5 95t34.5 90q15 66 13.5 128t-20.5 108t-57 73t-95 27l28 128q56 0 112.5 38.5t103.5 102t83 149.5t57 183h154q-37 -163 -94 -267t-116 -163t-105 -82t-56 -25q4 -3 36 -21t65 -63t51.5 -121.5t-8.5 -194.5 q-14 -74 -48.5 -148.5t-92 -134.5t-140.5 -96.5t-200 -36.5q-115 0 -181 29t-97 79t-32 115z" />
<glyph unicode="&#xe0b;" horiz-adv-x="982" d="M191 201q-1 65 14 139l30 146q15 76 67 149.5t120 132.5q23 20 58 45t48 83q7 39 -13.5 57.5t-48.5 18.5q-15 0 -34.5 -12t-40.5 -25q-22 -17 -42 -39q-13 20 -27 39q-12 15 -27.5 27.5t-33.5 12.5l28 126q20 0 38 -13t32 -26q15 -17 30 -38q20 20 49 38q20 13 50 26 t57 13q76 0 116 -53.5t20 -151.5q-17 -76 -58.5 -121t-87.5 -84q-13 -10 -33.5 -28t-42 -45t-42.5 -60t-28 -72l-33 -156q-10 -44 -12 -84.5t15 -72.5t57 -51.5t114 -19.5q61 0 112.5 31t89.5 76t63.5 95t34.5 90q15 66 13.5 128t-20.5 108t-57 73t-95 27l28 128 q56 0 112.5 38.5t103.5 102t83 149.5t57 183h154q-37 -163 -94 -267t-116 -163t-105 -82t-56 -25q4 -3 36 -21t65 -63t51.5 -121.5t-8.5 -194.5q-14 -74 -48.5 -148.5t-92 -134.5t-141.5 -96.5t-199 -36.5t-181 29t-97 79t-32 115z" />
<glyph unicode="&#xe0c;" horiz-adv-x="1763" d="M195 179l71 333q10 49 27 86t32 64q17 32 36 54l-63 65q-23 23 -44.5 42t-18.5 22q56 76 134 140q66 51 158.5 96t214.5 45q88 0 172.5 -20.5t147 -62.5t93 -111.5t10.5 -163.5l-103 -487q20 -43 57 -76q29 -29 77 -53t115 -24q77 0 127 19t81.5 58t52 96.5t36.5 133.5 l141 666h153l-158 -742q-15 -67 -45 -135t-79 -123t-114 -89t-152 -34q-98 0 -159 26.5t-96 59.5q-44 38 -65 90l-30 -154h-154l151 716q18 88 -2.5 143t-65 85.5t-104 42.5t-115.5 12q-74 0 -133 -24.5t-102 -53.5q-49 -33 -90 -76l126 -129q-17 -17 -36 -45 q-15 -25 -31 -62.5t-28 -96.5l-71 -333q-5 -20 -6 -34.5t21 -16.5h76l-25 -128h-103q-76 0 -107 41t-10 138z" />
<glyph unicode="&#xe0d;" horiz-adv-x="1763" d="M195 179l71 333q10 49 27 86t32 64q17 32 36 54l-63 65q-23 23 -44.5 42t-18.5 22q56 76 134 140q66 51 158.5 96t214.5 45q88 0 172.5 -20.5t147 -62.5t93 -111.5t10.5 -163.5l-85 -402q-22 -115 13.5 -176.5t157.5 -61.5q69 0 128.5 24t102.5 53q49 34 93 76l174 820 h153l-212 -996q-20 -97 -79.5 -176.5t-136 -137t-161 -89.5t-158.5 -32t-132 19.5t-94 44.5q-47 28 -74 64l80 128q20 -36 56 -65q29 -25 76 -44t113 -19q122 0 226 91t138 252l2 13q-46 -52 -105 -90q-51 -34 -117 -60t-149 -26q-97 0 -153.5 29t-83.5 83t-27 126.5 t18 159.5l72 340q18 88 -2.5 143t-65 85.5t-104 42.5t-115.5 12q-74 0 -133 -24.5t-102 -53.5q-49 -33 -90 -76l126 -129q-17 -17 -36 -45q-15 -25 -31 -62.5t-28 -96.5l-71 -333q-5 -20 -6 -34.5t21 -16.5h76l-25 -128h-103q-76 0 -107 41t-10 138z" />
<glyph unicode="&#xe0e;" horiz-adv-x="1097" d="M-5 -430l20 128q87 0 160.5 19t124.5 45q61 29 110 64q31 -36 69 -64q33 -24 74 -44t89 -20q83 0 120 37t54 116l185 865q18 88 -2.5 143t-65 85.5t-104 42.5t-115.5 12q-74 0 -133 -24.5t-102 -53.5q-49 -33 -90 -76l126 -129q-17 -17 -36 -45q-15 -25 -31 -62.5 t-28 -96.5l-71 -333q-20 -98 -67 -138.5t-123 -40.5h-103l26 128h77q20 2 25.5 16.5t10.5 34.5l71 333q10 49 27 86t32 64q17 32 36 54l-63 65q-23 23 -44.5 42t-18.5 22q56 76 134 140q66 51 158.5 96t214.5 45q88 0 172.5 -20.5t147 -62.5t93 -111.5t10.5 -163.5 l-200 -942q-7 -31 -23 -74t-51.5 -83t-95.5 -69.5t-155 -29.5q-59 0 -107.5 19.5t-82.5 44.5q-41 28 -69 64q-46 -37 -107 -64q-52 -25 -123.5 -44.5t-155.5 -19.5z" />
<glyph unicode="&#xe0f;" horiz-adv-x="1097" d="M-5 -428l20 126q46 0 100 19t97 45q52 29 103 64l69 -128l117 128q0 -5 10.5 -25.5t30 -43.5t48 -41t65.5 -18q79 0 114 45t42 86l190 887q18 88 -2.5 143t-65 85.5t-104 42.5t-115.5 12q-74 0 -133 -24.5t-102 -53.5q-49 -33 -90 -76l126 -129q-17 -17 -36 -45 q-15 -25 -31 -62.5t-28 -96.5l-71 -333q-20 -98 -67 -138.5t-123 -40.5h-103l26 128h77q20 2 25.5 16.5t10.5 34.5l71 333q10 49 27 86t32 64q17 32 36 54l-63 65q-23 23 -44.5 42t-18.5 22q56 76 134 140q66 51 158.5 96t214.5 45q88 0 172.5 -20.5t147 -62.5t93 -111.5 t10.5 -163.5l-195 -917q-5 -29 -18.5 -75.5t-48.5 -93t-94 -79.5t-154 -33q-41 0 -73 19.5t-57 44.5q-29 28 -51 64l-115 -128l-73 128q-48 -37 -98 -64q-44 -23 -96.5 -42.5t-96.5 -19.5z" />
<glyph unicode="&#xe10;" horiz-adv-x="1058" d="M-29 -535l27 127q66 0 117 19.5t87 46.5q44 28 74 63l62 -129l118 129q0 -2 9 -22.5t28 -44t47.5 -43t65.5 -19.5q39 0 62 13.5t37 29.5t19.5 33t7.5 27l28 129h154l-28 -129q-2 -10 -14 -47t-41.5 -78t-83 -73t-141.5 -32q-58 0 -91.5 19.5t-53.5 44.5q-22 29 -33 63 l-116 -127l-63 127q-34 -36 -75 -63q-36 -25 -85.5 -44.5t-117.5 -19.5zM246 896q39 64 105 115q54 44 141 79.5t212 35.5q110 0 197 -36q29 8 63.5 22t65 35t55 46.5t31.5 61.5h154q-12 -51 -40.5 -90t-64.5 -67t-76.5 -46t-79.5 -28q85 -76 114 -194.5t1 -253.5 q-25 -120 -80 -225t-133.5 -183t-178.5 -123t-214 -45h-129l-15 410q-5 20 -15 22.5t-31 2.5h-52l26 129h103q59 0 82 -19.5t31 -58.5l24 -358q86 0 157 40t125 102t91 143t55 163q22 110 5 189.5t-61 132t-108 77t-130 24.5q-97 0 -172.5 -36.5t-127.5 -78.5 q-61 -52 -107 -116z" />
<glyph unicode="&#xe11;" horiz-adv-x="1123" d="M132 0l58 271q29 139 83.5 244t109.5 183t98.5 132t50.5 91q8 39 -12.5 58.5t-48.5 19.5q-15 0 -34 -13.5t-41 -25.5q-22 -18 -42 -39q-10 20 -24 39q-12 15 -26.5 28t-34.5 13l26 125q17 0 36.5 -12.5t32.5 -25.5q15 -18 30 -38q20 20 48 38q20 12 50 25t58 13 q29 0 55.5 -10t46 -29t28.5 -47.5t1 -67.5q37 44 81 78q39 29 89 52.5t109 23.5q66 0 116 -34t78 -89t37.5 -124.5t-6.5 -136.5l-156 -742h-154l141 665q34 154 -2 230.5t-113 76.5q-66 0 -130.5 -36.5t-122 -95.5t-108.5 -132t-89.5 -143.5t-62.5 -133t-32 -99.5 q0 -10 -2 -17q-5 -20 -5 -24l-63 -291h-154z" />
<glyph unicode="&#xe12;" horiz-adv-x="1763" d="M152.5 330q-6.5 108 21.5 234q31 151 81 258t110 175t128 98.5t135 30.5q20 0 40.5 -20.5t40.5 -43.5q22 -28 43 -63q39 36 72 63q28 23 59 43.5t52 20.5q66 0 117.5 -28t82 -74t40.5 -107.5t-5 -127.5l-108 -508q20 -43 57 -76q29 -29 77 -53t115 -24q77 0 127 19 t81.5 58t52 96.5t36.5 133.5l141 666h153l-158 -742q-15 -67 -45 -135t-79 -123t-114 -89t-152 -34q-98 0 -159 26.5t-96 59.5q-44 38 -65 90l-30 -154h-154l166 789q18 82 -10 146t-100 64q-20 0 -52.5 -24.5t-59.5 -53.5q-36 -33 -72 -76q-22 44 -43 76q-20 29 -39.5 53.5 t-40.5 24.5q-29 0 -64.5 -22t-72.5 -72t-72.5 -133t-61.5 -208q-20 -98 -23 -181t17 -146t66.5 -99t123.5 -36q49 0 79 13q15 5 29 13l-26 -128q-13 -8 -28 -12q-12 -6 -33 -8t-49 -2q-105 0 -177 44t-110 122t-44.5 186z" />
<glyph unicode="&#xe13;" horiz-adv-x="1763" d="M195 179l71 333q10 49 27 86t32 64q17 32 36 54l-63 65q-23 23 -44.5 42t-18.5 22q56 76 134 140q66 51 158.5 96t214.5 45q88 0 172.5 -20.5t147 -62.5t93 -111.5t10.5 -163.5l-69 -333q-15 -76 -20.5 -133.5t10 -96.5t56 -58t118.5 -19q66 0 123.5 24t101.5 53 q49 34 90 76l174 820h153l-233 -1101h-154l31 154q-44 -52 -102 -90q-52 -34 -125 -60t-169 -26q-88 0 -139 34t-75.5 89t-25.5 122.5t14 135.5l77 357q18 88 -2.5 143t-65 85.5t-104 42.5t-115.5 12q-74 0 -133 -24.5t-102 -53.5q-49 -33 -90 -76l126 -129q-17 -17 -36 -45 q-15 -25 -31 -62.5t-28 -96.5l-71 -333q-5 -20 -6 -34.5t21 -16.5h76l-25 -128h-103q-76 0 -107 41t-10 138z" />
<glyph unicode="&#xe14;" horiz-adv-x="1097" d="M155 320q-9 108 19 244q34 154 100 260.5t150 173.5t177 97.5t180 30.5q88 0 165.5 -20.5t132.5 -62.5t80.5 -111.5t5.5 -163.5l-161 -768h-154l161 768q13 56 -4.5 99.5t-55 73t-90 44t-109.5 14.5q-58 0 -122 -25.5t-123 -79.5t-107.5 -136t-71.5 -194 q-20 -98 -23 -181t17 -146t66.5 -99t123.5 -36q52 0 82 13q15 5 26 13l-26 -128q-10 -8 -25 -12q-13 -6 -35 -8t-50 -2q-98 0 -168 40.5t-111 117t-50 184.5z" />
<glyph unicode="&#xe15;" horiz-adv-x="1097" d="M152.5 330q-6.5 108 21.5 234q31 151 81 258t110 175t128 98.5t135 30.5q28 0 50.5 -20.5t40.5 -43.5q17 -28 33 -63q32 36 62 63q28 23 60 43.5t61 20.5q56 0 105.5 -28t83.5 -74t47.5 -107.5t-1.5 -127.5l-166 -789h-154l166 789q18 82 -16.5 146t-93.5 64 q-20 0 -52.5 -24.5t-59.5 -53.5q-36 -33 -72 -76q-22 44 -43 76q-20 29 -39.5 53.5t-40.5 24.5q-29 0 -64.5 -22t-72.5 -72t-72.5 -133t-61.5 -208q-20 -98 -23 -181t17 -146t66.5 -99t123.5 -36q49 0 79 13q15 5 29 13l-26 -128q-13 -8 -28 -12q-12 -6 -33 -8t-49 -2 q-105 0 -177 44t-110 122t-44.5 186z" />
<glyph unicode="&#xe16;" horiz-adv-x="1097" d="M195 179l71 333q10 49 27 86t32 64q17 32 36 54l-63 65q-23 23 -44.5 42t-18.5 22q56 76 134 140q66 51 158.5 96t214.5 45q88 0 172.5 -20.5t147 -62.5t93 -111.5t10.5 -163.5l-131 -614q-8 -36 -30 -63t-44 -47q-29 -25 -59 -44h-51l151 716q18 88 -2.5 143t-65 85.5 t-104 42.5t-115.5 12q-74 0 -133 -24.5t-102 -53.5q-49 -33 -90 -76l126 -129q-17 -17 -36 -45q-15 -25 -31 -62.5t-28 -96.5l-71 -333q-5 -20 -6 -34.5t21 -16.5h76l-25 -128h-103q-76 0 -107 41t-10 138z" />
<glyph unicode="&#xe17;" horiz-adv-x="1085" d="M95 0l233 1101h153l-33 -153q48 48 116 88q56 34 132 62t174 28q88 0 146.5 -34t93 -89t43.5 -124.5t-5 -136.5l-157 -742h-153l140 665q33 154 -15.5 230.5t-202.5 76.5q-66 0 -127.5 -24t-107.5 -52q-54 -34 -103 -77l-173 -819h-154z" />
<glyph unicode="&#xe18;" horiz-adv-x="1085" d="M190 332q10 44 16 77t12 57q4 29 10 46h153q-2 -20 -10 -48q-5 -23 -12.5 -56.5t-16.5 -75.5q-17 -84 3.5 -130t60 -69t87 -27t83.5 -4q130 0 220 65t108 153q22 112 -21 165t-121 74.5t-173 28t-172 27t-121.5 70.5t-21.5 160q17 87 76.5 142t135 87t159 43.5 t149.5 11.5q76 0 146.5 -15t124.5 -36q64 -23 117 -52l-27 -127q-54 29 -119 51q-54 20 -122.5 35.5t-145.5 15.5q-39 0 -92.5 -2.5t-104.5 -18t-91 -47.5t-52 -88q-10 -54 15.5 -80.5t75.5 -40t115 -18.5t133 -13.5t130.5 -28t106.5 -59t60 -108.5t-6 -177 q-13 -61 -49.5 -122.5t-98.5 -110t-151.5 -79t-210.5 -30.5q-44 0 -115.5 6t-136 39t-100 106t-6.5 203z" />
<glyph unicode="&#xe19;" horiz-adv-x="1085" d="M162.5 223.5q-8.5 67.5 6.5 135.5l159 742h153l-141 -666q-34 -154 14 -230.5t201 -76.5q66 0 128 24t111 53q54 34 102 76l174 820h154l-233 -1101h-153l30 154q-49 -52 -116 -90q-56 -34 -133 -60t-174 -26q-87 0 -145.5 34t-93.5 89t-43.5 122.5z" />
<glyph unicode="&#xe1a;" horiz-adv-x="1058" d="M164 230.5q-5 71.5 10 145.5l154 725h153l-156 -735q-10 -44 -7.5 -90t20.5 -84t55 -64t98 -26h108q61 0 110 26t86 64t60 84t34 90l156 735h153l-153 -725q-15 -74 -52.5 -145.5t-94 -128t-130.5 -90.5t-162 -34h-178q-88 0 -144 34t-85.5 90.5t-34.5 128z" />
<glyph unicode="&#xe1b;" horiz-adv-x="1058" d="M164 230.5q-5 71.5 10 145.5l154 725h153l-156 -735q-10 -44 -7.5 -90t20.5 -84t55 -64t98 -26h108q61 0 110 26t86 64t60 84t34 90l227 1068h154l-225 -1058q-15 -74 -52.5 -145.5t-94 -128t-130.5 -90.5t-162 -34h-178q-88 0 -144 34t-85.5 90.5t-34.5 128z" />
<glyph unicode="&#xe1c;" horiz-adv-x="1280" d="M237 534q1 150 34 308q8 42 24.5 86t42.5 83t64 64.5t92 25.5h107l-27 -129h-73q-20 0 -34.5 -15t-24.5 -36.5t-16 -43.5t-8 -37q-26 -115 -27.5 -218.5t3.5 -186.5q7 -95 26 -179l330 538h78l103 -538q51 66 105 184q46 98 105.5 259t123.5 402h154 q-74 -263 -155.5 -468t-149.5 -347q-83 -164 -159 -286h-103l-114 550l-347 -550h-102q-29 122 -40 264q-13 120 -12 270z" />
<glyph unicode="&#xe1d;" horiz-adv-x="1280" d="M237 534q1 150 34 308q8 42 24.5 86t42.5 83t64 64.5t92 25.5h107l-27 -129h-73q-20 0 -34.5 -15t-24.5 -36.5t-16 -43.5t-8 -37q-26 -115 -27.5 -218.5t3.5 -186.5q7 -95 26 -179l330 538h78l103 -538q67 113 137 284q58 146 131 372.5t142 546.5h154 q-76 -359 -170 -630t-175 -455q-98 -215 -195 -374h-103l-114 550l-347 -550h-102q-29 122 -40 264q-13 120 -12 270z" />
<glyph unicode="&#xe1e;" horiz-adv-x="1336" d="M251 1101h145l56 -786l403 786h93l66 -786l391 786h146l-545 -1101h-95l-69 830l-414 -830h-96z" />
<glyph unicode="&#xe1f;" horiz-adv-x="1437" d="M251 1101h145l56 -786l403 786h93l66 -786l571 1144h145l-724 -1459h-95l-69 830l-414 -830h-96z" />
<glyph unicode="&#xe20;" horiz-adv-x="1097" d="M56 0l26 128h77q20 2 25.5 16.5t10.5 34.5l71 333q10 49 27 86t32 64q17 32 36 54l-63 65q-23 23 -44.5 42t-18.5 22q56 76 134 140q66 51 158.5 96t214.5 45q88 0 172.5 -20.5t147 -62.5t93 -111.5t10.5 -163.5l-131 -614q-8 -36 -30 -63t-44 -47q-29 -25 -59 -44h-51 l151 716q18 88 -2.5 143t-65 85.5t-104 42.5t-115.5 12q-74 0 -133 -24.5t-102 -53.5q-49 -33 -90 -76l126 -129q-17 -17 -36 -45q-15 -25 -31 -62.5t-28 -96.5l-71 -333q-20 -98 -67 -138.5t-123 -40.5h-103z" />
<glyph unicode="&#xe21;" horiz-adv-x="1085" d="M95 0l233 1101h153l-173 -820q28 -43 68 -76q36 -29 87.5 -53t117.5 -24q154 0 234.5 76.5t113.5 230.5l141 666h154l-159 -742q-15 -67 -52.5 -135t-95 -123t-132 -89t-160.5 -34q-97 0 -163 26.5t-106 59.5q-46 38 -77 90l-30 -154h-154z" />
<glyph unicode="&#xe22;" horiz-adv-x="1021" d="M115 183q-7 63 7 137q20 90 72 150t108 96q67 42 143 62q-59 12 -105 43q-39 29 -65 76t-9 123q15 71 51.5 120t80.5 80t92 43.5t86 12.5q49 0 82 -3.5t53 -8.5q25 -8 39 -13l-28 -129q-14 6 -36 13q-20 5 -47.5 9.5t-64.5 4.5q-59 0 -101.5 -39t-52.5 -90 q-18 -82 51 -130.5t191 -48.5l-27 -127q-83 0 -145 -26t-107 -63t-72 -79t-35 -76q-10 -46 -5 -87t31 -69t74.5 -45t131.5 -17q78 0 138 26t102.5 64t67 84t34.5 90l156 735h154l-154 -725q-15 -74 -53.5 -145.5t-103.5 -128t-157.5 -90.5t-212.5 -34t-197 25.5t-118.5 71 t-48.5 108.5z" />
<glyph unicode="&#xe23;" horiz-adv-x="905" d="M110 76l29 129q39 -29 86 -51q41 -20 98.5 -36t124.5 -16q127 0 191.5 65t85.5 153q15 74 -18 111.5t-92.5 59t-127 39.5t-123.5 51.5t-84.5 93.5t-5.5 170q15 66 56 118.5t98.5 88.5t127 55t135.5 19q77 0 130.5 -15t89.5 -36q41 -23 67 -51l-28 -128q-25 29 -66 52 q-36 20 -90 35.5t-132 15.5q-76 0 -146.5 -39t-87.5 -115q-16 -71 18.5 -107.5t92 -59.5t125.5 -41.5t123 -55t84.5 -96.5t6.5 -165q-13 -61 -41 -122.5t-80.5 -110t-134.5 -79t-202 -30.5q-76 0 -135.5 13.5t-96.5 33.5q-47 23 -78 51z" />
<glyph unicode="&#xe24;" horiz-adv-x="1097" d="M195 179l71 333q10 49 27 86t32 64q17 32 36 54l-63 65q-23 23 -44.5 42t-18.5 22q56 76 134 140q66 51 158.5 96t214.5 45q88 0 172.5 -20.5t147 -62.5t93 -111.5t10.5 -163.5l-244 -1149q-7 -37 -29 -63.5t-44 -46.5q-29 -25 -62 -44h-51l266 1251q18 88 -2.5 143 t-65 85.5t-104 42.5t-115.5 12q-74 0 -133 -24.5t-102 -53.5q-49 -33 -90 -76l126 -129q-17 -17 -36 -45q-15 -25 -31 -62.5t-28 -96.5l-71 -333q-5 -20 -6 -34.5t21 -16.5h76l-25 -128h-103q-76 0 -107 41t-10 138z" />
<glyph unicode="&#xe25;" horiz-adv-x="995" d="M115 281q20 95 73 159t124.5 102.5t152 55.5t157.5 17q88 0 140 7.5t80 17.5q34 10 47 25l12 67q10 52 5 100.5t-28 85.5t-65.5 59t-111.5 22q-87 0 -161 -36.5t-128 -78.5q-66 -52 -117 -116l-24 128q47 64 113 115q58 44 144.5 79.5t201.5 35.5q212 0 286 -111t32 -324 l-147 -691h-153l112 538q-20 -16 -56 -26q-32 -10 -82.5 -18t-127.5 -8q-39 0 -90.5 -10t-98 -34t-85.5 -64t-51 -97q-10 -49 0 -82t34.5 -55t58.5 -32t73 -10q56 0 95 13q20 5 39 13l-27 -128q-17 -8 -38 -12q-20 -6 -44.5 -8t-51.5 -2q-174 0 -250 75t-43 228z" />
<glyph unicode="&#xe26;" horiz-adv-x="1097" d="M56 0l26 128h77q20 2 25.5 16.5t10.5 34.5l71 333q10 49 27 86t32 64q17 32 36 54l-63 65q-23 23 -44.5 42t-18.5 22q56 76 134 140q66 51 158.5 96t214.5 45q88 0 172.5 -20.5t147 -62.5t93 -111.5t10.5 -163.5l-244 -1149q-7 -37 -29 -63.5t-44 -46.5q-29 -25 -62 -44 h-51l266 1251q18 88 -2.5 143t-65 85.5t-104 42.5t-115.5 12q-74 0 -133 -24.5t-102 -53.5q-49 -33 -90 -76l126 -129q-17 -17 -36 -45q-15 -25 -31 -62.5t-28 -96.5l-71 -333q-20 -98 -67 -138.5t-123 -40.5h-103z" />
<glyph unicode="&#xe27;" horiz-adv-x="982" d="M76 102l80 128q23 -36 62 -64q33 -25 87 -44.5t130 -19.5t149.5 32t134 91t105 142t65.5 183q43 202 -37 312t-232 110q-76 0 -137 -15t-104 -36q-49 -22 -88 -51l-25 129q34 36 88 63q46 23 118.5 43.5t179.5 20.5q106 0 191.5 -38t139 -111t71.5 -180.5t-12 -246.5 q-31 -139 -93.5 -245.5t-148.5 -180t-187 -110t-205 -36.5q-108 0 -172.5 18.5t-99.5 42.5q-44 29 -60 63z" />
<glyph unicode="&#xe28;" horiz-adv-x="1110" d="M95 0l161 768q18 87 71.5 154t129 112.5t162.5 68.5t175 23q85 0 158 -22q54 20 109 55.5t68 95.5h153q-20 -85 -79 -135t-125 -78q61 -43 90.5 -113.5t9.5 -160.5l-162 -768h-154l162 768q12 56 -5.5 99.5t-55 73t-90 44t-108.5 14.5q-59 0 -116.5 -14.5t-106 -44 t-84.5 -73t-48 -99.5l-65 -307q46 44 97 77q44 28 100.5 52.5t117.5 24.5l-32 -154q-62 0 -117 -20.5t-99 -44.5q-48 -28 -94 -64l-69 -332h-154z" />
<glyph unicode="&#xe29;" horiz-adv-x="1058" d="M164 230.5q-5 71.5 10 145.5l154 725h153l-156 -735q-10 -44 -7.5 -90t20.5 -84t55 -64t98 -26h108q61 0 110 26t86 64t61.5 84t32.5 90l35 172h-230l28 127h230l93 434h153l-92 -434h76l-27 -127h-77l-33 -162q-15 -74 -52.5 -145.5t-94 -128t-130.5 -90.5t-162 -34 h-178q-88 0 -144 34t-85.5 90.5t-34.5 128z" />
<glyph unicode="&#xe2a;" horiz-adv-x="995" d="M115 281q20 95 73 159t124.5 102.5t152 55.5t157.5 17q88 0 140 7.5t80 17.5q34 10 47 25l12 67q10 52 5 100.5t-28 85.5t-65.5 59t-111.5 22q-87 0 -161 -36.5t-128 -78.5q-66 -52 -117 -116l-24 128q47 64 113 115q58 44 144.5 79.5t201.5 35.5q71 0 130 -15 q51 20 96 56.5t58 87.5h154q-18 -76 -70.5 -125.5t-115.5 -77.5q118 -107 66 -361l-147 -691h-153l112 538q-20 -16 -56 -26q-32 -10 -82.5 -18t-127.5 -8q-39 0 -90.5 -10t-98 -34t-85.5 -64t-51 -97q-10 -49 0 -82t34.5 -55t58.5 -32t73 -10q56 0 95 13q20 5 39 13 l-27 -128q-17 -8 -38 -12q-20 -6 -44.5 -8t-51.5 -2q-174 0 -250 75t-43 228z" />
<glyph unicode="&#xe2b;" horiz-adv-x="1033" d="M95 0l233 1101h153l-102 -486l589 486h202l-448 -369q49 -10 108 -34t105.5 -71.5t68.5 -126t0 -192.5l-64 -308h-154l56 271q23 108 1 179.5t-61.5 115t-85.5 63t-71 23.5l-290 -242l-86 -410h-154z" />
<glyph unicode="&#xe2c;" horiz-adv-x="1437" d="M251 1101h145l56 -786l403 786h93l66 -786l307 614q8 15 13 32t10 30q10 49 -7.5 84.5t-44.5 58.5q-28 28 -71 44q93 22 167 63q63 34 120.5 87.5t76.5 130.5h145q-20 -98 -77.5 -153t-118.5 -82q-72 -34 -159 -46q39 -20 66 -49q23 -25 40 -61.5t7 -85.5 q-3 -12 -8 -24.5t-10 -26.5l-464 -931h-95l-69 830l-414 -830h-96z" />
<glyph unicode="&#xe2d;" horiz-adv-x="1085" d="M135.5 219.5q-20.5 78.5 3.5 176.5q17 85 51.5 126.5t111.5 41.5h230l-24 -129h-168q-39 0 -49 -39q-10 -54 -5 -106t34 -94t84 -68t146 -26q184 0 291 123.5t150 324.5q20 98 15 179.5t-36.5 141.5t-90 94t-139.5 34q-102 0 -173 -36.5t-115 -78.5q-51 -52 -83 -116 h-151q41 100 114 180q64 66 169 122t267 56q138 0 222.5 -53.5t126 -137t45 -185.5t-17.5 -200q-32 -149 -95.5 -257.5t-146.5 -178.5t-181.5 -103t-198.5 -33t-181.5 28t-133 81.5t-72 132z" />
<glyph unicode="&#xe2e;" horiz-adv-x="1085" d="M135.5 219.5q-20.5 78.5 3.5 176.5q17 85 51.5 126.5t111.5 41.5h230l-24 -129h-168q-39 0 -49 -39q-10 -54 -5 -106t34 -94t84 -68t146 -26q184 0 291 123.5t150 324.5q20 98 15 179.5t-36.5 141.5t-90 94t-139.5 34q-102 0 -173 -36.5t-115 -78.5q-51 -52 -83 -116 h-151q41 100 114 180q64 66 169 122t267 56q76 0 143 -20q25 8 56.5 20.5t58 30.5t46.5 42.5t29 55.5h143q-20 -90 -84 -138.5t-131 -71.5q51 -41 80.5 -98.5t42.5 -123t10.5 -135.5t-18.5 -138q-32 -149 -95.5 -257.5t-146.5 -178.5t-181.5 -103t-198.5 -33t-181.5 28 t-133 81.5t-72 132z" />
<glyph unicode="&#xe2f;" horiz-adv-x="995" d="M289 1101h153q3 -107 39.5 -169t143.5 -62t205.5 59.5t149.5 171.5h154l-154 -725q-20 -92 -43 -161t-61 -117.5t-93 -73t-135 -24.5l26 128q25 0 45.5 5.5t36.5 30t33 75t39 145.5l114 537q-41 -51 -92 -89q-44 -33 -107.5 -61.5t-146.5 -28.5q-161 0 -239 94.5 t-68 264.5z" />
<glyph unicode="&#xe30;" horiz-adv-x="650" d="M169 359l19 76h142l-20 -95q-8 -34 10 -47.5t85 -13.5h210l-80 -125h-195q-108 0 -153.5 43.5t-17.5 161.5zM289 921l16 78h143l-18 -95q-5 -34 10.5 -48t81.5 -14h210l-77 -126h-194q-107 0 -151 44t-21 161z" />
<glyph unicode="&#xe31;" d="M-305 1498l16 77h143l-20 -95q-8 -34 9.5 -47.5t85.5 -13.5h447l-76 -127h-432q-108 0 -152 44t-21 162z" />
<glyph unicode="&#xe32;" horiz-adv-x="867" d="M246 896l28 128q38 28 85 51q41 20 96 35.5t121 15.5q74 0 146 -24t124.5 -74t77 -127t0.5 -185l-152 -716h-152l145 691q17 79 3.5 138.5t-48 96t-85.5 55t-113 18.5q-58 0 -109.5 -15.5t-87.5 -35.5q-46 -23 -79 -52z" />
<glyph unicode="&#xe33;" horiz-adv-x="867" d="M-182.5 1417q-8.5 37 1.5 81q17 84 89 144t153 60q85 0 132.5 -60t28.5 -144q-20 -86 -90.5 -146t-151.5 -60q-44 0 -77 17t-55 44t-30.5 64zM-54 1498q-7 -34 9 -55.5t45 -21.5q31 0 59.5 21.5t35.5 55.5q5 31 -13 54t-48 23q-29 0 -56 -23t-32 -54zM246 896l28 128 q38 28 85 51q41 20 96 35.5t121 15.5q74 0 146 -24t124.5 -74t77 -127t0.5 -185l-152 -716h-152l145 691q17 79 3.5 138.5t-48 96t-85.5 55t-113 18.5q-58 0 -109.5 -15.5t-87.5 -35.5q-46 -23 -79 -52z" />
<glyph unicode="&#xe34;" d="M-589 1292l77 129h661l-27 -129h-711z" />
<glyph unicode="&#xe35;" d="M-589 1292l77 129h512l29 154h152l-59 -283h-711z" />
<glyph unicode="&#xe36;" d="M-589 1292l77 129h338q3 10 3 19t2 19q13 69 70.5 117.5t123.5 48.5q69 0 107.5 -48t26.5 -118q-15 -69 -72.5 -118t-125.5 -49h-550zM-41 1459q-5 -15 3.5 -26.5t25.5 -11.5q12 0 24.5 11.5t18.5 26.5q3 15 -6.5 27t-24.5 12q-12 0 -25.5 -12t-15.5 -27z" />
<glyph unicode="&#xe37;" d="M-589 1292l77 129h307l34 154h127l-32 -154h76l29 154h152l-59 -283h-711z" />
<glyph unicode="&#xe38;" d="M-440 -318l28 128h107q83 0 118.5 -48t17.5 -131l-39 -179h-153l36 169q5 23 -6 42t-38 19h-71z" />
<glyph unicode="&#xe39;" d="M-748 -318l29 128h108q82 0 117 -48t18 -131q-18 -76 58 -76q77 0 96 76l38 179h154l-41 -189q-8 -36 -23.5 -71.5t-46 -62.5t-79.5 -44t-122 -17q-74 0 -115.5 17t-61 44t-20.5 62.5t7 71.5q4 23 -7 42t-37 19h-72z" />
<glyph unicode="&#xe3a;" d="M-318 -342l34 152h154l-34 -152h-154z" />
<glyph unicode="&#xe3f;" horiz-adv-x="982" d="M95 0l266 1255h245l46 215h147l-49 -219q154 -7 221.5 -89t42.5 -202q-20 -100 -97 -183t-185 -112q59 -10 108 -35.5t80.5 -63.5t43 -91t-1.5 -116q-14 -77 -59 -141t-108 -111.5t-142 -76t-167 -30.5l-46 -212h-145l45 212h-245zM274 128h195q63 0 121 18t103 48.5 t75.5 73t40.5 91.5q25 112 -45 177t-224 65h-166zM402 730h150q118 0 200.5 51t102.5 154q20 90 -29.5 140.5t-173.5 50.5h-166z" />
<glyph unicode="&#xe40;" horiz-adv-x="406" d="M130 179l198 922h153l-197 -922q-5 -20 -5 -34.5t21 -16.5h76l-25 -128h-102q-77 0 -108 41t-11 138z" />
<glyph unicode="&#xe41;" horiz-adv-x="841" d="M130 179l198 922h153l-197 -922q-5 -20 -5 -34.5t21 -16.5h76l-25 -128h-102q-77 0 -108 41t-11 138zM566 179l196 922h154l-197 -922q-5 -20 -5 -34.5t21 -16.5h76l-25 -128h-102q-76 0 -107.5 41t-10.5 138z" />
<glyph unicode="&#xe42;" horiz-adv-x="542" d="M266 179l184 860q18 79 22 139.5t4 106.5v83t8 73q25 115 120 169t285 54h232l-29 -128h-196q-136 0 -191 -22t-67 -80q-8 -34 -8 -69.5v-80.5t-4 -105t-22 -140l-184 -860q-5 -20 -5 -34.5t20 -16.5h77l-26 -128h-102q-76 0 -107 41t-11 138z" />
<glyph unicode="&#xe43;" horiz-adv-x="696" d="M330 1561q25 37 66 64q36 23 89 44t126 21q157 0 228.5 -79.5t35.5 -251.5q-13 -59 -28 -93.5t-33 -71t-36 -85.5t-36 -134l-168 -796q-5 -20 -5 -34.5t20 -16.5h76l-25 -128h-102q-77 0 -108 41t-10 138l169 796q15 76 35.5 130.5t38.5 97.5t34.5 80.5t24.5 75.5 q23 115 -19.5 158.5t-126.5 43.5q-51 0 -92.5 -20t-68.5 -43q-34 -29 -59 -64z" />
<glyph unicode="&#xe44;" horiz-adv-x="696" d="M325 1536l29 128q44 0 75.5 -14t53 -31t34.5 -33.5t15 -21.5q26 25 57 48q29 20 65.5 36t83.5 16q58 0 82.5 -29.5t28 -78t-7.5 -113.5t-27 -138l-240 -1126q-5 -20 -5 -34.5t20 -16.5h76l-25 -128h-102q-77 0 -108 41t-10 138l240 1126q5 25 17 69.5t14.5 84t-7.5 63.5 t-46 14q-23 -7 -45 -27.5t-41 -44.5q-20 -29 -37 -56q-17 36 -46 64q-23 23 -59 43.5t-85 20.5z" />
<glyph unicode="&#xe45;" horiz-adv-x="867" d="M246 896l28 128q38 28 85 51q41 20 96 35.5t121 15.5q74 0 146 -24t124.5 -74t77 -127t0.5 -185l-233 -1097q-7 -37 -29 -63.5t-44 -46.5q-29 -25 -63 -44h-51l261 1226q17 79 3.5 138.5t-48 96t-85.5 55t-113 18.5q-58 0 -109.5 -15.5t-87.5 -35.5q-46 -23 -79 -52z" />
<glyph unicode="&#xe46;" horiz-adv-x="1021" d="M224 662q-14 60 6 157q29 136 117 221.5t203 85.5q29 0 57 -20.5t48 -43.5q25 -28 46 -63q37 36 75 63q32 23 68.5 43.5t64.5 20.5q66 0 109.5 -27t65.5 -68.5t26 -98.5t-9 -113l-256 -1200q-7 -37 -29 -63.5t-46 -46.5q-29 -25 -61 -44h-51l277 1303q20 97 8 164t-88 67 q-20 0 -52.5 -24.5t-60.5 -53.5q-36 -33 -71 -76q-22 44 -43 76q-20 29 -39.5 53.5t-40.5 24.5q-59 0 -104 -51.5t-60 -128.5q-13 -49 -8 -83.5t15 -54.5q10 -25 31 -41l-80 -128q-46 16 -76 57q-28 33 -42 93z" />
<glyph unicode="&#xe47;" d="M-529 1384q-11 35 1 88q16 67 49.5 107.5t74 62.5t82 28t68.5 6h205q57 0 97 12t67 27q31 15 51 39l-27 -129q-20 -15 -49 -25q-25 -10 -65 -17.5t-96 -7.5h-180q-77 0 -108.5 -33.5t-39.5 -69.5q-5 -22 7.5 -49.5t51.5 -27.5q34 0 56.5 12t37.5 27q17 15 28 38h49 q-2 -22 5 -38q5 -15 16.5 -27t37.5 -12q39 0 64.5 28t30.5 49h123q-18 -76 -77.5 -128t-135.5 -52q-29 0 -50 8.5t-37 18.5q-18 10 -30 25q-18 -15 -44 -25q-20 -10 -51.5 -18.5t-68.5 -8.5q-29 0 -58.5 8.5t-51.5 28.5t-33 55z" />
<glyph unicode="&#xe48;" d="M25 1292l60 283h153l-59 -283h-154z" />
<glyph unicode="&#xe49;" d="M-379 1446l25 129h180q39 0 64 -32.5t18 -70.5q-6 -20 6 -35.5t32 -15.5h354l-78 -129h-378q-59 0 -87 32t-21 71q8 34 -4.5 42.5t-29.5 8.5h-81z" />
<glyph unicode="&#xe4a;" d="M-444 1348.5q-4 19.5 2 46.5q17 76 78.5 128t138.5 52q29 0 49 -8t32 -18q14 -10 24 -25q15 15 32 25q16 10 37.5 18t50.5 8q76 0 107.5 -40t20.5 -89q-6 -20 1 -22.5t20 -2.5h151l-78 -129h-134q-67 0 -86.5 32t-9.5 71q6 29 -0.5 53t-32.5 24q-34 0 -55.5 -24 t-25.5 -53h-52q5 25 -1 51t-45 26q-20 0 -42 -24t-27 -53q-7 -29 -3.5 -47.5t11.5 -31.5q10 -12 22 -24h-153q-10 10 -20 24q-8 13 -12 32.5z" />
<glyph unicode="&#xe4b;" d="M-82 1370l28 128h123l16 77h153l-16 -77h129l-29 -128h-127l-16 -78h-154l16 78h-123z" />
<glyph unicode="&#xe4c;" d="M-208 1292l10 54q18 95 91 162t178 67h134l-77 -129h-46q-53 0 -87 -30.5t-41 -79.5l-8 -44h-154z" />
<glyph unicode="&#xe4d;" d="M-182.5 1417q-8.5 37 1.5 81q17 84 89 144t153 60q85 0 132.5 -60t28.5 -144q-20 -86 -90.5 -146t-151.5 -60q-44 0 -77 17t-55 44t-30.5 64zM-54 1498q-7 -34 9 -55.5t45 -21.5q31 0 59.5 21.5t35.5 55.5q5 31 -13 54t-48 23q-29 0 -56 -23t-32 -54z" />
<glyph unicode="&#xe4e;" d="M-291 1390q17 88 90 139t162 51q18 82 83.5 121.5t196.5 39.5l-19 -90q-38 0 -70 -2.5t-59 -19.5t-47.5 -53.5t-35.5 -103.5q-51 0 -100 -19t-61 -78q-5 -20 -2.5 -35.5t7.5 -25.5q7 -10 16 -22h-154q-20 47 -7 98z" />
<glyph unicode="&#xe4f;" horiz-adv-x="1161" d="M190.5 272.5q-19.5 88.5 1.5 188.5q23 103 79.5 191t135.5 153t176.5 104t197.5 39q103 0 183.5 -39t133 -104t71.5 -153t-4 -191q-20 -100 -78 -188.5t-137.5 -153.5t-176.5 -103t-199 -38q-100 0 -181 38t-132 103t-70.5 153.5zM334.5 329q14.5 -63 51 -110.5t93 -74 t125.5 -26.5q71 0 139 26.5t125.5 74t97.5 110t55 132.5q15 71 1.5 134t-50.5 109t-94 73t-128 27q-69 0 -137 -27t-124.5 -73t-97 -109t-56.5 -134q-15 -69 -0.5 -132zM445 461q10 49 37.5 91t65.5 74t84.5 50t95.5 18q97 0 150 -68t33 -165q-10 -49 -38 -91t-66.5 -74 t-84.5 -50t-94 -18q-98 0 -150.5 68t-32.5 165z" />
<glyph unicode="&#xe50;" horiz-adv-x="1087" d="M150 272.5q-19 88.5 4 188.5q20 100 77.5 189.5t137 154.5t176.5 104t197 39t182 -39t134.5 -104t72 -154.5t-1.5 -189.5q-23 -100 -80.5 -188.5t-138 -153.5t-178 -103t-197.5 -38t-180.5 38t-133 103t-71.5 153.5zM303.5 322q11.5 -66 46 -114.5t89.5 -77t125 -28.5 q68 0 134.5 28.5t123 77t97.5 113.5t56 140q15 74 2.5 139t-47 113.5t-89.5 77t-125 28.5q-68 0 -134.5 -28.5t-123 -77t-96.5 -113.5t-54 -139q-16 -73 -4.5 -139z" />
<glyph unicode="&#xe51;" horiz-adv-x="1085" d="M167.5 404.5q-13.5 64.5 3.5 147.5q15 74 64 145t123 127.5t169 90t201 33.5q100 0 184 -33.5t139 -100t76 -164.5t-8 -228q-23 -114 -92 -210.5t-165.5 -165t-210 -107.5t-223.5 -39h-22t-25 2l64 123h11q72 0 153.5 30t155 82.5t127 125t73.5 159.5q20 100 8.5 176 t-48 124t-95 72.5t-129.5 24.5q-92 0 -159.5 -30.5t-114 -72.5t-71 -87t-31.5 -77q-17 -90 16 -155t89 -65q59 0 87 28.5t38 71.5l11 49h153l-10 -53q-8 -34 -27.5 -73.5t-55 -72.5t-90.5 -55t-131 -22q-54 0 -104 23t-85 67.5t-48.5 109z" />
<glyph unicode="&#xe52;" horiz-adv-x="1353" d="M287 163q-18 65 2 159l163 770q8 42 11 84.5t-11 77t-50 56t-102 21.5l25 125h39q95 0 148.5 -37t79.5 -92t27 -120.5t-13 -121.5l-164 -770q-12 -64 2.5 -105t42.5 -65.5t63.5 -33.5t64.5 -9h335q34 0 73 9t76 33.5t68 65.5t44 105l59 284q8 33 8 71.5t-9 72t-31 55 t-60 21.5q-26 0 -50 -15t-46 -36q-24 -23 -46 -52q-7 29 -20 52q-12 20 -29 35.5t-39 15.5q-54 0 -93 -34.5t-49 -78.5q-12 -58 1.5 -91.5t42 -51.5t63.5 -21.5t62 -3.5l-25 -128q-51 0 -111 10t-109 40.5t-73.5 89.5t-4.5 156q8 34 30 76t58 78t84 62t111 26q39 0 64 -12 t43 -25q18 -15 30 -36q18 20 47 36q20 13 52.5 25t69.5 12q69 0 111.5 -32t63 -82t20.5 -112t-12 -123l-59 -277q-20 -94 -63.5 -159t-100.5 -106.5t-119.5 -60t-123.5 -18.5h-408q-56 0 -111 18.5t-94.5 60t-57.5 106.5z" />
<glyph unicode="&#xe53;" horiz-adv-x="1341" d="M145.5 266q-15.5 90 8.5 200q51 238 164.5 360t267.5 122q76 0 122.5 -36.5t72.5 -79.5q29 -51 40 -116q39 64 88 116q43 44 104.5 80t138.5 36q147 0 214.5 -119.5t15.5 -362.5q-22 -107 -61 -194.5t-75 -146.5q-44 -71 -88 -125h-154q46 54 88 125q37 59 75.5 146.5 t61.5 194.5q15 72 15 135.5t-15 112t-47 77t-81 28.5q-73 0 -153 -95.5t-120 -288.5h-129q36 176 -0.5 280t-109.5 104q-77 0 -158.5 -84.5t-122.5 -268.5q-16 -71 -13 -136.5t24 -115.5t63.5 -81t106.5 -31q43 0 75 13q15 5 30 13l-25 -128q-15 -8 -34 -12q-15 -6 -35.5 -8 t-40.5 -2q-79 0 -146 35.5t-109.5 99t-58 153.5z" />
<glyph unicode="&#xe54;" horiz-adv-x="1302" d="M138 280.5q-8 80.5 13 167.5q18 87 60.5 171.5t101 152.5t135.5 108.5t163 40.5h431q42 0 80 8.5t72.5 28.5t60 60t37.5 103l73 338h153l-72 -330q-20 -95 -60 -159t-92.5 -103t-115 -56t-128.5 -17h-466q-54 0 -100 -31t-82 -81t-60 -111t-37 -123t-13.5 -119.5 t15 -102.5t49 -71.5t86.5 -26.5h457q-64 38 -110 92q-39 46 -64.5 117t-5.5 164h159q-18 -82 -1 -149.5t51 -117.5t83 -78t95 -28h128l-25 -128h-791q-88 0 -148 37t-92 100t-40 143.5z" />
<glyph unicode="&#xe55;" horiz-adv-x="1302" d="M138 280.5q-8 80.5 13 167.5q18 87 60.5 171.5t101 152.5t135.5 108.5t163 40.5h117q-8 34 0 78q10 41 34 79t57 65t72.5 44t83.5 17q85 0 132.5 -61t28.5 -144q-7 -37 -27 -75q63 12 113 53.5t70 143.5l73 338h153l-72 -330q-20 -95 -60 -159t-92.5 -103t-115 -56 t-128.5 -17h-466q-54 0 -100 -31t-82 -81t-60 -111t-37 -123t-13.5 -119.5t15 -102.5t49 -71.5t86.5 -26.5h457q-64 38 -110 92q-39 46 -64.5 117t-5.5 164h159q-18 -82 -1 -149.5t51 -117.5t83 -78t95 -28h128l-25 -128h-791q-88 0 -148 37t-92 100t-40 143.5zM855 999 q-7 -34 11 -56t50 -22h8q28 5 54 26t31 52q7 31 -11 53.5t-48 22.5q-34 0 -62 -22.5t-33 -53.5z" />
<glyph unicode="&#xe56;" horiz-adv-x="1481" d="M300 1331l28 128h53q128 0 196 -64t100 -166.5t41.5 -230.5t19.5 -256q36 57 94 103q49 39 124 71t183 32q115 0 198.5 -36.5t132 -99t64 -147t-4.5 -179.5q-23 -105 -76 -198t-130 -162.5t-176 -108.5t-216 -39q-153 0 -250 83t-117 220h152q8 -43 34 -76.5t59 -56.5 t72.5 -34.5t78.5 -11.5q66 0 133 28.5t123 78.5t98 120t61 157q15 66 5 127t-44 106.5t-90 72.5t-132 27q-66 0 -124.5 -23.5t-104 -61.5t-81.5 -89t-59 -107h-154q-10 207 -21.5 358.5t-40 247t-82 141.5t-147.5 46z" />
<glyph unicode="&#xe57;" horiz-adv-x="1737" d="M145.5 266q-15.5 90 8.5 200q25 118 70 203.5t100 142t115 83t116 26.5q74 0 120.5 -33t70.5 -74.5t34.5 -78t10.5 -44.5q3 5 26 41t66 78t104 76.5t134 34.5q57 0 107 -25.5t81.5 -80.5t39 -142t-17.5 -207q-22 -107 -59.5 -191.5t-76.5 -146.5q31 2 67 16.5t71 40 t61.5 65t39.5 99.5l166 772q12 57 40.5 117t76 108.5t115.5 80.5t162 32h36l-28 -128q-66 0 -111 -16.5t-72 -45t-42.5 -64t-22.5 -76.5l-164 -770q-20 -95 -65 -163t-102.5 -111.5t-120.5 -64t-120 -20.5h-230q47 54 90 125q37 59 75 146.5t61 194.5q31 146 10.5 237 t-120.5 91q-74 0 -155 -77t-114 -231h-103q15 66 9 122.5t-28 98t-54 64.5t-68 23q-76 0 -141 -72t-106 -256q-16 -71 -13 -136.5t24 -115.5t63.5 -81t106.5 -31q43 0 75 13q15 5 30 13l-25 -128q-15 -8 -34 -12q-15 -6 -35.5 -8t-40.5 -2q-79 0 -146 35.5t-109.5 99 t-58 153.5z" />
<glyph unicode="&#xe58;" horiz-adv-x="1302" d="M139.5 253q-11.5 92 14.5 213q17 85 62 166.5t112.5 145.5t157.5 103.5t198 39.5h358q42 0 80 8.5t72.5 28.5t60 60t37.5 103l73 338h153l-72 -330q-20 -95 -60 -159t-92.5 -103t-115 -56t-128.5 -17h-395q-66 0 -125 -31t-104 -78t-75.5 -107t-42.5 -119 q-16 -71 -17.5 -135.5t14 -113.5t48.5 -78.5t85 -29.5q46 0 86 27t67 63q34 39 61 89q16 -51 47 -89q25 -36 70 -63t115 -27q31 0 68 9t70 31t58.5 57.5t35.5 91.5l13 68h153l-12 -68q-34 -166 -149 -239.5t-266 -73.5q-71 0 -117.5 18.5t-75.5 42.5q-31 29 -47 63 q-25 -36 -60 -63q-29 -23 -72 -42t-102 -19q-56 0 -108.5 30.5t-87 91.5t-46 153z" />
<glyph unicode="&#xe59;" horiz-adv-x="1583" d="M144.5 266q-14.5 90 9.5 200q25 118 78.5 207t119.5 151t136 93t130 31q90 0 135.5 -36.5t81.5 -79.5q46 90 113.5 141t143.5 51q57 0 97 -28t73 -62.5t63.5 -63t72.5 -28.5q58 0 105.5 86t76.5 220l66 311h154l-68 -311q-17 -79 -45 -156.5t-70 -139t-100 -99 t-132 -37.5t-119 28t-76.5 62t-58.5 62t-66 28q-66 0 -112.5 -45t-56.5 -91q-5 -18 -2 -25l10 -141q2 -34 4.5 -82t7.5 -120t13.5 -168t15.5 -224h-144l-43 640q-3 25 -10.5 58.5t-27 60.5t-51 46t-78.5 19q-33 0 -74 -21.5t-82 -65t-75.5 -111.5t-51.5 -160 q-16 -68 -16.5 -135t19 -117t59.5 -81t104 -31q44 0 68 13q13 5 27 13l-27 -128q-10 -8 -24 -12q-13 -6 -32.5 -8t-40.5 -2q-76 0 -140 35.5t-105 99t-55.5 153.5z" />
<glyph unicode="&#xe5a;" horiz-adv-x="1302" d="M289 1101h153q3 -107 39.5 -169t143.5 -62t205.5 59.5t149.5 171.5h154l-154 -725q-20 -92 -43 -161t-61 -117.5t-93 -73t-135 -24.5l26 128q25 0 45.5 5.5t36.5 30t33 75t39 145.5l114 537q-41 -51 -92 -89q-44 -33 -107.5 -61.5t-146.5 -28.5q-161 0 -239 94.5 t-68 264.5zM1055 0l233 1101h153l-232 -1101h-154z" />
<glyph unicode="&#xe5b;" horiz-adv-x="1827" d="M184 265q-18 86 4 180q22 103 73 194t125.5 160t168 109t197.5 40q144 0 218.5 -54t101.5 -118q34 -76 32 -172h-149q0 61 -26 107q-20 41 -67.5 74.5t-133.5 33.5q-67 0 -130 -29.5t-115.5 -80.5t-89.5 -119t-53 -145q-31 -146 35.5 -243t208.5 -100q64 0 117.5 19.5 t94.5 44.5q46 29 85 64l104 -128l129 128l90 -128l132 128q18 -36 42 -64q20 -25 46.5 -44.5t63.5 -19.5q66 0 96.5 36t35.5 60q5 31 2.5 54.5t-7.5 38.5q-7 18 -20 31h154q12 -10 20 -27q5 -15 7.5 -40t-2.5 -57q-5 -20 -20 -58t-47.5 -73.5t-84 -62t-127.5 -26.5 q-49 0 -83 18.5t-58 42.5q-29 29 -45 63l-134 -124l-90 124l-127 -124l-106 124q-38 -36 -84 -63q-42 -23 -95.5 -42t-117.5 -19q-100 0 -176.5 36.5t-126.5 100.5t-68 150z" />
<glyph unicode="&#x2000;" horiz-adv-x="1152" />
<glyph unicode="&#x2001;" horiz-adv-x="2304" />
<glyph unicode="&#x2002;" horiz-adv-x="1152" />
<glyph unicode="&#x2003;" horiz-adv-x="2304" />
<glyph unicode="&#x2004;" horiz-adv-x="768" />
<glyph unicode="&#x2005;" horiz-adv-x="576" />
<glyph unicode="&#x2006;" horiz-adv-x="384" />
<glyph unicode="&#x2007;" horiz-adv-x="384" />
<glyph unicode="&#x2008;" horiz-adv-x="288" />
<glyph unicode="&#x2009;" horiz-adv-x="460" />
<glyph unicode="&#x200a;" horiz-adv-x="128" />
<glyph unicode="&#x2010;" horiz-adv-x="687" d="M198 486l27 129h500l-29 -129h-498z" />
<glyph unicode="&#x2011;" horiz-adv-x="687" d="M198 486l27 129h500l-29 -129h-498z" />
<glyph unicode="&#x2012;" horiz-adv-x="687" d="M198 486l27 129h500l-29 -129h-498z" />
<glyph unicode="&#x2013;" horiz-adv-x="956" d="M198 486l27 129h769l-29 -129h-767z" />
<glyph unicode="&#x2014;" horiz-adv-x="1443" d="M198 486l27 129h1255l-29 -129h-1253z" />
<glyph unicode="&#x2018;" horiz-adv-x="342" d="M289 921l33 154q13 59 50.5 109t79.5 88q49 47 109 84h128q-51 -46 -95 -91q-36 -41 -72 -91t-46 -99l-34 -154h-153z" />
<glyph unicode="&#x2019;" horiz-adv-x="342" d="M136 921q52 47 94 93q36 41 70.5 91t48.5 99l32 152h154l-34 -152q-12 -59 -49 -110.5t-81 -89.5q-49 -46 -107 -83h-128z" />
<glyph unicode="&#x201c;" horiz-adv-x="623" d="M289 921l33 154q13 59 50.5 109t79.5 88q49 47 109 84h128q-51 -46 -95 -91q-36 -41 -72 -91t-46 -99l-34 -154h-153zM571 921l33 154q12 59 49.5 109t81.5 88q49 47 107 84h128q-51 -46 -95 -91q-36 -41 -71.5 -91t-45.5 -99l-33 -154h-154z" />
<glyph unicode="&#x201d;" horiz-adv-x="623" d="M136 921q52 47 94 93q36 41 70.5 91t48.5 99l32 152h154l-34 -152q-12 -59 -49 -110.5t-81 -89.5q-49 -46 -107 -83h-128zM418 921q51 47 94 93q37 41 71.5 91t46.5 99l32 152h154l-32 -152q-13 -59 -50.5 -110.5t-81.5 -89.5q-48 -46 -107 -83h-127z" />
<glyph unicode="&#x2022;" horiz-adv-x="655" d="M212 555q10 49 37 91.5t66 74t84.5 50t94.5 18.5q97 0 151 -68.5t34 -165.5q-10 -49 -37 -91t-65.5 -73.5t-86.5 -50t-96 -18.5q-98 0 -150 68.5t-32 164.5z" />
<glyph unicode="&#x2026;" horiz-adv-x="1417" d="M95 0l30 154h154l-30 -154h-154zM632 0l30 154h154l-30 -154h-154zM1170 0l31 154h153l-30 -154h-154z" />
<glyph unicode="&#x202f;" horiz-adv-x="460" />
<glyph unicode="&#x205f;" horiz-adv-x="576" />
<glyph unicode="&#x20ac;" horiz-adv-x="1290" d="M184 422l26 128h128l16 65q5 20 8.5 38t8.5 38h-130l28 128h151q49 107 122 193.5t163.5 145t197 90.5t221.5 32q95 0 185.5 -11t146.5 -40l-78 -128q-67 37 -133.5 44t-148.5 7q-166 0 -301 -90t-216 -243h509l-28 -128h-535q-5 -20 -9 -38t-8 -38q-6 -17 -9 -33t-5 -32 h484l-26 -128h-461q13 -153 113 -236.5t268 -83.5q98 0 162.5 19.5t145.5 57.5l26 -128q-82 -43 -178.5 -58t-199.5 -15q-228 0 -359 117t-137 327h-148z" />
<glyph unicode="&#x2122;" horiz-adv-x="990" d="M351 1211l10 44h299l-10 -44h-120l-82 -392h-54l82 392h-125zM628 819l91 436h70l73 -354l239 354h61l-92 -436h-44l75 359l-241 -359h-25l-83 359l-73 -359h-51z" />
<glyph unicode="&#x25fc;" horiz-adv-x="921" d="M0 0v921h921v-921h-921z" />
<glyph horiz-adv-x="1058" d="M246 896q39 64 105 115q54 44 141 79.5t212 35.5q110 0 197 -36q29 8 63.5 22t65 35t55 46.5t31.5 61.5h154q-12 -51 -40.5 -90t-64.5 -67t-76.5 -46t-79.5 -28q85 -76 114 -194.5t1 -253.5q-25 -120 -80 -225t-133.5 -183t-178.5 -123t-214 -45h-129l-15 410 q-5 20 -15 22.5t-31 2.5h-52l26 129h103q59 0 82 -19.5t31 -58.5l24 -358q86 0 157 40t125 102t91 143t55 163q22 110 5 189.5t-61 132t-108 77t-130 24.5q-97 0 -172.5 -36.5t-127.5 -78.5q-61 -52 -107 -116z" />
<glyph horiz-adv-x="1763" d="M195 179l71 333q10 49 27 86t32 64q17 32 36 54l-63 65q-23 23 -44.5 42t-18.5 22q56 76 134 140q66 51 158.5 96t214.5 45q88 0 172.5 -20.5t147 -62.5t93 -111.5t10.5 -163.5l-85 -402q-8 -44 -10 -90t12 -84t46 -64t93 -26h108q61 0 106 26t77 64t51 84t29 90l157 735 h153l-153 -725q-15 -74 -49 -145.5t-86.5 -128t-121 -90.5t-156.5 -34h-205q-87 0 -135 34t-67.5 90.5t-17 128t17.5 145.5l72 340q18 88 -2.5 143t-65 85.5t-104 42.5t-115.5 12q-74 0 -133 -24.5t-102 -53.5q-49 -33 -90 -76l126 -129q-17 -17 -36 -45q-15 -25 -31 -62.5 t-28 -96.5l-71 -333q-5 -20 -6 -34.5t21 -16.5h76l-25 -128h-103q-76 0 -107 41t-10 138z" />
<glyph d="M-607 1384q-11 35 3 88q15 67 48.5 107.5t74.5 62.5t81.5 28t69.5 6h154q58 0 96.5 12t67.5 27q28 15 51 39l-29 -129q-20 -15 -49 -25q-25 -10 -63.5 -17.5t-97.5 -7.5h-128q-76 0 -108.5 -33.5t-39.5 -69.5q-5 -22 0 -49.5t34 -27.5q28 0 45.5 12t30.5 27q12 15 21 38 h47q-2 -22 7 -38q5 -15 16 -27t37 -12q39 0 64 28t30 49h129q-17 -76 -79 -128t-138 -52q-29 0 -51 8.5t-37 18.5q-18 10 -31 25q-13 -15 -30 -25q-18 -10 -43.5 -18.5t-64.5 -8.5q-20 0 -44.5 8.5t-43.5 28.5t-30 55z" />
<glyph d="M-115 1844l25 127h175q39 0 64 -31.5t17 -70.5q-5 -20 6.5 -35.5t32.5 -15.5h230l-76 -128h-257q-58 0 -84 32t-18 70q5 34 -6.5 43t-27.5 9h-81z" />
<glyph d="M-231.5 1744.5q-3.5 19.5 1.5 47.5q18 77 79 128t139 51q28 0 42 -7.5t21 -18.5q10 -10 10 -25q8 15 21 25t31.5 18t47.5 8q77 0 108 -40t20 -87q-5 -20 2 -23t19 -3h125l-76 -128h-110q-71 0 -89.5 32t-10.5 70q5 29 -1.5 53t-32.5 24q-20 0 -35.5 -24.5t-20.5 -52.5 h-51q4 26 2 51.5t-18 25.5q-20 0 -41.5 -24.5t-26.5 -52.5t-1.5 -47.5t11.5 -32.5q10 -12 20 -22h-154q-10 10 -20 22q-8 13 -11.5 32.5z" />
<glyph horiz-adv-x="1815" d="M195 179l71 333q10 49 27 86t32 64q17 32 36 54l-63 65q-23 23 -44.5 42t-18.5 22q56 76 134 140q66 51 158.5 96t214.5 45q126 0 241.5 -42t164.5 -136q14 20 45 50.5t77 58.5t108.5 48.5t145.5 20.5q74 0 145.5 -24t124 -74t77 -127t0.5 -185l-232 -1097 q-8 -37 -29.5 -63.5t-45.5 -46.5q-29 -25 -62 -44h-51l261 1226q18 79 4 138.5t-48 96t-85.5 55t-112.5 18.5q-95 0 -153.5 -35t-92.5 -77t-46.5 -79.5t-12.5 -39.5l-244 -1149q-7 -37 -29 -63.5t-44 -46.5q-29 -25 -62 -44h-51l266 1251q18 88 -2.5 143t-65 85.5t-104 42.5 t-115.5 12q-74 0 -133 -24.5t-102 -53.5q-49 -33 -90 -76l126 -129q-17 -17 -36 -45q-15 -25 -31 -62.5t-28 -96.5l-71 -333q-5 -25 1 -37t21 -14.5t33 -1t36 1.5l-25 -128h-103q-76 0 -107 41t-10 138z" />
<glyph horiz-adv-x="1815" d="M56 0l26 128h77q15 2 25.5 20t17 42.5t10 51.5t8.5 47l46 223q10 49 26 86t30 64q18 32 39 54l-63 65q-23 23 -44.5 42t-18.5 22q56 76 134 140q66 51 158.5 96t214.5 45q126 0 241.5 -42t164.5 -136q14 20 45 50.5t77 58.5t108.5 48.5t145.5 20.5q74 0 145.5 -24 t124 -74t77 -127t0.5 -185l-232 -1097q-8 -37 -29.5 -63.5t-45.5 -46.5q-29 -25 -62 -44h-51l261 1226q18 79 4 138.5t-48 96t-85.5 55t-112.5 18.5q-130 0 -199.5 -56.5t-98.5 -123.5q-33 -79 -33 -179l-218 -1021q-7 -37 -29 -63.5t-44 -46.5q-29 -25 -62 -44h-51 l266 1251q18 88 -2.5 143t-65 85.5t-104 42.5t-115.5 12q-74 0 -133 -24.5t-102 -53.5q-49 -33 -90 -76l126 -129q-17 -17 -36 -45q-15 -25 -31 -62.5t-28 -96.5l-71 -333q-20 -98 -67 -138.5t-123 -40.5h-103z" />
</font>
</defs>
</svg>
