<?xml version="1.0" standalone="no"?>
<!DOCTYPE svg PUBLIC "-//W3C//DTD SVG 1.1//EN" "http://www.w3.org/Graphics/SVG/1.1/DTD/svg11.dtd" >
<svg xmlns="http://www.w3.org/2000/svg" xmlns:xlink="http://www.w3.org/1999/xlink" version="1.1">
<metadata></metadata>
<defs>
<font id="th_sarabun_newbold" horiz-adv-x="0" >
<font-face units-per-em="2048" ascent="1638" descent="-410" />
<missing-glyph horiz-adv-x="623" />
<glyph unicode="A&#x300;" horiz-adv-x="1246" d="M-3 0l554 1335h148l551 -1335h-192l-174 440h-528l-171 -440h-188zM420 589h398l-193 548zM440 1709l158 50l207 -318h-132z" />
<glyph unicode="A&#x301;" horiz-adv-x="1246" d="M-3 0l554 1335h148l551 -1335h-192l-174 440h-528l-171 -440h-188zM420 589h398l-193 548zM441 1441l208 318l156 -50l-232 -268h-132z" />
<glyph unicode="A&#x303;" horiz-adv-x="1246" d="M-3 0l554 1335h148l551 -1335h-192l-174 440h-528l-171 -440h-188zM345 1441q0 82 40 139.5t115 57.5q25 0 56.5 -11t62 -26.5t59.5 -26t49 -10.5q53 0 52 74h120q-3 -97 -43.5 -154t-120.5 -57q-21 0 -53.5 13t-67 28t-65 27.5t-49.5 12.5q-21 0 -27 -21t-6 -46h-122z M420 589h398l-193 548z" />
<glyph unicode="E&#x300;" horiz-adv-x="989" d="M138 0v1316h783v-150h-609v-398h543v-148h-543v-470h609v-150h-783zM312 1709l158 50l207 -318h-132z" />
<glyph unicode="E&#x301;" horiz-adv-x="989" d="M138 0v1316h783v-150h-609v-398h543v-148h-543v-470h609v-150h-783zM312 1441l208 318l156 -50l-232 -268h-132z" />
<glyph unicode="I&#x300;" horiz-adv-x="449" d="M42 1709l158 50l207 -318h-132zM138 0v1316h174v-1316h-174z" />
<glyph unicode="I&#x301;" horiz-adv-x="449" d="M42 1441l208 318l156 -50l-232 -268h-132zM138 0v1316h174v-1316h-174z" />
<glyph unicode="O&#x300;" horiz-adv-x="1431" d="M72 655q0 290 179.5 488t464.5 198q284 0 464.5 -198t180.5 -488q0 -291 -180.5 -486.5t-464.5 -195.5q-285 0 -464.5 195.5t-179.5 486.5zM243 657q0 -226 130.5 -379.5t342.5 -153.5q213 0 343 153.5t130 379.5q0 227 -130 381t-343 154q-214 0 -343.5 -154 t-129.5 -381zM533 1709l158 50l207 -318h-132z" />
<glyph unicode="O&#x301;" horiz-adv-x="1431" d="M72 655q0 290 179.5 488t464.5 198q284 0 464.5 -198t180.5 -488q0 -291 -180.5 -486.5t-464.5 -195.5q-285 0 -464.5 195.5t-179.5 486.5zM243 657q0 -226 130.5 -379.5t342.5 -153.5q213 0 343 153.5t130 379.5q0 227 -130 381t-343 154q-214 0 -343.5 -154 t-129.5 -381zM534 1441l208 318l156 -50l-232 -268h-132z" />
<glyph unicode="O&#x303;" horiz-adv-x="1431" d="M72 655q0 290 179.5 488t464.5 198q284 0 464.5 -198t180.5 -488q0 -291 -180.5 -486.5t-464.5 -195.5q-285 0 -464.5 195.5t-179.5 486.5zM243 657q0 -226 130.5 -379.5t342.5 -153.5q213 0 343 153.5t130 379.5q0 227 -130 381t-343 154q-214 0 -343.5 -154 t-129.5 -381zM440 1441q0 82 40 139.5t115 57.5q25 0 56.5 -11t62 -26.5t59.5 -26t49 -10.5q53 0 52 74h120q-3 -97 -43.5 -154t-120.5 -57q-21 0 -53.5 13t-67 28t-65 27.5t-49.5 12.5q-21 0 -27 -21t-6 -46h-122z" />
<glyph unicode="U&#x300;" horiz-adv-x="1332" d="M138 562v754h177v-754q0 -438 352 -438q351 0 351 438v754h177v-754q0 -586 -528 -586t-529 586zM483 1709l158 50l207 -318h-132z" />
<glyph unicode="U&#x301;" horiz-adv-x="1332" d="M138 562v754h177v-754q0 -438 352 -438q351 0 351 438v754h177v-754q0 -586 -528 -586t-529 586zM484 1441l208 318l156 -50l-232 -268h-132z" />
<glyph unicode="Y&#x301;" horiz-adv-x="1094" d="M-16 1316h201l366 -591l362 591h198l-475 -738v-578h-172v575zM365 1441l208 318l156 -50l-232 -268h-132z" />
<glyph unicode="a&#x300;" horiz-adv-x="1013" d="M72 256q0 352 627 361q-27 208 -227 207q-149 0 -329 -69l-19 158q188 55 357 55q392 0 392 -404v-313q0 -105 40 -243l-164 -32l-27 121q-140 -121 -318 -121q-141 0 -235.5 75.5t-96.5 204.5zM248 274q0 -147 164 -147q92 0 182 44q105 53 105 127v166 q-451 -8 -451 -190zM322 1332l158 50l207 -318h-132z" />
<glyph unicode="a&#x301;" horiz-adv-x="1013" d="M72 256q0 352 627 361q-27 208 -227 207q-149 0 -329 -69l-19 158q188 55 357 55q392 0 392 -404v-313q0 -105 40 -243l-164 -32l-27 121q-140 -121 -318 -121q-141 0 -235.5 75.5t-96.5 204.5zM248 274q0 -147 164 -147q92 0 182 44q105 53 105 127v166 q-451 -8 -451 -190zM324 1064l208 318l156 -50l-232 -268h-132z" />
<glyph unicode="a&#x303;" horiz-adv-x="1013" d="M72 256q0 352 627 361q-27 208 -227 207q-149 0 -329 -69l-19 158q188 55 357 55q392 0 392 -404v-313q0 -105 40 -243l-164 -32l-27 121q-140 -121 -318 -121q-141 0 -235.5 75.5t-96.5 204.5zM229 1064q0 82 40 139.5t115 57.5q25 0 56.5 -11t62 -26.5t59.5 -26 t49 -10.5q53 0 52 74h120q-3 -97 -43.5 -154t-120.5 -57q-21 0 -53.5 13t-67 28t-65 27.5t-49.5 12.5q-21 0 -27 -21t-6 -46h-122zM248 274q0 -147 164 -147q92 0 182 44q105 53 105 127v166q-451 -8 -451 -190z" />
<glyph unicode="e&#x300;" horiz-adv-x="1080" d="M72 456q0 235 144 382q140 138 359 138q425 0 435 -533h-767q11 -150 107 -231.5t247 -81.5q155 0 355 72l19 -152q-203 -74 -385 -74q-224 0 -369 133.5t-145 346.5zM254 589h584q-13 108 -88 175.5t-191 67.5q-111 0 -198 -67.5t-107 -175.5zM356 1332l158 50l207 -318 h-132z" />
<glyph unicode="e&#x301;" horiz-adv-x="1080" d="M72 456q0 235 144 382q140 138 359 138q425 0 435 -533h-767q11 -150 107 -231.5t247 -81.5q155 0 355 72l19 -152q-203 -74 -385 -74q-224 0 -369 133.5t-145 346.5zM254 589h584q-13 108 -88 175.5t-191 67.5q-111 0 -198 -67.5t-107 -175.5zM357 1064l208 318l156 -50 l-232 -268h-132z" />
<glyph unicode="i&#x300;" horiz-adv-x="449" d="M42 1332l158 50l207 -318h-132zM138 0v940h174v-940h-174z" />
<glyph unicode="i&#x301;" horiz-adv-x="449" d="M42 1064l208 318l156 -50l-232 -268h-132zM138 0v940h174v-940h-174z" />
<glyph unicode="o&#x300;" horiz-adv-x="1138" d="M72 475q0 211 141 356t357 145t357 -145t141 -356q0 -210 -141 -353.5t-357 -143.5t-357 144t-141 353zM243 475q0 -150 91 -250.5t236 -100.5q143 0 234.5 100.5t91.5 250.5t-91.5 250.5t-234.5 100.5t-235 -100.5t-92 -250.5zM387 1332l158 50l207 -318h-132z" />
<glyph unicode="o&#x301;" horiz-adv-x="1138" d="M72 475q0 211 141 356t357 145t357 -145t141 -356q0 -210 -141 -353.5t-357 -143.5t-357 144t-141 353zM243 475q0 -150 91 -250.5t236 -100.5q143 0 234.5 100.5t91.5 250.5t-91.5 250.5t-234.5 100.5t-235 -100.5t-92 -250.5zM388 1064l208 318l156 -50l-232 -268h-132 z" />
<glyph unicode="o&#x303;" horiz-adv-x="1138" d="M72 475q0 211 141 356t357 145t357 -145t141 -356q0 -210 -141 -353.5t-357 -143.5t-357 144t-141 353zM243 475q0 -150 91 -250.5t236 -100.5q143 0 234.5 100.5t91.5 250.5t-91.5 250.5t-234.5 100.5t-235 -100.5t-92 -250.5zM293 1064q0 82 40 139.5t115 57.5 q25 0 56.5 -11t62 -26.5t59.5 -26t49 -10.5q53 0 52 74h120q-3 -97 -43.5 -154t-120.5 -57q-21 0 -53.5 13t-67 28t-65 27.5t-49.5 12.5q-21 0 -27 -21t-6 -46h-122z" />
<glyph unicode="u&#x300;" horiz-adv-x="1155" d="M138 425v515h174v-497q0 -312 239 -313q100 0 196.5 76t96.5 179v555h174v-689q0 -93 58 -240l-169 -33q-27 67 -50 160q-166 -164 -329 -162q-390 0 -390 449zM395 1332l158 50l207 -318h-132z" />
<glyph unicode="u&#x301;" horiz-adv-x="1155" d="M138 425v515h174v-497q0 -312 239 -313q100 0 196.5 76t96.5 179v555h174v-689q0 -93 58 -240l-169 -33q-27 67 -50 160q-166 -164 -329 -162q-390 0 -390 449zM396 1064l208 318l156 -50l-232 -268h-132z" />
<glyph unicode="y&#x301;" horiz-adv-x="997" d="M-11 940h191l326 -697l309 697h191l-431 -921q-174 -367 -486 -436l-44 143q245 55 361 343zM315 1064l208 318l156 -50l-232 -268h-132z" />
<glyph unicode="I&#x303;" horiz-adv-x="449" d="M-50 1441q0 82 40 139.5t115 57.5q25 0 56.5 -11t62 -26.5t59.5 -26t49 -10.5q53 0 52 74h120q-3 -97 -43.5 -154t-120.5 -57q-21 0 -53.5 13t-67 28t-65 27.5t-49.5 12.5q-21 0 -27 -21t-6 -46h-122zM138 0v1316h174v-1316h-174z" />
<glyph unicode="i&#x303;" horiz-adv-x="449" d="M-53 1064q0 82 40 139.5t115 57.5q25 0 56.5 -11t62 -26.5t59.5 -26t49 -10.5q53 0 52 74h120q-3 -97 -43.5 -154t-120.5 -57q-21 0 -53.5 13t-67 28t-65 27.5t-49.5 12.5q-21 0 -27 -21t-6 -46h-122zM138 0v940h174v-940h-174z" />
<glyph unicode="U&#x303;" horiz-adv-x="1332" d="M138 562v754h177v-754q0 -438 352 -438q351 0 351 438v754h177v-754q0 -586 -528 -586t-529 586zM390 1441q0 82 40 139.5t115 57.5q25 0 56.5 -11t62 -26.5t59.5 -26t49 -10.5q53 0 52 74h120q-3 -97 -43.5 -154t-120.5 -57q-21 0 -53.5 13t-67 28t-65 27.5t-49.5 12.5 q-21 0 -27 -21t-6 -46h-122z" />
<glyph unicode="u&#x303;" horiz-adv-x="1155" d="M138 425v515h174v-497q0 -312 239 -313q100 0 196.5 76t96.5 179v555h174v-689q0 -93 58 -240l-169 -33q-27 67 -50 160q-166 -164 -329 -162q-390 0 -390 449zM301 1064q0 82 40 139.5t115 57.5q25 0 56.5 -11t62 -26.5t59.5 -26t49 -10.5q53 0 52 74h120 q-3 -97 -43.5 -154t-120.5 -57q-21 0 -53.5 13t-67 28t-65 27.5t-49.5 12.5q-21 0 -27 -21t-6 -46h-122z" />
<glyph unicode="A&#x323;" horiz-adv-x="1246" d="M-3 0l554 1335h148l551 -1335h-192l-174 440h-528l-171 -440h-188zM420 589h398l-193 548zM493 -266q0 55 38.5 94.5t91.5 39.5q52 0 90.5 -39.5t38.5 -94.5t-38.5 -93.5t-90.5 -38.5q-53 0 -91.5 38.5t-38.5 93.5z" />
<glyph unicode="a&#x323;" horiz-adv-x="1013" d="M72 256q0 352 627 361q-27 208 -227 207q-149 0 -329 -69l-19 158q188 55 357 55q392 0 392 -404v-313q0 -105 40 -243l-164 -32l-27 121q-140 -121 -318 -121q-141 0 -235.5 75.5t-96.5 204.5zM248 274q0 -147 164 -147q92 0 182 44q105 53 105 127v166 q-451 -8 -451 -190zM377 -266q0 55 38.5 94.5t91.5 39.5q52 0 90.5 -39.5t38.5 -94.5t-38.5 -93.5t-90.5 -38.5q-53 0 -91.5 38.5t-38.5 93.5z" />
<glyph unicode="A&#x309;" horiz-adv-x="1246" d="M-3 0l554 1335h148l551 -1335h-192l-174 440h-528l-171 -440h-188zM420 589h398l-193 548zM443 1743q21 45 74 84.5t142 39.5q79 0 130.5 -41t51.5 -130q0 -47 -25 -84.5t-54 -70.5t-52.5 -64.5t-23.5 -68.5h-125q0 45 25 81t55.5 67.5t55.5 62t25 63.5q0 48 -21 62.5 t-56 14.5q-47 0 -83 -30t-48 -47z" />
<glyph unicode="a&#x309;" horiz-adv-x="1013" d="M72 256q0 352 627 361q-27 208 -227 207q-149 0 -329 -69l-19 158q188 55 357 55q392 0 392 -404v-313q0 -105 40 -243l-164 -32l-27 121q-140 -121 -318 -121q-141 0 -235.5 75.5t-96.5 204.5zM248 274q0 -147 164 -147q92 0 182 44q105 53 105 127v166 q-451 -8 -451 -190zM307 1366q21 45 74 84.5t142 39.5q79 0 130.5 -41t51.5 -130q0 -47 -25 -84.5t-54 -70.5t-52.5 -64.5t-23.5 -68.5h-125q0 45 25 81t55.5 67.5t55.5 62t25 63.5q0 48 -21 62.5t-56 14.5q-47 0 -83 -30t-48 -47z" />
<glyph unicode="&#xc2;&#x301;" horiz-adv-x="1246" d="M-3 0l554 1335h148l551 -1335h-192l-174 440h-528l-171 -440h-188zM360 1441l215 318h97l213 -318h-150l-113 197l-111 -197h-151zM420 589h398l-193 548zM813 1673l208 318l156 -50l-232 -268h-132z" />
<glyph unicode="&#xe2;&#x301;" horiz-adv-x="1013" d="M72 256q0 352 627 361q-27 208 -227 207q-149 0 -329 -69l-19 158q188 55 357 55q392 0 392 -404v-313q0 -105 40 -243l-164 -32l-27 121q-140 -121 -318 -121q-141 0 -235.5 75.5t-96.5 204.5zM244 1064l215 318h97l213 -318h-150l-113 197l-111 -197h-151zM248 274 q0 -147 164 -147q92 0 182 44q105 53 105 127v166q-451 -8 -451 -190zM705 1318l208 318l156 -50l-232 -268h-132z" />
<glyph unicode="&#xc2;&#x300;" horiz-adv-x="1246" d="M-3 0l554 1335h148l551 -1335h-192l-174 440h-528l-171 -440h-188zM360 1441l215 318h97l213 -318h-150l-113 197l-111 -197h-151zM420 589h398l-193 548zM744 1941l158 50l207 -318h-132z" />
<glyph unicode="&#xe2;&#x300;" horiz-adv-x="1013" d="M72 256q0 352 627 361q-27 208 -227 207q-149 0 -329 -69l-19 158q188 55 357 55q392 0 392 -404v-313q0 -105 40 -243l-164 -32l-27 121q-140 -121 -318 -121q-141 0 -235.5 75.5t-96.5 204.5zM244 1064l215 318h97l213 -318h-150l-113 197l-111 -197h-151zM248 274 q0 -147 164 -147q92 0 182 44q105 53 105 127v166q-451 -8 -451 -190zM577 1586l158 50l207 -318h-132z" />
<glyph unicode="&#xc2;&#x309;" horiz-adv-x="1246" d="M-3 0l554 1335h148l551 -1335h-192l-174 440h-528l-171 -440h-188zM360 1441l215 318h97l213 -318h-150l-113 197l-111 -197h-151zM420 589h398l-193 548zM771 1986q21 45 74 84.5t142 39.5q79 0 130.5 -41t51.5 -130q0 -47 -25 -84.5t-54 -70.5t-52.5 -64.5t-23.5 -68.5 h-125q0 45 25 81t55.5 67.5t55.5 62t25 63.5q0 48 -21 62.5t-56 14.5q-47 0 -83 -30t-48 -47z" />
<glyph unicode="&#xe2;&#x309;" horiz-adv-x="1013" d="M72 256q0 352 627 361q-27 208 -227 207q-149 0 -329 -69l-19 158q188 55 357 55q392 0 392 -404v-313q0 -105 40 -243l-164 -32l-27 121q-140 -121 -318 -121q-141 0 -235.5 75.5t-96.5 204.5zM244 1064l215 318h97l213 -318h-150l-113 197l-111 -197h-151zM248 274 q0 -147 164 -147q92 0 182 44q105 53 105 127v166q-451 -8 -451 -190zM628 1627q21 45 74 84.5t142 39.5q79 0 130.5 -41t51.5 -130q0 -47 -25 -84.5t-54 -70.5t-52.5 -64.5t-23.5 -68.5h-125q0 45 25 81t55.5 67.5t55.5 62t25 63.5q0 48 -21 62.5t-56 14.5q-47 0 -83 -30 t-48 -47z" />
<glyph unicode="&#xc2;&#x303;" horiz-adv-x="1246" d="M-3 0l554 1335h148l551 -1335h-192l-174 440h-528l-171 -440h-188zM345 1871q0 82 40 139.5t115 57.5q25 0 56.5 -11t62 -26.5t59.5 -26t49 -10.5q53 0 52 74h120q-3 -97 -43.5 -154t-120.5 -57q-21 0 -53.5 13t-67 28t-65 27.5t-49.5 12.5q-21 0 -27 -21t-6 -46h-122z M360 1441l215 318h97l213 -318h-150l-113 197l-111 -197h-151zM420 589h398l-193 548z" />
<glyph unicode="&#xe2;&#x303;" horiz-adv-x="1013" d="M72 256q0 352 627 361q-27 208 -227 207q-149 0 -329 -69l-19 158q188 55 357 55q392 0 392 -404v-313q0 -105 40 -243l-164 -32l-27 121q-140 -121 -318 -121q-141 0 -235.5 75.5t-96.5 204.5zM229 1462q0 82 40 139.5t115 57.5q25 0 56.5 -11t62 -26.5t59.5 -26 t49 -10.5q53 0 52 74h120q-3 -97 -43.5 -154t-120.5 -57q-21 0 -53.5 13t-67 28t-65 27.5t-49.5 12.5q-21 0 -27 -21t-6 -46h-122zM244 1064l215 318h97l213 -318h-150l-113 197l-111 -197h-151zM248 274q0 -147 164 -147q92 0 182 44q105 53 105 127v166q-451 -8 -451 -190 z" />
<glyph unicode="&#xc2;&#x323;" horiz-adv-x="1246" d="M-3 0l554 1335h148l551 -1335h-192l-174 440h-528l-171 -440h-188zM360 1441l215 318h97l213 -318h-150l-113 197l-111 -197h-151zM420 589h398l-193 548zM493 -266q0 55 38.5 94.5t91.5 39.5q52 0 90.5 -39.5t38.5 -94.5t-38.5 -93.5t-90.5 -38.5q-53 0 -91.5 38.5 t-38.5 93.5z" />
<glyph unicode="&#xe2;&#x323;" horiz-adv-x="1013" d="M72 256q0 352 627 361q-27 208 -227 207q-149 0 -329 -69l-19 158q188 55 357 55q392 0 392 -404v-313q0 -105 40 -243l-164 -32l-27 121q-140 -121 -318 -121q-141 0 -235.5 75.5t-96.5 204.5zM244 1064l215 318h97l213 -318h-150l-113 197l-111 -197h-151zM248 274 q0 -147 164 -147q92 0 182 44q105 53 105 127v166q-451 -8 -451 -190zM377 -266q0 55 38.5 94.5t91.5 39.5q52 0 90.5 -39.5t38.5 -94.5t-38.5 -93.5t-90.5 -38.5q-53 0 -91.5 38.5t-38.5 93.5z" />
<glyph unicode="&#x102;&#x301;" horiz-adv-x="1246" d="M-3 0l554 1335h148l551 -1335h-192l-174 440h-528l-171 -440h-188zM297 1735h149q13 -69 56.5 -123.5t119.5 -54.5q77 0 122 54t58 124h147q-27 -158 -110 -234t-217 -76q-132 0 -215 76t-110 234zM420 589h398l-193 548zM547 1789l208 318l156 -50l-232 -268h-132z" />
<glyph unicode="&#x103;&#x301;" horiz-adv-x="1013" d="M72 256q0 352 627 361q-27 208 -227 207q-149 0 -329 -69l-19 158q188 55 357 55q392 0 392 -404v-313q0 -105 40 -243l-164 -32l-27 121q-140 -121 -318 -121q-141 0 -235.5 75.5t-96.5 204.5zM181 1358h149q13 -69 56.5 -123.5t119.5 -54.5q77 0 122 54t58 124h147 q-27 -158 -110 -234t-217 -76q-132 0 -215 76t-110 234zM248 274q0 -147 164 -147q92 0 182 44q105 53 105 127v166q-451 -8 -451 -190zM428 1412l208 318l156 -50l-232 -268h-132z" />
<glyph unicode="&#x102;&#x300;" horiz-adv-x="1246" d="M-3 0l554 1335h148l551 -1335h-192l-174 440h-528l-171 -440h-188zM297 1735h149q13 -69 56.5 -123.5t119.5 -54.5q77 0 122 54t58 124h147q-27 -158 -110 -234t-217 -76q-132 0 -215 76t-110 234zM334 2026l158 50l207 -318h-132zM420 589h398l-193 548z" />
<glyph unicode="&#x103;&#x300;" horiz-adv-x="1013" d="M72 256q0 352 627 361q-27 208 -227 207q-149 0 -329 -69l-19 158q188 55 357 55q392 0 392 -404v-313q0 -105 40 -243l-164 -32l-27 121q-140 -121 -318 -121q-141 0 -235.5 75.5t-96.5 204.5zM181 1358h149q13 -69 56.5 -123.5t119.5 -54.5q77 0 122 54t58 124h147 q-27 -158 -110 -234t-217 -76q-132 0 -215 76t-110 234zM221 1656l158 50l207 -318h-132zM248 274q0 -147 164 -147q92 0 182 44q105 53 105 127v166q-451 -8 -451 -190z" />
<glyph unicode="&#x102;&#x309;" horiz-adv-x="1246" d="M-3 0l554 1335h148l551 -1335h-192l-174 440h-528l-171 -440h-188zM297 1735h149q13 -69 56.5 -123.5t119.5 -54.5q77 0 122 54t58 124h147q-27 -158 -110 -234t-217 -76q-132 0 -215 76t-110 234zM420 589h398l-193 548zM434 2079q21 45 74 84.5t142 39.5 q79 0 130.5 -41t51.5 -130q0 -47 -25 -84.5t-54 -70.5t-52.5 -64.5t-23.5 -68.5h-125q0 45 25 81t55.5 67.5t55.5 62t25 63.5q0 48 -21 62.5t-56 14.5q-47 0 -83 -30t-48 -47z" />
<glyph unicode="&#x103;&#x309;" horiz-adv-x="1013" d="M72 256q0 352 627 361q-27 208 -227 207q-149 0 -329 -69l-19 158q188 55 357 55q392 0 392 -404v-313q0 -105 40 -243l-164 -32l-27 121q-140 -121 -318 -121q-141 0 -235.5 75.5t-96.5 204.5zM181 1358h149q13 -69 56.5 -123.5t119.5 -54.5q77 0 122 54t58 124h147 q-27 -158 -110 -234t-217 -76q-132 0 -215 76t-110 234zM248 274q0 -147 164 -147q92 0 182 44q105 53 105 127v166q-451 -8 -451 -190zM327 1687q21 45 74 84.5t142 39.5q79 0 130.5 -41t51.5 -130q0 -47 -25 -84.5t-54 -70.5t-52.5 -64.5t-23.5 -68.5h-125q0 45 25 81 t55.5 67.5t55.5 62t25 63.5q0 48 -21 62.5t-56 14.5q-47 0 -83 -30t-48 -47z" />
<glyph unicode="&#x102;&#x303;" horiz-adv-x="1246" d="M-3 0l554 1335h148l551 -1335h-192l-174 440h-528l-171 -440h-188zM297 1735h149q13 -69 56.5 -123.5t119.5 -54.5q77 0 122 54t58 124h147q-27 -158 -110 -234t-217 -76q-132 0 -215 76t-110 234zM345 1871q0 82 40 139.5t115 57.5q25 0 56.5 -11t62 -26.5t59.5 -26 t49 -10.5q53 0 52 74h120q-3 -97 -43.5 -154t-120.5 -57q-21 0 -53.5 13t-67 28t-65 27.5t-49.5 12.5q-21 0 -27 -21t-6 -46h-122zM420 589h398l-193 548z" />
<glyph unicode="&#x103;&#x303;" horiz-adv-x="1013" d="M72 256q0 352 627 361q-27 208 -227 207q-149 0 -329 -69l-19 158q188 55 357 55q392 0 392 -404v-313q0 -105 40 -243l-164 -32l-27 121q-140 -121 -318 -121q-141 0 -235.5 75.5t-96.5 204.5zM181 1358h149q13 -69 56.5 -123.5t119.5 -54.5q77 0 122 54t58 124h147 q-27 -158 -110 -234t-217 -76q-132 0 -215 76t-110 234zM229 1451q0 82 40 139.5t115 57.5q25 0 56.5 -11t62 -26.5t59.5 -26t49 -10.5q53 0 52 74h120q-3 -97 -43.5 -154t-120.5 -57q-21 0 -53.5 13t-67 28t-65 27.5t-49.5 12.5q-21 0 -27 -21t-6 -46h-122zM248 274 q0 -147 164 -147q92 0 182 44q105 53 105 127v166q-451 -8 -451 -190z" />
<glyph unicode="&#x102;&#x323;" horiz-adv-x="1246" d="M-3 0l554 1335h148l551 -1335h-192l-174 440h-528l-171 -440h-188zM297 1735h149q13 -69 56.5 -123.5t119.5 -54.5q77 0 122 54t58 124h147q-27 -158 -110 -234t-217 -76q-132 0 -215 76t-110 234zM420 589h398l-193 548zM493 -266q0 55 38.5 94.5t91.5 39.5 q52 0 90.5 -39.5t38.5 -94.5t-38.5 -93.5t-90.5 -38.5q-53 0 -91.5 38.5t-38.5 93.5z" />
<glyph unicode="&#x103;&#x323;" horiz-adv-x="1013" d="M72 256q0 352 627 361q-27 208 -227 207q-149 0 -329 -69l-19 158q188 55 357 55q392 0 392 -404v-313q0 -105 40 -243l-164 -32l-27 121q-140 -121 -318 -121q-141 0 -235.5 75.5t-96.5 204.5zM181 1358h149q13 -69 56.5 -123.5t119.5 -54.5q77 0 122 54t58 124h147 q-27 -158 -110 -234t-217 -76q-132 0 -215 76t-110 234zM248 274q0 -147 164 -147q92 0 182 44q105 53 105 127v166q-451 -8 -451 -190zM377 -266q0 55 38.5 94.5t91.5 39.5q52 0 90.5 -39.5t38.5 -94.5t-38.5 -93.5t-90.5 -38.5q-53 0 -91.5 38.5t-38.5 93.5z" />
<glyph unicode="E&#x323;" horiz-adv-x="989" d="M138 0v1316h783v-150h-609v-398h543v-148h-543v-470h609v-150h-783zM366 -266q0 55 38.5 94.5t91.5 39.5q52 0 90.5 -39.5t38.5 -94.5t-38.5 -93.5t-90.5 -38.5q-53 0 -91.5 38.5t-38.5 93.5z" />
<glyph unicode="e&#x323;" horiz-adv-x="1080" d="M72 456q0 235 144 382q140 138 359 138q425 0 435 -533h-767q11 -150 107 -231.5t247 -81.5q155 0 355 72l19 -152q-203 -74 -385 -74q-224 0 -369 133.5t-145 346.5zM254 589h584q-13 108 -88 175.5t-191 67.5q-111 0 -198 -67.5t-107 -175.5zM410 -266q0 55 38.5 94.5 t91.5 39.5q52 0 90.5 -39.5t38.5 -94.5t-38.5 -93.5t-90.5 -38.5q-53 0 -91.5 38.5t-38.5 93.5z" />
<glyph unicode="E&#x309;" horiz-adv-x="989" d="M138 0v1316h783v-150h-609v-398h543v-148h-543v-470h609v-150h-783zM320 1743q21 45 74 84.5t142 39.5q79 0 130.5 -41t51.5 -130q0 -47 -25 -84.5t-54 -70.5t-52.5 -64.5t-23.5 -68.5h-125q0 45 25 81t55.5 67.5t55.5 62t25 63.5q0 48 -21 62.5t-56 14.5q-47 0 -83 -30 t-48 -47z" />
<glyph unicode="e&#x309;" horiz-adv-x="1080" d="M72 456q0 235 144 382q140 138 359 138q425 0 435 -533h-767q11 -150 107 -231.5t247 -81.5q155 0 355 72l19 -152q-203 -74 -385 -74q-224 0 -369 133.5t-145 346.5zM254 589h584q-13 108 -88 175.5t-191 67.5q-111 0 -198 -67.5t-107 -175.5zM368 1366q21 45 74 84.5 t142 39.5q79 0 130.5 -41t51.5 -130q0 -47 -25 -84.5t-54 -70.5t-52.5 -64.5t-23.5 -68.5h-125q0 45 25 81t55.5 67.5t55.5 62t25 63.5q0 48 -21 62.5t-56 14.5q-47 0 -83 -30t-48 -47z" />
<glyph unicode="E&#x303;" horiz-adv-x="989" d="M138 0v1316h783v-150h-609v-398h543v-148h-543v-470h609v-150h-783zM219 1441q0 82 40 139.5t115 57.5q25 0 56.5 -11t62 -26.5t59.5 -26t49 -10.5q53 0 52 74h120q-3 -97 -43.5 -154t-120.5 -57q-21 0 -53.5 13t-67 28t-65 27.5t-49.5 12.5q-21 0 -27 -21t-6 -46h-122z " />
<glyph unicode="e&#x303;" horiz-adv-x="1080" d="M72 456q0 235 144 382q140 138 359 138q425 0 435 -533h-767q11 -150 107 -231.5t247 -81.5q155 0 355 72l19 -152q-203 -74 -385 -74q-224 0 -369 133.5t-145 346.5zM254 589h584q-13 108 -88 175.5t-191 67.5q-111 0 -198 -67.5t-107 -175.5zM263 1064q0 82 40 139.5 t115 57.5q25 0 56.5 -11t62 -26.5t59.5 -26t49 -10.5q53 0 52 74h120q-3 -97 -43.5 -154t-120.5 -57q-21 0 -53.5 13t-67 28t-65 27.5t-49.5 12.5q-21 0 -27 -21t-6 -46h-122z" />
<glyph unicode="&#xca;&#x301;" horiz-adv-x="989" d="M138 0v1316h783v-150h-609v-398h543v-148h-543v-470h609v-150h-783zM232 1441l215 318h97l213 -318h-150l-113 197l-111 -197h-151zM684 1713l208 318l156 -50l-232 -268h-132z" />
<glyph unicode="&#xea;&#x301;" horiz-adv-x="1080" d="M72 456q0 235 144 382q140 138 359 138q425 0 435 -533h-767q11 -150 107 -231.5t247 -81.5q155 0 355 72l19 -152q-203 -74 -385 -74q-224 0 -369 133.5t-145 346.5zM254 589h584q-13 108 -88 175.5t-191 67.5q-111 0 -198 -67.5t-107 -175.5zM277 1064l215 318h97 l213 -318h-150l-113 197l-111 -197h-151zM728 1346l208 318l156 -50l-232 -268h-132z" />
<glyph unicode="&#xca;&#x300;" horiz-adv-x="989" d="M138 0v1316h783v-150h-609v-398h543v-148h-543v-470h609v-150h-783zM232 1441l215 318h97l213 -318h-150l-113 197l-111 -197h-151zM556 2026l158 50l207 -318h-132z" />
<glyph unicode="&#xea;&#x300;" horiz-adv-x="1080" d="M72 456q0 235 144 382q140 138 359 138q425 0 435 -533h-767q11 -150 107 -231.5t247 -81.5q155 0 355 72l19 -152q-203 -74 -385 -74q-224 0 -369 133.5t-145 346.5zM254 589h584q-13 108 -88 175.5t-191 67.5q-111 0 -198 -67.5t-107 -175.5zM277 1064l215 318h97 l213 -318h-150l-113 197l-111 -197h-151zM644 1583l158 50l207 -318h-132z" />
<glyph unicode="&#xca;&#x309;" horiz-adv-x="989" d="M138 0v1316h783v-150h-609v-398h543v-148h-543v-470h609v-150h-783zM232 1441l215 318h97l213 -318h-150l-113 197l-111 -197h-151zM615 1983q21 45 74 84.5t142 39.5q79 0 130.5 -41t51.5 -130q0 -47 -25 -84.5t-54 -70.5t-52.5 -64.5t-23.5 -68.5h-125q0 45 25 81 t55.5 67.5t55.5 62t25 63.5q0 48 -21 62.5t-56 14.5q-47 0 -83 -30t-48 -47z" />
<glyph unicode="&#xea;&#x309;" horiz-adv-x="1080" d="M72 456q0 235 144 382q140 138 359 138q425 0 435 -533h-767q11 -150 107 -231.5t247 -81.5q155 0 355 72l19 -152q-203 -74 -385 -74q-224 0 -369 133.5t-145 346.5zM254 589h584q-13 108 -88 175.5t-191 67.5q-111 0 -198 -67.5t-107 -175.5zM277 1064l215 318h97 l213 -318h-150l-113 197l-111 -197h-151zM702 1593q21 45 74 84.5t142 39.5q79 0 130.5 -41t51.5 -130q0 -47 -25 -84.5t-54 -70.5t-52.5 -64.5t-23.5 -68.5h-125q0 45 25 81t55.5 67.5t55.5 62t25 63.5q0 48 -21 62.5t-56 14.5q-47 0 -83 -30t-48 -47z" />
<glyph unicode="&#xca;&#x303;" horiz-adv-x="989" d="M138 0v1316h783v-150h-609v-398h543v-148h-543v-470h609v-150h-783zM219 1869q0 82 40 139.5t115 57.5q25 0 56.5 -11t62 -26.5t59.5 -26t49 -10.5q53 0 52 74h120q-3 -97 -43.5 -154t-120.5 -57q-21 0 -53.5 13t-67 28t-65 27.5t-49.5 12.5q-21 0 -27 -21t-6 -46h-122z M232 1441l215 318h97l213 -318h-150l-113 197l-111 -197h-151z" />
<glyph unicode="&#xea;&#x303;" horiz-adv-x="1080" d="M72 456q0 235 144 382q140 138 359 138q425 0 435 -533h-767q11 -150 107 -231.5t247 -81.5q155 0 355 72l19 -152q-203 -74 -385 -74q-224 0 -369 133.5t-145 346.5zM254 589h584q-13 108 -88 175.5t-191 67.5q-111 0 -198 -67.5t-107 -175.5zM263 1443q0 82 40 139.5 t115 57.5q25 0 56.5 -11t62 -26.5t59.5 -26t49 -10.5q53 0 52 74h120q-3 -97 -43.5 -154t-120.5 -57q-21 0 -53.5 13t-67 28t-65 27.5t-49.5 12.5q-21 0 -27 -21t-6 -46h-122zM277 1064l215 318h97l213 -318h-150l-113 197l-111 -197h-151z" />
<glyph unicode="&#xca;&#x323;" horiz-adv-x="989" d="M138 0v1316h783v-150h-609v-398h543v-148h-543v-470h609v-150h-783zM232 1441l215 318h97l213 -318h-150l-113 197l-111 -197h-151zM366 -266q0 55 38.5 94.5t91.5 39.5q52 0 90.5 -39.5t38.5 -94.5t-38.5 -93.5t-90.5 -38.5q-53 0 -91.5 38.5t-38.5 93.5z" />
<glyph unicode="&#xea;&#x323;" horiz-adv-x="1080" d="M72 456q0 235 144 382q140 138 359 138q425 0 435 -533h-767q11 -150 107 -231.5t247 -81.5q155 0 355 72l19 -152q-203 -74 -385 -74q-224 0 -369 133.5t-145 346.5zM254 589h584q-13 108 -88 175.5t-191 67.5q-111 0 -198 -67.5t-107 -175.5zM277 1064l215 318h97 l213 -318h-150l-113 197l-111 -197h-151zM410 -266q0 55 38.5 94.5t91.5 39.5q52 0 90.5 -39.5t38.5 -94.5t-38.5 -93.5t-90.5 -38.5q-53 0 -91.5 38.5t-38.5 93.5z" />
<glyph unicode="I&#x309;" horiz-adv-x="449" d="M40 1743q21 45 74 84.5t142 39.5q79 0 130.5 -41t51.5 -130q0 -47 -25 -84.5t-54 -70.5t-52.5 -64.5t-23.5 -68.5h-125q0 45 25 81t55.5 67.5t55.5 62t25 63.5q0 48 -21 62.5t-56 14.5q-47 0 -83 -30t-48 -47zM138 0v1316h174v-1316h-174z" />
<glyph unicode="i&#x309;" horiz-adv-x="449" d="M42 1366q21 45 74 84.5t142 39.5q79 0 130.5 -41t51.5 -130q0 -47 -25 -84.5t-54 -70.5t-52.5 -64.5t-23.5 -68.5h-125q0 45 25 81t55.5 67.5t55.5 62t25 63.5q0 48 -21 62.5t-56 14.5q-47 0 -83 -30t-48 -47zM138 0v940h174v-940h-174z" />
<glyph unicode="I&#x323;" horiz-adv-x="449" d="M113 -266q0 55 38.5 94.5t91.5 39.5q52 0 90.5 -39.5t38.5 -94.5t-38.5 -93.5t-90.5 -38.5q-53 0 -91.5 38.5t-38.5 93.5zM138 0v1316h174v-1316h-174z" />
<glyph unicode="i&#x323;" horiz-adv-x="449" d="M89 1216q0 56 38.5 94.5t93.5 38.5q56 0 94.5 -38.5t38.5 -94.5q0 -55 -38.5 -93.5t-94.5 -38.5q-55 0 -93.5 38.5t-38.5 93.5zM113 -266q0 55 38.5 94.5t91.5 39.5q52 0 90.5 -39.5t38.5 -94.5t-38.5 -93.5t-90.5 -38.5q-53 0 -91.5 38.5t-38.5 93.5zM138 0v940h174 v-940h-174z" />
<glyph unicode="O&#x323;" horiz-adv-x="1431" d="M72 655q0 290 179.5 488t464.5 198q284 0 464.5 -198t180.5 -488q0 -291 -180.5 -486.5t-464.5 -195.5q-285 0 -464.5 195.5t-179.5 486.5zM243 657q0 -226 130.5 -379.5t342.5 -153.5q213 0 343 153.5t130 379.5q0 227 -130 381t-343 154q-214 0 -343.5 -154 t-129.5 -381zM587 -266q0 55 38.5 94.5t91.5 39.5q52 0 90.5 -39.5t38.5 -94.5t-38.5 -93.5t-90.5 -38.5q-53 0 -91.5 38.5t-38.5 93.5z" />
<glyph unicode="o&#x323;" horiz-adv-x="1138" d="M72 475q0 211 141 356t357 145t357 -145t141 -356q0 -210 -141 -353.5t-357 -143.5t-357 144t-141 353zM243 475q0 -150 91 -250.5t236 -100.5q143 0 234.5 100.5t91.5 250.5t-91.5 250.5t-234.5 100.5t-235 -100.5t-92 -250.5zM440 -266q0 55 38.5 94.5t91.5 39.5 q52 0 90.5 -39.5t38.5 -94.5t-38.5 -93.5t-90.5 -38.5q-53 0 -91.5 38.5t-38.5 93.5z" />
<glyph unicode="O&#x309;" horiz-adv-x="1431" d="M72 655q0 290 179.5 488t464.5 198q284 0 464.5 -198t180.5 -488q0 -291 -180.5 -486.5t-464.5 -195.5q-285 0 -464.5 195.5t-179.5 486.5zM243 657q0 -226 130.5 -379.5t342.5 -153.5q213 0 343 153.5t130 379.5q0 227 -130 381t-343 154q-214 0 -343.5 -154 t-129.5 -381zM517 1743q21 45 74 84.5t142 39.5q79 0 130.5 -41t51.5 -130q0 -47 -25 -84.5t-54 -70.5t-52.5 -64.5t-23.5 -68.5h-125q0 45 25 81t55.5 67.5t55.5 62t25 63.5q0 48 -21 62.5t-56 14.5q-47 0 -83 -30t-48 -47z" />
<glyph unicode="o&#x309;" horiz-adv-x="1138" d="M72 475q0 211 141 356t357 145t357 -145t141 -356q0 -210 -141 -353.5t-357 -143.5t-357 144t-141 353zM243 475q0 -150 91 -250.5t236 -100.5q143 0 234.5 100.5t91.5 250.5t-91.5 250.5t-234.5 100.5t-235 -100.5t-92 -250.5zM370 1366q21 45 74 84.5t142 39.5 q79 0 130.5 -41t51.5 -130q0 -47 -25 -84.5t-54 -70.5t-52.5 -64.5t-23.5 -68.5h-125q0 45 25 81t55.5 67.5t55.5 62t25 63.5q0 48 -21 62.5t-56 14.5q-47 0 -83 -30t-48 -47z" />
<glyph unicode="&#xd4;&#x301;" horiz-adv-x="1431" d="M72 655q0 290 179.5 488t464.5 198q284 0 464.5 -198t180.5 -488q0 -291 -180.5 -486.5t-464.5 -195.5q-285 0 -464.5 195.5t-179.5 486.5zM243 657q0 -226 130.5 -379.5t342.5 -153.5q213 0 343 153.5t130 379.5q0 227 -130 381t-343 154q-214 0 -343.5 -154 t-129.5 -381zM453 1441l215 318h97l213 -318h-150l-113 197l-111 -197h-151zM995 1634l208 318l156 -50l-232 -268h-132z" />
<glyph unicode="&#xf4;&#x301;" horiz-adv-x="1193" d="M99 475q0 211 141 356t357 145t357 -145t141 -356q0 -210 -141 -353.5t-357 -143.5t-357 144t-141 353zM270 475q0 -150 91 -250.5t236 -100.5q143 0 234.5 100.5t91.5 250.5t-91.5 250.5t-234.5 100.5t-235 -100.5t-92 -250.5zM335 1064l215 318h97l213 -318h-150 l-113 197l-111 -197h-151zM821 1302l208 318l156 -50l-232 -268h-132z" />
<glyph unicode="&#xd4;&#x300;" horiz-adv-x="1431" d="M72 655q0 290 179.5 488t464.5 198q284 0 464.5 -198t180.5 -488q0 -291 -180.5 -486.5t-464.5 -195.5q-285 0 -464.5 195.5t-179.5 486.5zM243 657q0 -226 130.5 -379.5t342.5 -153.5q213 0 343 153.5t130 379.5q0 227 -130 381t-343 154q-214 0 -343.5 -154 t-129.5 -381zM453 1441l215 318h97l213 -318h-150l-113 197l-111 -197h-151zM878 1902l158 50l207 -318h-132z" />
<glyph unicode="&#xf4;&#x300;" horiz-adv-x="1193" d="M99 475q0 211 141 356t357 145t357 -145t141 -356q0 -210 -141 -353.5t-357 -143.5t-357 144t-141 353zM270 475q0 -150 91 -250.5t236 -100.5q143 0 234.5 100.5t91.5 250.5t-91.5 250.5t-234.5 100.5t-235 -100.5t-92 -250.5zM335 1064l215 318h97l213 -318h-150 l-113 197l-111 -197h-151zM730 1570l158 50l207 -318h-132z" />
<glyph unicode="&#xd4;&#x309;" horiz-adv-x="1431" d="M72 655q0 290 179.5 488t464.5 198q284 0 464.5 -198t180.5 -488q0 -291 -180.5 -486.5t-464.5 -195.5q-285 0 -464.5 195.5t-179.5 486.5zM243 657q0 -226 130.5 -379.5t342.5 -153.5q213 0 343 153.5t130 379.5q0 227 -130 381t-343 154q-214 0 -343.5 -154 t-129.5 -381zM453 1441l215 318h97l213 -318h-150l-113 197l-111 -197h-151zM868 1986q21 45 74 84.5t142 39.5q79 0 130.5 -41t51.5 -130q0 -47 -25 -84.5t-54 -70.5t-52.5 -64.5t-23.5 -68.5h-125q0 45 25 81t55.5 67.5t55.5 62t25 63.5q0 48 -21 62.5t-56 14.5 q-47 0 -83 -30t-48 -47z" />
<glyph unicode="&#xf4;&#x309;" horiz-adv-x="1193" d="M99 475q0 211 141 356t357 145t357 -145t141 -356q0 -210 -141 -353.5t-357 -143.5t-357 144t-141 353zM270 475q0 -150 91 -250.5t236 -100.5q143 0 234.5 100.5t91.5 250.5t-91.5 250.5t-234.5 100.5t-235 -100.5t-92 -250.5zM335 1064l215 318h97l213 -318h-150 l-113 197l-111 -197h-151zM742 1627q21 45 74 84.5t142 39.5q79 0 130.5 -41t51.5 -130q0 -47 -25 -84.5t-54 -70.5t-52.5 -64.5t-23.5 -68.5h-125q0 45 25 81t55.5 67.5t55.5 62t25 63.5q0 48 -21 62.5t-56 14.5q-47 0 -83 -30t-48 -47z" />
<glyph unicode="&#xd4;&#x303;" horiz-adv-x="1431" d="M72 655q0 290 179.5 488t464.5 198q284 0 464.5 -198t180.5 -488q0 -291 -180.5 -486.5t-464.5 -195.5q-285 0 -464.5 195.5t-179.5 486.5zM243 657q0 -226 130.5 -379.5t342.5 -153.5q213 0 343 153.5t130 379.5q0 227 -130 381t-343 154q-214 0 -343.5 -154 t-129.5 -381zM440 1871q0 82 40 139.5t115 57.5q25 0 56.5 -11t62 -26.5t59.5 -26t49 -10.5q53 0 52 74h120q-3 -97 -43.5 -154t-120.5 -57q-21 0 -53.5 13t-67 28t-65 27.5t-49.5 12.5q-21 0 -27 -21t-6 -46h-122zM453 1441l215 318h97l213 -318h-150l-113 197l-111 -197 h-151z" />
<glyph unicode="&#xf4;&#x303;" horiz-adv-x="1193" d="M99 475q0 211 141 356t357 145t357 -145t141 -356q0 -210 -141 -353.5t-357 -143.5t-357 144t-141 353zM270 475q0 -150 91 -250.5t236 -100.5q143 0 234.5 100.5t91.5 250.5t-91.5 250.5t-234.5 100.5t-235 -100.5t-92 -250.5zM321 1462q0 82 40 139.5t115 57.5 q25 0 56.5 -11t62 -26.5t59.5 -26t49 -10.5q53 0 52 74h120q-3 -97 -43.5 -154t-120.5 -57q-21 0 -53.5 13t-67 28t-65 27.5t-49.5 12.5q-21 0 -27 -21t-6 -46h-122zM335 1064l215 318h97l213 -318h-150l-113 197l-111 -197h-151z" />
<glyph unicode="&#xd4;&#x323;" horiz-adv-x="1431" d="M72 655q0 290 179.5 488t464.5 198q284 0 464.5 -198t180.5 -488q0 -291 -180.5 -486.5t-464.5 -195.5q-285 0 -464.5 195.5t-179.5 486.5zM243 657q0 -226 130.5 -379.5t342.5 -153.5q213 0 343 153.5t130 379.5q0 227 -130 381t-343 154q-214 0 -343.5 -154 t-129.5 -381zM453 1441l215 318h97l213 -318h-150l-113 197l-111 -197h-151zM587 -266q0 55 38.5 94.5t91.5 39.5q52 0 90.5 -39.5t38.5 -94.5t-38.5 -93.5t-90.5 -38.5q-53 0 -91.5 38.5t-38.5 93.5z" />
<glyph unicode="&#xf4;&#x323;" horiz-adv-x="1138" d="M72 475q0 211 141 356t357 145t357 -145t141 -356q0 -210 -141 -353.5t-357 -143.5t-357 144t-141 353zM243 475q0 -150 91 -250.5t236 -100.5q143 0 234.5 100.5t91.5 250.5t-91.5 250.5t-234.5 100.5t-235 -100.5t-92 -250.5zM308 1064l215 318h97l213 -318h-150 l-113 197l-111 -197h-151zM440 -266q0 55 38.5 94.5t91.5 39.5q52 0 90.5 -39.5t38.5 -94.5t-38.5 -93.5t-90.5 -38.5q-53 0 -91.5 38.5t-38.5 93.5z" />
<glyph unicode="&#x1a0;&#x301;" horiz-adv-x="1431" d="M72 655q0 290 179.5 488t464.5 198q198 0 355 -102q71 92 71 218h149q0 -161 -119 -307q189 -197 189 -495q0 -291 -180.5 -486.5t-464.5 -195.5q-285 0 -464.5 195.5t-179.5 486.5zM243 657q0 -226 130.5 -379.5t342.5 -153.5q213 0 343 153.5t130 379.5q0 227 -130 381 t-343 154q-214 0 -343.5 -154t-129.5 -381zM534 1441l208 318l156 -50l-232 -268h-132z" />
<glyph unicode="&#x1a1;&#x301;" horiz-adv-x="1193" d="M72 475q0 211 141 356t357 145q193 0 332 -124q55 92 55 196h149q0 -153 -116 -301q78 -122 78 -272q0 -210 -141 -353.5t-357 -143.5t-357 144t-141 353zM243 475q0 -150 91 -250.5t236 -100.5q143 0 234.5 100.5t91.5 250.5t-91.5 250.5t-234.5 100.5t-235 -100.5 t-92 -250.5zM415 1064l208 318l156 -50l-232 -268h-132z" />
<glyph unicode="&#x1a0;&#x300;" horiz-adv-x="1431" d="M72 655q0 290 179.5 488t464.5 198q198 0 355 -102q71 92 71 218h149q0 -161 -119 -307q189 -197 189 -495q0 -291 -180.5 -486.5t-464.5 -195.5q-285 0 -464.5 195.5t-179.5 486.5zM243 657q0 -226 130.5 -379.5t342.5 -153.5q213 0 343 153.5t130 379.5q0 227 -130 381 t-343 154q-214 0 -343.5 -154t-129.5 -381zM533 1709l158 50l207 -318h-132z" />
<glyph unicode="&#x1a1;&#x300;" horiz-adv-x="1193" d="M72 475q0 211 141 356t357 145q193 0 332 -124q55 92 55 196h149q0 -153 -116 -301q78 -122 78 -272q0 -210 -141 -353.5t-357 -143.5t-357 144t-141 353zM243 475q0 -150 91 -250.5t236 -100.5q143 0 234.5 100.5t91.5 250.5t-91.5 250.5t-234.5 100.5t-235 -100.5 t-92 -250.5zM414 1332l158 50l207 -318h-132z" />
<glyph unicode="&#x1a0;&#x309;" horiz-adv-x="1431" d="M72 655q0 290 179.5 488t464.5 198q198 0 355 -102q71 92 71 218h149q0 -161 -119 -307q189 -197 189 -495q0 -291 -180.5 -486.5t-464.5 -195.5q-285 0 -464.5 195.5t-179.5 486.5zM243 657q0 -226 130.5 -379.5t342.5 -153.5q213 0 343 153.5t130 379.5q0 227 -130 381 t-343 154q-214 0 -343.5 -154t-129.5 -381zM517 1753q21 45 74 84.5t142 39.5q79 0 130.5 -41t51.5 -130q0 -47 -25 -84.5t-54 -70.5t-52.5 -64.5t-23.5 -68.5h-125q0 45 25 81t55.5 67.5t55.5 62t25 63.5q0 48 -21 62.5t-56 14.5q-47 0 -83 -30t-48 -47z" />
<glyph unicode="&#x1a1;&#x309;" horiz-adv-x="1193" d="M72 475q0 211 141 356t357 145q193 0 332 -124q55 92 55 196h149q0 -153 -116 -301q78 -122 78 -272q0 -210 -141 -353.5t-357 -143.5t-357 144t-141 353zM243 475q0 -150 91 -250.5t236 -100.5q143 0 234.5 100.5t91.5 250.5t-91.5 250.5t-234.5 100.5t-235 -100.5 t-92 -250.5zM399 1377q21 45 74 84.5t142 39.5q79 0 130.5 -41t51.5 -130q0 -47 -25 -84.5t-54 -70.5t-52.5 -64.5t-23.5 -68.5h-125q0 45 25 81t55.5 67.5t55.5 62t25 63.5q0 48 -21 62.5t-56 14.5q-47 0 -83 -30t-48 -47z" />
<glyph unicode="&#x1a0;&#x303;" horiz-adv-x="1431" d="M72 655q0 290 179.5 488t464.5 198q198 0 355 -102q71 92 71 218h149q0 -161 -119 -307q189 -197 189 -495q0 -291 -180.5 -486.5t-464.5 -195.5q-285 0 -464.5 195.5t-179.5 486.5zM243 657q0 -226 130.5 -379.5t342.5 -153.5q213 0 343 153.5t130 379.5q0 227 -130 381 t-343 154q-214 0 -343.5 -154t-129.5 -381zM440 1441q0 82 40 139.5t115 57.5q25 0 56.5 -11t62 -26.5t59.5 -26t49 -10.5q53 0 52 74h120q-3 -97 -43.5 -154t-120.5 -57q-21 0 -53.5 13t-67 28t-65 27.5t-49.5 12.5q-21 0 -27 -21t-6 -46h-122z" />
<glyph unicode="&#x1a1;&#x303;" horiz-adv-x="1193" d="M72 475q0 211 141 356t357 145q193 0 332 -124q55 92 55 196h149q0 -153 -116 -301q78 -122 78 -272q0 -210 -141 -353.5t-357 -143.5t-357 144t-141 353zM243 475q0 -150 91 -250.5t236 -100.5q143 0 234.5 100.5t91.5 250.5t-91.5 250.5t-234.5 100.5t-235 -100.5 t-92 -250.5zM321 1064q0 82 40 139.5t115 57.5q25 0 56.5 -11t62 -26.5t59.5 -26t49 -10.5q53 0 52 74h120q-3 -97 -43.5 -154t-120.5 -57q-21 0 -53.5 13t-67 28t-65 27.5t-49.5 12.5q-21 0 -27 -21t-6 -46h-122z" />
<glyph unicode="&#x1a0;&#x323;" horiz-adv-x="1431" d="M72 655q0 290 179.5 488t464.5 198q198 0 355 -102q71 92 71 218h149q0 -161 -119 -307q189 -197 189 -495q0 -291 -180.5 -486.5t-464.5 -195.5q-285 0 -464.5 195.5t-179.5 486.5zM243 657q0 -226 130.5 -379.5t342.5 -153.5q213 0 343 153.5t130 379.5q0 227 -130 381 t-343 154q-214 0 -343.5 -154t-129.5 -381zM587 -266q0 55 38.5 94.5t91.5 39.5q52 0 90.5 -39.5t38.5 -94.5t-38.5 -93.5t-90.5 -38.5q-53 0 -91.5 38.5t-38.5 93.5z" />
<glyph unicode="&#x1a1;&#x323;" horiz-adv-x="1193" d="M72 475q0 211 141 356t357 145q193 0 332 -124q55 92 55 196h149q0 -153 -116 -301q78 -122 78 -272q0 -210 -141 -353.5t-357 -143.5t-357 144t-141 353zM243 475q0 -150 91 -250.5t236 -100.5q143 0 234.5 100.5t91.5 250.5t-91.5 250.5t-234.5 100.5t-235 -100.5 t-92 -250.5zM468 -266q0 55 38.5 94.5t91.5 39.5q52 0 90.5 -39.5t38.5 -94.5t-38.5 -93.5t-90.5 -38.5q-53 0 -91.5 38.5t-38.5 93.5z" />
<glyph unicode="U&#x323;" horiz-adv-x="1332" d="M138 562v754h177v-754q0 -438 352 -438q351 0 351 438v754h177v-754q0 -586 -528 -586t-529 586zM537 -266q0 55 38.5 94.5t91.5 39.5q52 0 90.5 -39.5t38.5 -94.5t-38.5 -93.5t-90.5 -38.5q-53 0 -91.5 38.5t-38.5 93.5z" />
<glyph unicode="u&#x323;" horiz-adv-x="1155" d="M138 425v515h174v-497q0 -312 239 -313q100 0 196.5 76t96.5 179v555h174v-689q0 -93 58 -240l-169 -33q-27 67 -50 160q-166 -164 -329 -162q-390 0 -390 449zM448 -266q0 55 38.5 94.5t91.5 39.5q52 0 90.5 -39.5t38.5 -94.5t-38.5 -93.5t-90.5 -38.5q-53 0 -91.5 38.5 t-38.5 93.5z" />
<glyph unicode="U&#x309;" horiz-adv-x="1332" d="M138 562v754h177v-754q0 -438 352 -438q351 0 351 438v754h177v-754q0 -586 -528 -586t-529 586zM467 1743q21 45 74 84.5t142 39.5q79 0 130.5 -41t51.5 -130q0 -47 -25 -84.5t-54 -70.5t-52.5 -64.5t-23.5 -68.5h-125q0 45 25 81t55.5 67.5t55.5 62t25 63.5 q0 48 -21 62.5t-56 14.5q-47 0 -83 -30t-48 -47z" />
<glyph unicode="u&#x309;" horiz-adv-x="1155" d="M138 425v515h174v-497q0 -312 239 -313q100 0 196.5 76t96.5 179v555h174v-689q0 -93 58 -240l-169 -33q-27 67 -50 160q-166 -164 -329 -162q-390 0 -390 449zM380 1366q21 45 74 84.5t142 39.5q79 0 130.5 -41t51.5 -130q0 -47 -25 -84.5t-54 -70.5t-52.5 -64.5 t-23.5 -68.5h-125q0 45 25 81t55.5 67.5t55.5 62t25 63.5q0 48 -21 62.5t-56 14.5q-47 0 -83 -30t-48 -47z" />
<glyph unicode="&#x1af;&#x301;" horiz-adv-x="1332" d="M138 562v754h177v-754q0 -438 352 -438q351 0 351 438v754h177v-110q61 33 98 106t37 145h150q-8 -130 -90 -250t-195 -162v-483q0 -586 -528 -586t-529 586zM484 1441l208 318l156 -50l-232 -268h-132z" />
<glyph unicode="&#x1b0;&#x301;" horiz-adv-x="1143" d="M130 425v515h174v-497q0 -312 237 -313q100 0 196.5 76t96.5 179v555h176v-169q55 31 97.5 107t42.5 148h150q0 -108 -81 -232q-89 -135 -209 -180v-363q0 -93 58 -240l-169 -33q-24 53 -42 133q-174 -135 -337 -135q-390 0 -390 449zM391 1064l208 318l156 -50 l-232 -268h-132z" />
<glyph unicode="&#x1af;&#x300;" horiz-adv-x="1332" d="M138 562v754h177v-754q0 -438 352 -438q351 0 351 438v754h177v-110q61 33 98 106t37 145h150q-8 -130 -90 -250t-195 -162v-483q0 -586 -528 -586t-529 586zM483 1709l158 50l207 -318h-132z" />
<glyph unicode="&#x1b0;&#x300;" horiz-adv-x="1143" d="M130 425v515h174v-497q0 -312 237 -313q100 0 196.5 76t96.5 179v555h176v-169q55 31 97.5 107t42.5 148h150q0 -108 -81 -232q-89 -135 -209 -180v-363q0 -93 58 -240l-169 -33q-24 53 -42 133q-174 -135 -337 -135q-390 0 -390 449zM390 1332l158 50l207 -318h-132z " />
<glyph unicode="&#x1af;&#x309;" horiz-adv-x="1332" d="M138 562v754h177v-754q0 -438 352 -438q351 0 351 438v754h177v-110q61 33 98 106t37 145h150q-8 -130 -90 -250t-195 -162v-483q0 -586 -528 -586t-529 586zM467 1743q21 45 74 84.5t142 39.5q79 0 130.5 -41t51.5 -130q0 -47 -25 -84.5t-54 -70.5t-52.5 -64.5 t-23.5 -68.5h-125q0 45 25 81t55.5 67.5t55.5 62t25 63.5q0 48 -21 62.5t-56 14.5q-47 0 -83 -30t-48 -47z" />
<glyph unicode="&#x1b0;&#x309;" horiz-adv-x="1143" d="M130 425v515h174v-497q0 -312 237 -313q100 0 196.5 76t96.5 179v555h176v-169q55 31 97.5 107t42.5 148h150q0 -108 -81 -232q-89 -135 -209 -180v-363q0 -93 58 -240l-169 -33q-24 53 -42 133q-174 -135 -337 -135q-390 0 -390 449zM373 1366q21 45 74 84.5t142 39.5 q79 0 130.5 -41t51.5 -130q0 -47 -25 -84.5t-54 -70.5t-52.5 -64.5t-23.5 -68.5h-125q0 45 25 81t55.5 67.5t55.5 62t25 63.5q0 48 -21 62.5t-56 14.5q-47 0 -83 -30t-48 -47z" />
<glyph unicode="&#x1af;&#x303;" horiz-adv-x="1332" d="M138 562v754h177v-754q0 -438 352 -438q351 0 351 438v754h177v-110q61 33 98 106t37 145h150q-8 -130 -90 -250t-195 -162v-483q0 -586 -528 -586t-529 586zM390 1441q0 82 40 139.5t115 57.5q25 0 56.5 -11t62 -26.5t59.5 -26t49 -10.5q53 0 52 74h120 q-3 -97 -43.5 -154t-120.5 -57q-21 0 -53.5 13t-67 28t-65 27.5t-49.5 12.5q-21 0 -27 -21t-6 -46h-122z" />
<glyph unicode="&#x1b0;&#x303;" horiz-adv-x="1143" d="M130 425v515h174v-497q0 -312 237 -313q100 0 196.5 76t96.5 179v555h176v-169q55 31 97.5 107t42.5 148h150q0 -108 -81 -232q-89 -135 -209 -180v-363q0 -93 58 -240l-169 -33q-24 53 -42 133q-174 -135 -337 -135q-390 0 -390 449zM296 1064q0 82 40 139.5t115 57.5 q25 0 56.5 -11t62 -26.5t59.5 -26t49 -10.5q53 0 52 74h120q-3 -97 -43.5 -154t-120.5 -57q-21 0 -53.5 13t-67 28t-65 27.5t-49.5 12.5q-21 0 -27 -21t-6 -46h-122z" />
<glyph unicode="&#x1af;&#x323;" horiz-adv-x="1332" d="M138 562v754h177v-754q0 -438 352 -438q351 0 351 438v754h177v-110q61 33 98 106t37 145h150q-8 -130 -90 -250t-195 -162v-483q0 -586 -528 -586t-529 586zM537 -266q0 55 38.5 94.5t91.5 39.5q52 0 90.5 -39.5t38.5 -94.5t-38.5 -93.5t-90.5 -38.5q-53 0 -91.5 38.5 t-38.5 93.5z" />
<glyph unicode="&#x1b0;&#x323;" horiz-adv-x="1143" d="M130 425v515h174v-497q0 -312 237 -313q100 0 196.5 76t96.5 179v555h176v-169q55 31 97.5 107t42.5 148h150q0 -108 -81 -232q-89 -135 -209 -180v-363q0 -93 58 -240l-169 -33q-24 53 -42 133q-174 -135 -337 -135q-390 0 -390 449zM443 -266q0 55 38.5 94.5t91.5 39.5 q52 0 90.5 -39.5t38.5 -94.5t-38.5 -93.5t-90.5 -38.5q-53 0 -91.5 38.5t-38.5 93.5z" />
<glyph unicode="Y&#x300;" horiz-adv-x="1094" d="M-16 1316h201l366 -591l362 591h198l-475 -738v-578h-172v575zM364 1709l158 50l207 -318h-132z" />
<glyph unicode="y&#x300;" horiz-adv-x="997" d="M-11 940h191l326 -697l309 697h191l-431 -921q-174 -367 -486 -436l-44 143q245 55 361 343zM314 1332l158 50l207 -318h-132z" />
<glyph unicode="Y&#x323;" horiz-adv-x="1094" d="M-16 1316h201l366 -591l362 591h198l-475 -738v-578h-172v575zM418 -266q0 55 38.5 94.5t91.5 39.5q52 0 90.5 -39.5t38.5 -94.5t-38.5 -93.5t-90.5 -38.5q-53 0 -91.5 38.5t-38.5 93.5z" />
<glyph unicode="y&#x323;" horiz-adv-x="997" d="M-11 940h191l326 -697l309 697h191l-431 -921q-174 -367 -486 -436l-44 143q245 55 361 343zM669 -266q0 55 38.5 94.5t91.5 39.5q52 0 90.5 -39.5t38.5 -94.5t-38.5 -93.5t-90.5 -38.5q-53 0 -91.5 38.5t-38.5 93.5z" />
<glyph unicode="Y&#x309;" horiz-adv-x="1094" d="M-16 1316h201l366 -591l362 591h198l-475 -738v-578h-172v575zM349 1743q21 45 74 84.5t142 39.5q79 0 130.5 -41t51.5 -130q0 -47 -25 -84.5t-54 -70.5t-52.5 -64.5t-23.5 -68.5h-125q0 45 25 81t55.5 67.5t55.5 62t25 63.5q0 48 -21 62.5t-56 14.5q-47 0 -83 -30 t-48 -47z" />
<glyph unicode="y&#x309;" horiz-adv-x="997" d="M-11 940h191l326 -697l309 697h191l-431 -921q-174 -367 -486 -436l-44 143q245 55 361 343zM299 1366q21 45 74 84.5t142 39.5q79 0 130.5 -41t51.5 -130q0 -47 -25 -84.5t-54 -70.5t-52.5 -64.5t-23.5 -68.5h-125q0 45 25 81t55.5 67.5t55.5 62t25 63.5q0 48 -21 62.5 t-56 14.5q-47 0 -83 -30t-48 -47z" />
<glyph unicode="Y&#x303;" horiz-adv-x="1094" d="M-16 1316h201l366 -591l362 591h198l-475 -738v-578h-172v575zM271 1441q0 82 40 139.5t115 57.5q25 0 56.5 -11t62 -26.5t59.5 -26t49 -10.5q53 0 52 74h120q-3 -97 -43.5 -154t-120.5 -57q-21 0 -53.5 13t-67 28t-65 27.5t-49.5 12.5q-21 0 -27 -21t-6 -46h-122z" />
<glyph unicode="y&#x303;" horiz-adv-x="997" d="M-11 940h191l326 -697l309 697h191l-431 -921q-174 -367 -486 -436l-44 143q245 55 361 343zM221 1064q0 82 40 139.5t115 57.5q25 0 56.5 -11t62 -26.5t59.5 -26t49 -10.5q53 0 52 74h120q-3 -97 -43.5 -154t-120.5 -57q-21 0 -53.5 13t-67 28t-65 27.5t-49.5 12.5 q-21 0 -27 -21t-6 -46h-122z" />
<glyph unicode="&#xe4f;&#x22;" horiz-adv-x="1240" d="M155 451q0 193 136.5 330t330.5 137q188 0 327.5 -139.5t139.5 -327.5q0 -193 -137 -330t-330 -137t-330 136t-137 331zM251 451q0 -155 109.5 -264.5t261.5 -109.5q153 0 261.5 110.5t108.5 263.5q0 155 -108 262.5t-262 107.5q-152 0 -261.5 -107.5t-109.5 -262.5z M348 451q0 113 80.5 193.5t193.5 80.5q114 0 194 -80.5t80 -193.5t-80 -195t-194 -82q-113 0 -193.5 82t-80.5 195zM406 1440h158l-29 -426h-100zM446 451q0 -74 51 -125.5t125 -51.5q75 0 126 51.5t51 125.5q0 71 -51 124t-126 53q-74 0 -125 -53t-51 -124zM674 1440h158 l-28 -426h-101z" />
<glyph unicode="&#xe24;&#xe32;" horiz-adv-x="1652" d="M82 741q6 172 134 282q116 103 296 103q198 0 313 -106.5t115 -289.5v-1117h-172v1120q0 113 -69 179.5t-182 66.5q-166 0 -251 -141q130 -24 185 -125q-141 -83 -142 -199v-129q19 11 53 11q85 0 145 -59.5t60 -148.5t-60.5 -149.5t-150.5 -60.5q-91 0 -154.5 63.5 t-63.5 160.5v323q0 116 113 182q-69 48 -169 34zM269 185q0 -39 27.5 -66t65.5 -27q39 0 66.5 27t27.5 66t-27.5 66.5t-66.5 27.5t-66 -27.5t-27 -66.5zM770 763q8 166 108.5 264.5t266.5 98.5q155 0 261.5 -79t106.5 -240v-1194h-171v1192q0 77 -52.5 125.5t-144.5 48.5 t-149.5 -61t-59.5 -155h-166z" />
<glyph unicode="&#xe26;&#xe32;" horiz-adv-x="1738" d="M22 188q0 85 60.5 146.5t144.5 61.5q34 0 42 -9l-18 172q0 97 95 148q-75 48 -169 34q3 172 127 282q119 103 298 103q193 0 312.5 -108t119.5 -288v-1117h-171v1120q0 111 -73.5 178.5t-183.5 67.5q-169 0 -247 -141q135 -27 185 -125q-74 -42 -98 -69q-37 -45 -37 -119 q0 -61 14 -175.5t14 -161.5q0 -89 -59 -149.5t-146 -60.5q-89 0 -149.5 61t-60.5 149zM138 188q0 -40 27.5 -67t66.5 -27t67 27t28 67q0 39 -28 66.5t-67 27.5t-66.5 -27.5t-27.5 -66.5zM855 763q8 166 108.5 264.5t266.5 98.5q155 0 261.5 -79t106.5 -240v-1194h-171v1192 q0 77 -52.5 125.5t-144.5 48.5t-149.5 -61t-59.5 -155h-166z" />
<glyph unicode="fi" horiz-adv-x="1119" d="M47 796v144h161q0 224 119 348.5t309 124.5q198 0 327 -149l-92 -125q-108 125 -241 125q-99 0 -171 -84q-80 -92 -80 -240h611v-940h-175v796h-436v-796h-174v796h-158z" />
<glyph unicode="fl" horiz-adv-x="1256" d="M47 796v144h161q0 224 119 348.5t309 124.5q221 0 354 -178v-713q0 -213 66 -301q59 -75 191 -86l-20 -157q-412 19 -412 505v712q-82 69 -185 69q-99 0 -171 -84q-80 -92 -80 -240h326v-144h-326v-796h-174v796h-158z" />
<glyph unicode="PSK&#x2e;Design&#x28;c&#x29;" horiz-adv-x="2636" d="M161 551v69h2237v-69h-2237zM182 338q0 116 137 116q102 0 112 -84h-72q-3 36 -47 36q-64 0 -64 -68q0 -69 61 -69q47 0 50 32h72q-8 -82 -119 -82q-130 0 -130 119zM198 1012v622h306q245 0 245 -199q0 -202 -277 -202h-113v-221h-161zM359 1358h105q122 0 122 80 q0 77 -122 77h-105v-157zM448 0l56 119h40l50 -119h-35l-11 24h-55l-12 -24h-33zM448 335q0 113 138 113q136 0 136 -113q0 -116 -142 -116q-132 0 -132 116zM501 47h40l-19 47zM512 335q0 -69 74 -69q69 0 69 66q0 72 -69 72q-74 0 -74 -69zM599 0v119h29v-95h60v-24h-89z M697 0v119h28v-95h61v-24h-89zM707 992q0 45 11 87h106q-3 -19 -3 -48q0 -218 274 -218q121 0 219 58q124 74 124 213q0 105 -145 161q-129 44 -262 87q-143 61 -144 177q0 188 144 288q127 85 330 86q137 0 219 -58t82 -163q0 -42 -14 -92h-100q6 39 6 53q0 166 -182 166 q-166 0 -264 -63.5t-98 -171.5q0 -72 49 -108.5t208.5 -81.5t223 -99t63.5 -143q0 -219 -161 -320q-127 -82 -325 -84q-169 0 -265 72.5t-96 201.5zM752 230v218h113q98 -1 98 -75q0 -75 -106 -75h-47v-68h-58zM810 343h42q47 -1 47 30q0 27 -47 28h-42v-58zM849 0v119h58 q47 1 47 -30q0 -21 -22 -31q16 -5 28 -58h-37q0 11 -2 22q-8 24 -25 25h-17v-47h-30zM879 72h17q22 0 22 10q0 14 -22 15h-17v-25zM954 448h72l66 -94q8 10 61 94h63l-100 -144v-74h-63v76zM973 0v119h25v-119h-25zM1015 58q0 64 69 64q53 0 55 -45h-31q-2 19 -24 20 q-36 0 -36 -36q0 -39 39 -39q13 0 21 2v21h-24v21h55v-58q-24 -11 -52 -11q-72 0 -72 61zM1156 0v119h31v-47h60v47h30v-119h-30v50h-60v-50h-31zM1245 230v218h124q94 0 93 -58q0 -36 -46 -52q42 -9 41 -53l10 -55h-60l-14 55q-3 27 -47 27h-38v-82h-63zM1285 94v25h114 v-25h-38v-94h-34v94h-42zM1308 348h41q50 0 50 31q0 22 -50 22h-41v-53zM1467 0v119h63q43 1 43 -30q0 -21 -22 -31q16 -5 27 -58h-32q0 11 -3 22q-8 24 -23 25h-19v-47h-34zM1493 230v218h69v-218h-69zM1501 72h19q20 0 20 10q0 14 -20 15h-19v-25zM1588 0v119h90v-25h-61 v-22h58v-22h-58v-26h64v-24h-93zM1593 338q0 113 135 113q111 0 119 -74h-72q-5 31 -50 29q-66 0 -66 -66q0 -71 74 -71l45 5v38h-53v36h122v-110q-50 -14 -114 -14q-140 0 -140 114zM1692 42h31q0 -19 21 -20q19 0 20 12q0 2 -35 14.5t-35 33.5q0 40 50 40t50 -40h-30 q0 17 -20 18q-19 0 -19 -15q0 -11 36 -19t36 -30q0 -39 -55 -39q-50 0 -50 45zM1762 1012v622h164v-265l227 265h195l-247 -276l266 -346h-214l-227 315v-315h-164zM1810 0v119h95v-25h-64v-22h58v-22h-58v-26h64v-24h-95zM1883 230v218h66v-86h111v86h64v-218h-64v89h-111 v-89h-66zM1913 0v119h58q42 0 42 -30q0 -21 -22 -31q16 -5 27 -58h-34q0 11 -2 22q-8 24 -22 25h-19v-47h-28zM1941 72h19q19 0 19 10q0 14 -19 15h-19v-25zM2010 119h33l33 -88l34 88h30l-48 -119h-32zM2145 0v119h92v-25h-58v-22h55v-22h-55v-26h58v-24h-92zM2148 398v50 h240v-50h-90v-168h-64v168h-86zM2250 0v119h56q66 0 66 -61q0 -58 -66 -58h-56zM2284 27h22q36 0 36 31q0 36 -36 36h-22v-67zM2292 1866q0 71 45.5 117t115.5 46q71 0 118 -46t47 -117q0 -72 -47 -116t-118 -44q-69 0 -115 44t-46 116zM2319 1863q0 -58 39.5 -96.5 t94.5 -38.5q58 0 99 38.5t41 96.5t-41 98.5t-99 40.5q-55 0 -94.5 -40.5t-39.5 -98.5zM2364 1868q0 100 86 100q74 0 80 -66h-45q-8 27 -35 28q-36 0 -36 -59q0 -66 39 -66q31 0 32 36h48q-14 -71 -83 -71q-85 0 -86 98z" />
<glyph horiz-adv-x="596" />
<glyph unicode="&#xd;" />
<glyph unicode=" "  horiz-adv-x="623" />
<glyph unicode="&#x09;" horiz-adv-x="623" />
<glyph unicode="&#xa0;" horiz-adv-x="623" />
<glyph unicode="!" horiz-adv-x="464" d="M100 108q0 55 38.5 93.5t93.5 38.5q56 0 94 -38.5t38 -93.5t-38 -93.5t-94 -38.5q-55 0 -93.5 38.5t-38.5 93.5zM132 1316h200l-26 -931h-153z" />
<glyph unicode="&#x22;" horiz-adv-x="803" d="M135 1454h197l-36 -533h-125zM470 1454h197l-34 -533h-127z" />
<glyph unicode="#" horiz-adv-x="1277" d="M92 393v146h190l33 247h-188v148h205l53 380h156l-46 -380h351l48 380h162l-46 -380h174v-148h-197l-30 -247h185v-146h-200l-52 -393h-162l55 393h-358l-46 -393h-163l47 393h-171zM446 539h350l33 247h-354z" />
<glyph unicode="$" horiz-adv-x="1013" d="M119 155l74 133q122 -98 290 -98q111 0 178 51.5t67 135.5q0 129 -224 222q-351 150 -351 353q0 119 78 204.5t217 112.5v205h161v-202q129 -16 264 -92l-82 -135q-94 80 -258 81q-92 0 -152 -43t-60 -118q0 -105 243 -213q183 -80 257.5 -163t74.5 -207 q0 -116 -83 -210.5t-224 -124.5v-200h-164v195q-182 16 -306 113z" />
<glyph unicode="%" horiz-adv-x="1902" d="M108 934q0 407 327 407q328 0 328 -407q0 -403 -328 -403q-327 0 -327 403zM274 934q0 -254 161 -254q164 0 164 254q0 261 -164 261q-161 0 -161 -261zM431 -24l843 1340h169l-844 -1340h-168zM1134 385q0 403 328 403q332 0 332 -403q0 -407 -332 -407q-329 0 -328 407 zM1300 385q0 -257 162 -258q166 1 166 258q0 260 -166 259q-163 0 -162 -259z" />
<glyph unicode="&#x26;" horiz-adv-x="1343" d="M97 370q0 246 262 390q-103 132 -103 258q0 143 101.5 243t259.5 100q135 0 222 -82t87 -208q0 -219 -314 -366q124 -138 351 -357q135 177 153 388h148q-40 -299 -185 -490q129 -119 232 -207l-150 -78l-188 171q-218 -158 -442 -156q-188 0 -311 116t-123 278zM271 382 q0 -113 80 -185.5t203 -72.5q182 0 309 111l-401 409q-191 -108 -191 -262zM425 1029q0 -80 103 -205q237 118 237 237q0 158 -156 158q-83 0 -133.5 -55.5t-50.5 -134.5z" />
<glyph unicode="'" horiz-adv-x="467" d="M135 1454h197l-36 -533h-125z" />
<glyph unicode="(" horiz-adv-x="673" d="M122 649q0 435 318 816h204q-351 -385 -351 -816q0 -409 348 -802h-193q-326 338 -326 802z" />
<glyph unicode=")" horiz-adv-x="673" d="M31 1465h190q330 -351 330 -808q0 -453 -327 -810h-190q345 412 345 810q0 401 -348 808z" />
<glyph unicode="*" horiz-adv-x="947" d="M108 954v144l274 -22l-171 212l140 84l121 -238l122 238l142 -84l-172 -212l274 22v-141l-274 22l172 -214l-142 -82l-122 238l-121 -238l-140 82l171 214z" />
<glyph unicode="+" horiz-adv-x="1152" d="M80 435v151h409v417h175v-417h409v-151h-409v-435h-175v435h-409z" />
<glyph unicode="," horiz-adv-x="475" d="M69 -216q147 89 169 194q-133 8 -133 138q0 58 40 98t95 40q58 0 98.5 -42.5t40.5 -108.5q0 -274 -252 -399z" />
<glyph unicode="-" horiz-adv-x="623" d="M36 435v148h553v-148h-553z" />
<glyph unicode="." horiz-adv-x="475" d="M105 108q0 55 38.5 93.5t94.5 38.5q55 0 93.5 -38.5t38.5 -93.5t-38.5 -93.5t-93.5 -38.5q-56 0 -94.5 38.5t-38.5 93.5z" />
<glyph unicode="/" horiz-adv-x="762" d="M-82 -77l737 1438h177l-738 -1438h-176z" />
<glyph unicode="0" horiz-adv-x="1044" d="M77 649q0 280 116 477.5t324 197.5q216 0 332 -197.5t116 -477.5q0 -279 -116 -476t-332 -197q-208 0 -324 197t-116 476zM254 649q0 -232 66.5 -377t199.5 -145q135 0 201.5 145t66.5 377q0 233 -66.5 378t-199.5 145q-135 0 -201.5 -145t-66.5 -378z" />
<glyph unicode="1" horiz-adv-x="1044" d="M193 1026l351 296q103 0 103 -133v-1049h202v-140h-583v140h204v918l-174 -145z" />
<glyph unicode="2" horiz-adv-x="1044" d="M66 0q22 122 47 198q72 90 441 432q226 214 226 349q0 182 -216 182q-213 0 -255 -246l-162 42q19 177 138 273q111 92 282 92q169 0 279.5 -100t110.5 -251q0 -135 -144 -307q-89 -102 -296 -285q-185 -163 -227 -224h705l-32 -155h-897z" />
<glyph unicode="3" horiz-adv-x="1044" d="M72 94l78 141q124 -89 275 -88q143 0 249 91t106 213q0 89 -56.5 149t-143.5 60q-102 0 -195 -80l-76 122q135 77 242 174q124 116 124 188q0 108 -153 108q-99 0 -183.5 -63.5t-119.5 -148.5l-125 63q53 138 170.5 218.5t266.5 80.5q132 0 221 -69t89 -185 q0 -114 -171 -261q129 -24 206.5 -118.5t77.5 -232.5q0 -216 -153.5 -347t-402.5 -131q-187 0 -326 116z" />
<glyph unicode="4" horiz-adv-x="1044" d="M77 293q0 346 218.5 690t514.5 368v-908h177l-19 -150h-158v-293h-177v293h-556zM251 443h382v673q-132 -85 -238.5 -278.5t-143.5 -394.5z" />
<glyph unicode="5" horiz-adv-x="1044" d="M72 97l75 127q155 -97 284 -97q143 0 246 96t103 239q0 118 -77.5 183t-207.5 65q-129 0 -168 -90l-111 -6l47 702h658l-31 -150h-459l-19 -320q50 22 119 22q182 0 304 -113.5t122 -290.5q0 -216 -152.5 -351t-392.5 -135q-205 0 -340 119z" />
<glyph unicode="6" horiz-adv-x="1044" d="M100 472q0 319 210 562t547 309l16 -137q-174 -48 -331 -170.5t-227 -275.5q85 85 236 86q166 0 278.5 -124.5t112.5 -307.5q0 -184 -112 -310t-286 -126q-193 0 -318.5 135t-125.5 359zM288 414q0 -116 73.5 -199t177.5 -83q100 0 172 86t72 196q0 111 -72 197t-172 86 q-106 0 -178.5 -82t-72.5 -201z" />
<glyph unicode="7" horiz-adv-x="1044" d="M77 1166l42 150h860l-25 -150q-213 -266 -305 -509q-105 -278 -105 -657h-180q22 771 391 1166h-678z" />
<glyph unicode="8" horiz-adv-x="1044" d="M85 370q0 111 63 205.5t158 137.5q-179 97 -179 260q0 153 112 252t283 99q172 0 284 -99t112 -252q0 -163 -180 -260q98 -45 160 -138.5t62 -204.5q0 -182 -119 -287t-321 -105q-199 0 -317 105t-118 287zM254 362q0 -108 75 -171.5t193 -63.5q119 0 194 63.5t75 171.5 q0 102 -69.5 185t-199.5 92q-129 -9 -198.5 -92t-69.5 -185zM293 981q0 -135 227 -198q232 63 232 198q0 83 -63.5 138t-166.5 55q-102 0 -165.5 -55t-63.5 -138z" />
<glyph unicode="9" horiz-adv-x="1044" d="M100 884q0 185 112 311.5t286 126.5q193 0 318.5 -136t125.5 -360q0 -318 -210 -561t-547 -310l-16 139q169 45 336 177.5t233 269.5q-79 -89 -245 -87q-166 0 -279.5 124t-113.5 306zM261 884q0 -110 71.5 -196t171.5 -86q105 0 178 81.5t73 200.5q0 116 -73 199 t-178 83q-100 0 -171.5 -85.5t-71.5 -196.5z" />
<glyph unicode=":" horiz-adv-x="475" d="M105 108q0 55 38.5 93.5t94.5 38.5q55 0 93.5 -38.5t38.5 -93.5t-38.5 -93.5t-93.5 -38.5q-56 0 -94.5 38.5t-38.5 93.5zM105 788q0 56 38.5 94.5t94.5 38.5q55 0 93.5 -38.5t38.5 -94.5q0 -55 -38.5 -94t-93.5 -39q-56 0 -94.5 39t-38.5 94z" />
<glyph unicode=";" horiz-adv-x="475" d="M69 -216q147 89 169 194q-133 8 -133 138q0 58 40 98t95 40q58 0 98.5 -42.5t40.5 -108.5q0 -274 -252 -399zM105 788q0 56 38.5 94.5t94.5 38.5q55 0 93.5 -38.5t38.5 -94.5q0 -55 -38.5 -94t-93.5 -39q-56 0 -94.5 39t-38.5 94z" />
<glyph unicode="&#x3c;" horiz-adv-x="1152" d="M100 470v113l953 496v-175l-732 -379l732 -378v-174z" />
<glyph unicode="=" horiz-adv-x="1152" d="M127 269v145h899v-145h-899zM127 617v143h899v-143h-899z" />
<glyph unicode="&#x3e;" horiz-adv-x="1152" d="M100 -27v174l734 381l-734 376v175l953 -496v-113z" />
<glyph unicode="?" horiz-adv-x="797" d="M66 1233q164 102 319 102q158 0 253 -84.5t95 -224.5q0 -150 -182 -335q-124 -124 -128 -251q0 -42 20 -116h-158q-27 82 -29 124q0 135 151.5 309.5t151.5 263.5q0 158 -195 156q-118 0 -229 -79zM240 108q0 55 39.5 93.5t93.5 38.5q55 0 94 -38.5t39 -93.5t-39 -93.5 t-94 -38.5q-56 0 -94.5 38.5t-38.5 93.5z" />
<glyph unicode="@" horiz-adv-x="1580" d="M82 367q0 312 219 520t548 208q282 0 463 -170t181 -436q0 -222 -161 -354q-140 -116 -334 -116l-17 100q-129 -116 -295 -116q-119 0 -203.5 67.5t-84.5 169.5q0 301 550 316q0 211 -199 209q-108 0 -198 -58l-47 98q132 77 290 77q147 0 225.5 -97t78.5 -263v-287 q0 -64 2 -88h34q97 27 163.5 125t66.5 211q0 214 -144 356t-386 142q-271 0 -440.5 -172.5t-169.5 -431.5q0 -227 150.5 -377t372.5 -150q168 0 337 89l53 -110q-193 -92 -399 -92q-271 0 -459 178q-195 179 -197 452zM536 254q0 -130 152 -130q103 0 180 45q89 50 89 127 v155q-420 -16 -421 -197z" />
<glyph unicode="A" horiz-adv-x="1246" d="M-3 0l554 1335h148l551 -1335h-192l-174 440h-528l-171 -440h-188zM420 589h398l-193 548z" />
<glyph unicode="B" horiz-adv-x="1094" d="M138 19v1272q171 41 316 41q506 0 506 -348q0 -177 -166 -279q218 -102 218 -323q0 -398 -587 -398q-124 0 -287 35zM312 140q47 -8 139 -8q179 0 284.5 64.5t105.5 182.5q0 133 -128 196q-97 47 -241 47h-160v-482zM312 768h197q121 0 199 57t78 156q0 199 -332 199 q-58 0 -142 -8v-404z" />
<glyph unicode="C" horiz-adv-x="1193" d="M72 655q0 298 155 482q171 198 478 198q235 0 429 -79l-55 -140q-166 69 -369 71q-254 0 -372 -189q-90 -138 -90 -349q0 -193 98 -337q121 -182 342 -182q230 0 399 83l47 -144q-200 -88 -476 -88h-6q-263 0 -421.5 186.5t-158.5 487.5z" />
<glyph unicode="D" horiz-adv-x="1269" d="M138 16v1277q314 37 426 37q338 0 500 -201q133 -164 133 -443q0 -299 -144 -478q-177 -219 -544 -219q-113 0 -371 27zM312 147q92 -8 229 -9q269 0 391 191q89 141 89 357q0 494 -463 494h-2q-77 0 -244 -16v-1017z" />
<glyph unicode="E" horiz-adv-x="989" d="M138 0v1316h783v-150h-609v-398h543v-148h-543v-470h609v-150h-783z" />
<glyph unicode="F" horiz-adv-x="989" d="M138 0v1316h810v-150h-636v-414h598v-146h-598v-606h-174z" />
<glyph unicode="G" horiz-adv-x="1254" d="M72 655q0 298 155 482q171 198 478 198q235 0 429 -79l-55 -140q-166 69 -369 71q-254 0 -372 -189q-90 -138 -90 -349q0 -193 98 -337q121 -182 342 -182q164 0 283 44v374h-332v146h506v-663l-89 22q-161 -72 -404 -72q-263 0 -421.5 186.5t-158.5 487.5z" />
<glyph unicode="H" horiz-adv-x="1304" d="M138 0v1316h174v-542h680v542h174v-1316h-174v625h-680v-625h-174z" />
<glyph unicode="I" horiz-adv-x="449" d="M138 0v1316h174v-1316h-174z" />
<glyph unicode="J" horiz-adv-x="778" d="M-16 27l47 144q80 -47 188 -47q129 0 188.5 77.5t59.5 268.5v846h174v-873q0 -467 -422 -467q-108 0 -235 51z" />
<glyph unicode="K" horiz-adv-x="1135" d="M138 0v1316h174v-580l628 602l168 -45l-569 -544l617 -707l-166 -61l-570 652l-108 -105v-528h-174z" />
<glyph unicode="L" horiz-adv-x="992" d="M138 0v1316h174v-1166h645v-150h-819z" />
<glyph unicode="M" horiz-adv-x="1586" d="M80 0l94 1316h182l438 -1095l436 1095h183l94 -1316h-169l-72 1021l-414 -1021h-116l-415 1021l-73 -1021h-168z" />
<glyph unicode="N" horiz-adv-x="1304" d="M138 0v1316h174l680 -1039v1039h174v-1316h-166l-688 1068v-1068h-174z" />
<glyph unicode="O" horiz-adv-x="1431" d="M72 655q0 290 179.5 488t464.5 198q284 0 464.5 -198t180.5 -488q0 -291 -180.5 -486.5t-464.5 -195.5q-285 0 -464.5 195.5t-179.5 486.5zM243 657q0 -226 130.5 -379.5t342.5 -153.5q213 0 343 153.5t130 379.5q0 227 -130 381t-343 154q-214 0 -343.5 -154 t-129.5 -381z" />
<glyph unicode="P" horiz-adv-x="1077" d="M138 0v1297q192 33 342 33h9q243 0 382 -109.5t139 -283.5q0 -190 -154 -307.5t-405 -117.5q-64 0 -139 8v-520h-174zM312 678q94 -16 158 -18q364 0 364 269q0 251 -348 251q-94 0 -174 -8v-494z" />
<glyph unicode="Q" horiz-adv-x="1431" d="M72 655q0 290 179.5 488t464.5 198q284 0 464.5 -198t180.5 -488q0 -222 -104 -383t-286 -225v-11q221 -55 401 -83l-56 -149q-210 56 -528 157q-13 5 -72 12q-285 0 -464.5 195.5t-179.5 486.5zM243 657q0 -226 130.5 -379.5t342.5 -153.5q213 0 343 153.5t130 379.5 q0 227 -130 381t-343 154q-214 0 -343.5 -154t-129.5 -381z" />
<glyph unicode="R" horiz-adv-x="1090" d="M138 0v1293q198 37 357 37q235 0 373 -99.5t138 -270.5q0 -227 -215 -327q103 -69 159 -202t100 -431h-174q-74 572 -343 572h-221v-572h-174zM312 716h213q313 0 313 232q0 229 -343 229q-110 0 -183 -8v-453z" />
<glyph unicode="S" horiz-adv-x="1008" d="M53 94l74 157q158 -119 343 -119q135 0 212.5 59.5t77.5 159.5q0 166 -265 251q-390 124 -390 382q0 155 123 256t320 101q196 0 339 -88l-74 -139q-138 69 -269 70q-119 0 -192 -54t-73 -132q0 -153 265 -238q216 -69 304.5 -160t88.5 -241q0 -171 -136.5 -277 t-341.5 -106q-219 0 -406 118z" />
<glyph unicode="T" horiz-adv-x="1163" d="M11 1166v150h1142v-150h-481v-1166h-174v1166h-487z" />
<glyph unicode="U" horiz-adv-x="1332" d="M138 562v754h177v-754q0 -438 352 -438q351 0 351 438v754h177v-754q0 -586 -528 -586t-529 586z" />
<glyph unicode="V" horiz-adv-x="1166" d="M-3 1316h188l398 -1078l398 1078h188l-505 -1316h-160z" />
<glyph unicode="W" horiz-adv-x="1691" d="M-11 1316h191l257 -1050l326 1050h166l327 -1050l256 1050h192l-366 -1316h-161l-331 1076l-332 -1076h-160z" />
<glyph unicode="X" horiz-adv-x="1177" d="M-3 0l489 675l-470 641h214l364 -514l358 514h214l-469 -641l487 -675h-208l-382 533l-386 -533h-211z" />
<glyph unicode="Y" horiz-adv-x="1094" d="M-16 1316h201l366 -591l362 591h198l-475 -738v-578h-172v575z" />
<glyph unicode="Z" horiz-adv-x="1246" d="M74 0v111l855 1055h-810l31 150h1019v-113l-854 -1053h896l-34 -150h-1103z" />
<glyph unicode="[" horiz-adv-x="646" d="M127 -213v1672h437v-143h-274v-1388h274v-141h-437z" />
<glyph unicode="\" horiz-adv-x="739" d="M-61 1335h180l715 -1409h-177z" />
<glyph unicode="]" horiz-adv-x="646" d="M82 -72h274v1388h-274v143h438v-1672h-438v141z" />
<glyph unicode="^" horiz-adv-x="1155" d="M89 420l431 907h140l429 -907h-179l-321 699l-320 -699h-180z" />
<glyph unicode="_" horiz-adv-x="1039" d="M0 -338h1040v-145h-1040v145z" />
<glyph unicode="`" horiz-adv-x="580" d="M94 1305l157 50l208 -318h-132z" />
<glyph unicode="a" horiz-adv-x="1013" d="M72 256q0 352 627 361q-27 207 -225 207h-2q-149 0 -329 -69l-19 158q188 55 357 55q392 0 392 -404v-313q0 -105 40 -243l-164 -32l-27 121q-140 -121 -318 -121q-141 0 -235.5 75.5t-96.5 204.5zM248 274q0 -147 164 -147q92 0 182 44q105 53 105 127v166 q-451 -8 -451 -190z" />
<glyph unicode="b" horiz-adv-x="1201" d="M138 0q10 135 12 251v1142h174v-547q130 130 336 130q203 0 337 -139.5t134 -347.5q0 -224 -139.5 -368.5t-344.5 -144.5q-206 0 -335 127q0 -72 -8 -103h-166zM324 356q0 -105 85.5 -167t223.5 -62q155 0 241 96.5t86 265.5q0 150 -86 246.5t-230 96.5q-116 0 -218 -77 t-102 -183v-216z" />
<glyph unicode="c" horiz-adv-x="958" d="M72 475q0 224 135.5 362.5t359.5 138.5q188 0 323 -82l-61 -145q-130 80 -267 80q-141 0 -227.5 -98t-86.5 -256q0 -160 86 -256.5t228 -96.5q137 0 267 80l61 -144q-133 -82 -323 -82q-224 0 -359.5 139t-135.5 360z" />
<glyph unicode="d" horiz-adv-x="1201" d="M72 489q0 208 134 347.5t335 139.5q208 0 338 -130v547h174v-1142q0 -116 11 -251h-165q-8 31 -9 103q-130 -127 -334 -127q-205 0 -344.5 145t-139.5 368zM243 489q0 -169 85.5 -265.5t241.5 -96.5q137 0 223 62t86 167v216q0 106 -102 183t-218 77q-143 0 -229.5 -96.5 t-86.5 -246.5z" />
<glyph unicode="e" horiz-adv-x="1080" d="M72 456q0 235 144 382q140 138 359 138q425 0 435 -533h-767q11 -150 107 -231.5t247 -81.5q155 0 355 72l19 -152q-203 -74 -385 -74q-224 0 -369 133.5t-145 346.5zM254 589h584q-13 108 -88 175.5t-191 67.5q-111 0 -198 -67.5t-107 -175.5z" />
<glyph unicode="f" horiz-adv-x="702" d="M47 796v144h161q0 472 367 473q116 0 196 -62l-49 -129q-97 42 -152 42q-191 0 -191 -324h268v-144h-268v-796h-174v796h-158z" />
<glyph unicode="g" horiz-adv-x="916" d="M191 863.5q102 96.5 246 96.5h397v-119h-137q50 -19 79 -92q25 -58 26 -116q0 -163 -90 -258.5t-258 -95.5q-61 0 -119 19q-14 -13 -14 -35q0 -42 199 -97q287 -80 287 -290q0 -130 -93.5 -210t-273.5 -80q-150 0 -308 93l61 139q147 -85 258 -87q85 0 141.5 40.5 t56.5 96.5q0 82 -154 146q-116 47 -224 105t-108 152q0 45 25 114q-99 107 -99 227q0 155 102 251.5zM251 620q0 -83 59.5 -140t143.5 -57q100 0 150.5 57t50.5 140q0 82 -59.5 140t-141.5 58q-83 0 -143 -58t-60 -140z" />
<glyph unicode="h" horiz-adv-x="1169" d="M138 0v1393h174v-555q127 127 318 127q188 0 294.5 -117.5t106.5 -316.5v-531h-174v528q0 124 -67.5 205.5t-183.5 81.5t-205 -83t-89 -181v-551h-174z" />
<glyph unicode="i" horiz-adv-x="449" d="M89 1216q0 56 38.5 94.5t93.5 38.5q56 0 94.5 -38.5t38.5 -94.5q0 -55 -38.5 -93.5t-94.5 -38.5q-55 0 -93.5 38.5t-38.5 93.5zM138 0v940h174v-940h-174z" />
<glyph unicode="j" horiz-adv-x="472" d="M-132 -248q187 13 240 82t53 288v818h174v-890q0 -428 -448 -440zM113 1216q0 56 38.5 94.5t94.5 38.5q55 0 94 -38.5t39 -94.5q0 -55 -39 -93.5t-94 -38.5q-56 0 -94.5 38.5t-38.5 93.5z" />
<glyph unicode="k" horiz-adv-x="939" d="M138 0v1393h174v-794l421 361l190 -34l-422 -372l489 -538l-180 -43l-431 481l-67 -56v-398h-174z" />
<glyph unicode="l" horiz-adv-x="588" d="M138 483v910h174v-871q0 -213 67 -301q58 -74 191 -86l-19 -157q-412 22 -413 505z" />
<glyph unicode="m" horiz-adv-x="1757" d="M116 942h163q19 -47 19 -108q40 56 128 95t173 39q183 0 295 -155q147 155 353 155q164 0 268.5 -123t104.5 -323v-522h-174v520q0 127 -58 210q-65 91 -172 91h-2q-92 0 -170.5 -71.5t-78.5 -155.5v-594h-174v567q0 254 -213 254q-95 0 -180.5 -84.5t-85.5 -174.5v-562 h-174v691q0 172 -22 251z" />
<glyph unicode="n" horiz-adv-x="1169" d="M116 942h163q19 -47 19 -113q133 138 322 139q187 0 299 -116t112 -319v-533h-174v533q0 288 -263 288q-97 0 -189.5 -87t-92.5 -172v-562h-174v691q0 172 -22 251z" />
<glyph unicode="o" horiz-adv-x="1138" d="M72 475q0 211 141 356t357 145t357 -145t141 -356q0 -210 -141 -353.5t-357 -143.5t-357 144t-141 353zM243 475q0 -150 91 -250.5t236 -100.5q143 0 234.5 100.5t91.5 250.5t-91.5 250.5t-234.5 100.5t-235 -100.5t-92 -250.5z" />
<glyph unicode="p" horiz-adv-x="1190" d="M127 957h171l21 -102q147 121 330 121q206 0 338 -137.5t132 -343.5q0 -229 -140.5 -374t-350.5 -145q-193 0 -316 113v-485h-174v1032q0 229 -11 321zM312 393q0 -108 90.5 -187t219.5 -79q156 0 243 98.5t87 267.5q0 143 -90.5 241t-228.5 98q-111 0 -216 -88.5 t-105 -195.5v-155z" />
<glyph unicode="q" horiz-adv-x="1190" d="M72 495q0 206 133 343.5t336 137.5q185 0 332 -121l21 102h170q-11 -92 -11 -321v-1032h-174v485q-122 -113 -315 -113q-210 0 -351 145t-141 374zM240 493q0 -169 87 -267.5t243 -98.5q129 0 219 79t90 187v155q0 108 -104.5 196t-215.5 88q-138 0 -228.5 -98 t-90.5 -241z" />
<glyph unicode="r" horiz-adv-x="679" d="M105 954h156q29 -47 29 -123v-10q25 52 103.5 99.5t157.5 47.5q55 0 88 -8v-150q-22 5 -64 5q-263 0 -263 -314v-501h-174v622q0 222 -33 332z" />
<glyph unicode="s" horiz-adv-x="818" d="M72 66l68 139q114 -77 245 -78q193 0 193 134q0 102 -188 159q-277 85 -277 263q0 119 92.5 200.5t250.5 81.5q161 0 272 -81l-64 -127q-97 72 -218 72q-72 0 -120.5 -37t-48.5 -95q0 -72 201 -141q271 -94 271 -287q0 -130 -100.5 -211.5t-271.5 -81.5q-141 0 -305 90z " />
<glyph unicode="t" horiz-adv-x="712" d="M24 796v144h189v257l174 75v-332h301v-144h-301v-498q0 -168 108 -168q69 0 154 31l21 -147q-88 -38 -175 -38h-9q-127 0 -200 85.5t-73 234.5v500h-189z" />
<glyph unicode="u" horiz-adv-x="1155" d="M138 425v515h174v-497q0 -312 239 -313q100 0 196.5 76t96.5 179v555h174v-689q0 -93 58 -240l-169 -33q-27 67 -50 160q-164 -162 -325 -162h-4q-390 0 -390 449z" />
<glyph unicode="v" horiz-adv-x="989" d="M-11 940h182l324 -724l323 724h182l-436 -940h-139z" />
<glyph unicode="w" horiz-adv-x="1327" d="M-11 940h180l140 -710l282 710h145l282 -710l140 710h180l-235 -940h-146l-293 755l-294 -755h-146z" />
<glyph unicode="x" horiz-adv-x="963" d="M-31 0l410 481l-384 459h210l278 -331l277 331h211l-385 -459l409 -481h-212l-302 362l-299 -362h-213z" />
<glyph unicode="y" horiz-adv-x="997" d="M-11 940h191l326 -697l309 697h191l-431 -921q-174 -367 -486 -436l-44 143q245 55 361 343z" />
<glyph unicode="z" horiz-adv-x="989" d="M55 0v105l625 689h-598l34 146h802v-114l-622 -679h641l-24 -147h-858z" />
<glyph unicode="{" horiz-adv-x="704" d="M82 495v144q172 5 172 102q0 58 -19 181t-19 173q0 282 332 282h64v-144h-73q-153 0 -160 -144q39 -234 38 -340q0 -61 -34.5 -115t-81.5 -67q116 -47 116 -185q0 -103 -38 -337q6 -148 160 -148h73v-140h-64q-332 0 -332 282q0 55 19 178t19 173q0 100 -172 105z" />
<glyph unicode="|" horiz-adv-x="488" d="M166 -459v1913h158v-1913h-158z" />
<glyph unicode="}" horiz-adv-x="704" d="M103 -103h71q161 0 161 137q0 63 -19.5 178t-19.5 170q0 138 116 185q-48 13 -82 67t-34 115t19.5 177t19.5 174q0 133 -161 133h-71v144h63q332 0 332 -282q0 -50 -19.5 -173t-19.5 -181q0 -97 171 -102v-144q-171 -5 -171 -105q0 -50 19.5 -173t19.5 -178 q0 -282 -332 -282h-63v140z" />
<glyph unicode="~" horiz-adv-x="1166" d="M61 398v53q0 121 73.5 193t180.5 72q74 0 295.5 -81t273.5 -81q85 0 95 162h150v-44q0 -127 -69.5 -200.5t-180.5 -73.5q-66 0 -291.5 86t-272.5 86q-98 0 -102 -172h-152z" />
<glyph unicode="&#xa1;" horiz-adv-x="464" d="M100 818q0 55 38.5 94.5t93.5 39.5q56 0 94 -39.5t38 -94.5t-38 -93.5t-94 -38.5q-55 0 -93.5 38.5t-38.5 93.5zM132 -390l21 931h153l26 -931h-200z" />
<glyph unicode="&#xa2;" horiz-adv-x="1327" d="M169 633q0 227 125.5 377.5t341.5 189.5v222h152v-214q222 -5 368 -86l-58 -132q-69 31 -144 47t-155 16q-219 0 -341.5 -110.5t-122.5 -309.5q0 -198 122.5 -309t341.5 -111q80 0 155 16.5t144 47.5l58 -134q-148 -80 -368 -85v-213h-152v221q-216 39 -341.5 189.5 t-125.5 377.5z" />
<glyph unicode="&#xa3;" horiz-adv-x="1327" d="M246 0v103q226 140 226 343q0 21 -2.5 57t-7.5 75h-214v127h198q-6 58 -10.5 106.5t-4.5 95.5q0 388 363 386q110 0 251 -63l-50 -116q-122 50 -207 50q-221 0 -221 -257q0 -105 19 -202h308v-127h-285q3 -22 4 -53.5t1 -60.5q0 -202 -116 -334h583v-130h-835z" />
<glyph unicode="&#xa4;" horiz-adv-x="1327" d="M138 224l102 108q-94 130 -93 293q0 163 93 293l-102 108l118 127l108 -113q122 97 296 97q180 0 303 -97l108 113l118 -127l-102 -108q93 -130 93 -293t-93 -293l102 -108l-118 -127l-108 114q-122 -98 -303 -98q-174 0 -296 98l-108 -114zM319 625q0 -147 99 -246.5 t246 -99.5q141 0 243.5 99.5t102.5 246.5q0 140 -102.5 243t-243.5 103q-147 0 -246 -103t-99 -243z" />
<glyph unicode="&#xa5;" horiz-adv-x="1327" d="M155 1274h193l312 -525l316 525h196l-404 -654h293v-142h-317v-88h317v-139h-317v-201h-161v201h-317v139h317v88h-317v139h290z" />
<glyph unicode="&#xa6;" horiz-adv-x="444" d="M155 -329v711h133v-711h-133zM155 609v707h133v-707h-133z" />
<glyph unicode="&#xa7;" horiz-adv-x="1050" d="M150 688q0 119 106 216q-49 64 -48 144q0 124 94 201.5t249 77.5q71 0 144 -22.5t146 -59.5l-70 -119q-111 80 -235 80q-80 0 -135 -40t-55 -102q0 -31 18 -55.5t48 -45.5q21 -14 71 -35t116 -44q141 -50 220.5 -125.5t79.5 -172.5q0 -64 -27.5 -120.5t-75.5 -109.5 q53 -63 53 -160q0 -141 -101 -221t-255 -80q-174 0 -305 105l63 116q55 -53 116 -75t131 -22q100 0 159 46t59 117q0 97 -133 164q-69 27 -144 56t-143 60q-148 71 -146 226zM282 694q0 -34 22.5 -59.5t59.5 -54.5q28 -13 73.5 -34t118.5 -45q53 -19 88.5 -34.5t60.5 -31.5 q31 36 41.5 68.5t10.5 68.5q0 48 -54 96t-136 79q-72 24 -126 46t-90 39q-69 -61 -69 -138z" />
<glyph unicode="&#xa8;" horiz-adv-x="942" d="M147 1174q0 50 36 86.5t86 36.5q47 0 82.5 -36.5t35.5 -86.5q0 -52 -36 -86.5t-82 -34.5q-50 0 -86 34.5t-36 86.5zM556 1174q0 50 37 86.5t85 36.5q47 0 82.5 -36.5t35.5 -86.5q0 -52 -35.5 -86.5t-82.5 -34.5q-48 0 -85 34.5t-37 86.5z" />
<glyph unicode="&#xa9;" horiz-adv-x="1491" d="M74 664q0 277 198 474t475 197q276 0 474 -197t198 -474t-198 -474.5t-474 -197.5q-277 0 -475 197.5t-198 474.5zM190 664q0 -229 163.5 -392.5t393.5 -163.5q229 0 392.5 163.5t163.5 392.5q0 230 -163.5 392.5t-392.5 162.5q-230 0 -393.5 -162.5t-163.5 -392.5z M340 644q0 193 113.5 305t301.5 112q168 0 257 -66l-33 -99q-106 61 -224 61q-288 0 -288 -300q0 -301 290 -301q135 0 233 69l36 -101q-105 -80 -285 -81q-185 0 -293 116t-108 285z" />
<glyph unicode="&#xaa;" horiz-adv-x="696" d="M72 876q0 222 406 230q-6 68 -48.5 97.5t-97.5 29.5q-47 0 -95.5 -11t-96.5 -45l-37 95q58 39 121.5 55t126.5 16q248 0 248 -303v-233q0 -13 5 -45t18 -76h-118q-6 13 -8.5 31.5t-9.5 39.5q-77 -79 -193 -79q-221 0 -221 198zM193 876q0 -97 116 -96q24 0 54 8t56.5 23 t42.5 36.5t16 48.5v107q-150 0 -217.5 -31.5t-67.5 -95.5z" />
<glyph unicode="&#xab;" horiz-adv-x="984" d="M82 495l308 376h172l-316 -376l318 -365h-168zM420 495l316 373h163l-313 -370l316 -368h-166z" />
<glyph unicode="&#xac;" horiz-adv-x="1237" d="M94 647v124h1020v-528h-133v404h-887z" />
<glyph unicode="&#xad;" horiz-adv-x="623" d="M36 435v148h553v-148h-553z" />
<glyph unicode="&#xae;" horiz-adv-x="1491" d="M74 664q0 277 198 474t475 197q276 0 474 -197t198 -474t-198 -474.5t-474 -197.5q-277 0 -475 197.5t-198 474.5zM190 664q0 -229 163.5 -392.5t393.5 -163.5q229 0 392.5 163.5t163.5 392.5q0 230 -163.5 392.5t-392.5 162.5q-230 0 -393.5 -162.5t-163.5 -392.5z M472 246v815q127 22 227 23q147 0 234.5 -62t87.5 -170q0 -143 -137 -205q66 -48 101.5 -131t62.5 -270h-108q-50 362 -215 363h-139v-363h-114zM586 699h130q202 2 202 145t-219 143q-69 0 -113 -6v-282z" />
<glyph unicode="&#xaf;" horiz-adv-x="1039" d="M0 1459v147h1040v-147h-1040z" />
<glyph unicode="&#xb0;" horiz-adv-x="765" d="M135 1098q0 102 72 173.5t175 71.5t174.5 -71.5t71.5 -173.5q0 -103 -72.5 -174.5t-173.5 -71.5q-103 0 -175 71.5t-72 174.5zM224 1098q0 -64 47.5 -111t110.5 -47q64 0 110.5 47t46.5 111q0 63 -46.5 110.5t-110.5 47.5q-63 0 -110.5 -47.5t-47.5 -110.5z" />
<glyph unicode="&#xb1;" horiz-adv-x="1216" d="M100 0v153h1019v-153h-1019zM113 599v153h409v417h175v-417h409v-153h-409v-383h-175v383h-409z" />
<glyph unicode="&#xb2;" horiz-adv-x="718" d="M74 525q0 85 62 164t136 151.5t136 140t62 130.5q0 47 -26.5 72t-66.5 25q-53 0 -95 -38.5t-47 -113.5l-116 23q13 124 80 188.5t168 64.5q105 0 170 -59t65 -162q0 -58 -35.5 -127t-112.5 -150l-180 -185h343l-18 -124h-525z" />
<glyph unicode="&#xb3;" horiz-adv-x="718" d="M100 586l55 116q39 -34 77.5 -44.5t76.5 -10.5q89 0 140.5 45.5t51.5 117.5q0 47 -29 72t-68 25q-34 0 -67 -12.5t-55 -29.5l-44 83q108 50 162 104t54 98q0 61 -77 61q-48 0 -92.5 -31.5t-65.5 -95.5l-103 53q85 198 269 198q190 0 190 -163q0 -95 -89 -172 q144 -40 144 -187q0 -133 -87 -213t-237 -83q-113 0 -206 69z" />
<glyph unicode="&#xb4;" horiz-adv-x="715" d="M147 1012l207 318h216l-293 -318h-130z" />
<glyph unicode="&#xb5;" horiz-adv-x="1143" d="M130 -390v1335h174v-502q0 -312 237 -313q103 0 198 70.5t95 184.5v560h176v-694q0 -50 15.5 -110.5t42.5 -129.5l-169 -33q-13 31 -23.5 62.5t-18.5 70.5q-77 -61 -158.5 -98t-178.5 -37q-64 0 -120.5 21.5t-95.5 68.5v-456h-174z" />
<glyph unicode="&#xb6;" horiz-adv-x="1050" d="M132 887q0 425 548 427q148 0 216 -14v-1474h-94v1398h-132v-1398h-98v672h-10q-166 0 -298 103.5t-132 285.5z" />
<glyph unicode="&#xb7;" horiz-adv-x="475" d="M105 504q0 55 38.5 93.5t94.5 38.5q55 0 93.5 -38.5t38.5 -93.5q0 -56 -38.5 -95t-93.5 -39q-56 0 -94.5 39t-38.5 95z" />
<glyph unicode="&#xb8;" horiz-adv-x="687" d="M147 -390l38 89q39 -19 79 -30.5t63 -11.5q89 0 87 82q0 77 -176 108l118 184h119l-77 -108q74 -22 108.5 -65t34.5 -106q0 -90 -58 -141t-162 -51q-39 0 -86 13t-88 37z" />
<glyph unicode="&#xb9;" horiz-adv-x="718" d="M150 1134l229 204q42 0 63.5 -26.5t21.5 -66.5v-598h116v-108h-369v108h118v498l-110 -105z" />
<glyph unicode="&#xba;" horiz-adv-x="812" d="M53 992q0 147 100.5 250.5t250.5 103.5q147 0 250 -103.5t103 -250.5q0 -150 -103 -250.5t-250 -100.5q-150 0 -250.5 101.5t-100.5 249.5zM174 992q0 -94 67.5 -161.5t162.5 -67.5q94 0 163 67.5t69 161.5q0 95 -69 163.5t-163 68.5q-95 0 -162.5 -68.5t-67.5 -163.5z " />
<glyph unicode="&#xbb;" horiz-adv-x="984" d="M82 130l316 368l-313 370h163l316 -373l-316 -365h-166zM420 130l318 365l-315 376h171l308 -376l-313 -365h-169z" />
<glyph unicode="&#xbc;" horiz-adv-x="1498" d="M63 1084l233 204q85 -6 86 -96v-598h116v-108h-371v108h119v482l-106 -92zM298 -24l794 1335h138l-793 -1335h-139zM838 166q0 89 28 199t82.5 208.5t141.5 166t192 70.5v-512h117l-6 -132h-111v-166h-134v166h-310zM981 298h167v327q-64 -55 -110 -147.5t-57 -179.5z " />
<glyph unicode="&#xbd;" horiz-adv-x="1498" d="M63 1084l233 204q85 -6 86 -96v-598h116v-108h-371v108h119v482l-106 -92zM298 -24l794 1335h138l-793 -1335h-139zM913 0q8 105 70 185.5t131 143.5q34 34 68 65t62 65t46 65.5t18 61.5q0 39 -23.5 66.5t-70.5 27.5q-114 0 -133 -149l-124 23q11 124 78.5 188.5 t170.5 64.5q105 0 171 -58t66 -163q0 -69 -39.5 -129.5t-93.5 -117.5t-109.5 -109.5t-89.5 -102.5h343l-16 -127h-525z" />
<glyph unicode="&#xbe;" horiz-adv-x="1498" d="M85 562l55 118q40 -31 78 -45.5t78 -14.5q89 0 139.5 46.5t50.5 119.5q0 97 -90 96q-69 0 -127 -50l-45 83q122 64 164.5 114t42.5 105q0 22 -16.5 37.5t-52.5 15.5q-111 0 -157 -137l-102 53q82 198 267 200q97 0 143 -44.5t46 -105.5q0 -95 -87 -172q75 -10 110 -63 t35 -130q0 -71 -27.5 -126.5t-72.5 -93t-104 -56.5t-120 -19q-113 0 -208 69zM298 -24l794 1335h138l-793 -1335h-139zM838 166q0 89 28 199t82.5 208.5t141.5 166t192 70.5v-512h117l-6 -132h-111v-166h-134v166h-310zM981 298h167v327q-64 -55 -110 -147.5t-57 -179.5z " />
<glyph unicode="&#xbf;" horiz-adv-x="797" d="M66 -108q0 147 182 335q64 63 94.5 128t34.5 123q0 47 -21 116h158q14 -39 20.5 -70t6.5 -54q0 -153 -159 -320q-140 -150 -142 -253q0 -158 195 -158q119 0 229 81l69 -135q-163 -102 -319 -102q-158 0 -253 84.5t-95 224.5zM296 810q0 55 38.5 93.5t90.5 38.5 q53 0 92 -38.5t39 -93.5t-39 -93.5t-92 -38.5q-52 0 -90.5 38.5t-38.5 93.5z" />
<glyph unicode="&#xc2;" horiz-adv-x="1246" d="M-3 0l554 1335h148l551 -1335h-192l-174 440h-528l-171 -440h-188zM360 1441l215 318h97l213 -318h-150l-113 197l-111 -197h-151zM420 589h398l-193 548z" />
<glyph unicode="&#xc4;" horiz-adv-x="1246" d="M-3 0l554 1335h148l551 -1335h-192l-174 440h-528l-171 -440h-188zM300 1551q0 50 36 86.5t86 36.5q47 0 82.5 -36.5t35.5 -86.5q0 -52 -36 -86.5t-82 -34.5q-50 0 -86 34.5t-36 86.5zM420 589h398l-193 548zM709 1551q0 50 37 86.5t85 36.5q47 0 82.5 -36.5t35.5 -86.5 q0 -52 -35.5 -86.5t-82.5 -34.5q-48 0 -85 34.5t-37 86.5z" />
<glyph unicode="&#xc5;" horiz-adv-x="1246" d="M-3 0l554 1335h148l551 -1335h-192l-174 440h-528l-171 -440h-188zM401 1659q0 92 65 157t155 65q92 0 157 -65t65 -157q0 -91 -65 -156t-157 -65t-156 65.5t-64 155.5zM420 589h398l-193 548zM515 1659q0 -44 31.5 -76t74.5 -32q45 0 75 32t30 76q0 45 -30 75.5 t-75 30.5q-44 0 -75 -30.5t-31 -75.5z" />
<glyph unicode="&#xc6;" horiz-adv-x="1610" d="M-27 0l715 1335h813v-151h-602l53 -408h522v-151h-498l72 -472h487v-153h-633l-76 525h-386l-279 -525h-188zM514 675h291l-53 444z" />
<glyph unicode="&#xc7;" horiz-adv-x="1193" d="M72 655q0 298 155 482q171 198 478 198q235 0 429 -79l-55 -140q-166 69 -369 71q-254 0 -372 -189q-90 -138 -90 -349q0 -193 98 -337q121 -182 342 -182q230 0 399 83l47 -144q-202 -89 -482 -88q-263 0 -421.5 186.5t-158.5 487.5zM398 -390l38 89q39 -19 79 -30.5 t63 -11.5q89 0 87 82q0 77 -176 108l118 184h119l-77 -108q74 -22 108.5 -65t34.5 -106q0 -90 -58 -141t-162 -51q-39 0 -86 13t-88 37z" />
<glyph unicode="&#xca;" horiz-adv-x="989" d="M138 0v1316h783v-150h-609v-398h543v-148h-543v-470h609v-150h-783zM232 1441l215 318h97l213 -318h-150l-113 197l-111 -197h-151z" />
<glyph unicode="&#xcb;" horiz-adv-x="989" d="M138 0v1316h783v-150h-609v-398h543v-148h-543v-470h609v-150h-783zM169 1551q0 50 36 86.5t86 36.5q47 0 82.5 -36.5t35.5 -86.5q0 -52 -36 -86.5t-82 -34.5q-50 0 -86 34.5t-36 86.5zM578 1551q0 50 37 86.5t85 36.5q47 0 82.5 -36.5t35.5 -86.5q0 -52 -35.5 -86.5 t-82.5 -34.5q-48 0 -85 34.5t-37 86.5z" />
<glyph unicode="&#xce;" horiz-adv-x="449" d="M-19 1441l215 318h97l213 -318h-150l-113 197l-111 -197h-151zM138 0v1316h174v-1316h-174z" />
<glyph unicode="&#xcf;" horiz-adv-x="449" d="M-83 1551q0 50 36 86.5t86 36.5q47 0 82.5 -36.5t35.5 -86.5q0 -52 -36 -86.5t-82 -34.5q-50 0 -86 34.5t-36 86.5zM138 0v1316h174v-1316h-174zM326 1551q0 50 37 86.5t85 36.5q47 0 82.5 -36.5t35.5 -86.5q0 -52 -35.5 -86.5t-82.5 -34.5q-48 0 -85 34.5t-37 86.5z" />
<glyph unicode="&#xd0;" horiz-adv-x="1269" d="M24 570v148h114v575q314 37 426 37q338 0 500 -201q133 -164 133 -443q0 -299 -144 -478q-177 -219 -544 -219q-113 0 -371 27v554h-114zM312 147q92 -8 229 -9q269 0 391 191q89 141 89 357q0 495 -465 494q-77 0 -244 -16v-446h443v-148h-443v-423z" />
<glyph unicode="&#xd1;" horiz-adv-x="1304" d="M138 0v1316h174l680 -1039v1039h174v-1316h-166l-688 1068v-1068h-174zM377 1441q0 82 40 139.5t115 57.5q25 0 56.5 -11t62 -26.5t59.5 -26t49 -10.5q53 0 52 74h120q-3 -97 -43.5 -154t-120.5 -57q-21 0 -53.5 13t-67 28t-65 27.5t-49.5 12.5q-21 0 -27 -21t-6 -46 h-122z" />
<glyph unicode="&#xd4;" horiz-adv-x="1431" d="M72 655q0 290 179.5 488t464.5 198q284 0 464.5 -198t180.5 -488q0 -291 -180.5 -486.5t-464.5 -195.5q-285 0 -464.5 195.5t-179.5 486.5zM243 657q0 -226 130.5 -379.5t342.5 -153.5q213 0 343 153.5t130 379.5q0 227 -130 381t-343 154q-214 0 -343.5 -154 t-129.5 -381zM453 1441l215 318h97l213 -318h-150l-113 197l-111 -197h-151z" />
<glyph unicode="&#xd6;" horiz-adv-x="1431" d="M72 655q0 290 179.5 488t464.5 198q284 0 464.5 -198t180.5 -488q0 -291 -180.5 -486.5t-464.5 -195.5q-285 0 -464.5 195.5t-179.5 486.5zM243 657q0 -226 130.5 -379.5t342.5 -153.5q213 0 343 153.5t130 379.5q0 227 -130 381t-343 154q-214 0 -343.5 -154 t-129.5 -381zM390 1551q0 50 36 86.5t86 36.5q47 0 82.5 -36.5t35.5 -86.5q0 -52 -36 -86.5t-82 -34.5q-50 0 -86 34.5t-36 86.5zM799 1551q0 50 37 86.5t85 36.5q47 0 82.5 -36.5t35.5 -86.5q0 -52 -35.5 -86.5t-82.5 -34.5q-48 0 -85 34.5t-37 86.5z" />
<glyph unicode="&#xd7;" horiz-adv-x="1152" d="M74 94l393 410q-97 102 -196.5 208t-196.5 209l111 108l393 -409q94 100 196 206t194 203l111 -108l-396 -415l396 -412l-111 -108l-393 410q-97 -98 -196.5 -206t-193.5 -204z" />
<glyph unicode="&#xd8;" horiz-adv-x="1431" d="M72 655q0 290 179.5 488t464.5 198q134 0 247 -44l32 64h177l-74 -145q44 -33 82 -74q181 -197 181 -487q0 -291 -180.5 -486.5t-464.5 -195.5q-130 0 -238 38l-43 -88h-179l84 162q-47 37 -89 84q-179 195 -179 486zM243 657q0 -226 130 -380q19 -25 41 -45l480 926 q-80 34 -178 34q-214 0 -343.5 -154t-129.5 -381zM551 153q74 -27 165 -29q213 0 343 153.5t130 379.5q0 227 -131 380q-16 19 -32 36z" />
<glyph unicode="&#xdb;" horiz-adv-x="1332" d="M138 562v754h177v-754q0 -438 352 -438q351 0 351 438v754h177v-754q0 -586 -528 -586t-529 586zM403 1441l215 318h97l213 -318h-150l-113 197l-111 -197h-151z" />
<glyph unicode="&#xdc;" horiz-adv-x="1332" d="M138 562v754h177v-754q0 -438 352 -438q351 0 351 438v754h177v-754q0 -586 -528 -586t-529 586zM340 1551q0 50 36 86.5t86 36.5q47 0 82.5 -36.5t35.5 -86.5q0 -52 -36 -86.5t-82 -34.5q-50 0 -86 34.5t-36 86.5zM749 1551q0 50 37 86.5t85 36.5q47 0 82.5 -36.5 t35.5 -86.5q0 -52 -35.5 -86.5t-82.5 -34.5q-48 0 -85 34.5t-37 86.5z" />
<glyph unicode="&#xde;" horiz-adv-x="1088" d="M147 0v1316h162v-202q55 11 145 12q251 0 392 -112t141 -326q0 -213 -141 -325t-392 -112q-90 0 -145 12v-263h-162zM309 417q64 -21 150 -21q367 0 367 292q0 293 -367 293q-85 0 -150 -21v-543z" />
<glyph unicode="&#xdf;" horiz-adv-x="1174" d="M127 -354q36 69 51 128.5t15 114.5v932q0 538 419 540q149 0 244.5 -90.5t95.5 -247.5q0 -63 -28 -114.5t-60 -93t-60 -72t-28 -55.5q0 -26 42 -64t90.5 -88t90 -108t41.5 -127q0 -153 -95.5 -239t-256.5 -86q-71 0 -136.5 17.5t-128.5 51.5l55 148q124 -66 213 -66 t138.5 46t49.5 112q0 61 -41.5 108t-92.5 92.5t-92 95t-41 116.5q0 36 27.5 78.5t62 85.5t62 83t27.5 74q0 185 -200 185q-232 0 -232 -427v-887q0 -71 -17.5 -143.5t-56.5 -141.5z" />
<glyph unicode="&#xe2;" horiz-adv-x="1013" d="M72 256q0 352 627 361q-27 208 -227 207q-149 0 -329 -69l-19 158q188 55 357 55q392 0 392 -404v-313q0 -105 40 -243l-164 -32l-27 121q-140 -121 -318 -121q-141 0 -235.5 75.5t-96.5 204.5zM210 1064l215 318h97l213 -318h-150l-113 197l-111 -197h-151zM248 274 q0 -147 164 -147q92 0 182 44q105 53 105 127v166q-451 -8 -451 -190z" />
<glyph unicode="&#xe4;" horiz-adv-x="1013" d="M72 256q0 352 627 361q-27 208 -227 207q-149 0 -329 -69l-19 158q188 55 357 55q392 0 392 -404v-313q0 -105 40 -243l-164 -32l-27 121q-140 -121 -318 -121q-141 0 -235.5 75.5t-96.5 204.5zM183 1174q0 50 36 86.5t86 36.5q47 0 82.5 -36.5t35.5 -86.5 q0 -52 -36 -86.5t-82 -34.5q-50 0 -86 34.5t-36 86.5zM248 274q0 -147 164 -147q92 0 182 44q105 53 105 127v166q-451 -8 -451 -190zM592 1174q0 50 37 86.5t85 36.5q47 0 82.5 -36.5t35.5 -86.5q0 -52 -35.5 -86.5t-82.5 -34.5q-48 0 -85 34.5t-37 86.5z" />
<glyph unicode="&#xe5;" horiz-adv-x="1013" d="M72 256q0 352 627 361q-27 208 -227 207q-149 0 -329 -69l-19 158q188 55 357 55q392 0 392 -404v-313q0 -105 40 -243l-164 -32l-27 121q-140 -121 -318 -121q-141 0 -235.5 75.5t-96.5 204.5zM248 274q0 -147 164 -147q92 0 182 44q105 53 105 127v166 q-451 -8 -451 -190zM285 1282q0 92 65 157t155 65q92 0 157 -65t65 -157q0 -91 -65 -156t-157 -65t-156 65.5t-64 155.5zM399 1282q0 -44 31.5 -76t74.5 -32q45 0 75 32t30 76q0 45 -30 75.5t-75 30.5q-44 0 -75 -30.5t-31 -75.5z" />
<glyph unicode="&#xe6;" horiz-adv-x="1715" d="M72 256q0 360 630 366q-5 95 -63.5 153.5t-163.5 58.5q-89 0 -325 -71l-23 158q193 58 359 58q124 0 206 -37.5t129 -131.5q132 169 385 169q425 0 440 -536h-773q14 -153 110 -233t244 -80q161 0 363 72l14 -152q-188 -74 -388 -74q-271 0 -414 193q-103 -193 -396 -193 q-68 0 -129 19t-107 54.5t-72 88t-26 118.5zM254 274q0 -72 46 -109.5t112 -37.5q132 0 211 75t79 207v61q-235 -3 -341.5 -51.5t-106.5 -144.5zM890 589h584q-19 102 -91 173.5t-188 71.5q-122 0 -201 -64.5t-104 -180.5z" />
<glyph unicode="&#xe7;" horiz-adv-x="958" d="M72 475q0 224 135.5 362.5t359.5 138.5q188 0 323 -82l-61 -145q-130 80 -267 80q-141 0 -227.5 -98t-86.5 -256q0 -160 86 -256.5t228 -96.5q137 0 267 80l61 -144q-133 -82 -323 -82q-224 0 -359.5 139t-135.5 360zM282 -390l38 89q39 -19 79 -30.5t63 -11.5 q89 0 87 82q0 77 -176 108l118 184h119l-77 -108q74 -22 108.5 -65t34.5 -106q0 -90 -58 -141t-162 -51q-39 0 -86 13t-88 37z" />
<glyph unicode="&#xea;" horiz-adv-x="1080" d="M72 456q0 235 144 382q140 138 359 138q425 0 435 -533h-767q11 -150 107 -231.5t247 -81.5q155 0 355 72l19 -152q-203 -74 -385 -74q-224 0 -369 133.5t-145 346.5zM254 589h584q-13 108 -88 175.5t-191 67.5q-111 0 -198 -67.5t-107 -175.5zM277 1064l215 318h97 l213 -318h-150l-113 197l-111 -197h-151z" />
<glyph unicode="&#xeb;" horiz-adv-x="1080" d="M72 456q0 235 144 382q140 138 359 138q425 0 435 -533h-767q11 -150 107 -231.5t247 -81.5q155 0 355 72l19 -152q-203 -74 -385 -74q-224 0 -369 133.5t-145 346.5zM216 1174q0 50 36 86.5t86 36.5q47 0 82.5 -36.5t35.5 -86.5q0 -52 -36 -86.5t-82 -34.5 q-50 0 -86 34.5t-36 86.5zM254 589h584q-13 108 -88 175.5t-191 67.5q-111 0 -198 -67.5t-107 -175.5zM625 1174q0 50 37 86.5t85 36.5q47 0 82.5 -36.5t35.5 -86.5q0 -52 -35.5 -86.5t-82.5 -34.5q-48 0 -85 34.5t-37 86.5z" />
<glyph unicode="&#xee;" horiz-adv-x="449" d="M-19 1064l215 318h97l213 -318h-150l-113 197l-111 -197h-151zM138 0v940h174v-940h-174z" />
<glyph unicode="&#xef;" horiz-adv-x="449" d="M-83 1174q0 50 36 86.5t86 36.5q47 0 82.5 -36.5t35.5 -86.5q0 -52 -36 -86.5t-82 -34.5q-50 0 -86 34.5t-36 86.5zM138 0v940h174v-940h-174zM326 1174q0 50 37 86.5t85 36.5q47 0 82.5 -36.5t35.5 -86.5q0 -52 -35.5 -86.5t-82.5 -34.5q-48 0 -85 34.5t-37 86.5z" />
<glyph unicode="&#xf0;" horiz-adv-x="1044" d="M100 393q0 182 113.5 306.5t279.5 124.5t245 -88q-66 137 -234 270l-6 4l-279 -145l-76 122l221 113q-99 56 -195 84l16 138q193 -40 346 -135l252 129l61 -127l-189 -97q287 -277 287 -641q0 -224 -125.5 -360t-318.5 -136q-174 0 -286 126.5t-112 311.5zM261 393 q0 -111 71.5 -196.5t171.5 -85.5q105 0 178 83t73 199q0 119 -73 200.5t-178 81.5q-100 0 -171.5 -85.5t-71.5 -196.5z" />
<glyph unicode="&#xf1;" horiz-adv-x="1169" d="M116 942h163q19 -47 19 -113q133 138 322 139q187 0 299 -116t112 -319v-533h-174v533q0 288 -263 288q-97 0 -189.5 -87t-92.5 -172v-562h-174v691q0 172 -22 251zM306 1064q0 82 40 139.5t115 57.5q25 0 56.5 -11t62 -26.5t59.5 -26t49 -10.5q53 0 52 74h120 q-3 -97 -43.5 -154t-120.5 -57q-21 0 -53.5 13t-67 28t-65 27.5t-49.5 12.5q-21 0 -27 -21t-6 -46h-122z" />
<glyph unicode="&#xf4;" horiz-adv-x="1138" d="M72 475q0 211 141 356t357 145t357 -145t141 -356q0 -210 -141 -353.5t-357 -143.5t-357 144t-141 353zM243 475q0 -150 91 -250.5t236 -100.5q143 0 234.5 100.5t91.5 250.5t-91.5 250.5t-234.5 100.5t-235 -100.5t-92 -250.5zM308 1064l215 318h97l213 -318h-150 l-113 197l-111 -197h-151z" />
<glyph unicode="&#xf6;" horiz-adv-x="1138" d="M72 475q0 211 141 356t357 145t357 -145t141 -356q0 -210 -141 -353.5t-357 -143.5t-357 144t-141 353zM243 475q0 -150 91 -250.5t236 -100.5q143 0 234.5 100.5t91.5 250.5t-91.5 250.5t-234.5 100.5t-235 -100.5t-92 -250.5zM244 1174q0 50 36 86.5t86 36.5 q47 0 82.5 -36.5t35.5 -86.5q0 -52 -36 -86.5t-82 -34.5q-50 0 -86 34.5t-36 86.5zM653 1174q0 50 37 86.5t85 36.5q47 0 82.5 -36.5t35.5 -86.5q0 -52 -35.5 -86.5t-82.5 -34.5q-48 0 -85 34.5t-37 86.5z" />
<glyph unicode="&#xf7;" horiz-adv-x="1152" d="M72 435v148h1009v-148h-1009zM451 155q0 56 38.5 94.5t90.5 38.5q53 0 91.5 -38.5t38.5 -94.5q0 -55 -38.5 -94t-91.5 -39q-52 0 -90.5 39t-38.5 94zM451 865q0 56 38.5 94.5t90.5 38.5q53 0 91.5 -38.5t38.5 -94.5q0 -55 -38.5 -93.5t-91.5 -38.5q-52 0 -90.5 38.5 t-38.5 93.5z" />
<glyph unicode="&#xf8;" horiz-adv-x="1138" d="M72 475q0 211 141 356t357 145q77 0 146 -19l47 88h177l-80 -158q34 -24 66 -58q142 -143 142 -354q0 -210 -141 -353.5t-357 -143.5q-92 0 -169 25l-42 -80h-177l81 154q-27 19 -50 45q-140 143 -141 353zM243 475q0 -150 92 -251l3 -3l306 597q-36 8 -74 8 q-143 0 -235 -100.5t-92 -250.5zM470 138q47 -14 100 -14q143 0 234.5 100.5t91.5 250.5t-91 250l-19 19z" />
<glyph unicode="&#xfb;" horiz-adv-x="1155" d="M138 425v515h174v-497q0 -312 239 -313q100 0 196.5 76t96.5 179v555h174v-689q0 -93 58 -240l-169 -33q-27 67 -50 160q-166 -164 -329 -162q-390 0 -390 449zM316 1064l215 318h97l213 -318h-150l-113 197l-111 -197h-151z" />
<glyph unicode="&#xfc;" horiz-adv-x="1155" d="M138 425v515h174v-497q0 -312 239 -313q100 0 196.5 76t96.5 179v555h174v-689q0 -93 58 -240l-169 -33q-27 67 -50 160q-166 -164 -329 -162q-390 0 -390 449zM252 1174q0 50 36 86.5t86 36.5q47 0 82.5 -36.5t35.5 -86.5q0 -52 -36 -86.5t-82 -34.5q-50 0 -86 34.5 t-36 86.5zM661 1174q0 50 37 86.5t85 36.5q47 0 82.5 -36.5t35.5 -86.5q0 -52 -35.5 -86.5t-82.5 -34.5q-48 0 -85 34.5t-37 86.5z" />
<glyph unicode="&#xfe;" horiz-adv-x="1210" d="M153 -370v1686h162v-467q137 130 334 130q203 0 332.5 -136.5t129.5 -347.5q0 -232 -136.5 -375.5t-352.5 -143.5q-185 0 -307 113v-459h-162zM315 385q0 -106 95.5 -182t219.5 -76q144 0 233 97t89 269q0 150 -89 245.5t-230 95.5q-129 0 -223.5 -81t-94.5 -212v-156z " />
<glyph unicode="&#xff;" horiz-adv-x="997" d="M-11 940h191l326 -697l309 697h191l-431 -921q-174 -367 -486 -436l-44 143q245 55 361 343zM174 1174q0 50 36 86.5t86 36.5q47 0 82.5 -36.5t35.5 -86.5q0 -52 -36 -86.5t-82 -34.5q-50 0 -86 34.5t-36 86.5zM583 1174q0 50 37 86.5t85 36.5q47 0 82.5 -36.5 t35.5 -86.5q0 -52 -35.5 -86.5t-82.5 -34.5q-48 0 -85 34.5t-37 86.5z" />
<glyph unicode="&#x102;" horiz-adv-x="1246" d="M-3 0l554 1335h148l551 -1335h-192l-174 440h-528l-171 -440h-188zM297 1735h149q13 -69 56.5 -123.5t119.5 -54.5q77 0 122 54t58 124h147q-27 -158 -110 -234t-217 -76q-132 0 -215 76t-110 234zM420 589h398l-193 548z" />
<glyph unicode="&#x103;" horiz-adv-x="1013" d="M72 256q0 352 627 361q-27 208 -227 207q-149 0 -329 -69l-19 158q188 55 357 55q392 0 392 -404v-313q0 -105 40 -243l-164 -32l-27 121q-140 -121 -318 -121q-141 0 -235.5 75.5t-96.5 204.5zM181 1358h149q13 -69 56.5 -123.5t119.5 -54.5q77 0 122 54t58 124h147 q-27 -158 -110 -234t-217 -76q-132 0 -215 76t-110 234zM248 274q0 -147 164 -147q92 0 182 44q105 53 105 127v166q-451 -8 -451 -190z" />
<glyph unicode="&#x106;" horiz-adv-x="1193" d="M72 655q0 298 155 482q171 198 478 198q235 0 429 -79l-55 -140q-166 69 -369 71q-254 0 -372 -189q-90 -138 -90 -349q0 -193 98 -337q121 -182 342 -182q230 0 399 83l47 -144q-202 -89 -482 -88q-263 0 -421.5 186.5t-158.5 487.5zM415 1441l208 318l156 -50 l-232 -268h-132z" />
<glyph unicode="&#x107;" horiz-adv-x="958" d="M72 475q0 224 135.5 362.5t359.5 138.5q188 0 323 -82l-61 -145q-130 80 -267 80q-141 0 -227.5 -98t-86.5 -256q0 -160 86 -256.5t228 -96.5q137 0 267 80l61 -144q-133 -82 -323 -82q-224 0 -359.5 139t-135.5 360zM296 1064l208 318l156 -50l-232 -268h-132z" />
<glyph unicode="&#x10c;" horiz-adv-x="1193" d="M72 655q0 298 155 482q171 198 478 198q235 0 429 -79l-55 -140q-166 69 -369 71q-254 0 -372 -189q-90 -138 -90 -349q0 -193 98 -337q121 -182 342 -182q230 0 399 83l47 -144q-202 -89 -482 -88q-263 0 -421.5 186.5t-158.5 487.5zM334 1759h149l113 -195l111 195h152 l-216 -318h-95z" />
<glyph unicode="&#x10d;" horiz-adv-x="958" d="M72 475q0 224 135.5 362.5t359.5 138.5q188 0 323 -82l-61 -145q-130 80 -267 80q-141 0 -227.5 -98t-86.5 -256q0 -160 86 -256.5t228 -96.5q137 0 267 80l61 -144q-133 -82 -323 -82q-224 0 -359.5 139t-135.5 360zM216 1382h149l113 -195l111 195h152l-216 -318h-95z " />
<glyph unicode="&#x110;" horiz-adv-x="1269" d="M24 570v148h114v575q314 37 426 37q338 0 500 -201q133 -164 133 -443q0 -299 -144 -478q-177 -219 -544 -219q-113 0 -371 27v554h-114zM312 147q92 -8 229 -9q269 0 391 191q89 141 89 357q0 495 -465 494q-77 0 -244 -16v-446h443v-148h-443v-423z" />
<glyph unicode="&#x111;" horiz-adv-x="1201" d="M72 489q0 208 134 347.5t335 139.5q208 0 338 -130v288h-270v122h270v137h174v-137h161v-122h-161v-883q0 -116 11 -251h-165q-8 31 -9 103q-130 -127 -334 -127q-205 0 -344.5 145t-139.5 368zM243 489q0 -169 85.5 -265.5t241.5 -96.5q137 0 223 62t86 167v216 q0 106 -102 183t-218 77q-143 0 -229.5 -96.5t-86.5 -246.5z" />
<glyph unicode="&#x11e;" horiz-adv-x="1254" d="M72 655q0 298 155 482q171 198 478 198q235 0 429 -79l-55 -140q-166 69 -369 71q-254 0 -372 -189q-90 -138 -90 -349q0 -193 98 -337q121 -182 342 -182q164 0 283 44v374h-332v146h506v-663l-89 22q-161 -72 -404 -72q-263 0 -421.5 186.5t-158.5 487.5zM302 1735h149 q13 -69 56.5 -123.5t119.5 -54.5q77 0 122 54t58 124h147q-27 -158 -110 -234t-217 -76q-132 0 -215 76t-110 234z" />
<glyph unicode="&#x11f;" horiz-adv-x="916" d="M89 614q0 153 102 249.5t246 96.5h397v-119h-137q50 -19 79 -92q25 -58 26 -116q0 -163 -90 -258.5t-258 -95.5q-61 0 -119 19q-14 -13 -14 -35q0 -42 199 -97q287 -80 287 -290q0 -130 -93.5 -210t-273.5 -80q-150 0 -308 93l61 139q147 -85 258 -87q85 0 141.5 40.5 t56.5 96.5q0 82 -154 146q-116 47 -224 105t-108 152q0 45 25 114q-100 108 -99 229zM147 1358h149q13 -69 56.5 -123.5t119.5 -54.5q77 0 122 54t58 124h147q-27 -158 -110 -234t-217 -76q-132 0 -215 76t-110 234zM251 620q0 -83 59.5 -140t143.5 -57q100 0 150.5 57 t50.5 140q0 82 -59.5 140t-141.5 58q-83 0 -143 -58t-60 -140z" />
<glyph unicode="&#x130;" horiz-adv-x="449" d="M123 1507q0 50 37 85.5t85 35.5q47 0 82.5 -35.5t35.5 -85.5q0 -53 -36 -87.5t-82 -34.5q-48 0 -85 34.5t-37 87.5zM138 0v1316h174v-1316h-174z" />
<glyph unicode="&#x131;" horiz-adv-x="449" d="M138 0v940h174v-940h-174z" />
<glyph unicode="&#x141;" horiz-adv-x="992" d="M58 393v171l80 19v733h174v-691l622 146v-172l-622 -145v-304h645v-150h-819v412z" />
<glyph unicode="&#x142;" horiz-adv-x="599" d="M22 620v148l118 34v591h175v-538l257 77v-149l-257 -78v-183q0 -213 67 -301q58 -75 190 -86l-18 -157q-412 22 -414 505v169z" />
<glyph unicode="&#x152;" horiz-adv-x="1998" d="M72 657q0 291 196 488.5t503 197.5q210 0 377 -104v77h782v-150h-608v-398h541v-148h-541v-470h608v-150h-782v74q-167 -102 -377 -101q-307 0 -503 195.5t-196 488.5zM246 657q0 -216 156.5 -375.5t368.5 -159.5q236 0 377 166v733q-141 171 -377 171q-211 0 -368 -162 t-157 -373z" />
<glyph unicode="&#x153;" horiz-adv-x="1904" d="M72 475q0 211 141 356t357 145q268 0 409 -213q166 213 420 213q425 0 434 -533h-765q11 -147 106 -230t248 -83q151 1 353 72l19 -152q-202 -74 -385 -74q-279 0 -433 204q-147 -203 -406 -202q-216 0 -357 144t-141 353zM243 475q0 -150 91 -250.5t236 -100.5 q143 0 234.5 100.5t91.5 250.5t-91.5 250.5t-234.5 100.5t-235 -100.5t-92 -250.5zM1079 589h583q-14 110 -90 176.5t-190 66.5q-110 0 -197 -67.5t-106 -175.5z" />
<glyph unicode="&#x15e;" horiz-adv-x="1008" d="M53 94l74 157q158 -119 343 -119q135 0 212.5 59.5t77.5 159.5q0 166 -265 251q-390 124 -390 382q0 155 123 256t320 101q196 0 339 -88l-74 -139q-138 69 -269 70q-119 0 -192 -54t-73 -132q0 -153 265 -238q216 -69 304.5 -160t88.5 -241q0 -171 -136.5 -277 t-341.5 -106q-219 0 -406 118zM308 -390l38 89q39 -19 79 -30.5t63 -11.5q89 0 87 82q0 77 -176 108l118 184h119l-77 -108q74 -22 108.5 -65t34.5 -106q0 -90 -58 -141t-162 -51q-39 0 -86 13t-88 37z" />
<glyph unicode="&#x15f;" horiz-adv-x="818" d="M72 66l68 139q114 -77 245 -78q193 0 193 134q0 102 -188 159q-277 85 -277 263q0 119 92.5 200.5t250.5 81.5q161 0 272 -81l-64 -127q-97 72 -218 72q-72 0 -120.5 -37t-48.5 -95q0 -72 201 -141q271 -94 271 -287q0 -130 -100.5 -211.5t-271.5 -81.5q-141 0 -305 90z M210 -390l38 89q39 -19 79 -30.5t63 -11.5q89 0 87 82q0 77 -176 108l118 184h119l-77 -108q74 -22 108.5 -65t34.5 -106q0 -90 -58 -141t-162 -51q-39 0 -86 13t-88 37z" />
<glyph unicode="&#x160;" horiz-adv-x="1008" d="M53 94l74 157q158 -119 343 -119q135 0 212.5 59.5t77.5 159.5q0 166 -265 251q-390 124 -390 382q0 155 123 256t320 101q196 0 339 -88l-74 -139q-138 69 -269 70q-119 0 -192 -54t-73 -132q0 -153 265 -238q216 -69 304.5 -160t88.5 -241q0 -171 -136.5 -277 t-341.5 -106q-219 0 -406 118zM240 1759h149l113 -195l111 195h152l-216 -318h-95z" />
<glyph unicode="&#x161;" horiz-adv-x="818" d="M72 66l68 139q114 -77 245 -78q193 0 193 134q0 102 -188 159q-277 85 -277 263q0 119 92.5 200.5t250.5 81.5q161 0 272 -81l-64 -127q-97 72 -218 72q-72 0 -120.5 -37t-48.5 -95q0 -72 201 -141q271 -94 271 -287q0 -130 -100.5 -211.5t-271.5 -81.5q-141 0 -305 90z M163 1382h149l113 -195l111 195h152l-216 -318h-95z" />
<glyph unicode="&#x178;" horiz-adv-x="1094" d="M-16 1316h201l366 -591l362 591h198l-475 -738v-578h-172v575zM221 1551q0 50 36 86.5t86 36.5q47 0 82.5 -36.5t35.5 -86.5q0 -52 -36 -86.5t-82 -34.5q-50 0 -86 34.5t-36 86.5zM630 1551q0 50 37 86.5t85 36.5q47 0 82.5 -36.5t35.5 -86.5q0 -52 -35.5 -86.5 t-82.5 -34.5q-48 0 -85 34.5t-37 86.5z" />
<glyph unicode="&#x17d;" horiz-adv-x="1246" d="M74 0v111l855 1055h-810l31 150h1019v-113l-854 -1053h896l-34 -150h-1103zM359 1759h149l113 -195l111 195h152l-216 -318h-95z" />
<glyph unicode="&#x17e;" horiz-adv-x="989" d="M55 0v105l625 689h-598l34 146h802v-114l-622 -679h641l-24 -147h-858zM232 1382h149l113 -195l111 195h152l-216 -318h-95z" />
<glyph unicode="&#x192;" horiz-adv-x="1116" d="M-74 -122l71 122q66 -39 135 -39q180 0 250 310l93 431h-148l27 144h155l8 44q55 216 166 332t277 116q108 0 179 -69l-71 -121q-66 39 -136 39q-183 0 -249 -311l-8 -30h257l-28 -144h-260l-96 -446q-97 -448 -443 -446q-108 0 -179 68z" />
<glyph unicode="&#x1a0;" horiz-adv-x="1431" d="M72 655q0 290 179.5 488t464.5 198q198 0 355 -102q71 92 71 218h149q0 -161 -119 -307q189 -197 189 -495q0 -291 -180.5 -486.5t-464.5 -195.5q-285 0 -464.5 195.5t-179.5 486.5zM243 657q0 -226 130.5 -379.5t342.5 -153.5q213 0 343 153.5t130 379.5q0 227 -130 381 t-343 154q-214 0 -343.5 -154t-129.5 -381z" />
<glyph unicode="&#x1a1;" horiz-adv-x="1138" d="M72 475q0 211 141 356t357 145q193 0 332 -124q55 92 55 196h149q0 -153 -116 -301q78 -122 78 -272q0 -210 -141 -353.5t-357 -143.5t-357 144t-141 353zM243 475q0 -150 91 -250.5t236 -100.5q143 0 234.5 100.5t91.5 250.5t-91.5 250.5t-234.5 100.5t-235 -100.5 t-92 -250.5z" />
<glyph unicode="&#x1af;" horiz-adv-x="1332" d="M138 562v754h177v-754q0 -438 352 -438q351 0 351 438v754h177v-110q61 33 98 106t37 145h150q-8 -130 -90 -250t-195 -162v-483q0 -586 -528 -586t-529 586z" />
<glyph unicode="&#x1b0;" horiz-adv-x="1143" d="M130 425v515h174v-497q0 -312 237 -313q100 0 196.5 76t96.5 179v555h176v-169q55 31 97.5 107t42.5 148h150q0 -108 -81 -232q-89 -135 -209 -180v-363q0 -93 58 -240l-169 -33q-24 53 -42 133q-174 -135 -337 -135q-390 0 -390 449z" />
<glyph unicode="&#x2c6;" horiz-adv-x="602" d="M39 1064l215 318h97l213 -318h-150l-113 197l-111 -197h-151z" />
<glyph unicode="&#x2c7;" horiz-adv-x="850" d="M163 1382h149l113 -195l111 195h152l-216 -318h-95z" />
<glyph unicode="&#x2d8;" horiz-adv-x="945" d="M147 1358h149q13 -69 56.5 -123.5t119.5 -54.5q77 0 122 54t58 124h147q-27 -158 -110 -234t-217 -76q-132 0 -215 76t-110 234z" />
<glyph unicode="&#x2d9;" horiz-adv-x="533" d="M147 1507q0 50 37 85.5t85 35.5q47 0 82.5 -35.5t35.5 -85.5q0 -53 -36 -87.5t-82 -34.5q-48 0 -85 34.5t-37 87.5z" />
<glyph unicode="&#x2da;" horiz-adv-x="734" d="M147 1282q0 92 65 157t155 65q92 0 157 -65t65 -157q0 -91 -65 -156t-157 -65t-156 65.5t-64 155.5zM261 1282q0 -44 31.5 -76t74.5 -32q45 0 75 32t30 76q0 45 -30 75.5t-75 30.5q-44 0 -75 -30.5t-31 -75.5z" />
<glyph unicode="&#x2db;" horiz-adv-x="704" d="M147 -211q0 53 15 120t36 144h164q-58 -147 -58 -224q0 -90 78 -98q31 0 79 15.5t98 37.5v-161q-113 -47 -203 -46q-108 0 -158.5 63.5t-50.5 148.5z" />
<glyph unicode="&#x2dc;" horiz-adv-x="715" d="M77 1029q0 82 40.5 138.5t114.5 56.5q24 0 56.5 -10.5t63 -26t59.5 -26.5t48 -11q53 0 53 74h118q-2 -97 -42 -153t-121 -56q-21 0 -53 12.5t-67 28t-65.5 27.5t-49.5 12q-21 0 -27.5 -21t-6.5 -45h-121z" />
<glyph unicode="&#x2dd;" horiz-adv-x="992" d="M147 884l174 474h174l-232 -474h-116zM495 884l175 474h176l-234 -474h-117z" />
<glyph unicode="&#x300;" d="M-512 1332l158 50l207 -318h-132z" />
<glyph unicode="&#x301;" d="M-572 1064l208 318l156 -50l-232 -268h-132z" />
<glyph unicode="&#x303;" d="M-636 1064q0 82 40 139.5t115 57.5q25 0 56.5 -11t62 -26.5t59.5 -26t49 -10.5q53 0 52 74h120q-3 -97 -43.5 -154t-120.5 -57q-21 0 -53.5 13t-67 28t-65 27.5t-49.5 12.5q-21 0 -27 -21t-6 -46h-122z" />
<glyph unicode="&#x309;" d="M-514 1366q21 45 74 84.5t142 39.5q79 0 130.5 -41t51.5 -130q0 -47 -25 -84.5t-54 -70.5t-52.5 -64.5t-23.5 -68.5h-125q0 45 25 81t55.5 67.5t55.5 62t25 63.5q0 48 -21 62.5t-56 14.5q-47 0 -83 -30t-48 -47z" />
<glyph unicode="&#x323;" horiz-adv-x="552" d="M147 -266q0 55 38.5 94.5t91.5 39.5q52 0 90.5 -39.5t38.5 -94.5t-38.5 -93.5t-90.5 -38.5q-53 0 -91.5 38.5t-38.5 93.5z" />
<glyph unicode="&#xe00;" />
<glyph unicode="&#xe01;" horiz-adv-x="1080" d="M82 741q6 172 134 282q116 103 296 103q198 0 313 -106.5t115 -289.5v-730h-172v733q0 113 -69 179.5t-182 66.5q-166 0 -251 -141q130 -24 185 -125q-141 -83 -142 -199v-514h-171v525q0 116 113 182q-69 48 -169 34z" />
<glyph unicode="&#xe02;" horiz-adv-x="1146" d="M55 832q0 126 100.5 210t234.5 84q138 0 225 -67t87 -194q0 -82 -69 -232t-69 -210v-202q0 -47 42.5 -72t92.5 -25q53 0 94 26.5t41 70.5v882h172v-842q0 -135 -84 -209t-223 -74q-137 0 -221.5 73t-84.5 210v179q0 80 73 214t73 211q0 64 -44 105.5t-102 41.5 q-89 0 -119 -36q82 -3 133.5 -53t51.5 -127q0 -82 -58 -139.5t-138 -57.5q-94 0 -151 68.5t-57 164.5zM177 791q0 -36 25 -61t61 -25q37 0 61 25t24 61q0 37 -25 61t-60 24q-36 0 -61 -25t-25 -60z" />
<glyph unicode="&#xe03;" horiz-adv-x="1190" d="M55 728q0 147 79 266.5t204 131.5l90 -95l86 98q249 -56 249 -295q0 -85 -77 -218t-77 -210v-185q0 -47 42.5 -72t92.5 -25q52 0 93.5 26.5t41.5 70.5v882h171v-842q0 -135 -84 -209t-222 -74t-222.5 73t-84.5 210v124q0 89 92.5 233.5t92.5 227.5q-13 106 -89 146 l-102 -105l-122 111q-27 -17 -58.5 -59.5t-34.5 -75.5q42 8 58 8q82 0 140 -58t58 -141q0 -82 -56.5 -141t-141.5 -59q-97 0 -158 80.5t-61 175.5zM188 672q0 -36 25 -61t61 -25t60.5 25t24.5 61q0 37 -25 61t-60 24q-36 0 -61 -25t-25 -60z" />
<glyph unicode="&#xe04;" horiz-adv-x="1113" d="M85 702q0 190 139 310q130 114 320 114q174 0 294 -92q135 -105 135 -285v-749h-171v755q0 100 -86 166q-80 58 -185 58q-125 0 -200 -84.5t-75 -195.5q0 -31 13 -101t13 -123v-77q0 3 9.5 59.5t12.5 86.5q27 116 86 194q72 100 166 100q74 0 129.5 -52.5t55.5 -128.5 q0 -71 -55.5 -125t-129.5 -54q-69 0 -125 50q-83 -251 -83 -528h-171v177q0 129 -46 283t-46 242zM470 657q0 -36 23.5 -59t60.5 -23q36 0 60.5 23t24.5 59q0 37 -25 62t-60 25q-37 0 -60.5 -25t-23.5 -62z" />
<glyph unicode="&#xe05;" horiz-adv-x="1113" d="M85 716q0 147 73.5 259t211.5 159l186 -108l196 108q221 -92 221 -335v-799h-171v755q0 168 -74 221l-172 -108l-192 108q-108 -74 -108 -251q0 -53 16 -148.5t18 -186.5v-26q0 6 7 44t12 78q19 116 76 194q69 100 171 100q74 0 128 -52.5t54 -128.5q0 -74 -54 -126.5 t-128 -52.5q-69 0 -125 47q-83 -246 -83 -467h-171v177q0 135 -46 297t-46 242zM470 597q0 -37 23.5 -60t60.5 -23q36 0 60.5 23t24.5 60q0 36 -25 61t-60 25q-37 0 -60.5 -25t-23.5 -61z" />
<glyph unicode="&#xe06;" horiz-adv-x="1251" d="M66 736q0 143 80.5 263t196.5 127l92 -95l87 98q249 -61 249 -277q0 -97 -77 -234t-77 -212v-42q163 -58 323 -182v921h171v-1103h-157q-163 169 -305 216v-28q0 -89 -66 -149.5t-158 -60.5t-156 65t-64 159q0 92 65 156.5t155 64.5q19 0 34 -3q0 77 85 210 q80 125 81 208q0 108 -89 157l-96 -105l-119 108q-31 -14 -61 -58t-36 -80q22 8 58 8q82 0 141.5 -58t59.5 -138q0 -82 -59.5 -141t-141.5 -59q-97 0 -156.5 72.5t-59.5 191.5zM198 672q0 -36 25 -61t62 -25q36 0 60.5 25t24.5 61q0 37 -24.5 61t-60.5 24q-37 0 -62 -25 t-25 -60zM335 198q0 -36 27.5 -63t62.5 -27q39 0 65.5 27t26.5 63q0 40 -26.5 66t-65.5 26q-36 0 -63 -26t-27 -66z" />
<glyph unicode="&#xe07;" horiz-adv-x="878" d="M53 583l102 119l412 -464v475q-8 -3 -53 -3q-85 0 -145 57t-60 146t61 151t144 62q98 0 161 -63t63 -161v-902h-168zM420 918q0 -39 27.5 -66.5t66.5 -27.5q40 0 67.5 27.5t27.5 66.5t-27.5 66.5t-67.5 27.5q-39 0 -66.5 -27.5t-27.5 -66.5z" />
<glyph unicode="&#xe08;" horiz-adv-x="1077" d="M53 844q36 279 436 282q185 0 305 -70q143 -89 143 -265v-598q0 -103 -66 -159t-172 -56q-202 0 -235 180l-41 219q-31 -11 -69 -13q-80 0 -138 58.5t-58 139.5q0 79 58 137t138 58q71 0 126.5 -45t70.5 -115l77 -423q8 -50 69 -50q68 0 68 56v622q0 92 -85 138 q-71 39 -176 39q-238 0 -285 -135h-166zM269 562q0 -37 25 -62t60 -25q36 0 61 25t25 62q0 36 -25 60.5t-61 24.5q-37 0 -61 -25t-24 -60z" />
<glyph unicode="&#xe09;" horiz-adv-x="1119" d="M69 780q42 346 464 346q183 0 301 -73q143 -89 145 -265v-263q0 -105 -61 -155q108 -61 108 -182q0 -89 -61 -149.5t-150 -60.5q-79 0 -140 53.5t-66 134.5q-97 -36 -195 -166h-158v216q0 77 29 105q-27 0 -39 3q-153 34 -152 185q0 80 57 135t137 55q79 0 134.5 -55 t55.5 -135q0 -39 -25 -104t-25 -107v-116q44 45 166 112.5t171 119.5q42 56 42 130v255q0 92 -89 141q-74 39 -182 39q-116 0 -196 -45q-97 -52 -105 -154h-166zM202 509q0 -37 23 -60.5t60 -23.5q36 0 59 23.5t23 60.5q0 36 -23 59t-59 23q-37 0 -60 -23.5t-23 -58.5z M733 185q0 -37 25 -61t60 -24q37 0 61.5 24t24.5 61q0 36 -24.5 61t-61.5 25q-36 0 -60.5 -25t-24.5 -61z" />
<glyph unicode="&#xe0a;" horiz-adv-x="1146" d="M55 832q0 126 100.5 210t234.5 84q138 0 225 -67t87 -194q0 -82 -69 -232t-69 -210v-202q0 -47 42.5 -72t92.5 -25q53 0 94 26.5t41 70.5v457q0 102 -79 127q10 50 2 97q141 52 142 264h172q-19 -213 -148 -311q83 -67 83 -175v-419q0 -135 -84 -209t-223 -74 q-137 0 -221.5 73t-84.5 210v179q0 80 73 214t73 211q0 64 -44 105.5t-102 41.5q-89 0 -119 -36q82 -3 133.5 -53t51.5 -127q0 -82 -58 -139.5t-138 -57.5q-94 0 -151 68.5t-57 164.5zM177 791q0 -36 25 -61t61 -25q37 0 61 25t24 61q0 37 -25 61t-60 24q-36 0 -61 -25 t-25 -60z" />
<glyph unicode="&#xe0b;" horiz-adv-x="1190" d="M55 728q0 147 79 266.5t204 131.5l90 -95l86 98q249 -56 249 -295q0 -85 -77 -218t-77 -210v-185q0 -47 42.5 -72t92.5 -25q52 0 93.5 26.5t41.5 70.5v457q0 102 -80 127q11 50 3 97q140 52 140 264h172q-19 -213 -146 -311q82 -67 82 -175v-419q0 -135 -84 -209 t-222 -74t-222.5 73t-84.5 210v124q0 89 92.5 233.5t92.5 227.5q-13 106 -89 146l-102 -105l-122 111q-27 -17 -58.5 -59.5t-34.5 -75.5q42 8 58 8q82 0 140 -58t58 -141q0 -82 -56.5 -141t-141.5 -59q-97 0 -158 80.5t-61 175.5zM188 672q0 -36 25 -61t61 -25t60.5 25 t24.5 61q0 37 -25 61t-60 24q-36 0 -61 -25t-25 -60z" />
<glyph unicode="&#xe0c;" horiz-adv-x="1561" d="M82 741q6 172 129 282q113 103 290 103q185 0 299.5 -105.5t114.5 -290.5v-337q219 -69 335 -195v905h172v-1103h-153q-63 135 -227 216q6 -39 6 -47q0 -89 -62.5 -140t-141.5 -51q-85 0 -148 61t-63 149q0 127 111 191v354q0 108 -67.5 175.5t-167.5 67.5 q-169 0 -240 -138q127 -24 182 -125q-141 -77 -142 -199v-118q89 0 150 -61t61 -150q0 -85 -61 -146t-150 -61q-85 0 -145.5 61t-60.5 146q0 71 35 119v221q0 116 113 182q-69 48 -169 34zM213 185q0 -39 28 -66t65 -27q40 0 67.5 27t27.5 66t-27.5 66.5t-67.5 27.5 q-39 0 -66 -27.5t-27 -66.5zM749 185q0 -39 28 -66t67 -27t66 27t27 66t-27.5 66.5t-65.5 27.5q-39 0 -67 -27.5t-28 -66.5z" />
<glyph unicode="&#xe0d;" horiz-adv-x="1561" d="M82 741q6 172 129 282q113 103 290 103q185 0 299.5 -105.5t114.5 -290.5v-495q0 -58 50 -84.5t116 -26.5q64 0 116.5 26.5t52.5 84.5v868h172v-842q0 -138 -108 -216q-95 -67 -235 -67q-143 0 -233 67q-102 74 -102 216v472q0 108 -67.5 175.5t-167.5 67.5 q-169 0 -240 -138q118 -21 182 -125q-141 -77 -142 -199v-129q19 11 53 11q85 0 145 -59.5t60 -148.5t-60.5 -149.5t-150.5 -60.5q-91 0 -154.5 63.5t-63.5 160.5v323q0 116 113 182q-69 48 -169 34zM269 185q0 -39 27.5 -66t65.5 -27q39 0 66.5 27t27.5 66t-27.5 66.5 t-66.5 27.5t-66 -27.5t-27 -66.5zM691 -293q0 82 57 139t139 57q80 0 134.5 -58t54.5 -141q0 -108 -86 -139q39 -5 52 -5q232 0 246 329h150q0 -205 -92 -326q-103 -135 -312 -135q-135 0 -232 68q-111 80 -111 211zM799 -290q0 -37 23.5 -63t61.5 -26q39 0 64 26t25 63 q0 36 -25 60.5t-64 24.5t-62 -24.5t-23 -60.5z" />
<glyph unicode="&#xe0e;" horiz-adv-x="1174" d="M22 188q0 85 60.5 146.5t144.5 61.5q34 0 42 -9l-18 172q0 97 95 148q-75 48 -169 34q3 172 127 282q119 103 298 103q193 0 312.5 -108t119.5 -288v-1366h-174q-36 147 -254 232q-19 -243 -216 -243q-92 0 -156.5 58t-64.5 146q0 196 259 197q39 0 65 -2q13 52 29 77 q27 44 87 79l113 -61q-85 -47 -102 -124q158 -55 243 -137v1147q0 111 -73.5 178.5t-183.5 67.5q-169 0 -247 -141q135 -27 185 -125q-74 -42 -98 -69q-37 -45 -37 -119q0 -61 14 -175.5t14 -161.5q0 -89 -59 -149.5t-146 -60.5q-89 0 -149.5 61t-60.5 149zM138 188 q0 -40 27.5 -67t66.5 -27t67 27t28 67q0 39 -28 66.5t-67 27.5t-66.5 -27.5t-27.5 -66.5zM296 -431q-3 -89 89 -89q52 6 74 42.5t19 104.5q-24 9 -66 9q-114 0 -116 -67z" />
<glyph unicode="&#xe0f;" horiz-adv-x="1174" d="M22 188q0 85 60.5 146.5t144.5 61.5q34 0 42 -9l-18 172q0 97 95 148q-75 48 -169 34q3 172 127 282q119 103 298 103q193 0 312.5 -108t119.5 -288v-1369h-155l-143 188l-137 -188l-127 175q-10 -77 -71 -131t-132 -54q-92 0 -153 59t-61 147q0 205 235 205q53 0 74 -8 q34 103 145 161l97 -117q-102 -28 -113 -113l106 -133l134 169l130 -149v1161q0 111 -73.5 178.5t-183.5 67.5q-169 0 -247 -141q135 -27 185 -125q-74 -42 -98 -69q-37 -45 -37 -119q0 -61 14 -175.5t14 -161.5q0 -89 -59 -149.5t-146 -60.5q-89 0 -149.5 61t-60.5 149z M138 188q0 -40 27.5 -67t66.5 -27t67 27t28 67q0 39 -28 66.5t-67 27.5t-66.5 -27.5t-27.5 -66.5zM182 -440q0 -69 72 -69q94 0 94 130q-27 13 -77 15q-89 0 -89 -76z" />
<glyph unicode="&#xe10;" horiz-adv-x="1027" d="M-39 -435q0 85 58 140t155 55q56 0 77 -14q8 92 100 141l86 -50q-82 -39 -83 -156l135 -182h144q89 0 89 47v37h-34q-74 0 -125 45t-51 111q0 64 51 111t125 47q72 0 126 -46.5t54 -111.5v-190q0 -185 -185 -185h-227l-121 166q-6 -66 -58.5 -113t-118.5 -47 q-92 0 -144.5 55t-52.5 140zM69 -437q0 -69 71 -69q98 0 98 127q-37 13 -64 15q-105 0 -105 -73zM94 783q17 177 130 267q95 75 232 76q53 0 156.5 -27.5t161.5 -27.5q41 0 52 66l142 -37q-50 -190 -203 -190q-52 0 -152.5 34.5t-156.5 34.5q-42 0 -96 -22.5t-70 -52.5 q319 -52 470 -121q108 -50 108 -147v-406q0 -252 -262 -252q-254 0 -255 238v90q-22 -5 -39 -5q-80 0 -132.5 54t-52.5 131q0 80 59.5 133t134.5 53q83 0 142 -51t59 -132v-268q0 -99 87 -99q89 0 88 99v399q0 58 -260 116q-224 47 -343 47zM232 486q0 -34 23.5 -57 t56.5 -23q34 0 57.5 23t23.5 57t-23.5 57.5t-57.5 23.5t-57 -23.5t-23 -57.5zM622 -261q0 -24 16.5 -42t44.5 -18q27 0 45.5 18t18.5 42q0 25 -18.5 42t-45.5 17t-44 -16.5t-17 -42.5z" />
<glyph unicode="&#xe11;" horiz-adv-x="1359" d="M55 738q0 144 78 260t199 128l91 -95l89 98q205 -45 204 -266q0 -89 -62.5 -256t-62.5 -275q-21 -132 -21 -158l274 786q58 166 182 166q193 0 193 -232v-894h-171v887q0 74 -45 76q-39 0 -51 -40l-324 -923h-193v296q0 110 72.5 291t72.5 278q0 95 -55 130l-102 -108 l-117 111q-27 -14 -58.5 -58t-36.5 -77q19 8 60 8q83 0 141 -59.5t58 -139.5q0 -82 -58 -141t-141 -59q-91 0 -153.5 78t-62.5 188zM188 672q0 -36 25 -61t61 -25t60.5 25t24.5 61q0 37 -25 61t-60 24q-36 0 -61 -25t-25 -60z" />
<glyph unicode="&#xe12;" horiz-adv-x="1522" d="M85 702q0 155 76.5 271t220.5 156l146 -126l136 126q288 -42 288 -399v-368q55 -16 141.5 -66t117.5 -85v892h171v-1103h-160q-69 119 -174 180q0 -86 -57 -144t-153 -58q-89 0 -147 62.5t-58 152.5q0 63 42.5 118.5t104.5 73.5v340q0 188 -83 251l-169 -121l-155 121 q-119 -61 -119 -271q0 -42 40.5 -181t40.5 -209q0 -42 -14 -77q61 137 183 213q-75 5 -118 58t-43 119q0 74 52.5 125.5t126.5 51.5q72 0 126 -53t54 -124q0 -135 -164.5 -319.5t-164.5 -308.5h-180q3 77 3 177q0 161 -33 243q-77 193 -78 282zM437 628q0 -37 24.5 -62 t60.5 -25q37 0 62 25t25 62q0 36 -25 60.5t-62 24.5q-36 0 -60.5 -24.5t-24.5 -60.5zM752 185q0 -39 23.5 -62t62.5 -23q40 0 64 23t24 62t-25 64t-63 25q-39 0 -62.5 -25t-23.5 -64z" />
<glyph unicode="&#xe13;" horiz-adv-x="1591" d="M82 741q6 172 129 282q113 103 290 103q185 0 299.5 -104t114.5 -289v-559q42 50 149 135q150 116 178 142q39 50 38 129v523h171v-581q0 -108 -58 -152q108 -61 108 -182q0 -85 -55.5 -147.5t-145.5 -62.5q-80 0 -141 51t-75 129q-74 -50 -166 -158h-174v733 q0 108 -67.5 175.5t-167.5 67.5q-169 0 -240 -138q108 -8 182 -125q-141 -77 -142 -199v-129q19 11 53 11q85 0 145 -59.5t60 -148.5t-60.5 -149.5t-150.5 -60.5q-91 0 -154.5 63.5t-63.5 160.5v323q0 116 113 182q-69 48 -169 34zM269 185q0 -39 27.5 -66t65.5 -27 q39 0 66.5 27t27.5 66t-27.5 66.5t-66.5 27.5t-66 -27.5t-27 -66.5zM1200 190q0 -39 28 -66t65 -27q39 0 67 27t28 66q0 40 -28 67.5t-67 27.5t-66 -27.5t-27 -67.5z" />
<glyph unicode="&#xe14;" horiz-adv-x="1119" d="M85 699q0 188 131.5 307.5t319.5 119.5q190 0 313 -100q130 -108 130 -296v-730h-172v741q0 105 -79 171.5t-187 66.5q-116 0 -201.5 -79t-85.5 -190q0 -69 46 -196t46 -190q0 -19 -6 -53q80 130 180 218q-77 5 -122 62q-42 47 -42 116q0 71 54 125t129 54 q74 0 126.5 -54t52.5 -125q0 -124 -121 -277q-169 -208 -191 -250q-42 -71 -42 -140h-174q3 103 3 188q0 150 -32 229q-25 72 -50.5 148t-25.5 134zM456 667q0 -37 24 -60.5t59 -23.5q36 0 59.5 23.5t23.5 60.5q0 36 -23.5 59t-59.5 23q-37 0 -60 -23.5t-23 -58.5z" />
<glyph unicode="&#xe15;" horiz-adv-x="1119" d="M85 716q0 152 76.5 262.5t217.5 150.5l157 -119l147 119q296 -45 296 -399v-730h-172v725q0 177 -97 254l-171 -124l-169 124q-116 -58 -116 -263q0 -67 40.5 -196.5t40.5 -192.5q0 -45 -16 -92q16 39 79.5 108t121.5 105q-74 6 -117.5 58.5t-43.5 115.5q0 75 51.5 127.5 t125.5 52.5t127 -52.5t53 -127.5q0 -118 -125 -252q-166 -177 -193 -230q-42 -79 -42 -140h-174q6 105 6 213q0 111 -33 204q-69 199 -70 299zM454 625q0 -36 23.5 -60t58.5 -24q36 0 60 24t24 60q0 37 -24 59.5t-60 22.5t-59 -23.5t-23 -58.5z" />
<glyph unicode="&#xe16;" horiz-adv-x="1080" d="M82 741q6 172 134 282q116 103 296 103q198 0 313 -106.5t115 -289.5v-730h-172v733q0 113 -69 179.5t-182 66.5q-166 0 -251 -141q130 -24 185 -125q-141 -83 -142 -199v-129q19 11 53 11q85 0 145 -59.5t60 -148.5t-60.5 -149.5t-150.5 -60.5q-91 0 -154.5 63.5 t-63.5 160.5v323q0 116 113 182q-69 48 -169 34zM269 185q0 -39 27.5 -66t65.5 -27q39 0 66.5 27t27.5 66t-27.5 66.5t-66.5 27.5t-66 -27.5t-27 -66.5z" />
<glyph unicode="&#xe17;" horiz-adv-x="1210" d="M27 918q0 85 61.5 146.5t149.5 61.5q94 0 156 -64t62 -160v-413q0 -95 -33 -293q31 121 78 271l154 493q52 169 208 166q208 -3 208 -236v-890h-172v894q0 85 -42 85q-36 0 -50 -42l-329 -937h-193v710q-27 -5 -47 -5q-90 0 -150.5 62t-60.5 151zM143 915 q0 -39 27.5 -66.5t67.5 -27.5q39 0 66.5 27.5t27.5 66.5t-27.5 67t-66.5 28q-40 0 -67.5 -28t-27.5 -67z" />
<glyph unicode="&#xe18;" horiz-adv-x="989" d="M69 780q16 177 86 257q80 89 251 89q61 0 171.5 -26.5t155.5 -26.5q47 0 53 61l135 -36q-31 -92 -72.5 -132t-126.5 -40q-50 0 -152.5 27.5t-157.5 27.5q-150 0 -161 -91q271 -58 424.5 -110t153.5 -181v-364q0 -257 -346 -257q-343 0 -343 257v362h172v-373 q0 -100 174 -100q171 0 171 100v365q0 63 -215 111.5t-373 79.5z" />
<glyph unicode="&#xe19;" horiz-adv-x="1196" d="M27 918q0 85 61.5 146.5t149.5 61.5q94 0 156 -64t62 -160v-704q45 34 199 98q137 58 191 116q40 42 38 132v559h172v-581q0 -110 -58 -152q108 -61 108 -185q0 -89 -61 -148t-146 -59q-80 0 -138.5 51t-69.5 129q-89 -45 -127 -66q-66 -42 -105 -92h-174v710 q-27 -5 -47 -5q-90 0 -150.5 62t-60.5 151zM143 915q0 -39 27.5 -66.5t67.5 -27.5q39 0 66.5 27.5t27.5 66.5t-27.5 67t-66.5 28q-40 0 -67.5 -28t-27.5 -67zM802 185q0 -39 27.5 -66t66.5 -27q40 0 67 27t27 66t-28 66.5t-66 27.5q-39 0 -66.5 -27.5t-27.5 -66.5z" />
<glyph unicode="&#xe1a;" horiz-adv-x="1229" d="M27 918q0 85 61.5 146.5t149.5 61.5q94 0 156 -64t62 -160v-656q0 -56 75 -89t157 -33q80 0 155 33t75 89v857h171v-855q0 -271 -401 -270q-403 0 -403 270v462q-27 -5 -47 -5q-90 0 -150.5 62t-60.5 151zM143 915q0 -39 27.5 -66.5t67.5 -27.5q39 0 66.5 27.5t27.5 66.5 t-27.5 67t-66.5 28q-40 0 -67.5 -28t-27.5 -67z" />
<glyph unicode="&#xe1b;" horiz-adv-x="1229" d="M27 918q0 85 61.5 146.5t149.5 61.5q94 0 156 -64t62 -160v-656q0 -56 75 -89t157 -33q80 0 155 33t75 89v1300h171v-1298q0 -271 -401 -270q-403 0 -403 270v462q-27 -5 -47 -5q-90 0 -150.5 62t-60.5 151zM143 915q0 -39 27.5 -66.5t67.5 -27.5q39 0 66.5 27.5 t27.5 66.5t-27.5 67t-66.5 28q-40 0 -67.5 -28t-27.5 -67z" />
<glyph unicode="&#xe1c;" horiz-adv-x="1143" d="M111 0v902q0 97 64.5 160.5t156.5 63.5q89 0 149 -63t60 -148q0 -89 -60.5 -149.5t-148.5 -60.5q-39 0 -50 2v-472l219 340h111l220 -343v871h171v-1103h-171l-276 443l-277 -443h-168zM238 915q0 -39 27.5 -66.5t66.5 -27.5t66 27.5t27 66.5t-27.5 67t-65.5 28 q-39 0 -66.5 -28t-27.5 -67z" />
<glyph unicode="&#xe1d;" horiz-adv-x="1143" d="M111 0v902q0 97 64.5 160.5t156.5 63.5q89 0 149 -63t60 -148q0 -89 -60.5 -149.5t-148.5 -60.5q-39 0 -50 2v-472l219 340h111l220 -343v1314h171v-1546h-171l-276 443l-277 -443h-168zM238 915q0 -39 27.5 -66.5t66.5 -27.5t66 27.5t27 66.5t-27.5 67t-65.5 28 q-39 0 -66.5 -28t-27.5 -67z" />
<glyph unicode="&#xe1e;" horiz-adv-x="1332" d="M27 918q0 85 61.5 146.5t149.5 61.5q94 0 156 -64t62 -160v-413q0 -72 -33 -293q60 251 70 271l193 589h105l193 -589q6 -16 69 -271q-34 221 -32 293v614h171v-1103h-194l-260 857l-268 -857h-185v710q-27 -5 -47 -5q-90 0 -150.5 62t-60.5 151zM143 915 q0 -39 27.5 -66.5t67.5 -27.5q39 0 66.5 27.5t27.5 66.5t-27.5 67t-66.5 28q-40 0 -67.5 -28t-27.5 -67z" />
<glyph unicode="&#xe1f;" horiz-adv-x="1332" d="M27 918q0 85 61.5 146.5t149.5 61.5q94 0 156 -64t62 -160v-413q0 -72 -33 -293q60 251 70 271l193 589h105l193 -589q6 -16 69 -271q-34 221 -32 293v1057h171v-1546h-194l-260 857l-268 -857h-185v710q-27 -5 -47 -5q-90 0 -150.5 62t-60.5 151zM143 915 q0 -39 27.5 -66.5t67.5 -27.5q39 0 66.5 27.5t27.5 66.5t-27.5 67t-66.5 28q-40 0 -67.5 -28t-27.5 -67z" />
<glyph unicode="&#xe20;" horiz-adv-x="1174" d="M22 188q0 85 60.5 146.5t144.5 61.5q34 0 42 -9l-18 172q0 97 95 148q-75 48 -169 34q3 172 127 282q119 103 298 103q193 0 312.5 -108t119.5 -288v-730h-171v733q0 111 -73.5 178.5t-183.5 67.5q-169 0 -247 -141q135 -27 185 -125q-74 -42 -98 -69q-37 -45 -37 -119 q0 -61 14 -175.5t14 -161.5q0 -89 -59 -149.5t-146 -60.5q-89 0 -149.5 61t-60.5 149zM138 188q0 -40 27.5 -67t66.5 -27t67 27t28 67q0 39 -28 66.5t-67 27.5t-66.5 -27.5t-27.5 -66.5z" />
<glyph unicode="&#xe21;" horiz-adv-x="1152" d="M58 918q0 85 61 146.5t150 61.5q94 0 155.5 -64t61.5 -160v-525q219 -75 355 -197v923h171v-1103h-171q-161 143 -324 202v-14q0 -89 -67.5 -149.5t-153.5 -60.5q-92 0 -158 66.5t-66 157.5q0 92 66.5 156.5t157.5 64.5h19v287q-27 -5 -46 -5q-89 0 -150 62t-61 151z M174 915q0 -39 28 -66.5t67 -27.5t66 27.5t27 66.5t-28 67t-65 28q-39 0 -67 -28t-28 -67zM202 202q0 -39 27 -66.5t67 -27.5q39 0 66.5 27.5t27.5 66.5q0 40 -27.5 67t-66.5 27q-40 0 -67 -28t-27 -66z" />
<glyph unicode="&#xe22;" horiz-adv-x="1066" d="M97 846q0 122 67.5 201t186.5 79q82 0 141 -51.5t59 -134.5q0 -75 -52.5 -130t-139.5 -55q-44 0 -77 13q22 -105 100 -104h196v-136h-196q-44 0 -72 -38.5t-28 -88.5v-127q0 -150 235 -150q238 0 238 150v829h171v-824q0 -301 -409 -301q-406 0 -406 301v127 q0 133 113 188q-127 85 -127 252zM271 937q0 -39 25 -63.5t63 -24.5q39 0 64 24.5t25 63.5t-25 64t-64 25t-63.5 -25t-24.5 -64z" />
<glyph unicode="&#xe23;" horiz-adv-x="908" d="M61 788q5 153 80 245.5t215 92.5q58 0 159.5 -26.5t144.5 -26.5q47 0 53 61l136 -36q-50 -169 -182 -169q-50 0 -143 25t-139 25q-122 0 -139 -95q213 -44 358 -93.5t145 -170.5v-435q0 -89 -62 -148t-151 -59t-150.5 61t-61.5 149q0 89 62 149.5t150 60.5q34 0 42 -2 v237q0 45 -183.5 87.5t-333.5 67.5zM443 188q0 -40 27.5 -67t65.5 -27q39 0 66.5 27t27.5 67q0 39 -27.5 66.5t-66.5 27.5t-66 -27.5t-27 -66.5z" />
<glyph unicode="&#xe24;" horiz-adv-x="1080" d="M82 741q6 172 134 282q116 103 296 103q198 0 313 -106.5t115 -289.5v-1117h-172v1120q0 113 -69 179.5t-182 66.5q-166 0 -251 -141q130 -24 185 -125q-141 -83 -142 -199v-129q19 11 53 11q85 0 145 -59.5t60 -148.5t-60.5 -149.5t-150.5 -60.5q-91 0 -154.5 63.5 t-63.5 160.5v323q0 116 113 182q-69 48 -169 34zM269 185q0 -39 27.5 -66t65.5 -27q39 0 66.5 27t27.5 66t-27.5 66.5t-66.5 27.5t-66 -27.5t-27 -66.5z" />
<glyph unicode="&#xe25;" horiz-adv-x="1102" d="M63 780q17 169 148 260q121 85 311 86q172 0 296 -81q143 -92 145 -254v-791h-172v478q0 82 -94 128q-72 34 -161 33q-85 0 -146 -42q-74 -50 -75 -133v-68q21 5 49 5q90 0 153 -62t63 -149q0 -89 -66 -149t-152 -60q-92 0 -155.5 59.5t-63.5 149.5v256q0 163 123 253 q108 80 267 81q172 0 258 -94v124q0 85 -100 132q-77 37 -174 37q-108 0 -185 -50q-85 -56 -102 -149h-167zM271 190q0 -39 28 -66t65 -27q40 0 67.5 27t27.5 66q0 40 -27.5 67.5t-67.5 27.5q-39 0 -66 -27.5t-27 -67.5z" />
<glyph unicode="&#xe26;" horiz-adv-x="1174" d="M22 188q0 85 60.5 146.5t144.5 61.5q34 0 42 -9l-18 172q0 97 95 148q-75 48 -169 34q3 172 127 282q119 103 298 103q193 0 312.5 -108t119.5 -288v-1117h-171v1120q0 111 -73.5 178.5t-183.5 67.5q-169 0 -247 -141q135 -27 185 -125q-74 -42 -98 -69q-37 -45 -37 -119 q0 -61 14 -175.5t14 -161.5q0 -89 -59 -149.5t-146 -60.5q-89 0 -149.5 61t-60.5 149zM138 188q0 -40 27.5 -67t66.5 -27t67 27t28 67q0 39 -28 66.5t-67 27.5t-66.5 -27.5t-27.5 -66.5z" />
<glyph unicode="&#xe27;" horiz-adv-x="1047" d="M63 741q9 182 121 283.5t297 101.5q182 0 293 -73q132 -85 133 -262v-589q0 -97 -63.5 -159t-157.5 -62q-89 0 -150 61t-61 146q0 89 61 149.5t150 60.5q31 0 50 -2v406q0 177 -255 177q-106 0 -178.5 -65t-72.5 -173h-167zM591 190q0 -39 28 -66t67 -27t66.5 27t27.5 66 q0 40 -27.5 67.5t-66.5 27.5t-67 -27.5t-28 -67.5z" />
<glyph unicode="&#xe28;" horiz-adv-x="1113" d="M85 702q0 190 139 310q130 114 320 114q108 0 211 -45q63 48 63 133h194q-33 -153 -128 -224q89 -103 89 -241v-749h-171v755q0 100 -86 166q-80 58 -185 58q-125 0 -200 -84.5t-75 -195.5q0 -31 13 -101t13 -123v-71q0 10 7 55t15 85q27 116 83 197q75 97 169 97 q74 0 129.5 -52.5t55.5 -128.5q0 -71 -55.5 -125t-129.5 -54q-69 0 -125 50q-83 -251 -83 -528h-171v177q0 129 -46 283t-46 242zM470 657q0 -36 23.5 -59t60.5 -23q36 0 60.5 23t24.5 59q0 37 -25 62t-60 25q-37 0 -60.5 -25t-23.5 -62z" />
<glyph unicode="&#xe29;" horiz-adv-x="1274" d="M27 918q0 85 61.5 146.5t149.5 61.5q94 0 156 -64t62 -160v-646q0 -55 65 -93.5t186 -38.5q125 0 190.5 39t65.5 93v167q-64 -14 -117 -14q-337 0 -337 230q0 77 51.5 131t136.5 54q79 0 129 -51t50 -124q0 -89 -58 -129q74 5 145 28v555h171v-459q45 42 69 103l90 -92 q-52 -89 -159 -160v-247q0 -271 -424 -270q-425 0 -425 270v462q-27 -5 -47 -5q-90 0 -150.5 62t-60.5 151zM143 915q0 -39 27.5 -66.5t67.5 -27.5q39 0 66.5 27.5t27.5 66.5t-27.5 67t-66.5 28q-40 0 -67.5 -28t-27.5 -67zM609 647q0 -37 23 -61t59 -24q37 0 60 24t23 61 q0 36 -23 61t-60 25q-36 0 -59 -25t-23 -61z" />
<glyph unicode="&#xe2a;" horiz-adv-x="1102" d="M63 780q17 169 148 260q121 85 311 86q125 0 225 -45q58 53 58 133h193q-34 -141 -119 -219q82 -89 84 -204v-791h-172v478q0 82 -94 128q-72 34 -161 33q-85 0 -146 -42q-74 -50 -75 -133v-68q39 5 49 5q90 0 153 -62t63 -149q0 -89 -66 -149t-152 -60 q-92 0 -155.5 59.5t-63.5 149.5v256q0 163 123 253q108 80 267 81q172 0 258 -94v124q0 85 -100 132q-77 37 -174 37q-108 0 -185 -50q-85 -56 -102 -149h-167zM271 190q0 -39 28 -66t65 -27q40 0 67.5 27t27.5 66q0 40 -27.5 67.5t-67.5 27.5q-39 0 -66 -27.5t-27 -67.5z " />
<glyph unicode="&#xe2b;" horiz-adv-x="1210" d="M27 918q0 85 61.5 146.5t149.5 61.5q94 0 156 -64t62 -160v-413q0 -72 -33 -293q27 119 83 218l151 264q50 82 90 93q-56 69 -56 144q0 89 61 150t150 61t149 -61.5t60 -149.5q0 -91 -77 -160q37 -69 37 -149v-606h-172v614q0 74 -31 74q-22 0 -63 -68l-359 -620h-161 v710q-27 -5 -47 -5q-90 0 -150.5 62t-60.5 151zM143 915q0 -39 27.5 -66.5t67.5 -27.5q39 0 66.5 27.5t27.5 66.5t-27.5 67t-66.5 28q-40 0 -67.5 -28t-27.5 -67zM807 915q0 -39 28 -66.5t67 -27.5t66 27.5t27 66.5t-27.5 67t-65.5 28q-39 0 -67 -28t-28 -67z" />
<glyph unicode="&#xe2c;" horiz-adv-x="1293" d="M27 918q0 85 61.5 146.5t149.5 61.5q94 0 156 -64t62 -160v-443q0 -85 -33 -271q24 66 60 133l174 291h123l174 -291q37 -66 61 -133q-34 185 -34 271v251q-27 -5 -47 -5q-89 0 -149 62t-60 151q0 85 60.5 146.5t148.5 61.5q64 0 111 -31q53 44 66 119h150 q-19 -141 -130 -214q22 -44 22 -98v-902h-174l-261 493l-256 -493h-177v710q-27 -5 -47 -5q-90 0 -150.5 62t-60.5 151zM143 915q0 -39 27.5 -66.5t67.5 -27.5q39 0 66.5 27.5t27.5 66.5t-27.5 67t-66.5 28q-40 0 -67.5 -28t-27.5 -67zM841 915q0 -39 27.5 -66.5t65.5 -27.5 q39 0 67 27.5t28 66.5t-28 67t-67 28t-66 -28t-27 -67z" />
<glyph unicode="&#xe2d;" horiz-adv-x="1088" d="M63 844q37 279 438 282q185 0 304 -70q143 -89 143 -265v-543q0 -143 -130 -212q-105 -58 -270 -58q-166 0 -269 58q-124 69 -124 212v280q0 100 55.5 167.5t156.5 67.5q89 0 150 -59.5t61 -147.5q0 -85 -61 -146.5t-150 -61.5q-24 0 -40 6v-85q0 -143 224 -145 q227 0 225 147v531q0 92 -85 138q-71 39 -177 39q-263 0 -284 -135h-167zM274 556q0 -39 27.5 -66.5t65.5 -27.5q39 0 67 27.5t28 66.5t-28 66t-67 27t-66 -27.5t-27 -65.5z" />
<glyph unicode="&#xe2e;" horiz-adv-x="1063" d="M92 923q0 206 406 206q199 0 326 -108q21 41 36 108h166q-34 -166 -113 -253q10 -36 10 -93v-535q0 -143 -129 -212q-106 -58 -272 -58t-268 58q-124 69 -124 212v227q0 100 55 167.5t158 67.5q89 0 150 -59.5t61 -146.5q0 -86 -61.5 -147t-149.5 -61q-24 0 -42 5v-32 q0 -143 224 -145q227 0 227 147v547q-127 -42 -309 -42q-351 0 -351 147zM248 504q0 -40 28 -67.5t67 -27.5t66.5 27.5t27.5 67.5q0 39 -27.5 66t-66.5 27t-67 -28t-28 -65zM251 934q0 -44 205 -44q165 0 260 39q-83 74 -244 74q-221 0 -221 -69z" />
<glyph unicode="&#xe2f;" horiz-adv-x="1050" d="M66 913q0 89 61 151t150 62t150.5 -63t61.5 -150q0 -14 -6 -42q92 69 111 232h124q188 0 189 -199v-904h-171v871q0 100 -31 105q-11 -130 -126 -209t-250 -79q-108 0 -179 56q-82 61 -84 169zM182 913q0 -40 28 -67.5t67 -27.5t66 27.5t27 67.5q0 39 -27.5 66t-65.5 27 q-39 0 -67 -27t-28 -66z" />
<glyph unicode="&#xe30;" horiz-adv-x="939" d="M80 271q0 80 55 135.5t136 55.5q85 0 139 -57t54 -134q0 -74 -41 -110q256 10 257 309h154q-13 -440 -411 -439q-167 0 -255 67.5t-88 172.5zM80 899q0 80 55 135t136 55q85 0 139 -56.5t54 -133.5q0 -74 -41 -111q256 11 257 310h154q-13 -441 -411 -441 q-167 0 -255 68.5t-88 173.5zM185 271q0 -36 23.5 -59.5t60.5 -23.5q36 0 60.5 23.5t24.5 59.5q0 37 -25 61t-60 24q-37 0 -60.5 -25t-23.5 -60zM185 899q0 -36 23.5 -60t60.5 -24q36 0 60.5 24t24.5 60q0 37 -25 61t-60 24q-37 0 -60.5 -25t-23.5 -60z" />
<glyph unicode="&#xe31;" d="M-702 1559q0 80 55.5 135.5t134.5 55.5q85 0 139 -57t54 -134q0 -74 -40 -110q287 10 335 329h162q-72 -459 -497 -459q-166 0 -254.5 67.5t-88.5 172.5zM-597 1559q0 -36 23 -59t60 -23q36 0 61 23t25 59q0 37 -25 62t-61 25q-37 0 -60 -25t-23 -62z" />
<glyph unicode="&#xe32;" horiz-adv-x="928" d="M45 763q8 166 108.5 264.5t266.5 98.5q155 0 261.5 -79t106.5 -240v-807h-171v805q0 77 -52.5 125.5t-144.5 48.5t-149.5 -61t-59.5 -155h-166z" />
<glyph unicode="&#xe33;" horiz-adv-x="928" d="M-498 1517q0 98 69.5 166.5t165.5 68.5q97 0 164.5 -67.5t67.5 -167.5q0 -97 -67.5 -164.5t-164.5 -67.5q-100 0 -167.5 68.5t-67.5 163.5zM-377 1517q0 -47 34 -78.5t80 -31.5q47 0 78.5 31.5t31.5 78.5q0 48 -31.5 81t-78.5 33t-80.5 -33t-33.5 -81zM45 763 q8 166 108.5 264.5t266.5 98.5q155 0 261.5 -79t106.5 -240v-807h-171v805q0 77 -52.5 125.5t-144.5 48.5t-149.5 -61t-59.5 -155h-166z" />
<glyph unicode="&#xe34;" d="M-1026 1338q34 370 404 371q213 0 338 -128t149 -336q-343 110 -628 110q-129 0 -263 -17zM-863 1451q48 11 147 11q206 0 404 -55q-16 69 -99.5 130t-187.5 61q-100 0 -172.5 -40.5t-91.5 -106.5z" />
<glyph unicode="&#xe35;" d="M-1026 1338q34 370 404 371q195 0 316 -108v190h166v-509q2 -18 5 -37q-343 110 -628 110q-129 0 -263 -17zM-863 1451q48 11 147 11q206 0 404 -55q-16 69 -99.5 130t-187.5 61q-100 0 -172.5 -40.5t-91.5 -106.5z" />
<glyph unicode="&#xe36;" d="M-1026 1338q34 370 404 371q108 0 194 -34q8 61 52 103t107 42q69 0 116.5 -48.5t47.5 -117.5q0 -56 -32 -100.5t-82 -57.5q66 -108 84 -251q-343 110 -628 110q-129 0 -263 -17zM-863 1451q48 11 147 11q206 0 404 -55q-16 69 -99.5 130t-187.5 61q-100 0 -172.5 -40.5 t-91.5 -106.5zM-348 1654q0 -34 25 -56.5t54 -22.5q31 0 55 22.5t24 56.5t-24 56.5t-55 22.5t-55 -23.5t-24 -55.5z" />
<glyph unicode="&#xe37;" d="M-1026 1338q34 370 404 371q42 0 78 -5v87h124v-116q61 -24 114 -74v190h166v-509l5 -37q-343 110 -628 110q-129 0 -263 -17zM-863 1451q48 11 147 11q206 0 404 -55q-16 69 -99.5 130t-187.5 61q-100 0 -172.5 -40.5t-91.5 -106.5z" />
<glyph unicode="&#xe38;" d="M-483 -277q0 69 48 119t120 50q69 0 122 -44t53 -122v-375h-166v209h-13q-68 0 -116 48.5t-48 114.5zM-390 -269q0 -31 23.5 -54t54.5 -23t52.5 23t21.5 54t-22 53.5t-52 22.5q-31 0 -54.5 -22.5t-23.5 -53.5z" />
<glyph unicode="&#xe39;" d="M-815 -277q0 69 48.5 119t119.5 50q69 0 122 -44t53 -122v-248q0 -42 82 -42q89 0 89 42v390h161v-372q0 -91 -79 -137q-66 -42 -174 -42q-94 0 -163 39q-77 45 -77 122v82h-16q-69 0 -117.5 48.5t-48.5 114.5zM-722 -269q0 -31 23.5 -54t54.5 -23t52.5 23t21.5 54 t-22 53.5t-52 22.5q-31 0 -54.5 -22.5t-23.5 -53.5z" />
<glyph unicode="&#xe3a;" d="M-296 -211q0 40 29 69t69 29q39 0 67 -29t28 -69q0 -39 -29 -67t-66 -28q-40 0 -69 29t-29 66z" />
<glyph unicode="&#xe3f;" horiz-adv-x="1074" d="M177 85v1137q161 36 258 39v182h151v-190q296 -47 296 -308q0 -153 -130 -248q174 -103 174 -280q0 -295 -340 -348v-224h-151v213q-97 0 -258 27zM340 213q47 -8 106 -8q129 0 218 46q104 55 104 163q0 203 -304 203h-124v-404zM340 768h153q105 0 165 50t60 124 q0 172 -270 172q-16 0 -108 -14v-332z" />
<glyph unicode="&#xe40;" horiz-adv-x="573" d="M132 202v901h172v-710q13 5 50 5q85 0 147.5 -60.5t62.5 -149.5t-62 -149.5t-148 -60.5q-95 0 -158.5 63.5t-63.5 160.5zM261 188q0 -40 27 -67t66 -27t66.5 27t27.5 67q0 39 -27.5 66.5t-66.5 27.5t-66 -27.5t-27 -66.5z" />
<glyph unicode="&#xe41;" horiz-adv-x="1090" d="M132 202v901h172v-710q13 5 50 5q85 0 147.5 -60.5t62.5 -149.5t-62 -149.5t-148 -60.5q-95 0 -158.5 63.5t-63.5 160.5zM261 188q0 -40 27 -67t66 -27t66.5 27t27.5 67q0 39 -27.5 66.5t-66.5 27.5t-66 -27.5t-27 -66.5zM649 202v901h172v-710q13 5 50 5 q85 0 147.5 -60.5t62.5 -149.5t-62 -149.5t-148 -60.5q-95 0 -158.5 63.5t-63.5 160.5zM776 188q0 -40 28 -67t67 -27t66.5 27t27.5 67q0 39 -27.5 66.5t-66.5 27.5t-67 -27.5t-28 -66.5z" />
<glyph unicode="&#xe42;" horiz-adv-x="696" d="M-92 1498q14 315 282 315q72 0 162.5 -45t125.5 -45q31 0 61 82l128 -32q-53 -188 -166 -188q-53 0 -150 45t-161 45q-97 0 -127 -69q362 -94 362 -321v-892q14 5 50 5q85 0 148 -60.5t63 -149.5t-62 -149.5t-149 -60.5q-94 0 -157.5 63.5t-63.5 160.5v1098 q-14 95 -138 151q-102 47 -208 47zM382 188q0 -40 27.5 -67t65.5 -27q39 0 67 27t28 67q0 39 -28 66.5t-67 27.5t-66 -27.5t-27 -66.5z" />
<glyph unicode="&#xe43;" horiz-adv-x="742" d="M-94 1515q0 150 99 232q92 74 241 75q121 0 213 -63q103 -71 103 -186q0 -64 -45 -178.5t-45 -172.5v-829q14 5 50 5q86 0 148.5 -60.5t62.5 -149.5t-62 -149.5t-149 -60.5q-94 0 -157.5 63.5t-63.5 160.5v1043q0 63 48.5 166.5t48.5 155.5q0 61 -43 97.5t-104 36.5 q-94 0 -138 -34q69 0 117 -52q39 -48 39 -111q0 -74 -53 -128t-131 -54q-80 0 -129.5 58t-49.5 135zM0 1501q0 -36 25 -60.5t60 -24.5q37 0 61.5 24.5t24.5 60.5q0 37 -24.5 62t-61.5 25q-36 0 -60.5 -25t-24.5 -62zM428 188q0 -40 27.5 -67t66.5 -27q40 0 67.5 27t27.5 67 q0 39 -27.5 66.5t-67.5 27.5q-39 0 -66.5 -27.5t-27.5 -66.5z" />
<glyph unicode="&#xe44;" horiz-adv-x="696" d="M-100 1841h150q34 -218 35 -329l197 308q56 -8 99.5 -52.5t43.5 -105.5v-1269q14 5 50 5q85 0 148 -60.5t63 -149.5t-62 -149.5t-149 -60.5q-94 0 -157.5 63.5t-63.5 160.5v1365l-165 -243l-111 34q-10 261 -78 483zM382 188q0 -40 27.5 -67t65.5 -27q39 0 67 27t28 67 q0 39 -28 66.5t-67 27.5t-66 -27.5t-27 -66.5z" />
<glyph unicode="&#xe45;" horiz-adv-x="577" d="M-306 763q8 166 108.5 264.5t266.5 98.5q155 0 261.5 -79t106.5 -240v-1194h-171v1192q0 77 -52.5 125.5t-144.5 48.5t-149.5 -61t-59.5 -155h-166z" />
<glyph unicode="&#xe46;" horiz-adv-x="1206" d="M198 757q0 138 87.5 244.5t223.5 140.5l132 -105l119 105q132 -34 212.5 -123.5t80.5 -216.5v-1189h-171v1186q0 114 -108 182l-127 -99l-164 102q-47 -31 -66 -85h20q89 0 150.5 -62.5t61.5 -150.5q0 -89 -62 -151.5t-150 -62.5q-110 0 -174.5 86t-64.5 199zM329 686 q0 -42 30.5 -72.5t71.5 -30.5t71.5 30.5t30.5 72.5t-30.5 72t-71.5 30q-42 0 -72 -30t-30 -72z" />
<glyph unicode="&#xe47;" d="M-902 1517q0 108 87 169q74 56 193 56h187q135 0 137 121v63h132v-60q0 -114 -74.5 -174.5t-190.5 -60.5h-202q-45 0 -80.5 -29t-35.5 -76q0 -45 16 -72q42 63 124 69q64 -42 153 -72q0 56 43 95t94 39q61 0 103 -43.5t42 -101.5t-41 -100.5t-104 -42.5q-135 0 -309 116 q-36 -10 -78.5 -53.5t-48.5 -77.5q-147 98 -147 235zM-379 1440q0 -24 18 -42t42 -18q25 0 44 18t19 42q0 25 -18.5 43t-44.5 18q-24 0 -42 -18t-18 -43z" />
<glyph unicode="&#xe48;" d="M-306 1871v316h166v-316h-166z" />
<glyph unicode="&#xe49;" d="M-597 2179q0 66 46.5 110.5t113.5 44.5q74 0 117 -46t43 -117q0 -108 -121 -230q135 27 220.5 128.5t95.5 238.5h143q-50 -263 -183.5 -363.5t-391.5 -100.5h-77v92q110 8 135 80q-141 36 -141 163zM-512 2174q0 -32 21 -52.5t51 -20.5q31 0 52 20.5t21 52.5q0 31 -21 51 t-52 20t-51.5 -21t-20.5 -50z" />
<glyph unicode="&#xe4a;" d="M-699 2007q0 50 16 99.5t48.5 94t80.5 73.5t114 37l63 -71l65 71q85 -3 142 -58t57 -140q0 -77 -34 -139q129 79 131 318h116q-11 -434 -421 -434v81q108 52 108 166q0 79 -80 101l-86 -88l-88 93q-47 -11 -84 -60q66 0 112 -44t46 -110q0 -61 -44 -105.5t-107 -44.5 q-66 0 -110.5 43t-44.5 117zM-620 1997q0 -31 21 -51t51 -20q31 0 50.5 20t19.5 51t-19.5 51t-50.5 20t-51.5 -21t-20.5 -50z" />
<glyph unicode="&#xe4b;" d="M-431 1994v113h133v116h151v-116h144v-113h-144v-123h-151v123h-133z" />
<glyph unicode="&#xe4c;" d="M-495 1936q0 174 189 235q85 27 110 43q56 34 56 94h113q-8 -102 -70 -155q-47 -44 -157 -74q92 -45 91 -146q0 -69 -49 -117.5t-117 -48.5q-69 0 -117.5 49.5t-48.5 119.5zM-398 1933q0 -31 21 -50.5t50 -19.5q31 0 51 19.5t20 50.5t-20 51.5t-51 20.5t-51 -21t-20 -51z " />
<glyph unicode="&#xe4d;" d="M-498 1517q0 98 69.5 166.5t165.5 68.5q97 0 164.5 -67.5t67.5 -167.5q0 -97 -67.5 -164.5t-164.5 -67.5q-100 0 -167.5 68.5t-67.5 163.5zM-377 1517q0 -47 34 -78.5t80 -31.5q47 0 78.5 31.5t31.5 78.5q0 48 -31.5 81t-78.5 33t-80.5 -33t-33.5 -81z" />
<glyph unicode="&#xe4e;" d="M-606 1422q0 66 43 114.5t107 59.5q-27 42 -27 85q0 92 71 139q64 39 156 38q76 0 148 -27l-42 -103q-55 19 -111 19q-102 0 -101 -66q0 -75 143 -88l-44 -105q-53 19 -88 19q-138 0 -138 -88q0 -55 104 -55q42 0 103 24v-106q-56 -24 -138 -24q-74 0 -130 45.5 t-56 118.5z" />
<glyph unicode="&#xe4f;" horiz-adv-x="1243" d="M155 451q0 193 136.5 330t330.5 137q188 0 327.5 -139.5t139.5 -327.5q0 -193 -137 -330t-330 -137t-330 136t-137 331zM251 451q0 -155 109.5 -264.5t261.5 -109.5q153 0 261.5 110.5t108.5 263.5q0 155 -108 262.5t-262 107.5q-152 0 -261.5 -107.5t-109.5 -262.5z M348 451q0 113 80.5 193.5t193.5 80.5q114 0 194 -80.5t80 -193.5t-80 -195t-194 -82q-113 0 -193.5 82t-80.5 195zM446 451q0 -74 51 -125.5t125 -51.5q75 0 126 51.5t51 125.5q0 71 -51 124t-126 53q-74 0 -125 -53t-51 -124z" />
<glyph unicode="&#xe50;" horiz-adv-x="1259" d="M140 404q0 190 158 314q143 114 332 114q185 0 330 -114q156 -124 156 -314q0 -191 -156 -315q-143 -113 -330 -113t-332 113q-158 124 -158 315zM327 404q0 -127 89.5 -202t213.5 -75q125 0 214.5 75t89.5 202t-89.5 201.5t-214.5 74.5q-124 0 -213.5 -74.5 t-89.5 -201.5z" />
<glyph unicode="&#xe51;" horiz-adv-x="1259" d="M130 379q0 196 149 323t349 127q221 0 361 -146t140 -354q0 -221 -148 -384h-205q188 179 189 384q0 158 -92.5 253.5t-250.5 95.5q-135 0 -230.5 -84.5t-95.5 -208.5q0 -111 60.5 -187t163.5 -76q42 0 82 13q-97 0 -154 67q-52 59 -52 136q0 85 63 144t147 59 q103 0 163 -68.5t60 -171.5q0 -140 -95 -230t-241 -90q-161 0 -262 117.5t-101 280.5zM514 338q0 -40 28 -67.5t67 -27.5t66 27.5t27 67.5q0 39 -27.5 66t-65.5 27q-39 0 -67 -27t-28 -66z" />
<glyph unicode="&#xe52;" horiz-adv-x="1259" d="M31 1015v141q122 0 177 -37q69 -44 69 -159v-728q0 -89 77 -89h569q72 0 72 68v372q0 100 -61 100q-89 0 -88 -161h-110q-31 166 -130 166q-42 0 -68 -35.5t-29 -80.5h22q79 0 133 -54t54 -131q0 -79 -53 -134t-134 -55q-216 0 -216 250q0 164 70 268q77 118 221 118 q135 0 177 -106q47 108 162 106q103 0 161 -74t58 -171v-396q0 -193 -185 -193h-716q-155 0 -155 180v783q0 36 -28 47q-3 0 -49 5zM451 385q0 -37 22 -59t58 -22t59.5 22t23.5 59q0 36 -23.5 59t-59.5 23q-37 0 -58.5 -23.5t-21.5 -58.5z" />
<glyph unicode="&#xe53;" horiz-adv-x="1259" d="M72 356q0 188 81 322q94 155 261 154q164 0 246 -125q77 127 224 125q127 0 196.5 -87.5t69.5 -216.5v-528h-160v525q0 158 -111 158q-55 0 -93.5 -52.5t-38.5 -113.5v-517h-164v517q0 163 -177 163q-100 0 -145 -118q-34 -85 -34 -200q44 24 97 25q85 0 146 -56.5 t61 -145.5q0 -82 -56 -138q-58 -63 -154 -66q-132 -3 -199 127q-50 103 -50 248zM235 177q0 -39 25 -63.5t64 -24.5t64.5 24.5t25.5 63.5t-26 65.5t-64 26.5q-39 0 -64 -26.5t-25 -65.5z" />
<glyph unicode="&#xe54;" horiz-adv-x="1259" d="M53 382q0 456 591 456q235 0 335 35q163 59 198 283h158q-61 -301 -232 -401q-119 -69 -420 -69q-213 0 -306 -39q-153 -67 -153 -254q0 -108 73 -189.5t157 -81.5q16 0 210 31q-254 66 -255 264q0 92 61 150t144 58q89 0 144 -62t55 -143q0 -97 -83 -164q45 -21 119 -35 q77 -10 153.5 -28.5t189.5 -87.5l-81 -129q-155 74 -256 74q-69 0 -199.5 -34.5t-196.5 -34.5q-182 0 -296 119q-110 111 -110 282zM525 423q0 -37 23.5 -60t60.5 -23q36 0 59 23t23 60q0 36 -23.5 59.5t-58.5 23.5q-37 0 -60.5 -23.5t-23.5 -59.5z" />
<glyph unicode="&#xe55;" horiz-adv-x="1259" d="M53 382q0 417 491 452q-53 53 -51 134q0 80 54.5 134t132.5 54q80 0 134 -54t54 -134q0 -72 -47 -127q92 8 158 32q163 61 198 283h158q-61 -301 -232 -401q-119 -69 -420 -69q-213 0 -306 -39q-153 -67 -153 -254q0 -108 73 -189.5t157 -81.5q16 0 210 31 q-254 66 -255 264q0 92 61 150t144 58q89 0 144 -62t55 -143q0 -97 -83 -164q45 -21 119 -35q89 -13 159.5 -30t183.5 -86l-81 -129q-155 74 -256 74q-69 0 -199.5 -34.5t-196.5 -34.5q-182 0 -296 119q-110 111 -110 282zM525 423q0 -37 23.5 -60t60.5 -23q36 0 59 23 t23 60q0 36 -23.5 59.5t-58.5 23.5q-37 0 -60.5 -23.5t-23.5 -59.5zM597 965q0 -36 23.5 -59.5t59.5 -23.5q37 0 60 23.5t23 59.5q0 37 -23.5 60t-59.5 23t-59.5 -24t-23.5 -59z" />
<glyph unicode="&#xe56;" horiz-adv-x="1259" d="M31 1156h188q100 -180 113 -399q119 75 348 75q211 0 346 -96q154 -111 154 -313q0 -222 -170 -343q-147 -106 -361 -104q-179 0 -272 38q-185 74 -187 234q0 92 57 153t149 61q91 0 152 -61t61 -147q0 -77 -37 -122q19 -2 64 -2q155 0 258 66q121 74 121 221 q0 130 -105 200q-92 61 -224 61q-301 0 -430 -174h-58q-8 226 -29 340q-39 182 -138 312zM312 254q0 -39 25 -63.5t64 -24.5t65.5 24.5t26.5 63.5t-26.5 65.5t-65.5 26.5t-64 -26.5t-25 -65.5z" />
<glyph unicode="&#xe57;" horiz-adv-x="1259" d="M39 390q0 169 58 288q77 155 230 154q150 0 209 -107q63 108 177 107q135 0 205 -107q58 -89 58 -230q0 -143 -42 -299q116 77 116 410q0 431 56 550h168q-68 -103 -67 -296.5t1 -220.5q0 -330 -100 -476q-118 -171 -406 -171q113 306 113 528q0 52 -19 102 q-26 66 -71 66q-50 0 -81 -63q-22 -53 -22 -108v-111h-166v106q0 176 -124 176q-66 0 -102 -94q-28 -74 -28 -177v-30q50 22 88 22q85 0 149.5 -62t64.5 -154q0 -89 -61 -146.5t-153 -57.5q-135 0 -201 138q-50 105 -50 263zM190 198q0 -39 28 -66t67 -27t68 27t29 66 q0 40 -29 69t-68 29t-67 -29t-28 -69z" />
<glyph unicode="&#xe58;" horiz-adv-x="1259" d="M63 414q0 254 150 346q119 72 412 72q213 0 296 39q110 55 110 218v25h161q3 -22 3 -61q0 -243 -200 -320q-119 -47 -431 -47q-343 0 -343 -277q0 -166 77 -216q31 63 114 112t152 49q64 -83 152 -122q2 92 71.5 155.5t154.5 63.5q100 0 167.5 -69t67.5 -166 q0 -94 -68.5 -166t-166.5 -72q-198 0 -425 210q-61 -22 -131.5 -98t-81.5 -135q-241 164 -241 459zM844 216q0 -42 29 -71t69 -29q42 0 71 29t29 71q0 39 -29 69t-71 30t-70 -30.5t-28 -68.5z" />
<glyph unicode="&#xe59;" horiz-adv-x="1259" d="M66 406q0 180 117.5 303t286.5 123q155 0 255 -91q31 89 116 88q39 0 104 -40t103 -40q52 0 52 158q0 138 -32 241h135q31 -138 30 -269q0 -280 -160 -280q-36 0 -101 42t-90 42q-50 0 -50 -53q0 -97 147 -304t235 -249l-114 -104q-202 158 -378 508q-16 36 -33 73 t-50 63q-85 63 -185 63t-162 -85.5t-62 -185.5q0 -97 47 -177q42 147 193 147q79 0 138 -58t59 -141q0 -80 -58 -139.5t-139 -59.5q-177 0 -293 130q-111 121 -111 295zM379 177q0 -39 24.5 -63.5t63.5 -24.5t65.5 24.5t26.5 63.5t-26.5 65.5t-65.5 26.5t-63.5 -26.5 t-24.5 -65.5z" />
<glyph unicode="&#xe5a;" horiz-adv-x="1451" d="M66 913q0 89 61 151t150 62t150.5 -63t61.5 -150q0 -14 -6 -42q92 69 111 232h124q188 0 189 -199v-31q89 72 105 230h125q187 0 187 -199v-904h-171v871q0 100 -31 105q-16 -182 -215 -258v-718h-171v871q0 100 -31 105q-11 -130 -126 -209t-250 -79q-108 0 -185.5 58.5 t-77.5 166.5zM182 913q0 -40 28 -67.5t67 -27.5t66 27.5t27 67.5q0 39 -27.5 66t-65.5 27q-39 0 -67 -27t-28 -66z" />
<glyph unicode="&#xe5b;" horiz-adv-x="1926" d="M213 506q0 208 86 321t240 113q124 0 196 -76t72 -209q0 -119 -47 -199q-58 -100 -169 -100q-60 0 -104 46t-44 107q0 63 42.5 107t105.5 44q72 0 119 -54v6l6 66q13 177 -168 177q-113 0 -174.5 -97.5t-61.5 -264.5q0 -153 76 -244t195 -91q164 0 251 119t87 337 q0 85 -8 130q155 -31 206 -293q24 80 26 155q0 53 -23 132q116 -33 202 -240q14 69 14 101q0 25 -14 103q119 -34 177 -232q27 36 29 97q0 34 -10 74q14 -2 119 -77q94 -69 197 -69h14q-56 -31 -114 -31q-92 0 -161 69q-16 -132 -77 -151q-24 0 -55 90q-39 117 -58 137 q0 -254 -74 -255q-16 0 -47 100q-34 110 -58 140q-17 -271 -106 -270q-16 0 -47 107q-39 137 -58 163q0 -528 -412 -528q-171 0 -270.5 119t-99.5 321zM406 884q0 -19 17 -19q16 0 17 14h-5q0 -11 -12 -11q-11 0 -11 16t11 18q8 0 12 -12h5q-5 13 -17 14q-17 0 -17 -20z M446 865h5v19h19v-19h5v39h-5v-17h-19v17h-5v-39zM483 865h26v6h-20v33h-6v-39zM514 509q0 -78 77 -78t79 78q0 77 -79 77q-77 0 -77 -77zM514 865h6v17h8q13 0 13 12q0 10 -13 10h-14v-39zM520 884v18h8q8 0 8 -8t-8 -10h-8zM562 879q0 -14 13 -14q14 0 14 11q-9 8 -22 18 q0 8 8 8q5 -6 5 -8h6q0 10 -11 10q-13 0 -13 -10q8 -8 21 -18q0 -8 -8 -8t-8 11h-5zM594 865h5v17h10q13 0 13 12q0 10 -13 10h-15v-39zM599 884v18h10q8 0 8 -8t-8 -10h-10zM630 865h6v14l5 5l8 -19h8l-13 22l13 17h-8l-13 -20v20h-6v-39z" />
<glyph unicode="&#x2000;" horiz-adv-x="1167" />
<glyph unicode="&#x2001;" horiz-adv-x="2334" />
<glyph unicode="&#x2002;" horiz-adv-x="1167" />
<glyph unicode="&#x2003;" horiz-adv-x="2334" />
<glyph unicode="&#x2004;" horiz-adv-x="778" />
<glyph unicode="&#x2005;" horiz-adv-x="583" />
<glyph unicode="&#x2006;" horiz-adv-x="389" />
<glyph unicode="&#x2007;" horiz-adv-x="389" />
<glyph unicode="&#x2008;" horiz-adv-x="291" />
<glyph unicode="&#x2009;" horiz-adv-x="466" />
<glyph unicode="&#x200a;" horiz-adv-x="129" />
<glyph unicode="&#x200c;" d="M-47 -691v1485h97v-1485h-97z" />
<glyph unicode="&#x200d;" d="M-150 539l103 102l-103 108l50 45l100 -103l103 103l50 -45l-103 -108l103 -102l-50 -46l-53 55v-1239h-97v1239l-56 -55z" />
<glyph unicode="&#x200e;" d="M-47 -691v1388h366l-48 50l44 44l144 -144l-144 -143l-44 47l48 48h-269v-1290h-97z" />
<glyph unicode="&#x200f;" d="M-456 647l144 144q6 -8 19.5 -22t23.5 -22l-46 -50h365v-1388h-97v1290h-268l46 -48l-43 -47z" />
<glyph unicode="&#x2010;" horiz-adv-x="623" d="M36 435v148h553v-148h-553z" />
<glyph unicode="&#x2011;" horiz-adv-x="623" d="M36 435v148h553v-148h-553z" />
<glyph unicode="&#x2012;" horiz-adv-x="623" d="M36 435v148h553v-148h-553z" />
<glyph unicode="&#x2013;" horiz-adv-x="926" d="M24 435v148h878v-148h-878z" />
<glyph unicode="&#x2014;" horiz-adv-x="1915" d="M24 435v148h1867v-148h-1867z" />
<glyph unicode="&#x2018;" horiz-adv-x="699" d="M198 1031q3 166 82 267t143 126l41 -47q-140 -92 -163 -221q5 0 12.5 1t13.5 1q52 0 89.5 -37t37.5 -90q0 -52 -37.5 -88t-89.5 -36q-53 0 -89 36t-40 88z" />
<glyph unicode="&#x2019;" horiz-adv-x="699" d="M235 915q140 92 163 222q-5 0 -12 -1.5t-13 -1.5q-53 0 -90 37t-37 90t37.5 88.5t89.5 35.5t88.5 -35.5t39.5 -88.5q-3 -166 -82 -266.5t-142 -126.5z" />
<glyph unicode="&#x201a;" horiz-adv-x="699" d="M235 -230q140 92 163 222q-5 0 -12 -1.5t-13 -1.5q-53 0 -90 37t-37 90t37.5 88.5t89.5 35.5t88.5 -35.5t39.5 -88.5q-3 -166 -82 -266.5t-142 -126.5z" />
<glyph unicode="&#x201c;" horiz-adv-x="1061" d="M198 1031q3 166 82 267t143 126l41 -47q-140 -92 -163 -221q5 0 12.5 1t13.5 1q52 0 89.5 -37t37.5 -90q0 -52 -37.5 -88t-89.5 -36q-53 0 -89 36t-40 88zM562 1031q2 166 81 267t143 126l40 -47q-140 -92 -162 -221q6 0 12.5 1t11.5 1q53 0 90 -37t37 -90q0 -52 -37 -88 t-90 -36q-52 0 -88 36t-38 88z" />
<glyph unicode="&#x201d;" horiz-adv-x="1061" d="M235 915q140 92 163 222q-5 0 -12 -1.5t-13 -1.5q-53 0 -90 37t-37 90t37.5 88.5t89.5 35.5t88.5 -35.5t39.5 -88.5q-3 -166 -82 -266.5t-142 -126.5zM597 915q140 92 163 222q-5 0 -12 -1.5t-12 -1.5q-53 0 -90 37t-37 90t37 88.5t90 35.5q52 0 88 -35.5t39 -88.5 q-3 -166 -82 -266.5t-142 -126.5z" />
<glyph unicode="&#x201e;" horiz-adv-x="1061" d="M235 -230q140 92 163 222q-5 0 -12 -1.5t-13 -1.5q-53 0 -90 37t-37 90t37.5 88.5t89.5 35.5t88.5 -35.5t39.5 -88.5q-3 -166 -82 -266.5t-142 -126.5zM597 -230q140 92 163 222q-5 0 -12 -1.5t-12 -1.5q-53 0 -90 37t-37 90t37 88.5t90 35.5q52 0 88 -35.5t39 -88.5 q-3 -166 -82 -266.5t-142 -126.5z" />
<glyph unicode="&#x2020;" horiz-adv-x="1050" d="M108 774v133l348 -11v418h138v-418l348 11v-133l-348 12v-878h-138v878z" />
<glyph unicode="&#x2021;" horiz-adv-x="1050" d="M108 301v130l348 -11v366l-348 -12v133l348 -11v418h138v-418l348 11v-133l-348 12v-366l348 11v-130l-348 8v-401h-138v401z" />
<glyph unicode="&#x2022;" horiz-adv-x="623" d="M80 554q0 97 66.5 164.5t165.5 67.5q97 0 164.5 -69t67.5 -163q0 -98 -67.5 -165.5t-164.5 -67.5t-164.5 67.5t-67.5 165.5z" />
<glyph unicode="&#x2026;" horiz-adv-x="1393" d="M105 108q0 55 38.5 93.5t94.5 38.5q55 0 93.5 -38.5t38.5 -93.5t-38.5 -93.5t-93.5 -38.5q-56 0 -94.5 38.5t-38.5 93.5zM564 108q0 55 38.5 93.5t94.5 38.5q55 0 93.5 -38.5t38.5 -93.5t-38.5 -93.5t-93.5 -38.5q-56 0 -94.5 38.5t-38.5 93.5zM1023 108q0 55 38.5 93.5 t94.5 38.5q55 0 93.5 -38.5t38.5 -93.5t-38.5 -93.5t-93.5 -38.5q-56 0 -94.5 38.5t-38.5 93.5z" />
<glyph unicode="&#x202f;" horiz-adv-x="466" />
<glyph unicode="&#x2030;" horiz-adv-x="2686" d="M108 934q0 407 327 407q328 0 328 -407q0 -403 -328 -403q-327 0 -327 403zM274 934q0 -254 161 -254q164 0 164 254q0 261 -164 261q-161 0 -161 -261zM431 -24l843 1340h169l-844 -1340h-168zM1134 385q0 403 328 403q332 0 332 -403q0 -407 -332 -407q-329 0 -328 407 zM1300 385q0 -257 162 -258q166 1 166 258q0 260 -166 259q-163 0 -162 -259zM1918 385q0 403 330 403q332 0 332 -403q0 -407 -332 -407q-330 0 -330 407zM2084 385q0 -257 164 -258q166 1 166 258q0 260 -166 259q-164 0 -164 -259z" />
<glyph unicode="&#x2032;" horiz-adv-x="361" d="M50 1026l105 290h151l-182 -290h-74z" />
<glyph unicode="&#x2033;" horiz-adv-x="607" d="M50 1026l105 290h151l-182 -290h-74zM296 1026l105 290h153l-184 -290h-74z" />
<glyph unicode="&#x2039;" horiz-adv-x="646" d="M82 495l311 376h169l-314 -376l316 -365h-166z" />
<glyph unicode="&#x203a;" horiz-adv-x="646" d="M82 130l316 368l-313 373h166l313 -376l-316 -365h-166z" />
<glyph unicode="&#x2044;" horiz-adv-x="406" d="M-150 0l551 1319h163l-548 -1319h-166z" />
<glyph unicode="&#x205f;" horiz-adv-x="583" />
<glyph unicode="&#x20a3;" horiz-adv-x="1085" d="M16 248v145h195v926h770v-150h-604v-414h565v-149h-565v-213h353v-145h-353v-248h-166v248h-195z" />
<glyph unicode="&#x20ab;" horiz-adv-x="1201" d="M72 489q0 208 134 347.5t335 139.5q208 0 338 -130v288h-270v122h270v137h174v-137h161v-122h-161v-883q0 -116 11 -251h-165q-8 31 -9 103q-130 -127 -334 -127q-205 0 -344.5 145t-139.5 368zM94 -124h1054v-161h-1054v161zM243 489q0 -169 85.5 -265.5t241.5 -96.5 q137 0 223 62t86 167v216q0 106 -102 183t-218 77q-143 0 -229.5 -96.5t-86.5 -246.5z" />
<glyph unicode="&#x20ac;" horiz-adv-x="1431" d="M80 396v148h131q-9 103 0 203h-131v147h168q98 208 283 326t417 118q187 0 393 -82l-53 -156q-155 85 -334 87q-193 0 -327 -76.5t-202 -216.5h681v-147h-727q-10 -100 3 -203h724v-148h-675q69 -117 197.5 -191.5t305.5 -74.5q92 0 179 18t169 57l67 -136 q-95 -45 -213 -69t-234 -24q-100 0 -196.5 30t-183.5 87t-158 134t-116 169h-168z" />
<glyph unicode="&#x2113;" horiz-adv-x="702" d="M27 554l161 98v340q0 127 63.5 190t149.5 63q89 0 151 -63t62 -170q0 -71 -25 -135t-64 -117t-87 -94t-92 -75v-372q0 -25 8 -57t47 -32q24 0 60.5 25t82.5 80l45 -113q-56 -64 -120.5 -100t-122.5 -36q-67 0 -112.5 53t-45.5 169v298l-94 -63zM346 774q36 31 74.5 95.5 t38.5 125.5q0 45 -12 75t-51 30q-34 0 -42 -26t-8 -82v-218z" />
<glyph unicode="&#x2122;" horiz-adv-x="1680" d="M58 1197v117h678v-117h-277v-699h-124v699h-277zM741 498l50 816h135l248 -642l250 642h133l52 -816h-127l-33 583l-230 -583h-93l-222 583l-41 -583h-122z" />
<glyph unicode="&#x2126;" horiz-adv-x="1314" d="M89 0v150h325v106q-113 56 -201.5 190t-88.5 290q0 251 146.5 386.5t389.5 135.5q240 0 387.5 -137t147.5 -385q0 -169 -87 -299.5t-204 -180.5v-106h326v-150h-478v362q269 119 269 382q0 158 -103 261t-258 103t-258.5 -103t-103.5 -261q0 -263 269 -382v-362h-478z " />
<glyph unicode="&#x212e;" horiz-adv-x="963" d="M105 559q0 256 105 382.5t271 126.5q182 0 275 -144t99 -412h-586q10 -203 63 -295.5t149 -92.5q71 0 123.5 57t83.5 154h158q-79 -354 -365 -354q-377 0 -376 578zM274 652h412q-31 274 -205 274q-175 0 -207 -274z" />
<glyph unicode="&#x2153;" horiz-adv-x="1498" d="M63 1084l233 204q85 -6 86 -96v-598h116v-108h-371v108h119v482l-106 -92zM256 -24l789 1317h135l-787 -1317h-137zM894 47l54 119q39 -31 77.5 -46t77.5 -15q89 0 139.5 46.5t50.5 119.5q0 98 -90 96q-69 0 -127 -48l-45 82q122 63 165 113t43 106q0 21 -16.5 36.5 t-53.5 15.5q-111 0 -157 -136l-102 53q82 198 267 199q97 0 143 -44.5t46 -104.5q0 -95 -86 -172q74 -11 109 -63.5t35 -129.5q0 -72 -27.5 -127t-72 -93t-104 -57t-120.5 -19q-113 0 -206 69z" />
<glyph unicode="&#x2154;" horiz-adv-x="1498" d="M22 504q2 63 49.5 142t144.5 167q36 33 72 67.5t66.5 69t49.5 69t19 70.5q0 103 -94 103q-55 0 -93 -39t-43 -111l-127 19q14 116 84.5 180t170.5 64q108 0 177 -49.5t69 -166.5q0 -55 -31.5 -110.5t-84.5 -112t-117.5 -118.5t-131.5 -131h329l-17 -113h-492zM256 -24 l789 1317h135l-787 -1317h-137zM894 47l54 119q39 -31 77.5 -46t77.5 -15q89 0 139.5 46.5t50.5 119.5q0 98 -90 96q-69 0 -127 -48l-45 82q122 63 165 113t43 106q0 21 -16.5 36.5t-53.5 15.5q-111 0 -157 -136l-102 53q82 198 267 199q97 0 143 -44.5t46 -104.5 q0 -95 -86 -172q74 -11 109 -63.5t35 -129.5q0 -72 -27.5 -127t-72 -93t-104 -57t-120.5 -19q-113 0 -206 69z" />
<glyph unicode="&#x2155;" horiz-adv-x="1498" d="M63 1084l233 204q85 -6 86 -96v-598h116v-108h-371v108h119v482l-106 -92zM256 -24l789 1317h135l-787 -1317h-137zM873 58l61 105q39 -21 79 -42t93 -21q74 0 130.5 48t56.5 126q0 61 -42.5 96.5t-113.5 35.5q-22 0 -55.5 -14.5t-47.5 -45.5h-92l26 445h448l-26 -121 h-292l-9 -158q17 8 42 13.5t41 5.5q108 0 185.5 -69t77.5 -185q0 -133 -94 -216t-243 -83q-122 0 -225 80z" />
<glyph unicode="&#x2156;" horiz-adv-x="1498" d="M22 504q2 63 49.5 142t144.5 167q36 33 72 67.5t66.5 69t49.5 69t19 70.5q0 103 -94 103q-55 0 -93 -39t-43 -111l-127 19q14 116 84.5 180t170.5 64q108 0 177 -49.5t69 -166.5q0 -55 -31.5 -110.5t-84.5 -112t-117.5 -118.5t-131.5 -131h329l-17 -113h-492zM256 -24 l789 1317h135l-787 -1317h-137zM873 58l61 105q39 -21 79 -42t93 -21q74 0 130.5 48t56.5 126q0 61 -42.5 96.5t-113.5 35.5q-22 0 -55.5 -14.5t-47.5 -45.5h-92l26 445h448l-26 -121h-292l-9 -158q17 8 42 13.5t41 5.5q108 0 185.5 -69t77.5 -185q0 -133 -94 -216t-243 -83 q-122 0 -225 80z" />
<glyph unicode="&#x2157;" horiz-adv-x="1498" d="M85 562l55 118q40 -31 78 -45.5t78 -14.5q89 0 139.5 46.5t50.5 119.5q0 97 -90 96q-69 0 -127 -50l-45 83q122 64 164.5 114t42.5 105q0 22 -16.5 37.5t-52.5 15.5q-111 0 -157 -137l-102 53q82 198 267 200q97 0 143 -44.5t46 -105.5q0 -95 -87 -172q75 -10 110 -63 t35 -130q0 -71 -27.5 -126.5t-72.5 -93t-104 -56.5t-120 -19q-113 0 -208 69zM256 -24l789 1317h135l-787 -1317h-137zM873 58l61 105q39 -21 79 -42t93 -21q74 0 130.5 48t56.5 126q0 61 -42.5 96.5t-113.5 35.5q-22 0 -55.5 -14.5t-47.5 -45.5h-92l26 445h448l-26 -121 h-292l-9 -158q17 8 42 13.5t41 5.5q108 0 185.5 -69t77.5 -185q0 -133 -94 -216t-243 -83q-122 0 -225 80z" />
<glyph unicode="&#x2158;" horiz-adv-x="1498" d="M66 664q6 196 86 350.5t166 216.5t191 66v-517h119l-6 -116h-113v-169h-139v169h-304zM211 780h159v346q-61 -80 -106 -175.5t-53 -170.5zM256 -24l789 1317h135l-787 -1317h-137zM873 58l61 105q39 -21 79 -42t93 -21q74 0 130.5 48t56.5 126q0 61 -42.5 96.5 t-113.5 35.5q-22 0 -55.5 -14.5t-47.5 -45.5h-92l26 445h448l-26 -121h-292l-9 -158q17 8 42 13.5t41 5.5q108 0 185.5 -69t77.5 -185q0 -133 -94 -216t-243 -83q-122 0 -225 80z" />
<glyph unicode="&#x2159;" horiz-adv-x="1498" d="M63 1084l233 204q85 -6 86 -96v-598h116v-108h-371v108h119v482l-106 -92zM256 -24l789 1317h135l-787 -1317h-137zM860 282q0 89 33 175.5t94 160t148 125t197 67.5l3 -97q-89 -31 -167.5 -84.5t-125.5 -135.5q22 8 49.5 12t58.5 4q97 0 167.5 -67t70.5 -196 q0 -114 -65 -187t-181 -73q-138 0 -210 87.5t-72 208.5zM1000 246q0 -64 36.5 -106.5t94.5 -42.5q61 0 93 42.5t32 106.5q0 69 -34.5 113.5t-90.5 44.5q-58 0 -94.5 -44.5t-36.5 -113.5z" />
<glyph unicode="&#x215a;" horiz-adv-x="1498" d="M55 575l61 105q39 -21 79 -42t93 -21q74 0 130.5 48t56.5 126q0 61 -42.5 96.5t-113.5 35.5q-22 0 -55.5 -14.5t-47.5 -45.5h-92l26 445h447l-25 -121h-293l-8 -158q17 8 42 13.5t41 5.5q108 0 185.5 -69t77.5 -185q0 -132 -94.5 -215.5t-243.5 -83.5q-121 0 -224 80z M256 -24l789 1317h135l-787 -1317h-137zM860 282q0 89 33 175.5t94 160t148 125t197 67.5l3 -97q-89 -31 -167.5 -84.5t-125.5 -135.5q22 8 49.5 12t58.5 4q97 0 167.5 -67t70.5 -196q0 -114 -65 -187t-181 -73q-138 0 -210 87.5t-72 208.5zM1000 246q0 -64 36.5 -106.5 t94.5 -42.5q61 0 93 42.5t32 106.5q0 69 -34.5 113.5t-90.5 44.5q-58 0 -94.5 -44.5t-36.5 -113.5z" />
<glyph unicode="&#x215b;" horiz-adv-x="1498" d="M63 1084l233 204q85 -6 86 -96v-598h116v-108h-371v108h119v482l-106 -92zM256 -24l789 1317h135l-787 -1317h-137zM871 221q0 61 29 116.5t76 85.5q-36 27 -59 66t-23 83q0 98 70 160t178 62q105 0 176.5 -62t71.5 -160q0 -89 -82 -149q50 -31 77.5 -84.5t27.5 -117.5 q0 -113 -73.5 -178t-200.5 -65q-124 0 -196 65t-72 178zM1003 219q0 -56 39 -86t100 -30q64 0 99.5 30t35.5 86q0 47 -31.5 91t-103.5 49q-71 -5 -105 -49t-34 -91zM1029 578q0 -34 30 -58.5t80 -38.5q56 16 86.5 41t30.5 56q0 39 -29.5 65.5t-84.5 26.5t-84 -26.5 t-29 -65.5z" />
<glyph unicode="&#x215c;" horiz-adv-x="1498" d="M85 562l55 118q40 -31 78 -45.5t78 -14.5q89 0 139.5 46.5t50.5 119.5q0 97 -90 96q-69 0 -127 -50l-45 83q122 64 164.5 114t42.5 105q0 22 -16.5 37.5t-52.5 15.5q-111 0 -157 -137l-102 53q82 198 267 200q97 0 143 -44.5t46 -105.5q0 -95 -87 -172q75 -10 110 -63 t35 -130q0 -71 -27.5 -126.5t-72.5 -93t-104 -56.5t-120 -19q-113 0 -208 69zM256 -24l789 1317h135l-787 -1317h-137zM871 221q0 61 29 116.5t76 85.5q-36 27 -59 66t-23 83q0 98 70 160t178 62q105 0 176.5 -62t71.5 -160q0 -89 -82 -149q50 -31 77.5 -84.5t27.5 -117.5 q0 -113 -73.5 -178t-200.5 -65q-124 0 -196 65t-72 178zM1003 219q0 -56 39 -86t100 -30q64 0 99.5 30t35.5 86q0 47 -31.5 91t-103.5 49q-71 -5 -105 -49t-34 -91zM1029 578q0 -34 30 -58.5t80 -38.5q56 16 86.5 41t30.5 56q0 39 -29.5 65.5t-84.5 26.5t-84 -26.5 t-29 -65.5z" />
<glyph unicode="&#x215d;" horiz-adv-x="1498" d="M55 575l61 105q39 -21 79 -42t93 -21q74 0 130.5 48t56.5 126q0 61 -42.5 96.5t-113.5 35.5q-22 0 -55.5 -14.5t-47.5 -45.5h-92l26 445h447l-25 -121h-293l-8 -158q17 8 42 13.5t41 5.5q108 0 185.5 -69t77.5 -185q0 -132 -94.5 -215.5t-243.5 -83.5q-121 0 -224 80z M256 -24l789 1317h135l-787 -1317h-137zM871 221q0 61 29 116.5t76 85.5q-36 27 -59 66t-23 83q0 98 70 160t178 62q105 0 176.5 -62t71.5 -160q0 -89 -82 -149q50 -31 77.5 -84.5t27.5 -117.5q0 -113 -73.5 -178t-200.5 -65q-124 0 -196 65t-72 178zM1003 219q0 -56 39 -86 t100 -30q64 0 99.5 30t35.5 86q0 47 -31.5 91t-103.5 49q-71 -5 -105 -49t-34 -91zM1029 578q0 -34 30 -58.5t80 -38.5q56 16 86.5 41t30.5 56q0 39 -29.5 65.5t-84.5 26.5t-84 -26.5t-29 -65.5z" />
<glyph unicode="&#x215e;" horiz-adv-x="1498" d="M77 1177l34 126h541l-16 -111q-58 -72 -102.5 -142.5t-73.5 -151t-44 -175.5t-15 -217h-147q5 205 53.5 376t151.5 295h-382zM256 -24l789 1317h135l-787 -1317h-137zM871 221q0 61 29 116.5t76 85.5q-36 27 -59 66t-23 83q0 98 70 160t178 62q105 0 176.5 -62t71.5 -160 q0 -89 -82 -149q50 -31 77.5 -84.5t27.5 -117.5q0 -113 -73.5 -178t-200.5 -65q-124 0 -196 65t-72 178zM1003 219q0 -56 39 -86t100 -30q64 0 99.5 30t35.5 86q0 47 -31.5 91t-103.5 49q-71 -5 -105 -49t-34 -91zM1029 578q0 -34 30 -58.5t80 -38.5q56 16 86.5 41t30.5 56 q0 39 -29.5 65.5t-84.5 26.5t-84 -26.5t-29 -65.5z" />
<glyph unicode="&#x2202;" horiz-adv-x="963" d="M94 298q0 243 188 388q166 124 396 124h24q-14 285 -119 285q-102 0 -169 -199l-151 83q127 279 317 279q291 -1 291 -482q0 -268 -116 -499q-143 -291 -391 -291q-110 0 -190 82t-80 230zM282 298q0 -140 114 -140q126 0 216 188q63 132 85 309h-19q-185 0 -296 -116 q-100 -100 -100 -241z" />
<glyph unicode="&#x2206;" horiz-adv-x="1327" d="M8 0l656 1305l655 -1305h-1311zM240 130h847l-423 868z" />
<glyph unicode="&#x220f;" horiz-adv-x="1362" d="M147 -208v1524h1067v-1524h-174v1374h-716v-1374h-177z" />
<glyph unicode="&#x2211;" horiz-adv-x="1152" d="M69 -45l511 634l-511 567v160h1012v-150h-835l498 -519v-96l-498 -609h876v-150h-1053v163z" />
<glyph unicode="&#x2212;" horiz-adv-x="1152" d="M174 435v148h802v-148h-802z" />
<glyph unicode="&#x221a;" horiz-adv-x="1069" d="M66 612v132h272l151 -531l395 1092h169l-509 -1332h-130l-198 639h-150z" />
<glyph unicode="&#x221e;" horiz-adv-x="1746" d="M130 617q0 127 85.5 215.5t262.5 88.5q185 0 401 -216q169 216 385 216q160 0 256.5 -90t96.5 -245q0 -127 -87 -215.5t-264 -88.5q-195 0 -401 219q-166 -219 -384 -219q-158 0 -254.5 90t-96.5 245zM285 612q0 -188 198 -189q153 1 288 186q-166 174 -290 174 q-98 0 -147 -51.5t-49 -119.5zM976 594q169 -174 288 -174q97 0 147.5 51t50.5 120q0 188 -201 189q-161 0 -285 -186z" />
<glyph unicode="&#x222b;" horiz-adv-x="684" d="M-153 -251l31 146q45 -11 77 -11q133 0 156 127l185 1060q44 268 279 264q66 0 135 -16l-27 -142q-50 14 -94 15q-117 0 -138 -134l-180 -1061q-44 -268 -271 -268q-58 0 -153 20z" />
<glyph unicode="&#x2248;" horiz-adv-x="1152" d="M105 36v53q0 122 73 193.5t181 71.5q74 0 229.5 -82t207.5 -82q86 0 94 164h150v-45q0 -127 -69 -200t-180 -73q-66 0 -225.5 86t-206.5 86q-97 0 -103 -172h-151zM108 454v52q0 122 73 193.5t181 71.5q74 0 229.5 -81t207.5 -81q85 0 95 162h148v-43q0 -127 -69 -200.5 t-179 -73.5q-66 0 -225.5 85.5t-206.5 85.5q-97 0 -101 -171h-153z" />
<glyph unicode="&#x2260;" horiz-adv-x="1152" d="M124 269v145h293q31 56 54.5 99t53.5 104h-401v146h473l160 308h185l-156 -308h240v-146h-319q-24 -53 -49 -99t-56 -104h424v-145h-498q-34 -64 -69.5 -135t-65.5 -134h-180l133 269h-222z" />
<glyph unicode="&#x2264;" horiz-adv-x="1152" d="M85 42v143h979v-143h-979zM130 586v166l860 343v-172l-669 -256l669 -255v-169z" />
<glyph unicode="&#x2265;" horiz-adv-x="1152" d="M85 42v143h979v-143h-979zM130 243v169l669 255l-669 256v172l860 -343v-166z" />
<glyph unicode="&#x25ca;" horiz-adv-x="1119" d="M77 609l406 610h153l406 -610l-406 -609h-153zM243 609l319 -474l314 474l-314 472z" />
<glyph unicode="&#x25cc;" horiz-adv-x="1121" d="M55 567q0 22 13.5 37.5t36.5 15.5q22 0 37.5 -15.5t15.5 -37.5t-15.5 -36t-37.5 -14q-21 0 -35.5 13.5t-14.5 36.5zM92 396q0 21 13.5 35.5t34.5 14.5q22 0 37.5 -14.5t15.5 -35.5q0 -22 -15 -37.5t-38 -15.5q-21 0 -34.5 15t-13.5 38zM92 736q0 21 13.5 36.5t34.5 15.5 q22 0 37.5 -15.5t15.5 -36.5q0 -22 -15 -36t-38 -14q-21 0 -34.5 13.5t-13.5 36.5zM188 243q0 22 14 36t36 14q21 0 36.5 -14t15.5 -36t-14.5 -37.5t-37.5 -15.5q-22 0 -36 15.5t-14 37.5zM188 887q0 22 14 37.5t36 15.5q21 0 36.5 -15.5t15.5 -37.5t-14.5 -35.5 t-37.5 -13.5q-22 0 -36 13.5t-14 35.5zM335 147q0 22 13.5 35.5t36.5 13.5q21 0 36.5 -13.5t15.5 -35.5q0 -21 -15.5 -37t-36.5 -16q-22 0 -36 15t-14 38zM335 984q0 22 13.5 37.5t36.5 15.5q21 0 36.5 -15.5t15.5 -37.5q0 -21 -15.5 -35.5t-36.5 -14.5q-22 0 -36 14.5 t-14 35.5zM506 113q0 22 15 37.5t38 15.5q21 0 37 -15.5t16 -37.5q0 -21 -16 -36.5t-37 -15.5q-22 0 -37.5 15.5t-15.5 36.5zM506 1018q0 22 15 37.5t38 15.5q21 0 37 -15.5t16 -37.5t-16 -37.5t-37 -15.5q-22 0 -37.5 15t-15.5 38zM680 984q0 22 15 37.5t38 15.5 q22 0 36 -15.5t14 -37.5q0 -21 -14 -35.5t-36 -14.5t-37.5 14.5t-15.5 35.5zM683 147q0 22 15 35.5t38 13.5q21 0 35.5 -13.5t14.5 -35.5q-2 -23 -15 -39q-14 -14 -35 -14q-22 0 -37.5 15t-15.5 38zM826 887q0 22 15.5 37.5t37.5 15.5q21 0 35.5 -15.5t14.5 -37.5 t-13.5 -35.5t-36.5 -13.5q-22 0 -37.5 13.5t-15.5 35.5zM829 243q0 22 15.5 36t37.5 14q21 0 35.5 -13.5t14.5 -36.5q0 -22 -14 -38q-14 -13 -36 -15q-22 0 -37.5 15.5t-15.5 37.5zM923 736q0 21 15.5 36.5t37.5 15.5t36 -15.5t14 -36.5q0 -22 -14 -36t-36 -14t-37.5 13.5 t-15.5 36.5zM926 396q0 21 15.5 35.5t37.5 14.5q21 0 35.5 -14.5t14.5 -35.5q0 -23 -14 -40q-13 -13 -36 -13q-22 0 -37.5 15t-15.5 38zM963 567q0 22 13.5 37.5t35.5 15.5t37 -15.5t15 -37.5t-15 -36t-37 -14q-21 0 -35 13.5t-14 36.5z" />
<glyph unicode="&#x25fc;" horiz-adv-x="939" d="M0 0v940h940v-940h-940z" />
<glyph unicode="&#xf700;" horiz-adv-x="1027" d="M94 783q17 177 130 267q95 75 232 76q53 0 156.5 -27.5t161.5 -27.5q41 0 52 66l142 -37q-50 -190 -203 -190q-52 0 -152.5 34.5t-156.5 34.5q-42 0 -96 -22.5t-70 -52.5q319 -52 470 -121q108 -50 108 -147v-406q0 -252 -262 -252q-254 0 -255 238v90q-22 -5 -39 -5 q-80 0 -132.5 54t-52.5 131q0 80 59.5 133t134.5 53q83 0 142 -51t59 -132v-268q0 -99 87 -99q89 0 88 99v399q0 58 -260 116q-224 47 -343 47zM232 486q0 -34 23.5 -57t56.5 -23q34 0 57.5 23t23.5 57t-23.5 57.5t-57.5 23.5t-57 -23.5t-23 -57.5z" />
<glyph unicode="&#xf701;" d="M-1288 1338q34 370 404 371q213 0 337 -128t149 -336q-343 110 -628 110q-130 0 -262 -17zM-1126 1451q47 11 147 11q205 0 404 -55q-16 69 -99 130t-189 61q-100 0 -171.5 -40.5t-91.5 -106.5z" />
<glyph unicode="&#xf702;" d="M-1288 1338q34 370 404 371q196 0 314 -108v190h166v-509q3 -18 6 -37q-343 110 -628 110q-130 0 -262 -17zM-1126 1451q47 11 147 11q205 0 404 -55q-16 69 -99 130t-189 61q-100 0 -171.5 -40.5t-91.5 -106.5z" />
<glyph unicode="&#xf703;" d="M-1288 1338q34 370 404 371q108 0 193 -34q8 61 52.5 103t107.5 42q69 0 116.5 -48.5t47.5 -117.5q0 -56 -32 -100.5t-82 -57.5q67 -108 83 -251q-343 110 -628 110q-130 0 -262 -17zM-1126 1451q47 11 147 11q205 0 404 -55q-16 69 -99 130t-189 61q-100 0 -171.5 -40.5 t-91.5 -106.5zM-612 1654q0 -34 25 -56.5t56 -22.5t54 22.5t23 56.5t-23.5 56.5t-53.5 22.5q-31 0 -56 -23.5t-25 -55.5z" />
<glyph unicode="&#xf704;" d="M-1288 1338q34 370 404 371q42 0 77 -5v87h124v-116q61 -24 113 -74v190h166v-509l6 -37q-343 110 -628 110q-130 0 -262 -17zM-1126 1451q47 11 147 11q205 0 404 -55q-16 69 -99 130t-189 61q-100 0 -171.5 -40.5t-91.5 -106.5z" />
<glyph unicode="&#xf705;" d="M-644 1282v391h172v-391h-172z" />
<glyph unicode="&#xf706;" d="M-913 1631q0 71 50 118.5t119 47.5q80 0 126 -50t46 -127q0 -69 -38.5 -142.5t-77.5 -113.5q132 26 213.5 130t87.5 242h163q-11 -135 -58 -227.5t-124 -150.5t-184 -84.5t-234 -26.5h-83v104q55 3 89.5 38t43.5 68q-60 13 -99.5 61.5t-39.5 112.5zM-813 1625 q0 -27 19.5 -46.5t46.5 -19.5q31 0 50 19.5t19 46.5q0 31 -19 50t-50 19q-27 0 -46.5 -19t-19.5 -50z" />
<glyph unicode="&#xf707;" d="M-1092 1430q0 55 14 110.5t47 100.5t87 78t134 43l69 -81l69 81q97 -3 156.5 -64.5t59.5 -154.5q0 -85 -37 -150q64 39 103 130.5t39 215.5h127q-14 -473 -456 -473v89q116 58 116 180q0 89 -85 111l-95 -95l-97 103q-22 -6 -48 -27t-40 -39q72 0 122 -49t50 -120 q0 -69 -50 -116t-116 -47q-69 0 -119 45t-50 129zM-1003 1419q0 -31 23 -53.5t54 -22.5t52.5 22.5t21.5 53.5t-22 54t-52 23q-31 0 -54 -23.5t-23 -53.5z" />
<glyph unicode="&#xf708;" d="M-873 1422v113h157v132h154v-132h158v-113h-158v-140h-154v140h-157z" />
<glyph unicode="&#xf709;" d="M-807 1438q0 198 205 256q116 31 147.5 78.5t31.5 71.5h125q-11 -116 -75 -167.5t-171 -80.5q44 -22 70 -65t26 -96q0 -74 -53 -126.5t-127 -52.5t-126.5 52.5t-52.5 129.5zM-702 1435q0 -31 23.5 -54t53.5 -23q31 0 54 23t23 54t-23 54t-54 23t-54 -23.5t-23 -53.5z" />
<glyph unicode="&#xf70a;" d="M-312 1282v391h172v-391h-172z" />
<glyph unicode="&#xf70b;" d="M-694 1651q0 74 54 124t126 50q82 0 129 -52.5t47 -133.5q0 -80 -38 -155t-80 -115q137 24 225 133.5t93 259.5h165q-27 -147 -77 -246.5t-127 -159t-181 -84.5t-239 -25h-91v111q55 3 92 38.5t52 70.5q-69 11 -109.5 61t-40.5 123zM-586 1646q0 -31 19 -52t50 -21t51 21 t20 52t-20 51t-51 20t-50 -21t-19 -50z" />
<glyph unicode="&#xf70c;" d="M-926 1430q0 55 13.5 110.5t47 100.5t87 78t134.5 43l69 -81l69 81q97 -3 156.5 -64.5t59.5 -154.5q0 -85 -37 -150q64 39 103 130.5t39 215.5h127q-14 -473 -456 -473v89q116 58 116 180q0 89 -85 111l-95 -95l-97 103q-22 -6 -48 -27t-40 -39q72 0 122 -49t50 -120 q0 -69 -50 -116t-116 -47q-69 0 -119 45t-50 129zM-838 1419q0 -31 23.5 -53.5t54.5 -22.5t52.5 22.5t21.5 53.5t-22 54t-52 23q-31 0 -54.5 -23.5t-23.5 -53.5z" />
<glyph unicode="&#xf70d;" d="M-462 1422v113h158v132h154v-132h158v-113h-158v-140h-154v140h-158z" />
<glyph unicode="&#xf70e;" d="M-536 1438q0 198 204 256q116 31 147.5 78.5t31.5 71.5h126q-11 -116 -75 -167.5t-172 -80.5q44 -22 70.5 -65t26.5 -96q0 -74 -52.5 -126.5t-126.5 -52.5q-75 0 -127.5 52.5t-52.5 129.5zM-431 1435q0 -31 23 -54t54 -23t54 23t23 54t-23.5 54t-53.5 23q-31 0 -54 -23.5 t-23 -53.5z" />
<glyph unicode="&#xf70f;" horiz-adv-x="1561" d="M82 730q6 183 129 293q113 103 290 103q185 0 299.5 -105.5t114.5 -290.5v-495q0 -58 50 -84.5t116 -26.5q64 0 116.5 26.5t52.5 84.5v868h172v-842q0 -138 -108 -216q-95 -67 -235 -67q-143 0 -233 67q-102 74 -102 216v472q0 108 -67.5 175.5t-167.5 67.5 q-169 0 -240 -138q108 -8 182 -125q-141 -77 -142 -199v-118q22 2 47 2q90 0 150.5 -60.5t60.5 -149.5t-60.5 -149.5t-150.5 -60.5q-91 0 -154.5 63.5t-63.5 160.5v323q0 116 113 182q-69 48 -169 23zM266 190q0 -39 27.5 -66t65.5 -27q39 0 67 27t28 66q0 40 -28 67.5 t-67 27.5t-66 -27.5t-27 -67.5z" />
<glyph unicode="&#xf710;" d="M-990 1559q0 80 55.5 135.5t135.5 55.5q85 0 139 -57t54 -134q0 -74 -41 -110q288 10 335 329h162q-71 -459 -497 -459q-166 0 -254.5 67.5t-88.5 172.5zM-884 1559q0 -36 23 -59t59 -23q37 0 61.5 23t24.5 59q0 37 -24.5 62t-61.5 25q-36 0 -59 -25t-23 -62z" />
<glyph unicode="&#xf711;" d="M-902 1517q0 98 69.5 166.5t165.5 68.5q97 0 164.5 -67.5t67.5 -167.5q0 -97 -67.5 -164.5t-164.5 -67.5q-100 0 -167.5 68.5t-67.5 163.5zM-780 1517q0 -47 33.5 -78.5t79.5 -31.5q47 0 79 31.5t32 78.5q0 48 -32 81t-79 33t-80 -33t-33 -81z" />
<glyph unicode="&#xf712;" d="M-1114 1517q0 108 85 169q75 56 195 56h187q135 0 135 121v63h133v-60q0 -114 -74.5 -174.5t-190.5 -60.5h-202q-45 0 -81 -29t-36 -76q0 -45 18 -72q42 63 124 69q64 -42 151 -72q0 56 43.5 95t95.5 39q61 0 102.5 -43.5t41.5 -101.5t-41.5 -100.5t-102.5 -42.5 q-135 0 -310 116q-37 -10 -79.5 -53.5t-47.5 -77.5q-147 98 -146 235zM-591 1440q0 -24 17.5 -42t42.5 -18t43 18t18 42q0 25 -18 43t-43 18q-24 0 -42 -18t-18 -43z" />
<glyph unicode="&#xf713;" d="M-570 1871v316h166v-316h-166z" />
<glyph unicode="&#xf714;" d="M-860 2179q0 66 47.5 110.5t113.5 44.5q74 0 117 -46t43 -117q0 -108 -121 -230q135 27 220.5 128.5t93.5 238.5h144q-50 -263 -184 -363.5t-390 -100.5h-79v92q111 8 137 80q-141 36 -142 163zM-774 2174q0 -32 20.5 -52.5t51.5 -20.5t51.5 20.5t20.5 52.5q0 31 -21 51 t-51 20q-31 0 -51.5 -21t-20.5 -50z" />
<glyph unicode="&#xf715;" d="M-981 2007q0 50 16.5 99.5t48.5 94t80 73.5t114 37l65 -71l63 71q85 -3 141.5 -58t56.5 -140q0 -77 -32 -139q130 79 130 318h116q-11 -434 -420 -434v81q108 52 107 166q0 79 -80 101l-85 -88l-89 93q-47 -11 -83 -60q67 0 112 -44t45 -110q0 -61 -44 -105.5t-107 -44.5 q-66 0 -110.5 43t-44.5 117zM-902 1997q0 -31 21 -51t52 -20t50 20t19 51t-19.5 51t-49.5 20q-31 0 -52 -21t-21 -50z" />
<glyph unicode="&#xf716;" d="M-694 1994v113h132v116h153v-116h143v-113h-143v-123h-153v123h-132z" />
<glyph unicode="&#xf717;" d="M-757 1936q0 174 187 235q85 27 111 43q55 34 55 94h114q-8 -102 -69 -155q-47 -44 -158 -74q92 -45 92 -146q0 -69 -48.5 -117.5t-117.5 -48.5t-117.5 49.5t-48.5 119.5zM-660 1933q0 -31 20 -50.5t51 -19.5t50 19.5t19 50.5t-19.5 51.5t-49.5 20.5q-31 0 -51 -21 t-20 -51z" />
<glyph unicode="&#xf718;" d="M-483 -857q0 69 48 119t120 50q64 0 119.5 -43t55.5 -124v-375h-166v209h-13q-68 0 -116 49t-48 115zM-390 -849q0 -31 22 -52.5t53 -21.5t54 21.5t23 52.5t-23.5 53t-53.5 22q-31 0 -53 -22t-22 -53z" />
<glyph unicode="&#xf719;" d="M-815 -857q0 69 48.5 119t119.5 50q69 0 122 -44t53 -123v-248q0 -42 82 -42q89 0 89 42v390h161v-371q0 -92 -79 -138q-66 -42 -174 -42q-94 0 -163 40q-77 44 -77 121v82h-16q-69 0 -117.5 49t-48.5 115zM-722 -849q0 -31 23.5 -54t54.5 -23t52.5 23t21.5 54t-22 53 t-52 22q-31 0 -54.5 -22t-23.5 -53z" />
<glyph unicode="&#xf71a;" d="M-319 -791q0 39 29 68t69 29q39 0 68 -29t29 -68t-29 -67.5t-68 -28.5q-40 0 -69 29t-29 67z" />
<glyph unicode="&#xf71b;" horiz-adv-x="1174" d="M22 188q0 85 60.5 146.5t144.5 61.5q34 0 42 -9l-18 172q0 97 95 148q-75 48 -169 34q3 172 127 282q119 103 298 103q193 0 312.5 -108t119.5 -288v-1366h-174q-36 147 -254 232q-19 -243 -216 -243q-92 0 -156.5 58t-64.5 146q0 196 259 197q39 0 65 -2q13 52 29 77 q27 44 87 79l113 -61q-85 -47 -102 -124q158 -55 243 -137v1147q0 111 -73.5 178.5t-183.5 67.5q-169 0 -247 -141q135 -27 185 -125q-74 -42 -98 -69q-37 -45 -37 -119q0 -61 14 -175.5t14 -161.5q0 -89 -59 -149.5t-146 -60.5q-89 0 -149.5 61t-60.5 149zM138 188 q0 -40 27.5 -67t66.5 -27t67 27t28 67q0 39 -28 66.5t-67 27.5t-66.5 -27.5t-27.5 -66.5zM296 -431q-3 -89 89 -89q52 6 74 42.5t19 104.5q-24 9 -66 9q-114 0 -116 -67z" />
<glyph unicode="&#xf71c;" horiz-adv-x="1174" d="M22 188q0 85 60.5 146.5t144.5 61.5q34 0 42 -9l-18 172q0 97 95 148q-75 48 -169 34q3 172 127 282q119 103 298 103q193 0 312.5 -108t119.5 -288v-1369h-155l-143 188l-137 -188l-127 175q-10 -77 -71 -131t-132 -54q-92 0 -153 59t-61 147q0 205 235 205q53 0 74 -8 q34 103 145 161l97 -117q-102 -28 -113 -113l106 -133l134 169l130 -149v1161q0 111 -73.5 178.5t-183.5 67.5q-169 0 -247 -141q135 -27 185 -125q-74 -42 -98 -69q-37 -45 -37 -119q0 -61 14 -175.5t14 -161.5q0 -89 -59 -149.5t-146 -60.5q-89 0 -149.5 61t-60.5 149z M138 188q0 -40 27.5 -67t66.5 -27t67 27t28 67q0 39 -28 66.5t-67 27.5t-66.5 -27.5t-27.5 -66.5zM182 -440q0 -69 72 -69q94 0 94 130q-27 13 -77 15q-89 0 -89 -76z" />
<glyph unicode="&#xf71d;" horiz-adv-x="1312" d="M27 918q0 85 61.5 146.5t149.5 61.5q94 0 156 -64t62 -160v-443q0 -85 -33 -271q24 66 60 133l174 291h123l174 -291q37 -66 61 -133q-34 185 -34 271v251q-27 -5 -47 -5q-89 0 -149 62t-60 151q0 85 60.5 146.5t148.5 61.5q64 0 111 -31q53 44 66 119h150 q-19 -141 -130 -214q22 -44 22 -98v-902h-174l-261 493l-256 -493h-177v710q-27 -5 -47 -5q-90 0 -150.5 62t-60.5 151zM143 915q0 -39 27.5 -66.5t67.5 -27.5q39 0 66.5 27.5t27.5 66.5t-27.5 67t-66.5 28q-40 0 -67.5 -28t-27.5 -67zM841 915q0 -39 27.5 -66.5t65.5 -27.5 q39 0 67 27.5t28 66.5t-28 67t-67 28t-66 -28t-27 -67z" />
<glyph horiz-adv-x="928" d="M-902 1517q0 98 69.5 166.5t165.5 68.5q97 0 164.5 -67.5t67.5 -167.5q0 -97 -67.5 -164.5t-164.5 -67.5q-100 0 -167.5 68.5t-67.5 163.5zM-780 1517q0 -47 33.5 -78.5t79.5 -31.5q47 0 79 31.5t32 78.5q0 48 -32 81t-79 33t-80 -33t-33 -81zM45 763q8 166 108.5 264.5 t266.5 98.5q155 0 261.5 -79t106.5 -240v-807h-171v805q0 77 -52.5 125.5t-144.5 48.5t-149.5 -61t-59.5 -155h-166z" />
<glyph d="M-799 1427q0 69 55.5 116t123.5 47q-55 37 -55 104q0 161 213 161q75 0 124 -19l-24 -69q-47 14 -102 14q-127 0 -127 -87q0 -92 137 -106l-24 -65q-34 11 -66 12q-77 0 -125.5 -35t-48.5 -76q0 -74 124 -75q36 0 88 23l2 -69q-52 -22 -126 -23q-69 0 -119 40.5 t-50 106.5z" />
</font>
</defs>
</svg>
